<?xml version="1.0" encoding="iso-8859-1"?>
<!-- Generator: Adobe Illustrator 19.1.0, SVG Export Plug-In . SVG Version: 6.00 Build 0)  -->
<svg version="1.1" id="Layer_1" xmlns="http://www.w3.org/2000/svg" xmlns:xlink="http://www.w3.org/1999/xlink" x="0px" y="0px"
	 viewBox="0 0 141.503 46.202" style="enable-background:new 0 0 141.503 46.202;" xml:space="preserve">
<g id="New_Symbol">
	<g>
		<g>
			<g>
				<path style="fill:#002D73;" d="M2.091,19.29c-0.141,0.478-0.25,0.963-0.328,1.455c-0.078,0.493-0.13,1.001-0.157,1.524
					c-0.027,0.523-0.04,1.074-0.04,1.653c0,0.579,0.014,1.13,0.04,1.653c0.027,0.523,0.081,1.031,0.162,1.524
					c0.081,0.493,0.192,0.97,0.333,1.432c0.141,0.462,0.322,0.937,0.544,1.425l-0.18,0.274c-0.485-0.884-0.849-1.864-1.092-2.94
					c-0.243-1.077-0.364-2.199-0.364-3.367c0-0.558,0.032-1.122,0.094-1.691c0.063-0.569,0.156-1.125,0.279-1.668
					c0.123-0.543,0.274-1.069,0.454-1.577c0.18-0.508,0.39-0.98,0.629-1.417l0.18,0.274C2.416,18.33,2.232,18.812,2.091,19.29z"/>
				<path style="fill:#002D73;" d="M5.062,17.781c-0.132,0-0.244,0.043-0.337,0.129c-0.093,0.086-0.169,0.198-0.229,0.335
					c-0.06,0.137-0.103,0.297-0.13,0.48c-0.027,0.183-0.04,0.376-0.04,0.579c0,0.183,0.011,0.447,0.034,0.792
					c0.023,0.346,0.05,0.676,0.083,0.99c0.156,0,0.31-0.002,0.463-0.008c0.153-0.005,0.307-0.008,0.463-0.008
					c-0.006,0.051-0.011,0.102-0.014,0.152c-0.003,0.051-0.004,0.102-0.004,0.152c0,0.051,0.001,0.102,0.004,0.152
					c0.003,0.051,0.008,0.102,0.014,0.152c-0.156-0.01-0.31-0.02-0.463-0.03c-0.153-0.01-0.307-0.015-0.463-0.015
					c0,1.107,0.001,2.207,0.004,3.299c0.003,1.092,0.014,2.192,0.032,3.299c-0.067-0.02-0.133-0.03-0.2-0.03
					c-0.067,0-0.13,0-0.191,0c-0.127,0-0.261,0.01-0.4,0.03c0.042-1.107,0.066-2.202,0.072-3.283
					c0.006-1.082,0.009-2.186,0.009-3.314c-0.108,0-0.216,0.005-0.324,0.015c-0.108,0.01-0.216,0.02-0.324,0.03
					c0.006-0.051,0.01-0.101,0.014-0.152c0.003-0.051,0.004-0.101,0.004-0.152c0-0.051-0.002-0.101-0.004-0.152
					c-0.003-0.051-0.008-0.101-0.014-0.152c0.108,0,0.217,0.003,0.328,0.008c0.111,0.005,0.217,0.008,0.319,0.008
					c0-0.294,0.018-0.614,0.054-0.96c0.036-0.345,0.088-0.686,0.157-1.021c0.069-0.335,0.151-0.652,0.247-0.952
					C4.322,17.855,4.43,17.604,4.55,17.4c0.108-0.183,0.244-0.345,0.409-0.487C5.124,16.771,5.293,16.7,5.467,16.7
					c0.066,0,0.126,0.015,0.18,0.046c-0.006,0.203-0.014,0.406-0.022,0.609c-0.009,0.203-0.014,0.406-0.014,0.609L5.557,18.01
					C5.413,17.858,5.248,17.781,5.062,17.781z"/>
				<path style="fill:#002D73;" d="M6.379,20.006c-0.003-0.406-0.008-0.808-0.014-1.204c-0.006-0.396-0.013-0.774-0.022-1.135
					c-0.009-0.36-0.02-0.668-0.032-0.922c0.168,0.051,0.303,0.076,0.405,0.076c0.102,0,0.237-0.025,0.405-0.076
					c-0.012,0.254-0.022,0.561-0.032,0.922c-0.009,0.361-0.017,0.739-0.022,1.135c-0.006,0.396-0.011,0.797-0.014,1.204
					c-0.003,0.406-0.004,0.782-0.004,1.127v2.758c0,0.345,0.001,0.721,0.004,1.127c0.003,0.406,0.008,0.808,0.014,1.204
					c0.006,0.396,0.014,0.772,0.022,1.127c0.009,0.356,0.019,0.65,0.032,0.884c-0.138-0.02-0.273-0.03-0.405-0.03
					c-0.132,0-0.267,0.01-0.405,0.03C6.324,28,6.334,27.705,6.343,27.35c0.009-0.355,0.016-0.731,0.022-1.127
					c0.006-0.396,0.01-0.797,0.014-1.204c0.003-0.406,0.004-0.782,0.004-1.127v-2.758C6.384,20.788,6.382,20.412,6.379,20.006z"/>
				<path style="fill:#002D73;" d="M8.662,24.554c0.009-0.381,0.014-0.759,0.014-1.135c0-0.355-0.002-0.741-0.004-1.158
					c-0.003-0.416-0.008-0.838-0.014-1.265c0.15,0.051,0.276,0.076,0.378,0.076c0.096,0,0.219-0.025,0.369-0.076
					C9.374,21.606,9.351,22.274,9.337,23c-0.015,0.726-0.023,1.47-0.023,2.232c0,0.528,0.027,0.932,0.081,1.211
					c0.054,0.28,0.12,0.49,0.198,0.632c0.084,0.163,0.19,0.297,0.319,0.404c0.129,0.107,0.28,0.16,0.454,0.16
					c0.252,0,0.461-0.094,0.629-0.282c0.168-0.188,0.291-0.419,0.368-0.693c0.042-0.173,0.075-0.32,0.099-0.442
					c0.024-0.122,0.043-0.284,0.058-0.488c0.015-0.203,0.024-0.477,0.027-0.823c0.003-0.345,0.005-0.817,0.005-1.417v-1.28
					c0-0.223-0.002-0.437-0.005-0.64c-0.003-0.203-0.008-0.396-0.013-0.579c0.066,0.02,0.129,0.038,0.189,0.053
					c0.06,0.015,0.123,0.023,0.189,0.023c0.066,0,0.129-0.008,0.189-0.023c0.06-0.015,0.12-0.033,0.18-0.053
					c-0.03,0.792-0.048,1.557-0.054,2.293c-0.006,0.737-0.009,1.516-0.009,2.339c0,0.457,0.003,0.904,0.009,1.341
					c0.006,0.437,0.015,0.858,0.027,1.265c-0.12-0.02-0.237-0.03-0.351-0.03c-0.114,0-0.231,0.01-0.35,0.03
					c0.006-0.091,0.01-0.188,0.013-0.289c0.003-0.101,0.005-0.208,0.005-0.32v-0.655h-0.018c-0.156,0.488-0.357,0.846-0.602,1.074
					c-0.246,0.229-0.512,0.343-0.8,0.343c-0.467,0-0.834-0.211-1.101-0.632c-0.267-0.421-0.4-1.028-0.4-1.821
					C8.649,25.395,8.653,24.935,8.662,24.554z"/>
				<path style="fill:#002D73;" d="M14.465,18.955c-0.018,0.386-0.032,0.764-0.041,1.135c-0.009,0.371-0.02,0.744-0.031,1.12
					c0.066,0,0.189-0.002,0.369-0.008c0.18-0.005,0.374-0.018,0.584-0.038c-0.006,0.03-0.009,0.086-0.009,0.168v0.152v0.168
					c0,0.071,0.003,0.122,0.009,0.152c-0.078-0.01-0.159-0.018-0.243-0.023c-0.084-0.005-0.174-0.008-0.27-0.008h-0.44
					c-0.006,0.041-0.014,0.203-0.022,0.488c-0.009,0.285-0.017,0.622-0.023,1.013c-0.006,0.391-0.01,0.8-0.013,1.226
					c-0.003,0.427-0.005,0.808-0.005,1.143c0,0.285,0.005,0.564,0.014,0.838c0.009,0.274,0.037,0.521,0.085,0.739
					c0.048,0.218,0.12,0.394,0.216,0.526c0.096,0.132,0.234,0.198,0.413,0.198c0.048,0,0.113-0.01,0.193-0.03
					c0.081-0.02,0.151-0.046,0.211-0.076v0.366c-0.102,0.03-0.214,0.069-0.337,0.114c-0.123,0.046-0.241,0.069-0.355,0.069
					c-0.378,0-0.656-0.158-0.836-0.472c-0.18-0.315-0.27-0.777-0.27-1.387c0-0.274,0.003-0.571,0.009-0.891
					c0.006-0.32,0.014-0.67,0.022-1.051c0.009-0.381,0.016-0.802,0.023-1.265c0.006-0.462,0.009-0.977,0.009-1.546H13.44
					c-0.048,0-0.099,0.003-0.153,0.008c-0.054,0.005-0.111,0.013-0.171,0.023c0.006-0.061,0.01-0.119,0.014-0.175
					c0.003-0.056,0.004-0.114,0.004-0.175c0-0.051-0.002-0.101-0.004-0.152c-0.003-0.051-0.008-0.101-0.014-0.152
					c0.27,0.03,0.467,0.046,0.593,0.046c-0.006-0.203-0.01-0.457-0.014-0.762c-0.003-0.305-0.01-0.619-0.022-0.945l0.746-0.533
					H14.465z"/>
				<path style="fill:#002D73;" d="M16.389,17.797c0.09-0.152,0.198-0.229,0.324-0.229s0.234,0.076,0.324,0.229
					c0.09,0.152,0.135,0.335,0.135,0.548c0,0.213-0.045,0.396-0.135,0.549c-0.09,0.152-0.198,0.228-0.324,0.228
					s-0.234-0.076-0.324-0.228c-0.09-0.152-0.135-0.335-0.135-0.549C16.254,18.132,16.299,17.949,16.389,17.797z M16.366,22.406
					c-0.009-0.503-0.029-0.973-0.059-1.409c0.168,0.051,0.303,0.076,0.405,0.076c0.102,0,0.237-0.025,0.405-0.076
					c-0.03,0.437-0.049,0.906-0.058,1.409c-0.009,0.503-0.014,0.983-0.014,1.44v1.585c0,0.457,0.004,0.937,0.014,1.44
					c0.009,0.503,0.028,0.957,0.058,1.364c-0.138-0.02-0.273-0.03-0.405-0.03c-0.132,0-0.267,0.01-0.405,0.03
					c0.03-0.406,0.049-0.861,0.059-1.364c0.009-0.503,0.013-0.983,0.013-1.44v-1.585C16.38,23.388,16.375,22.908,16.366,22.406z"/>
				<path style="fill:#002D73;" d="M18.537,22.931c0.132-0.477,0.304-0.871,0.517-1.181c0.213-0.31,0.457-0.538,0.733-0.686
					c0.276-0.147,0.557-0.221,0.845-0.221c0.33,0,0.625,0.069,0.886,0.206c0.261,0.137,0.448,0.292,0.562,0.465
					c-0.042,0.152-0.079,0.312-0.112,0.48c-0.033,0.168-0.062,0.343-0.085,0.526h-0.072c-0.042-0.132-0.099-0.267-0.171-0.404
					c-0.072-0.137-0.157-0.264-0.256-0.381c-0.099-0.117-0.208-0.213-0.328-0.289c-0.12-0.076-0.252-0.114-0.395-0.114
					c-0.27,0-0.502,0.084-0.697,0.251c-0.195,0.168-0.354,0.399-0.476,0.693c-0.123,0.295-0.213,0.643-0.27,1.044
					c-0.057,0.401-0.085,0.836-0.085,1.303c0,1.046,0.132,1.836,0.395,2.369c0.264,0.533,0.65,0.8,1.16,0.8
					c0.12,0,0.243-0.028,0.369-0.084c0.126-0.056,0.249-0.132,0.369-0.228c0.12-0.097,0.232-0.211,0.337-0.343
					c0.105-0.132,0.196-0.274,0.274-0.427l0.045,0.046c-0.03,0.244-0.048,0.493-0.054,0.747c-0.18,0.244-0.403,0.452-0.67,0.625
					c-0.267,0.173-0.544,0.259-0.831,0.259c-0.258,0-0.517-0.063-0.778-0.19c-0.261-0.127-0.496-0.34-0.706-0.64
					c-0.21-0.299-0.379-0.688-0.508-1.166c-0.129-0.477-0.193-1.061-0.193-1.752C18.339,23.977,18.405,23.409,18.537,22.931z"/>
				<path style="fill:#002D73;" d="M23.967,21.027c0.228-0.122,0.461-0.183,0.701-0.183c0.216,0,0.414,0.053,0.594,0.16
					c0.18,0.107,0.334,0.259,0.462,0.457c0.128,0.198,0.228,0.437,0.3,0.716c0.073,0.279,0.109,0.587,0.109,0.922
					c0,0.579-0.006,1.156-0.018,1.729c-0.012,0.574-0.018,1.181-0.018,1.821c0,0.122,0.002,0.251,0.005,0.389
					c0.003,0.137,0.016,0.259,0.04,0.366c0.024,0.107,0.058,0.196,0.103,0.267c0.045,0.071,0.112,0.107,0.202,0.107
					c0.03,0,0.061-0.002,0.094-0.008c0.033-0.005,0.064-0.023,0.094-0.053v0.335c-0.066,0.051-0.148,0.091-0.247,0.122
					c-0.099,0.03-0.208,0.046-0.328,0.046c-0.195,0-0.344-0.084-0.447-0.251c-0.103-0.168-0.164-0.383-0.182-0.648
					c-0.215,0.366-0.427,0.635-0.636,0.807c-0.209,0.173-0.466,0.259-0.77,0.259c-0.149,0-0.296-0.036-0.439-0.107
					c-0.143-0.071-0.27-0.188-0.381-0.35c-0.111-0.162-0.2-0.358-0.269-0.587c-0.069-0.229-0.103-0.49-0.103-0.785
					c0-0.609,0.112-1.082,0.336-1.417c0.224-0.335,0.533-0.558,0.927-0.67c0.322-0.091,0.575-0.17,0.757-0.236
					c0.182-0.066,0.317-0.135,0.403-0.206c0.087-0.071,0.139-0.155,0.157-0.251c0.018-0.097,0.027-0.221,0.027-0.373
					c0-0.254-0.018-0.498-0.054-0.731c-0.036-0.233-0.093-0.437-0.171-0.609c-0.078-0.173-0.18-0.312-0.306-0.419
					c-0.126-0.107-0.279-0.16-0.459-0.16c-0.24,0-0.463,0.091-0.67,0.274c-0.207,0.183-0.361,0.437-0.463,0.762h-0.099v-0.792
					C23.49,21.382,23.739,21.149,23.967,21.027z M25.088,24.592c-0.134,0.041-0.27,0.084-0.407,0.129
					c-0.137,0.046-0.273,0.104-0.407,0.175c-0.134,0.071-0.254,0.168-0.358,0.29c-0.104,0.122-0.188,0.274-0.25,0.457
					c-0.063,0.183-0.094,0.417-0.094,0.701c0,0.478,0.08,0.838,0.241,1.082c0.161,0.244,0.34,0.366,0.537,0.366
					c0.227,0,0.434-0.107,0.622-0.32c0.188-0.213,0.332-0.462,0.434-0.747l0.036-2.285C25.339,24.501,25.222,24.551,25.088,24.592z"
					/>
				<path style="fill:#002D73;" d="M27.729,27.152c0.063,0.122,0.138,0.236,0.225,0.343c0.087,0.107,0.186,0.196,0.297,0.267
					c0.111,0.071,0.229,0.107,0.355,0.107c0.114,0,0.223-0.03,0.328-0.091c0.105-0.061,0.198-0.147,0.279-0.259
					c0.081-0.112,0.145-0.254,0.193-0.427c0.048-0.173,0.072-0.371,0.072-0.594c0-0.315-0.053-0.556-0.157-0.724
					c-0.105-0.168-0.235-0.305-0.391-0.411c-0.156-0.107-0.327-0.2-0.512-0.282c-0.186-0.081-0.357-0.196-0.512-0.343
					c-0.156-0.147-0.286-0.343-0.391-0.587c-0.105-0.244-0.157-0.579-0.157-1.006c0-0.335,0.033-0.642,0.099-0.922
					c0.066-0.279,0.162-0.52,0.288-0.724c0.126-0.203,0.282-0.363,0.468-0.48c0.186-0.117,0.398-0.175,0.638-0.175
					c0.222,0,0.409,0.051,0.562,0.152c0.153,0.102,0.298,0.193,0.436,0.274c-0.048,0.152-0.093,0.34-0.135,0.564
					c-0.042,0.224-0.069,0.396-0.081,0.518h-0.108c-0.048-0.244-0.141-0.462-0.279-0.655c-0.138-0.193-0.309-0.289-0.512-0.289
					c-0.09,0-0.18,0.026-0.27,0.076c-0.09,0.051-0.171,0.127-0.243,0.228c-0.072,0.102-0.132,0.234-0.18,0.396
					c-0.048,0.162-0.072,0.356-0.072,0.579c0,0.325,0.052,0.577,0.157,0.754c0.105,0.178,0.235,0.318,0.391,0.419
					c0.156,0.102,0.327,0.19,0.512,0.267c0.186,0.076,0.356,0.183,0.512,0.32c0.156,0.137,0.286,0.328,0.391,0.571
					c0.105,0.244,0.157,0.579,0.157,1.006c0,0.295-0.038,0.584-0.112,0.868c-0.075,0.285-0.183,0.541-0.324,0.769
					c-0.141,0.229-0.31,0.406-0.508,0.533c-0.198,0.127-0.423,0.19-0.674,0.19c-0.276,0-0.507-0.046-0.692-0.137
					c-0.186-0.091-0.342-0.198-0.467-0.32c0.036-0.132,0.073-0.312,0.112-0.541c0.039-0.229,0.058-0.419,0.058-0.571h0.108
					C27.619,26.918,27.666,27.03,27.729,27.152z"/>
				<path style="fill:#002D73;" d="M30.956,22.878c0.129-0.482,0.298-0.873,0.508-1.173c0.21-0.3,0.445-0.518,0.706-0.655
					c0.261-0.137,0.52-0.206,0.778-0.206c0.264,0,0.524,0.069,0.782,0.206c0.258,0.137,0.491,0.356,0.701,0.655
					c0.21,0.3,0.379,0.691,0.508,1.173c0.129,0.483,0.193,1.069,0.193,1.76c0,0.691-0.064,1.277-0.193,1.76
					c-0.129,0.482-0.298,0.874-0.508,1.173c-0.21,0.3-0.444,0.51-0.701,0.632c-0.258,0.122-0.518,0.183-0.782,0.183
					c-0.258,0-0.517-0.061-0.778-0.183c-0.261-0.122-0.496-0.333-0.706-0.632c-0.21-0.299-0.379-0.691-0.508-1.173
					c-0.129-0.482-0.193-1.069-0.193-1.76C30.763,23.947,30.827,23.36,30.956,22.878z M31.621,25.872
					c0.045,0.396,0.121,0.749,0.229,1.059c0.108,0.31,0.252,0.556,0.431,0.739c0.18,0.183,0.401,0.274,0.665,0.274
					c0.264,0,0.485-0.091,0.665-0.274c0.18-0.183,0.324-0.429,0.431-0.739c0.108-0.31,0.184-0.663,0.229-1.059
					c0.045-0.396,0.067-0.807,0.067-1.234c0-0.427-0.022-0.838-0.067-1.234c-0.045-0.396-0.121-0.749-0.229-1.059
					c-0.108-0.31-0.252-0.556-0.431-0.739c-0.18-0.183-0.402-0.274-0.665-0.274c-0.264,0-0.485,0.091-0.665,0.274
					c-0.18,0.183-0.324,0.429-0.431,0.739c-0.108,0.31-0.184,0.663-0.229,1.059c-0.045,0.396-0.067,0.808-0.067,1.234
					C31.554,25.064,31.576,25.476,31.621,25.872z"/>
				<path style="fill:#002D73;" d="M38.799,22.223c-0.174-0.391-0.413-0.587-0.719-0.587c-0.419,0-0.727,0.219-0.921,0.655
					c-0.195,0.437-0.292,1.051-0.292,1.844v1.295c0,0.457,0.005,0.937,0.014,1.44c0.009,0.503,0.028,0.957,0.058,1.364
					c-0.138-0.02-0.273-0.03-0.405-0.03c-0.132,0-0.267,0.01-0.404,0.03c0.03-0.406,0.049-0.861,0.058-1.364
					c0.009-0.503,0.014-0.983,0.014-1.44v-1.585c0-0.457-0.005-0.937-0.014-1.44c-0.009-0.503-0.029-0.973-0.058-1.409
					c0.168,0.051,0.303,0.076,0.404,0.076c0.048,0,0.1-0.008,0.157-0.023c0.057-0.015,0.124-0.033,0.202-0.053
					c-0.018,0.406-0.027,0.813-0.027,1.219h0.018c0.168-0.437,0.37-0.774,0.604-1.013c0.235-0.239,0.514-0.358,0.839-0.358
					c0.168,0,0.338,0.041,0.509,0.122c0.171,0.081,0.326,0.221,0.464,0.419c0.138,0.198,0.251,0.467,0.338,0.808
					c0.087,0.34,0.131,0.775,0.131,1.303c0,0.437-0.006,0.886-0.018,1.348c-0.012,0.462-0.018,0.952-0.018,1.47v0.99
					c0,0.163,0.001,0.322,0.004,0.48c0.003,0.158,0.008,0.307,0.014,0.449c-0.121-0.02-0.249-0.03-0.382-0.03
					c-0.128,0-0.252,0.01-0.373,0.03c0.012-0.528,0.025-1.072,0.04-1.63c0.015-0.558,0.022-1.133,0.022-1.722v-0.929
					C39.06,23.19,38.973,22.614,38.799,22.223z"/>
				<path style="fill:#002D73;" d="M41.285,21.91c0.351-0.711,0.861-1.067,1.533-1.067c0.318,0,0.592,0.084,0.823,0.251
					c0.231,0.168,0.424,0.391,0.58,0.67c0.156,0.28,0.271,0.607,0.346,0.983c0.075,0.376,0.112,0.777,0.112,1.204
					c0,0.102-0.002,0.201-0.004,0.297c-0.003,0.097-0.008,0.196-0.014,0.297c-0.324-0.01-0.644-0.02-0.962-0.03
					c-0.318-0.01-0.638-0.015-0.962-0.015c-0.198,0-0.394,0.005-0.589,0.015c-0.195,0.01-0.391,0.02-0.589,0.03
					c-0.006,0.051-0.009,0.127-0.009,0.229v0.198c0,0.396,0.034,0.767,0.103,1.112c0.069,0.345,0.169,0.643,0.301,0.891
					c0.132,0.249,0.294,0.447,0.485,0.594c0.192,0.147,0.413,0.221,0.665,0.221c0.12,0,0.243-0.028,0.369-0.084
					c0.126-0.056,0.249-0.132,0.368-0.228c0.12-0.097,0.232-0.211,0.337-0.343c0.105-0.132,0.196-0.274,0.274-0.427l0.045,0.046
					l-0.054,0.747c-0.18,0.244-0.403,0.452-0.67,0.625c-0.267,0.173-0.544,0.259-0.832,0.259c-0.324,0-0.619-0.084-0.885-0.251
					c-0.267-0.168-0.498-0.411-0.692-0.731c-0.195-0.32-0.345-0.698-0.449-1.135c-0.105-0.437-0.157-0.909-0.157-1.417
					C40.759,23.602,40.934,22.621,41.285,21.91z M42.273,21.59c-0.153,0.173-0.279,0.389-0.378,0.648
					c-0.099,0.259-0.174,0.544-0.225,0.853c-0.051,0.31-0.083,0.602-0.094,0.876c0.186,0.01,0.379,0.02,0.58,0.03
					c0.201,0.01,0.397,0.015,0.589,0.015c0.198,0,0.398-0.005,0.602-0.015c0.204-0.01,0.401-0.02,0.593-0.03
					c0-0.274-0.014-0.564-0.04-0.868c-0.027-0.305-0.081-0.589-0.162-0.853c-0.081-0.264-0.193-0.482-0.337-0.655
					c-0.144-0.172-0.333-0.259-0.566-0.259C42.614,21.331,42.426,21.418,42.273,21.59z"/>
				<path style="fill:#002D73;" d="M49.532,17.781c-0.132,0-0.244,0.043-0.337,0.129c-0.093,0.086-0.169,0.198-0.229,0.335
					c-0.06,0.137-0.103,0.297-0.13,0.48c-0.027,0.183-0.04,0.376-0.04,0.579c0,0.183,0.011,0.447,0.034,0.792
					c0.023,0.346,0.05,0.676,0.083,0.99c0.156,0,0.31-0.002,0.463-0.008c0.153-0.005,0.307-0.008,0.463-0.008
					c-0.006,0.051-0.011,0.102-0.014,0.152c-0.003,0.051-0.004,0.102-0.004,0.152c0,0.051,0.001,0.102,0.004,0.152
					c0.003,0.051,0.008,0.102,0.014,0.152c-0.156-0.01-0.31-0.02-0.463-0.03c-0.153-0.01-0.307-0.015-0.463-0.015
					c0,1.107,0.001,2.207,0.004,3.299c0.003,1.092,0.014,2.192,0.032,3.299c-0.067-0.02-0.133-0.03-0.2-0.03
					c-0.067,0-0.13,0-0.191,0c-0.127,0-0.261,0.01-0.4,0.03c0.042-1.107,0.066-2.202,0.072-3.283
					c0.006-1.082,0.009-2.186,0.009-3.314c-0.108,0-0.216,0.005-0.324,0.015c-0.108,0.01-0.216,0.02-0.324,0.03
					c0.006-0.051,0.01-0.101,0.014-0.152c0.003-0.051,0.004-0.101,0.004-0.152c0-0.051-0.002-0.101-0.004-0.152
					c-0.003-0.051-0.008-0.101-0.014-0.152c0.108,0,0.217,0.003,0.328,0.008c0.111,0.005,0.217,0.008,0.319,0.008
					c0-0.294,0.018-0.614,0.054-0.96c0.036-0.345,0.088-0.686,0.157-1.021c0.069-0.335,0.151-0.652,0.247-0.952
					c0.096-0.299,0.204-0.551,0.324-0.754c0.108-0.183,0.244-0.345,0.409-0.487c0.165-0.142,0.334-0.213,0.508-0.213
					c0.066,0,0.126,0.015,0.18,0.046c-0.006,0.203-0.014,0.406-0.022,0.609c-0.009,0.203-0.014,0.406-0.014,0.609l-0.054,0.046
					C49.883,17.858,49.718,17.781,49.532,17.781z"/>
				<path style="fill:#002D73;" d="M50.633,24.554c0.009-0.381,0.014-0.759,0.014-1.135c0-0.355-0.002-0.741-0.004-1.158
					c-0.003-0.416-0.008-0.838-0.014-1.265c0.15,0.051,0.276,0.076,0.378,0.076c0.096,0,0.219-0.025,0.369-0.076
					c-0.03,0.609-0.053,1.277-0.067,2.003c-0.015,0.726-0.023,1.47-0.023,2.232c0,0.528,0.027,0.932,0.081,1.211
					c0.054,0.28,0.12,0.49,0.198,0.632c0.084,0.163,0.19,0.297,0.319,0.404c0.129,0.107,0.28,0.16,0.454,0.16
					c0.252,0,0.461-0.094,0.629-0.282c0.168-0.188,0.29-0.419,0.368-0.693c0.042-0.173,0.075-0.32,0.099-0.442
					c0.024-0.122,0.043-0.284,0.058-0.488c0.015-0.203,0.024-0.477,0.027-0.823c0.003-0.345,0.005-0.817,0.005-1.417v-1.28
					c0-0.223-0.002-0.437-0.005-0.64c-0.003-0.203-0.008-0.396-0.013-0.579c0.066,0.02,0.129,0.038,0.189,0.053
					c0.06,0.015,0.123,0.023,0.189,0.023c0.066,0,0.129-0.008,0.189-0.023c0.06-0.015,0.12-0.033,0.18-0.053
					c-0.03,0.792-0.048,1.557-0.054,2.293c-0.006,0.737-0.009,1.516-0.009,2.339c0,0.457,0.003,0.904,0.009,1.341
					c0.006,0.437,0.015,0.858,0.027,1.265c-0.12-0.02-0.237-0.03-0.351-0.03s-0.231,0.01-0.35,0.03
					c0.006-0.091,0.01-0.188,0.013-0.289c0.003-0.101,0.005-0.208,0.005-0.32v-0.655h-0.018c-0.156,0.488-0.357,0.846-0.602,1.074
					c-0.246,0.229-0.512,0.343-0.8,0.343c-0.467,0-0.834-0.211-1.101-0.632c-0.267-0.421-0.4-1.028-0.4-1.821
					C50.62,25.395,50.624,24.935,50.633,24.554z"/>
				<path style="fill:#002D73;" d="M57.501,22.078c-0.087-0.051-0.175-0.076-0.265-0.076c-0.144,0-0.273,0.056-0.387,0.168
					c-0.114,0.112-0.21,0.262-0.288,0.449c-0.078,0.188-0.138,0.411-0.18,0.67c-0.042,0.259-0.063,0.536-0.063,0.83v1.676
					c0,0.681,0.001,1.201,0.005,1.562c0.003,0.361,0.013,0.653,0.031,0.876c-0.12-0.02-0.24-0.03-0.36-0.03
					c-0.132,0-0.258,0.01-0.378,0.03c0.018-0.345,0.028-0.815,0.031-1.409c0.003-0.594,0.005-1.323,0.005-2.186V24.15
					c0-0.396-0.002-0.853-0.005-1.371c-0.003-0.518-0.013-1.112-0.031-1.783c0.066,0.02,0.129,0.038,0.189,0.053
					c0.06,0.015,0.123,0.023,0.189,0.023c0.054,0,0.111-0.008,0.171-0.023c0.06-0.015,0.123-0.033,0.189-0.053
					c-0.024,0.366-0.037,0.655-0.04,0.868c-0.003,0.213-0.004,0.417-0.004,0.609l0.018,0.015c0.354-1.097,0.749-1.646,1.187-1.646
					c0.054,0,0.1,0.005,0.139,0.015c0.039,0.01,0.088,0.036,0.148,0.076c-0.03,0.122-0.048,0.307-0.054,0.556
					c-0.006,0.249-0.009,0.475-0.009,0.678l-0.063,0.076C57.647,22.185,57.588,22.129,57.501,22.078z"/>
				<path style="fill:#002D73;" d="M58.436,22.878c0.129-0.482,0.298-0.873,0.508-1.173c0.21-0.3,0.445-0.518,0.706-0.655
					c0.261-0.137,0.52-0.206,0.778-0.206c0.264,0,0.524,0.069,0.782,0.206c0.258,0.137,0.491,0.356,0.701,0.655
					c0.21,0.3,0.379,0.691,0.508,1.173c0.129,0.483,0.193,1.069,0.193,1.76c0,0.691-0.064,1.277-0.193,1.76
					c-0.129,0.482-0.298,0.874-0.508,1.173c-0.21,0.3-0.444,0.51-0.701,0.632c-0.258,0.122-0.518,0.183-0.782,0.183
					c-0.258,0-0.517-0.061-0.778-0.183c-0.261-0.122-0.496-0.333-0.706-0.632c-0.21-0.299-0.379-0.691-0.508-1.173
					c-0.129-0.482-0.193-1.069-0.193-1.76C58.243,23.947,58.307,23.36,58.436,22.878z M59.101,25.872
					c0.045,0.396,0.121,0.749,0.229,1.059c0.108,0.31,0.252,0.556,0.431,0.739c0.18,0.183,0.401,0.274,0.665,0.274
					c0.264,0,0.485-0.091,0.665-0.274c0.18-0.183,0.324-0.429,0.431-0.739c0.108-0.31,0.184-0.663,0.229-1.059
					c0.045-0.396,0.067-0.807,0.067-1.234c0-0.427-0.022-0.838-0.067-1.234c-0.045-0.396-0.121-0.749-0.229-1.059
					c-0.108-0.31-0.252-0.556-0.431-0.739c-0.18-0.183-0.402-0.274-0.665-0.274c-0.264,0-0.485,0.091-0.665,0.274
					c-0.18,0.183-0.324,0.429-0.431,0.739c-0.108,0.31-0.184,0.663-0.229,1.059c-0.045,0.396-0.067,0.808-0.067,1.234
					C59.034,25.064,59.056,25.476,59.101,25.872z"/>
				<path style="fill:#002D73;" d="M64.436,21.027c0.228-0.122,0.461-0.183,0.701-0.183c0.216,0,0.414,0.053,0.594,0.16
					c0.18,0.107,0.334,0.259,0.462,0.457c0.128,0.198,0.228,0.437,0.301,0.716c0.073,0.279,0.109,0.587,0.109,0.922
					c0,0.579-0.006,1.156-0.018,1.729c-0.012,0.574-0.018,1.181-0.018,1.821c0,0.122,0.002,0.251,0.005,0.389
					c0.003,0.137,0.016,0.259,0.04,0.366c0.024,0.107,0.058,0.196,0.103,0.267c0.045,0.071,0.112,0.107,0.202,0.107
					c0.03,0,0.061-0.002,0.094-0.008c0.033-0.005,0.064-0.023,0.094-0.053v0.335c-0.066,0.051-0.148,0.091-0.247,0.122
					c-0.099,0.03-0.208,0.046-0.328,0.046c-0.195,0-0.344-0.084-0.447-0.251c-0.103-0.168-0.164-0.383-0.182-0.648
					c-0.215,0.366-0.427,0.635-0.636,0.807c-0.209,0.173-0.466,0.259-0.77,0.259c-0.149,0-0.296-0.036-0.439-0.107
					c-0.143-0.071-0.27-0.188-0.381-0.35c-0.111-0.162-0.2-0.358-0.269-0.587c-0.069-0.229-0.103-0.49-0.103-0.785
					c0-0.609,0.112-1.082,0.336-1.417c0.224-0.335,0.533-0.558,0.927-0.67c0.322-0.091,0.575-0.17,0.757-0.236
					c0.182-0.066,0.317-0.135,0.403-0.206c0.087-0.071,0.139-0.155,0.157-0.251c0.018-0.097,0.027-0.221,0.027-0.373
					c0-0.254-0.018-0.498-0.054-0.731c-0.036-0.233-0.093-0.437-0.171-0.609c-0.078-0.173-0.18-0.312-0.306-0.419
					c-0.126-0.107-0.279-0.16-0.459-0.16c-0.24,0-0.463,0.091-0.67,0.274c-0.207,0.183-0.361,0.437-0.463,0.762H63.69v-0.792
					C63.96,21.382,64.209,21.149,64.436,21.027z M65.557,24.592c-0.134,0.041-0.27,0.084-0.407,0.129
					c-0.137,0.046-0.273,0.104-0.407,0.175c-0.134,0.071-0.254,0.168-0.358,0.29c-0.104,0.122-0.188,0.274-0.25,0.457
					c-0.063,0.183-0.094,0.417-0.094,0.701c0,0.478,0.08,0.838,0.241,1.082c0.161,0.244,0.34,0.366,0.537,0.366
					c0.227,0,0.434-0.107,0.622-0.32c0.188-0.213,0.332-0.462,0.434-0.747l0.036-2.285C65.809,24.501,65.691,24.551,65.557,24.592z"
					/>
				<path style="fill:#002D73;" d="M68.922,18.955c-0.018,0.386-0.032,0.764-0.041,1.135c-0.009,0.371-0.02,0.744-0.031,1.12
					c0.066,0,0.189-0.002,0.369-0.008c0.18-0.005,0.374-0.018,0.584-0.038c-0.006,0.03-0.009,0.086-0.009,0.168v0.152v0.168
					c0,0.071,0.003,0.122,0.009,0.152c-0.078-0.01-0.159-0.018-0.243-0.023c-0.084-0.005-0.174-0.008-0.27-0.008h-0.44
					c-0.006,0.041-0.014,0.203-0.022,0.488c-0.009,0.285-0.017,0.622-0.023,1.013c-0.006,0.391-0.01,0.8-0.013,1.226
					c-0.003,0.427-0.005,0.808-0.005,1.143c0,0.285,0.005,0.564,0.014,0.838c0.009,0.274,0.037,0.521,0.085,0.739
					c0.048,0.218,0.12,0.394,0.216,0.526c0.096,0.132,0.234,0.198,0.413,0.198c0.048,0,0.113-0.01,0.193-0.03
					c0.081-0.02,0.151-0.046,0.211-0.076v0.366c-0.102,0.03-0.214,0.069-0.337,0.114c-0.123,0.046-0.241,0.069-0.355,0.069
					c-0.378,0-0.656-0.158-0.836-0.472c-0.18-0.315-0.27-0.777-0.27-1.387c0-0.274,0.003-0.571,0.009-0.891
					c0.006-0.32,0.014-0.67,0.022-1.051c0.009-0.381,0.016-0.802,0.023-1.265c0.006-0.462,0.009-0.977,0.009-1.546h-0.288
					c-0.048,0-0.099,0.003-0.153,0.008c-0.054,0.005-0.111,0.013-0.171,0.023c0.006-0.061,0.01-0.119,0.014-0.175
					c0.003-0.056,0.004-0.114,0.004-0.175c0-0.051-0.002-0.101-0.004-0.152c-0.003-0.051-0.008-0.101-0.014-0.152
					c0.27,0.03,0.467,0.046,0.593,0.046c-0.006-0.203-0.01-0.457-0.014-0.762c-0.003-0.305-0.01-0.619-0.022-0.945l0.746-0.533
					H68.922z"/>
				<path style="fill:#002D73;" d="M70.76,21.91c0.351-0.711,0.861-1.067,1.533-1.067c0.318,0,0.592,0.084,0.823,0.251
					c0.231,0.168,0.424,0.391,0.58,0.67c0.156,0.28,0.271,0.607,0.346,0.983c0.075,0.376,0.112,0.777,0.112,1.204
					c0,0.102-0.002,0.201-0.004,0.297c-0.003,0.097-0.008,0.196-0.014,0.297c-0.324-0.01-0.644-0.02-0.962-0.03
					c-0.318-0.01-0.638-0.015-0.962-0.015c-0.198,0-0.394,0.005-0.589,0.015c-0.195,0.01-0.391,0.02-0.589,0.03
					c-0.006,0.051-0.009,0.127-0.009,0.229v0.198c0,0.396,0.034,0.767,0.103,1.112c0.069,0.345,0.169,0.643,0.301,0.891
					c0.132,0.249,0.294,0.447,0.485,0.594c0.192,0.147,0.413,0.221,0.665,0.221c0.12,0,0.243-0.028,0.369-0.084
					c0.126-0.056,0.249-0.132,0.368-0.228c0.12-0.097,0.232-0.211,0.337-0.343c0.105-0.132,0.196-0.274,0.274-0.427l0.045,0.046
					l-0.054,0.747c-0.18,0.244-0.403,0.452-0.67,0.625c-0.267,0.173-0.544,0.259-0.832,0.259c-0.324,0-0.619-0.084-0.885-0.251
					c-0.267-0.168-0.498-0.411-0.692-0.731c-0.195-0.32-0.345-0.698-0.449-1.135c-0.105-0.437-0.157-0.909-0.157-1.417
					C70.235,23.602,70.41,22.621,70.76,21.91z M71.749,21.59c-0.153,0.173-0.279,0.389-0.378,0.648
					c-0.099,0.259-0.174,0.544-0.225,0.853c-0.051,0.31-0.083,0.602-0.094,0.876c0.186,0.01,0.379,0.02,0.58,0.03
					c0.201,0.01,0.397,0.015,0.589,0.015c0.198,0,0.398-0.005,0.602-0.015c0.204-0.01,0.401-0.02,0.593-0.03
					c0-0.274-0.014-0.564-0.04-0.868c-0.027-0.305-0.081-0.589-0.162-0.853c-0.081-0.264-0.193-0.482-0.337-0.655
					c-0.144-0.172-0.333-0.259-0.566-0.259C72.089,21.331,71.902,21.418,71.749,21.59z"/>
			</g>
			<g>
				<path style="fill:#002D73;" d="M76.951,19.945c-0.066-0.203-0.156-0.366-0.27-0.488v-0.107c0.342-0.233,0.691-0.49,1.047-0.769
					c0.356-0.279,0.691-0.551,1.002-0.815l0.063,0.076c-0.024,0.67-0.042,1.333-0.054,1.988c-0.012,0.655-0.018,1.318-0.018,1.988
					v2.545c0,0.67,0.006,1.328,0.018,1.973c0.012,0.645,0.03,1.277,0.054,1.897c-0.072-0.02-0.142-0.03-0.211-0.03
					c-0.069,0-0.139,0-0.211,0c-0.072,0-0.142,0-0.211,0c-0.069,0-0.139,0.01-0.211,0.03c0.03-0.63,0.049-1.265,0.059-1.904
					c0.009-0.64,0.013-1.295,0.013-1.965v-5.424L76.951,19.945z"/>
			</g>
			<g>
				<path style="fill:#002D73;" d="M80.213,21.031c0.072-0.647,0.19-1.212,0.355-1.694c0.165-0.482,0.382-0.865,0.652-1.15
					c0.27-0.285,0.599-0.427,0.989-0.427c0.431,0,0.783,0.142,1.056,0.427c0.273,0.285,0.487,0.668,0.643,1.15
					c0.156,0.482,0.262,1.047,0.319,1.694c0.057,0.648,0.085,1.339,0.085,2.075c0,0.715-0.042,1.394-0.126,2.036
					c-0.084,0.643-0.211,1.207-0.382,1.694c-0.171,0.487-0.388,0.87-0.652,1.15c-0.264,0.28-0.578,0.419-0.944,0.419
					c-0.431,0-0.784-0.135-1.056-0.404c-0.273-0.269-0.487-0.645-0.643-1.127c-0.156-0.482-0.262-1.046-0.319-1.694
					c-0.057-0.647-0.085-1.339-0.085-2.075C80.106,22.37,80.141,21.678,80.213,21.031z M80.91,25.017
					c0.045,0.591,0.121,1.103,0.229,1.539c0.108,0.435,0.249,0.777,0.422,1.026c0.174,0.249,0.39,0.373,0.647,0.373
					c0.258,0,0.473-0.124,0.647-0.373c0.174-0.249,0.315-0.591,0.423-1.026c0.108-0.435,0.184-0.948,0.229-1.539
					c0.045-0.591,0.067-1.228,0.067-1.912c0-0.684-0.023-1.321-0.067-1.912c-0.045-0.591-0.121-1.103-0.229-1.538
					c-0.108-0.435-0.249-0.777-0.423-1.026c-0.174-0.249-0.39-0.373-0.647-0.373c-0.258,0-0.473,0.114-0.647,0.342
					c-0.174,0.228-0.314,0.554-0.422,0.979c-0.108,0.425-0.184,0.935-0.229,1.531c-0.045,0.596-0.067,1.262-0.067,1.997
					C80.843,23.789,80.865,24.426,80.91,25.017z"/>
			</g>
			<g>
				<path style="fill:#002D73;" d="M85.571,21.031c0.072-0.647,0.19-1.212,0.355-1.694c0.165-0.482,0.382-0.865,0.652-1.15
					c0.27-0.285,0.599-0.427,0.989-0.427c0.431,0,0.783,0.142,1.056,0.427c0.273,0.285,0.487,0.668,0.643,1.15
					c0.156,0.482,0.262,1.047,0.319,1.694c0.057,0.648,0.085,1.339,0.085,2.075c0,0.715-0.042,1.394-0.126,2.036
					c-0.084,0.643-0.211,1.207-0.382,1.694c-0.171,0.487-0.388,0.87-0.652,1.15c-0.264,0.28-0.578,0.419-0.944,0.419
					c-0.431,0-0.784-0.135-1.056-0.404c-0.273-0.269-0.487-0.645-0.643-1.127c-0.156-0.482-0.262-1.046-0.319-1.694
					c-0.057-0.647-0.085-1.339-0.085-2.075C85.463,22.37,85.499,21.678,85.571,21.031z M86.268,25.017
					c0.045,0.591,0.121,1.103,0.229,1.539c0.108,0.435,0.249,0.777,0.422,1.026c0.174,0.249,0.39,0.373,0.647,0.373
					c0.258,0,0.473-0.124,0.647-0.373c0.174-0.249,0.315-0.591,0.423-1.026c0.108-0.435,0.184-0.948,0.229-1.539
					c0.045-0.591,0.067-1.228,0.067-1.912c0-0.684-0.023-1.321-0.067-1.912c-0.045-0.591-0.121-1.103-0.229-1.538
					c-0.108-0.435-0.249-0.777-0.423-1.026c-0.174-0.249-0.39-0.373-0.647-0.373c-0.258,0-0.473,0.114-0.647,0.342
					c-0.174,0.228-0.314,0.554-0.422,0.979c-0.108,0.425-0.184,0.935-0.229,1.531c-0.045,0.596-0.067,1.262-0.067,1.997
					C86.2,23.789,86.223,24.426,86.268,25.017z"/>
			</g>
			<g>
				<path style="fill:#002D73;" d="M92.758,22.406c-0.009-0.503-0.029-0.973-0.058-1.409c0.168,0.051,0.303,0.076,0.405,0.076
					c0.048,0,0.1-0.008,0.157-0.023c0.057-0.015,0.124-0.033,0.202-0.053c-0.018,0.406-0.027,0.813-0.027,1.219h0.018
					c0.317-0.914,0.762-1.371,1.335-1.371c0.149,0,0.296,0.038,0.439,0.114c0.143,0.076,0.273,0.18,0.39,0.312
					c0.117,0.132,0.217,0.292,0.3,0.48c0.084,0.188,0.14,0.389,0.17,0.602h0.018c0.144-0.488,0.341-0.861,0.591-1.12
					c0.249-0.259,0.536-0.389,0.861-0.389c0.198,0,0.382,0.046,0.55,0.137c0.168,0.091,0.314,0.234,0.437,0.427
					c0.123,0.193,0.22,0.442,0.289,0.747c0.069,0.305,0.104,0.67,0.104,1.097c0,0.173-0.003,0.361-0.009,0.564
					c-0.006,0.203-0.012,0.44-0.018,0.709c-0.006,0.269-0.012,0.574-0.018,0.914c-0.006,0.34-0.009,0.734-0.009,1.181
					c0,0.274,0.001,0.539,0.004,0.792c0.003,0.254,0.01,0.528,0.022,0.823c-0.066-0.02-0.132-0.03-0.198-0.03
					c-0.066,0-0.129,0-0.189,0c-0.066,0-0.132,0-0.198,0c-0.066,0-0.132,0.01-0.198,0.03c0.018-0.254,0.037-0.767,0.058-1.539
					c0.021-0.772,0.032-1.849,0.032-3.23c0-0.254-0.017-0.493-0.05-0.716c-0.033-0.223-0.086-0.416-0.158-0.579
					c-0.072-0.162-0.169-0.292-0.289-0.389c-0.12-0.096-0.271-0.145-0.451-0.145c-0.217,0-0.4,0.071-0.551,0.213
					c-0.151,0.142-0.268,0.31-0.352,0.503c-0.048,0.112-0.086,0.224-0.113,0.335c-0.027,0.112-0.048,0.282-0.063,0.51
					c-0.015,0.229-0.026,0.548-0.032,0.96c-0.006,0.411-0.009,0.978-0.009,1.699c0,0.437,0.004,0.836,0.014,1.196
					c0.009,0.361,0.019,0.754,0.032,1.181c-0.136-0.02-0.267-0.03-0.391-0.03c-0.125,0-0.255,0.01-0.391,0.03
					c0.026-0.558,0.045-1.127,0.056-1.706c0.011-0.579,0.016-1.148,0.016-1.706c0-0.477-0.002-0.851-0.004-1.12
					c-0.003-0.269-0.01-0.482-0.022-0.64c-0.012-0.157-0.028-0.287-0.049-0.389c-0.021-0.101-0.049-0.213-0.085-0.335
					c-0.066-0.193-0.169-0.358-0.309-0.495c-0.14-0.137-0.285-0.206-0.434-0.206c-0.394,0-0.683,0.219-0.868,0.655
					c-0.185,0.437-0.277,1.051-0.277,1.844v1.295c0,0.457,0.005,0.937,0.014,1.44c0.009,0.503,0.028,0.957,0.058,1.364
					c-0.138-0.02-0.273-0.03-0.404-0.03c-0.132,0-0.267,0.01-0.405,0.03c0.03-0.406,0.049-0.861,0.058-1.364
					c0.009-0.503,0.014-0.983,0.014-1.44v-1.585C92.772,23.388,92.767,22.908,92.758,22.406z"/>
				<path style="fill:#002D73;" d="M100.134,22.931c0.132-0.477,0.304-0.871,0.517-1.181c0.213-0.31,0.457-0.538,0.733-0.686
					c0.276-0.147,0.557-0.221,0.845-0.221c0.33,0,0.625,0.069,0.886,0.206c0.261,0.137,0.448,0.292,0.562,0.465
					c-0.042,0.152-0.079,0.312-0.112,0.48c-0.033,0.168-0.061,0.343-0.085,0.526h-0.072c-0.042-0.132-0.099-0.267-0.171-0.404
					c-0.072-0.137-0.157-0.264-0.256-0.381c-0.099-0.117-0.208-0.213-0.328-0.289c-0.12-0.076-0.252-0.114-0.396-0.114
					c-0.27,0-0.502,0.084-0.697,0.251c-0.195,0.168-0.354,0.399-0.476,0.693c-0.123,0.295-0.213,0.643-0.27,1.044
					c-0.057,0.401-0.085,0.836-0.085,1.303c0,1.046,0.132,1.836,0.396,2.369c0.264,0.533,0.65,0.8,1.16,0.8
					c0.12,0,0.243-0.028,0.369-0.084c0.126-0.056,0.249-0.132,0.369-0.228c0.12-0.097,0.232-0.211,0.337-0.343
					c0.105-0.132,0.196-0.274,0.274-0.427l0.045,0.046c-0.03,0.244-0.048,0.493-0.054,0.747c-0.18,0.244-0.403,0.452-0.67,0.625
					c-0.267,0.173-0.544,0.259-0.831,0.259c-0.258,0-0.517-0.063-0.778-0.19c-0.261-0.127-0.496-0.34-0.706-0.64
					c-0.21-0.299-0.379-0.688-0.508-1.166c-0.129-0.477-0.193-1.061-0.193-1.752C99.936,23.977,100.002,23.409,100.134,22.931z"/>
				<path style="fill:#002D73;" d="M104.638,22.223c0.09-0.31,0.214-0.566,0.373-0.769c0.159-0.203,0.342-0.355,0.548-0.457
					c0.207-0.101,0.427-0.152,0.661-0.152c0.114,0,0.223,0.005,0.328,0.015c0.105,0.01,0.238,0.025,0.4,0.046
					c0.138,0.02,0.261,0.036,0.369,0.046c0.108,0.01,0.195,0.015,0.261,0.015c0.335,0,0.578-0.025,0.728-0.076
					c-0.006,0.051-0.01,0.104-0.014,0.16c-0.003,0.056-0.004,0.109-0.004,0.16c0,0.051,0.001,0.104,0.004,0.16
					c0.003,0.056,0.008,0.109,0.014,0.16c-0.174-0.02-0.343-0.043-0.508-0.069c-0.165-0.025-0.328-0.043-0.49-0.053l-0.018,0.03
					c0.186,0.173,0.335,0.439,0.449,0.8c0.114,0.361,0.171,0.734,0.171,1.12c0,0.762-0.152,1.359-0.454,1.79
					c-0.303,0.432-0.709,0.647-1.218,0.647c-0.084,0-0.166-0.005-0.247-0.015c-0.081-0.01-0.164-0.015-0.247-0.015
					c-0.108,0-0.208,0.066-0.301,0.198c-0.093,0.132-0.14,0.3-0.14,0.503c0,0.264,0.037,0.457,0.113,0.579
					c0.075,0.122,0.214,0.188,0.418,0.198c0.168,0.01,0.333,0.018,0.494,0.023c0.162,0.005,0.326,0.013,0.494,0.023
					c0.276,0.01,0.511,0.066,0.706,0.168c0.195,0.102,0.354,0.239,0.476,0.411c0.123,0.173,0.212,0.371,0.27,0.594
					c0.057,0.223,0.085,0.467,0.085,0.731c0,0.355-0.041,0.716-0.121,1.082c-0.081,0.366-0.207,0.696-0.378,0.99
					c-0.171,0.294-0.391,0.538-0.661,0.731c-0.27,0.193-0.593,0.289-0.971,0.289c-0.581,0-1.04-0.196-1.375-0.587
					c-0.336-0.391-0.503-0.927-0.503-1.608c0-0.264,0.028-0.508,0.085-0.731c0.057-0.224,0.13-0.422,0.22-0.594
					c0.09-0.173,0.192-0.31,0.306-0.412c0.114-0.102,0.231-0.178,0.351-0.229v-0.03c-0.186-0.091-0.327-0.244-0.423-0.457
					c-0.096-0.213-0.144-0.467-0.144-0.762c0-0.173,0.019-0.33,0.058-0.472c0.039-0.142,0.088-0.269,0.148-0.381
					c0.06-0.112,0.129-0.203,0.207-0.274c0.078-0.071,0.153-0.117,0.225-0.137v-0.03c-0.276-0.203-0.492-0.49-0.647-0.861
					c-0.156-0.371-0.234-0.835-0.234-1.394C104.503,22.901,104.548,22.533,104.638,22.223z M107.379,28.569
					c-0.21-0.244-0.557-0.366-1.043-0.366c-0.449,0-0.797,0.124-1.042,0.373c-0.246,0.249-0.369,0.698-0.369,1.348
					c0,0.345,0.034,0.64,0.103,0.884c0.069,0.244,0.162,0.442,0.279,0.594c0.117,0.152,0.256,0.264,0.418,0.335
					c0.162,0.071,0.335,0.107,0.521,0.107c0.18,0,0.356-0.041,0.53-0.122c0.174-0.081,0.328-0.203,0.463-0.366
					c0.135-0.163,0.244-0.368,0.328-0.617c0.084-0.249,0.126-0.546,0.126-0.891C107.694,29.239,107.589,28.812,107.379,28.569z
					 M106.939,21.788c-0.18-0.335-0.417-0.503-0.71-0.503c-0.323,0-0.575,0.185-0.755,0.556c-0.18,0.371-0.27,0.866-0.27,1.485
					c0,0.64,0.082,1.145,0.247,1.516c0.165,0.371,0.421,0.556,0.769,0.556c0.174,0,0.322-0.058,0.445-0.175
					c0.123-0.117,0.225-0.274,0.306-0.472c0.081-0.198,0.141-0.427,0.18-0.686c0.039-0.259,0.058-0.531,0.058-0.815
					C107.209,22.611,107.119,22.124,106.939,21.788z"/>
			</g>
			<g>
				<path style="fill:#002D73;" d="M111.967,21.027c0.228-0.122,0.461-0.183,0.701-0.183c0.216,0,0.414,0.053,0.594,0.16
					c0.18,0.107,0.334,0.259,0.462,0.457c0.127,0.198,0.228,0.437,0.3,0.716c0.073,0.279,0.109,0.587,0.109,0.922
					c0,0.579-0.006,1.156-0.018,1.729c-0.012,0.574-0.018,1.181-0.018,1.821c0,0.122,0.001,0.251,0.004,0.389
					c0.003,0.137,0.017,0.259,0.041,0.366c0.024,0.107,0.058,0.196,0.103,0.267c0.045,0.071,0.113,0.107,0.202,0.107
					c0.03,0,0.061-0.002,0.094-0.008c0.033-0.005,0.064-0.023,0.094-0.053v0.335c-0.066,0.051-0.148,0.091-0.247,0.122
					c-0.099,0.03-0.208,0.046-0.328,0.046c-0.195,0-0.344-0.084-0.447-0.251c-0.104-0.168-0.164-0.383-0.182-0.648
					c-0.215,0.366-0.427,0.635-0.636,0.807c-0.209,0.173-0.465,0.259-0.77,0.259c-0.149,0-0.296-0.036-0.439-0.107
					c-0.143-0.071-0.27-0.188-0.381-0.35c-0.11-0.162-0.2-0.358-0.269-0.587c-0.069-0.229-0.103-0.49-0.103-0.785
					c0-0.609,0.112-1.082,0.336-1.417c0.224-0.335,0.533-0.558,0.927-0.67c0.322-0.091,0.575-0.17,0.757-0.236
					c0.182-0.066,0.317-0.135,0.403-0.206c0.086-0.071,0.139-0.155,0.157-0.251c0.018-0.097,0.027-0.221,0.027-0.373
					c0-0.254-0.018-0.498-0.054-0.731c-0.036-0.233-0.093-0.437-0.171-0.609c-0.078-0.173-0.18-0.312-0.306-0.419
					c-0.126-0.107-0.279-0.16-0.459-0.16c-0.24,0-0.463,0.091-0.67,0.274c-0.207,0.183-0.361,0.437-0.463,0.762h-0.099v-0.792
					C111.49,21.382,111.739,21.149,111.967,21.027z M113.088,24.592c-0.134,0.041-0.27,0.084-0.407,0.129
					c-0.137,0.046-0.273,0.104-0.407,0.175c-0.135,0.071-0.254,0.168-0.358,0.29c-0.104,0.122-0.188,0.274-0.251,0.457
					c-0.062,0.183-0.094,0.417-0.094,0.701c0,0.478,0.08,0.838,0.241,1.082c0.161,0.244,0.34,0.366,0.537,0.366
					c0.227,0,0.434-0.107,0.622-0.32c0.188-0.213,0.332-0.462,0.433-0.747l0.036-2.285C113.34,24.501,113.222,24.551,113.088,24.592
					z"/>
			</g>
			<g>
				<path style="fill:#002D73;" d="M118.125,22.223c-0.174-0.391-0.413-0.587-0.719-0.587c-0.419,0-0.727,0.219-0.921,0.655
					c-0.195,0.437-0.292,1.051-0.292,1.844v1.295c0,0.457,0.005,0.937,0.014,1.44c0.009,0.503,0.029,0.957,0.058,1.364
					c-0.138-0.02-0.273-0.03-0.405-0.03c-0.132,0-0.267,0.01-0.404,0.03c0.03-0.406,0.049-0.861,0.058-1.364
					c0.009-0.503,0.014-0.983,0.014-1.44v-1.585c0-0.457-0.005-0.937-0.014-1.44c-0.009-0.503-0.029-0.973-0.058-1.409
					c0.168,0.051,0.302,0.076,0.404,0.076c0.048,0,0.101-0.008,0.157-0.023c0.057-0.015,0.125-0.033,0.202-0.053
					c-0.018,0.406-0.027,0.813-0.027,1.219h0.018c0.168-0.437,0.37-0.774,0.604-1.013c0.235-0.239,0.514-0.358,0.839-0.358
					c0.168,0,0.338,0.041,0.509,0.122c0.172,0.081,0.326,0.221,0.464,0.419c0.138,0.198,0.251,0.467,0.338,0.808
					c0.087,0.34,0.131,0.775,0.131,1.303c0,0.437-0.006,0.886-0.018,1.348c-0.012,0.462-0.018,0.952-0.018,1.47v0.99
					c0,0.163,0.002,0.322,0.005,0.48c0.003,0.158,0.007,0.307,0.014,0.449c-0.121-0.02-0.249-0.03-0.382-0.03
					c-0.128,0-0.252,0.01-0.373,0.03c0.012-0.528,0.025-1.072,0.04-1.63c0.015-0.558,0.022-1.133,0.022-1.722v-0.929
					C118.385,23.19,118.298,22.614,118.125,22.223z"/>
				<path style="fill:#002D73;" d="M123.491,26.786c-0.048,0.162-0.112,0.338-0.193,0.526c-0.081,0.188-0.183,0.363-0.306,0.526
					c-0.123,0.163-0.268,0.295-0.436,0.396c-0.168,0.101-0.363,0.152-0.584,0.152c-0.228,0-0.451-0.066-0.67-0.198
					c-0.219-0.132-0.413-0.348-0.584-0.648c-0.171-0.299-0.309-0.686-0.413-1.158c-0.105-0.472-0.157-1.038-0.157-1.699
					c0-0.65,0.057-1.214,0.171-1.691c0.114-0.477,0.263-0.876,0.445-1.196c0.183-0.32,0.39-0.559,0.62-0.716
					c0.231-0.157,0.463-0.236,0.697-0.236c0.665,0,1.127,0.508,1.384,1.524h0.018v-1.493c0-0.386-0.002-0.775-0.005-1.166
					c-0.003-0.391-0.006-0.764-0.009-1.12c-0.003-0.355-0.006-0.691-0.009-1.006c-0.003-0.315-0.007-0.594-0.014-0.838
					c0.072,0.02,0.141,0.038,0.207,0.053c0.066,0.015,0.132,0.023,0.197,0.023c0.066,0,0.13-0.008,0.194-0.023
					c0.063-0.015,0.133-0.033,0.211-0.053c-0.018,0.325-0.033,0.795-0.045,1.409c-0.012,0.615-0.022,1.293-0.031,2.034
					c-0.009,0.742-0.017,1.503-0.022,2.286c-0.006,0.782-0.009,1.498-0.009,2.148c0,0.701,0.003,1.331,0.009,1.889
					c0.006,0.559,0.012,1.133,0.018,1.722c-0.12-0.02-0.237-0.03-0.351-0.03c-0.108,0-0.222,0.01-0.342,0.03l0.027-1.447H123.491z
					 M121.051,26.283c0.075,0.396,0.171,0.714,0.288,0.952c0.117,0.239,0.25,0.404,0.4,0.495c0.15,0.091,0.297,0.137,0.441,0.137
					c0.234,0,0.434-0.099,0.602-0.297c0.168-0.198,0.307-0.457,0.418-0.777c0.111-0.32,0.192-0.683,0.243-1.089
					c0.051-0.406,0.076-0.813,0.076-1.219c0-0.975-0.111-1.719-0.333-2.232c-0.221-0.513-0.548-0.769-0.979-0.769
					c-0.216,0-0.403,0.084-0.562,0.251c-0.159,0.168-0.291,0.401-0.396,0.701c-0.105,0.3-0.183,0.65-0.234,1.051
					c-0.051,0.401-0.077,0.831-0.077,1.287C120.938,25.384,120.976,25.887,121.051,26.283z"/>
			</g>
		</g>
		<g>
			<g>
				<path style="fill:#002D73;" d="M1.92,38.553c-0.279-1.199-0.583-2.412-0.912-3.641c0.078,0.02,0.153,0.038,0.225,0.053
					c0.072,0.015,0.147,0.023,0.225,0.023c0.066,0,0.132-0.008,0.198-0.023c0.066-0.015,0.132-0.033,0.198-0.053
					c0.186,1.006,0.388,1.993,0.607,2.963c0.219,0.97,0.463,1.963,0.733,2.979c0.12-0.416,0.238-0.866,0.355-1.348
					c0.117-0.482,0.234-0.983,0.351-1.501c0.117-0.518,0.231-1.038,0.342-1.562c0.111-0.523,0.22-1.034,0.328-1.531
					c0.108,0.051,0.201,0.076,0.279,0.076c0.078,0,0.171-0.025,0.279-0.076c-0.324,1.229-0.641,2.443-0.953,3.641
					c-0.312,1.199-0.596,2.397-0.854,3.596c-0.09-0.02-0.183-0.03-0.279-0.03c-0.096,0-0.192,0.01-0.288,0.03
					C2.476,40.951,2.199,39.752,1.92,38.553z"/>
				<path style="fill:#002D73;" d="M6.24,31.712c0.09-0.152,0.198-0.229,0.324-0.229c0.126,0,0.234,0.076,0.324,0.229
					c0.09,0.152,0.135,0.335,0.135,0.548c0,0.213-0.045,0.396-0.135,0.549c-0.09,0.152-0.198,0.228-0.324,0.228
					c-0.126,0-0.234-0.076-0.324-0.228c-0.09-0.152-0.135-0.335-0.135-0.549C6.105,32.047,6.15,31.865,6.24,31.712z M6.217,36.321
					c-0.009-0.503-0.029-0.973-0.059-1.409c0.168,0.051,0.303,0.076,0.405,0.076s0.237-0.025,0.405-0.076
					c-0.03,0.437-0.049,0.906-0.058,1.409c-0.009,0.503-0.014,0.983-0.014,1.44v1.585c0,0.457,0.004,0.937,0.014,1.44
					c0.009,0.503,0.028,0.957,0.058,1.364c-0.138-0.02-0.273-0.03-0.405-0.03c-0.132,0-0.267,0.01-0.405,0.03
					c0.03-0.406,0.05-0.861,0.059-1.364c0.009-0.503,0.013-0.983,0.013-1.44v-1.585C6.231,37.304,6.226,36.824,6.217,36.321z"/>
				<path style="fill:#002D73;" d="M8.725,33.922c-0.003-0.406-0.008-0.808-0.014-1.204c-0.006-0.396-0.013-0.774-0.022-1.135
					c-0.009-0.36-0.02-0.668-0.032-0.922c0.168,0.051,0.303,0.076,0.405,0.076c0.102,0,0.237-0.025,0.405-0.076
					c-0.012,0.254-0.022,0.561-0.032,0.922c-0.009,0.361-0.017,0.739-0.022,1.135c-0.006,0.396-0.011,0.797-0.014,1.204
					c-0.003,0.406-0.004,0.782-0.004,1.127v2.758c0,0.345,0.001,0.721,0.004,1.127c0.003,0.406,0.008,0.808,0.014,1.204
					c0.006,0.396,0.014,0.772,0.022,1.127c0.009,0.356,0.019,0.65,0.032,0.884c-0.138-0.02-0.273-0.03-0.405-0.03
					c-0.132,0-0.267,0.01-0.405,0.03c0.012-0.233,0.023-0.528,0.032-0.884c0.009-0.355,0.016-0.731,0.022-1.127
					c0.006-0.396,0.01-0.797,0.014-1.204c0.003-0.406,0.004-0.782,0.004-1.127v-2.758C8.73,34.704,8.728,34.328,8.725,33.922z"/>
				<path style="fill:#002D73;" d="M11.822,34.942c0.228-0.122,0.461-0.183,0.701-0.183c0.216,0,0.414,0.053,0.594,0.16
					c0.18,0.107,0.334,0.259,0.462,0.457c0.128,0.198,0.228,0.437,0.301,0.716c0.073,0.279,0.109,0.587,0.109,0.922
					c0,0.579-0.006,1.156-0.018,1.729c-0.012,0.574-0.018,1.181-0.018,1.821c0,0.122,0.002,0.251,0.005,0.389
					c0.003,0.137,0.016,0.259,0.04,0.366c0.024,0.107,0.058,0.196,0.103,0.267c0.045,0.071,0.112,0.107,0.202,0.107
					c0.03,0,0.061-0.002,0.094-0.008c0.033-0.005,0.064-0.023,0.094-0.053v0.335c-0.066,0.051-0.148,0.091-0.247,0.122
					c-0.099,0.03-0.208,0.046-0.328,0.046c-0.195,0-0.344-0.084-0.447-0.251c-0.103-0.168-0.164-0.383-0.182-0.648
					c-0.215,0.366-0.427,0.635-0.636,0.807c-0.209,0.173-0.466,0.259-0.77,0.259c-0.149,0-0.296-0.036-0.439-0.107
					c-0.143-0.071-0.27-0.188-0.381-0.35c-0.111-0.162-0.2-0.358-0.269-0.587c-0.069-0.229-0.103-0.49-0.103-0.785
					c0-0.609,0.112-1.082,0.336-1.417c0.224-0.335,0.533-0.558,0.927-0.67c0.322-0.091,0.575-0.17,0.757-0.236
					c0.182-0.066,0.317-0.134,0.403-0.206c0.087-0.071,0.139-0.155,0.157-0.251c0.018-0.097,0.027-0.221,0.027-0.373
					c0-0.254-0.018-0.498-0.054-0.731c-0.036-0.233-0.093-0.437-0.171-0.609c-0.078-0.173-0.18-0.312-0.306-0.419
					c-0.126-0.107-0.279-0.16-0.459-0.16c-0.24,0-0.463,0.091-0.67,0.274c-0.207,0.183-0.361,0.437-0.463,0.762h-0.099v-0.792
					C11.346,35.298,11.594,35.064,11.822,34.942z M12.943,38.508c-0.134,0.041-0.27,0.084-0.407,0.129
					c-0.137,0.046-0.273,0.104-0.407,0.175c-0.134,0.071-0.254,0.168-0.358,0.29c-0.104,0.122-0.188,0.274-0.25,0.457
					c-0.063,0.183-0.094,0.417-0.094,0.701c0,0.478,0.08,0.838,0.241,1.082c0.161,0.244,0.34,0.366,0.537,0.366
					c0.227,0,0.434-0.107,0.622-0.32c0.188-0.213,0.332-0.462,0.434-0.747l0.036-2.285C13.195,38.416,13.077,38.467,12.943,38.508z"
					/>
				<path style="fill:#002D73;" d="M18.16,36.138c-0.174-0.391-0.413-0.587-0.719-0.587c-0.419,0-0.727,0.219-0.921,0.655
					c-0.195,0.437-0.292,1.051-0.292,1.844v1.295c0,0.457,0.005,0.937,0.014,1.44c0.009,0.503,0.028,0.957,0.058,1.364
					c-0.138-0.02-0.273-0.03-0.405-0.03c-0.132,0-0.267,0.01-0.404,0.03c0.03-0.406,0.049-0.861,0.058-1.364
					c0.009-0.503,0.014-0.983,0.014-1.44v-1.585c0-0.457-0.005-0.937-0.014-1.44c-0.009-0.503-0.029-0.973-0.058-1.409
					c0.168,0.051,0.303,0.076,0.404,0.076c0.048,0,0.1-0.008,0.157-0.023c0.057-0.015,0.124-0.033,0.202-0.053
					c-0.018,0.406-0.027,0.813-0.027,1.219h0.018c0.168-0.437,0.37-0.774,0.604-1.013c0.235-0.239,0.514-0.358,0.839-0.358
					c0.168,0,0.338,0.041,0.509,0.122c0.171,0.081,0.326,0.221,0.464,0.419c0.138,0.198,0.251,0.467,0.338,0.808
					c0.087,0.34,0.131,0.775,0.131,1.303c0,0.437-0.006,0.886-0.018,1.348c-0.012,0.462-0.018,0.952-0.018,1.47v0.99
					c0,0.163,0.001,0.322,0.004,0.48c0.003,0.158,0.008,0.307,0.014,0.449c-0.121-0.02-0.249-0.03-0.382-0.03
					c-0.128,0-0.252,0.01-0.373,0.03c0.012-0.528,0.025-1.072,0.04-1.63c0.015-0.558,0.022-1.133,0.022-1.722v-0.929
					C18.42,37.106,18.333,36.53,18.16,36.138z"/>
				<path style="fill:#002D73;" d="M21.306,32.87c-0.018,0.386-0.032,0.764-0.041,1.135c-0.009,0.371-0.02,0.744-0.031,1.12
					c0.066,0,0.189-0.002,0.369-0.008c0.18-0.005,0.374-0.018,0.584-0.038c-0.006,0.03-0.009,0.086-0.009,0.168V35.4v0.168
					c0,0.071,0.003,0.122,0.009,0.152c-0.078-0.01-0.159-0.018-0.243-0.023c-0.084-0.005-0.174-0.008-0.27-0.008h-0.44
					c-0.006,0.041-0.014,0.203-0.022,0.488c-0.009,0.285-0.017,0.622-0.023,1.013c-0.006,0.391-0.01,0.8-0.013,1.226
					c-0.003,0.427-0.005,0.808-0.005,1.143c0,0.285,0.005,0.564,0.014,0.838c0.009,0.274,0.037,0.521,0.085,0.739
					c0.048,0.218,0.12,0.394,0.216,0.526c0.096,0.132,0.234,0.198,0.413,0.198c0.048,0,0.113-0.01,0.193-0.03
					c0.081-0.02,0.151-0.046,0.211-0.076v0.366c-0.102,0.03-0.214,0.069-0.337,0.114c-0.123,0.046-0.241,0.069-0.355,0.069
					c-0.378,0-0.656-0.158-0.836-0.472c-0.18-0.315-0.27-0.777-0.27-1.387c0-0.274,0.003-0.571,0.009-0.891
					c0.006-0.32,0.014-0.67,0.022-1.051c0.009-0.381,0.016-0.802,0.023-1.265c0.006-0.462,0.009-0.977,0.009-1.546h-0.288
					c-0.048,0-0.099,0.003-0.153,0.008c-0.054,0.005-0.111,0.013-0.171,0.023c0.006-0.061,0.01-0.119,0.014-0.175
					c0.003-0.056,0.004-0.114,0.004-0.175c0-0.051-0.002-0.101-0.004-0.152c-0.003-0.051-0.008-0.101-0.014-0.152
					c0.27,0.03,0.467,0.046,0.593,0.046c-0.006-0.203-0.01-0.457-0.014-0.762c-0.003-0.305-0.01-0.619-0.022-0.945l0.746-0.533
					H21.306z"/>
				<path style="fill:#002D73;" d="M23.144,35.826c0.351-0.711,0.861-1.067,1.533-1.067c0.318,0,0.592,0.084,0.823,0.251
					c0.231,0.168,0.424,0.391,0.58,0.67c0.156,0.28,0.271,0.607,0.346,0.983c0.075,0.376,0.112,0.777,0.112,1.204
					c0,0.102-0.002,0.201-0.004,0.297c-0.003,0.097-0.008,0.196-0.014,0.297c-0.324-0.01-0.644-0.02-0.962-0.03
					c-0.318-0.01-0.638-0.015-0.962-0.015c-0.198,0-0.394,0.005-0.589,0.015c-0.195,0.01-0.391,0.02-0.589,0.03
					c-0.006,0.051-0.009,0.127-0.009,0.229v0.198c0,0.396,0.034,0.767,0.103,1.112c0.069,0.345,0.169,0.643,0.301,0.891
					c0.132,0.249,0.294,0.447,0.485,0.594c0.192,0.147,0.413,0.221,0.665,0.221c0.12,0,0.243-0.028,0.369-0.084
					c0.126-0.056,0.249-0.132,0.368-0.228c0.12-0.097,0.232-0.211,0.337-0.343c0.105-0.132,0.196-0.274,0.274-0.427l0.045,0.046
					l-0.054,0.747c-0.18,0.244-0.403,0.452-0.67,0.625c-0.267,0.173-0.544,0.259-0.832,0.259c-0.324,0-0.619-0.084-0.885-0.251
					c-0.267-0.168-0.498-0.411-0.692-0.731c-0.195-0.32-0.345-0.698-0.449-1.135c-0.105-0.437-0.157-0.909-0.157-1.417
					C22.618,37.517,22.794,36.537,23.144,35.826z M24.133,35.506c-0.153,0.173-0.279,0.389-0.378,0.648
					c-0.099,0.259-0.174,0.544-0.225,0.853c-0.051,0.31-0.083,0.602-0.094,0.876c0.186,0.01,0.379,0.02,0.58,0.03
					c0.201,0.01,0.397,0.015,0.589,0.015c0.198,0,0.398-0.005,0.602-0.015c0.204-0.01,0.401-0.02,0.593-0.03
					c0-0.274-0.014-0.564-0.04-0.868c-0.027-0.305-0.081-0.589-0.162-0.853c-0.081-0.264-0.193-0.482-0.337-0.655
					c-0.144-0.172-0.333-0.259-0.566-0.259C24.473,35.247,24.286,35.334,24.133,35.506z"/>
			</g>
			<g>
				<path style="fill:#002D73;" d="M29.365,35.994c-0.087-0.051-0.175-0.076-0.265-0.076c-0.144,0-0.273,0.056-0.387,0.168
					c-0.114,0.112-0.21,0.262-0.288,0.449c-0.078,0.188-0.138,0.411-0.18,0.67c-0.042,0.259-0.063,0.536-0.063,0.83v1.676
					c0,0.681,0.001,1.201,0.005,1.562c0.003,0.361,0.013,0.653,0.031,0.876c-0.12-0.02-0.24-0.03-0.36-0.03
					c-0.132,0-0.258,0.01-0.378,0.03c0.018-0.345,0.028-0.815,0.031-1.409c0.003-0.594,0.005-1.323,0.005-2.186v-0.488
					c0-0.396-0.002-0.853-0.005-1.371c-0.003-0.518-0.013-1.112-0.031-1.783c0.066,0.02,0.129,0.038,0.189,0.053
					c0.06,0.015,0.123,0.023,0.189,0.023c0.054,0,0.111-0.008,0.171-0.023c0.06-0.015,0.123-0.033,0.189-0.053
					c-0.024,0.366-0.038,0.655-0.04,0.868c-0.003,0.213-0.004,0.417-0.004,0.609l0.018,0.015c0.354-1.097,0.749-1.646,1.187-1.646
					c0.054,0,0.1,0.005,0.139,0.015c0.039,0.01,0.088,0.036,0.148,0.076c-0.03,0.122-0.048,0.307-0.054,0.556
					c-0.006,0.249-0.009,0.475-0.009,0.678l-0.063,0.076C29.51,36.1,29.452,36.045,29.365,35.994z"/>
			</g>
			<g>
				<path style="fill:#002D73;" d="M30.12,36.794c0.129-0.482,0.298-0.873,0.508-1.173c0.21-0.3,0.445-0.518,0.706-0.655
					c0.261-0.137,0.52-0.206,0.778-0.206c0.264,0,0.524,0.069,0.782,0.206c0.258,0.137,0.491,0.356,0.701,0.655
					c0.21,0.3,0.379,0.691,0.508,1.173c0.129,0.483,0.193,1.069,0.193,1.76c0,0.691-0.064,1.277-0.193,1.76
					c-0.129,0.482-0.298,0.874-0.508,1.173c-0.21,0.3-0.444,0.51-0.701,0.632c-0.258,0.122-0.518,0.183-0.782,0.183
					c-0.258,0-0.517-0.061-0.778-0.183c-0.261-0.122-0.496-0.333-0.706-0.632c-0.21-0.299-0.379-0.691-0.508-1.173
					c-0.129-0.482-0.193-1.069-0.193-1.76C29.927,37.863,29.991,37.276,30.12,36.794z M30.785,39.788
					c0.045,0.396,0.121,0.749,0.229,1.059c0.108,0.31,0.252,0.556,0.431,0.739c0.18,0.183,0.401,0.274,0.665,0.274
					c0.264,0,0.485-0.091,0.665-0.274c0.18-0.183,0.324-0.429,0.431-0.739c0.108-0.31,0.184-0.663,0.229-1.059
					c0.045-0.396,0.067-0.807,0.067-1.234c0-0.427-0.022-0.838-0.067-1.234c-0.045-0.396-0.121-0.749-0.229-1.059
					c-0.108-0.31-0.252-0.556-0.431-0.739c-0.18-0.183-0.402-0.274-0.665-0.274c-0.264,0-0.485,0.091-0.665,0.274
					c-0.18,0.183-0.324,0.429-0.431,0.739c-0.108,0.31-0.184,0.663-0.229,1.059s-0.067,0.808-0.067,1.234
					C30.718,38.98,30.741,39.391,30.785,39.788z"/>
			</g>
			<g>
				<path style="fill:#002D73;" d="M35.343,33.922c-0.003-0.406-0.008-0.808-0.014-1.204c-0.006-0.396-0.013-0.774-0.022-1.135
					c-0.009-0.36-0.02-0.668-0.032-0.922c0.168,0.051,0.303,0.076,0.405,0.076c0.102,0,0.237-0.025,0.405-0.076
					c-0.012,0.254-0.022,0.561-0.032,0.922c-0.009,0.361-0.017,0.739-0.022,1.135c-0.006,0.396-0.011,0.797-0.014,1.204
					c-0.003,0.406-0.004,0.782-0.004,1.127v2.758c0,0.345,0.001,0.721,0.004,1.127c0.003,0.406,0.008,0.808,0.014,1.204
					c0.006,0.396,0.014,0.772,0.022,1.127c0.009,0.356,0.019,0.65,0.032,0.884c-0.138-0.02-0.273-0.03-0.405-0.03
					c-0.132,0-0.267,0.01-0.405,0.03c0.012-0.233,0.023-0.528,0.032-0.884c0.009-0.355,0.016-0.731,0.022-1.127
					c0.006-0.396,0.01-0.797,0.014-1.204c0.003-0.406,0.004-0.782,0.004-1.127v-2.758C35.348,34.704,35.346,34.328,35.343,33.922z"
					/>
			</g>
			<g>
				<path style="fill:#002D73;" d="M40.508,32.246c0.264-0.244,0.584-0.366,0.962-0.366c0.234,0,0.455,0.051,0.665,0.152
					c0.21,0.102,0.391,0.264,0.544,0.488c0.153,0.224,0.274,0.503,0.364,0.838c0.09,0.335,0.135,0.742,0.135,1.219
					c0,0.345-0.024,0.668-0.072,0.967c-0.048,0.3-0.118,0.592-0.211,0.876c-0.093,0.285-0.21,0.571-0.351,0.861
					c-0.141,0.29-0.307,0.597-0.499,0.922c-0.114,0.193-0.246,0.417-0.395,0.67c-0.15,0.254-0.301,0.516-0.454,0.785
					c-0.153,0.269-0.298,0.536-0.436,0.8c-0.138,0.264-0.255,0.508-0.351,0.731h0.854c0.431,0,0.814-0.013,1.146-0.038
					c0.333-0.025,0.625-0.053,0.876-0.084c-0.03,0.224-0.045,0.411-0.045,0.564c0,0.142,0.015,0.315,0.045,0.518
					c-0.324-0.02-0.644-0.03-0.962-0.03c-0.318,0-0.638,0-0.962,0c-0.324,0-0.646,0-0.966,0c-0.321,0-0.643,0.01-0.966,0.03v-0.183
					c0.419-0.701,0.783-1.318,1.092-1.851c0.309-0.533,0.571-1.013,0.787-1.44c0.216-0.427,0.391-0.813,0.526-1.158
					c0.135-0.345,0.241-0.673,0.319-0.983c0.078-0.31,0.13-0.614,0.157-0.914c0.027-0.3,0.041-0.622,0.041-0.968
					c0-0.751-0.101-1.308-0.301-1.668c-0.201-0.36-0.436-0.541-0.706-0.541c-0.192,0-0.357,0.059-0.494,0.175
					c-0.138,0.117-0.252,0.259-0.342,0.427c-0.09,0.168-0.159,0.348-0.207,0.541c-0.048,0.193-0.081,0.366-0.099,0.518l-0.063,0.03
					l-0.315-0.747C40.016,32.87,40.244,32.489,40.508,32.246z"/>
			</g>
			<g>
				<path style="fill:#002D73;" d="M45.474,36.138c0.141-0.076,0.346-0.114,0.616-0.114c0.264,0,0.502,0.076,0.715,0.228
					c0.213,0.152,0.394,0.361,0.544,0.625c0.15,0.264,0.265,0.569,0.346,0.914c0.081,0.345,0.121,0.711,0.121,1.097
					c0,0.478-0.054,0.927-0.162,1.348c-0.108,0.422-0.261,0.787-0.458,1.097c-0.198,0.31-0.433,0.551-0.706,0.724
					c-0.273,0.172-0.577,0.259-0.912,0.259c-0.27,0-0.529-0.038-0.778-0.114c-0.249-0.076-0.469-0.226-0.661-0.449v-0.122
					c0.03-0.132,0.057-0.282,0.081-0.449c0.024-0.168,0.042-0.312,0.054-0.434h0.063c0.054,0.183,0.127,0.345,0.22,0.488
					c0.093,0.142,0.198,0.262,0.315,0.358c0.117,0.097,0.24,0.168,0.369,0.213c0.129,0.046,0.253,0.069,0.373,0.069
					c0.18,0,0.352-0.056,0.517-0.168c0.165-0.112,0.31-0.284,0.436-0.518c0.126-0.233,0.228-0.528,0.306-0.884
					c0.078-0.355,0.117-0.772,0.117-1.249c0-0.427-0.036-0.792-0.108-1.097c-0.072-0.305-0.166-0.554-0.283-0.747
					c-0.117-0.193-0.25-0.332-0.4-0.419c-0.15-0.086-0.306-0.129-0.467-0.129c-0.252,0-0.455,0.069-0.611,0.206
					c-0.156,0.137-0.261,0.236-0.315,0.297l-0.099-0.107c0.042-0.396,0.067-0.815,0.076-1.257c0.009-0.442,0.014-0.881,0.014-1.318
					c0-0.427-0.004-0.866-0.014-1.318c-0.009-0.452-0.028-0.851-0.058-1.196l0.081-0.091c0.102,0.03,0.27,0.061,0.503,0.091
					c0.264,0.03,0.629,0.046,1.097,0.046c0.288,0,0.542-0.002,0.764-0.008c0.222-0.005,0.387-0.013,0.494-0.023l0.045,0.061
					c-0.024,0.132-0.04,0.272-0.049,0.419c-0.009,0.147-0.014,0.292-0.014,0.434c0,0.142,0.003,0.229,0.009,0.259
					c-0.132-0.04-0.307-0.073-0.526-0.099c-0.219-0.025-0.448-0.046-0.688-0.061c-0.24-0.015-0.47-0.025-0.692-0.031
					c-0.222-0.005-0.402-0.008-0.539-0.008l-0.126,3.459C45.203,36.309,45.333,36.215,45.474,36.138z"/>
			</g>
			<g>
				<path style="fill:#002D73;" d="M50.589,36.321c-0.009-0.503-0.029-0.973-0.058-1.409c0.168,0.051,0.302,0.076,0.405,0.076
					c0.048,0,0.1-0.008,0.157-0.023c0.057-0.015,0.124-0.033,0.202-0.053c-0.018,0.406-0.027,0.813-0.027,1.219h0.018
					c0.317-0.914,0.762-1.371,1.335-1.371c0.149,0,0.296,0.038,0.439,0.114c0.143,0.076,0.273,0.18,0.39,0.312
					c0.117,0.132,0.217,0.292,0.3,0.48c0.084,0.188,0.14,0.389,0.17,0.602h0.018c0.144-0.488,0.341-0.861,0.591-1.12
					c0.249-0.259,0.536-0.389,0.861-0.389c0.198,0,0.382,0.046,0.55,0.137c0.168,0.091,0.314,0.234,0.437,0.427
					c0.123,0.193,0.22,0.442,0.289,0.747c0.069,0.305,0.104,0.67,0.104,1.097c0,0.173-0.003,0.361-0.009,0.564
					c-0.006,0.203-0.012,0.44-0.018,0.709c-0.006,0.269-0.012,0.574-0.018,0.914c-0.006,0.34-0.009,0.734-0.009,1.181
					c0,0.274,0.001,0.539,0.004,0.792c0.003,0.254,0.01,0.528,0.022,0.823c-0.066-0.02-0.132-0.03-0.198-0.03
					c-0.066,0-0.129,0-0.189,0c-0.066,0-0.132,0-0.198,0c-0.066,0-0.132,0.01-0.198,0.03c0.018-0.254,0.037-0.767,0.058-1.539
					c0.021-0.772,0.032-1.849,0.032-3.23c0-0.254-0.017-0.493-0.05-0.716c-0.033-0.223-0.086-0.416-0.158-0.579
					c-0.072-0.162-0.169-0.292-0.289-0.389c-0.12-0.096-0.271-0.145-0.451-0.145c-0.217,0-0.4,0.071-0.551,0.213
					c-0.151,0.142-0.268,0.31-0.352,0.503c-0.048,0.112-0.086,0.223-0.113,0.335c-0.027,0.112-0.048,0.282-0.063,0.51
					c-0.015,0.229-0.026,0.548-0.032,0.96c-0.006,0.411-0.009,0.978-0.009,1.699c0,0.437,0.004,0.836,0.014,1.196
					c0.009,0.361,0.019,0.754,0.031,1.181c-0.136-0.02-0.267-0.03-0.391-0.03c-0.125,0-0.255,0.01-0.391,0.03
					c0.026-0.558,0.045-1.127,0.056-1.706c0.011-0.579,0.016-1.148,0.016-1.706c0-0.477-0.002-0.851-0.004-1.12
					c-0.003-0.269-0.01-0.482-0.022-0.64c-0.012-0.157-0.028-0.287-0.049-0.389c-0.021-0.101-0.049-0.213-0.085-0.335
					c-0.066-0.193-0.169-0.358-0.309-0.495c-0.14-0.137-0.285-0.206-0.434-0.206c-0.394,0-0.683,0.219-0.868,0.655
					c-0.185,0.437-0.277,1.051-0.277,1.844v1.295c0,0.457,0.005,0.937,0.014,1.44c0.009,0.503,0.028,0.957,0.058,1.364
					c-0.138-0.02-0.273-0.03-0.404-0.03c-0.132,0-0.267,0.01-0.405,0.03c0.03-0.406,0.049-0.861,0.058-1.364
					c0.009-0.503,0.014-0.983,0.014-1.44v-1.585C50.603,37.304,50.598,36.824,50.589,36.321z"/>
				<path style="fill:#002D73;" d="M57.965,36.847c0.132-0.477,0.304-0.871,0.517-1.181c0.213-0.31,0.457-0.538,0.733-0.686
					c0.276-0.147,0.557-0.221,0.845-0.221c0.33,0,0.625,0.069,0.886,0.206c0.261,0.137,0.448,0.292,0.562,0.465
					c-0.042,0.152-0.079,0.312-0.112,0.48c-0.033,0.168-0.061,0.343-0.085,0.526h-0.072c-0.042-0.132-0.099-0.267-0.171-0.404
					c-0.072-0.137-0.157-0.264-0.256-0.381c-0.099-0.117-0.208-0.213-0.328-0.289c-0.12-0.076-0.252-0.114-0.396-0.114
					c-0.27,0-0.502,0.084-0.697,0.251c-0.195,0.168-0.354,0.399-0.476,0.693c-0.123,0.295-0.213,0.643-0.27,1.044
					c-0.057,0.401-0.085,0.836-0.085,1.303c0,1.046,0.132,1.836,0.396,2.369c0.264,0.533,0.65,0.8,1.16,0.8
					c0.12,0,0.243-0.028,0.369-0.084c0.126-0.056,0.249-0.132,0.369-0.228c0.12-0.097,0.232-0.211,0.337-0.343
					c0.105-0.132,0.196-0.274,0.274-0.427l0.045,0.046c-0.03,0.244-0.048,0.493-0.054,0.747c-0.18,0.244-0.403,0.452-0.67,0.625
					c-0.267,0.173-0.544,0.259-0.831,0.259c-0.258,0-0.517-0.063-0.778-0.19c-0.261-0.127-0.496-0.34-0.706-0.64
					c-0.21-0.299-0.379-0.688-0.508-1.166c-0.129-0.477-0.193-1.061-0.193-1.752C57.767,37.893,57.833,37.324,57.965,36.847z"/>
				<path style="fill:#002D73;" d="M62.469,36.138c0.09-0.31,0.214-0.566,0.373-0.77c0.159-0.203,0.342-0.355,0.548-0.457
					c0.207-0.101,0.427-0.152,0.661-0.152c0.114,0,0.223,0.005,0.328,0.015c0.105,0.01,0.238,0.026,0.4,0.046
					c0.138,0.02,0.261,0.036,0.369,0.046c0.108,0.01,0.195,0.015,0.261,0.015c0.336,0,0.578-0.025,0.728-0.076
					c-0.006,0.051-0.01,0.104-0.013,0.16c-0.003,0.056-0.005,0.109-0.005,0.16c0,0.051,0.001,0.104,0.005,0.16
					c0.003,0.056,0.007,0.109,0.013,0.16c-0.174-0.02-0.343-0.043-0.508-0.069c-0.165-0.025-0.328-0.043-0.49-0.053l-0.018,0.03
					c0.186,0.173,0.336,0.439,0.449,0.8c0.114,0.361,0.171,0.734,0.171,1.12c0,0.762-0.151,1.359-0.454,1.79
					c-0.303,0.432-0.709,0.647-1.218,0.647c-0.084,0-0.166-0.005-0.247-0.015c-0.081-0.01-0.163-0.015-0.247-0.015
					c-0.108,0-0.208,0.066-0.301,0.198c-0.093,0.132-0.139,0.3-0.139,0.503c0,0.264,0.037,0.457,0.112,0.579
					c0.075,0.122,0.214,0.188,0.418,0.198c0.168,0.01,0.332,0.018,0.494,0.023c0.162,0.005,0.327,0.013,0.494,0.023
					c0.276,0.01,0.511,0.066,0.706,0.168c0.195,0.102,0.354,0.239,0.476,0.411c0.123,0.173,0.213,0.371,0.27,0.594
					c0.057,0.223,0.085,0.467,0.085,0.731c0,0.355-0.04,0.716-0.121,1.082c-0.081,0.366-0.207,0.696-0.378,0.99
					c-0.171,0.294-0.391,0.538-0.661,0.731c-0.27,0.193-0.593,0.289-0.971,0.289c-0.581,0-1.04-0.196-1.375-0.587
					c-0.336-0.391-0.503-0.927-0.503-1.607c0-0.264,0.028-0.508,0.085-0.731c0.057-0.224,0.13-0.422,0.22-0.594
					c0.09-0.173,0.192-0.31,0.306-0.412c0.114-0.102,0.231-0.178,0.351-0.229v-0.03c-0.186-0.091-0.327-0.244-0.423-0.457
					c-0.096-0.213-0.144-0.467-0.144-0.762c0-0.173,0.019-0.33,0.058-0.472c0.039-0.142,0.088-0.269,0.148-0.381
					c0.06-0.112,0.129-0.203,0.207-0.274c0.078-0.071,0.153-0.117,0.225-0.137v-0.03c-0.276-0.203-0.491-0.49-0.647-0.861
					c-0.156-0.371-0.234-0.835-0.234-1.394C62.334,36.816,62.379,36.448,62.469,36.138z M65.211,42.484
					c-0.21-0.244-0.557-0.366-1.043-0.366c-0.45,0-0.797,0.124-1.043,0.373c-0.246,0.249-0.369,0.698-0.369,1.348
					c0,0.345,0.034,0.64,0.103,0.884c0.069,0.244,0.162,0.442,0.279,0.594c0.117,0.152,0.256,0.264,0.418,0.335
					c0.162,0.071,0.336,0.107,0.521,0.107c0.18,0,0.356-0.041,0.53-0.122c0.174-0.081,0.328-0.203,0.463-0.366
					c0.135-0.163,0.244-0.368,0.328-0.617c0.084-0.249,0.126-0.546,0.126-0.891C65.525,43.155,65.42,42.728,65.211,42.484z
					 M64.77,35.704c-0.18-0.335-0.417-0.503-0.71-0.503c-0.324,0-0.575,0.185-0.755,0.556c-0.18,0.371-0.27,0.866-0.27,1.485
					c0,0.64,0.082,1.145,0.247,1.516c0.165,0.371,0.421,0.556,0.769,0.556c0.174,0,0.322-0.058,0.445-0.175
					c0.123-0.117,0.225-0.274,0.306-0.472c0.081-0.198,0.141-0.427,0.18-0.686c0.039-0.259,0.058-0.531,0.058-0.815
					C65.04,36.527,64.95,36.039,64.77,35.704z"/>
			</g>
			<g>
				<path style="fill:#002D73;" d="M69.624,31.712c0.09-0.152,0.198-0.229,0.324-0.229s0.234,0.076,0.324,0.229
					c0.09,0.152,0.135,0.335,0.135,0.548c0,0.213-0.045,0.396-0.135,0.549c-0.09,0.152-0.198,0.228-0.324,0.228
					s-0.234-0.076-0.324-0.228c-0.09-0.152-0.135-0.335-0.135-0.549C69.489,32.047,69.534,31.865,69.624,31.712z M69.602,36.321
					c-0.009-0.503-0.029-0.973-0.059-1.409c0.168,0.051,0.303,0.076,0.405,0.076s0.237-0.025,0.405-0.076
					c-0.03,0.437-0.05,0.906-0.058,1.409c-0.009,0.503-0.014,0.983-0.014,1.44v1.585c0,0.457,0.004,0.937,0.014,1.44
					c0.009,0.503,0.028,0.957,0.058,1.364c-0.138-0.02-0.273-0.03-0.405-0.03c-0.132,0-0.267,0.01-0.405,0.03
					c0.03-0.406,0.049-0.861,0.059-1.364c0.009-0.503,0.013-0.983,0.013-1.44v-1.585C69.615,37.304,69.611,36.824,69.602,36.321z"/>
				<path style="fill:#002D73;" d="M74.55,36.138c-0.174-0.391-0.413-0.587-0.719-0.587c-0.42,0-0.727,0.219-0.921,0.655
					c-0.195,0.437-0.292,1.051-0.292,1.844v1.295c0,0.457,0.005,0.937,0.014,1.44c0.009,0.503,0.028,0.957,0.058,1.364
					c-0.138-0.02-0.273-0.03-0.405-0.03c-0.132,0-0.267,0.01-0.404,0.03c0.03-0.406,0.049-0.861,0.058-1.364
					c0.009-0.503,0.014-0.983,0.014-1.44v-1.585c0-0.457-0.005-0.937-0.014-1.44c-0.009-0.503-0.029-0.973-0.058-1.409
					c0.168,0.051,0.302,0.076,0.404,0.076c0.048,0,0.1-0.008,0.157-0.023c0.057-0.015,0.124-0.033,0.202-0.053
					c-0.018,0.406-0.027,0.813-0.027,1.219h0.018c0.168-0.437,0.37-0.774,0.604-1.013c0.235-0.239,0.514-0.358,0.839-0.358
					c0.168,0,0.338,0.041,0.509,0.122c0.171,0.081,0.326,0.221,0.464,0.419c0.138,0.198,0.251,0.467,0.338,0.808
					c0.087,0.34,0.131,0.775,0.131,1.303c0,0.437-0.006,0.886-0.018,1.348c-0.012,0.462-0.018,0.952-0.018,1.47v0.99
					c0,0.163,0.001,0.322,0.004,0.48c0.003,0.158,0.008,0.307,0.014,0.449c-0.121-0.02-0.249-0.03-0.382-0.03
					c-0.128,0-0.252,0.01-0.373,0.03c0.012-0.528,0.025-1.072,0.04-1.63c0.015-0.558,0.022-1.133,0.022-1.722v-0.929
					C74.811,37.106,74.724,36.53,74.55,36.138z"/>
				<path style="fill:#002D73;" d="M76.946,33.922c-0.003-0.406-0.008-0.808-0.013-1.204c-0.006-0.396-0.014-0.774-0.023-1.135
					c-0.009-0.36-0.02-0.668-0.031-0.922c0.168,0.051,0.303,0.076,0.404,0.076s0.237-0.025,0.405-0.076
					c-0.012,0.254-0.022,0.559-0.032,0.914c-0.009,0.356-0.016,0.729-0.022,1.12c-0.006,0.391-0.01,0.785-0.013,1.181
					c-0.003,0.396-0.005,0.762-0.005,1.097v1.158h0.018c0.168-0.437,0.37-0.774,0.604-1.013c0.235-0.239,0.514-0.358,0.839-0.358
					c0.168,0,0.338,0.041,0.509,0.122c0.171,0.081,0.326,0.221,0.464,0.419c0.138,0.198,0.251,0.467,0.338,0.808
					c0.087,0.34,0.131,0.775,0.131,1.303c0,0.437-0.006,0.886-0.018,1.348c-0.012,0.462-0.018,0.952-0.018,1.47v0.99
					c0,0.163,0.001,0.322,0.004,0.48c0.003,0.158,0.008,0.307,0.014,0.449c-0.121-0.02-0.249-0.03-0.382-0.03
					c-0.128,0-0.252,0.01-0.373,0.03c0.012-0.528,0.025-1.072,0.04-1.63c0.015-0.558,0.022-1.133,0.022-1.722v-0.929
					c0-0.762-0.087-1.338-0.261-1.729c-0.174-0.391-0.413-0.587-0.719-0.587c-0.419,0-0.727,0.219-0.921,0.655
					c-0.195,0.437-0.292,1.051-0.292,1.844c0,0.285,0.001,0.615,0.005,0.99c0.003,0.376,0.007,0.754,0.013,1.135
					c0.006,0.381,0.014,0.749,0.022,1.105c0.009,0.356,0.02,0.645,0.032,0.868c-0.138-0.02-0.273-0.03-0.405-0.03
					c-0.132,0-0.267,0.01-0.404,0.03c0.012-0.233,0.022-0.528,0.031-0.884c0.009-0.355,0.016-0.731,0.023-1.127
					c0.006-0.396,0.01-0.797,0.013-1.204c0.003-0.406,0.005-0.782,0.005-1.127v-2.758C76.951,34.704,76.949,34.328,76.946,33.922z"
					/>
				<path style="fill:#002D73;" d="M82.704,34.942c0.228-0.122,0.461-0.183,0.701-0.183c0.216,0,0.414,0.053,0.594,0.16
					s0.334,0.259,0.462,0.457c0.128,0.198,0.228,0.437,0.301,0.716c0.073,0.279,0.109,0.587,0.109,0.922
					c0,0.579-0.006,1.156-0.018,1.729c-0.012,0.574-0.018,1.181-0.018,1.821c0,0.122,0.002,0.251,0.005,0.389
					c0.003,0.137,0.016,0.259,0.04,0.366c0.024,0.107,0.058,0.196,0.103,0.267c0.045,0.071,0.112,0.107,0.202,0.107
					c0.03,0,0.061-0.002,0.094-0.008c0.033-0.005,0.064-0.023,0.094-0.053v0.335c-0.066,0.051-0.148,0.091-0.247,0.122
					c-0.099,0.03-0.208,0.046-0.328,0.046c-0.195,0-0.344-0.084-0.447-0.251c-0.103-0.168-0.164-0.383-0.182-0.648
					c-0.215,0.366-0.427,0.635-0.636,0.807c-0.209,0.173-0.466,0.259-0.77,0.259c-0.149,0-0.296-0.036-0.439-0.107
					c-0.143-0.071-0.27-0.188-0.381-0.35c-0.11-0.162-0.2-0.358-0.269-0.587c-0.069-0.229-0.103-0.49-0.103-0.785
					c0-0.609,0.112-1.082,0.336-1.417c0.224-0.335,0.533-0.558,0.927-0.67c0.322-0.091,0.575-0.17,0.757-0.236
					c0.182-0.066,0.317-0.134,0.403-0.206c0.087-0.071,0.139-0.155,0.157-0.251c0.018-0.097,0.027-0.221,0.027-0.373
					c0-0.254-0.018-0.498-0.054-0.731c-0.036-0.233-0.093-0.437-0.171-0.609c-0.078-0.173-0.18-0.312-0.306-0.419
					c-0.126-0.107-0.279-0.16-0.459-0.16c-0.24,0-0.463,0.091-0.67,0.274c-0.207,0.183-0.361,0.437-0.463,0.762h-0.099v-0.792
					C82.227,35.298,82.476,35.064,82.704,34.942z M83.825,38.508c-0.134,0.041-0.27,0.084-0.407,0.129
					c-0.137,0.046-0.273,0.104-0.407,0.175c-0.134,0.071-0.254,0.168-0.358,0.29c-0.104,0.122-0.188,0.274-0.25,0.457
					c-0.063,0.183-0.094,0.417-0.094,0.701c0,0.478,0.08,0.838,0.241,1.082c0.161,0.244,0.34,0.366,0.537,0.366
					c0.227,0,0.434-0.107,0.622-0.32c0.188-0.213,0.332-0.462,0.434-0.747l0.036-2.285C84.076,38.416,83.959,38.467,83.825,38.508z"
					/>
				<path style="fill:#002D73;" d="M86.601,33.922c-0.003-0.406-0.008-0.808-0.014-1.204c-0.006-0.396-0.013-0.774-0.022-1.135
					c-0.009-0.36-0.02-0.668-0.032-0.922c0.168,0.051,0.303,0.076,0.405,0.076c0.102,0,0.237-0.025,0.405-0.076
					c-0.012,0.254-0.022,0.561-0.032,0.922c-0.009,0.361-0.017,0.739-0.022,1.135c-0.006,0.396-0.011,0.797-0.014,1.204
					c-0.003,0.406-0.004,0.782-0.004,1.127v2.758c0,0.345,0.001,0.721,0.004,1.127c0.003,0.406,0.008,0.808,0.014,1.204
					c0.006,0.396,0.014,0.772,0.022,1.127c0.009,0.356,0.019,0.65,0.032,0.884c-0.138-0.02-0.273-0.03-0.405-0.03
					c-0.132,0-0.267,0.01-0.405,0.03c0.012-0.233,0.023-0.528,0.032-0.884c0.009-0.355,0.016-0.731,0.022-1.127
					c0.006-0.396,0.01-0.797,0.014-1.204c0.003-0.406,0.004-0.782,0.004-1.127v-2.758C86.605,34.704,86.603,34.328,86.601,33.922z"
					/>
				<path style="fill:#002D73;" d="M89.698,34.942c0.228-0.122,0.461-0.183,0.701-0.183c0.216,0,0.414,0.053,0.594,0.16
					c0.18,0.107,0.334,0.259,0.461,0.457c0.128,0.198,0.228,0.437,0.301,0.716c0.073,0.279,0.109,0.587,0.109,0.922
					c0,0.579-0.006,1.156-0.018,1.729c-0.012,0.574-0.018,1.181-0.018,1.821c0,0.122,0.001,0.251,0.004,0.389
					c0.003,0.137,0.017,0.259,0.041,0.366c0.024,0.107,0.058,0.196,0.103,0.267c0.045,0.071,0.113,0.107,0.202,0.107
					c0.03,0,0.061-0.002,0.094-0.008c0.033-0.005,0.064-0.023,0.094-0.053v0.335c-0.066,0.051-0.148,0.091-0.247,0.122
					c-0.099,0.03-0.208,0.046-0.328,0.046c-0.195,0-0.344-0.084-0.447-0.251c-0.103-0.168-0.164-0.383-0.182-0.648
					c-0.215,0.366-0.427,0.635-0.636,0.807c-0.209,0.173-0.466,0.259-0.77,0.259c-0.149,0-0.296-0.036-0.439-0.107
					c-0.143-0.071-0.27-0.188-0.381-0.35c-0.11-0.162-0.2-0.358-0.269-0.587c-0.069-0.229-0.103-0.49-0.103-0.785
					c0-0.609,0.112-1.082,0.336-1.417c0.224-0.335,0.533-0.558,0.927-0.67c0.322-0.091,0.575-0.17,0.757-0.236
					c0.182-0.066,0.317-0.134,0.403-0.206c0.086-0.071,0.139-0.155,0.156-0.251c0.018-0.097,0.027-0.221,0.027-0.373
					c0-0.254-0.018-0.498-0.054-0.731c-0.036-0.233-0.093-0.437-0.171-0.609c-0.078-0.173-0.18-0.312-0.306-0.419
					c-0.126-0.107-0.279-0.16-0.458-0.16c-0.24,0-0.463,0.091-0.67,0.274c-0.207,0.183-0.361,0.437-0.463,0.762h-0.099v-0.792
					C89.221,35.298,89.469,35.064,89.698,34.942z M90.818,38.508c-0.134,0.041-0.27,0.084-0.407,0.129
					c-0.137,0.046-0.273,0.104-0.407,0.175c-0.134,0.071-0.253,0.168-0.358,0.29c-0.104,0.122-0.188,0.274-0.25,0.457
					c-0.063,0.183-0.094,0.417-0.094,0.701c0,0.478,0.081,0.838,0.241,1.082c0.161,0.244,0.34,0.366,0.537,0.366
					c0.227,0,0.434-0.107,0.622-0.32c0.188-0.213,0.333-0.462,0.434-0.747l0.036-2.285C91.07,38.416,90.952,38.467,90.818,38.508z"
					/>
				<path style="fill:#002D73;" d="M94.183,32.87c-0.018,0.386-0.031,0.764-0.04,1.135c-0.009,0.371-0.02,0.744-0.032,1.12
					c0.066,0,0.189-0.002,0.369-0.008c0.18-0.005,0.374-0.018,0.584-0.038c-0.006,0.03-0.009,0.086-0.009,0.168V35.4v0.168
					c0,0.071,0.003,0.122,0.009,0.152c-0.078-0.01-0.159-0.018-0.243-0.023c-0.084-0.005-0.174-0.008-0.27-0.008h-0.441
					c-0.006,0.041-0.013,0.203-0.022,0.488c-0.009,0.285-0.017,0.622-0.022,1.013c-0.006,0.391-0.01,0.8-0.014,1.226
					c-0.003,0.427-0.004,0.808-0.004,1.143c0,0.285,0.004,0.564,0.014,0.838c0.009,0.274,0.037,0.521,0.085,0.739
					c0.048,0.218,0.12,0.394,0.216,0.526c0.096,0.132,0.234,0.198,0.413,0.198c0.048,0,0.113-0.01,0.193-0.03
					c0.081-0.02,0.151-0.046,0.211-0.076v0.366c-0.102,0.03-0.214,0.069-0.337,0.114c-0.123,0.046-0.241,0.069-0.355,0.069
					c-0.378,0-0.656-0.158-0.836-0.472c-0.18-0.315-0.27-0.777-0.27-1.387c0-0.274,0.003-0.571,0.009-0.891
					c0.006-0.32,0.014-0.67,0.022-1.051c0.009-0.381,0.017-0.802,0.022-1.265c0.006-0.462,0.009-0.977,0.009-1.546h-0.288
					c-0.048,0-0.099,0.003-0.153,0.008c-0.054,0.005-0.111,0.013-0.171,0.023c0.006-0.061,0.01-0.119,0.014-0.175
					c0.003-0.056,0.005-0.114,0.005-0.175c0-0.051-0.002-0.101-0.005-0.152c-0.003-0.051-0.008-0.101-0.014-0.152
					c0.27,0.03,0.468,0.046,0.593,0.046c-0.006-0.203-0.01-0.457-0.014-0.762c-0.003-0.305-0.01-0.619-0.022-0.945l0.746-0.533
					H94.183z"/>
				<path style="fill:#002D73;" d="M96.107,31.712c0.09-0.152,0.198-0.229,0.324-0.229c0.126,0,0.234,0.076,0.323,0.229
					c0.09,0.152,0.135,0.335,0.135,0.548c0,0.213-0.045,0.396-0.135,0.549c-0.09,0.152-0.198,0.228-0.323,0.228
					c-0.126,0-0.234-0.076-0.324-0.228c-0.09-0.152-0.135-0.335-0.135-0.549C95.972,32.047,96.017,31.865,96.107,31.712z
					 M96.085,36.321c-0.009-0.503-0.029-0.973-0.058-1.409c0.168,0.051,0.303,0.076,0.405,0.076c0.102,0,0.236-0.025,0.404-0.076
					c-0.03,0.437-0.049,0.906-0.058,1.409c-0.009,0.503-0.014,0.983-0.014,1.44v1.585c0,0.457,0.005,0.937,0.014,1.44
					c0.009,0.503,0.029,0.957,0.058,1.364c-0.138-0.02-0.273-0.03-0.404-0.03c-0.132,0-0.267,0.01-0.405,0.03
					c0.03-0.406,0.05-0.861,0.058-1.364c0.009-0.503,0.014-0.983,0.014-1.44v-1.585C96.098,37.304,96.093,36.824,96.085,36.321z"/>
				<path style="fill:#002D73;" d="M98.188,36.794c0.129-0.482,0.298-0.873,0.508-1.173c0.21-0.3,0.445-0.518,0.706-0.655
					c0.261-0.137,0.52-0.206,0.777-0.206c0.264,0,0.524,0.069,0.782,0.206c0.258,0.137,0.491,0.356,0.701,0.655
					c0.21,0.3,0.379,0.691,0.508,1.173c0.129,0.483,0.193,1.069,0.193,1.76c0,0.691-0.065,1.277-0.193,1.76
					c-0.129,0.482-0.298,0.874-0.508,1.173c-0.21,0.3-0.444,0.51-0.701,0.632c-0.258,0.122-0.518,0.183-0.782,0.183
					c-0.258,0-0.517-0.061-0.777-0.183c-0.261-0.122-0.496-0.333-0.706-0.632c-0.21-0.299-0.379-0.691-0.508-1.173
					c-0.129-0.482-0.193-1.069-0.193-1.76C97.995,37.863,98.059,37.276,98.188,36.794z M98.853,39.788
					c0.045,0.396,0.121,0.749,0.229,1.059c0.108,0.31,0.251,0.556,0.431,0.739c0.18,0.183,0.401,0.274,0.665,0.274
					s0.485-0.091,0.665-0.274c0.18-0.183,0.324-0.429,0.432-0.739c0.108-0.31,0.184-0.663,0.229-1.059
					c0.045-0.396,0.068-0.807,0.068-1.234c0-0.427-0.023-0.838-0.068-1.234c-0.045-0.396-0.121-0.749-0.229-1.059
					c-0.108-0.31-0.252-0.556-0.432-0.739c-0.18-0.183-0.401-0.274-0.665-0.274s-0.485,0.091-0.665,0.274
					c-0.18,0.183-0.323,0.429-0.431,0.739c-0.108,0.31-0.184,0.663-0.229,1.059s-0.067,0.808-0.067,1.234
					C98.786,38.98,98.808,39.391,98.853,39.788z"/>
				<path style="fill:#002D73;" d="M106.031,36.138c-0.174-0.391-0.414-0.587-0.719-0.587c-0.419,0-0.727,0.219-0.922,0.655
					c-0.195,0.437-0.292,1.051-0.292,1.844v1.295c0,0.457,0.005,0.937,0.014,1.44c0.009,0.503,0.028,0.957,0.058,1.364
					c-0.138-0.02-0.273-0.03-0.405-0.03c-0.132,0-0.267,0.01-0.405,0.03c0.03-0.406,0.049-0.861,0.058-1.364
					c0.009-0.503,0.014-0.983,0.014-1.44v-1.585c0-0.457-0.004-0.937-0.014-1.44c-0.009-0.503-0.028-0.973-0.058-1.409
					c0.168,0.051,0.303,0.076,0.405,0.076c0.048,0,0.1-0.008,0.157-0.023c0.057-0.015,0.124-0.033,0.202-0.053
					c-0.018,0.406-0.027,0.813-0.027,1.219h0.018c0.168-0.437,0.37-0.774,0.604-1.013c0.234-0.239,0.514-0.358,0.839-0.358
					c0.168,0,0.338,0.041,0.51,0.122c0.171,0.081,0.326,0.221,0.464,0.419c0.138,0.198,0.251,0.467,0.338,0.808
					c0.087,0.34,0.131,0.775,0.131,1.303c0,0.437-0.006,0.886-0.018,1.348c-0.012,0.462-0.018,0.952-0.018,1.47v0.99
					c0,0.163,0.002,0.322,0.005,0.48c0.002,0.158,0.007,0.307,0.014,0.449c-0.122-0.02-0.249-0.03-0.382-0.03
					c-0.127,0-0.251,0.01-0.373,0.03c0.012-0.528,0.026-1.072,0.041-1.63c0.015-0.558,0.023-1.133,0.023-1.722v-0.929
					C106.292,37.106,106.205,36.53,106.031,36.138z"/>
				<path style="fill:#002D73;" d="M110.755,38.218c-0.003-0.406-0.008-0.81-0.014-1.211c-0.006-0.401-0.014-0.785-0.023-1.15
					c-0.009-0.366-0.019-0.68-0.031-0.945c0.168,0.051,0.302,0.076,0.405,0.076s0.237-0.025,0.405-0.076
					c-0.024,0.264-0.042,0.518-0.054,0.762c-0.012,0.244-0.018,0.488-0.018,0.731h0.018c0.042-0.162,0.102-0.338,0.18-0.526
					c0.077-0.188,0.178-0.366,0.301-0.533c0.123-0.168,0.271-0.307,0.445-0.419c0.174-0.112,0.371-0.168,0.593-0.168
					c0.227,0,0.453,0.074,0.674,0.221c0.221,0.147,0.418,0.373,0.588,0.678c0.171,0.305,0.309,0.693,0.414,1.166
					c0.105,0.472,0.157,1.034,0.157,1.684c0,0.65-0.057,1.214-0.171,1.691c-0.114,0.478-0.263,0.874-0.445,1.188
					c-0.183,0.315-0.391,0.546-0.625,0.693c-0.234,0.147-0.467,0.221-0.701,0.221c-0.66,0-1.13-0.482-1.412-1.447h-0.018v0.96
					c0,0.325,0.001,0.688,0.004,1.089c0.003,0.401,0.007,0.8,0.014,1.196c0.006,0.396,0.014,0.774,0.023,1.135
					c0.009,0.36,0.019,0.668,0.031,0.922c-0.168-0.051-0.303-0.076-0.405-0.076s-0.237,0.025-0.405,0.076
					c0.012-0.254,0.023-0.561,0.031-0.922c0.009-0.361,0.017-0.739,0.023-1.135c0.006-0.396,0.01-0.795,0.014-1.196
					c0.003-0.401,0.004-0.764,0.004-1.089v-2.468C110.759,39.001,110.758,38.625,110.755,38.218z M113.892,36.984
					c-0.075-0.396-0.17-0.713-0.287-0.952c-0.117-0.239-0.251-0.404-0.4-0.495c-0.15-0.091-0.297-0.137-0.44-0.137
					c-0.24,0-0.445,0.086-0.616,0.259c-0.171,0.173-0.31,0.404-0.418,0.693c-0.108,0.289-0.186,0.63-0.234,1.021
					c-0.048,0.391-0.072,0.805-0.072,1.242c0,2.113,0.437,3.169,1.313,3.169c0.216,0,0.403-0.084,0.561-0.251
					c0.159-0.168,0.291-0.401,0.396-0.701c0.105-0.299,0.183-0.65,0.234-1.051c0.051-0.401,0.076-0.83,0.076-1.287
					C114.005,37.883,113.967,37.38,113.892,36.984z"/>
				<path style="fill:#002D73;" d="M115.681,36.794c0.129-0.482,0.298-0.873,0.508-1.173c0.21-0.3,0.445-0.518,0.706-0.655
					c0.261-0.137,0.52-0.206,0.777-0.206c0.264,0,0.524,0.069,0.782,0.206c0.258,0.137,0.491,0.356,0.702,0.655
					c0.21,0.3,0.379,0.691,0.508,1.173c0.129,0.483,0.193,1.069,0.193,1.76c0,0.691-0.065,1.277-0.193,1.76
					c-0.129,0.482-0.298,0.874-0.508,1.173c-0.21,0.3-0.444,0.51-0.702,0.632c-0.258,0.122-0.518,0.183-0.782,0.183
					c-0.258,0-0.516-0.061-0.777-0.183c-0.261-0.122-0.496-0.333-0.706-0.632c-0.21-0.299-0.379-0.691-0.508-1.173
					c-0.129-0.482-0.194-1.069-0.194-1.76C115.488,37.863,115.552,37.276,115.681,36.794z M116.346,39.788
					c0.045,0.396,0.121,0.749,0.229,1.059c0.108,0.31,0.251,0.556,0.431,0.739c0.18,0.183,0.401,0.274,0.665,0.274
					s0.486-0.091,0.665-0.274c0.18-0.183,0.324-0.429,0.432-0.739c0.108-0.31,0.184-0.663,0.229-1.059
					c0.045-0.396,0.068-0.807,0.068-1.234c0-0.427-0.023-0.838-0.068-1.234c-0.045-0.396-0.122-0.749-0.229-1.059
					c-0.108-0.31-0.251-0.556-0.432-0.739c-0.18-0.183-0.401-0.274-0.665-0.274s-0.485,0.091-0.665,0.274
					c-0.18,0.183-0.323,0.429-0.431,0.739c-0.108,0.31-0.184,0.663-0.229,1.059c-0.045,0.396-0.068,0.808-0.068,1.234
					C116.279,38.98,116.302,39.391,116.346,39.788z"/>
				<path style="fill:#002D73;" d="M121.511,40.717c-0.12-0.579-0.25-1.196-0.391-1.851c-0.141-0.655-0.288-1.326-0.44-2.011
					c-0.153-0.686-0.304-1.333-0.454-1.943c0.072,0.02,0.143,0.038,0.212,0.053c0.069,0.015,0.14,0.023,0.212,0.023
					c0.066,0,0.132-0.008,0.197-0.023c0.066-0.015,0.138-0.033,0.216-0.053c0.156,0.955,0.328,1.912,0.517,2.872
					c0.189,0.96,0.4,1.948,0.634,2.964c0.072-0.284,0.159-0.66,0.261-1.127c0.101-0.467,0.207-0.97,0.314-1.508
					c0.108-0.538,0.216-1.087,0.324-1.646c0.108-0.558,0.204-1.076,0.288-1.554c0.108,0.051,0.197,0.076,0.269,0.076
					c0.048,0,0.09-0.008,0.126-0.023c0.036-0.015,0.077-0.033,0.126-0.053c0.149,0.975,0.323,1.938,0.521,2.887
					c0.197,0.95,0.404,1.933,0.62,2.948c0.078-0.325,0.17-0.724,0.274-1.196c0.105-0.472,0.215-0.97,0.328-1.493
					c0.114-0.523,0.229-1.059,0.346-1.607c0.117-0.548,0.226-1.061,0.328-1.539c0.12,0.051,0.216,0.076,0.288,0.076
					c0.078,0,0.168-0.025,0.27-0.076c-0.342,1.229-0.661,2.443-0.957,3.641c-0.297,1.199-0.574,2.397-0.832,3.596
					c-0.066-0.02-0.143-0.03-0.234-0.03c-0.042,0-0.084,0-0.125,0c-0.042,0-0.078,0.01-0.108,0.03
					c-0.156-0.904-0.326-1.813-0.512-2.727c-0.186-0.914-0.399-1.874-0.638-2.88c-0.072,0.305-0.159,0.683-0.261,1.135
					c-0.102,0.452-0.207,0.937-0.315,1.455c-0.108,0.518-0.216,1.044-0.323,1.577c-0.108,0.533-0.204,1.013-0.288,1.44
					c-0.072-0.02-0.156-0.03-0.252-0.03c-0.096,0-0.18,0.01-0.251,0.03C121.726,41.774,121.63,41.296,121.511,40.717z"/>
				<path style="fill:#002D73;" d="M130.779,40.702c-0.048,0.162-0.113,0.338-0.193,0.526c-0.081,0.188-0.183,0.363-0.306,0.526
					c-0.123,0.163-0.269,0.295-0.436,0.396c-0.168,0.101-0.363,0.152-0.585,0.152c-0.228,0-0.451-0.066-0.67-0.198
					c-0.219-0.132-0.413-0.348-0.584-0.648c-0.171-0.299-0.309-0.686-0.414-1.158c-0.105-0.472-0.157-1.038-0.157-1.699
					c0-0.65,0.057-1.214,0.171-1.691c0.114-0.477,0.262-0.876,0.445-1.196c0.183-0.32,0.389-0.559,0.62-0.716
					c0.231-0.157,0.463-0.236,0.697-0.236c0.665,0,1.126,0.508,1.384,1.524h0.018V34.79c0-0.386-0.002-0.775-0.005-1.166
					c-0.003-0.391-0.006-0.764-0.009-1.12c-0.003-0.355-0.006-0.691-0.009-1.006c-0.003-0.315-0.007-0.594-0.013-0.838
					c0.072,0.02,0.141,0.038,0.207,0.053c0.066,0.015,0.132,0.023,0.198,0.023s0.13-0.008,0.193-0.023
					c0.063-0.015,0.133-0.033,0.212-0.053c-0.018,0.325-0.033,0.795-0.045,1.409c-0.012,0.615-0.023,1.293-0.031,2.034
					c-0.009,0.742-0.017,1.503-0.023,2.286c-0.006,0.782-0.009,1.498-0.009,2.148c0,0.701,0.002,1.331,0.009,1.889
					c0.006,0.559,0.012,1.133,0.018,1.722c-0.12-0.02-0.237-0.03-0.35-0.03c-0.108,0-0.222,0.01-0.341,0.03l0.026-1.447H130.779z
					 M128.338,40.199c0.074,0.396,0.17,0.714,0.288,0.952c0.117,0.239,0.25,0.404,0.4,0.495c0.15,0.091,0.297,0.137,0.441,0.137
					c0.234,0,0.434-0.099,0.602-0.297c0.168-0.198,0.307-0.457,0.418-0.777s0.192-0.683,0.243-1.089
					c0.05-0.406,0.076-0.812,0.076-1.219c0-0.975-0.111-1.719-0.333-2.232c-0.222-0.513-0.548-0.769-0.98-0.769
					c-0.215,0-0.403,0.084-0.561,0.251c-0.159,0.168-0.291,0.401-0.396,0.701c-0.105,0.3-0.183,0.65-0.234,1.051
					c-0.051,0.401-0.076,0.83-0.076,1.287C128.226,39.3,128.263,39.803,128.338,40.199z"/>
				<path style="fill:#002D73;" d="M132.896,35.826c0.35-0.711,0.861-1.067,1.533-1.067c0.318,0,0.592,0.084,0.823,0.251
					c0.231,0.168,0.424,0.391,0.58,0.67c0.156,0.28,0.271,0.607,0.346,0.983c0.075,0.376,0.113,0.777,0.113,1.204
					c0,0.102-0.002,0.201-0.005,0.297c-0.003,0.097-0.007,0.196-0.014,0.297c-0.323-0.01-0.644-0.02-0.962-0.03
					c-0.318-0.01-0.638-0.015-0.962-0.015c-0.198,0-0.395,0.005-0.589,0.015c-0.195,0.01-0.391,0.02-0.589,0.03
					c-0.006,0.051-0.009,0.127-0.009,0.229v0.198c0,0.396,0.034,0.767,0.103,1.112c0.069,0.345,0.169,0.643,0.301,0.891
					c0.132,0.249,0.293,0.447,0.485,0.594c0.192,0.147,0.414,0.221,0.665,0.221c0.12,0,0.243-0.028,0.368-0.084
					c0.126-0.056,0.249-0.132,0.369-0.228c0.12-0.097,0.232-0.211,0.337-0.343c0.105-0.132,0.196-0.274,0.274-0.427l0.045,0.046
					l-0.054,0.747c-0.18,0.244-0.403,0.452-0.67,0.625c-0.267,0.173-0.544,0.259-0.831,0.259c-0.324,0-0.619-0.084-0.885-0.251
					c-0.267-0.168-0.498-0.411-0.692-0.731c-0.195-0.32-0.345-0.698-0.449-1.135c-0.105-0.437-0.157-0.909-0.157-1.417
					C132.37,37.517,132.545,36.537,132.896,35.826z M133.885,35.506c-0.153,0.173-0.279,0.389-0.378,0.648
					c-0.098,0.259-0.173,0.544-0.224,0.853c-0.051,0.31-0.082,0.602-0.095,0.876c0.186,0.01,0.379,0.02,0.58,0.03
					c0.201,0.01,0.397,0.015,0.589,0.015c0.198,0,0.398-0.005,0.603-0.015c0.204-0.01,0.402-0.02,0.593-0.03
					c0-0.274-0.014-0.564-0.041-0.868c-0.027-0.305-0.081-0.589-0.162-0.853c-0.081-0.264-0.194-0.482-0.338-0.655
					c-0.143-0.172-0.333-0.259-0.566-0.259C134.225,35.247,134.037,35.334,133.885,35.506z"/>
				<path style="fill:#002D73;" d="M139.117,35.994c-0.087-0.051-0.175-0.076-0.265-0.076c-0.144,0-0.273,0.056-0.387,0.168
					c-0.114,0.112-0.21,0.262-0.288,0.449c-0.078,0.188-0.138,0.411-0.18,0.67c-0.042,0.259-0.063,0.536-0.063,0.83v1.676
					c0,0.681,0.002,1.201,0.005,1.562c0.002,0.361,0.014,0.653,0.031,0.876c-0.12-0.02-0.24-0.03-0.36-0.03
					c-0.132,0-0.258,0.01-0.378,0.03c0.018-0.345,0.028-0.815,0.031-1.409c0.003-0.594,0.004-1.323,0.004-2.186v-0.488
					c0-0.396-0.001-0.853-0.004-1.371c-0.003-0.518-0.014-1.112-0.031-1.783c0.066,0.02,0.128,0.038,0.189,0.053
					c0.06,0.015,0.123,0.023,0.189,0.023c0.054,0,0.111-0.008,0.171-0.023c0.06-0.015,0.122-0.033,0.189-0.053
					c-0.024,0.366-0.037,0.655-0.041,0.868c-0.003,0.213-0.004,0.417-0.004,0.609l0.018,0.015c0.354-1.097,0.749-1.646,1.187-1.646
					c0.054,0,0.1,0.005,0.14,0.015c0.039,0.01,0.088,0.036,0.148,0.076c-0.03,0.122-0.048,0.307-0.054,0.556
					c-0.006,0.249-0.009,0.475-0.009,0.678l-0.063,0.076C139.262,36.1,139.203,36.045,139.117,35.994z"/>
				<path style="fill:#002D73;" d="M140.411,42.446c0.141-0.462,0.25-0.939,0.328-1.432c0.077-0.493,0.132-1,0.162-1.524
					c0.03-0.523,0.045-1.074,0.045-1.653c0-0.579-0.015-1.13-0.045-1.653c-0.03-0.523-0.084-1.031-0.162-1.524
					c-0.078-0.492-0.188-0.977-0.328-1.455c-0.141-0.477-0.322-0.96-0.544-1.448l0.18-0.274c0.486,0.884,0.85,1.872,1.092,2.963
					c0.243,1.092,0.365,2.222,0.365,3.39c0,1.127-0.123,2.242-0.369,3.344c-0.246,1.102-0.608,2.09-1.088,2.963l-0.18-0.274
					C140.089,43.383,140.27,42.908,140.411,42.446z"/>
			</g>
		</g>
		<path style="fill:#002D73;" d="M14.158,6.584c0-2.514,0-2.963-0.032-3.481c-0.035-0.548-0.159-0.805-0.693-0.919
			c-0.13-0.032-0.4-0.05-0.547-0.05c-0.065,0-0.127-0.029-0.127-0.095c0-0.094,0.078-0.128,0.258-0.128
			c0.725,0,1.739,0.048,1.821,0.048c0.177,0,1.4-0.048,1.9-0.048c1.015,0,2.094,0.1,2.946,0.708c0.406,0.292,1.111,1.08,1.111,2.195
			c0,1.187-0.496,2.38-1.949,3.722c1.323,1.69,2.442,3.104,3.356,4.123c6.528,7.322,17.887,2.662,17.887,2.709
			c0,0.099-13.187,6.339-20.579-3.946c-0.653-0.909-1.435-1.966-1.757-2.389c-0.063-0.062-0.113-0.097-0.211-0.097l-1.979-0.03
			c-0.081,0-0.113,0.047-0.113,0.127v0.387c0,1.549,0,2.821,0.079,3.498c0.05,0.466,0.146,0.823,0.63,0.888
			c0.226,0.032,0.579,0.064,0.726,0.064c0.094,0,0.126,0.05,0.126,0.095c0,0.073-0.081,0.132-0.258,0.132
			c-0.888,0-1.9-0.059-1.98-0.059c-0.017,0-1.032,0.059-1.515,0.059c-0.176,0-0.259-0.039-0.259-0.132
			c0-0.046,0.034-0.095,0.129-0.095c0.146,0,0.339-0.032,0.483-0.064c0.321-0.065,0.404-0.422,0.467-0.888
			c0.08-0.677,0.08-1.95,0.08-3.498V6.584z M15.449,7.986c0,0.081,0.032,0.149,0.113,0.194c0.24,0.144,0.979,0.256,1.69,0.256
			c0.388,0,0.838-0.049,1.208-0.301c0.563-0.393,0.984-1.26,0.984-2.483c0-2.016-1.065-3.227-2.788-3.227
			c-0.483,0-0.918,0.051-1.078,0.099c-0.08,0.03-0.129,0.093-0.129,0.19V7.986z"/>
		<path style="fill:#002D73;" d="M1.64,5.458c0-2.934,0-3.462-0.037-4.066c-0.039-0.64-0.19-0.94-0.813-1.072
			c-0.149-0.04-0.47-0.055-0.64-0.055C0.077,0.264,0,0.225,0,0.148C0,0.036,0.095,0,0.305,0c0.844,0,2.031,0.053,2.125,0.053
			C2.882,0.053,3.614,0,4.48,0c3.09,0,3.769,1.884,3.769,2.824c0,1.542-0.885,2.465-1.771,3.388c1.395,0.434,3.259,1.77,3.259,3.97
			c0,2.017-1.583,4.107-4.8,4.107c-0.435,0-2.356-0.111-2.506-0.111c-0.095,0-1.282,0.054-1.845,0.054c-0.208,0-0.3-0.034-0.3-0.138
			c0-0.066,0.034-0.123,0.148-0.123c0.167,0,0.395-0.041,0.565-0.078c0.375-0.075,0.471-0.49,0.544-1.033
			c0.095-0.79,0.095-2.278,0.095-4.087V5.458z M3.147,5.874c0,0.131,0.037,0.169,0.131,0.206c0.113,0.018,0.451,0.077,1.15,0.077
			c1.053,0,1.316-0.038,1.715-0.492c0.391-0.45,0.674-1.125,0.674-1.901c0-1.564-0.696-3.24-2.539-3.24
			c-0.21,0-0.603,0.023-0.904,0.097C3.204,0.656,3.147,0.715,3.147,0.826V5.874z M3.147,7.867c0,1.451,0,3.789,0.02,4.068
			c0.054,0.925,0.054,1.188,0.639,1.468c0.507,0.245,1.317,0.285,1.656,0.285c1.016,0,2.654-0.546,2.654-2.674
			c0-1.128-0.374-2.767-1.825-3.764c-0.64-0.434-1.112-0.49-1.563-0.546C4.48,6.665,3.541,6.665,3.26,6.665
			c-0.076,0-0.113,0.038-0.113,0.132V7.867z"/>
		<path style="fill:#002D73;" d="M27.041,6.637c0-2.54,0-2.998-0.035-3.521c-0.031-0.555-0.163-0.815-0.698-0.926
			c-0.129-0.033-0.406-0.052-0.555-0.052c-0.065,0-0.13-0.029-0.13-0.094c0-0.099,0.081-0.133,0.262-0.133
			c0.731,0,1.758,0.05,1.839,0.05c0.114,0,3.354,0,3.73-0.016c0.311-0.016,0.572-0.051,0.699-0.082
			c0.083-0.017,0.15-0.084,0.229-0.084c0.048,0,0.066,0.067,0.066,0.15c0,0.115-0.081,0.31-0.13,0.767
			c-0.015,0.162-0.049,0.879-0.083,1.074c-0.014,0.08-0.048,0.18-0.113,0.18c-0.096,0-0.131-0.085-0.131-0.214
			c0-0.114-0.014-0.389-0.097-0.582c-0.117-0.266-0.276-0.457-1.156-0.556c-0.278-0.036-2.053-0.05-2.232-0.05
			c-0.067,0-0.097,0.05-0.097,0.164v4.495c0,0.114,0.016,0.163,0.097,0.163c0.211,0,2.213,0,2.591-0.034
			c0.39-0.032,0.617-0.062,0.764-0.225c0.117-0.133,0.178-0.212,0.247-0.212c0.045,0,0.08,0.033,0.08,0.13
			c0,0.097-0.08,0.376-0.131,0.91c-0.031,0.326-0.065,0.932-0.065,1.043c0,0.132,0,0.312-0.112,0.312
			c-0.083,0-0.114-0.068-0.114-0.146c0-0.166,0-0.329-0.066-0.541c-0.063-0.228-0.211-0.502-0.846-0.57
			c-0.441-0.049-2.055-0.078-2.329-0.078c-0.083,0-0.114,0.047-0.114,0.114v1.434c0,0.551-0.016,2.441,0,2.782
			c0.048,1.125,0.292,1.338,1.886,1.338c0.425,0,1.14,0,1.566-0.178c0.422-0.181,0.62-0.506,0.734-1.176
			c0.028-0.179,0.065-0.243,0.145-0.243c0.098,0,0.098,0.129,0.098,0.243c0,0.132-0.13,1.239-0.215,1.581
			c-0.109,0.423-0.242,0.423-0.877,0.423c-2.46,0-3.549-0.096-4.023-0.096c-0.081,0-1.107,0.049-1.597,0.049
			c-0.179,0-0.26-0.029-0.26-0.131c0-0.058,0.034-0.104,0.131-0.104c0.149,0,0.339-0.026,0.488-0.062
			c0.328-0.061,0.408-0.42,0.473-0.894c0.083-0.684,0.083-1.968,0.083-3.531V6.637z"/>
		<path style="fill:#002D73;" d="M42.898,1.659c3.769,0,6.62,2.303,6.62,6.07c0,3.618-2.678,6.604-6.715,6.604
			c-4.589,0-6.548-3.445-6.548-6.356C36.256,5.37,38.273,1.659,42.898,1.659 M43.277,13.67c1.505,0,4.526-0.798,4.526-5.477
			c0-3.888-2.355-5.925-5.001-5.925c-2.796,0-4.816,1.75-4.816,5.275C37.987,11.31,40.251,13.67,43.277,13.67"/>
		<path style="fill:#002D73;" d="M56.47,9.411c0-1.577,0-1.86-0.022-2.183c-0.025-0.347-0.086-0.513-0.43-0.558
			c-0.083-0.013-0.261-0.025-0.355-0.025c-0.037,0-0.088-0.048-0.088-0.083c0-0.063,0.051-0.084,0.168-0.084
			c0.477,0,1.158,0.021,1.217,0.021c0.07,0,2.263,0.014,2.502,0c0.202-0.01,0.393-0.044,0.478-0.056
			c0.046-0.009,0.094-0.049,0.141-0.049c0.037,0,0.048,0.049,0.048,0.095c0,0.073-0.06,0.192-0.084,0.478
			c-0.01,0.095-0.034,0.547-0.058,0.668c-0.014,0.047-0.046,0.107-0.095,0.107c-0.059,0-0.085-0.049-0.085-0.131
			c0-0.072-0.01-0.237-0.06-0.358c-0.071-0.167-0.179-0.238-0.751-0.31c-0.179-0.022-1.392-0.037-1.512-0.037
			c-0.049,0-0.059,0.037-0.059,0.109v2.751c0,0.074,0,0.107,0.059,0.107c0.132,0,1.512,0,1.752-0.025
			c0.25-0.023,0.404-0.036,0.511-0.14c0.072-0.071,0.119-0.132,0.156-0.132c0.037,0,0.06,0.019,0.06,0.083
			c0,0.06-0.06,0.228-0.084,0.56c-0.023,0.202-0.046,0.584-0.046,0.654c0,0.085-0.026,0.192-0.096,0.192
			c-0.047,0-0.072-0.038-0.072-0.096c0-0.095,0-0.199-0.047-0.331c-0.038-0.146-0.131-0.267-0.54-0.31
			c-0.281-0.037-1.402-0.047-1.581-0.047c-0.062,0-0.072,0.034-0.072,0.07v0.846c0,0.348-0.012,1.524,0,1.728
			c0.023,0.68,0.213,0.81,1.251,0.81c0.275,0,0.773,0,1.049-0.109c0.273-0.118,0.414-0.296,0.476-0.701
			c0.024-0.119,0.046-0.153,0.105-0.153c0.061,0,0.074,0.08,0.074,0.153c0,0.069-0.083,0.761-0.144,0.979
			c-0.072,0.259-0.18,0.259-0.585,0.259c-0.784,0-1.392-0.024-1.821-0.036c-0.442-0.026-0.713-0.026-0.87-0.026
			c-0.025,0-0.224,0-0.453,0.013c-0.203,0.013-0.441,0.025-0.609,0.025c-0.105,0-0.165-0.025-0.165-0.083
			c0-0.034,0.024-0.079,0.083-0.079c0.095,0,0.225-0.045,0.321-0.062c0.203-0.03,0.225-0.23,0.275-0.527
			c0.058-0.417,0.058-1.217,0.058-2.192V9.411z"/>
		<path style="fill:#002D73;" d="M64.106,11.219c0,1.491,0.022,2.097,0.214,2.274c0.166,0.171,0.572,0.24,1.392,0.24
			c0.55,0,1.013-0.013,1.266-0.309c0.13-0.156,0.212-0.37,0.249-0.574c0.011-0.07,0.046-0.131,0.105-0.131
			c0.049,0,0.074,0.05,0.074,0.154c0,0.108-0.074,0.716-0.155,1.011c-0.073,0.242-0.107,0.278-0.669,0.278
			c-0.751,0-1.333-0.011-1.824-0.036c-0.475-0.013-0.834-0.025-1.142-0.025c-0.048,0-0.225,0-0.43,0.013
			c-0.214,0.013-0.44,0.025-0.607,0.025c-0.106,0-0.166-0.025-0.166-0.083c0-0.034,0.023-0.079,0.083-0.079
			c0.096,0,0.226-0.026,0.319-0.062c0.206-0.042,0.229-0.23,0.274-0.527c0.063-0.417,0.063-1.217,0.063-2.192V9.411
			c0-1.576,0-1.86-0.024-2.183c-0.025-0.347-0.084-0.513-0.431-0.558c-0.084-0.013-0.261-0.025-0.356-0.025
			c-0.037,0-0.083-0.049-0.083-0.083c0-0.063,0.046-0.084,0.165-0.084c0.479,0,1.136,0.021,1.193,0.021
			c0.049,0,0.836-0.021,1.155-0.021c0.106,0,0.166,0.021,0.166,0.084c0,0.034-0.047,0.071-0.084,0.071
			c-0.069,0-0.226,0.012-0.344,0.024c-0.308,0.058-0.371,0.216-0.395,0.571c-0.009,0.323-0.009,0.607-0.009,2.183V11.219z"/>
		<path style="fill:#002D73;" d="M70.406,11.219c0,1.491,0.022,2.097,0.211,2.274c0.17,0.171,0.575,0.24,1.393,0.24
			c0.552,0,1.018-0.013,1.268-0.309c0.128-0.156,0.21-0.37,0.25-0.574c0.01-0.07,0.045-0.131,0.104-0.131
			c0.048,0,0.071,0.05,0.071,0.154c0,0.108-0.071,0.716-0.15,1.011c-0.076,0.242-0.111,0.278-0.67,0.278
			c-0.753,0-1.334-0.011-1.822-0.036c-0.475-0.013-0.837-0.025-1.142-0.025c-0.051,0-0.228,0-0.431,0.013
			c-0.213,0.013-0.439,0.025-0.607,0.025c-0.104,0-0.166-0.025-0.166-0.083c0-0.034,0.022-0.079,0.081-0.079
			c0.095,0,0.229-0.026,0.32-0.062c0.205-0.042,0.229-0.23,0.275-0.527c0.061-0.417,0.061-1.217,0.061-2.192V9.411
			c0-1.576,0-1.86-0.023-2.183c-0.022-0.347-0.084-0.513-0.43-0.558c-0.083-0.013-0.263-0.025-0.358-0.025
			c-0.034,0-0.082-0.049-0.082-0.083c0-0.063,0.047-0.084,0.167-0.084c0.476,0,1.131,0.021,1.193,0.021
			c0.045,0,0.833-0.021,1.153-0.021c0.108,0,0.166,0.021,0.166,0.084c0,0.034-0.047,0.071-0.082,0.071
			c-0.071,0-0.226,0.012-0.346,0.024c-0.31,0.058-0.368,0.216-0.392,0.571c-0.013,0.323-0.013,0.607-0.013,2.183V11.219z"/>
		<path style="fill:#002D73;" d="M76.779,11.195c0,0.978,0,1.775,0.044,2.192c0.037,0.296,0.075,0.484,0.383,0.527
			c0.153,0.036,0.382,0.062,0.478,0.062c0.055,0,0.083,0.045,0.083,0.079c0,0.046-0.05,0.083-0.168,0.083
			c-0.583,0-1.263-0.037-1.31-0.037c-0.061,0-0.716,0.037-1.039,0.037c-0.103,0-0.165-0.025-0.165-0.083
			c0-0.033,0.022-0.079,0.083-0.079c0.097,0,0.228-0.026,0.323-0.062c0.203-0.042,0.237-0.231,0.271-0.527
			c0.05-0.417,0.06-1.214,0.06-2.192V9.411c0-1.577,0-1.86-0.023-2.183c-0.022-0.347-0.105-0.5-0.334-0.547
			c-0.119-0.024-0.249-0.036-0.318-0.036c-0.049,0-0.085-0.049-0.085-0.083c0-0.063,0.045-0.084,0.168-0.084
			c0.342,0,0.997,0.021,1.059,0.021c0.047,0,0.727-0.021,1.049-0.021c0.118,0,0.166,0.021,0.166,0.084
			c0,0.034-0.049,0.083-0.085,0.083c-0.072,0-0.142,0-0.26,0.025c-0.287,0.058-0.347,0.202-0.37,0.558
			c-0.01,0.323-0.01,0.607-0.01,2.183V11.195z"/>
		<path style="fill:#002D73;" d="M80.635,9.411c0-1.577,0-1.86-0.025-2.183c-0.022-0.347-0.083-0.513-0.431-0.558
			c-0.082-0.013-0.261-0.025-0.356-0.025c-0.036,0-0.082-0.048-0.082-0.083c0-0.063,0.046-0.084,0.166-0.084
			c0.477,0,1.13,0.021,1.217,0.021c0.226,0,1.01-0.021,1.489-0.021c1.345,0,1.823,0.418,2,0.574c0.24,0.212,0.523,0.663,0.523,1.216
			c0,1.451-1.095,2.414-2.702,2.414c-0.06,0-0.239,0-0.301-0.01c-0.043,0-0.106-0.051-0.106-0.096c0-0.086,0.063-0.107,0.274-0.107
			c1.133,0,1.944-0.716,1.944-1.634c0-0.333-0.038-0.99-0.598-1.535c-0.549-0.551-1.178-0.49-1.416-0.49
			c-0.179,0-0.477,0.047-0.585,0.069c-0.058,0.015-0.083,0.086-0.083,0.193v4.121c0,0.976,0,1.775,0.049,2.192
			c0.035,0.297,0.094,0.484,0.416,0.527c0.142,0.036,0.37,0.062,0.464,0.062c0.059,0,0.084,0.045,0.084,0.079
			c0,0.045-0.048,0.083-0.167,0.083c-0.571,0-1.26-0.037-1.31-0.037c-0.034,0-0.714,0.037-1.034,0.037
			c-0.111,0-0.169-0.025-0.169-0.083c0-0.034,0.023-0.079,0.084-0.079c0.093,0,0.225-0.026,0.321-0.062
			c0.203-0.043,0.228-0.23,0.275-0.527c0.06-0.417,0.06-1.217,0.06-2.192V9.411z"/>
		<path style="fill:#002D73;" d="M89.846,11.222c0,0.978,0,1.775,0.047,2.192c0.038,0.296,0.084,0.485,0.406,0.527
			c0.143,0.036,0.379,0.062,0.478,0.062c0.07,0,0.083,0.045,0.083,0.079c0,0.046-0.047,0.083-0.167,0.083
			c-0.57,0-1.241-0.037-1.3-0.037c-0.046,0-0.773,0.037-1.083,0.037c-0.121,0-0.166-0.025-0.166-0.083
			c0-0.033,0.021-0.078,0.08-0.078c0.097,0,0.214-0.007,0.311-0.046c0.214-0.046,0.274-0.247,0.308-0.543
			c0.052-0.417,0.052-1.214,0.052-2.192V6.97L87.38,6.994c-0.658,0.01-0.906,0.085-1.059,0.32c-0.121,0.18-0.131,0.252-0.167,0.324
			c-0.024,0.082-0.061,0.093-0.111,0.093c-0.024,0-0.07-0.022-0.07-0.08c0-0.109,0.216-1.014,0.226-1.095
			c0.023-0.061,0.07-0.193,0.108-0.193c0.07,0,0.179,0.083,0.463,0.119c0.298,0.034,0.703,0.044,0.823,0.044h3.77
			c0.344,0,0.583-0.021,0.751-0.044c0.155-0.021,0.251-0.047,0.296-0.047c0.045,0,0.045,0.06,0.045,0.121
			c0,0.306-0.034,1.035-0.034,1.153c0,0.081-0.046,0.131-0.096,0.131c-0.046,0-0.07-0.037-0.079-0.178L92.23,7.554
			c-0.033-0.31-0.261-0.536-1.262-0.56L89.846,6.97V11.222z"/>
		<path style="fill:#002D73;" d="M95.625,6.708c0.131-0.336,0.18-0.394,0.248-0.394c0.108,0,0.145,0.147,0.253,0.37
			c0.19,0.429,1.866,4.613,2.513,6.147c0.38,0.906,0.668,1.034,0.895,1.11c0.154,0.056,0.308,0.062,0.414,0.062
			c0.061,0,0.134,0.019,0.134,0.079c0,0.058-0.121,0.083-0.24,0.083c-0.154,0-0.93,0-1.656-0.025
			c-0.202-0.013-0.37-0.013-0.37-0.071c0-0.047,0.022-0.047,0.072-0.065c0.057-0.026,0.167-0.115,0.096-0.279l-0.941-2.322
			c-0.023-0.05-0.035-0.058-0.099-0.058h-2.416c-0.047,0-0.082,0.02-0.105,0.082l-0.597,1.621c-0.094,0.248-0.152,0.499-0.152,0.677
			c0,0.205,0.178,0.279,0.358,0.279h0.092c0.085,0,0.111,0.036,0.111,0.079c0,0.058-0.061,0.083-0.158,0.083
			c-0.25,0-0.822-0.037-0.941-0.037c-0.106,0-0.631,0.037-1.06,0.037c-0.129,0-0.201-0.025-0.201-0.083
			c0-0.043,0.046-0.079,0.096-0.079c0.071,0,0.225-0.006,0.31-0.026c0.475-0.066,0.677-0.421,0.882-0.93L95.625,6.708z
			 M96.793,10.925c0.045,0,0.045-0.025,0.036-0.071l-1.037-2.771c-0.059-0.161-0.119-0.161-0.178,0l-0.98,2.771
			c-0.009,0.046,0,0.071,0.039,0.071H96.793z"/>
		<g>
			<path style="fill:#002D73;" d="M100.572,6.143c0.987,0,1.814,0.779,1.814,1.8c0,1.04-0.827,1.819-1.814,1.819
				c-0.991,0-1.824-0.779-1.824-1.819C98.748,6.922,99.581,6.143,100.572,6.143z M100.572,9.495c0.837,0,1.485-0.668,1.485-1.553
				c0-0.866-0.648-1.533-1.485-1.533c-0.846,0-1.495,0.667-1.495,1.533C99.077,8.828,99.726,9.495,100.572,9.495z M99.866,6.893
				h0.817c0.503,0,0.74,0.198,0.74,0.605c0,0.382-0.242,0.542-0.556,0.576l0.605,0.933h-0.353l-0.575-0.909h-0.348v0.909h-0.329
				V6.893z M100.195,7.831h0.343c0.29,0,0.556-0.015,0.556-0.348c0-0.281-0.242-0.324-0.465-0.324h-0.435V7.831z"/>
		</g>
		<g>
			<path style="fill:#002D73;" d="M51.897,2.215c0.987,0,1.814,0.779,1.814,1.8c0,1.04-0.827,1.819-1.814,1.819
				c-0.991,0-1.824-0.779-1.824-1.819C50.073,2.994,50.905,2.215,51.897,2.215z M51.897,5.567c0.837,0,1.485-0.668,1.485-1.553
				c0-0.866-0.648-1.533-1.485-1.533c-0.846,0-1.495,0.667-1.495,1.533C50.402,4.9,51.05,5.567,51.897,5.567z M51.191,2.965h0.817
				c0.503,0,0.74,0.198,0.74,0.605c0,0.382-0.242,0.542-0.556,0.576l0.605,0.933h-0.353l-0.575-0.909h-0.348v0.909h-0.329V2.965z
				 M51.519,3.903h0.343c0.29,0,0.556-0.015,0.556-0.348c0-0.281-0.242-0.324-0.465-0.324h-0.435V3.903z"/>
		</g>
	</g>
</g>
<g>
</g>
<g>
</g>
<g>
</g>
<g>
</g>
<g>
</g>
<g>
</g>
<g>
</g>
<g>
</g>
<g>
</g>
<g>
</g>
<g>
</g>
<g>
</g>
<g>
</g>
<g>
</g>
<g>
</g>
<g>
</g>
</svg>
