<?xml version="1.0" encoding="iso-8859-1"?>
<!-- Generator: Adobe Illustrator 19.1.0, SVG Export Plug-In . SVG Version: 6.00 Build 0)  -->
<svg version="1.1" xmlns="http://www.w3.org/2000/svg" xmlns:xlink="http://www.w3.org/1999/xlink" x="0px" y="0px"
	 viewBox="0 0 292.918 306.589" style="enable-background:new 0 0 292.918 306.589;" xml:space="preserve">
<symbol  id="_x31_60_x5F_border" viewBox="-16383 -16383 32766 32766">
	<polygon style="display:none;fill:none;" points="16383,-16383 -16383,-16383 -16383,16383 16383,16383 	"/>
</symbol>
<g id="A1">
	<g id="Layer_2">
		
			<use xlink:href="#_x31_60_x5F_border"  width="32766" height="32766" id="XMLID_1_" x="-16383" y="-16383" transform="matrix(1.8634 0 0 -0.416 -1158.5652 -757.7324)" style="overflow:visible;"/>
	</g>
</g>
<g id="A2">
	<g id="Layer_2_copy">
		
			<use xlink:href="#_x31_60_x5F_border"  width="32766" height="32766" id="XMLID_2_" x="-16383" y="-16383" transform="matrix(1.8634 0 0 -0.416 -1158.5652 -757.7324)" style="overflow:visible;"/>
	</g>
</g>
<g id="A3">
	<defs>
		<rect id="SVGID_2026_" x="-631" y="-878.524" width="300" height="250"/>
	</defs>
	<clipPath id="SVGID_4_">
		<use xlink:href="#SVGID_2026_"  style="overflow:visible;"/>
	</clipPath>
	<g id="Layer_2_copy_2" style="clip-path:url(#SVGID_4_);">
		
			<use xlink:href="#_x31_60_x5F_border"  width="32766" height="32766" id="XMLID_3_" x="-16383" y="-16383" transform="matrix(1.8634 0 0 -0.416 -1158.5652 -757.7324)" style="overflow:visible;"/>
	</g>
</g>
<g id="A4">
	<defs>
		<rect id="SVGID_2028_" x="-291" y="-879.524" width="300" height="250"/>
	</defs>
	<clipPath id="SVGID_5_">
		<use xlink:href="#SVGID_2028_"  style="overflow:visible;"/>
	</clipPath>
	<g id="Layer_2_copy_3" style="clip-path:url(#SVGID_5_);">
		
			<use xlink:href="#_x31_60_x5F_border"  width="32766" height="32766" id="XMLID_4_" x="-16383" y="-16383" transform="matrix(1.8634 0 0 -0.416 -1158.5652 -757.7324)" style="overflow:visible;"/>
	</g>
</g>
<g id="A5">
</g>
<g id="A6">
	<g>
		<path style="fill:#002D73;" d="M36.264,9.96V8.557c0.78-0.755,3.622-3.13,3.622-4.665c0-0.768-0.684-1.127-1.367-1.127
			c-0.707,0-1.379,0.311-1.931,0.671l-0.132-1.392c0.756-0.383,1.631-0.6,2.482-0.6c1.595,0,2.627,0.804,2.627,2.447
			c0,1.775-1.787,3.406-3.154,4.749h3.418V9.96H36.264z"/>
		<path style="fill:#002D73;" d="M42.636,6.866l3.131-5.277h2.087v5.385h1.067v1.247h-1.067V9.96h-1.607V8.221h-3.61V6.866z
			 M46.246,6.974V3.339h-0.024l-2.074,3.635H46.246z"/>
		<path style="fill:#002D73;" d="M49.536,7.394V6.074h3.154v1.319H49.536z"/>
		<path style="fill:#002D73;" d="M53.939,0.965h1.607v3.658h0.023c0.408-0.6,1.104-0.983,1.943-0.983
			c1.463,0,2.099,1.031,2.099,2.422V9.96h-1.606V6.661c0-0.755-0.013-1.774-1.044-1.774c-1.163,0-1.415,1.259-1.415,2.051V9.96
			h-1.607V0.965z"/>
		<path style="fill:#002D73;" d="M64.103,3.64c1.835,0,3.237,1.234,3.237,3.273c0,1.775-1.187,3.191-3.237,3.191
			c-2.039,0-3.227-1.416-3.227-3.191C60.876,4.874,62.279,3.64,64.103,3.64z M64.103,8.856c1.235,0,1.559-1.104,1.559-2.135
			c0-0.947-0.504-1.835-1.559-1.835c-1.044,0-1.548,0.911-1.548,1.835C62.555,7.741,62.879,8.856,64.103,8.856z"/>
		<path style="fill:#002D73;" d="M74.276,9.96h-1.523V9.12h-0.023c-0.492,0.6-1.188,0.984-2.027,0.984
			c-1.463,0-2.099-1.032-2.099-2.424V3.783h1.607v3.298c0,0.756,0.012,1.775,1.043,1.775c1.164,0,1.416-1.26,1.416-2.051V3.783
			h1.606V9.96z"/>
		<path style="fill:#002D73;" d="M75.972,3.783h1.427v1.403h0.024c0.072-0.576,0.731-1.547,1.691-1.547c0.155,0,0.323,0,0.491,0.048
			v1.619c-0.144-0.084-0.432-0.132-0.72-0.132c-1.307,0-1.307,1.631-1.307,2.519V9.96h-1.607V3.783z"/>
		<path style="fill:#002D73;" d="M84.084,1.589h2.926c1.079,0,2.698,0.312,2.698,2.146c0,0.996-0.671,1.691-1.667,1.871V5.63
			c1.14,0.108,1.919,0.876,1.919,1.907c0,2.11-1.895,2.423-2.95,2.423h-2.926V1.589z M85.763,4.971h0.684
			c0.708,0,1.583-0.155,1.583-1.02c0-0.972-0.852-1.044-1.619-1.044h-0.647V4.971z M85.763,8.641h0.791
			c0.78,0,1.728-0.192,1.728-1.163c0-1.092-0.888-1.26-1.728-1.26h-0.791V8.641z"/>
		<path style="fill:#002D73;" d="M91.271,1.589h1.812c1.799,0,3.945-0.061,3.945,2.267c0,0.983-0.659,1.799-1.727,1.942v0.024
			c0.455,0.036,0.72,0.491,0.887,0.863l1.344,3.274h-1.871l-1.008-2.615c-0.239-0.623-0.455-0.863-1.163-0.863h-0.539V9.96h-1.68
			V1.589z M92.951,5.163h0.551c0.828,0,1.775-0.121,1.775-1.164c0-1.008-0.936-1.092-1.775-1.092h-0.551V5.163z"/>
		<path style="fill:#002D73;" d="M98.748,1.589h4.94v1.318h-3.262v2.063h2.986V6.29h-2.986v2.351h3.286V9.96h-4.965V1.589z"/>
		<path style="fill:#002D73;" d="M109.113,1.444c2.627,0,4.102,1.775,4.102,4.307c0,2.529-1.451,4.354-4.102,4.354
			c-2.687,0-4.102-1.787-4.102-4.354C105.012,3.184,106.451,1.444,109.113,1.444z M109.113,8.784c1.715,0,2.351-1.523,2.351-3.033
			c0-1.477-0.684-2.986-2.351-2.986s-2.351,1.51-2.351,2.986C106.763,7.261,107.398,8.784,109.113,8.784z"/>
		<path style="fill:#002D73;" d="M117.983,1.12h1.607v1.535h-1.607V1.12z M117.983,3.783h1.607V9.96h-1.607V3.783z"/>
		<path style="fill:#002D73;" d="M124.953,5.079c-0.491-0.168-0.852-0.264-1.439-0.264c-0.432,0-0.947,0.155-0.947,0.684
			c0,0.982,2.795,0.359,2.795,2.59c0,1.439-1.283,2.016-2.591,2.016c-0.611,0-1.235-0.108-1.823-0.265l0.097-1.319
			c0.503,0.252,1.031,0.408,1.583,0.408c0.407,0,1.055-0.156,1.055-0.756c0-1.211-2.794-0.384-2.794-2.614
			c0-1.331,1.163-1.919,2.423-1.919c0.755,0,1.247,0.119,1.751,0.228L124.953,5.079z"/>
		<path style="fill:#002D73;" d="M130.534,4.958h-1.187V3.783h1.187V2.92c0-1.235,0.696-2.099,1.968-2.099
			c0.407,0,0.863,0.06,1.175,0.132l-0.132,1.331c-0.144-0.084-0.348-0.216-0.695-0.216c-0.54,0-0.708,0.468-0.708,0.947v0.768h1.403
			v1.175h-1.403V9.96h-1.607V4.958z"/>
		<path style="fill:#002D73;" d="M137.445,3.64c1.835,0,3.238,1.234,3.238,3.273c0,1.775-1.188,3.191-3.238,3.191
			c-2.039,0-3.227-1.416-3.227-3.191C134.219,4.874,135.622,3.64,137.445,3.64z M137.445,8.856c1.235,0,1.56-1.104,1.56-2.135
			c0-0.947-0.504-1.835-1.56-1.835c-1.043,0-1.547,0.911-1.547,1.835C135.898,7.741,136.222,8.856,137.445,8.856z"/>
		<path style="fill:#002D73;" d="M141.983,3.783h1.427v1.403h0.024c0.071-0.576,0.731-1.547,1.69-1.547c0.156,0,0.324,0,0.492,0.048
			v1.619c-0.145-0.084-0.432-0.132-0.72-0.132c-1.308,0-1.308,1.631-1.308,2.519V9.96h-1.606V3.783z"/>
		<path style="fill:#002D73;" d="M150.227,4.106c0.624-0.287,1.463-0.467,2.146-0.467c1.884,0,2.663,0.779,2.663,2.603v0.792
			c0,0.623,0.012,1.091,0.023,1.547c0.013,0.467,0.036,0.898,0.072,1.379h-1.415c-0.06-0.324-0.06-0.731-0.072-0.924h-0.023
			c-0.372,0.684-1.176,1.068-1.907,1.068c-1.092,0-2.159-0.66-2.159-1.836c0-0.924,0.444-1.463,1.056-1.763s1.403-0.36,2.075-0.36
			h0.888c0-0.995-0.444-1.33-1.392-1.33c-0.684,0-1.367,0.264-1.907,0.671L150.227,4.106z M152.109,8.929
			c0.492,0,0.876-0.217,1.128-0.552c0.264-0.349,0.336-0.792,0.336-1.271h-0.696c-0.72,0-1.787,0.12-1.787,1.067
			C151.09,8.7,151.534,8.929,152.109,8.929z"/>
		<path style="fill:#002D73;" d="M160.736,9.265h-0.023c-0.48,0.6-1.14,0.84-1.896,0.84c-1.895,0-2.591-1.56-2.591-3.251
			c0-1.703,0.696-3.214,2.591-3.214c0.804,0,1.367,0.275,1.847,0.863h0.024V0.965h1.607V9.96h-1.56V9.265z M159.262,8.856
			c1.067,0,1.415-1.127,1.415-2.003c0-0.863-0.408-1.967-1.439-1.967c-1.043,0-1.331,1.14-1.331,1.967
			C157.906,7.705,158.206,8.856,159.262,8.856z"/>
		<path style="fill:#002D73;" d="M169.628,9.96h-1.523V9.12h-0.024c-0.491,0.6-1.187,0.984-2.026,0.984
			c-1.463,0-2.099-1.032-2.099-2.424V3.783h1.606v3.298c0,0.756,0.013,1.775,1.044,1.775c1.163,0,1.415-1.26,1.415-2.051V3.783
			h1.607V9.96z"/>
		<path style="fill:#002D73;" d="M171.323,0.965h1.606V9.96h-1.606V0.965z"/>
		<path style="fill:#002D73;" d="M175.15,4.958h-1.188V3.783h1.188V2.548l1.607-0.516v1.751h1.427v1.175h-1.427v2.879
			c0,0.527,0.144,1.02,0.755,1.02c0.288,0,0.564-0.061,0.732-0.168l0.048,1.271c-0.336,0.096-0.708,0.145-1.188,0.145
			c-1.26,0-1.955-0.78-1.955-2.004V4.958z"/>
		<path style="fill:#002D73;" d="M182.627,3.783h1.535v0.876h0.023c0.36-0.6,0.972-1.02,1.919-1.02c1.896,0,2.591,1.511,2.591,3.214
			c0,1.691-0.695,3.251-2.627,3.251c-0.684,0-1.247-0.168-1.811-0.852h-0.024v3.226h-1.606V3.783z M184.246,6.854
			c0,0.876,0.348,2.003,1.415,2.003c1.056,0,1.355-1.151,1.355-2.003c0-0.827-0.288-1.967-1.332-1.967
			C184.653,4.887,184.246,5.99,184.246,6.854z"/>
		<path style="fill:#002D73;" d="M190.234,4.106c0.624-0.287,1.463-0.467,2.146-0.467c1.884,0,2.663,0.779,2.663,2.603v0.792
			c0,0.623,0.012,1.091,0.023,1.547c0.013,0.467,0.036,0.898,0.072,1.379h-1.415c-0.06-0.324-0.06-0.731-0.072-0.924h-0.023
			c-0.372,0.684-1.176,1.068-1.907,1.068c-1.092,0-2.159-0.66-2.159-1.836c0-0.924,0.444-1.463,1.056-1.763s1.403-0.36,2.075-0.36
			h0.888c0-0.995-0.444-1.33-1.392-1.33c-0.684,0-1.367,0.264-1.907,0.671L190.234,4.106z M192.117,8.929
			c0.492,0,0.876-0.217,1.128-0.552c0.264-0.349,0.336-0.792,0.336-1.271h-0.696c-0.72,0-1.787,0.12-1.787,1.067
			C191.098,8.7,191.542,8.929,192.117,8.929z"/>
		<path style="fill:#002D73;" d="M197.158,4.958h-1.188V3.783h1.188V2.548l1.607-0.516v1.751h1.427v1.175h-1.427v2.879
			c0,0.527,0.144,1.02,0.755,1.02c0.288,0,0.564-0.061,0.732-0.168l0.048,1.271c-0.336,0.096-0.708,0.145-1.188,0.145
			c-1.26,0-1.955-0.78-1.955-2.004V4.958z"/>
		<path style="fill:#002D73;" d="M201.335,1.12h1.606v1.535h-1.606V1.12z M201.335,3.783h1.606V9.96h-1.606V3.783z"/>
		<path style="fill:#002D73;" d="M209.588,9.612c-0.588,0.324-1.26,0.492-2.123,0.492c-2.039,0-3.227-1.176-3.227-3.203
			c0-1.787,0.948-3.262,2.867-3.262c2.29,0,2.938,1.57,2.938,3.73h-4.271c0.072,0.994,0.768,1.559,1.764,1.559
			c0.779,0,1.451-0.288,2.051-0.624V9.612z M208.509,6.267c-0.049-0.78-0.408-1.451-1.308-1.451s-1.355,0.623-1.428,1.451H208.509z"
			/>
		<path style="fill:#002D73;" d="M211.307,3.783h1.522v0.84h0.024c0.504-0.708,1.188-0.983,2.026-0.983c1.464,0,2.1,1.031,2.1,2.422
			V9.96h-1.607V6.661c0-0.755-0.012-1.774-1.043-1.774c-1.164,0-1.416,1.259-1.416,2.051V9.96h-1.606V3.783z"/>
		<path style="fill:#002D73;" d="M219.166,4.958h-1.188V3.783h1.188V2.548l1.607-0.516v1.751h1.427v1.175h-1.427v2.879
			c0,0.527,0.144,1.02,0.755,1.02c0.288,0,0.564-0.061,0.732-0.168l0.048,1.271c-0.336,0.096-0.708,0.145-1.188,0.145
			c-1.26,0-1.955-0.78-1.955-2.004V4.958z"/>
		<path style="fill:#002D73;" d="M226.977,5.079c-0.492-0.168-0.852-0.264-1.439-0.264c-0.432,0-0.947,0.155-0.947,0.684
			c0,0.982,2.794,0.359,2.794,2.59c0,1.439-1.283,2.016-2.59,2.016c-0.612,0-1.235-0.108-1.823-0.265l0.096-1.319
			c0.504,0.252,1.031,0.408,1.583,0.408c0.408,0,1.056-0.156,1.056-0.756c0-1.211-2.795-0.384-2.795-2.614
			c0-1.331,1.164-1.919,2.423-1.919c0.756,0,1.247,0.119,1.751,0.228L226.977,5.079z"/>
		<path style="fill:#002D73;" d="M231.274,3.783h1.703l1.367,4.569h0.023l1.248-4.569h1.871l1.343,4.569h0.024l1.283-4.569h1.535
			l-1.896,6.177h-1.895l-1.344-4.713h-0.023l-1.319,4.713h-1.835L231.274,3.783z"/>
		<path style="fill:#002D73;" d="M242.674,1.12h1.607v1.535h-1.607V1.12z M242.674,3.783h1.607V9.96h-1.607V3.783z"/>
		<path style="fill:#002D73;" d="M246.502,4.958h-1.188V3.783h1.188V2.548l1.606-0.516v1.751h1.428v1.175h-1.428v2.879
			c0,0.527,0.145,1.02,0.756,1.02c0.288,0,0.563-0.061,0.731-0.168l0.048,1.271c-0.336,0.096-0.707,0.145-1.188,0.145
			c-1.259,0-1.954-0.78-1.954-2.004V4.958z"/>
		<path style="fill:#002D73;" d="M250.642,0.965h1.607v3.658h0.023c0.408-0.6,1.104-0.983,1.943-0.983
			c1.463,0,2.099,1.031,2.099,2.422V9.96h-1.606V6.661c0-0.755-0.013-1.774-1.044-1.774c-1.163,0-1.415,1.259-1.415,2.051V9.96
			h-1.607V0.965z"/>
		<path style="fill:#002D73;" d="M33.216,18.106c0.624-0.287,1.463-0.467,2.146-0.467c1.884,0,2.663,0.779,2.663,2.603v0.792
			c0,0.623,0.012,1.091,0.023,1.547c0.013,0.467,0.036,0.898,0.072,1.379h-1.415c-0.06-0.324-0.06-0.731-0.072-0.924H36.61
			c-0.372,0.684-1.176,1.068-1.907,1.068c-1.092,0-2.159-0.66-2.159-1.836c0-0.924,0.444-1.463,1.056-1.763s1.403-0.36,2.075-0.36
			h0.888c0-0.995-0.444-1.33-1.392-1.33c-0.684,0-1.367,0.264-1.907,0.671L33.216,18.106z M35.099,22.929
			c0.492,0,0.876-0.217,1.128-0.552c0.264-0.349,0.336-0.792,0.336-1.271h-0.696c-0.72,0-1.787,0.12-1.787,1.067
			C34.079,22.7,34.523,22.929,35.099,22.929z"/>
		<path style="fill:#002D73;" d="M43.282,19.079c-0.492-0.168-0.852-0.264-1.439-0.264c-0.432,0-0.947,0.155-0.947,0.684
			c0,0.982,2.794,0.359,2.794,2.59c0,1.439-1.283,2.016-2.59,2.016c-0.612,0-1.235-0.108-1.823-0.265l0.096-1.319
			c0.504,0.252,1.031,0.408,1.583,0.408c0.408,0,1.056-0.156,1.056-0.756c0-1.211-2.795-0.384-2.795-2.614
			c0-1.331,1.164-1.919,2.423-1.919c0.756,0,1.247,0.119,1.751,0.228L43.282,19.079z"/>
		<path style="fill:#002D73;" d="M45.468,18.958H44.28v-1.175h1.188v-1.235l1.606-0.516v1.751h1.428v1.175h-1.428v2.879
			c0,0.527,0.145,1.02,0.756,1.02c0.288,0,0.563-0.061,0.731-0.168l0.048,1.271c-0.336,0.096-0.707,0.145-1.188,0.145
			c-1.259,0-1.954-0.78-1.954-2.004V18.958z"/>
		<path style="fill:#002D73;" d="M49.607,14.965h1.607v3.658h0.023c0.408-0.6,1.104-0.983,1.943-0.983
			c1.463,0,2.099,1.031,2.099,2.422v3.898h-1.606v-3.299c0-0.755-0.013-1.774-1.044-1.774c-1.163,0-1.415,1.259-1.415,2.051v3.022
			h-1.607V14.965z"/>
		<path style="fill:#002D73;" d="M56.916,17.783h1.499v0.864h0.023c0.504-0.756,1.235-1.008,1.835-1.008
			c0.864,0,1.476,0.324,1.823,1.092c0.372-0.744,1.176-1.092,1.931-1.092c1.523,0,1.955,1.043,1.955,2.422v3.898h-1.606v-3.682
			c0-0.576,0-1.392-0.924-1.392c-1.067,0-1.199,1.271-1.199,2.075v2.998h-1.607v-3.682c0-0.576,0-1.392-0.924-1.392
			c-1.067,0-1.199,1.271-1.199,2.075v2.998h-1.606V17.783z"/>
		<path style="fill:#002D73;" d="M67.884,18.106c0.623-0.287,1.463-0.467,2.146-0.467c1.883,0,2.662,0.779,2.662,2.603v0.792
			c0,0.623,0.013,1.091,0.024,1.547c0.012,0.467,0.036,0.898,0.072,1.379h-1.416c-0.06-0.324-0.06-0.731-0.071-0.924h-0.024
			c-0.371,0.684-1.175,1.068-1.906,1.068c-1.092,0-2.159-0.66-2.159-1.836c0-0.924,0.443-1.463,1.056-1.763
			c0.611-0.3,1.403-0.36,2.074-0.36h0.888c0-0.995-0.443-1.33-1.392-1.33c-0.684,0-1.367,0.264-1.906,0.671L67.884,18.106z
			 M69.767,22.929c0.491,0,0.875-0.217,1.127-0.552c0.264-0.349,0.336-0.792,0.336-1.271h-0.695c-0.72,0-1.787,0.12-1.787,1.067
			C68.747,22.7,69.19,22.929,69.767,22.929z"/>
		<path style="fill:#002D73;" d="M83.288,23.96h-1.523v-0.84h-0.023c-0.492,0.6-1.188,0.984-2.027,0.984
			c-1.463,0-2.099-1.032-2.099-2.424v-3.897h1.607v3.298c0,0.756,0.012,1.775,1.043,1.775c1.164,0,1.416-1.26,1.416-2.051v-3.022
			h1.606V23.96z"/>
		<path style="fill:#002D73;" d="M84.947,17.783h1.523v0.84h0.023c0.504-0.708,1.188-0.983,2.027-0.983
			c1.463,0,2.099,1.031,2.099,2.422v3.898h-1.606v-3.299c0-0.755-0.013-1.774-1.044-1.774c-1.163,0-1.415,1.259-1.415,2.051v3.022
			h-1.607V17.783z"/>
		<path style="fill:#002D73;" d="M96.285,19.114c-0.288-0.131-0.6-0.228-1.091-0.228c-0.996,0-1.632,0.792-1.632,1.955
			c0,1.14,0.54,2.015,1.667,2.015c0.456,0,0.96-0.168,1.235-0.287l0.072,1.33c-0.468,0.145-0.947,0.205-1.607,0.205
			c-2.026,0-3.046-1.38-3.046-3.263c0-1.787,1.056-3.202,2.986-3.202c0.647,0,1.115,0.072,1.559,0.203L96.285,19.114z"/>
		<path style="fill:#002D73;" d="M100.438,17.64c1.835,0,3.238,1.234,3.238,3.273c0,1.775-1.188,3.191-3.238,3.191
			c-2.039,0-3.227-1.416-3.227-3.191C97.211,18.874,98.614,17.64,100.438,17.64z M100.438,22.856c1.235,0,1.56-1.104,1.56-2.135
			c0-0.947-0.504-1.835-1.56-1.835c-1.043,0-1.547,0.911-1.547,1.835C98.891,21.741,99.214,22.856,100.438,22.856z"/>
		<path style="fill:#002D73;" d="M104.939,17.783h1.522v0.84h0.024c0.504-0.708,1.188-0.983,2.026-0.983
			c1.464,0,2.1,1.031,2.1,2.422v3.898h-1.607v-3.299c0-0.755-0.012-1.774-1.043-1.774c-1.164,0-1.416,1.259-1.416,2.051v3.022
			h-1.606V17.783z"/>
		<path style="fill:#002D73;" d="M112.799,18.958h-1.188v-1.175h1.188v-1.235l1.607-0.516v1.751h1.427v1.175h-1.427v2.879
			c0,0.527,0.144,1.02,0.755,1.02c0.288,0,0.564-0.061,0.732-0.168l0.048,1.271c-0.336,0.096-0.708,0.145-1.188,0.145
			c-1.26,0-1.955-0.78-1.955-2.004V18.958z"/>
		<path style="fill:#002D73;" d="M116.976,17.783h1.427v1.403h0.024c0.071-0.576,0.731-1.547,1.69-1.547
			c0.156,0,0.324,0,0.492,0.048v1.619c-0.145-0.084-0.432-0.132-0.72-0.132c-1.308,0-1.308,1.631-1.308,2.519v2.267h-1.606V17.783z"
			/>
		<path style="fill:#002D73;" d="M124.438,17.64c1.835,0,3.238,1.234,3.238,3.273c0,1.775-1.188,3.191-3.238,3.191
			c-2.039,0-3.227-1.416-3.227-3.191C121.211,18.874,122.614,17.64,124.438,17.64z M124.438,22.856c1.235,0,1.56-1.104,1.56-2.135
			c0-0.947-0.504-1.835-1.56-1.835c-1.043,0-1.547,0.911-1.547,1.835C122.891,21.741,123.214,22.856,124.438,22.856z"/>
		<path style="fill:#002D73;" d="M128.976,14.965h1.606v8.995h-1.606V14.965z"/>
		<path style="fill:#002D73;" d="M132.312,14.965h1.606v8.995h-1.606V14.965z"/>
		<path style="fill:#002D73;" d="M140.564,23.612c-0.588,0.324-1.26,0.492-2.123,0.492c-2.039,0-3.227-1.176-3.227-3.203
			c0-1.787,0.948-3.262,2.867-3.262c2.29,0,2.938,1.57,2.938,3.73h-4.271c0.072,0.994,0.768,1.559,1.764,1.559
			c0.779,0,1.451-0.288,2.051-0.624V23.612z M139.485,20.267c-0.049-0.78-0.408-1.451-1.308-1.451s-1.355,0.623-1.428,1.451H139.485
			z"/>
		<path style="fill:#002D73;" d="M146.396,23.265h-0.023c-0.48,0.6-1.14,0.84-1.896,0.84c-1.895,0-2.591-1.56-2.591-3.251
			c0-1.703,0.696-3.214,2.591-3.214c0.804,0,1.367,0.275,1.847,0.863h0.024v-3.538h1.607v8.995h-1.56V23.265z M144.922,22.856
			c1.067,0,1.415-1.127,1.415-2.003c0-0.863-0.408-1.967-1.439-1.967c-1.043,0-1.331,1.14-1.331,1.967
			C143.566,21.705,143.866,22.856,144.922,22.856z"/>
		<path style="fill:#002D73;" d="M155.781,17.64c1.835,0,3.238,1.234,3.238,3.273c0,1.775-1.188,3.191-3.238,3.191
			c-2.039,0-3.227-1.416-3.227-3.191C152.555,18.874,153.958,17.64,155.781,17.64z M155.781,22.856c1.235,0,1.56-1.104,1.56-2.135
			c0-0.947-0.504-1.835-1.56-1.835c-1.043,0-1.547,0.911-1.547,1.835C154.234,21.741,154.558,22.856,155.781,22.856z"/>
		<path style="fill:#002D73;" d="M160.283,17.783h1.522v0.84h0.024c0.504-0.708,1.188-0.983,2.026-0.983
			c1.464,0,2.1,1.031,2.1,2.422v3.898h-1.607v-3.299c0-0.755-0.012-1.774-1.043-1.774c-1.164,0-1.416,1.259-1.416,2.051v3.022
			h-1.606V17.783z"/>
		<path style="fill:#002D73;" d="M171.227,18.106c0.624-0.287,1.463-0.467,2.146-0.467c1.884,0,2.663,0.779,2.663,2.603v0.792
			c0,0.623,0.012,1.091,0.023,1.547c0.013,0.467,0.036,0.898,0.072,1.379h-1.415c-0.06-0.324-0.06-0.731-0.072-0.924h-0.023
			c-0.372,0.684-1.176,1.068-1.907,1.068c-1.092,0-2.159-0.66-2.159-1.836c0-0.924,0.444-1.463,1.056-1.763s1.403-0.36,2.075-0.36
			h0.888c0-0.995-0.444-1.33-1.392-1.33c-0.684,0-1.367,0.264-1.907,0.671L171.227,18.106z M173.109,22.929
			c0.492,0,0.876-0.217,1.128-0.552c0.264-0.349,0.336-0.792,0.336-1.271h-0.696c-0.72,0-1.787,0.12-1.787,1.067
			C172.09,22.7,172.534,22.929,173.109,22.929z"/>
		<path style="fill:#002D73;" d="M177.623,17.783h1.522v0.84h0.024c0.504-0.708,1.188-0.983,2.026-0.983
			c1.464,0,2.1,1.031,2.1,2.422v3.898h-1.607v-3.299c0-0.755-0.012-1.774-1.043-1.774c-1.164,0-1.416,1.259-1.416,2.051v3.022
			h-1.606V17.783z"/>
		<path style="fill:#002D73;" d="M188.291,15.589h1.679v8.371h-1.679V15.589z"/>
		<path style="fill:#002D73;" d="M197.863,23.84c-0.611,0.144-1.271,0.265-1.907,0.265c-2.71,0-4.594-1.355-4.594-4.187
			c0-2.866,1.752-4.474,4.594-4.474c0.552,0,1.283,0.108,1.896,0.348l-0.12,1.416c-0.636-0.36-1.212-0.443-1.812-0.443
			c-1.727,0-2.806,1.318-2.806,3.033c0,1.703,1.055,2.986,2.842,2.986c0.66,0,1.439-0.144,1.835-0.348L197.863,23.84z"/>
		<path style="fill:#002D73;" d="M203.601,17.124c-0.528-0.229-1.116-0.359-1.703-0.359c-0.576,0-1.319,0.251-1.319,1.162
			c0,1.451,3.67,0.84,3.67,3.646c0,1.835-1.451,2.531-3.143,2.531c-0.911,0-1.319-0.121-2.146-0.324l0.155-1.512
			c0.576,0.312,1.235,0.516,1.896,0.516c0.636,0,1.487-0.323,1.487-1.079c0-1.595-3.67-0.936-3.67-3.706
			c0-1.871,1.451-2.555,2.926-2.555c0.72,0,1.392,0.096,2.003,0.301L203.601,17.124z"/>
		<path style="fill:#002D73;" d="M211.797,17.64c1.835,0,3.238,1.234,3.238,3.273c0,1.775-1.188,3.191-3.238,3.191
			c-2.039,0-3.227-1.416-3.227-3.191C208.57,18.874,209.974,17.64,211.797,17.64z M211.797,22.856c1.235,0,1.56-1.104,1.56-2.135
			c0-0.947-0.504-1.835-1.56-1.835c-1.043,0-1.547,0.911-1.547,1.835C210.25,21.741,210.573,22.856,211.797,22.856z"/>
		<path style="fill:#002D73;" d="M216.335,17.783h1.427v1.403h0.024c0.071-0.576,0.731-1.547,1.69-1.547
			c0.156,0,0.324,0,0.492,0.048v1.619c-0.145-0.084-0.432-0.132-0.72-0.132c-1.308,0-1.308,1.631-1.308,2.519v2.267h-1.606V17.783z"
			/>
		<path style="fill:#002D73;" d="M223.606,17.783h1.703l1.367,4.569h0.024l1.247-4.569h1.871l1.344,4.569h0.023l1.283-4.569h1.535
			l-1.895,6.177h-1.896l-1.343-4.713h-0.024l-1.319,4.713h-1.835L223.606,17.783z"/>
		<path style="fill:#002D73;" d="M234.971,14.965h1.606v3.658h0.024c0.407-0.6,1.104-0.983,1.942-0.983c1.464,0,2.1,1.031,2.1,2.422
			v3.898h-1.607v-3.299c0-0.755-0.012-1.774-1.043-1.774c-1.164,0-1.416,1.259-1.416,2.051v3.022h-1.606V14.965z"/>
		<path style="fill:#002D73;" d="M245.133,17.64c1.835,0,3.238,1.234,3.238,3.273c0,1.775-1.188,3.191-3.238,3.191
			c-2.039,0-3.227-1.416-3.227-3.191C241.906,18.874,243.31,17.64,245.133,17.64z M245.133,22.856c1.235,0,1.56-1.104,1.56-2.135
			c0-0.947-0.504-1.835-1.56-1.835c-1.043,0-1.547,0.911-1.547,1.835C243.586,21.741,243.909,22.856,245.133,22.856z"/>
		<path style="fill:#002D73;" d="M253.305,19.079c-0.492-0.168-0.852-0.264-1.439-0.264c-0.432,0-0.947,0.155-0.947,0.684
			c0,0.982,2.794,0.359,2.794,2.59c0,1.439-1.283,2.016-2.59,2.016c-0.612,0-1.235-0.108-1.823-0.265l0.096-1.319
			c0.504,0.252,1.031,0.408,1.583,0.408c0.408,0,1.056-0.156,1.056-0.756c0-1.211-2.795-0.384-2.795-2.614
			c0-1.331,1.164-1.919,2.423-1.919c0.756,0,1.247,0.119,1.751,0.228L253.305,19.079z"/>
		<path style="fill:#002D73;" d="M259.915,23.612c-0.587,0.324-1.259,0.492-2.122,0.492c-2.039,0-3.227-1.176-3.227-3.203
			c0-1.787,0.947-3.262,2.866-3.262c2.291,0,2.938,1.57,2.938,3.73h-4.27c0.072,0.994,0.768,1.559,1.763,1.559
			c0.78,0,1.451-0.288,2.051-0.624V23.612z M258.836,20.267c-0.048-0.78-0.408-1.451-1.308-1.451s-1.354,0.623-1.427,1.451H258.836z
			"/>
		<path style="fill:#002D73;" d="M23.032,37.265h-0.024c-0.48,0.6-1.14,0.84-1.895,0.84c-1.895,0-2.591-1.56-2.591-3.251
			c0-1.703,0.696-3.214,2.591-3.214c0.803,0,1.367,0.275,1.847,0.863h0.024v-3.538h1.607v8.995h-1.559V37.265z M21.557,36.856
			c1.067,0,1.415-1.127,1.415-2.003c0-0.863-0.408-1.967-1.439-1.967c-1.043,0-1.331,1.14-1.331,1.967
			C20.201,35.705,20.501,36.856,21.557,36.856z"/>
		<path style="fill:#002D73;" d="M26.286,29.12h1.607v1.535h-1.607V29.12z M26.286,31.783h1.607v6.177h-1.607V31.783z"/>
		<path style="fill:#002D73;" d="M33.256,33.079c-0.491-0.168-0.852-0.264-1.439-0.264c-0.432,0-0.947,0.155-0.947,0.684
			c0,0.982,2.795,0.359,2.795,2.59c0,1.439-1.283,2.016-2.591,2.016c-0.611,0-1.235-0.108-1.823-0.265l0.096-1.319
			c0.503,0.252,1.032,0.408,1.583,0.408c0.407,0,1.055-0.156,1.055-0.756c0-1.211-2.794-0.384-2.794-2.614
			c0-1.331,1.164-1.919,2.423-1.919c0.755,0,1.247,0.119,1.751,0.228L33.256,33.079z"/>
		<path style="fill:#002D73;" d="M39.867,37.612c-0.588,0.324-1.26,0.492-2.123,0.492c-2.039,0-3.227-1.176-3.227-3.203
			c0-1.787,0.948-3.262,2.867-3.262c2.29,0,2.938,1.57,2.938,3.73h-4.271c0.072,0.994,0.768,1.559,1.764,1.559
			c0.779,0,1.451-0.288,2.051-0.624V37.612z M38.788,34.267c-0.049-0.78-0.408-1.451-1.308-1.451s-1.355,0.623-1.428,1.451H38.788z"
			/>
		<path style="fill:#002D73;" d="M41.861,32.106c0.624-0.287,1.463-0.467,2.146-0.467c1.884,0,2.663,0.779,2.663,2.603v0.792
			c0,0.623,0.012,1.091,0.023,1.547c0.013,0.467,0.036,0.898,0.072,1.379h-1.415c-0.06-0.324-0.06-0.731-0.072-0.924h-0.023
			c-0.372,0.684-1.176,1.068-1.907,1.068c-1.092,0-2.159-0.66-2.159-1.836c0-0.924,0.444-1.463,1.056-1.763s1.403-0.36,2.075-0.36
			h0.888c0-0.995-0.444-1.33-1.392-1.33c-0.684,0-1.367,0.264-1.907,0.671L41.861,32.106z M43.744,36.929
			c0.492,0,0.876-0.217,1.128-0.552c0.264-0.349,0.336-0.792,0.336-1.271h-0.696c-0.72,0-1.787,0.12-1.787,1.067
			C42.725,36.7,43.169,36.929,43.744,36.929z"/>
		<path style="fill:#002D73;" d="M51.928,33.079c-0.492-0.168-0.852-0.264-1.439-0.264c-0.432,0-0.947,0.155-0.947,0.684
			c0,0.982,2.794,0.359,2.794,2.59c0,1.439-1.283,2.016-2.59,2.016c-0.612,0-1.235-0.108-1.823-0.265l0.096-1.319
			c0.504,0.252,1.031,0.408,1.583,0.408c0.408,0,1.056-0.156,1.056-0.756c0-1.211-2.795-0.384-2.795-2.614
			c0-1.331,1.164-1.919,2.423-1.919c0.756,0,1.247,0.119,1.751,0.228L51.928,33.079z"/>
		<path style="fill:#002D73;" d="M58.538,37.612c-0.587,0.324-1.259,0.492-2.122,0.492c-2.039,0-3.227-1.176-3.227-3.203
			c0-1.787,0.947-3.262,2.866-3.262c2.291,0,2.938,1.57,2.938,3.73h-4.27c0.072,0.994,0.768,1.559,1.763,1.559
			c0.78,0,1.451-0.288,2.051-0.624V37.612z M57.459,34.267c-0.048-0.78-0.408-1.451-1.308-1.451s-1.354,0.623-1.427,1.451H57.459z"
			/>
		<path style="fill:#002D73;" d="M67.263,33.079c-0.491-0.168-0.852-0.264-1.439-0.264c-0.432,0-0.947,0.155-0.947,0.684
			c0,0.982,2.795,0.359,2.795,2.59c0,1.439-1.283,2.016-2.591,2.016c-0.611,0-1.235-0.108-1.823-0.265l0.097-1.319
			c0.503,0.252,1.031,0.408,1.583,0.408c0.407,0,1.055-0.156,1.055-0.756c0-1.211-2.794-0.384-2.794-2.614
			c0-1.331,1.163-1.919,2.423-1.919c0.755,0,1.247,0.119,1.751,0.228L67.263,33.079z"/>
		<path style="fill:#002D73;" d="M73.874,37.612c-0.588,0.324-1.26,0.492-2.123,0.492c-2.039,0-3.227-1.176-3.227-3.203
			c0-1.787,0.948-3.262,2.867-3.262c2.29,0,2.938,1.57,2.938,3.73H70.06c0.072,0.994,0.768,1.559,1.764,1.559
			c0.779,0,1.451-0.288,2.051-0.624V37.612z M72.795,34.267c-0.049-0.78-0.408-1.451-1.308-1.451s-1.355,0.623-1.428,1.451H72.795z"
			/>
		<path style="fill:#002D73;" d="M74.909,31.783h1.727l1.535,4.497h0.024l1.487-4.497h1.606l-2.278,6.177h-1.812L74.909,31.783z"/>
		<path style="fill:#002D73;" d="M87.218,37.612c-0.588,0.324-1.26,0.492-2.123,0.492c-2.039,0-3.227-1.176-3.227-3.203
			c0-1.787,0.948-3.262,2.867-3.262c2.29,0,2.938,1.57,2.938,3.73h-4.271c0.072,0.994,0.768,1.559,1.764,1.559
			c0.779,0,1.451-0.288,2.051-0.624V37.612z M86.139,34.267c-0.049-0.78-0.408-1.451-1.308-1.451s-1.355,0.623-1.428,1.451H86.139z"
			/>
		<path style="fill:#002D73;" d="M88.973,31.783h1.427v1.403h0.024c0.071-0.576,0.731-1.547,1.69-1.547c0.156,0,0.324,0,0.492,0.048
			v1.619c-0.145-0.084-0.432-0.132-0.72-0.132c-1.308,0-1.308,1.631-1.308,2.519v2.267h-1.606V31.783z"/>
		<path style="fill:#002D73;" d="M93.641,29.12h1.606v1.535h-1.606V29.12z M93.641,31.783h1.606v6.177h-1.606V31.783z"/>
		<path style="fill:#002D73;" d="M97.468,32.958H96.28v-1.175h1.188v-1.235l1.607-0.516v1.751h1.427v1.175h-1.427v2.879
			c0,0.527,0.144,1.02,0.755,1.02c0.288,0,0.564-0.061,0.732-0.168l0.048,1.271c-0.336,0.096-0.708,0.145-1.188,0.145
			c-1.26,0-1.955-0.78-1.955-2.004V32.958z"/>
		<path style="fill:#002D73;" d="M104.175,36.293h0.023l1.487-4.51h1.632l-2.315,6.129c-0.516,1.367-0.888,2.71-2.566,2.71
			c-0.384,0-0.768-0.06-1.14-0.168l0.108-1.188c0.204,0.072,0.432,0.108,0.827,0.108c0.647,0,1.044-0.443,1.044-1.103l-2.363-6.489
			h1.775L104.175,36.293z"/>
		<path style="fill:#002D73;" d="M115.622,33.114c-0.288-0.131-0.6-0.228-1.092-0.228c-0.995,0-1.631,0.792-1.631,1.955
			c0,1.14,0.539,2.015,1.667,2.015c0.456,0,0.959-0.168,1.235-0.287l0.072,1.33c-0.468,0.145-0.948,0.205-1.607,0.205
			c-2.027,0-3.047-1.38-3.047-3.263c0-1.787,1.056-3.202,2.986-3.202c0.648,0,1.116,0.072,1.56,0.203L115.622,33.114z"/>
		<path style="fill:#002D73;" d="M116.979,28.965h1.607v8.995h-1.607V28.965z"/>
		<path style="fill:#002D73;" d="M125.232,37.612c-0.587,0.324-1.259,0.492-2.122,0.492c-2.039,0-3.227-1.176-3.227-3.203
			c0-1.787,0.947-3.262,2.866-3.262c2.291,0,2.938,1.57,2.938,3.73h-4.27c0.072,0.994,0.768,1.559,1.763,1.559
			c0.78,0,1.451-0.288,2.051-0.624V37.612z M124.153,34.267c-0.048-0.78-0.408-1.451-1.308-1.451s-1.354,0.623-1.427,1.451H124.153z
			"/>
		<path style="fill:#002D73;" d="M127.228,32.106c0.623-0.287,1.463-0.467,2.146-0.467c1.883,0,2.662,0.779,2.662,2.603v0.792
			c0,0.623,0.013,1.091,0.024,1.547c0.012,0.467,0.036,0.898,0.072,1.379h-1.416c-0.06-0.324-0.06-0.731-0.071-0.924h-0.024
			c-0.371,0.684-1.175,1.068-1.906,1.068c-1.092,0-2.159-0.66-2.159-1.836c0-0.924,0.443-1.463,1.056-1.763
			c0.611-0.3,1.403-0.36,2.074-0.36h0.888c0-0.995-0.443-1.33-1.392-1.33c-0.684,0-1.367,0.264-1.906,0.671L127.228,32.106z
			 M129.11,36.929c0.491,0,0.875-0.217,1.127-0.552c0.264-0.349,0.336-0.792,0.336-1.271h-0.695c-0.72,0-1.787,0.12-1.787,1.067
			C128.091,36.7,128.534,36.929,129.11,36.929z"/>
		<path style="fill:#002D73;" d="M133.659,31.783h1.427v1.403h0.024c0.072-0.576,0.731-1.547,1.691-1.547
			c0.155,0,0.323,0,0.491,0.048v1.619c-0.144-0.084-0.432-0.132-0.72-0.132c-1.307,0-1.307,1.631-1.307,2.519v2.267h-1.607V31.783z"
			/>
		<path style="fill:#002D73;" d="M138.327,28.965h1.607v8.995h-1.607V28.965z"/>
		<path style="fill:#002D73;" d="M144.193,36.293h0.024l1.487-4.51h1.631l-2.314,6.129c-0.516,1.367-0.888,2.71-2.566,2.71
			c-0.384,0-0.768-0.06-1.14-0.168l0.107-1.188c0.204,0.072,0.433,0.108,0.828,0.108c0.647,0,1.043-0.443,1.043-1.103l-2.362-6.489
			h1.774L144.193,36.293z"/>
		<path style="fill:#002D73;" d="M150.939,31.783h1.703l1.367,4.569h0.023l1.248-4.569h1.871l1.343,4.569h0.024l1.283-4.569h1.535
			l-1.896,6.177h-1.895l-1.344-4.713h-0.023l-1.319,4.713h-1.835L150.939,31.783z"/>
		<path style="fill:#002D73;" d="M162.579,32.106c0.623-0.287,1.463-0.467,2.146-0.467c1.883,0,2.662,0.779,2.662,2.603v0.792
			c0,0.623,0.013,1.091,0.024,1.547c0.012,0.467,0.036,0.898,0.072,1.379h-1.416c-0.06-0.324-0.06-0.731-0.071-0.924h-0.024
			c-0.371,0.684-1.175,1.068-1.906,1.068c-1.092,0-2.159-0.66-2.159-1.836c0-0.924,0.443-1.463,1.056-1.763
			c0.611-0.3,1.403-0.36,2.074-0.36h0.888c0-0.995-0.443-1.33-1.392-1.33c-0.684,0-1.367,0.264-1.906,0.671L162.579,32.106z
			 M164.462,36.929c0.491,0,0.875-0.217,1.127-0.552c0.264-0.349,0.336-0.792,0.336-1.271h-0.695c-0.72,0-1.787,0.12-1.787,1.067
			C163.442,36.7,163.886,36.929,164.462,36.929z"/>
		<path style="fill:#002D73;" d="M169.011,31.783h1.427v1.403h0.024c0.072-0.576,0.731-1.547,1.691-1.547
			c0.155,0,0.323,0,0.491,0.048v1.619c-0.144-0.084-0.432-0.132-0.72-0.132c-1.307,0-1.307,1.631-1.307,2.519v2.267h-1.607V31.783z"
			/>
		<path style="fill:#002D73;" d="M173.679,31.783h1.427v1.403h0.024c0.072-0.576,0.731-1.547,1.691-1.547
			c0.155,0,0.323,0,0.491,0.048v1.619c-0.144-0.084-0.432-0.132-0.72-0.132c-1.307,0-1.307,1.631-1.307,2.519v2.267h-1.607V31.783z"
			/>
		<path style="fill:#002D73;" d="M178.587,32.106c0.623-0.287,1.463-0.467,2.146-0.467c1.883,0,2.662,0.779,2.662,2.603v0.792
			c0,0.623,0.013,1.091,0.024,1.547c0.012,0.467,0.036,0.898,0.072,1.379h-1.416c-0.06-0.324-0.06-0.731-0.071-0.924h-0.024
			c-0.371,0.684-1.175,1.068-1.906,1.068c-1.092,0-2.159-0.66-2.159-1.836c0-0.924,0.443-1.463,1.056-1.763
			c0.611-0.3,1.403-0.36,2.074-0.36h0.888c0-0.995-0.443-1.33-1.392-1.33c-0.684,0-1.367,0.264-1.906,0.671L178.587,32.106z
			 M180.47,36.929c0.491,0,0.875-0.217,1.127-0.552c0.264-0.349,0.336-0.792,0.336-1.271h-0.695c-0.72,0-1.787,0.12-1.787,1.067
			C179.45,36.7,179.894,36.929,180.47,36.929z"/>
		<path style="fill:#002D73;" d="M184.982,31.783h1.523v0.84h0.023c0.504-0.708,1.188-0.983,2.027-0.983
			c1.463,0,2.099,1.031,2.099,2.422v3.898h-1.606v-3.299c0-0.755-0.013-1.774-1.044-1.774c-1.163,0-1.415,1.259-1.415,2.051v3.022
			h-1.607V31.783z"/>
		<path style="fill:#002D73;" d="M192.843,32.958h-1.188v-1.175h1.188v-1.235l1.606-0.516v1.751h1.428v1.175h-1.428v2.879
			c0,0.527,0.145,1.02,0.756,1.02c0.288,0,0.563-0.061,0.731-0.168l0.048,1.271c-0.336,0.096-0.707,0.145-1.188,0.145
			c-1.259,0-1.954-0.78-1.954-2.004V32.958z"/>
		<path style="fill:#002D73;" d="M200.652,33.079c-0.491-0.168-0.852-0.264-1.439-0.264c-0.432,0-0.947,0.155-0.947,0.684
			c0,0.982,2.795,0.359,2.795,2.59c0,1.439-1.283,2.016-2.591,2.016c-0.611,0-1.235-0.108-1.823-0.265l0.097-1.319
			c0.503,0.252,1.031,0.408,1.583,0.408c0.407,0,1.055-0.156,1.055-0.756c0-1.211-2.794-0.384-2.794-2.614
			c0-1.331,1.163-1.919,2.423-1.919c0.755,0,1.247,0.119,1.751,0.228L200.652,33.079z"/>
		<path style="fill:#002D73;" d="M205.922,32.106c0.624-0.287,1.463-0.467,2.146-0.467c1.884,0,2.663,0.779,2.663,2.603v0.792
			c0,0.623,0.012,1.091,0.023,1.547c0.013,0.467,0.036,0.898,0.072,1.379h-1.415c-0.06-0.324-0.06-0.731-0.072-0.924h-0.023
			c-0.372,0.684-1.176,1.068-1.907,1.068c-1.092,0-2.159-0.66-2.159-1.836c0-0.924,0.444-1.463,1.056-1.763s1.403-0.36,2.075-0.36
			h0.888c0-0.995-0.444-1.33-1.392-1.33c-0.684,0-1.367,0.264-1.907,0.671L205.922,32.106z M207.805,36.929
			c0.492,0,0.876-0.217,1.128-0.552c0.264-0.349,0.336-0.792,0.336-1.271h-0.696c-0.72,0-1.787,0.12-1.787,1.067
			C206.785,36.7,207.229,36.929,207.805,36.929z"/>
		<path style="fill:#002D73;" d="M212.318,31.783h1.522v0.84h0.024c0.504-0.708,1.188-0.983,2.026-0.983
			c1.464,0,2.1,1.031,2.1,2.422v3.898h-1.607v-3.299c0-0.755-0.012-1.774-1.043-1.774c-1.164,0-1.416,1.259-1.416,2.051v3.022
			h-1.606V31.783z"/>
		<path style="fill:#002D73;" d="M222.986,29.589h1.679v8.371h-1.679V29.589z"/>
		<path style="fill:#002D73;" d="M232.559,37.84c-0.611,0.144-1.271,0.265-1.907,0.265c-2.71,0-4.594-1.355-4.594-4.187
			c0-2.866,1.752-4.474,4.594-4.474c0.552,0,1.283,0.108,1.896,0.348l-0.12,1.416c-0.636-0.36-1.212-0.443-1.812-0.443
			c-1.727,0-2.806,1.318-2.806,3.033c0,1.703,1.055,2.986,2.842,2.986c0.66,0,1.439-0.144,1.835-0.348L232.559,37.84z"/>
		<path style="fill:#002D73;" d="M238.296,31.124c-0.528-0.229-1.116-0.359-1.703-0.359c-0.576,0-1.319,0.251-1.319,1.162
			c0,1.451,3.67,0.84,3.67,3.646c0,1.835-1.451,2.531-3.143,2.531c-0.911,0-1.319-0.121-2.146-0.324l0.155-1.512
			c0.576,0.312,1.235,0.516,1.896,0.516c0.636,0,1.487-0.323,1.487-1.079c0-1.595-3.67-0.936-3.67-3.706
			c0-1.871,1.451-2.555,2.926-2.555c0.72,0,1.392,0.096,2.003,0.301L238.296,31.124z"/>
		<path style="fill:#002D73;" d="M242.677,29.444h1.247l-2.927,8.66h-1.247L242.677,29.444z"/>
		<path style="fill:#002D73;" d="M245.138,29.589h1.679v7.052h3.251v1.319h-4.93V29.589z"/>
		<path style="fill:#002D73;" d="M253.536,29.589h1.896l3.286,8.371h-1.859l-0.72-1.919h-3.394l-0.731,1.919h-1.739L253.536,29.589z
			 M254.46,31.268h-0.024l-1.211,3.454h2.446L254.46,31.268z"/>
		<path style="fill:#002D73;" d="M259.802,29.589h2.926c1.079,0,2.698,0.312,2.698,2.146c0,0.996-0.671,1.691-1.667,1.871v0.023
			c1.14,0.108,1.919,0.876,1.919,1.907c0,2.11-1.895,2.423-2.95,2.423h-2.926V29.589z M261.48,32.971h0.684
			c0.708,0,1.583-0.155,1.583-1.02c0-0.972-0.852-1.044-1.619-1.044h-0.647V32.971z M261.48,36.641h0.791
			c0.78,0,1.728-0.192,1.728-1.163c0-1.092-0.888-1.26-1.728-1.26h-0.791V36.641z"/>
		<path style="fill:#002D73;" d="M269.532,29.589h1.895l3.286,8.371h-1.858l-0.72-1.919h-3.395l-0.731,1.919h-1.739L269.532,29.589z
			 M270.455,31.268h-0.023l-1.212,3.454h2.447L270.455,31.268z"/>
		<path style="fill:#002D73;" d="M63.414,52.589h2.926c1.079,0,2.698,0.312,2.698,2.146c0,0.996-0.671,1.691-1.667,1.871v0.023
			c1.14,0.108,1.919,0.876,1.919,1.907c0,2.11-1.895,2.423-2.95,2.423h-2.926V52.589z M65.093,55.971h0.684
			c0.708,0,1.583-0.155,1.583-1.02c0-0.972-0.852-1.044-1.619-1.044h-0.647V55.971z M65.093,59.641h0.791
			c0.78,0,1.728-0.192,1.728-1.163c0-1.092-0.888-1.26-1.728-1.26h-0.791V59.641z"/>
		<path style="fill:#002D73;" d="M70.602,52.589h1.812c1.799,0,3.945-0.061,3.945,2.267c0,0.983-0.659,1.799-1.727,1.942v0.024
			c0.455,0.036,0.72,0.491,0.887,0.863l1.344,3.274h-1.871l-1.008-2.615c-0.239-0.623-0.455-0.863-1.163-0.863h-0.539v3.479h-1.68
			V52.589z M72.281,56.163h0.551c0.828,0,1.775-0.121,1.775-1.164c0-1.008-0.936-1.092-1.775-1.092h-0.551V56.163z"/>
		<path style="fill:#002D73;" d="M78.078,52.589h4.94v1.318h-3.262v2.063h2.986v1.319h-2.986v2.351h3.286v1.319h-4.965V52.589z"/>
		<path style="fill:#002D73;" d="M88.443,52.444c2.627,0,4.102,1.775,4.102,4.307c0,2.529-1.451,4.354-4.102,4.354
			c-2.687,0-4.102-1.787-4.102-4.354C84.342,54.184,85.781,52.444,88.443,52.444z M88.443,59.784c1.715,0,2.351-1.523,2.351-3.033
			c0-1.477-0.684-2.986-2.351-2.986s-2.351,1.51-2.351,2.986C86.093,58.261,86.729,59.784,88.443,59.784z"/>
		<path style="fill:#002D73;" d="M97.313,52.12h1.607v1.535h-1.607V52.12z M97.313,54.783h1.607v6.177h-1.607V54.783z"/>
		<path style="fill:#002D73;" d="M104.283,56.079c-0.491-0.168-0.852-0.264-1.439-0.264c-0.432,0-0.947,0.155-0.947,0.684
			c0,0.982,2.795,0.359,2.795,2.59c0,1.439-1.283,2.016-2.591,2.016c-0.611,0-1.235-0.108-1.823-0.265l0.097-1.319
			c0.503,0.252,1.031,0.408,1.583,0.408c0.407,0,1.055-0.156,1.055-0.756c0-1.211-2.794-0.384-2.794-2.614
			c0-1.331,1.163-1.919,2.423-1.919c0.755,0,1.247,0.119,1.751,0.228L104.283,56.079z"/>
		<path style="fill:#002D73;" d="M109.337,52.589h2.062l3.19,6.26h0.024v-6.26h1.607v8.371h-2.052l-3.202-6.261h-0.023v6.261h-1.607
			V52.589z"/>
		<path style="fill:#002D73;" d="M121.778,52.444c2.627,0,4.102,1.775,4.102,4.307c0,2.529-1.451,4.354-4.102,4.354
			c-2.687,0-4.102-1.787-4.102-4.354C117.677,54.184,119.116,52.444,121.778,52.444z M121.778,59.784
			c1.715,0,2.351-1.523,2.351-3.033c0-1.477-0.684-2.986-2.351-2.986s-2.351,1.51-2.351,2.986
			C119.428,58.261,120.063,59.784,121.778,59.784z"/>
		<path style="fill:#002D73;" d="M128.943,53.907h-2.398v-1.318h6.477v1.318h-2.398v7.053h-1.68V53.907z"/>
		<path style="fill:#002D73;" d="M137.32,52.12h1.607v1.535h-1.607V52.12z M137.32,54.783h1.607v6.177h-1.607V54.783z"/>
		<path style="fill:#002D73;" d="M140.62,54.783h1.523v0.84h0.023c0.504-0.708,1.188-0.983,2.027-0.983
			c1.463,0,2.099,1.031,2.099,2.422v3.898h-1.606v-3.299c0-0.755-0.013-1.774-1.044-1.774c-1.163,0-1.415,1.259-1.415,2.051v3.022
			h-1.607V54.783z"/>
		<path style="fill:#002D73;" d="M152.066,60.265h-0.024c-0.479,0.6-1.14,0.84-1.895,0.84c-1.896,0-2.591-1.56-2.591-3.251
			c0-1.703,0.695-3.214,2.591-3.214c0.803,0,1.367,0.275,1.847,0.863h0.024v-3.538h1.606v8.995h-1.559V60.265z M150.591,59.856
			c1.067,0,1.415-1.127,1.415-2.003c0-0.863-0.407-1.967-1.439-1.967c-1.043,0-1.331,1.14-1.331,1.967
			C149.235,58.705,149.535,59.856,150.591,59.856z"/>
		<path style="fill:#002D73;" d="M155.32,52.12h1.607v1.535h-1.607V52.12z M155.32,54.783h1.607v6.177h-1.607V54.783z"/>
		<path style="fill:#002D73;" d="M162.626,56.114c-0.288-0.131-0.6-0.228-1.091-0.228c-0.996,0-1.632,0.792-1.632,1.955
			c0,1.14,0.54,2.015,1.667,2.015c0.456,0,0.96-0.168,1.235-0.287l0.072,1.33c-0.468,0.145-0.947,0.205-1.607,0.205
			c-2.026,0-3.046-1.38-3.046-3.263c0-1.787,1.056-3.202,2.986-3.202c0.647,0,1.115,0.072,1.559,0.203L162.626,56.114z"/>
		<path style="fill:#002D73;" d="M164.224,55.106c0.624-0.287,1.463-0.467,2.146-0.467c1.884,0,2.663,0.779,2.663,2.603v0.792
			c0,0.623,0.012,1.091,0.023,1.547c0.013,0.467,0.036,0.898,0.072,1.379h-1.415c-0.06-0.324-0.06-0.731-0.072-0.924h-0.023
			c-0.372,0.684-1.176,1.068-1.907,1.068c-1.092,0-2.159-0.66-2.159-1.836c0-0.924,0.444-1.463,1.056-1.763s1.403-0.36,2.075-0.36
			h0.888c0-0.995-0.444-1.33-1.392-1.33c-0.684,0-1.367,0.264-1.907,0.671L164.224,55.106z M166.106,59.929
			c0.492,0,0.876-0.217,1.128-0.552c0.264-0.349,0.336-0.792,0.336-1.271h-0.696c-0.72,0-1.787,0.12-1.787,1.067
			C165.087,59.7,165.531,59.929,166.106,59.929z"/>
		<path style="fill:#002D73;" d="M171.147,55.958h-1.188v-1.175h1.188v-1.235l1.607-0.516v1.751h1.427v1.175h-1.427v2.879
			c0,0.527,0.144,1.02,0.755,1.02c0.288,0,0.564-0.061,0.732-0.168l0.048,1.271c-0.336,0.096-0.708,0.145-1.188,0.145
			c-1.26,0-1.955-0.78-1.955-2.004V55.958z"/>
		<path style="fill:#002D73;" d="M180.241,60.612c-0.588,0.324-1.26,0.492-2.123,0.492c-2.039,0-3.227-1.176-3.227-3.203
			c0-1.787,0.948-3.262,2.867-3.262c2.29,0,2.938,1.57,2.938,3.73h-4.271c0.072,0.994,0.768,1.559,1.764,1.559
			c0.779,0,1.451-0.288,2.051-0.624V60.612z M179.162,57.267c-0.049-0.78-0.408-1.451-1.308-1.451s-1.355,0.623-1.428,1.451H179.162
			z"/>
		<path style="fill:#002D73;" d="M186.073,60.265h-0.023c-0.48,0.6-1.14,0.84-1.896,0.84c-1.895,0-2.591-1.56-2.591-3.251
			c0-1.703,0.696-3.214,2.591-3.214c0.804,0,1.367,0.275,1.847,0.863h0.024v-3.538h1.607v8.995h-1.56V60.265z M184.599,59.856
			c1.067,0,1.415-1.127,1.415-2.003c0-0.863-0.408-1.967-1.439-1.967c-1.043,0-1.331,1.14-1.331,1.967
			C183.243,58.705,183.543,59.856,184.599,59.856z"/>
		<path style="fill:#002D73;" d="M193.215,55.958h-1.187v-1.175h1.187V53.92c0-1.235,0.696-2.099,1.968-2.099
			c0.407,0,0.863,0.06,1.175,0.132l-0.132,1.331c-0.144-0.084-0.348-0.216-0.695-0.216c-0.54,0-0.708,0.468-0.708,0.947v0.768h1.403
			v1.175h-1.403v5.002h-1.607V55.958z"/>
		<path style="fill:#002D73;" d="M200.126,54.64c1.835,0,3.238,1.234,3.238,3.273c0,1.775-1.188,3.191-3.238,3.191
			c-2.039,0-3.227-1.416-3.227-3.191C196.899,55.874,198.303,54.64,200.126,54.64z M200.126,59.856c1.235,0,1.56-1.104,1.56-2.135
			c0-0.947-0.504-1.835-1.56-1.835c-1.043,0-1.547,0.911-1.547,1.835C198.579,58.741,198.902,59.856,200.126,59.856z"/>
		<path style="fill:#002D73;" d="M204.664,54.783h1.427v1.403h0.024c0.071-0.576,0.731-1.547,1.69-1.547
			c0.156,0,0.324,0,0.492,0.048v1.619c-0.145-0.084-0.432-0.132-0.72-0.132c-1.308,0-1.308,1.631-1.308,2.519v2.267h-1.606V54.783z"
			/>
		<path style="fill:#002D73;" d="M213.159,55.958h-1.188v-1.175h1.188v-1.235l1.607-0.516v1.751h1.427v1.175h-1.427v2.879
			c0,0.527,0.144,1.02,0.755,1.02c0.288,0,0.564-0.061,0.732-0.168l0.048,1.271c-0.336,0.096-0.708,0.145-1.188,0.145
			c-1.26,0-1.955-0.78-1.955-2.004V55.958z"/>
		<path style="fill:#002D73;" d="M217.3,51.965h1.606v3.658h0.024c0.407-0.6,1.104-0.983,1.942-0.983c1.464,0,2.1,1.031,2.1,2.422
			v3.898h-1.607v-3.299c0-0.755-0.012-1.774-1.043-1.774c-1.164,0-1.416,1.259-1.416,2.051v3.022H217.3V51.965z"/>
		<path style="fill:#002D73;" d="M229.585,60.612c-0.588,0.324-1.26,0.492-2.123,0.492c-2.039,0-3.227-1.176-3.227-3.203
			c0-1.787,0.948-3.262,2.867-3.262c2.29,0,2.938,1.57,2.938,3.73h-4.271c0.072,0.994,0.768,1.559,1.764,1.559
			c0.779,0,1.451-0.288,2.051-0.624V60.612z M228.506,57.267c-0.049-0.78-0.408-1.451-1.308-1.451s-1.355,0.623-1.428,1.451H228.506
			z"/>
		<path style="fill:#002D73;" d="M65.316,68.783h1.427v1.403h0.024c0.071-0.576,0.731-1.547,1.69-1.547c0.156,0,0.324,0,0.492,0.048
			v1.619c-0.145-0.084-0.432-0.132-0.72-0.132c-1.308,0-1.308,1.631-1.308,2.519v2.267h-1.606V68.783z"/>
		<path style="fill:#002D73;" d="M74.901,74.612c-0.588,0.324-1.26,0.492-2.123,0.492c-2.039,0-3.227-1.176-3.227-3.203
			c0-1.787,0.948-3.262,2.867-3.262c2.29,0,2.938,1.57,2.938,3.73h-4.271c0.072,0.994,0.768,1.559,1.764,1.559
			c0.779,0,1.451-0.288,2.051-0.624V74.612z M73.822,71.267c-0.049-0.78-0.408-1.451-1.308-1.451s-1.355,0.623-1.428,1.451H73.822z"
			/>
		<path style="fill:#002D73;" d="M76.656,65.965h1.606v8.995h-1.606V65.965z"/>
		<path style="fill:#002D73;" d="M79.992,66.12h1.606v1.535h-1.606V66.12z M79.992,68.783h1.606v6.177h-1.606V68.783z"/>
		<path style="fill:#002D73;" d="M88.245,74.612c-0.588,0.324-1.26,0.492-2.123,0.492c-2.039,0-3.227-1.176-3.227-3.203
			c0-1.787,0.948-3.262,2.867-3.262c2.29,0,2.938,1.57,2.938,3.73h-4.271c0.072,0.994,0.768,1.559,1.764,1.559
			c0.779,0,1.451-0.288,2.051-0.624V74.612z M87.166,71.267c-0.049-0.78-0.408-1.451-1.308-1.451s-1.355,0.623-1.428,1.451H87.166z"
			/>
		<path style="fill:#002D73;" d="M90.551,69.958h-1.187v-1.175h1.187V67.92c0-1.235,0.696-2.099,1.968-2.099
			c0.407,0,0.863,0.06,1.175,0.132l-0.132,1.331c-0.144-0.084-0.348-0.216-0.695-0.216c-0.54,0-0.708,0.468-0.708,0.947v0.768h1.403
			v1.175h-1.403v5.002h-1.607V69.958z"/>
		<path style="fill:#002D73;" d="M100.798,68.64c1.835,0,3.238,1.234,3.238,3.273c0,1.775-1.188,3.191-3.238,3.191
			c-2.039,0-3.227-1.416-3.227-3.191C97.571,69.874,98.975,68.64,100.798,68.64z M100.798,73.856c1.235,0,1.56-1.104,1.56-2.135
			c0-0.947-0.504-1.835-1.56-1.835c-1.043,0-1.547,0.911-1.547,1.835C99.251,72.741,99.574,73.856,100.798,73.856z"/>
		<path style="fill:#002D73;" d="M105.887,69.958H104.7v-1.175h1.187V67.92c0-1.235,0.696-2.099,1.968-2.099
			c0.407,0,0.863,0.06,1.175,0.132l-0.132,1.331c-0.144-0.084-0.348-0.216-0.695-0.216c-0.54,0-0.708,0.468-0.708,0.947v0.768h1.403
			v1.175h-1.403v5.002h-1.607V69.958z"/>
		<path style="fill:#002D73;" d="M113.579,69.106c0.624-0.287,1.463-0.467,2.146-0.467c1.884,0,2.663,0.779,2.663,2.603v0.792
			c0,0.623,0.012,1.091,0.023,1.547c0.013,0.467,0.036,0.898,0.072,1.379h-1.415c-0.06-0.324-0.06-0.731-0.072-0.924h-0.023
			c-0.372,0.684-1.176,1.068-1.907,1.068c-1.092,0-2.159-0.66-2.159-1.836c0-0.924,0.444-1.463,1.056-1.763s1.403-0.36,2.075-0.36
			h0.888c0-0.995-0.444-1.33-1.392-1.33c-0.684,0-1.367,0.264-1.907,0.671L113.579,69.106z M115.462,73.929
			c0.492,0,0.876-0.217,1.128-0.552c0.264-0.349,0.336-0.792,0.336-1.271h-0.696c-0.72,0-1.787,0.12-1.787,1.067
			C114.442,73.7,114.887,73.929,115.462,73.929z"/>
		<path style="fill:#002D73;" d="M123.981,70.114c-0.288-0.131-0.6-0.228-1.092-0.228c-0.995,0-1.631,0.792-1.631,1.955
			c0,1.14,0.539,2.015,1.667,2.015c0.456,0,0.959-0.168,1.235-0.287l0.072,1.33c-0.468,0.145-0.948,0.205-1.607,0.205
			c-2.027,0-3.047-1.38-3.047-3.263c0-1.787,1.056-3.202,2.986-3.202c0.648,0,1.116,0.072,1.56,0.203L123.981,70.114z"/>
		<path style="fill:#002D73;" d="M130.976,74.96h-1.523v-0.84h-0.023c-0.492,0.6-1.188,0.984-2.027,0.984
			c-1.463,0-2.099-1.032-2.099-2.424v-3.897h1.607v3.298c0,0.756,0.012,1.775,1.043,1.775c1.164,0,1.416-1.26,1.416-2.051v-3.022
			h1.606V74.96z"/>
		<path style="fill:#002D73;" d="M133.163,69.958h-1.188v-1.175h1.188v-1.235l1.606-0.516v1.751h1.428v1.175h-1.428v2.879
			c0,0.527,0.145,1.02,0.756,1.02c0.288,0,0.563-0.061,0.731-0.168l0.048,1.271c-0.336,0.096-0.707,0.145-1.188,0.145
			c-1.259,0-1.954-0.78-1.954-2.004V69.958z"/>
		<path style="fill:#002D73;" d="M142.256,74.612c-0.587,0.324-1.259,0.492-2.122,0.492c-2.039,0-3.227-1.176-3.227-3.203
			c0-1.787,0.947-3.262,2.866-3.262c2.291,0,2.938,1.57,2.938,3.73h-4.27c0.072,0.994,0.768,1.559,1.763,1.559
			c0.78,0,1.451-0.288,2.051-0.624V74.612z M141.177,71.267c-0.048-0.78-0.408-1.451-1.308-1.451s-1.354,0.623-1.427,1.451H141.177z
			"/>
		<path style="fill:#002D73;" d="M147.311,65.965h1.607v3.61h0.023c0.444-0.588,1.008-0.936,1.848-0.936
			c1.895,0,2.59,1.511,2.59,3.214c0,1.691-0.695,3.251-2.59,3.251c-0.684,0-1.428-0.24-1.896-0.9h-0.023v0.756h-1.56V65.965z
			 M150.345,73.856c1.056,0,1.355-1.151,1.355-2.003c0-0.827-0.288-1.967-1.331-1.967c-1.031,0-1.439,1.104-1.439,1.967
			C148.93,72.729,149.277,73.856,150.345,73.856z"/>
		<path style="fill:#002D73;" d="M154.679,68.783h1.427v1.403h0.024c0.072-0.576,0.731-1.547,1.691-1.547
			c0.155,0,0.323,0,0.491,0.048v1.619c-0.144-0.084-0.432-0.132-0.72-0.132c-1.307,0-1.307,1.631-1.307,2.519v2.267h-1.607V68.783z"
			/>
		<path style="fill:#002D73;" d="M162.142,68.64c1.835,0,3.237,1.234,3.237,3.273c0,1.775-1.187,3.191-3.237,3.191
			c-2.039,0-3.227-1.416-3.227-3.191C158.915,69.874,160.318,68.64,162.142,68.64z M162.142,73.856c1.235,0,1.559-1.104,1.559-2.135
			c0-0.947-0.504-1.835-1.559-1.835c-1.044,0-1.548,0.911-1.548,1.835C160.594,72.741,160.918,73.856,162.142,73.856z"/>
		<path style="fill:#002D73;" d="M166.643,68.783h1.523v0.84h0.023c0.504-0.708,1.188-0.983,2.027-0.983
			c1.463,0,2.099,1.031,2.099,2.422v3.898h-1.606v-3.299c0-0.755-0.013-1.774-1.044-1.774c-1.163,0-1.415,1.259-1.415,2.051v3.022
			h-1.607V68.783z"/>
		<path style="fill:#002D73;" d="M177.98,70.114c-0.288-0.131-0.6-0.228-1.091-0.228c-0.996,0-1.632,0.792-1.632,1.955
			c0,1.14,0.54,2.015,1.667,2.015c0.456,0,0.96-0.168,1.235-0.287l0.072,1.33c-0.468,0.145-0.947,0.205-1.607,0.205
			c-2.026,0-3.046-1.38-3.046-3.263c0-1.787,1.056-3.202,2.986-3.202c0.647,0,1.115,0.072,1.559,0.203L177.98,70.114z"/>
		<path style="fill:#002D73;" d="M179.303,65.965h1.606v3.658h0.024c0.407-0.6,1.104-0.983,1.942-0.983c1.464,0,2.1,1.031,2.1,2.422
			v3.898h-1.607v-3.299c0-0.755-0.012-1.774-1.043-1.774c-1.164,0-1.416,1.259-1.416,2.051v3.022h-1.606V65.965z"/>
		<path style="fill:#002D73;" d="M189.465,68.64c1.835,0,3.238,1.234,3.238,3.273c0,1.775-1.188,3.191-3.238,3.191
			c-2.039,0-3.227-1.416-3.227-3.191C186.238,69.874,187.642,68.64,189.465,68.64z M189.465,73.856c1.235,0,1.56-1.104,1.56-2.135
			c0-0.947-0.504-1.835-1.56-1.835c-1.043,0-1.547,0.911-1.547,1.835C187.918,72.741,188.241,73.856,189.465,73.856z"/>
		<path style="fill:#002D73;" d="M197.637,70.079c-0.492-0.168-0.852-0.264-1.439-0.264c-0.432,0-0.947,0.155-0.947,0.684
			c0,0.982,2.794,0.359,2.794,2.59c0,1.439-1.283,2.016-2.59,2.016c-0.612,0-1.235-0.108-1.823-0.265l0.096-1.319
			c0.504,0.252,1.031,0.408,1.583,0.408c0.408,0,1.056-0.156,1.056-0.756c0-1.211-2.795-0.384-2.795-2.614
			c0-1.331,1.164-1.919,2.423-1.919c0.756,0,1.247,0.119,1.751,0.228L197.637,70.079z"/>
		<path style="fill:#002D73;" d="M199.294,68.783h1.535v0.876h0.024c0.359-0.6,0.972-1.02,1.919-1.02c1.895,0,2.59,1.511,2.59,3.214
			c0,1.691-0.695,3.251-2.626,3.251c-0.684,0-1.247-0.168-1.812-0.852h-0.023v3.226h-1.607V68.783z M200.913,71.854
			c0,0.876,0.348,2.003,1.415,2.003c1.056,0,1.355-1.151,1.355-2.003c0-0.827-0.288-1.967-1.331-1.967
			C201.321,69.887,200.913,70.99,200.913,71.854z"/>
		<path style="fill:#002D73;" d="M206.902,69.106c0.623-0.287,1.463-0.467,2.146-0.467c1.883,0,2.662,0.779,2.662,2.603v0.792
			c0,0.623,0.013,1.091,0.024,1.547c0.012,0.467,0.036,0.898,0.072,1.379h-1.416c-0.06-0.324-0.06-0.731-0.071-0.924h-0.024
			c-0.371,0.684-1.175,1.068-1.906,1.068c-1.092,0-2.159-0.66-2.159-1.836c0-0.924,0.443-1.463,1.056-1.763
			c0.611-0.3,1.403-0.36,2.074-0.36h0.888c0-0.995-0.443-1.33-1.392-1.33c-0.684,0-1.367,0.264-1.906,0.671L206.902,69.106z
			 M208.785,73.929c0.491,0,0.875-0.217,1.127-0.552c0.264-0.349,0.336-0.792,0.336-1.271h-0.695c-0.72,0-1.787,0.12-1.787,1.067
			C207.766,73.7,208.209,73.929,208.785,73.929z"/>
		<path style="fill:#002D73;" d="M216.968,70.079c-0.491-0.168-0.852-0.264-1.439-0.264c-0.432,0-0.947,0.155-0.947,0.684
			c0,0.982,2.795,0.359,2.795,2.59c0,1.439-1.283,2.016-2.591,2.016c-0.611,0-1.235-0.108-1.823-0.265l0.097-1.319
			c0.503,0.252,1.031,0.408,1.583,0.408c0.407,0,1.055-0.156,1.055-0.756c0-1.211-2.794-0.384-2.794-2.614
			c0-1.331,1.163-1.919,2.423-1.919c0.755,0,1.247,0.119,1.751,0.228L216.968,70.079z"/>
		<path style="fill:#002D73;" d="M218.602,68.783h1.499v0.864h0.024c0.504-0.756,1.235-1.008,1.835-1.008
			c0.863,0,1.475,0.324,1.823,1.092c0.371-0.744,1.175-1.092,1.931-1.092c1.523,0,1.955,1.043,1.955,2.422v3.898h-1.607v-3.682
			c0-0.576,0-1.392-0.924-1.392c-1.067,0-1.199,1.271-1.199,2.075v2.998h-1.606v-3.682c0-0.576,0-1.392-0.924-1.392
			c-1.067,0-1.199,1.271-1.199,2.075v2.998h-1.607V68.783z"/>
	</g>
</g>
<g id="A7">
</g>
<g id="A8">
</g>
<g id="Layer_13">
</g>
</svg>
