<?xml version="1.0" encoding="iso-8859-1"?>
<!-- Generator: Adobe Illustrator 19.1.0, SVG Export Plug-In . SVG Version: 6.00 Build 0)  -->
<svg version="1.1" xmlns="http://www.w3.org/2000/svg" xmlns:xlink="http://www.w3.org/1999/xlink" x="0px" y="0px"
	 viewBox="0 0 147.818 164.52" style="enable-background:new 0 0 147.818 164.52;" xml:space="preserve">
<g id="Layer_1">
</g>
<g id="Border">
	<g>
		<path style="fill:#FFFFFF;" d="M6.8,3.85h4.636c1.709,0,4.274,0.494,4.274,3.401c0,1.576-1.063,2.678-2.641,2.963v0.038
			c1.805,0.171,3.04,1.387,3.04,3.021c0,3.344-3.001,3.838-4.673,3.838H6.8V3.85z M9.46,9.207h1.083
			c1.121,0,2.508-0.247,2.508-1.614c0-1.539-1.349-1.653-2.565-1.653H9.46V9.207z M9.46,15.021h1.254
			c1.235,0,2.736-0.304,2.736-1.843c0-1.729-1.406-1.995-2.736-1.995H9.46V15.021z"/>
		<path style="fill:#FFFFFF;" d="M18.182,3.85h2.868c2.85,0,6.25-0.095,6.25,3.591c0,1.558-1.045,2.85-2.736,3.078v0.037
			c0.722,0.058,1.14,0.779,1.406,1.368l2.128,5.187h-2.964l-1.596-4.142c-0.38-0.988-0.722-1.368-1.843-1.368h-0.855v5.51h-2.659
			V3.85z M20.841,9.511h0.874c1.311,0,2.812-0.189,2.812-1.842c0-1.597-1.481-1.729-2.812-1.729h-0.874V9.511z"/>
		<path style="fill:#FFFFFF;" d="M30.018,3.85h7.827v2.09h-5.167v3.268h4.73v2.09h-4.73v3.724h5.206v2.09h-7.865V3.85z"/>
		<path style="fill:#FFFFFF;" d="M46.434,3.622c4.16,0,6.497,2.812,6.497,6.82c0,4.008-2.298,6.896-6.497,6.896
			c-4.255,0-6.497-2.83-6.497-6.896S42.216,3.622,46.434,3.622z M46.434,15.248c2.716,0,3.723-2.412,3.723-4.806
			c0-2.337-1.083-4.73-3.723-4.73c-2.641,0-3.724,2.394-3.724,4.73C42.71,12.836,43.717,15.248,46.434,15.248z"/>
		<path style="fill:#FFFFFF;" d="M67.239,9.948c-0.38-0.114-0.76-0.114-1.159-0.114c-1.596,0-2.488,1.159-2.488,3.097v4.18h-3.42
			V7.213h3.115v1.823h0.038c0.589-1.254,1.444-2.052,2.926-2.052c0.399,0,0.817,0.058,1.159,0.114L67.239,9.948z"/>
		<path style="fill:#FFFFFF;" d="M71.248,13.158c0.19,1.368,1.235,1.9,2.907,1.9c0.931,0,1.994-0.209,3.021-0.76v2.412
			c-1.103,0.438-2.356,0.627-3.629,0.627c-3.268,0-5.756-1.919-5.756-5.187c0-3.267,2.223-5.167,5.3-5.167
			c3.667,0,4.996,2.603,4.996,5.548v0.626H71.248z M75.01,11.221c0-1.14-0.532-2.07-1.899-2.07c-1.235,0-1.824,0.931-1.9,2.07H75.01
			z"/>
		<path style="fill:#FFFFFF;" d="M90.514,17.11h-3.154v-1.767h-0.038c-0.437,1.102-1.823,1.994-3.4,1.994
			c-2.944,0-4.521-2.432-4.521-5.357c0-2.432,1.501-4.996,4.236-4.996c1.368,0,2.527,0.361,3.401,1.501h0.038V2.862h3.438V17.11z
			 M85.004,14.717c1.14,0,2.09-1.083,2.09-2.527c0-1.5-0.836-2.583-2.09-2.583c-1.33,0-2.07,1.14-2.07,2.45
			C82.934,13.634,83.712,14.717,85.004,14.717z"/>
		<path style="fill:#FFFFFF;" d="M103.11,17.11h-3.115v-1.824h-0.038c-0.685,1.425-2.052,2.052-3.609,2.052
			c-2.698,0-3.781-1.899-3.781-3.951V7.213h3.42V12c0,1.861,0.646,2.488,1.577,2.488c1.405,0,2.127-0.969,2.127-3.097V7.213h3.42
			V17.11z"/>
		<path style="fill:#FFFFFF;" d="M112.99,10.043c-0.627-0.38-1.254-0.551-2.07-0.551c-1.481,0-2.622,1.026-2.622,2.735
			c0,1.577,1.33,2.603,2.812,2.603c0.779,0,1.559-0.171,2.128-0.475l0.076,2.546c-0.854,0.285-1.881,0.437-2.793,0.437
			c-3.268,0-5.756-1.899-5.756-5.167c0-3.286,2.488-5.187,5.756-5.187c1.026,0,1.938,0.171,2.717,0.551L112.99,10.043z"/>
		<path style="fill:#FFFFFF;" d="M117.723,13.158c0.189,1.368,1.234,1.9,2.906,1.9c0.931,0,1.994-0.209,3.021-0.76v2.412
			c-1.102,0.438-2.355,0.627-3.629,0.627c-3.268,0-5.756-1.919-5.756-5.187c0-3.267,2.223-5.167,5.3-5.167
			c3.667,0,4.997,2.603,4.997,5.548v0.626H117.723z M121.484,11.221c0-1.14-0.531-2.07-1.899-2.07c-1.235,0-1.824,0.931-1.899,2.07
			H121.484z"/>
		<path style="fill:#FFFFFF;" d="M136.986,17.11h-3.153v-1.767h-0.038c-0.437,1.102-1.823,1.994-3.4,1.994
			c-2.944,0-4.521-2.432-4.521-5.357c0-2.432,1.501-4.996,4.236-4.996c1.368,0,2.526,0.361,3.4,1.501h0.038V2.862h3.438V17.11z
			 M131.478,14.717c1.14,0,2.09-1.083,2.09-2.527c0-1.5-0.836-2.583-2.09-2.583c-1.33,0-2.071,1.14-2.071,2.45
			C129.406,13.634,130.186,14.717,131.478,14.717z"/>
		<path style="fill:#FFFFFF;" d="M7.408,33.188h-1.88v-1.862h1.88V29.37l2.546-0.817v2.773h2.261v1.862H9.954v4.56
			c0,0.835,0.228,1.614,1.197,1.614c0.456,0,0.893-0.095,1.159-0.266l0.076,2.014c-0.532,0.151-1.121,0.228-1.881,0.228
			c-1.995,0-3.097-1.234-3.097-3.172V33.188z"/>
		<path style="fill:#FFFFFF;" d="M13.963,26.862h2.545v5.794h0.038c0.646-0.95,1.748-1.558,3.078-1.558
			c2.317,0,3.324,1.634,3.324,3.837v6.175h-2.545v-5.225c0-1.196-0.019-2.812-1.653-2.812c-1.843,0-2.242,1.995-2.242,3.249v4.787
			h-2.545V26.862z"/>
		<path style="fill:#FFFFFF;" d="M33.418,40.56c-0.931,0.513-1.995,0.778-3.363,0.778c-3.229,0-5.11-1.861-5.11-5.072
			c0-2.83,1.5-5.167,4.54-5.167c3.628,0,4.654,2.488,4.654,5.908h-6.763c0.114,1.576,1.216,2.47,2.792,2.47
			c1.235,0,2.299-0.456,3.249-0.988V40.56z M31.708,35.259c-0.076-1.234-0.646-2.299-2.071-2.299s-2.146,0.988-2.26,2.299H31.708z"
			/>
		<path style="fill:#FFFFFF;" d="M41.475,31.326h2.261v2.223h0.038c0.114-0.911,1.159-2.45,2.679-2.45c0.247,0,0.513,0,0.779,0.076
			v2.564c-0.228-0.133-0.684-0.209-1.14-0.209c-2.07,0-2.07,2.584-2.07,3.989v3.591h-2.546V31.326z"/>
		<path style="fill:#FFFFFF;" d="M48.866,27.109h2.546v2.432h-2.546V27.109z M48.866,31.326h2.546v9.784h-2.546V31.326z"/>
		<path style="fill:#FFFFFF;" d="M59.904,33.378c-0.779-0.266-1.349-0.418-2.28-0.418c-0.684,0-1.501,0.247-1.501,1.083
			c0,1.558,4.427,0.57,4.427,4.104c0,2.279-2.033,3.191-4.104,3.191c-0.969,0-1.957-0.171-2.888-0.418l0.152-2.09
			c0.798,0.399,1.634,0.646,2.508,0.646c0.646,0,1.672-0.247,1.672-1.197c0-1.919-4.426-0.607-4.426-4.142
			c0-2.108,1.843-3.039,3.837-3.039c1.197,0,1.976,0.189,2.773,0.361L59.904,33.378z"/>
		<path style="fill:#FFFFFF;" d="M62.584,26.862h2.546v8.378h0.038l3.039-3.914h3.002l-3.647,4.37l4.103,5.414h-3.229l-3.267-4.75
			H65.13v4.75h-2.546V26.862z"/>
		<path style="fill:#FFFFFF;" d="M82.857,31.099c2.907,0,5.13,1.957,5.13,5.187c0,2.812-1.881,5.053-5.13,5.053
			c-3.229,0-5.11-2.241-5.11-5.053C77.746,33.056,79.969,31.099,82.857,31.099z M82.857,39.362c1.957,0,2.47-1.748,2.47-3.382
			c0-1.5-0.798-2.906-2.47-2.906c-1.652,0-2.45,1.444-2.45,2.906C80.406,37.596,80.919,39.362,82.857,39.362z"/>
		<path style="fill:#FFFFFF;" d="M90.912,33.188h-1.88v-1.862h1.88v-1.367c0-1.957,1.103-3.325,3.116-3.325
			c0.646,0,1.367,0.096,1.861,0.209l-0.209,2.109c-0.228-0.133-0.551-0.342-1.102-0.342c-0.854,0-1.121,0.74-1.121,1.5v1.216h2.223
			v1.862h-2.223v7.922h-2.546V33.188z"/>
		<path style="fill:#FFFFFF;" d="M14.419,64.56c-0.931,0.513-1.995,0.778-3.363,0.778c-3.229,0-5.11-1.861-5.11-5.072
			c0-2.83,1.5-5.167,4.54-5.167c3.628,0,4.654,2.488,4.654,5.908H8.378c0.114,1.576,1.216,2.47,2.792,2.47
			c1.235,0,2.298-0.456,3.249-0.988V64.56z M12.709,59.259c-0.076-1.234-0.646-2.299-2.071-2.299c-1.424,0-2.146,0.988-2.26,2.299
			H12.709z"/>
		<path style="fill:#FFFFFF;" d="M16.338,55.326h3.002l1.918,3.192l1.881-3.192h2.698l-2.926,4.654l3.306,5.13h-3.04l-2.185-3.647
			l-2.204,3.647h-2.792l3.363-5.13L16.338,55.326z"/>
		<path style="fill:#FFFFFF;" d="M27.701,55.326h2.432v1.387h0.038c0.57-0.949,1.539-1.614,3.04-1.614
			c3.002,0,4.104,2.394,4.104,5.091c0,2.679-1.102,5.148-4.16,5.148c-1.083,0-1.976-0.266-2.869-1.349h-0.038v5.11h-2.545V55.326z
			 M30.265,60.189c0,1.387,0.551,3.173,2.242,3.173c1.672,0,2.146-1.823,2.146-3.173c0-1.311-0.456-3.115-2.108-3.115
			C30.911,57.074,30.265,58.822,30.265,60.189z"/>
		<path style="fill:#FFFFFF;" d="M47.155,64.56c-0.931,0.513-1.995,0.778-3.363,0.778c-3.229,0-5.11-1.861-5.11-5.072
			c0-2.83,1.5-5.167,4.54-5.167c3.628,0,4.654,2.488,4.654,5.908h-6.763c0.114,1.576,1.216,2.47,2.792,2.47
			c1.235,0,2.299-0.456,3.249-0.988V64.56z M45.445,59.259c-0.076-1.234-0.646-2.299-2.071-2.299s-2.146,0.988-2.26,2.299H45.445z"
			/>
		<path style="fill:#FFFFFF;" d="M49.93,55.326h2.261v2.223h0.038c0.114-0.911,1.159-2.45,2.679-2.45c0.247,0,0.513,0,0.779,0.076
			v2.564c-0.228-0.133-0.684-0.209-1.14-0.209c-2.07,0-2.07,2.584-2.07,3.989v3.591H49.93V55.326z"/>
		<path style="fill:#FFFFFF;" d="M57.321,51.109h2.546v2.432h-2.546V51.109z M57.321,55.326h2.546v9.784h-2.546V55.326z"/>
		<path style="fill:#FFFFFF;" d="M70.393,64.56c-0.932,0.513-1.995,0.778-3.363,0.778c-3.229,0-5.109-1.861-5.109-5.072
			c0-2.83,1.5-5.167,4.54-5.167c3.628,0,4.654,2.488,4.654,5.908h-6.763c0.113,1.576,1.216,2.47,2.792,2.47
			c1.235,0,2.299-0.456,3.249-0.988V64.56z M68.683,59.259c-0.076-1.234-0.646-2.299-2.071-2.299c-1.424,0-2.146,0.988-2.26,2.299
			H68.683z"/>
		<path style="fill:#FFFFFF;" d="M73.11,55.326h2.413v1.33h0.037c0.799-1.121,1.881-1.558,3.211-1.558
			c2.317,0,3.324,1.634,3.324,3.837v6.175h-2.545v-5.225c0-1.196-0.02-2.812-1.653-2.812c-1.843,0-2.241,1.995-2.241,3.249v4.787
			H73.11V55.326z"/>
		<path style="fill:#FFFFFF;" d="M91.065,57.436c-0.456-0.209-0.95-0.361-1.729-0.361c-1.577,0-2.584,1.254-2.584,3.097
			c0,1.805,0.855,3.191,2.641,3.191c0.722,0,1.52-0.266,1.957-0.456l0.114,2.108c-0.741,0.229-1.501,0.323-2.546,0.323
			c-3.211,0-4.825-2.185-4.825-5.167c0-2.831,1.672-5.072,4.73-5.072c1.025,0,1.767,0.114,2.47,0.323L91.065,57.436z"/>
		<path style="fill:#FFFFFF;" d="M93.213,51.109h2.545v2.432h-2.545V51.109z M93.213,55.326h2.545v9.784h-2.545V55.326z"/>
		<path style="fill:#FFFFFF;" d="M98.438,55.326h2.413v1.33h0.038c0.798-1.121,1.881-1.558,3.21-1.558
			c2.318,0,3.325,1.634,3.325,3.837v6.175h-2.546v-5.225c0-1.196-0.02-2.812-1.653-2.812c-1.843,0-2.241,1.995-2.241,3.249v4.787
			h-2.546V55.326z"/>
		<path style="fill:#FFFFFF;" d="M119.032,55.326v8.834c0,2.66-1.064,5.167-5.168,5.167c-1.007,0-2.165-0.151-3.381-0.665
			l0.209-2.165c0.778,0.418,2.052,0.854,2.85,0.854c2.812,0,2.944-2.108,2.944-3.799h-0.038c-0.475,0.836-1.615,1.558-3.04,1.558
			c-2.887,0-3.989-2.318-3.989-4.939c0-2.355,1.216-5.072,4.142-5.072c1.292,0,2.299,0.437,3.002,1.558h0.038v-1.33H119.032z
			 M116.486,60.114c0-1.672-0.646-3.04-2.128-3.04c-1.729,0-2.279,1.596-2.279,3.097c0,1.33,0.703,2.964,2.165,2.964
			C115.84,63.135,116.486,61.748,116.486,60.114z"/>
		<path style="fill:#FFFFFF;" d="M7.009,79.84c0.988-0.456,2.318-0.741,3.401-0.741c2.982,0,4.217,1.234,4.217,4.122v1.254
			c0,0.988,0.019,1.729,0.038,2.451c0.019,0.74,0.057,1.425,0.114,2.185h-2.242c-0.095-0.513-0.095-1.159-0.114-1.463h-0.038
			c-0.589,1.083-1.862,1.69-3.021,1.69c-1.729,0-3.419-1.045-3.419-2.906c0-1.463,0.703-2.317,1.671-2.793
			c0.969-0.475,2.223-0.569,3.287-0.569h1.406c0-1.577-0.703-2.109-2.204-2.109c-1.083,0-2.166,0.418-3.021,1.064L7.009,79.84z
			 M9.992,87.477c0.779,0,1.387-0.342,1.786-0.874c0.418-0.551,0.532-1.254,0.532-2.014h-1.102c-1.14,0-2.831,0.189-2.831,1.69
			C8.378,87.115,9.08,87.477,9.992,87.477z"/>
		<path style="fill:#FFFFFF;" d="M17.137,79.326h2.413v1.33h0.038c0.798-1.121,1.881-1.558,3.211-1.558
			c2.317,0,3.324,1.634,3.324,3.837v6.175h-2.545v-5.225c0-1.196-0.019-2.812-1.653-2.812c-1.843,0-2.242,1.995-2.242,3.249v4.787
			h-2.545V79.326z"/>
		<path style="fill:#FFFFFF;" d="M40.259,89.11c-0.019-0.532-0.076-1.045-0.076-1.558h-0.038c-0.779,1.234-1.729,1.785-3.134,1.785
			c-1.957,0-3.705-0.969-3.705-3.115c0-3.021,3.287-3.382,5.11-3.382c0.551,0,1.159,0.058,1.596,0.133
			c-0.019-1.349-1.026-1.709-2.261-1.709c-1.102,0-2.204,0.209-3.153,0.74l-0.057-2.317c1.216-0.494,2.489-0.703,3.951-0.703
			c2.527,0,4.711,1.083,4.711,4.104v3.686c0,0.779,0.038,1.558,0.19,2.337H40.259z M37.903,87.059c1.292,0,2.109-1.178,2.109-2.337
			c-0.437-0.019-0.931-0.057-1.444-0.057c-1.159,0-2.071,0.36-2.071,1.311C36.497,86.659,37.105,87.059,37.903,87.059z"/>
		<path style="fill:#FFFFFF;" d="M45.2,86.374c0.798,0.343,1.976,0.685,3.21,0.685c0.703,0,1.387-0.114,1.387-0.798
			c0-1.672-4.863-0.494-4.863-4.065c0-2.28,2.242-3.211,4.217-3.211c1.178,0,2.375,0.133,3.477,0.57l-0.266,2.374
			c-0.722-0.437-1.805-0.664-2.66-0.664c-0.741,0-1.577,0.133-1.577,0.684c0,1.539,5.091,0.323,5.091,4.084
			c0,2.641-2.375,3.306-4.616,3.306c-1.539,0-2.583-0.151-3.59-0.475L45.2,86.374z"/>
		<path style="fill:#FFFFFF;" d="M54.016,79.213h2.014V76.99l3.363-1.045v3.268h2.394v2.394h-2.394v3.647
			c0,1.196,0.285,1.805,1.368,1.805c0.342,0,0.703-0.076,1.045-0.133l0.114,2.223c-0.646,0.075-1.292,0.189-2.147,0.189
			c-3.059,0-3.8-1.349-3.8-3.704v-4.027h-1.957V79.213z"/>
		<path style="fill:#FFFFFF;" d="M63.325,74.862h3.42v5.813h0.038c0.74-1.026,1.823-1.691,3.305-1.691
			c2.698,0,3.781,1.9,3.781,3.951v6.175h-3.42v-4.787c0-1.862-0.646-2.489-1.577-2.489c-1.405,0-2.127,0.969-2.127,3.097v4.18h-3.42
			V74.862z"/>
		<path style="fill:#FFFFFF;" d="M75.998,79.213h3.115v1.823h0.038c0.685-1.425,2.052-2.052,3.609-2.052
			c1.406,0,2.565,0.608,3.098,1.9c0.798-1.33,2.108-1.9,3.514-1.9c2.85,0,3.496,1.615,3.496,4.294v5.832h-3.42v-5.319
			c0-1.121-0.398-1.957-1.367-1.957c-1.216,0-1.938,0.969-1.938,3.097v4.18h-3.419v-5.319c0-1.121-0.399-1.957-1.368-1.957
			c-1.216,0-1.938,0.969-1.938,3.097v4.18h-3.42V79.213z"/>
		<path style="fill:#FFFFFF;" d="M101.477,89.11c-0.02-0.532-0.076-1.045-0.076-1.558h-0.038c-0.778,1.234-1.729,1.785-3.135,1.785
			c-1.956,0-3.704-0.969-3.704-3.115c0-3.021,3.286-3.382,5.11-3.382c0.551,0,1.159,0.058,1.596,0.133
			c-0.019-1.349-1.025-1.709-2.261-1.709c-1.102,0-2.203,0.209-3.153,0.74l-0.057-2.317c1.215-0.494,2.488-0.703,3.951-0.703
			c2.526,0,4.711,1.083,4.711,4.104v3.686c0,0.779,0.038,1.558,0.19,2.337H101.477z M99.121,87.059c1.292,0,2.108-1.178,2.108-2.337
			c-0.437-0.019-0.931-0.057-1.443-0.057c-1.159,0-2.071,0.36-2.071,1.311C97.715,86.659,98.323,87.059,99.121,87.059z"/>
		<path style="fill:#FFFFFF;" d="M9.308,109.158c0.19,1.368,1.235,1.9,2.907,1.9c0.931,0,1.995-0.209,3.021-0.76v2.412
			c-1.102,0.438-2.356,0.627-3.628,0.627c-3.268,0-5.756-1.919-5.756-5.187c0-3.267,2.223-5.167,5.3-5.167
			c3.667,0,4.996,2.603,4.996,5.548v0.626H9.308z M13.069,107.221c0-1.14-0.532-2.07-1.899-2.07c-1.235,0-1.824,0.931-1.9,2.07
			H13.069z"/>
		<path style="fill:#FFFFFF;" d="M20.404,108.076l-3.097-4.863h4.046l1.463,2.963l1.539-2.963h3.743l-3.097,4.825l3.306,5.072
			h-4.123l-1.653-3.078l-1.634,3.078h-3.856L20.404,108.076z"/>
		<path style="fill:#FFFFFF;" d="M36.022,113.11c-0.019-0.532-0.076-1.045-0.076-1.558h-0.038c-0.779,1.234-1.729,1.785-3.134,1.785
			c-1.957,0-3.705-0.969-3.705-3.115c0-3.021,3.287-3.382,5.11-3.382c0.551,0,1.159,0.058,1.596,0.133
			c-0.019-1.349-1.026-1.709-2.261-1.709c-1.102,0-2.204,0.209-3.153,0.74l-0.057-2.317c1.216-0.494,2.489-0.703,3.951-0.703
			c2.527,0,4.711,1.083,4.711,4.104v3.686c0,0.779,0.038,1.558,0.19,2.337H36.022z M33.666,111.059c1.292,0,2.109-1.178,2.109-2.337
			c-0.437-0.019-0.931-0.057-1.444-0.057c-1.159,0-2.071,0.36-2.071,1.311C32.26,110.659,32.868,111.059,33.666,111.059z"/>
		<path style="fill:#FFFFFF;" d="M48.903,106.043c-0.626-0.38-1.253-0.551-2.07-0.551c-1.482,0-2.622,1.026-2.622,2.735
			c0,1.577,1.33,2.603,2.812,2.603c0.779,0,1.558-0.171,2.127-0.475l0.076,2.546c-0.855,0.285-1.881,0.437-2.792,0.437
			c-3.268,0-5.756-1.899-5.756-5.167c0-3.286,2.489-5.187,5.756-5.187c1.026,0,1.938,0.171,2.716,0.551L48.903,106.043z"/>
		<path style="fill:#FFFFFF;" d="M53.635,109.158c0.19,1.368,1.235,1.9,2.907,1.9c0.931,0,1.995-0.209,3.021-0.76v2.412
			c-1.102,0.438-2.356,0.627-3.628,0.627c-3.268,0-5.756-1.919-5.756-5.187c0-3.267,2.223-5.167,5.3-5.167
			c3.667,0,4.996,2.603,4.996,5.548v0.626H53.635z M57.396,107.221c0-1.14-0.532-2.07-1.899-2.07c-1.235,0-1.824,0.931-1.9,2.07
			H57.396z"/>
		<path style="fill:#FFFFFF;" d="M69.328,105.948c-0.38-0.114-0.76-0.114-1.158-0.114c-1.597,0-2.489,1.159-2.489,3.097v4.18h-3.419
			v-9.897h3.115v1.823h0.038c0.589-1.254,1.443-2.052,2.926-2.052c0.398,0,0.816,0.058,1.158,0.114L69.328,105.948z"/>
		<path style="fill:#FFFFFF;" d="M70.621,98.862h3.438v5.623h0.038c0.874-1.102,2.032-1.501,3.4-1.501
			c2.735,0,4.236,2.603,4.236,4.996c0,2.926-1.577,5.357-4.521,5.357c-1.577,0-2.964-0.893-3.4-1.994h-0.038v1.767h-3.153V98.862z
			 M76.13,105.606c-1.254,0-2.09,1.102-2.09,2.583c0,1.444,0.95,2.527,2.09,2.527c1.292,0,2.071-1.083,2.071-2.66
			C78.201,106.746,77.46,105.606,76.13,105.606z"/>
		<path style="fill:#FFFFFF;" d="M89.867,113.11c-0.02-0.532-0.076-1.045-0.076-1.558h-0.038c-0.778,1.234-1.729,1.785-3.135,1.785
			c-1.957,0-3.704-0.969-3.704-3.115c0-3.021,3.286-3.382,5.11-3.382c0.551,0,1.159,0.058,1.596,0.133
			c-0.019-1.349-1.025-1.709-2.261-1.709c-1.102,0-2.204,0.209-3.153,0.74l-0.058-2.317c1.216-0.494,2.489-0.703,3.952-0.703
			c2.526,0,4.711,1.083,4.711,4.104v3.686c0,0.779,0.038,1.558,0.19,2.337H89.867z M87.512,111.059c1.292,0,2.108-1.178,2.108-2.337
			c-0.437-0.019-0.931-0.057-1.443-0.057c-1.159,0-2.071,0.36-2.071,1.311C86.106,110.659,86.714,111.059,87.512,111.059z"/>
		<path style="fill:#FFFFFF;" d="M94.124,103.213h2.014v-2.223l3.362-1.045v3.268h2.394v2.394H99.5v3.647
			c0,1.196,0.285,1.805,1.367,1.805c0.343,0,0.703-0.076,1.045-0.133l0.114,2.223c-0.646,0.075-1.292,0.189-2.146,0.189
			c-3.059,0-3.8-1.349-3.8-3.704v-4.027h-1.956V103.213z"/>
		<path style="fill:#FFFFFF;" d="M107.251,101.598h-3.419V99.09h3.419V101.598z M103.832,103.213h3.419v9.897h-3.419V103.213z"/>
		<path style="fill:#FFFFFF;" d="M109.304,108.171c0-3.286,2.488-5.187,5.756-5.187s5.757,1.9,5.757,5.187
			c0,3.268-2.489,5.167-5.757,5.167S109.304,111.438,109.304,108.171z M117.282,108.171c0-1.481-0.646-2.793-2.223-2.793
			c-1.576,0-2.223,1.312-2.223,2.793c0,1.463,0.646,2.773,2.223,2.773C116.637,110.944,117.282,109.634,117.282,108.171z"/>
		<path style="fill:#FFFFFF;" d="M122.471,103.213h3.116v1.823h0.038c0.684-1.425,2.052-2.052,3.609-2.052
			c2.697,0,3.78,1.9,3.78,3.951v6.175h-3.42v-4.787c0-1.862-0.646-2.489-1.576-2.489c-1.406,0-2.128,0.969-2.128,3.097v4.18h-3.42
			V103.213z"/>
		<path style="fill:#FFFFFF;" d="M140.634,104.087l1.824,2.032l-1.748,1.254l-1.349-2.355l-1.443,2.355l-1.729-1.254l1.862-2.032
			l-2.603-0.59l0.627-1.976l2.526,1.083l-0.304-2.755h2.165l-0.322,2.736l2.526-1.064l0.607,1.976L140.634,104.087z"/>
	</g>
</g>
</svg>
