<?xml version="1.0" encoding="iso-8859-1"?>
<!-- Generator: Adobe Illustrator 19.1.0, SVG Export Plug-In . SVG Version: 6.00 Build 0)  -->
<svg version="1.1" xmlns="http://www.w3.org/2000/svg" xmlns:xlink="http://www.w3.org/1999/xlink" x="0px" y="0px"
	 viewBox="0 0 150.557 164" style="enable-background:new 0 0 150.557 164;" xml:space="preserve">
<g id="Layer_1">
	<g>
		<path style="fill:#FFFFFF;" d="M13.293,16.171H9.292v-2.2h10.803v2.2h-4.001v11.763h-2.801V16.171z"/>
		<path style="fill:#FFFFFF;" d="M19.853,17.631h2.381v2.341h0.04c0.12-0.96,1.22-2.581,2.82-2.581c0.26,0,0.54,0,0.82,0.08v2.701
			c-0.24-0.141-0.721-0.221-1.2-0.221c-2.181,0-2.181,2.721-2.181,4.201v3.781h-2.681V17.631z"/>
		<path style="fill:#FFFFFF;" d="M35.475,27.354c-0.98,0.54-2.101,0.82-3.541,0.82c-3.4,0-5.381-1.961-5.381-5.342
			c0-2.98,1.58-5.441,4.78-5.441c3.821,0,4.901,2.621,4.901,6.222h-7.121c0.12,1.66,1.28,2.601,2.94,2.601
			c1.3,0,2.42-0.48,3.421-1.04V27.354z M33.674,21.772c-0.08-1.301-0.68-2.421-2.181-2.421c-1.5,0-2.26,1.04-2.38,2.421H33.674z"/>
		<path style="fill:#FFFFFF;" d="M38.793,18.171c1.04-0.479,2.44-0.78,3.581-0.78c3.141,0,4.44,1.301,4.44,4.342v1.32
			c0,1.04,0.021,1.82,0.04,2.58c0.02,0.78,0.06,1.5,0.12,2.301h-2.36c-0.101-0.54-0.101-1.221-0.12-1.541h-0.04
			c-0.62,1.141-1.961,1.781-3.181,1.781c-1.82,0-3.601-1.101-3.601-3.062c0-1.54,0.74-2.44,1.76-2.94c1.021-0.5,2.341-0.6,3.461-0.6
			h1.48c0-1.66-0.74-2.221-2.32-2.221c-1.141,0-2.28,0.44-3.181,1.12L38.793,18.171z M41.934,26.213c0.82,0,1.46-0.36,1.88-0.92
			c0.44-0.58,0.561-1.32,0.561-2.121h-1.16c-1.2,0-2.98,0.2-2.98,1.781C40.234,25.833,40.974,26.213,41.934,26.213z"/>
		<path style="fill:#FFFFFF;" d="M50.333,19.592h-1.98v-1.961h1.98V15.57l2.681-0.859v2.92h2.381v1.961h-2.381v4.801
			c0,0.88,0.24,1.7,1.26,1.7c0.48,0,0.94-0.1,1.221-0.28l0.08,2.121c-0.561,0.16-1.181,0.24-1.98,0.24
			c-2.101,0-3.261-1.301-3.261-3.341V19.592z"/>
		<path style="fill:#FFFFFF;" d="M57.293,13.19h2.681v2.561h-2.681V13.19z M57.293,17.631h2.681v10.303h-2.681V17.631z"/>
		<path style="fill:#FFFFFF;" d="M62.793,17.631h2.54v1.4h0.04c0.84-1.18,1.98-1.641,3.381-1.641c2.44,0,3.501,1.721,3.501,4.041
			v6.502h-2.681v-5.501c0-1.261-0.021-2.961-1.74-2.961c-1.94,0-2.36,2.101-2.36,3.421v5.041h-2.681V17.631z"/>
		<path style="fill:#FFFFFF;" d="M84.475,17.631v9.303c0,2.8-1.12,5.44-5.441,5.44c-1.06,0-2.28-0.16-3.561-0.7l0.22-2.28
			c0.82,0.44,2.161,0.9,3.001,0.9c2.961,0,3.101-2.221,3.101-4.001h-0.04c-0.5,0.88-1.7,1.641-3.2,1.641
			c-3.041,0-4.201-2.44-4.201-5.201c0-2.48,1.28-5.342,4.361-5.342c1.359,0,2.42,0.461,3.16,1.641h0.04v-1.4H84.475z M81.794,22.672
			c0-1.76-0.68-3.2-2.24-3.2c-1.82,0-2.4,1.681-2.4,3.261c0,1.4,0.74,3.12,2.28,3.12C81.114,25.853,81.794,24.393,81.794,22.672z"/>
		<path style="fill:#FFFFFF;" d="M93.252,18.171c1.04-0.479,2.44-0.78,3.58-0.78c3.141,0,4.441,1.301,4.441,4.342v1.32
			c0,1.04,0.02,1.82,0.04,2.58c0.02,0.78,0.06,1.5,0.12,2.301h-2.36c-0.101-0.54-0.101-1.221-0.12-1.541h-0.04
			c-0.62,1.141-1.961,1.781-3.181,1.781c-1.82,0-3.602-1.101-3.602-3.062c0-1.54,0.74-2.44,1.761-2.94s2.341-0.6,3.461-0.6h1.48
			c0-1.66-0.74-2.221-2.32-2.221c-1.141,0-2.281,0.44-3.182,1.12L93.252,18.171z M96.393,26.213c0.819,0,1.46-0.36,1.88-0.92
			c0.44-0.58,0.561-1.32,0.561-2.121h-1.16c-1.2,0-2.981,0.2-2.981,1.781C94.692,25.833,95.432,26.213,96.393,26.213z"/>
		<path style="fill:#FFFFFF;" d="M110.775,26.773h-0.04c-0.801,1-1.9,1.4-3.161,1.4c-3.16,0-4.321-2.601-4.321-5.422
			c0-2.84,1.161-5.361,4.321-5.361c1.341,0,2.28,0.461,3.081,1.44h0.04V12.93h2.681v15.004h-2.601V26.773z M108.314,26.093
			c1.78,0,2.36-1.88,2.36-3.341c0-1.44-0.68-3.28-2.4-3.28c-1.74,0-2.221,1.9-2.221,3.28
			C106.053,24.173,106.553,26.093,108.314,26.093z"/>
		<path style="fill:#FFFFFF;" d="M125.594,27.934h-2.541v-1.4h-0.04c-0.82,1-1.98,1.641-3.381,1.641
			c-2.44,0-3.501-1.721-3.501-4.041v-6.502h2.681v5.502c0,1.26,0.021,2.96,1.74,2.96c1.94,0,2.361-2.101,2.361-3.421v-5.041h2.681
			V27.934z"/>
		<path style="fill:#FFFFFF;" d="M128.412,12.93h2.681v15.004h-2.681V12.93z"/>
		<path style="fill:#FFFFFF;" d="M134.791,19.592h-1.98v-1.961h1.98V15.57l2.681-0.859v2.92h2.38v1.961h-2.38v4.801
			c0,0.88,0.239,1.7,1.26,1.7c0.48,0,0.94-0.1,1.221-0.28l0.08,2.121c-0.561,0.16-1.181,0.24-1.98,0.24
			c-2.101,0-3.261-1.301-3.261-3.341V19.592z"/>
		<path style="fill:#FFFFFF;" d="M13.313,41.631h2.561v1.461h0.04c0.601-1.001,1.62-1.701,3.201-1.701c3.16,0,4.32,2.521,4.32,5.361
			c0,2.821-1.16,5.422-4.381,5.422c-1.14,0-2.08-0.28-3.021-1.421h-0.04v5.381h-2.681V41.631z M16.014,46.752
			c0,1.461,0.58,3.341,2.36,3.341c1.76,0,2.26-1.92,2.26-3.341c0-1.38-0.479-3.28-2.22-3.28
			C16.693,43.472,16.014,45.312,16.014,46.752z"/>
		<path style="fill:#FFFFFF;" d="M25.992,42.171c1.04-0.479,2.44-0.78,3.581-0.78c3.141,0,4.441,1.301,4.441,4.342v1.32
			c0,1.04,0.02,1.82,0.04,2.58c0.02,0.78,0.06,1.5,0.119,2.301h-2.36c-0.1-0.54-0.1-1.221-0.12-1.541h-0.04
			c-0.62,1.141-1.96,1.781-3.181,1.781c-1.82,0-3.601-1.101-3.601-3.062c0-1.54,0.74-2.44,1.761-2.94s2.34-0.6,3.461-0.6h1.479
			c0-1.66-0.739-2.221-2.32-2.221c-1.14,0-2.28,0.44-3.181,1.12L25.992,42.171z M29.133,50.213c0.82,0,1.461-0.36,1.881-0.92
			c0.44-0.58,0.56-1.32,0.56-2.121h-1.16c-1.2,0-2.98,0.2-2.98,1.781C27.433,49.833,28.173,50.213,29.133,50.213z"/>
		<path style="fill:#FFFFFF;" d="M37.532,43.592h-1.979v-1.961h1.979V39.57l2.681-0.859v2.92h2.381v1.961h-2.381v4.801
			c0,0.88,0.24,1.7,1.261,1.7c0.48,0,0.94-0.1,1.22-0.28l0.08,2.121c-0.56,0.16-1.18,0.24-1.98,0.24c-2.1,0-3.261-1.301-3.261-3.341
			V43.592z"/>
		<path style="fill:#FFFFFF;" d="M44.492,37.19h2.681v2.561h-2.681V37.19z M44.492,41.631h2.681v10.303h-2.681V41.631z"/>
		<path style="fill:#FFFFFF;" d="M58.254,51.354c-0.98,0.54-2.101,0.82-3.541,0.82c-3.4,0-5.381-1.961-5.381-5.342
			c0-2.98,1.58-5.441,4.781-5.441c3.82,0,4.901,2.621,4.901,6.222h-7.122c0.12,1.66,1.28,2.601,2.94,2.601
			c1.301,0,2.421-0.48,3.421-1.04V51.354z M56.454,45.772c-0.08-1.301-0.681-2.421-2.181-2.421c-1.501,0-2.261,1.04-2.381,2.421
			H56.454z"/>
		<path style="fill:#FFFFFF;" d="M61.112,41.631h2.541v1.4h0.04c0.84-1.18,1.98-1.641,3.381-1.641c2.44,0,3.5,1.721,3.5,4.041v6.502
			h-2.681v-5.501c0-1.261-0.02-2.961-1.74-2.961c-1.94,0-2.36,2.101-2.36,3.421v5.041h-2.681V41.631z"/>
		<path style="fill:#FFFFFF;" d="M74.212,43.592h-1.979v-1.961h1.979V39.57l2.681-0.859v2.92h2.381v1.961h-2.381v4.801
			c0,0.88,0.24,1.7,1.261,1.7c0.479,0,0.939-0.1,1.22-0.28l0.08,2.121c-0.56,0.16-1.18,0.24-1.98,0.24
			c-2.101,0-3.261-1.301-3.261-3.341V43.592z"/>
		<path style="fill:#FFFFFF;" d="M87.234,43.792c-0.82-0.28-1.421-0.44-2.4-0.44c-0.721,0-1.581,0.26-1.581,1.141
			c0,1.64,4.661,0.6,4.661,4.32c0,2.4-2.141,3.361-4.321,3.361c-1.02,0-2.06-0.181-3.04-0.44l0.16-2.2
			c0.84,0.42,1.72,0.68,2.641,0.68c0.68,0,1.76-0.26,1.76-1.26c0-2.021-4.661-0.641-4.661-4.361c0-2.221,1.94-3.201,4.041-3.201
			c1.261,0,2.081,0.2,2.921,0.381L87.234,43.792z"/>
		<path style="fill:#FFFFFF;" d="M94.391,41.631h2.841l2.28,7.622h0.04l2.081-7.622h3.12l2.24,7.622h0.04l2.141-7.622h2.561
			l-3.16,10.303h-3.161l-2.24-7.862h-0.04l-2.2,7.862h-3.061L94.391,41.631z"/>
		<path style="fill:#FFFFFF;" d="M113.392,37.19h2.681v2.561h-2.681V37.19z M113.392,41.631h2.681v10.303h-2.681V41.631z"/>
		<path style="fill:#FFFFFF;" d="M119.772,43.592h-1.98v-1.961h1.98V39.57l2.681-0.859v2.92h2.38v1.961h-2.38v4.801
			c0,0.88,0.239,1.7,1.26,1.7c0.48,0,0.94-0.1,1.221-0.28l0.08,2.121c-0.561,0.16-1.181,0.24-1.98,0.24
			c-2.101,0-3.261-1.301-3.261-3.341V43.592z"/>
		<path style="fill:#FFFFFF;" d="M126.671,36.93h2.681v6.102h0.04c0.681-1,1.841-1.641,3.241-1.641c2.44,0,3.501,1.721,3.501,4.041
			v6.502h-2.681v-5.501c0-1.261-0.021-2.961-1.741-2.961c-1.939,0-2.36,2.101-2.36,3.421v5.041h-2.681V36.93z"/>
		<path style="fill:#FFFFFF;" d="M35.443,66.171c1.04-0.479,2.44-0.78,3.581-0.78c3.141,0,4.441,1.301,4.441,4.342v1.32
			c0,1.04,0.02,1.82,0.04,2.58c0.02,0.78,0.06,1.5,0.119,2.301h-2.36c-0.1-0.54-0.1-1.221-0.12-1.541h-0.04
			c-0.62,1.141-1.96,1.781-3.181,1.781c-1.82,0-3.601-1.101-3.601-3.062c0-1.54,0.74-2.44,1.761-2.94s2.34-0.6,3.461-0.6h1.479
			c0-1.66-0.739-2.221-2.32-2.221c-1.14,0-2.28,0.44-3.181,1.12L35.443,66.171z M38.583,74.213c0.82,0,1.461-0.36,1.881-0.92
			c0.44-0.58,0.56-1.32,0.56-2.121h-1.16c-1.2,0-2.98,0.2-2.98,1.781C36.883,73.833,37.623,74.213,38.583,74.213z"/>
		<path style="fill:#FFFFFF;" d="M51.663,60.93h2.681v6.102h0.04c0.68-1,1.84-1.641,3.24-1.641c2.44,0,3.501,1.721,3.501,4.041
			v6.502h-2.681v-5.501c0-1.261-0.021-2.961-1.74-2.961c-1.94,0-2.36,2.101-2.36,3.421v5.041h-2.681V60.93z"/>
		<path style="fill:#FFFFFF;" d="M63.943,61.19h2.681v2.561h-2.681V61.19z M63.943,65.631h2.681v10.303h-2.681V65.631z"/>
		<path style="fill:#FFFFFF;" d="M75.564,67.792c-0.82-0.28-1.42-0.44-2.4-0.44c-0.72,0-1.58,0.26-1.58,1.141
			c0,1.64,4.661,0.6,4.661,4.32c0,2.4-2.141,3.361-4.321,3.361c-1.02,0-2.061-0.181-3.04-0.44l0.159-2.2
			c0.841,0.42,1.721,0.68,2.641,0.68c0.681,0,1.761-0.26,1.761-1.26c0-2.021-4.661-0.641-4.661-4.361
			c0-2.221,1.94-3.201,4.041-3.201c1.26,0,2.08,0.2,2.92,0.381L75.564,67.792z"/>
		<path style="fill:#FFFFFF;" d="M79.202,67.592h-1.98v-1.961h1.98V63.57l2.681-0.859v2.92h2.38v1.961h-2.38v4.801
			c0,0.88,0.239,1.7,1.26,1.7c0.48,0,0.94-0.1,1.221-0.28l0.08,2.121c-0.561,0.16-1.181,0.24-1.98,0.24
			c-2.101,0-3.261-1.301-3.261-3.341V67.592z"/>
		<path style="fill:#FFFFFF;" d="M90.823,65.391c3.061,0,5.401,2.061,5.401,5.462c0,2.96-1.98,5.321-5.401,5.321
			c-3.401,0-5.382-2.361-5.382-5.321C85.442,67.451,87.782,65.391,90.823,65.391z M90.823,74.093c2.061,0,2.601-1.84,2.601-3.561
			c0-1.58-0.841-3.061-2.601-3.061c-1.74,0-2.581,1.521-2.581,3.061C88.242,72.232,88.782,74.093,90.823,74.093z"/>
		<path style="fill:#FFFFFF;" d="M98.382,65.631h2.381v2.341h0.039c0.12-0.96,1.221-2.581,2.821-2.581c0.26,0,0.54,0,0.82,0.08
			v2.701c-0.24-0.141-0.721-0.221-1.2-0.221c-2.181,0-2.181,2.721-2.181,4.201v3.781h-2.681V65.631z"/>
		<path style="fill:#FFFFFF;" d="M110.383,73.152h0.04l2.48-7.521h2.721l-3.861,10.223c-0.859,2.28-1.479,4.521-4.28,4.521
			c-0.641,0-1.28-0.1-1.9-0.279l0.18-1.98c0.34,0.119,0.721,0.18,1.381,0.18c1.08,0,1.74-0.74,1.74-1.841l-3.941-10.822h2.961
			L110.383,73.152z"/>
		<path style="fill:#FFFFFF;" d="M33.594,89.391c3.061,0,5.401,2.061,5.401,5.462c0,2.96-1.98,5.321-5.401,5.321
			c-3.4,0-5.381-2.361-5.381-5.321C28.213,91.451,30.553,89.391,33.594,89.391z M33.594,98.093c2.061,0,2.601-1.84,2.601-3.561
			c0-1.58-0.84-3.061-2.601-3.061c-1.74,0-2.581,1.521-2.581,3.061C31.013,96.232,31.554,98.093,33.594,98.093z"/>
		<path style="fill:#FFFFFF;" d="M42.072,91.592h-1.98v-1.961h1.98v-1.44c0-2.06,1.16-3.5,3.281-3.5c0.68,0,1.44,0.1,1.96,0.22
			l-0.22,2.221c-0.24-0.141-0.58-0.36-1.16-0.36c-0.9,0-1.181,0.78-1.181,1.58v1.28h2.341v1.961h-2.341v8.342h-2.681V91.592z"/>
		<path style="fill:#FFFFFF;" d="M54.893,90.171c1.04-0.479,2.44-0.78,3.581-0.78c3.141,0,4.44,1.301,4.44,4.342v1.32
			c0,1.04,0.021,1.82,0.04,2.58c0.02,0.78,0.06,1.5,0.12,2.301h-2.36c-0.101-0.54-0.101-1.221-0.12-1.541h-0.04
			c-0.62,1.141-1.961,1.781-3.181,1.781c-1.82,0-3.601-1.101-3.601-3.062c0-1.54,0.74-2.44,1.76-2.94c1.021-0.5,2.341-0.6,3.461-0.6
			h1.48c0-1.66-0.74-2.221-2.32-2.221c-1.141,0-2.28,0.44-3.181,1.12L54.893,90.171z M58.033,98.213c0.82,0,1.46-0.36,1.88-0.92
			c0.44-0.58,0.561-1.32,0.561-2.121h-1.16c-1.2,0-2.98,0.2-2.98,1.781C56.333,97.833,57.073,98.213,58.033,98.213z"/>
		<path style="fill:#FFFFFF;" d="M71.674,91.792c-0.82-0.28-1.421-0.44-2.4-0.44c-0.721,0-1.581,0.26-1.581,1.141
			c0,1.64,4.661,0.6,4.661,4.32c0,2.4-2.14,3.361-4.32,3.361c-1.021,0-2.061-0.181-3.041-0.44l0.16-2.2
			c0.84,0.42,1.721,0.68,2.641,0.68c0.68,0,1.761-0.26,1.761-1.26c0-2.021-4.661-0.641-4.661-4.361c0-2.221,1.94-3.201,4.041-3.201
			c1.26,0,2.08,0.2,2.92,0.381L71.674,91.792z"/>
		<path style="fill:#FFFFFF;" d="M75.313,91.592h-1.98v-1.961h1.98V87.57l2.681-0.859v2.92h2.38v1.961h-2.38v4.801
			c0,0.88,0.239,1.7,1.26,1.7c0.48,0,0.94-0.1,1.221-0.28l0.08,2.121c-0.561,0.16-1.181,0.24-1.98,0.24
			c-2.101,0-3.261-1.301-3.261-3.341V91.592z"/>
		<path style="fill:#FFFFFF;" d="M82.212,84.93h2.681v6.102h0.04c0.681-1,1.841-1.641,3.241-1.641c2.44,0,3.501,1.721,3.501,4.041
			v6.502h-2.681v-5.501c0-1.261-0.021-2.961-1.741-2.961c-1.939,0-2.36,2.101-2.36,3.421v5.041h-2.681V84.93z"/>
		<path style="fill:#FFFFFF;" d="M94.392,89.631h2.501v1.44h0.04c0.84-1.26,2.061-1.681,3.061-1.681c1.44,0,2.461,0.541,3.041,1.821
			c0.62-1.24,1.96-1.821,3.221-1.821c2.54,0,3.261,1.741,3.261,4.041v6.502h-2.681v-6.142c0-0.96,0-2.32-1.541-2.32
			c-1.78,0-2,2.12-2,3.461v5.001h-2.681v-6.142c0-0.96,0-2.32-1.54-2.32c-1.78,0-2.001,2.12-2.001,3.461v5.001h-2.681V89.631z"/>
		<path style="fill:#FFFFFF;" d="M112.673,90.171c1.04-0.479,2.44-0.78,3.58-0.78c3.141,0,4.441,1.301,4.441,4.342v1.32
			c0,1.04,0.02,1.82,0.04,2.58c0.02,0.78,0.06,1.5,0.12,2.301h-2.36c-0.101-0.54-0.101-1.221-0.12-1.541h-0.04
			c-0.62,1.141-1.961,1.781-3.181,1.781c-1.82,0-3.602-1.101-3.602-3.062c0-1.54,0.74-2.44,1.761-2.94s2.341-0.6,3.461-0.6h1.48
			c0-1.66-0.74-2.221-2.32-2.221c-1.141,0-2.281,0.44-3.181,1.12L112.673,90.171z M115.814,98.213c0.819,0,1.46-0.36,1.88-0.92
			c0.44-0.58,0.561-1.32,0.561-2.121h-1.16c-1.2,0-2.981,0.2-2.981,1.781C114.112,97.833,114.853,98.213,115.814,98.213z"/>
		<path style="fill:#FFFFFF;" d="M13.795,123.354c-0.98,0.54-2.101,0.82-3.541,0.82c-3.4,0-5.381-1.961-5.381-5.342
			c0-2.98,1.58-5.441,4.78-5.441c3.821,0,4.901,2.621,4.901,6.222H7.434c0.12,1.66,1.28,2.601,2.94,2.601
			c1.3,0,2.42-0.48,3.421-1.04V123.354z M11.994,117.772c-0.08-1.301-0.68-2.421-2.181-2.421c-1.5,0-2.26,1.04-2.38,2.421H11.994z"
			/>
		<path style="fill:#FFFFFF;" d="M15.813,113.631h3.161l2.021,3.361l1.98-3.361h2.841l-3.081,4.901l3.48,5.401h-3.2l-2.301-3.841
			l-2.32,3.841h-2.94l3.54-5.401L15.813,113.631z"/>
		<path style="fill:#FFFFFF;" d="M28.234,114.171c1.04-0.479,2.44-0.78,3.581-0.78c3.141,0,4.44,1.301,4.44,4.342v1.32
			c0,1.04,0.021,1.82,0.04,2.58c0.02,0.78,0.06,1.5,0.12,2.301h-2.36c-0.101-0.54-0.101-1.221-0.12-1.541h-0.04
			c-0.62,1.141-1.961,1.781-3.181,1.781c-1.82,0-3.601-1.101-3.601-3.062c0-1.54,0.74-2.44,1.76-2.94c1.021-0.5,2.341-0.6,3.461-0.6
			h1.48c0-1.66-0.74-2.221-2.32-2.221c-1.141,0-2.28,0.44-3.181,1.12L28.234,114.171z M31.374,122.213c0.82,0,1.46-0.36,1.88-0.92
			c0.44-0.58,0.561-1.32,0.561-2.121h-1.16c-1.2,0-2.98,0.2-2.98,1.781C29.674,121.833,30.414,122.213,31.374,122.213z"/>
		<path style="fill:#FFFFFF;" d="M45.574,115.852c-0.479-0.22-1-0.38-1.82-0.38c-1.66,0-2.721,1.32-2.721,3.261
			c0,1.9,0.9,3.36,2.781,3.36c0.76,0,1.601-0.28,2.061-0.479l0.12,2.22c-0.78,0.24-1.581,0.341-2.681,0.341
			c-3.381,0-5.081-2.301-5.081-5.441c0-2.98,1.76-5.342,4.98-5.342c1.08,0,1.86,0.12,2.601,0.341L45.574,115.852z"/>
		<path style="fill:#FFFFFF;" d="M56.035,123.354c-0.98,0.54-2.101,0.82-3.541,0.82c-3.4,0-5.381-1.961-5.381-5.342
			c0-2.98,1.58-5.441,4.78-5.441c3.821,0,4.901,2.621,4.901,6.222h-7.121c0.12,1.66,1.28,2.601,2.94,2.601
			c1.3,0,2.42-0.48,3.421-1.04V123.354z M54.235,117.772c-0.08-1.301-0.68-2.421-2.181-2.421c-1.5,0-2.26,1.04-2.38,2.421H54.235z"
			/>
		<path style="fill:#FFFFFF;" d="M58.953,113.631h2.381v2.341h0.04c0.12-0.96,1.22-2.581,2.82-2.581c0.26,0,0.54,0,0.82,0.08v2.701
			c-0.24-0.141-0.721-0.221-1.2-0.221c-2.181,0-2.181,2.721-2.181,4.201v3.781h-2.681V113.631z"/>
		<path style="fill:#FFFFFF;" d="M66.673,108.93h2.681v6.021h0.04c0.74-0.979,1.681-1.561,3.081-1.561c3.16,0,4.32,2.521,4.32,5.361
			c0,2.821-1.16,5.422-4.32,5.422c-1.141,0-2.381-0.4-3.161-1.501h-0.04v1.261h-2.601V108.93z M71.735,122.093
			c1.76,0,2.26-1.92,2.26-3.341c0-1.38-0.479-3.28-2.22-3.28c-1.721,0-2.4,1.84-2.4,3.28
			C69.374,120.213,69.954,122.093,71.735,122.093z"/>
		<path style="fill:#FFFFFF;" d="M79.354,114.171c1.04-0.479,2.44-0.78,3.58-0.78c3.141,0,4.441,1.301,4.441,4.342v1.32
			c0,1.04,0.02,1.82,0.04,2.58c0.02,0.78,0.06,1.5,0.12,2.301h-2.36c-0.101-0.54-0.101-1.221-0.12-1.541h-0.04
			c-0.62,1.141-1.961,1.781-3.181,1.781c-1.82,0-3.602-1.101-3.602-3.062c0-1.54,0.74-2.44,1.761-2.94s2.341-0.6,3.461-0.6h1.48
			c0-1.66-0.74-2.221-2.32-2.221c-1.141,0-2.281,0.44-3.182,1.12L79.354,114.171z M82.494,122.213c0.819,0,1.46-0.36,1.88-0.92
			c0.44-0.58,0.561-1.32,0.561-2.121h-1.16c-1.2,0-2.981,0.2-2.981,1.781C80.793,121.833,81.533,122.213,82.494,122.213z"/>
		<path style="fill:#FFFFFF;" d="M90.894,115.592h-1.98v-1.961h1.98v-2.061l2.681-0.859v2.92h2.38v1.961h-2.38v4.801
			c0,0.88,0.239,1.7,1.26,1.7c0.48,0,0.94-0.1,1.221-0.28l0.08,2.121c-0.561,0.16-1.181,0.24-1.98,0.24
			c-2.101,0-3.261-1.301-3.261-3.341V115.592z"/>
		<path style="fill:#FFFFFF;" d="M97.854,109.19h2.681v2.561h-2.681V109.19z M97.854,113.631h2.681v10.303h-2.681V113.631z"/>
		<path style="fill:#FFFFFF;" d="M108.074,113.391c3.061,0,5.401,2.061,5.401,5.462c0,2.96-1.98,5.321-5.401,5.321
			c-3.401,0-5.382-2.361-5.382-5.321C102.693,115.451,105.033,113.391,108.074,113.391z M108.074,122.093
			c2.061,0,2.601-1.84,2.601-3.561c0-1.58-0.841-3.061-2.601-3.061c-1.74,0-2.581,1.521-2.581,3.061
			C105.493,120.232,106.033,122.093,108.074,122.093z"/>
		<path style="fill:#FFFFFF;" d="M115.572,113.631h2.541v1.4h0.04c0.84-1.18,1.98-1.641,3.381-1.641c2.44,0,3.501,1.721,3.501,4.041
			v6.502h-2.681v-5.501c0-1.261-0.021-2.961-1.741-2.961c-1.94,0-2.36,2.101-2.36,3.421v5.041h-2.681V113.631z"/>
		<path style="fill:#FFFFFF;" d="M133.914,115.792c-0.82-0.28-1.421-0.44-2.4-0.44c-0.721,0-1.581,0.26-1.581,1.141
			c0,1.64,4.661,0.6,4.661,4.32c0,2.4-2.141,3.361-4.321,3.361c-1.02,0-2.06-0.181-3.04-0.44l0.16-2.2
			c0.84,0.42,1.72,0.68,2.641,0.68c0.68,0,1.76-0.26,1.76-1.26c0-2.021-4.661-0.641-4.661-4.361c0-2.221,1.94-3.201,4.041-3.201
			c1.261,0,2.081,0.2,2.921,0.381L133.914,115.792z"/>
		<path style="fill:#FFFFFF;" d="M136.292,110.391c1.28-0.38,2.621-0.66,3.961-0.66c2.301,0,4.562,1.021,4.562,3.581
			c0,2.8-3.642,3.92-3.401,6.541h-2.46c0-1.9,0.74-2.94,1.46-3.761c0.74-0.82,1.48-1.421,1.48-2.461c0-1.32-1.141-1.82-2.301-1.82
			c-1.061,0-2.12,0.36-3.08,0.801L136.292,110.391z M138.793,121.133h2.801v2.801h-2.801V121.133z"/>
	</g>
</g>
<g id="Border">
</g>
</svg>
