<?xml version="1.0" encoding="iso-8859-1"?>
<!-- Generator: Adobe Illustrator 19.1.0, SVG Export Plug-In . SVG Version: 6.00 Build 0)  -->
<svg version="1.1" id="Layer_1" xmlns="http://www.w3.org/2000/svg" xmlns:xlink="http://www.w3.org/1999/xlink" x="0px" y="0px"
	 viewBox="0 0 98.94 90.075" style="enable-background:new 0 0 98.94 90.075;" xml:space="preserve">
<g>
	<g>
		<path style="fill:#002D73;" d="M77.167,79.278c-20.028,16.568-49.802,13.754-66.37-6.274C-5.771,52.976-2.956,23.202,17.073,6.634
			c3.095-2.56,6.504-4.718,10.132-6.412c1.178-0.55,2.578-0.041,3.128,1.136c0.55,1.178,0.041,2.577-1.137,3.128
			c-3.266,1.525-6.335,3.468-9.123,5.774C2.044,25.174-0.49,51.975,14.424,70.004c14.913,18.028,41.714,20.562,59.743,5.648
			c10.431-8.629,16.015-21.348,15.319-34.896c-0.067-1.298,0.931-2.404,2.229-2.471c1.298-0.067,2.405,0.931,2.471,2.229
			C94.96,55.562,88.756,69.691,77.167,79.278z"/>
	</g>
	<g>
		<polygon style="fill:#002D73;" points="82.839,45.252 98.94,42.619 88.611,29.992 		"/>
	</g>
</g>
</svg>
