<?xml version="1.0" encoding="iso-8859-1"?>
<!-- Generator: Adobe Illustrator 19.1.0, SVG Export Plug-In . SVG Version: 6.00 Build 0)  -->
<svg version="1.1" id="Layer_1" xmlns="http://www.w3.org/2000/svg" xmlns:xlink="http://www.w3.org/1999/xlink" x="0px" y="0px"
	 viewBox="0 0 135.457 44.228" style="enable-background:new 0 0 135.457 44.228;" xml:space="preserve">
<g>
	<g>
		<g>
			<path style="fill:#002D73;" d="M2.002,18.465c-0.135,0.457-0.24,0.921-0.314,1.393c-0.075,0.472-0.125,0.958-0.151,1.458
				c-0.026,0.501-0.039,1.028-0.039,1.583c0,0.554,0.013,1.082,0.039,1.582c0.026,0.501,0.077,0.987,0.155,1.459
				c0.077,0.472,0.183,0.929,0.318,1.371c0.135,0.442,0.308,0.897,0.521,1.364l-0.172,0.263c-0.465-0.846-0.813-1.784-1.045-2.815
				c-0.232-1.031-0.349-2.105-0.349-3.223c0-0.535,0.03-1.074,0.09-1.619c0.06-0.544,0.149-1.077,0.267-1.597
				c0.118-0.52,0.263-1.023,0.435-1.51c0.172-0.486,0.373-0.938,0.602-1.356l0.172,0.262C2.313,17.547,2.137,18.008,2.002,18.465z"
				/>
			<path style="fill:#002D73;" d="M4.846,17.022c-0.126,0-0.234,0.041-0.323,0.124c-0.089,0.083-0.162,0.19-0.219,0.321
				c-0.057,0.131-0.099,0.284-0.125,0.459c-0.026,0.175-0.039,0.36-0.039,0.554c0,0.175,0.011,0.428,0.033,0.758
				c0.022,0.331,0.048,0.647,0.079,0.948c0.149,0,0.297-0.002,0.443-0.007c0.146-0.005,0.294-0.007,0.443-0.007
				c-0.006,0.049-0.01,0.097-0.013,0.146c-0.003,0.049-0.004,0.097-0.004,0.146c0,0.049,0.001,0.097,0.004,0.146
				c0.003,0.049,0.007,0.097,0.013,0.146c-0.149-0.01-0.297-0.019-0.443-0.029c-0.146-0.01-0.294-0.015-0.443-0.015
				c0,1.06,0.001,2.113,0.004,3.158c0.003,1.045,0.013,2.098,0.03,3.158c-0.064-0.02-0.128-0.029-0.191-0.029
				c-0.064,0-0.125,0-0.183,0c-0.122,0-0.25,0.01-0.383,0.029c0.04-1.06,0.063-2.107,0.069-3.143
				c0.006-1.036,0.009-2.093,0.009-3.172c-0.103,0-0.207,0.005-0.31,0.015c-0.103,0.01-0.207,0.02-0.31,0.029
				c0.006-0.049,0.01-0.097,0.013-0.146c0.003-0.049,0.004-0.097,0.004-0.146c0-0.049-0.001-0.097-0.004-0.146
				c-0.003-0.048-0.007-0.097-0.013-0.146c0.103,0,0.208,0.003,0.314,0.007c0.106,0.005,0.208,0.007,0.305,0.007
				c0-0.282,0.017-0.588,0.052-0.919c0.034-0.33,0.085-0.656,0.151-0.977c0.066-0.321,0.145-0.625,0.237-0.912
				c0.092-0.287,0.195-0.527,0.31-0.722c0.103-0.175,0.234-0.33,0.392-0.467c0.158-0.136,0.32-0.204,0.486-0.204
				c0.063,0,0.121,0.015,0.172,0.044c-0.006,0.195-0.013,0.389-0.021,0.583c-0.009,0.195-0.013,0.389-0.013,0.583L5.319,17.24
				C5.181,17.094,5.024,17.022,4.846,17.022z"/>
			<path style="fill:#002D73;" d="M6.107,19.151c-0.003-0.389-0.007-0.773-0.013-1.152c-0.006-0.379-0.013-0.741-0.021-1.087
				c-0.009-0.345-0.019-0.639-0.03-0.882c0.161,0.049,0.29,0.073,0.387,0.073c0.098,0,0.227-0.024,0.387-0.073
				c-0.012,0.243-0.021,0.537-0.03,0.882c-0.009,0.345-0.016,0.707-0.021,1.087c-0.006,0.379-0.01,0.763-0.013,1.152
				C6.749,19.54,6.748,19.9,6.748,20.23v2.64c0,0.331,0.001,0.691,0.004,1.079c0.003,0.389,0.007,0.773,0.013,1.152
				c0.006,0.379,0.013,0.739,0.021,1.079c0.009,0.34,0.019,0.622,0.03,0.846c-0.132-0.02-0.261-0.029-0.387-0.029
				c-0.126,0-0.255,0.01-0.387,0.029c0.011-0.224,0.022-0.505,0.03-0.846c0.009-0.34,0.016-0.7,0.021-1.079
				c0.006-0.379,0.01-0.763,0.013-1.152c0.003-0.389,0.004-0.749,0.004-1.079v-2.64C6.111,19.9,6.109,19.54,6.107,19.151z"/>
			<path style="fill:#002D73;" d="M8.292,23.505c0.009-0.365,0.013-0.727,0.013-1.087c0-0.34-0.001-0.71-0.004-1.108
				c-0.003-0.399-0.007-0.802-0.013-1.211c0.143,0.049,0.264,0.073,0.361,0.073c0.092,0,0.209-0.024,0.353-0.073
				c-0.029,0.583-0.05,1.223-0.064,1.918c-0.014,0.695-0.022,1.408-0.022,2.137c0,0.506,0.026,0.892,0.078,1.159
				c0.052,0.268,0.115,0.469,0.189,0.605c0.08,0.156,0.182,0.284,0.306,0.387c0.123,0.102,0.268,0.153,0.435,0.153
				c0.241,0,0.442-0.09,0.602-0.27c0.161-0.18,0.278-0.401,0.353-0.664c0.04-0.165,0.072-0.306,0.095-0.423
				c0.023-0.117,0.041-0.272,0.056-0.467c0.014-0.194,0.023-0.457,0.026-0.788c0.003-0.33,0.004-0.783,0.004-1.356v-1.225
				c0-0.214-0.001-0.418-0.004-0.613c-0.003-0.194-0.007-0.379-0.013-0.554c0.063,0.02,0.123,0.036,0.181,0.051
				c0.057,0.015,0.117,0.022,0.181,0.022c0.063,0,0.123-0.007,0.181-0.022c0.057-0.015,0.115-0.031,0.172-0.051
				c-0.029,0.758-0.046,1.49-0.052,2.195c-0.006,0.705-0.009,1.451-0.009,2.239c0,0.438,0.003,0.865,0.009,1.283
				c0.006,0.418,0.014,0.822,0.026,1.211c-0.115-0.02-0.227-0.029-0.336-0.029c-0.109,0-0.221,0.01-0.335,0.029
				c0.006-0.087,0.01-0.18,0.013-0.277c0.003-0.097,0.004-0.199,0.004-0.306v-0.627h-0.017c-0.149,0.467-0.342,0.809-0.577,1.028
				c-0.235,0.219-0.49,0.328-0.766,0.328c-0.447,0-0.799-0.202-1.054-0.605c-0.255-0.403-0.383-0.985-0.383-1.743
				C8.279,24.309,8.284,23.869,8.292,23.505z"/>
			<path style="fill:#002D73;" d="M13.847,18.145c-0.017,0.37-0.03,0.732-0.039,1.087c-0.009,0.355-0.019,0.712-0.03,1.072
				c0.063,0,0.181-0.002,0.353-0.007c0.172-0.005,0.358-0.017,0.559-0.036c-0.006,0.029-0.009,0.083-0.009,0.16v0.146v0.16
				c0,0.068,0.003,0.117,0.009,0.146c-0.075-0.01-0.152-0.017-0.232-0.022c-0.08-0.005-0.166-0.007-0.258-0.007h-0.422
				c-0.006,0.039-0.013,0.195-0.021,0.467c-0.009,0.272-0.016,0.596-0.022,0.97c-0.006,0.374-0.01,0.766-0.013,1.174
				c-0.003,0.408-0.004,0.773-0.004,1.094c0,0.272,0.004,0.54,0.013,0.802c0.009,0.263,0.036,0.498,0.082,0.707
				c0.046,0.209,0.115,0.377,0.206,0.503c0.092,0.127,0.224,0.19,0.396,0.19c0.046,0,0.108-0.01,0.185-0.029
				c0.077-0.019,0.145-0.044,0.202-0.073v0.35c-0.098,0.029-0.205,0.066-0.323,0.109c-0.118,0.044-0.231,0.066-0.34,0.066
				c-0.361,0-0.628-0.151-0.8-0.452c-0.172-0.301-0.258-0.744-0.258-1.327c0-0.263,0.003-0.547,0.009-0.853
				c0.006-0.306,0.013-0.642,0.021-1.006c0.009-0.365,0.016-0.768,0.022-1.211c0.006-0.442,0.009-0.936,0.009-1.48h-0.275
				c-0.046,0-0.095,0.003-0.146,0.007c-0.052,0.005-0.106,0.012-0.163,0.022c0.006-0.058,0.01-0.114,0.013-0.168
				c0.003-0.053,0.004-0.109,0.004-0.168c0-0.049-0.001-0.097-0.004-0.146c-0.003-0.049-0.007-0.097-0.013-0.146
				c0.258,0.029,0.447,0.044,0.568,0.044c-0.006-0.194-0.01-0.438-0.013-0.729c-0.003-0.292-0.01-0.593-0.021-0.904l0.714-0.51
				H13.847z"/>
			<path style="fill:#002D73;" d="M15.688,17.036c0.086-0.146,0.189-0.219,0.31-0.219c0.121,0,0.224,0.073,0.31,0.219
				c0.086,0.146,0.129,0.321,0.129,0.525c0,0.204-0.043,0.379-0.129,0.525c-0.086,0.146-0.189,0.219-0.31,0.219
				c-0.121,0-0.224-0.073-0.31-0.219c-0.086-0.146-0.129-0.321-0.129-0.525C15.559,17.357,15.602,17.182,15.688,17.036z
				 M15.667,21.448c-0.009-0.481-0.027-0.931-0.056-1.349c0.161,0.049,0.29,0.073,0.387,0.073c0.098,0,0.227-0.024,0.387-0.073
				c-0.029,0.418-0.047,0.868-0.056,1.349c-0.009,0.481-0.013,0.941-0.013,1.378v1.517c0,0.437,0.004,0.897,0.013,1.378
				c0.009,0.481,0.027,0.917,0.056,1.305c-0.132-0.02-0.261-0.029-0.387-0.029c-0.126,0-0.255,0.01-0.387,0.029
				c0.029-0.389,0.047-0.824,0.056-1.305c0.009-0.481,0.013-0.941,0.013-1.378v-1.517C15.68,22.389,15.675,21.929,15.667,21.448z"/>
			<path style="fill:#002D73;" d="M17.745,21.951c0.126-0.457,0.291-0.834,0.495-1.13c0.203-0.296,0.437-0.515,0.701-0.656
				c0.264-0.141,0.534-0.212,0.809-0.212c0.315,0,0.598,0.066,0.848,0.197c0.25,0.131,0.429,0.28,0.538,0.445
				c-0.04,0.146-0.076,0.299-0.108,0.459c-0.032,0.161-0.059,0.328-0.082,0.503h-0.069c-0.04-0.126-0.095-0.255-0.164-0.387
				c-0.069-0.131-0.151-0.253-0.245-0.365c-0.095-0.112-0.199-0.204-0.314-0.277c-0.115-0.073-0.241-0.109-0.379-0.109
				c-0.258,0-0.481,0.08-0.667,0.241c-0.186,0.16-0.339,0.382-0.456,0.664c-0.118,0.282-0.204,0.615-0.258,0.999
				c-0.055,0.384-0.082,0.8-0.082,1.247c0,1.002,0.126,1.757,0.379,2.268c0.252,0.51,0.622,0.766,1.11,0.766
				c0.115,0,0.232-0.027,0.353-0.08c0.121-0.053,0.238-0.126,0.353-0.219c0.115-0.092,0.222-0.202,0.323-0.328
				c0.1-0.126,0.188-0.263,0.263-0.408l0.043,0.044c-0.029,0.233-0.046,0.472-0.052,0.715c-0.172,0.233-0.386,0.433-0.641,0.598
				c-0.255,0.165-0.521,0.248-0.796,0.248c-0.247,0-0.495-0.061-0.744-0.182c-0.25-0.121-0.475-0.326-0.676-0.613
				c-0.201-0.287-0.363-0.659-0.486-1.116c-0.123-0.457-0.185-1.016-0.185-1.677C17.556,22.953,17.619,22.408,17.745,21.951z"/>
			<path style="fill:#002D73;" d="M22.943,20.128c0.218-0.117,0.442-0.175,0.671-0.175c0.206,0,0.396,0.051,0.568,0.153
				c0.172,0.102,0.32,0.248,0.442,0.438c0.122,0.19,0.218,0.418,0.288,0.686c0.07,0.268,0.105,0.561,0.105,0.882
				c0,0.554-0.006,1.106-0.017,1.655c-0.011,0.549-0.017,1.13-0.017,1.743c0,0.117,0.001,0.241,0.004,0.372
				c0.003,0.131,0.016,0.248,0.039,0.35c0.023,0.102,0.056,0.187,0.099,0.255c0.043,0.068,0.108,0.102,0.194,0.102
				c0.029,0,0.059-0.002,0.09-0.007c0.031-0.005,0.062-0.022,0.09-0.051v0.321c-0.063,0.049-0.142,0.088-0.237,0.117
				c-0.095,0.029-0.199,0.044-0.314,0.044c-0.186,0-0.329-0.08-0.428-0.241c-0.099-0.161-0.157-0.367-0.175-0.62
				c-0.206,0.35-0.409,0.608-0.609,0.773c-0.2,0.165-0.446,0.248-0.737,0.248c-0.143,0-0.283-0.034-0.42-0.102
				c-0.137-0.068-0.259-0.18-0.364-0.335c-0.106-0.156-0.192-0.343-0.257-0.562c-0.066-0.219-0.099-0.469-0.099-0.751
				c0-0.583,0.107-1.036,0.322-1.357c0.214-0.321,0.51-0.535,0.888-0.642c0.309-0.088,0.55-0.163,0.725-0.226
				c0.175-0.063,0.303-0.129,0.386-0.197c0.083-0.068,0.133-0.148,0.15-0.241c0.017-0.092,0.026-0.212,0.026-0.357
				c0-0.243-0.017-0.476-0.052-0.7c-0.034-0.224-0.089-0.418-0.163-0.583c-0.075-0.165-0.172-0.299-0.293-0.401
				c-0.121-0.102-0.267-0.153-0.439-0.153c-0.23,0-0.443,0.087-0.641,0.263c-0.198,0.175-0.346,0.418-0.443,0.729h-0.095v-0.758
				C22.487,20.469,22.724,20.245,22.943,20.128z M24.016,23.541c-0.128,0.039-0.258,0.08-0.39,0.124
				c-0.131,0.044-0.261,0.1-0.39,0.168c-0.129,0.068-0.243,0.161-0.343,0.277c-0.1,0.117-0.18,0.262-0.24,0.437
				c-0.06,0.175-0.09,0.399-0.09,0.671c0,0.457,0.077,0.802,0.231,1.036c0.154,0.233,0.325,0.35,0.514,0.35
				c0.217,0,0.415-0.102,0.595-0.306c0.18-0.204,0.318-0.442,0.415-0.715l0.034-2.188C24.257,23.454,24.144,23.502,24.016,23.541z"
				/>
			<path style="fill:#002D73;" d="M26.544,25.991c0.06,0.117,0.132,0.226,0.215,0.328c0.083,0.102,0.178,0.187,0.284,0.255
				c0.106,0.068,0.219,0.102,0.34,0.102c0.109,0,0.214-0.029,0.314-0.087c0.1-0.058,0.189-0.141,0.267-0.248
				c0.078-0.107,0.139-0.243,0.185-0.408c0.046-0.165,0.069-0.355,0.069-0.569c0-0.301-0.05-0.532-0.151-0.693
				c-0.1-0.161-0.225-0.292-0.374-0.394c-0.149-0.102-0.313-0.192-0.49-0.27c-0.178-0.078-0.341-0.187-0.491-0.328
				c-0.149-0.141-0.274-0.328-0.374-0.562c-0.1-0.233-0.151-0.554-0.151-0.963c0-0.321,0.031-0.615,0.095-0.882
				c0.063-0.267,0.155-0.498,0.275-0.693c0.121-0.194,0.27-0.348,0.448-0.46c0.178-0.112,0.381-0.168,0.611-0.168
				c0.212,0,0.392,0.049,0.538,0.146c0.146,0.097,0.285,0.185,0.417,0.263c-0.046,0.146-0.089,0.326-0.129,0.54
				c-0.04,0.214-0.066,0.379-0.077,0.496h-0.103c-0.046-0.233-0.135-0.442-0.267-0.627c-0.132-0.185-0.295-0.277-0.49-0.277
				c-0.086,0-0.172,0.024-0.258,0.073c-0.086,0.049-0.163,0.122-0.232,0.219c-0.069,0.097-0.126,0.224-0.172,0.379
				c-0.046,0.156-0.069,0.34-0.069,0.554c0,0.311,0.05,0.552,0.151,0.722c0.1,0.17,0.225,0.304,0.374,0.401
				c0.149,0.097,0.313,0.182,0.491,0.255c0.178,0.073,0.341,0.175,0.49,0.306c0.149,0.131,0.274,0.314,0.374,0.547
				c0.1,0.233,0.151,0.554,0.151,0.963c0,0.282-0.036,0.559-0.108,0.831c-0.072,0.272-0.175,0.518-0.31,0.737
				c-0.135,0.219-0.297,0.389-0.486,0.51c-0.189,0.122-0.404,0.182-0.645,0.182c-0.264,0-0.485-0.044-0.663-0.131
				c-0.178-0.087-0.327-0.19-0.447-0.306c0.034-0.126,0.07-0.299,0.108-0.518c0.037-0.219,0.056-0.401,0.056-0.547h0.103
				C26.439,25.768,26.484,25.875,26.544,25.991z"/>
			<path style="fill:#002D73;" d="M29.633,21.9c0.123-0.462,0.285-0.836,0.486-1.123c0.201-0.287,0.426-0.496,0.675-0.627
				c0.25-0.131,0.498-0.197,0.744-0.197c0.252,0,0.502,0.066,0.749,0.197c0.247,0.131,0.47,0.34,0.671,0.627
				c0.201,0.287,0.363,0.661,0.486,1.123c0.123,0.462,0.185,1.024,0.185,1.685c0,0.661-0.062,1.223-0.185,1.685
				c-0.123,0.462-0.285,0.836-0.486,1.123c-0.201,0.287-0.425,0.489-0.671,0.605c-0.247,0.117-0.496,0.175-0.749,0.175
				c-0.247,0-0.495-0.058-0.744-0.175c-0.25-0.117-0.475-0.318-0.675-0.605c-0.201-0.287-0.363-0.661-0.486-1.123
				c-0.123-0.462-0.185-1.023-0.185-1.685C29.448,22.924,29.51,22.362,29.633,21.9z M30.27,24.766
				c0.043,0.379,0.116,0.717,0.219,1.014c0.103,0.297,0.241,0.532,0.413,0.707c0.172,0.175,0.384,0.263,0.637,0.263
				c0.252,0,0.465-0.088,0.637-0.263c0.172-0.175,0.31-0.411,0.413-0.707c0.103-0.296,0.176-0.634,0.219-1.014
				c0.043-0.379,0.065-0.773,0.065-1.181c0-0.408-0.021-0.802-0.065-1.181c-0.043-0.379-0.116-0.717-0.219-1.014
				c-0.103-0.296-0.241-0.532-0.413-0.707c-0.172-0.175-0.384-0.263-0.637-0.263c-0.252,0-0.465,0.088-0.637,0.263
				c-0.172,0.175-0.31,0.411-0.413,0.707c-0.103,0.297-0.176,0.634-0.219,1.014c-0.043,0.379-0.065,0.773-0.065,1.181
				C30.205,23.993,30.227,24.387,30.27,24.766z"/>
			<path style="fill:#002D73;" d="M37.141,21.273c-0.166-0.374-0.396-0.562-0.688-0.562c-0.402,0-0.696,0.209-0.882,0.627
				c-0.186,0.418-0.28,1.006-0.28,1.765v1.24c0,0.437,0.004,0.897,0.013,1.378c0.009,0.481,0.027,0.917,0.056,1.305
				c-0.132-0.02-0.261-0.029-0.387-0.029c-0.126,0-0.255,0.01-0.387,0.029c0.029-0.389,0.047-0.824,0.056-1.305
				c0.009-0.481,0.013-0.941,0.013-1.378v-1.517c0-0.438-0.004-0.897-0.013-1.378c-0.009-0.481-0.027-0.931-0.056-1.349
				c0.161,0.049,0.29,0.073,0.387,0.073c0.046,0,0.096-0.007,0.151-0.022c0.054-0.015,0.119-0.031,0.194-0.051
				c-0.017,0.389-0.026,0.778-0.026,1.167h0.017c0.161-0.418,0.354-0.741,0.578-0.97c0.225-0.228,0.492-0.343,0.803-0.343
				c0.161,0,0.324,0.039,0.488,0.117c0.164,0.078,0.312,0.212,0.445,0.401c0.132,0.19,0.24,0.447,0.324,0.773
				c0.083,0.326,0.125,0.742,0.125,1.247c0,0.418-0.006,0.848-0.017,1.291c-0.011,0.443-0.017,0.912-0.017,1.408v0.948
				c0,0.156,0.001,0.309,0.004,0.459c0.003,0.151,0.007,0.294,0.013,0.43c-0.116-0.02-0.238-0.029-0.366-0.029
				c-0.122,0-0.241,0.01-0.357,0.029c0.011-0.505,0.024-1.026,0.039-1.561c0.014-0.535,0.021-1.084,0.021-1.648v-0.89
				C37.391,22.199,37.307,21.648,37.141,21.273z"/>
			<path style="fill:#002D73;" d="M39.52,20.974c0.336-0.681,0.825-1.021,1.467-1.021c0.304,0,0.567,0.08,0.788,0.241
				c0.221,0.16,0.406,0.374,0.555,0.642c0.149,0.268,0.259,0.581,0.331,0.941c0.072,0.36,0.108,0.744,0.108,1.152
				c0,0.097-0.001,0.192-0.004,0.284c-0.003,0.093-0.007,0.187-0.013,0.284c-0.31-0.01-0.617-0.019-0.921-0.029
				c-0.304-0.01-0.611-0.015-0.921-0.015c-0.189,0-0.377,0.005-0.564,0.015c-0.186,0.01-0.374,0.02-0.564,0.029
				c-0.006,0.049-0.009,0.122-0.009,0.219v0.19c0,0.379,0.033,0.734,0.099,1.065c0.066,0.331,0.162,0.615,0.288,0.853
				c0.126,0.238,0.281,0.428,0.465,0.569c0.183,0.141,0.396,0.212,0.637,0.212c0.115,0,0.232-0.027,0.353-0.08
				c0.12-0.053,0.238-0.126,0.353-0.219c0.115-0.092,0.222-0.202,0.323-0.328c0.1-0.126,0.188-0.263,0.262-0.408l0.043,0.044
				l-0.052,0.715c-0.172,0.233-0.386,0.433-0.641,0.598c-0.255,0.165-0.521,0.248-0.796,0.248c-0.31,0-0.592-0.08-0.848-0.241
				c-0.255-0.16-0.476-0.394-0.663-0.7c-0.186-0.306-0.33-0.668-0.43-1.087c-0.1-0.418-0.151-0.87-0.151-1.356
				C39.017,22.593,39.185,21.655,39.52,20.974z M40.467,20.668c-0.146,0.166-0.267,0.372-0.361,0.62
				c-0.095,0.248-0.166,0.52-0.215,0.817c-0.049,0.297-0.079,0.576-0.09,0.839c0.178,0.01,0.363,0.02,0.555,0.029
				c0.192,0.01,0.38,0.015,0.564,0.015c0.189,0,0.381-0.005,0.577-0.015c0.195-0.01,0.384-0.019,0.568-0.029
				c0-0.263-0.013-0.54-0.039-0.831c-0.026-0.292-0.078-0.564-0.155-0.817c-0.077-0.253-0.185-0.462-0.323-0.627
				c-0.138-0.165-0.318-0.248-0.542-0.248C40.793,20.42,40.613,20.503,40.467,20.668z"/>
			<path style="fill:#002D73;" d="M47.416,17.022c-0.126,0-0.234,0.041-0.323,0.124c-0.089,0.083-0.162,0.19-0.219,0.321
				c-0.057,0.131-0.099,0.284-0.125,0.459c-0.026,0.175-0.039,0.36-0.039,0.554c0,0.175,0.011,0.428,0.033,0.758
				c0.022,0.331,0.048,0.647,0.079,0.948c0.149,0,0.297-0.002,0.443-0.007c0.146-0.005,0.294-0.007,0.443-0.007
				c-0.006,0.049-0.01,0.097-0.013,0.146c-0.003,0.049-0.004,0.097-0.004,0.146c0,0.049,0.001,0.097,0.004,0.146
				c0.003,0.049,0.007,0.097,0.013,0.146c-0.149-0.01-0.297-0.019-0.443-0.029c-0.146-0.01-0.294-0.015-0.443-0.015
				c0,1.06,0.001,2.113,0.004,3.158c0.003,1.045,0.013,2.098,0.03,3.158c-0.064-0.02-0.128-0.029-0.191-0.029
				c-0.064,0-0.125,0-0.183,0c-0.122,0-0.25,0.01-0.383,0.029c0.04-1.06,0.063-2.107,0.069-3.143
				c0.006-1.036,0.009-2.093,0.009-3.172c-0.103,0-0.207,0.005-0.31,0.015c-0.103,0.01-0.207,0.02-0.31,0.029
				c0.006-0.049,0.01-0.097,0.013-0.146c0.003-0.049,0.004-0.097,0.004-0.146c0-0.049-0.001-0.097-0.004-0.146
				c-0.003-0.048-0.007-0.097-0.013-0.146c0.103,0,0.208,0.003,0.314,0.007c0.106,0.005,0.208,0.007,0.305,0.007
				c0-0.282,0.017-0.588,0.052-0.919c0.034-0.33,0.085-0.656,0.151-0.977c0.066-0.321,0.145-0.625,0.237-0.912
				c0.092-0.287,0.195-0.527,0.31-0.722c0.103-0.175,0.234-0.33,0.392-0.467c0.158-0.136,0.32-0.204,0.486-0.204
				c0.063,0,0.121,0.015,0.172,0.044c-0.006,0.195-0.013,0.389-0.021,0.583c-0.009,0.195-0.013,0.389-0.013,0.583l-0.052,0.044
				C47.751,17.094,47.593,17.022,47.416,17.022z"/>
			<path style="fill:#002D73;" d="M48.47,23.505c0.009-0.365,0.013-0.727,0.013-1.087c0-0.34-0.001-0.71-0.004-1.108
				c-0.003-0.399-0.007-0.802-0.013-1.211c0.143,0.049,0.264,0.073,0.361,0.073c0.092,0,0.209-0.024,0.353-0.073
				c-0.029,0.583-0.05,1.223-0.064,1.918c-0.014,0.695-0.022,1.408-0.022,2.137c0,0.506,0.026,0.892,0.078,1.159
				c0.052,0.268,0.115,0.469,0.189,0.605c0.08,0.156,0.182,0.284,0.306,0.387c0.123,0.102,0.268,0.153,0.435,0.153
				c0.241,0,0.442-0.09,0.602-0.27c0.161-0.18,0.278-0.401,0.353-0.664c0.04-0.165,0.072-0.306,0.095-0.423
				c0.023-0.117,0.041-0.272,0.056-0.467c0.014-0.194,0.023-0.457,0.026-0.788c0.003-0.33,0.004-0.783,0.004-1.356v-1.225
				c0-0.214-0.001-0.418-0.004-0.613c-0.003-0.194-0.007-0.379-0.013-0.554c0.063,0.02,0.123,0.036,0.181,0.051
				c0.057,0.015,0.117,0.022,0.181,0.022c0.063,0,0.123-0.007,0.181-0.022c0.057-0.015,0.115-0.031,0.172-0.051
				c-0.029,0.758-0.046,1.49-0.052,2.195c-0.006,0.705-0.009,1.451-0.009,2.239c0,0.438,0.003,0.865,0.009,1.283
				c0.006,0.418,0.014,0.822,0.026,1.211c-0.115-0.02-0.227-0.029-0.336-0.029s-0.221,0.01-0.335,0.029
				c0.006-0.087,0.01-0.18,0.013-0.277c0.003-0.097,0.004-0.199,0.004-0.306v-0.627h-0.017c-0.149,0.467-0.342,0.809-0.577,1.028
				c-0.235,0.219-0.49,0.328-0.766,0.328c-0.447,0-0.799-0.202-1.054-0.605c-0.255-0.403-0.383-0.985-0.383-1.743
				C48.457,24.309,48.461,23.869,48.47,23.505z"/>
			<path style="fill:#002D73;" d="M55.044,21.134c-0.083-0.049-0.168-0.073-0.254-0.073c-0.138,0-0.261,0.054-0.37,0.16
				c-0.109,0.107-0.201,0.25-0.275,0.43c-0.075,0.18-0.132,0.394-0.172,0.642c-0.04,0.248-0.06,0.513-0.06,0.795v1.604
				c0,0.652,0.001,1.15,0.004,1.495c0.003,0.345,0.013,0.625,0.03,0.839c-0.115-0.02-0.23-0.029-0.344-0.029
				c-0.126,0-0.247,0.01-0.361,0.029c0.017-0.33,0.027-0.78,0.03-1.349c0.003-0.569,0.004-1.266,0.004-2.093v-0.467
				c0-0.379-0.001-0.817-0.004-1.313c-0.003-0.496-0.013-1.065-0.03-1.706c0.063,0.02,0.123,0.036,0.181,0.051
				c0.057,0.015,0.117,0.022,0.181,0.022c0.052,0,0.106-0.007,0.163-0.022c0.057-0.015,0.118-0.031,0.181-0.051
				c-0.023,0.35-0.036,0.627-0.039,0.831c-0.003,0.204-0.004,0.399-0.004,0.583l0.017,0.015c0.338-1.05,0.717-1.575,1.136-1.575
				c0.052,0,0.096,0.005,0.133,0.015c0.037,0.01,0.085,0.034,0.142,0.073c-0.029,0.117-0.046,0.294-0.052,0.532
				c-0.006,0.238-0.009,0.455-0.009,0.649l-0.06,0.073C55.183,21.237,55.127,21.183,55.044,21.134z"/>
			<path style="fill:#002D73;" d="M55.939,21.9c0.123-0.462,0.285-0.836,0.486-1.123c0.201-0.287,0.426-0.496,0.675-0.627
				c0.25-0.131,0.498-0.197,0.744-0.197c0.252,0,0.502,0.066,0.749,0.197c0.247,0.131,0.47,0.34,0.671,0.627
				c0.201,0.287,0.363,0.661,0.486,1.123c0.123,0.462,0.185,1.024,0.185,1.685c0,0.661-0.062,1.223-0.185,1.685
				c-0.123,0.462-0.285,0.836-0.486,1.123c-0.201,0.287-0.425,0.489-0.671,0.605c-0.247,0.117-0.496,0.175-0.749,0.175
				c-0.247,0-0.495-0.058-0.744-0.175c-0.25-0.117-0.475-0.318-0.675-0.605c-0.201-0.287-0.363-0.661-0.486-1.123
				c-0.123-0.462-0.185-1.023-0.185-1.685C55.754,22.924,55.815,22.362,55.939,21.9z M56.576,24.766
				c0.043,0.379,0.116,0.717,0.219,1.014c0.103,0.297,0.241,0.532,0.413,0.707c0.172,0.175,0.384,0.263,0.637,0.263
				c0.252,0,0.465-0.088,0.637-0.263c0.172-0.175,0.31-0.411,0.413-0.707c0.103-0.296,0.176-0.634,0.219-1.014
				c0.043-0.379,0.065-0.773,0.065-1.181c0-0.408-0.021-0.802-0.065-1.181c-0.043-0.379-0.116-0.717-0.219-1.014
				c-0.103-0.296-0.241-0.532-0.413-0.707c-0.172-0.175-0.384-0.263-0.637-0.263c-0.252,0-0.465,0.088-0.637,0.263
				c-0.172,0.175-0.31,0.411-0.413,0.707c-0.103,0.297-0.176,0.634-0.219,1.014c-0.043,0.379-0.065,0.773-0.065,1.181
				C56.511,23.993,56.533,24.387,56.576,24.766z"/>
			<path style="fill:#002D73;" d="M61.683,20.128c0.218-0.117,0.442-0.175,0.671-0.175c0.206,0,0.396,0.051,0.568,0.153
				c0.172,0.102,0.32,0.248,0.442,0.438c0.122,0.19,0.218,0.418,0.288,0.686c0.07,0.268,0.105,0.561,0.105,0.882
				c0,0.554-0.006,1.106-0.017,1.655c-0.011,0.549-0.017,1.13-0.017,1.743c0,0.117,0.001,0.241,0.004,0.372
				c0.003,0.131,0.016,0.248,0.039,0.35c0.023,0.102,0.056,0.187,0.099,0.255c0.043,0.068,0.108,0.102,0.194,0.102
				c0.029,0,0.059-0.002,0.09-0.007c0.031-0.005,0.062-0.022,0.09-0.051v0.321c-0.063,0.049-0.142,0.088-0.237,0.117
				c-0.095,0.029-0.199,0.044-0.314,0.044c-0.186,0-0.329-0.08-0.428-0.241c-0.099-0.161-0.157-0.367-0.175-0.62
				c-0.206,0.35-0.409,0.608-0.609,0.773c-0.2,0.165-0.446,0.248-0.737,0.248c-0.143,0-0.283-0.034-0.42-0.102
				c-0.137-0.068-0.259-0.18-0.364-0.335c-0.106-0.156-0.192-0.343-0.257-0.562c-0.066-0.219-0.099-0.469-0.099-0.751
				c0-0.583,0.107-1.036,0.322-1.357c0.214-0.321,0.51-0.535,0.888-0.642c0.309-0.088,0.55-0.163,0.725-0.226
				c0.175-0.063,0.303-0.129,0.386-0.197c0.083-0.068,0.133-0.148,0.15-0.241c0.017-0.092,0.026-0.212,0.026-0.357
				c0-0.243-0.017-0.476-0.052-0.7c-0.034-0.224-0.089-0.418-0.163-0.583c-0.075-0.165-0.172-0.299-0.293-0.401
				c-0.121-0.102-0.267-0.153-0.439-0.153c-0.23,0-0.443,0.087-0.641,0.263c-0.198,0.175-0.346,0.418-0.443,0.729h-0.095v-0.758
				C61.227,20.469,61.465,20.245,61.683,20.128z M62.756,23.541c-0.128,0.039-0.258,0.08-0.39,0.124
				c-0.131,0.044-0.261,0.1-0.39,0.168c-0.129,0.068-0.243,0.161-0.343,0.277c-0.1,0.117-0.18,0.262-0.24,0.437
				c-0.06,0.175-0.09,0.399-0.09,0.671c0,0.457,0.077,0.802,0.231,1.036c0.154,0.233,0.325,0.35,0.514,0.35
				c0.217,0,0.415-0.102,0.595-0.306c0.18-0.204,0.318-0.442,0.415-0.715l0.034-2.188C62.997,23.454,62.884,23.502,62.756,23.541z"
				/>
			<path style="fill:#002D73;" d="M65.977,18.145c-0.017,0.37-0.03,0.732-0.039,1.087c-0.009,0.355-0.019,0.712-0.03,1.072
				c0.063,0,0.181-0.002,0.353-0.007c0.172-0.005,0.358-0.017,0.559-0.036c-0.006,0.029-0.009,0.083-0.009,0.16v0.146v0.16
				c0,0.068,0.003,0.117,0.009,0.146c-0.075-0.01-0.152-0.017-0.232-0.022c-0.08-0.005-0.166-0.007-0.258-0.007h-0.422
				c-0.006,0.039-0.013,0.195-0.021,0.467c-0.009,0.272-0.016,0.596-0.022,0.97c-0.006,0.374-0.01,0.766-0.013,1.174
				c-0.003,0.408-0.004,0.773-0.004,1.094c0,0.272,0.004,0.54,0.013,0.802c0.009,0.263,0.036,0.498,0.082,0.707
				c0.046,0.209,0.115,0.377,0.206,0.503c0.092,0.127,0.224,0.19,0.396,0.19c0.046,0,0.108-0.01,0.185-0.029
				c0.077-0.019,0.145-0.044,0.202-0.073v0.35c-0.098,0.029-0.205,0.066-0.323,0.109c-0.118,0.044-0.231,0.066-0.34,0.066
				c-0.361,0-0.628-0.151-0.8-0.452c-0.172-0.301-0.258-0.744-0.258-1.327c0-0.263,0.003-0.547,0.009-0.853
				c0.006-0.306,0.013-0.642,0.021-1.006c0.009-0.365,0.016-0.768,0.022-1.211c0.006-0.442,0.009-0.936,0.009-1.48h-0.275
				c-0.046,0-0.095,0.003-0.146,0.007c-0.052,0.005-0.106,0.012-0.163,0.022c0.006-0.058,0.01-0.114,0.013-0.168
				c0.003-0.053,0.004-0.109,0.004-0.168c0-0.049-0.001-0.097-0.004-0.146c-0.003-0.049-0.007-0.097-0.013-0.146
				c0.258,0.029,0.447,0.044,0.568,0.044c-0.006-0.194-0.01-0.438-0.013-0.729c-0.003-0.292-0.01-0.593-0.021-0.904l0.714-0.51
				H65.977z"/>
			<path style="fill:#002D73;" d="M67.737,20.974c0.336-0.681,0.825-1.021,1.467-1.021c0.304,0,0.567,0.08,0.788,0.241
				c0.221,0.16,0.406,0.374,0.555,0.642c0.149,0.268,0.259,0.581,0.331,0.941c0.072,0.36,0.108,0.744,0.108,1.152
				c0,0.097-0.001,0.192-0.004,0.284c-0.003,0.093-0.007,0.187-0.013,0.284c-0.31-0.01-0.617-0.019-0.921-0.029
				c-0.304-0.01-0.611-0.015-0.921-0.015c-0.189,0-0.377,0.005-0.564,0.015c-0.186,0.01-0.374,0.02-0.564,0.029
				c-0.006,0.049-0.009,0.122-0.009,0.219v0.19c0,0.379,0.033,0.734,0.099,1.065c0.066,0.331,0.162,0.615,0.288,0.853
				c0.126,0.238,0.281,0.428,0.465,0.569c0.183,0.141,0.396,0.212,0.637,0.212c0.115,0,0.232-0.027,0.353-0.08
				c0.12-0.053,0.238-0.126,0.353-0.219c0.115-0.092,0.222-0.202,0.323-0.328c0.1-0.126,0.188-0.263,0.262-0.408l0.043,0.044
				l-0.052,0.715c-0.172,0.233-0.386,0.433-0.641,0.598c-0.255,0.165-0.521,0.248-0.796,0.248c-0.31,0-0.592-0.08-0.848-0.241
				c-0.255-0.16-0.476-0.394-0.663-0.7c-0.186-0.306-0.33-0.668-0.43-1.087c-0.1-0.418-0.151-0.87-0.151-1.356
				C67.233,22.593,67.401,21.655,67.737,20.974z M68.683,20.668c-0.146,0.166-0.267,0.372-0.361,0.62
				c-0.095,0.248-0.166,0.52-0.215,0.817c-0.049,0.297-0.079,0.576-0.09,0.839c0.178,0.01,0.363,0.02,0.555,0.029
				c0.192,0.01,0.38,0.015,0.564,0.015c0.189,0,0.381-0.005,0.577-0.015c0.195-0.01,0.384-0.019,0.568-0.029
				c0-0.263-0.013-0.54-0.039-0.831c-0.026-0.292-0.078-0.564-0.155-0.817c-0.077-0.253-0.185-0.462-0.323-0.627
				c-0.138-0.165-0.318-0.248-0.542-0.248C69.009,20.42,68.829,20.503,68.683,20.668z"/>
		</g>
		<g>
			<path style="fill:#002D73;" d="M73.662,19.093c-0.063-0.194-0.149-0.35-0.258-0.467v-0.102c0.327-0.224,0.661-0.469,1.003-0.736
				c0.341-0.267,0.661-0.527,0.959-0.78l0.06,0.073c-0.023,0.642-0.04,1.276-0.052,1.903c-0.012,0.627-0.017,1.262-0.017,1.903
				v2.436c0,0.642,0.006,1.271,0.017,1.889c0.011,0.618,0.029,1.223,0.052,1.816c-0.069-0.02-0.136-0.029-0.202-0.029
				c-0.066,0-0.133,0-0.202,0c-0.069,0-0.136,0-0.202,0c-0.066,0-0.133,0.01-0.202,0.029c0.029-0.603,0.047-1.211,0.056-1.823
				c0.009-0.613,0.013-1.24,0.013-1.881V18.13L73.662,19.093z"/>
		</g>
		<g>
			<path style="fill:#002D73;" d="M76.786,20.132c0.069-0.62,0.182-1.16,0.34-1.622c0.158-0.461,0.366-0.828,0.624-1.101
				c0.258-0.273,0.574-0.409,0.947-0.409c0.413,0,0.75,0.136,1.011,0.409c0.261,0.273,0.466,0.64,0.615,1.101
				c0.149,0.461,0.251,1.002,0.306,1.622c0.054,0.62,0.082,1.282,0.082,1.986c0,0.684-0.04,1.334-0.121,1.949
				c-0.08,0.615-0.202,1.155-0.366,1.622c-0.163,0.466-0.372,0.833-0.624,1.101c-0.252,0.268-0.554,0.402-0.904,0.402
				c-0.413,0-0.75-0.129-1.011-0.387c-0.261-0.258-0.466-0.617-0.615-1.079c-0.149-0.461-0.251-1.002-0.305-1.622
				c-0.055-0.62-0.082-1.282-0.082-1.986C76.682,21.414,76.717,20.752,76.786,20.132z M77.453,23.948
				c0.043,0.565,0.116,1.056,0.22,1.473c0.103,0.417,0.238,0.744,0.404,0.982c0.166,0.238,0.373,0.357,0.62,0.357
				c0.247,0,0.453-0.119,0.62-0.357c0.166-0.238,0.301-0.565,0.404-0.982c0.103-0.417,0.176-0.908,0.219-1.473
				c0.043-0.565,0.065-1.175,0.065-1.83c0-0.654-0.022-1.265-0.065-1.83c-0.043-0.565-0.116-1.056-0.219-1.473
				c-0.103-0.417-0.238-0.744-0.404-0.982c-0.166-0.238-0.373-0.357-0.62-0.357c-0.247,0-0.453,0.109-0.62,0.327
				c-0.166,0.218-0.301,0.531-0.404,0.937c-0.103,0.407-0.176,0.895-0.22,1.465c-0.043,0.57-0.064,1.208-0.064,1.912
				C77.388,22.773,77.41,23.383,77.453,23.948z"/>
		</g>
		<g>
			<path style="fill:#002D73;" d="M81.914,20.132c0.069-0.62,0.182-1.16,0.34-1.622c0.158-0.461,0.366-0.828,0.624-1.101
				c0.258-0.273,0.574-0.409,0.947-0.409c0.413,0,0.75,0.136,1.011,0.409c0.261,0.273,0.466,0.64,0.615,1.101
				c0.149,0.461,0.251,1.002,0.306,1.622c0.054,0.62,0.082,1.282,0.082,1.986c0,0.684-0.04,1.334-0.121,1.949
				c-0.08,0.615-0.202,1.155-0.366,1.622c-0.163,0.466-0.372,0.833-0.624,1.101c-0.253,0.268-0.554,0.402-0.904,0.402
				c-0.413,0-0.75-0.129-1.011-0.387c-0.261-0.258-0.466-0.617-0.615-1.079c-0.149-0.461-0.251-1.002-0.305-1.622
				c-0.055-0.62-0.082-1.282-0.082-1.986C81.811,21.414,81.846,20.752,81.914,20.132z M82.581,23.948
				c0.043,0.565,0.116,1.056,0.22,1.473c0.103,0.417,0.238,0.744,0.404,0.982c0.166,0.238,0.373,0.357,0.62,0.357
				c0.247,0,0.453-0.119,0.62-0.357c0.166-0.238,0.301-0.565,0.405-0.982c0.103-0.417,0.176-0.908,0.219-1.473
				c0.043-0.565,0.065-1.175,0.065-1.83c0-0.654-0.022-1.265-0.065-1.83c-0.043-0.565-0.116-1.056-0.219-1.473
				c-0.103-0.417-0.238-0.744-0.405-0.982c-0.166-0.238-0.373-0.357-0.62-0.357c-0.247,0-0.453,0.109-0.62,0.327
				c-0.166,0.218-0.301,0.531-0.404,0.937c-0.103,0.407-0.176,0.895-0.22,1.465c-0.043,0.57-0.064,1.208-0.064,1.912
				C82.517,22.773,82.538,23.383,82.581,23.948z"/>
		</g>
		<g>
			<path style="fill:#002D73;" d="M88.794,21.448c-0.009-0.481-0.027-0.931-0.056-1.349c0.161,0.049,0.29,0.073,0.387,0.073
				c0.046,0,0.096-0.007,0.151-0.022c0.054-0.015,0.119-0.031,0.194-0.051c-0.017,0.389-0.026,0.778-0.026,1.167h0.017
				c0.303-0.875,0.729-1.313,1.278-1.313c0.143,0,0.283,0.036,0.42,0.109c0.137,0.073,0.262,0.173,0.373,0.299
				c0.112,0.126,0.207,0.28,0.288,0.459c0.08,0.18,0.134,0.372,0.163,0.576H92c0.138-0.467,0.327-0.824,0.565-1.072
				c0.239-0.248,0.514-0.372,0.824-0.372c0.19,0,0.366,0.044,0.527,0.131c0.161,0.088,0.3,0.224,0.418,0.408
				c0.118,0.185,0.21,0.423,0.276,0.715c0.066,0.292,0.099,0.642,0.099,1.05c0,0.165-0.003,0.345-0.009,0.54
				c-0.006,0.195-0.011,0.421-0.017,0.678c-0.006,0.258-0.011,0.549-0.017,0.875c-0.006,0.326-0.009,0.703-0.009,1.13
				c0,0.263,0.001,0.516,0.004,0.759c0.003,0.243,0.01,0.506,0.021,0.787c-0.063-0.02-0.126-0.029-0.189-0.029
				c-0.063,0-0.123,0-0.181,0c-0.063,0-0.126,0-0.189,0c-0.063,0-0.126,0.01-0.189,0.029c0.017-0.243,0.036-0.734,0.056-1.473
				c0.02-0.739,0.03-1.77,0.03-3.092c0-0.243-0.016-0.472-0.048-0.686c-0.032-0.214-0.082-0.399-0.151-0.554
				c-0.069-0.155-0.161-0.279-0.277-0.372c-0.115-0.092-0.259-0.138-0.432-0.138c-0.207,0-0.383,0.068-0.527,0.204
				c-0.144,0.136-0.256,0.297-0.337,0.481c-0.046,0.107-0.082,0.214-0.108,0.321c-0.026,0.107-0.046,0.27-0.06,0.489
				c-0.014,0.219-0.024,0.525-0.03,0.919c-0.006,0.394-0.009,0.936-0.009,1.626c0,0.418,0.004,0.8,0.013,1.145
				c0.009,0.345,0.019,0.722,0.03,1.13c-0.131-0.02-0.255-0.029-0.374-0.029c-0.119,0-0.244,0.01-0.374,0.029
				c0.025-0.535,0.043-1.079,0.053-1.634c0.01-0.554,0.015-1.099,0.015-1.633c0-0.457-0.001-0.814-0.004-1.072
				c-0.003-0.258-0.01-0.462-0.021-0.613c-0.011-0.151-0.027-0.275-0.047-0.372c-0.02-0.097-0.047-0.204-0.081-0.321
				c-0.063-0.185-0.161-0.343-0.296-0.474c-0.134-0.131-0.273-0.197-0.416-0.197c-0.377,0-0.654,0.209-0.831,0.627
				c-0.177,0.418-0.266,1.006-0.266,1.765v1.24c0,0.437,0.004,0.897,0.013,1.378c0.009,0.481,0.027,0.917,0.056,1.305
				c-0.132-0.02-0.261-0.029-0.387-0.029c-0.126,0-0.255,0.01-0.387,0.029c0.029-0.389,0.047-0.824,0.056-1.305
				c0.009-0.481,0.013-0.941,0.013-1.378v-1.517C88.807,22.389,88.803,21.929,88.794,21.448z"/>
			<path style="fill:#002D73;" d="M95.855,21.951c0.126-0.457,0.291-0.834,0.495-1.13c0.203-0.296,0.437-0.515,0.701-0.656
				c0.264-0.141,0.534-0.212,0.809-0.212c0.315,0,0.598,0.066,0.848,0.197c0.25,0.131,0.429,0.28,0.538,0.445
				c-0.04,0.146-0.076,0.299-0.108,0.459c-0.032,0.161-0.059,0.328-0.082,0.503h-0.069c-0.04-0.126-0.095-0.255-0.164-0.387
				c-0.069-0.131-0.151-0.253-0.245-0.365c-0.095-0.112-0.199-0.204-0.314-0.277c-0.115-0.073-0.241-0.109-0.379-0.109
				c-0.258,0-0.481,0.08-0.667,0.241c-0.186,0.16-0.339,0.382-0.456,0.664c-0.118,0.282-0.204,0.615-0.258,0.999
				c-0.055,0.384-0.082,0.8-0.082,1.247c0,1.002,0.126,1.757,0.379,2.268c0.252,0.51,0.622,0.766,1.11,0.766
				c0.115,0,0.232-0.027,0.353-0.08c0.121-0.053,0.238-0.126,0.353-0.219c0.115-0.092,0.222-0.202,0.323-0.328
				c0.1-0.126,0.188-0.263,0.263-0.408l0.043,0.044c-0.029,0.233-0.046,0.472-0.052,0.715c-0.172,0.233-0.386,0.433-0.641,0.598
				c-0.255,0.165-0.521,0.248-0.796,0.248c-0.247,0-0.495-0.061-0.744-0.182c-0.25-0.121-0.475-0.326-0.676-0.613
				c-0.201-0.287-0.363-0.659-0.486-1.116c-0.123-0.457-0.185-1.016-0.185-1.677C95.666,22.953,95.729,22.408,95.855,21.951z"/>
			<path style="fill:#002D73;" d="M100.166,21.273c0.086-0.296,0.205-0.542,0.357-0.737c0.152-0.194,0.327-0.34,0.525-0.437
				c0.198-0.097,0.409-0.146,0.632-0.146c0.109,0,0.214,0.005,0.314,0.015c0.1,0.01,0.228,0.024,0.383,0.044
				c0.132,0.02,0.25,0.034,0.353,0.044c0.103,0.01,0.186,0.015,0.25,0.015c0.321,0,0.554-0.024,0.697-0.073
				c-0.006,0.049-0.01,0.1-0.013,0.153c-0.003,0.053-0.004,0.104-0.004,0.153c0,0.049,0.001,0.1,0.004,0.153
				c0.003,0.054,0.007,0.105,0.013,0.153c-0.166-0.019-0.328-0.041-0.486-0.066c-0.158-0.024-0.314-0.041-0.469-0.051l-0.017,0.029
				c0.178,0.166,0.321,0.421,0.43,0.766c0.109,0.345,0.164,0.703,0.164,1.072c0,0.729-0.145,1.301-0.435,1.714
				c-0.29,0.413-0.679,0.62-1.166,0.62c-0.081,0-0.159-0.005-0.237-0.015c-0.078-0.01-0.157-0.015-0.237-0.015
				c-0.103,0-0.199,0.063-0.288,0.19c-0.089,0.126-0.134,0.287-0.134,0.481c0,0.253,0.036,0.438,0.108,0.554
				c0.072,0.117,0.205,0.18,0.4,0.19c0.16,0.01,0.318,0.017,0.473,0.022c0.155,0.005,0.313,0.012,0.473,0.022
				c0.264,0.01,0.489,0.063,0.676,0.16c0.186,0.097,0.338,0.229,0.456,0.394c0.117,0.166,0.203,0.355,0.258,0.569
				c0.054,0.214,0.082,0.447,0.082,0.7c0,0.34-0.039,0.686-0.116,1.036c-0.077,0.35-0.198,0.666-0.361,0.948
				c-0.164,0.282-0.374,0.515-0.633,0.7c-0.258,0.185-0.568,0.277-0.929,0.277c-0.556,0-0.995-0.187-1.316-0.562
				c-0.321-0.374-0.482-0.887-0.482-1.539c0-0.253,0.027-0.486,0.082-0.7c0.054-0.214,0.125-0.404,0.211-0.569
				c0.086-0.166,0.184-0.297,0.293-0.394c0.109-0.097,0.221-0.17,0.336-0.219v-0.029c-0.178-0.088-0.313-0.233-0.404-0.438
				c-0.092-0.204-0.138-0.447-0.138-0.729c0-0.165,0.019-0.316,0.056-0.452c0.037-0.136,0.085-0.257,0.142-0.365
				c0.057-0.107,0.123-0.194,0.198-0.262c0.075-0.068,0.147-0.112,0.215-0.131v-0.029c-0.264-0.194-0.471-0.469-0.62-0.824
				c-0.149-0.355-0.224-0.8-0.224-1.335C100.037,21.922,100.08,21.57,100.166,21.273z M102.791,27.348
				c-0.201-0.233-0.534-0.35-0.998-0.35c-0.43,0-0.763,0.119-0.998,0.357c-0.235,0.238-0.353,0.668-0.353,1.291
				c0,0.33,0.033,0.613,0.099,0.846c0.066,0.233,0.155,0.423,0.267,0.569c0.112,0.146,0.245,0.253,0.4,0.321
				c0.155,0.068,0.321,0.102,0.499,0.102c0.172,0,0.341-0.039,0.508-0.117c0.166-0.078,0.314-0.195,0.443-0.35
				c0.129-0.156,0.234-0.353,0.314-0.591c0.08-0.238,0.121-0.523,0.121-0.853C103.092,27.99,102.991,27.581,102.791,27.348z
				 M102.369,20.857c-0.172-0.321-0.399-0.481-0.68-0.481c-0.31,0-0.551,0.177-0.723,0.532c-0.172,0.355-0.258,0.829-0.258,1.422
				c0,0.613,0.079,1.096,0.237,1.451c0.158,0.355,0.403,0.532,0.736,0.532c0.166,0,0.308-0.056,0.426-0.168
				c0.117-0.112,0.215-0.263,0.293-0.452c0.077-0.19,0.135-0.408,0.172-0.656c0.037-0.248,0.056-0.508,0.056-0.78
				C102.627,21.645,102.541,21.178,102.369,20.857z"/>
		</g>
		<g>
			<path style="fill:#002D73;" d="M107.182,20.128c0.218-0.117,0.441-0.175,0.671-0.175c0.207,0,0.396,0.051,0.569,0.153
				c0.172,0.102,0.32,0.248,0.442,0.438c0.122,0.19,0.218,0.418,0.288,0.686c0.07,0.268,0.104,0.561,0.104,0.882
				c0,0.554-0.006,1.106-0.017,1.655c-0.011,0.549-0.017,1.13-0.017,1.743c0,0.117,0.001,0.241,0.004,0.372
				c0.003,0.131,0.016,0.248,0.039,0.35c0.023,0.102,0.056,0.187,0.099,0.255c0.043,0.068,0.108,0.102,0.194,0.102
				c0.029,0,0.059-0.002,0.09-0.007c0.031-0.005,0.062-0.022,0.09-0.051v0.321c-0.063,0.049-0.142,0.088-0.237,0.117
				c-0.095,0.029-0.2,0.044-0.314,0.044c-0.186,0-0.329-0.08-0.428-0.241c-0.099-0.161-0.157-0.367-0.175-0.62
				c-0.206,0.35-0.409,0.608-0.609,0.773c-0.2,0.165-0.446,0.248-0.737,0.248c-0.143,0-0.283-0.034-0.421-0.102
				c-0.137-0.068-0.258-0.18-0.364-0.335c-0.106-0.156-0.191-0.343-0.257-0.562c-0.066-0.219-0.099-0.469-0.099-0.751
				c0-0.583,0.107-1.036,0.322-1.357c0.214-0.321,0.51-0.535,0.888-0.642c0.309-0.088,0.55-0.163,0.725-0.226
				c0.175-0.063,0.303-0.129,0.386-0.197c0.083-0.068,0.133-0.148,0.15-0.241c0.017-0.092,0.026-0.212,0.026-0.357
				c0-0.243-0.017-0.476-0.051-0.7c-0.035-0.224-0.089-0.418-0.164-0.583c-0.075-0.165-0.172-0.299-0.293-0.401
				c-0.121-0.102-0.267-0.153-0.439-0.153c-0.23,0-0.443,0.087-0.641,0.263c-0.198,0.175-0.345,0.418-0.443,0.729h-0.095v-0.758
				C106.726,20.469,106.964,20.245,107.182,20.128z M108.255,23.541c-0.129,0.039-0.258,0.08-0.39,0.124
				c-0.132,0.044-0.261,0.1-0.39,0.168c-0.129,0.068-0.243,0.161-0.343,0.277c-0.1,0.117-0.18,0.262-0.24,0.437
				c-0.06,0.175-0.09,0.399-0.09,0.671c0,0.457,0.077,0.802,0.231,1.036c0.154,0.233,0.325,0.35,0.514,0.35
				c0.217,0,0.416-0.102,0.596-0.306c0.18-0.204,0.318-0.442,0.415-0.715l0.034-2.188C108.496,23.454,108.384,23.502,108.255,23.541
				z"/>
		</g>
		<g>
			<path style="fill:#002D73;" d="M113.077,21.273c-0.167-0.374-0.396-0.562-0.689-0.562c-0.401,0-0.696,0.209-0.882,0.627
				c-0.187,0.418-0.28,1.006-0.28,1.765v1.24c0,0.437,0.004,0.897,0.013,1.378c0.009,0.481,0.027,0.917,0.056,1.305
				c-0.132-0.02-0.261-0.029-0.387-0.029c-0.126,0-0.255,0.01-0.387,0.029c0.028-0.389,0.047-0.824,0.056-1.305
				c0.008-0.481,0.013-0.941,0.013-1.378v-1.517c0-0.438-0.005-0.897-0.013-1.378c-0.009-0.481-0.028-0.931-0.056-1.349
				c0.16,0.049,0.29,0.073,0.387,0.073c0.046,0,0.096-0.007,0.151-0.022c0.054-0.015,0.119-0.031,0.194-0.051
				c-0.017,0.389-0.026,0.778-0.026,1.167h0.017c0.161-0.418,0.354-0.741,0.578-0.97c0.225-0.228,0.492-0.343,0.803-0.343
				c0.161,0,0.323,0.039,0.488,0.117c0.164,0.078,0.312,0.212,0.444,0.401c0.132,0.19,0.24,0.447,0.324,0.773
				c0.084,0.326,0.125,0.742,0.125,1.247c0,0.418-0.006,0.848-0.017,1.291c-0.012,0.443-0.017,0.912-0.017,1.408v0.948
				c0,0.156,0.001,0.309,0.004,0.459c0.003,0.151,0.007,0.294,0.013,0.43c-0.116-0.02-0.238-0.029-0.366-0.029
				c-0.122,0-0.241,0.01-0.357,0.029c0.011-0.505,0.024-1.026,0.039-1.561c0.014-0.535,0.021-1.084,0.021-1.648v-0.89
				C113.326,22.199,113.243,21.648,113.077,21.273z"/>
			<path style="fill:#002D73;" d="M118.214,25.641c-0.046,0.156-0.107,0.323-0.185,0.503c-0.077,0.18-0.175,0.348-0.293,0.503
				c-0.118,0.156-0.257,0.282-0.417,0.379c-0.161,0.097-0.347,0.146-0.559,0.146c-0.218,0-0.432-0.063-0.641-0.19
				c-0.209-0.126-0.396-0.333-0.559-0.62c-0.164-0.287-0.295-0.656-0.396-1.108s-0.151-0.994-0.151-1.626
				c0-0.622,0.054-1.162,0.163-1.619c0.109-0.457,0.251-0.839,0.426-1.145c0.175-0.306,0.373-0.535,0.594-0.686
				c0.221-0.151,0.443-0.226,0.667-0.226c0.637,0,1.079,0.486,1.325,1.459h0.017v-1.429c0-0.369-0.002-0.741-0.004-1.116
				c-0.003-0.374-0.006-0.732-0.009-1.072c-0.003-0.34-0.006-0.661-0.009-0.963c-0.003-0.301-0.007-0.569-0.013-0.802
				c0.069,0.02,0.135,0.036,0.198,0.051c0.063,0.015,0.126,0.022,0.189,0.022c0.063,0,0.125-0.007,0.185-0.022
				c0.06-0.015,0.127-0.031,0.202-0.051c-0.017,0.311-0.031,0.761-0.043,1.349c-0.011,0.588-0.021,1.237-0.03,1.947
				c-0.009,0.71-0.016,1.439-0.021,2.188c-0.006,0.749-0.009,1.434-0.009,2.056c0,0.671,0.003,1.274,0.009,1.809
				c0.006,0.535,0.011,1.084,0.017,1.648c-0.115-0.02-0.227-0.029-0.336-0.029c-0.103,0-0.212,0.01-0.327,0.029l0.026-1.385H118.214
				z M115.878,25.16c0.072,0.379,0.164,0.683,0.275,0.912c0.112,0.229,0.24,0.386,0.383,0.474c0.143,0.088,0.284,0.131,0.422,0.131
				c0.224,0,0.416-0.095,0.577-0.284c0.16-0.19,0.294-0.437,0.4-0.744c0.106-0.306,0.184-0.654,0.232-1.043
				c0.049-0.389,0.073-0.778,0.073-1.167c0-0.933-0.106-1.646-0.318-2.137c-0.212-0.491-0.525-0.736-0.938-0.736
				c-0.207,0-0.386,0.08-0.538,0.241c-0.152,0.16-0.278,0.384-0.379,0.671c-0.1,0.287-0.175,0.622-0.224,1.006
				c-0.049,0.384-0.073,0.795-0.073,1.232C115.77,24.3,115.806,24.781,115.878,25.16z"/>
		</g>
	</g>
	<g>
		<g>
			<path style="fill:#002D73;" d="M1.838,36.906c-0.267-1.147-0.558-2.309-0.873-3.486c0.074,0.02,0.146,0.036,0.215,0.051
				c0.069,0.015,0.141,0.022,0.215,0.022c0.063,0,0.126-0.007,0.189-0.022c0.063-0.015,0.126-0.031,0.189-0.051
				c0.178,0.963,0.371,1.908,0.581,2.837c0.209,0.929,0.443,1.879,0.701,2.851c0.115-0.399,0.228-0.829,0.34-1.291
				c0.112-0.462,0.224-0.941,0.336-1.437c0.112-0.496,0.221-0.994,0.327-1.495c0.106-0.501,0.211-0.989,0.314-1.466
				c0.103,0.049,0.192,0.073,0.267,0.073c0.074,0,0.163-0.024,0.267-0.073c-0.31,1.177-0.614,2.339-0.912,3.486
				c-0.298,1.147-0.571,2.295-0.818,3.442c-0.086-0.02-0.175-0.029-0.267-0.029c-0.092,0-0.184,0.01-0.275,0.029
				C2.37,39.201,2.105,38.053,1.838,36.906z"/>
			<path style="fill:#002D73;" d="M5.973,30.357c0.086-0.146,0.189-0.219,0.31-0.219c0.121,0,0.224,0.073,0.31,0.219
				c0.086,0.146,0.129,0.321,0.129,0.525c0,0.204-0.043,0.379-0.129,0.525c-0.086,0.146-0.189,0.219-0.31,0.219
				c-0.121,0-0.224-0.073-0.31-0.219c-0.086-0.146-0.129-0.321-0.129-0.525C5.844,30.678,5.887,30.503,5.973,30.357z M5.952,34.769
				c-0.009-0.481-0.027-0.931-0.056-1.349c0.161,0.049,0.29,0.073,0.387,0.073S6.51,33.469,6.67,33.42
				c-0.029,0.418-0.047,0.868-0.056,1.349c-0.009,0.481-0.013,0.941-0.013,1.378v1.517c0,0.437,0.004,0.897,0.013,1.378
				c0.009,0.481,0.027,0.917,0.056,1.305c-0.132-0.02-0.261-0.029-0.387-0.029c-0.126,0-0.255,0.01-0.387,0.029
				c0.029-0.389,0.047-0.824,0.056-1.305c0.009-0.481,0.013-0.941,0.013-1.378v-1.517C5.965,35.71,5.96,35.251,5.952,34.769z"/>
			<path style="fill:#002D73;" d="M8.353,32.472C8.35,32.083,8.345,31.699,8.34,31.32c-0.006-0.379-0.013-0.741-0.021-1.087
				c-0.009-0.345-0.019-0.639-0.03-0.882c0.161,0.049,0.29,0.073,0.387,0.073c0.098,0,0.227-0.024,0.387-0.073
				c-0.012,0.243-0.021,0.537-0.03,0.882c-0.009,0.345-0.016,0.707-0.021,1.087c-0.006,0.379-0.01,0.763-0.013,1.152
				c-0.003,0.389-0.004,0.749-0.004,1.079v2.64c0,0.331,0.001,0.691,0.004,1.079c0.003,0.389,0.007,0.773,0.013,1.152
				c0.006,0.379,0.013,0.739,0.021,1.079c0.009,0.34,0.019,0.622,0.03,0.846c-0.132-0.02-0.261-0.029-0.387-0.029
				c-0.126,0-0.255,0.01-0.387,0.029c0.011-0.224,0.022-0.505,0.03-0.846c0.009-0.34,0.016-0.7,0.021-1.079
				c0.006-0.379,0.01-0.763,0.013-1.152c0.003-0.389,0.004-0.749,0.004-1.079v-2.64C8.357,33.221,8.355,32.861,8.353,32.472z"/>
			<path style="fill:#002D73;" d="M11.317,33.449c0.218-0.117,0.442-0.175,0.671-0.175c0.206,0,0.396,0.051,0.568,0.153
				c0.172,0.102,0.32,0.248,0.442,0.438c0.122,0.19,0.218,0.418,0.288,0.686c0.07,0.268,0.105,0.561,0.105,0.882
				c0,0.554-0.006,1.106-0.017,1.655c-0.011,0.549-0.017,1.13-0.017,1.743c0,0.117,0.001,0.241,0.004,0.372
				c0.003,0.131,0.016,0.248,0.039,0.35c0.023,0.102,0.056,0.187,0.099,0.255c0.043,0.068,0.108,0.102,0.194,0.102
				c0.029,0,0.059-0.002,0.09-0.007c0.031-0.005,0.062-0.022,0.09-0.051v0.321c-0.063,0.049-0.142,0.088-0.237,0.117
				c-0.095,0.029-0.199,0.044-0.314,0.044c-0.186,0-0.329-0.08-0.428-0.241c-0.099-0.161-0.157-0.367-0.175-0.62
				c-0.206,0.35-0.409,0.608-0.609,0.773c-0.2,0.165-0.446,0.248-0.737,0.248c-0.143,0-0.283-0.034-0.42-0.102
				c-0.137-0.068-0.259-0.18-0.364-0.335c-0.106-0.156-0.192-0.343-0.257-0.561c-0.066-0.219-0.099-0.469-0.099-0.751
				c0-0.583,0.107-1.036,0.322-1.357c0.214-0.321,0.51-0.535,0.888-0.642c0.309-0.088,0.55-0.163,0.725-0.226
				c0.175-0.063,0.303-0.129,0.386-0.197c0.083-0.068,0.133-0.148,0.15-0.241c0.017-0.092,0.026-0.212,0.026-0.357
				c0-0.243-0.017-0.476-0.052-0.7c-0.034-0.224-0.089-0.418-0.163-0.583c-0.075-0.165-0.172-0.299-0.293-0.401
				c-0.121-0.102-0.267-0.153-0.439-0.153c-0.23,0-0.443,0.087-0.641,0.263c-0.198,0.175-0.346,0.418-0.443,0.729h-0.095V34.12
				C10.861,33.79,11.099,33.566,11.317,33.449z M12.39,36.862c-0.128,0.039-0.258,0.08-0.39,0.124
				c-0.131,0.044-0.261,0.1-0.39,0.168c-0.129,0.068-0.243,0.161-0.343,0.277c-0.1,0.117-0.18,0.263-0.24,0.437
				c-0.06,0.175-0.09,0.399-0.09,0.671c0,0.457,0.077,0.802,0.231,1.036c0.154,0.233,0.325,0.35,0.514,0.35
				c0.217,0,0.415-0.102,0.595-0.306c0.18-0.204,0.318-0.442,0.415-0.715l0.034-2.188C12.631,36.775,12.518,36.823,12.39,36.862z"/>
			<path style="fill:#002D73;" d="M17.384,34.594c-0.166-0.374-0.396-0.562-0.688-0.562c-0.402,0-0.696,0.209-0.882,0.627
				c-0.186,0.418-0.28,1.006-0.28,1.765v1.24c0,0.437,0.004,0.897,0.013,1.378c0.009,0.481,0.027,0.917,0.056,1.305
				c-0.132-0.02-0.261-0.029-0.387-0.029c-0.126,0-0.255,0.01-0.387,0.029c0.029-0.389,0.047-0.824,0.056-1.305
				c0.009-0.481,0.013-0.941,0.013-1.378v-1.517c0-0.438-0.004-0.897-0.013-1.378c-0.009-0.481-0.027-0.931-0.056-1.349
				c0.161,0.049,0.29,0.073,0.387,0.073c0.046,0,0.096-0.007,0.151-0.022c0.054-0.015,0.119-0.031,0.194-0.051
				c-0.017,0.389-0.026,0.778-0.026,1.167h0.017c0.161-0.418,0.354-0.741,0.578-0.97c0.225-0.228,0.492-0.343,0.803-0.343
				c0.161,0,0.324,0.039,0.488,0.117c0.164,0.078,0.312,0.212,0.445,0.401c0.132,0.19,0.24,0.447,0.324,0.773
				c0.083,0.326,0.125,0.742,0.125,1.247c0,0.418-0.006,0.848-0.017,1.291c-0.011,0.443-0.017,0.912-0.017,1.408v0.948
				c0,0.156,0.001,0.309,0.004,0.459c0.003,0.151,0.007,0.294,0.013,0.43c-0.116-0.02-0.238-0.029-0.366-0.029
				c-0.122,0-0.241,0.01-0.357,0.029c0.011-0.505,0.024-1.026,0.039-1.561c0.014-0.535,0.021-1.084,0.021-1.648v-0.89
				C17.633,35.52,17.55,34.969,17.384,34.594z"/>
			<path style="fill:#002D73;" d="M20.396,31.466c-0.017,0.37-0.03,0.732-0.039,1.087c-0.009,0.355-0.019,0.712-0.03,1.072
				c0.063,0,0.181-0.002,0.353-0.007c0.172-0.005,0.358-0.017,0.559-0.036c-0.006,0.029-0.009,0.083-0.009,0.16v0.146v0.16
				c0,0.068,0.003,0.117,0.009,0.146c-0.075-0.01-0.152-0.017-0.232-0.022c-0.08-0.005-0.166-0.007-0.258-0.007h-0.422
				c-0.006,0.039-0.013,0.195-0.021,0.467c-0.009,0.272-0.016,0.596-0.022,0.97c-0.006,0.374-0.01,0.766-0.013,1.174
				c-0.003,0.408-0.004,0.773-0.004,1.094c0,0.272,0.004,0.54,0.013,0.802c0.009,0.263,0.036,0.498,0.082,0.707
				c0.046,0.209,0.115,0.377,0.206,0.503c0.092,0.127,0.224,0.19,0.396,0.19c0.046,0,0.108-0.01,0.185-0.029
				c0.077-0.019,0.145-0.044,0.202-0.073v0.35c-0.098,0.029-0.205,0.066-0.323,0.109c-0.118,0.044-0.231,0.066-0.34,0.066
				c-0.361,0-0.628-0.151-0.8-0.452c-0.172-0.301-0.258-0.744-0.258-1.327c0-0.263,0.003-0.547,0.009-0.853
				c0.006-0.306,0.013-0.642,0.021-1.006c0.009-0.365,0.016-0.768,0.022-1.211c0.006-0.442,0.009-0.936,0.009-1.48h-0.275
				c-0.046,0-0.095,0.003-0.146,0.007c-0.052,0.005-0.106,0.012-0.163,0.022c0.006-0.058,0.01-0.114,0.013-0.168
				c0.003-0.053,0.004-0.109,0.004-0.168c0-0.049-0.001-0.097-0.004-0.146c-0.003-0.049-0.007-0.097-0.013-0.146
				c0.258,0.029,0.447,0.044,0.568,0.044c-0.006-0.194-0.01-0.438-0.013-0.729c-0.003-0.292-0.01-0.593-0.021-0.904l0.714-0.51
				H20.396z"/>
			<path style="fill:#002D73;" d="M22.155,34.295c0.336-0.681,0.825-1.021,1.467-1.021c0.304,0,0.567,0.08,0.788,0.241
				c0.221,0.16,0.406,0.374,0.555,0.642c0.149,0.268,0.259,0.581,0.331,0.941c0.072,0.36,0.108,0.744,0.108,1.152
				c0,0.097-0.001,0.192-0.004,0.284c-0.003,0.093-0.007,0.187-0.013,0.284c-0.31-0.01-0.617-0.019-0.921-0.029
				c-0.304-0.01-0.611-0.015-0.921-0.015c-0.189,0-0.377,0.005-0.564,0.015c-0.186,0.01-0.374,0.02-0.564,0.029
				c-0.006,0.049-0.009,0.122-0.009,0.219v0.19c0,0.379,0.033,0.734,0.099,1.065c0.066,0.331,0.162,0.615,0.288,0.853
				c0.126,0.238,0.281,0.428,0.465,0.569c0.183,0.141,0.396,0.212,0.637,0.212c0.115,0,0.232-0.027,0.353-0.08
				c0.12-0.053,0.238-0.126,0.353-0.219c0.115-0.092,0.222-0.202,0.323-0.328c0.1-0.126,0.188-0.263,0.262-0.408l0.043,0.044
				l-0.052,0.715c-0.172,0.233-0.386,0.433-0.641,0.598c-0.255,0.165-0.521,0.248-0.796,0.248c-0.31,0-0.592-0.08-0.848-0.241
				c-0.255-0.16-0.476-0.394-0.663-0.7c-0.186-0.306-0.33-0.668-0.43-1.087c-0.1-0.418-0.151-0.87-0.151-1.356
				C21.652,35.914,21.82,34.976,22.155,34.295z M23.102,33.989c-0.146,0.166-0.267,0.372-0.361,0.62
				c-0.095,0.248-0.166,0.52-0.215,0.817c-0.049,0.297-0.079,0.576-0.09,0.839c0.178,0.01,0.363,0.02,0.555,0.029
				c0.192,0.01,0.38,0.015,0.564,0.015c0.189,0,0.381-0.005,0.577-0.015c0.195-0.01,0.384-0.019,0.568-0.029
				c0-0.263-0.013-0.54-0.039-0.831c-0.026-0.292-0.078-0.564-0.155-0.817c-0.077-0.253-0.185-0.462-0.323-0.627
				c-0.138-0.165-0.318-0.248-0.542-0.248C23.427,33.741,23.248,33.824,23.102,33.989z"/>
		</g>
		<g>
			<path style="fill:#002D73;" d="M28.11,34.456c-0.083-0.049-0.168-0.073-0.254-0.073c-0.138,0-0.261,0.054-0.37,0.16
				c-0.109,0.107-0.201,0.25-0.275,0.43c-0.075,0.18-0.132,0.394-0.172,0.642c-0.04,0.248-0.06,0.513-0.06,0.795v1.604
				c0,0.652,0.001,1.15,0.004,1.495c0.003,0.345,0.013,0.625,0.03,0.839c-0.115-0.02-0.23-0.029-0.344-0.029
				c-0.126,0-0.247,0.01-0.361,0.029c0.017-0.33,0.027-0.78,0.03-1.349c0.003-0.569,0.004-1.266,0.004-2.093v-0.467
				c0-0.379-0.001-0.817-0.004-1.313c-0.003-0.496-0.013-1.065-0.03-1.706c0.063,0.02,0.123,0.036,0.181,0.051
				c0.057,0.015,0.117,0.022,0.181,0.022c0.052,0,0.106-0.007,0.163-0.022c0.057-0.015,0.118-0.031,0.181-0.051
				c-0.023,0.35-0.036,0.627-0.039,0.831c-0.003,0.204-0.004,0.399-0.004,0.583l0.017,0.015c0.338-1.05,0.717-1.575,1.136-1.575
				c0.052,0,0.096,0.005,0.133,0.015c0.037,0.01,0.085,0.034,0.142,0.073c-0.029,0.117-0.046,0.294-0.052,0.532
				c-0.006,0.238-0.009,0.455-0.009,0.649l-0.06,0.073C28.249,34.558,28.193,34.504,28.11,34.456z"/>
		</g>
		<g>
			<path style="fill:#002D73;" d="M28.833,35.221c0.123-0.462,0.285-0.836,0.486-1.123c0.201-0.287,0.426-0.496,0.675-0.627
				c0.25-0.131,0.498-0.197,0.744-0.197c0.252,0,0.502,0.066,0.749,0.197c0.247,0.131,0.47,0.34,0.671,0.627
				c0.201,0.287,0.363,0.661,0.486,1.123c0.123,0.462,0.185,1.024,0.185,1.685c0,0.661-0.062,1.223-0.185,1.685
				c-0.123,0.462-0.285,0.836-0.486,1.123c-0.201,0.287-0.425,0.489-0.671,0.605c-0.247,0.117-0.496,0.175-0.749,0.175
				c-0.247,0-0.495-0.058-0.744-0.175c-0.25-0.117-0.475-0.318-0.675-0.605c-0.201-0.287-0.363-0.661-0.486-1.123
				c-0.123-0.462-0.185-1.023-0.185-1.685C28.648,36.245,28.71,35.683,28.833,35.221z M29.47,38.087
				c0.043,0.379,0.116,0.717,0.219,1.014c0.103,0.297,0.241,0.532,0.413,0.707c0.172,0.175,0.384,0.263,0.637,0.263
				c0.252,0,0.465-0.088,0.637-0.263c0.172-0.175,0.31-0.411,0.413-0.707c0.103-0.296,0.176-0.634,0.219-1.014
				c0.043-0.379,0.065-0.773,0.065-1.181c0-0.408-0.021-0.802-0.065-1.181c-0.043-0.379-0.116-0.717-0.219-1.014
				c-0.103-0.296-0.241-0.532-0.413-0.707c-0.172-0.175-0.384-0.263-0.637-0.263c-0.252,0-0.465,0.088-0.637,0.263
				c-0.172,0.175-0.31,0.411-0.413,0.707c-0.103,0.297-0.176,0.634-0.219,1.014c-0.043,0.379-0.065,0.773-0.065,1.181
				C29.405,37.314,29.427,37.708,29.47,38.087z"/>
		</g>
		<g>
			<path style="fill:#002D73;" d="M33.833,32.472c-0.003-0.389-0.007-0.773-0.013-1.152c-0.006-0.379-0.013-0.741-0.021-1.087
				c-0.009-0.345-0.019-0.639-0.03-0.882c0.161,0.049,0.29,0.073,0.387,0.073c0.098,0,0.227-0.024,0.387-0.073
				c-0.012,0.243-0.021,0.537-0.03,0.882c-0.009,0.345-0.016,0.707-0.021,1.087c-0.006,0.379-0.01,0.763-0.013,1.152
				c-0.003,0.389-0.004,0.749-0.004,1.079v2.64c0,0.331,0.001,0.691,0.004,1.079c0.003,0.389,0.007,0.773,0.013,1.152
				c0.006,0.379,0.013,0.739,0.021,1.079c0.009,0.34,0.019,0.622,0.03,0.846c-0.132-0.02-0.261-0.029-0.387-0.029
				c-0.126,0-0.255,0.01-0.387,0.029c0.011-0.224,0.022-0.505,0.03-0.846c0.009-0.34,0.016-0.7,0.021-1.079
				c0.006-0.379,0.01-0.763,0.013-1.152c0.003-0.389,0.004-0.749,0.004-1.079v-2.64C33.837,33.221,33.836,32.861,33.833,32.472z"/>
		</g>
		<g>
			<path style="fill:#002D73;" d="M38.777,30.868c0.252-0.233,0.559-0.35,0.921-0.35c0.224,0,0.436,0.049,0.637,0.146
				c0.201,0.097,0.374,0.253,0.521,0.467c0.146,0.214,0.263,0.481,0.349,0.802c0.086,0.321,0.129,0.71,0.129,1.167
				c0,0.331-0.023,0.639-0.069,0.926c-0.046,0.287-0.113,0.567-0.202,0.839c-0.089,0.272-0.201,0.547-0.336,0.824
				c-0.135,0.277-0.294,0.571-0.478,0.882c-0.109,0.185-0.235,0.399-0.379,0.642c-0.143,0.243-0.288,0.494-0.435,0.751
				c-0.146,0.258-0.285,0.513-0.417,0.766c-0.132,0.253-0.244,0.486-0.336,0.7h0.817c0.413,0,0.779-0.012,1.097-0.036
				c0.318-0.024,0.598-0.051,0.839-0.08c-0.029,0.214-0.043,0.394-0.043,0.54c0,0.136,0.014,0.301,0.043,0.496
				c-0.31-0.02-0.617-0.029-0.921-0.029c-0.304,0-0.611,0-0.921,0c-0.31,0-0.618,0-0.925,0c-0.307,0-0.615,0.01-0.925,0.029v-0.175
				c0.401-0.671,0.75-1.262,1.045-1.772c0.295-0.51,0.546-0.97,0.753-1.378c0.206-0.408,0.374-0.778,0.503-1.108
				c0.129-0.33,0.231-0.644,0.305-0.941c0.074-0.296,0.125-0.588,0.151-0.875c0.026-0.287,0.039-0.595,0.039-0.926
				c0-0.719-0.096-1.252-0.288-1.597c-0.192-0.345-0.417-0.518-0.676-0.518c-0.184,0-0.341,0.056-0.473,0.168
				c-0.132,0.112-0.241,0.248-0.327,0.408c-0.086,0.16-0.152,0.333-0.198,0.518c-0.046,0.185-0.077,0.35-0.095,0.496l-0.06,0.029
				l-0.301-0.715C38.306,31.466,38.524,31.101,38.777,30.868z"/>
		</g>
		<g>
			<path style="fill:#002D73;" d="M43.531,34.594c0.135-0.073,0.331-0.109,0.589-0.109c0.253,0,0.48,0.073,0.684,0.219
				c0.204,0.146,0.377,0.345,0.521,0.598c0.143,0.253,0.254,0.545,0.331,0.875c0.078,0.331,0.116,0.681,0.116,1.05
				c0,0.457-0.052,0.887-0.155,1.291c-0.103,0.404-0.25,0.754-0.439,1.05c-0.189,0.297-0.415,0.528-0.676,0.693
				c-0.261,0.165-0.552,0.248-0.873,0.248c-0.258,0-0.506-0.036-0.744-0.109c-0.238-0.073-0.449-0.216-0.632-0.43v-0.117
				c0.029-0.126,0.054-0.27,0.077-0.43c0.023-0.16,0.04-0.299,0.052-0.416h0.06c0.052,0.175,0.122,0.331,0.211,0.467
				c0.089,0.136,0.189,0.25,0.301,0.343c0.112,0.093,0.229,0.161,0.353,0.204c0.123,0.044,0.242,0.066,0.357,0.066
				c0.172,0,0.337-0.053,0.495-0.16c0.158-0.107,0.297-0.272,0.417-0.496c0.121-0.224,0.218-0.505,0.293-0.846
				c0.075-0.34,0.112-0.739,0.112-1.196c0-0.408-0.034-0.758-0.103-1.05c-0.069-0.292-0.159-0.53-0.271-0.715
				c-0.112-0.185-0.24-0.318-0.383-0.401c-0.143-0.082-0.293-0.124-0.447-0.124c-0.241,0-0.436,0.066-0.585,0.197
				c-0.149,0.131-0.25,0.226-0.301,0.284l-0.095-0.102c0.04-0.379,0.065-0.78,0.073-1.203c0.009-0.423,0.013-0.843,0.013-1.262
				c0-0.408-0.004-0.829-0.013-1.262c-0.009-0.433-0.027-0.814-0.056-1.145l0.077-0.088c0.098,0.029,0.258,0.058,0.482,0.088
				c0.252,0.029,0.602,0.044,1.05,0.044c0.275,0,0.519-0.002,0.731-0.007c0.212-0.005,0.37-0.012,0.473-0.022l0.043,0.058
				c-0.023,0.127-0.039,0.26-0.047,0.401c-0.009,0.141-0.013,0.28-0.013,0.416c0,0.136,0.003,0.219,0.009,0.248
				c-0.126-0.039-0.294-0.07-0.503-0.095c-0.21-0.024-0.429-0.044-0.658-0.058c-0.23-0.015-0.45-0.024-0.663-0.029
				c-0.212-0.005-0.384-0.007-0.516-0.007l-0.121,3.311C43.271,34.757,43.396,34.667,43.531,34.594z"/>
		</g>
		<g>
			<path style="fill:#002D73;" d="M48.427,34.769c-0.009-0.481-0.027-0.931-0.056-1.349c0.161,0.049,0.29,0.073,0.387,0.073
				c0.046,0,0.096-0.007,0.151-0.022c0.054-0.015,0.119-0.031,0.194-0.051c-0.017,0.389-0.026,0.778-0.026,1.167h0.017
				c0.303-0.875,0.729-1.313,1.278-1.313c0.143,0,0.283,0.036,0.42,0.109c0.137,0.073,0.262,0.173,0.373,0.299
				c0.112,0.126,0.207,0.28,0.288,0.459c0.08,0.18,0.134,0.372,0.163,0.576h0.017c0.138-0.467,0.327-0.824,0.565-1.072
				c0.239-0.248,0.514-0.372,0.824-0.372c0.19,0,0.366,0.044,0.527,0.131c0.161,0.088,0.3,0.224,0.418,0.408
				c0.118,0.185,0.21,0.423,0.276,0.715c0.066,0.292,0.099,0.642,0.099,1.05c0,0.165-0.003,0.345-0.009,0.54
				c-0.006,0.195-0.011,0.421-0.017,0.678c-0.006,0.258-0.011,0.549-0.017,0.875c-0.006,0.326-0.009,0.703-0.009,1.13
				c0,0.263,0.001,0.516,0.004,0.759c0.003,0.243,0.01,0.506,0.021,0.788c-0.063-0.02-0.126-0.029-0.189-0.029
				c-0.063,0-0.123,0-0.181,0c-0.063,0-0.126,0-0.189,0c-0.063,0-0.126,0.01-0.189,0.029c0.017-0.243,0.036-0.734,0.056-1.473
				c0.02-0.739,0.03-1.77,0.03-3.092c0-0.243-0.016-0.472-0.048-0.686c-0.032-0.214-0.082-0.399-0.151-0.554
				c-0.069-0.155-0.161-0.279-0.277-0.372c-0.115-0.092-0.259-0.138-0.432-0.138c-0.207,0-0.383,0.068-0.527,0.204
				c-0.144,0.136-0.256,0.297-0.337,0.481c-0.046,0.107-0.082,0.214-0.108,0.321c-0.026,0.107-0.046,0.27-0.06,0.489
				c-0.014,0.219-0.024,0.525-0.03,0.919c-0.006,0.394-0.009,0.936-0.009,1.626c0,0.418,0.004,0.8,0.013,1.145
				c0.009,0.345,0.019,0.722,0.03,1.13c-0.131-0.02-0.255-0.029-0.374-0.029c-0.119,0-0.244,0.01-0.374,0.029
				c0.025-0.535,0.043-1.079,0.053-1.634c0.01-0.554,0.015-1.099,0.015-1.633c0-0.457-0.001-0.814-0.004-1.072
				c-0.003-0.257-0.01-0.462-0.021-0.613c-0.011-0.151-0.027-0.275-0.047-0.372c-0.02-0.097-0.047-0.204-0.081-0.321
				c-0.063-0.185-0.161-0.343-0.296-0.474c-0.134-0.131-0.273-0.197-0.416-0.197c-0.377,0-0.654,0.209-0.831,0.627
				c-0.177,0.418-0.266,1.006-0.266,1.765v1.24c0,0.437,0.004,0.897,0.013,1.378c0.009,0.481,0.027,0.917,0.056,1.305
				c-0.132-0.02-0.261-0.029-0.387-0.029c-0.126,0-0.255,0.01-0.387,0.029c0.029-0.389,0.047-0.824,0.056-1.305
				c0.009-0.481,0.013-0.941,0.013-1.378v-1.517C48.44,35.71,48.436,35.251,48.427,34.769z"/>
			<path style="fill:#002D73;" d="M55.488,35.272c0.126-0.457,0.291-0.834,0.495-1.13c0.203-0.296,0.437-0.515,0.701-0.656
				c0.264-0.141,0.534-0.212,0.809-0.212c0.315,0,0.598,0.066,0.848,0.197c0.25,0.131,0.429,0.28,0.538,0.445
				c-0.04,0.146-0.076,0.299-0.108,0.459c-0.032,0.161-0.059,0.328-0.082,0.503H58.62c-0.04-0.126-0.095-0.255-0.164-0.387
				c-0.069-0.131-0.151-0.253-0.245-0.365c-0.095-0.112-0.199-0.204-0.314-0.277c-0.115-0.073-0.241-0.109-0.379-0.109
				c-0.258,0-0.481,0.08-0.667,0.241c-0.186,0.16-0.339,0.382-0.456,0.664c-0.118,0.282-0.204,0.615-0.258,0.999
				c-0.055,0.384-0.082,0.8-0.082,1.247c0,1.002,0.126,1.757,0.379,2.268c0.252,0.51,0.622,0.766,1.11,0.766
				c0.115,0,0.232-0.027,0.353-0.08c0.121-0.053,0.238-0.126,0.353-0.219c0.115-0.092,0.222-0.202,0.323-0.328
				c0.1-0.126,0.188-0.263,0.263-0.408l0.043,0.044c-0.029,0.233-0.046,0.472-0.052,0.715c-0.172,0.233-0.386,0.433-0.641,0.598
				c-0.255,0.165-0.521,0.248-0.796,0.248c-0.247,0-0.495-0.061-0.744-0.182c-0.25-0.121-0.475-0.326-0.676-0.613
				c-0.201-0.287-0.363-0.659-0.486-1.116c-0.123-0.457-0.185-1.016-0.185-1.677C55.299,36.274,55.362,35.73,55.488,35.272z"/>
			<path style="fill:#002D73;" d="M59.799,34.594c0.086-0.296,0.205-0.542,0.357-0.737c0.152-0.194,0.327-0.34,0.525-0.437
				c0.198-0.097,0.409-0.146,0.632-0.146c0.109,0,0.214,0.005,0.314,0.015c0.1,0.01,0.228,0.024,0.383,0.044
				c0.132,0.02,0.25,0.034,0.353,0.044c0.103,0.01,0.186,0.015,0.25,0.015c0.321,0,0.554-0.024,0.697-0.073
				c-0.006,0.049-0.01,0.1-0.013,0.153c-0.003,0.053-0.004,0.104-0.004,0.153c0,0.049,0.001,0.1,0.004,0.153
				c0.003,0.054,0.007,0.105,0.013,0.153c-0.166-0.019-0.328-0.041-0.486-0.066c-0.158-0.024-0.314-0.041-0.469-0.051l-0.017,0.029
				c0.178,0.166,0.321,0.421,0.43,0.766c0.109,0.345,0.163,0.703,0.163,1.072c0,0.729-0.145,1.301-0.435,1.714
				c-0.29,0.413-0.678,0.62-1.166,0.62c-0.08,0-0.159-0.005-0.237-0.015c-0.077-0.01-0.156-0.015-0.237-0.015
				c-0.103,0-0.199,0.063-0.288,0.19c-0.089,0.126-0.133,0.287-0.133,0.481c0,0.253,0.036,0.438,0.108,0.554
				c0.072,0.117,0.205,0.18,0.4,0.19c0.161,0.01,0.318,0.017,0.473,0.022c0.155,0.005,0.313,0.012,0.473,0.022
				c0.264,0.01,0.489,0.063,0.676,0.16c0.186,0.097,0.338,0.229,0.456,0.394c0.118,0.166,0.204,0.355,0.258,0.569
				c0.054,0.214,0.082,0.447,0.082,0.7c0,0.34-0.039,0.686-0.116,1.036c-0.078,0.35-0.198,0.666-0.362,0.948
				c-0.163,0.282-0.374,0.515-0.632,0.7c-0.258,0.185-0.568,0.277-0.929,0.277c-0.556,0-0.995-0.187-1.317-0.562
				c-0.321-0.374-0.482-0.887-0.482-1.539c0-0.253,0.027-0.486,0.082-0.7c0.054-0.214,0.125-0.404,0.211-0.569
				c0.086-0.166,0.184-0.297,0.293-0.394c0.109-0.097,0.221-0.17,0.336-0.219v-0.029c-0.178-0.088-0.313-0.233-0.404-0.438
				c-0.092-0.204-0.138-0.447-0.138-0.729c0-0.165,0.019-0.316,0.056-0.452c0.037-0.136,0.085-0.257,0.142-0.365
				c0.057-0.107,0.123-0.194,0.198-0.263c0.075-0.068,0.146-0.112,0.215-0.131V37.81c-0.264-0.194-0.47-0.469-0.619-0.824
				c-0.149-0.355-0.224-0.8-0.224-1.335C59.67,35.243,59.713,34.891,59.799,34.594z M62.424,40.669
				c-0.201-0.233-0.534-0.35-0.998-0.35c-0.43,0-0.763,0.119-0.998,0.357c-0.235,0.238-0.353,0.668-0.353,1.291
				c0,0.33,0.033,0.613,0.099,0.846c0.066,0.233,0.155,0.423,0.267,0.569c0.112,0.146,0.245,0.253,0.4,0.321
				c0.155,0.068,0.321,0.102,0.499,0.102c0.172,0,0.341-0.039,0.508-0.117c0.166-0.078,0.314-0.195,0.443-0.35
				c0.129-0.156,0.234-0.353,0.314-0.591c0.08-0.238,0.12-0.523,0.12-0.853C62.725,41.311,62.625,40.902,62.424,40.669z
				 M62.002,34.178c-0.172-0.321-0.399-0.481-0.68-0.481c-0.31,0-0.551,0.177-0.723,0.532c-0.172,0.355-0.258,0.829-0.258,1.422
				c0,0.613,0.079,1.096,0.237,1.451c0.158,0.355,0.403,0.532,0.736,0.532c0.166,0,0.308-0.056,0.426-0.168
				c0.118-0.112,0.215-0.263,0.293-0.452c0.077-0.19,0.135-0.408,0.172-0.656c0.037-0.248,0.056-0.508,0.056-0.78
				C62.26,34.966,62.174,34.499,62.002,34.178z"/>
		</g>
		<g>
			<path style="fill:#002D73;" d="M66.649,30.357c0.086-0.146,0.189-0.219,0.31-0.219c0.121,0,0.224,0.073,0.31,0.219
				c0.086,0.146,0.129,0.321,0.129,0.525c0,0.204-0.043,0.379-0.129,0.525c-0.086,0.146-0.189,0.219-0.31,0.219
				c-0.121,0-0.224-0.073-0.31-0.219c-0.086-0.146-0.129-0.321-0.129-0.525C66.52,30.678,66.563,30.503,66.649,30.357z
				 M66.628,34.769c-0.009-0.481-0.027-0.931-0.056-1.349c0.161,0.049,0.29,0.073,0.387,0.073c0.098,0,0.227-0.024,0.387-0.073
				c-0.029,0.418-0.047,0.868-0.056,1.349c-0.009,0.481-0.013,0.941-0.013,1.378v1.517c0,0.437,0.004,0.897,0.013,1.378
				c0.009,0.481,0.027,0.917,0.056,1.305c-0.132-0.02-0.261-0.029-0.387-0.029c-0.126,0-0.255,0.01-0.387,0.029
				c0.029-0.389,0.047-0.824,0.056-1.305c0.009-0.481,0.013-0.941,0.013-1.378v-1.517C66.64,35.71,66.636,35.251,66.628,34.769z"/>
			<path style="fill:#002D73;" d="M71.365,34.594c-0.166-0.374-0.396-0.562-0.688-0.562c-0.402,0-0.696,0.209-0.882,0.627
				c-0.186,0.418-0.28,1.006-0.28,1.765v1.24c0,0.437,0.004,0.897,0.013,1.378c0.009,0.481,0.027,0.917,0.056,1.305
				c-0.132-0.02-0.261-0.029-0.387-0.029c-0.126,0-0.255,0.01-0.387,0.029c0.029-0.389,0.047-0.824,0.056-1.305
				c0.009-0.481,0.013-0.941,0.013-1.378v-1.517c0-0.438-0.004-0.897-0.013-1.378c-0.009-0.481-0.027-0.931-0.056-1.349
				c0.161,0.049,0.29,0.073,0.387,0.073c0.046,0,0.096-0.007,0.151-0.022c0.054-0.015,0.119-0.031,0.194-0.051
				c-0.017,0.389-0.026,0.778-0.026,1.167h0.017c0.161-0.418,0.354-0.741,0.578-0.97c0.225-0.228,0.492-0.343,0.803-0.343
				c0.161,0,0.324,0.039,0.488,0.117c0.164,0.078,0.312,0.212,0.445,0.401c0.132,0.19,0.24,0.447,0.324,0.773
				c0.083,0.326,0.125,0.742,0.125,1.247c0,0.418-0.006,0.848-0.017,1.291c-0.011,0.443-0.017,0.912-0.017,1.408v0.948
				c0,0.156,0.001,0.309,0.004,0.459c0.003,0.151,0.007,0.294,0.013,0.43c-0.116-0.02-0.238-0.029-0.366-0.029
				c-0.122,0-0.241,0.01-0.357,0.029c0.011-0.505,0.024-1.026,0.039-1.561c0.014-0.535,0.021-1.084,0.021-1.648v-0.89
				C71.614,35.52,71.531,34.969,71.365,34.594z"/>
			<path style="fill:#002D73;" d="M73.658,32.472c-0.003-0.389-0.007-0.773-0.013-1.152c-0.006-0.379-0.013-0.741-0.022-1.087
				c-0.009-0.345-0.019-0.639-0.03-0.882c0.161,0.049,0.29,0.073,0.387,0.073c0.098,0,0.227-0.024,0.387-0.073
				c-0.011,0.243-0.021,0.535-0.03,0.875c-0.009,0.34-0.016,0.698-0.021,1.072c-0.006,0.374-0.01,0.751-0.013,1.13
				c-0.003,0.379-0.004,0.729-0.004,1.05v1.108h0.017c0.161-0.418,0.354-0.741,0.578-0.97c0.225-0.228,0.492-0.343,0.803-0.343
				c0.161,0,0.324,0.039,0.488,0.117c0.164,0.078,0.312,0.212,0.445,0.401c0.132,0.19,0.24,0.447,0.324,0.773
				c0.083,0.326,0.125,0.742,0.125,1.247c0,0.418-0.006,0.848-0.017,1.291c-0.011,0.443-0.017,0.912-0.017,1.408v0.948
				c0,0.156,0.001,0.309,0.004,0.459c0.003,0.151,0.007,0.294,0.013,0.43c-0.116-0.02-0.238-0.029-0.366-0.029
				c-0.122,0-0.241,0.01-0.357,0.029c0.011-0.505,0.024-1.026,0.039-1.561c0.014-0.535,0.021-1.084,0.021-1.648v-0.89
				c0-0.729-0.083-1.281-0.25-1.655c-0.166-0.374-0.396-0.562-0.688-0.562c-0.402,0-0.696,0.209-0.882,0.627
				c-0.186,0.418-0.28,1.006-0.28,1.765c0,0.272,0.001,0.588,0.004,0.948c0.003,0.36,0.007,0.722,0.013,1.087
				c0.006,0.365,0.013,0.717,0.021,1.057c0.009,0.34,0.019,0.618,0.03,0.831c-0.132-0.02-0.261-0.029-0.387-0.029
				c-0.126,0-0.255,0.01-0.387,0.029c0.011-0.224,0.021-0.505,0.03-0.846c0.009-0.34,0.016-0.7,0.022-1.079
				c0.006-0.379,0.01-0.763,0.013-1.152c0.003-0.389,0.004-0.749,0.004-1.079v-2.64C73.662,33.221,73.661,32.861,73.658,32.472z"/>
			<path style="fill:#002D73;" d="M79.17,33.449c0.218-0.117,0.442-0.175,0.671-0.175c0.206,0,0.396,0.051,0.568,0.153
				s0.32,0.248,0.442,0.438c0.122,0.19,0.218,0.418,0.288,0.686c0.07,0.268,0.105,0.561,0.105,0.882
				c0,0.554-0.006,1.106-0.017,1.655c-0.011,0.549-0.017,1.13-0.017,1.743c0,0.117,0.001,0.241,0.004,0.372
				c0.003,0.131,0.016,0.248,0.039,0.35c0.023,0.102,0.056,0.187,0.099,0.255c0.043,0.068,0.108,0.102,0.194,0.102
				c0.029,0,0.059-0.002,0.09-0.007c0.031-0.005,0.062-0.022,0.09-0.051v0.321c-0.063,0.049-0.142,0.088-0.237,0.117
				c-0.095,0.029-0.199,0.044-0.314,0.044c-0.186,0-0.329-0.08-0.428-0.241c-0.099-0.161-0.157-0.367-0.175-0.62
				c-0.206,0.35-0.409,0.608-0.609,0.773c-0.2,0.165-0.446,0.248-0.737,0.248c-0.143,0-0.283-0.034-0.42-0.102
				c-0.137-0.068-0.259-0.18-0.364-0.335c-0.106-0.156-0.192-0.343-0.257-0.561c-0.066-0.219-0.099-0.469-0.099-0.751
				c0-0.583,0.107-1.036,0.322-1.357c0.214-0.321,0.51-0.535,0.888-0.642c0.309-0.088,0.55-0.163,0.725-0.226
				c0.175-0.063,0.303-0.129,0.386-0.197c0.083-0.068,0.133-0.148,0.15-0.241c0.017-0.092,0.026-0.212,0.026-0.357
				c0-0.243-0.017-0.476-0.052-0.7c-0.034-0.224-0.089-0.418-0.163-0.583c-0.075-0.165-0.172-0.299-0.293-0.401
				c-0.121-0.102-0.267-0.153-0.439-0.153c-0.23,0-0.443,0.087-0.641,0.263c-0.198,0.175-0.346,0.418-0.443,0.729h-0.095V34.12
				C78.714,33.79,78.951,33.566,79.17,33.449z M80.243,36.862c-0.128,0.039-0.258,0.08-0.39,0.124
				c-0.131,0.044-0.261,0.1-0.39,0.168c-0.129,0.068-0.243,0.161-0.343,0.277c-0.1,0.117-0.18,0.263-0.24,0.437
				c-0.06,0.175-0.09,0.399-0.09,0.671c0,0.457,0.077,0.802,0.231,1.036c0.154,0.233,0.325,0.35,0.514,0.35
				c0.217,0,0.415-0.102,0.595-0.306c0.18-0.204,0.318-0.442,0.415-0.715l0.034-2.188C80.484,36.775,80.371,36.823,80.243,36.862z"
				/>
			<path style="fill:#002D73;" d="M82.9,32.472c-0.003-0.389-0.007-0.773-0.013-1.152c-0.006-0.379-0.013-0.741-0.021-1.087
				c-0.009-0.345-0.019-0.639-0.03-0.882c0.161,0.049,0.29,0.073,0.387,0.073c0.098,0,0.227-0.024,0.387-0.073
				c-0.012,0.243-0.021,0.537-0.03,0.882c-0.009,0.345-0.016,0.707-0.021,1.087c-0.006,0.379-0.01,0.763-0.013,1.152
				c-0.003,0.389-0.004,0.749-0.004,1.079v2.64c0,0.331,0.001,0.691,0.004,1.079c0.003,0.389,0.007,0.773,0.013,1.152
				c0.006,0.379,0.013,0.739,0.021,1.079c0.009,0.34,0.019,0.622,0.03,0.846c-0.132-0.02-0.261-0.029-0.387-0.029
				c-0.126,0-0.255,0.01-0.387,0.029c0.011-0.224,0.022-0.505,0.03-0.846c0.009-0.34,0.016-0.7,0.021-1.079
				c0.006-0.379,0.01-0.763,0.013-1.152c0.003-0.389,0.004-0.749,0.004-1.079v-2.64C82.904,33.221,82.903,32.861,82.9,32.472z"/>
			<path style="fill:#002D73;" d="M85.865,33.449c0.218-0.117,0.441-0.175,0.671-0.175c0.207,0,0.396,0.051,0.569,0.153
				c0.172,0.102,0.32,0.248,0.442,0.438c0.122,0.19,0.218,0.418,0.288,0.686c0.07,0.268,0.105,0.561,0.105,0.882
				c0,0.554-0.006,1.106-0.017,1.655c-0.011,0.549-0.017,1.13-0.017,1.743c0,0.117,0.001,0.241,0.004,0.372
				c0.003,0.131,0.016,0.248,0.039,0.35c0.023,0.102,0.056,0.187,0.099,0.255c0.043,0.068,0.108,0.102,0.194,0.102
				c0.029,0,0.059-0.002,0.09-0.007c0.031-0.005,0.062-0.022,0.09-0.051v0.321c-0.063,0.049-0.142,0.088-0.237,0.117
				c-0.095,0.029-0.199,0.044-0.314,0.044c-0.186,0-0.329-0.08-0.428-0.241c-0.099-0.161-0.157-0.367-0.175-0.62
				c-0.206,0.35-0.409,0.608-0.609,0.773c-0.2,0.165-0.446,0.248-0.737,0.248c-0.143,0-0.283-0.034-0.42-0.102
				c-0.137-0.068-0.259-0.18-0.364-0.335c-0.106-0.156-0.192-0.343-0.257-0.561c-0.066-0.219-0.099-0.469-0.099-0.751
				c0-0.583,0.107-1.036,0.322-1.357c0.214-0.321,0.51-0.535,0.888-0.642c0.309-0.088,0.55-0.163,0.725-0.226
				c0.175-0.063,0.303-0.129,0.386-0.197c0.083-0.068,0.133-0.148,0.15-0.241c0.017-0.092,0.026-0.212,0.026-0.357
				c0-0.243-0.017-0.476-0.052-0.7c-0.034-0.224-0.089-0.418-0.164-0.583c-0.074-0.165-0.172-0.299-0.293-0.401
				c-0.12-0.102-0.267-0.153-0.439-0.153c-0.23,0-0.443,0.087-0.641,0.263c-0.198,0.175-0.346,0.418-0.443,0.729H85.15V34.12
				C85.408,33.79,85.646,33.566,85.865,33.449z M86.937,36.862c-0.129,0.039-0.259,0.08-0.39,0.124
				c-0.131,0.044-0.261,0.1-0.39,0.168c-0.128,0.068-0.242,0.161-0.343,0.277c-0.1,0.117-0.18,0.263-0.24,0.437
				c-0.06,0.175-0.09,0.399-0.09,0.671c0,0.457,0.077,0.802,0.231,1.036c0.154,0.233,0.325,0.35,0.514,0.35
				c0.217,0,0.415-0.102,0.595-0.306c0.18-0.204,0.318-0.442,0.416-0.715l0.034-2.188C87.178,36.775,87.066,36.823,86.937,36.862z"
				/>
			<path style="fill:#002D73;" d="M90.158,31.466c-0.017,0.37-0.03,0.732-0.039,1.087c-0.009,0.355-0.019,0.712-0.03,1.072
				c0.063,0,0.181-0.002,0.353-0.007c0.172-0.005,0.358-0.017,0.559-0.036c-0.006,0.029-0.009,0.083-0.009,0.16v0.146v0.16
				c0,0.068,0.003,0.117,0.009,0.146c-0.075-0.01-0.152-0.017-0.232-0.022c-0.08-0.005-0.166-0.007-0.258-0.007H90.09
				c-0.006,0.039-0.013,0.195-0.021,0.467c-0.009,0.272-0.016,0.596-0.021,0.97c-0.006,0.374-0.01,0.766-0.013,1.174
				c-0.003,0.408-0.004,0.773-0.004,1.094c0,0.272,0.004,0.54,0.013,0.802c0.009,0.263,0.036,0.498,0.082,0.707
				c0.046,0.209,0.115,0.377,0.207,0.503c0.092,0.127,0.224,0.19,0.396,0.19c0.046,0,0.108-0.01,0.185-0.029
				c0.077-0.019,0.145-0.044,0.202-0.073v0.35c-0.098,0.029-0.205,0.066-0.323,0.109c-0.118,0.044-0.231,0.066-0.34,0.066
				c-0.362,0-0.628-0.151-0.8-0.452c-0.172-0.301-0.258-0.744-0.258-1.327c0-0.263,0.003-0.547,0.009-0.853
				c0.006-0.306,0.013-0.642,0.021-1.006c0.009-0.365,0.016-0.768,0.021-1.211c0.006-0.442,0.009-0.936,0.009-1.48h-0.275
				c-0.046,0-0.095,0.003-0.146,0.007c-0.052,0.005-0.106,0.012-0.164,0.022c0.006-0.058,0.01-0.114,0.013-0.168
				c0.003-0.053,0.004-0.109,0.004-0.168c0-0.049-0.001-0.097-0.004-0.146c-0.003-0.049-0.007-0.097-0.013-0.146
				c0.258,0.029,0.448,0.044,0.568,0.044c-0.006-0.194-0.01-0.438-0.013-0.729c-0.003-0.292-0.01-0.593-0.021-0.904l0.714-0.51
				H90.158z"/>
			<path style="fill:#002D73;" d="M92,30.357c0.086-0.146,0.189-0.219,0.31-0.219c0.12,0,0.224,0.073,0.31,0.219
				c0.086,0.146,0.129,0.321,0.129,0.525c0,0.204-0.043,0.379-0.129,0.525c-0.086,0.146-0.189,0.219-0.31,0.219
				c-0.121,0-0.224-0.073-0.31-0.219c-0.086-0.146-0.129-0.321-0.129-0.525C91.871,30.678,91.914,30.503,92,30.357z M91.979,34.769
				c-0.009-0.481-0.027-0.931-0.056-1.349c0.16,0.049,0.29,0.073,0.387,0.073c0.097,0,0.226-0.024,0.387-0.073
				c-0.029,0.418-0.047,0.868-0.056,1.349c-0.009,0.481-0.013,0.941-0.013,1.378v1.517c0,0.437,0.004,0.897,0.013,1.378
				c0.009,0.481,0.027,0.917,0.056,1.305c-0.132-0.02-0.261-0.029-0.387-0.029c-0.126,0-0.255,0.01-0.387,0.029
				c0.029-0.389,0.047-0.824,0.056-1.305c0.009-0.481,0.013-0.941,0.013-1.378v-1.517C91.992,35.71,91.987,35.251,91.979,34.769z"/>
			<path style="fill:#002D73;" d="M93.992,35.221c0.123-0.462,0.285-0.836,0.486-1.123c0.201-0.287,0.426-0.496,0.676-0.627
				c0.25-0.131,0.498-0.197,0.744-0.197c0.252,0,0.502,0.066,0.749,0.197c0.247,0.131,0.47,0.34,0.671,0.627
				c0.201,0.287,0.363,0.661,0.486,1.123c0.123,0.462,0.185,1.024,0.185,1.685c0,0.661-0.062,1.223-0.185,1.685
				c-0.123,0.462-0.285,0.836-0.486,1.123c-0.201,0.287-0.425,0.489-0.671,0.605c-0.247,0.117-0.496,0.175-0.749,0.175
				c-0.247,0-0.495-0.058-0.744-0.175c-0.25-0.117-0.475-0.318-0.676-0.605c-0.201-0.287-0.363-0.661-0.486-1.123
				c-0.123-0.462-0.185-1.023-0.185-1.685C93.807,36.245,93.869,35.683,93.992,35.221z M94.629,38.087
				c0.043,0.379,0.116,0.717,0.22,1.014c0.103,0.297,0.241,0.532,0.413,0.707c0.172,0.175,0.384,0.263,0.637,0.263
				s0.465-0.088,0.637-0.263c0.172-0.175,0.31-0.411,0.413-0.707c0.103-0.296,0.176-0.634,0.219-1.014
				c0.043-0.379,0.065-0.773,0.065-1.181c0-0.408-0.022-0.802-0.065-1.181c-0.043-0.379-0.116-0.717-0.219-1.014
				c-0.103-0.296-0.241-0.532-0.413-0.707c-0.172-0.175-0.384-0.263-0.637-0.263s-0.465,0.088-0.637,0.263
				c-0.172,0.175-0.31,0.411-0.413,0.707c-0.103,0.297-0.177,0.634-0.22,1.014c-0.043,0.379-0.064,0.773-0.064,1.181
				C94.564,37.314,94.586,37.708,94.629,38.087z"/>
			<path style="fill:#002D73;" d="M101.5,34.594c-0.167-0.374-0.396-0.562-0.689-0.562c-0.402,0-0.696,0.209-0.882,0.627
				c-0.186,0.418-0.28,1.006-0.28,1.765v1.24c0,0.437,0.004,0.897,0.013,1.378c0.009,0.481,0.027,0.917,0.056,1.305
				c-0.132-0.02-0.261-0.029-0.387-0.029c-0.126,0-0.255,0.01-0.387,0.029c0.029-0.389,0.047-0.824,0.056-1.305
				c0.009-0.481,0.013-0.941,0.013-1.378v-1.517c0-0.438-0.004-0.897-0.013-1.378c-0.009-0.481-0.027-0.931-0.056-1.349
				c0.161,0.049,0.29,0.073,0.387,0.073c0.046,0,0.096-0.007,0.151-0.022c0.054-0.015,0.119-0.031,0.194-0.051
				c-0.017,0.389-0.026,0.778-0.026,1.167h0.017c0.161-0.418,0.354-0.741,0.578-0.97c0.224-0.228,0.492-0.343,0.803-0.343
				c0.161,0,0.324,0.039,0.488,0.117c0.164,0.078,0.312,0.212,0.444,0.401c0.132,0.19,0.24,0.447,0.324,0.773
				c0.084,0.326,0.125,0.742,0.125,1.247c0,0.418-0.006,0.848-0.017,1.291c-0.012,0.443-0.018,0.912-0.018,1.408v0.948
				c0,0.156,0.002,0.309,0.005,0.459c0.002,0.151,0.007,0.294,0.013,0.43c-0.117-0.02-0.238-0.029-0.366-0.029
				c-0.122,0-0.241,0.01-0.357,0.029c0.012-0.505,0.025-1.026,0.039-1.561c0.014-0.535,0.022-1.084,0.022-1.648v-0.89
				C101.75,35.52,101.666,34.969,101.5,34.594z"/>
			<path style="fill:#002D73;" d="M106.022,36.585c-0.003-0.389-0.008-0.775-0.013-1.159c-0.006-0.384-0.013-0.751-0.022-1.101
				c-0.008-0.35-0.018-0.651-0.03-0.904c0.161,0.049,0.29,0.073,0.387,0.073c0.098,0,0.227-0.024,0.387-0.073
				c-0.023,0.253-0.04,0.496-0.052,0.729c-0.011,0.233-0.017,0.467-0.017,0.7h0.017c0.04-0.156,0.098-0.323,0.172-0.503
				c0.074-0.18,0.171-0.35,0.288-0.51c0.118-0.161,0.26-0.294,0.426-0.401c0.167-0.107,0.355-0.161,0.568-0.161
				c0.218,0,0.433,0.071,0.646,0.212c0.212,0.141,0.4,0.357,0.563,0.649c0.164,0.292,0.295,0.664,0.396,1.116
				c0.1,0.452,0.151,0.99,0.151,1.612c0,0.622-0.055,1.162-0.164,1.619c-0.109,0.457-0.251,0.837-0.426,1.138
				c-0.175,0.301-0.374,0.523-0.598,0.664c-0.224,0.141-0.447,0.211-0.671,0.211c-0.632,0-1.082-0.462-1.351-1.386h-0.017v0.919
				c0,0.311,0.001,0.659,0.004,1.043c0.003,0.384,0.007,0.766,0.013,1.145c0.006,0.379,0.013,0.741,0.022,1.087
				c0.008,0.345,0.018,0.639,0.03,0.882c-0.161-0.049-0.29-0.073-0.387-0.073c-0.098,0-0.227,0.024-0.387,0.073
				c0.012-0.243,0.022-0.537,0.03-0.882c0.009-0.345,0.016-0.707,0.022-1.087c0.005-0.379,0.01-0.761,0.013-1.145
				c0.003-0.384,0.004-0.732,0.004-1.043v-2.363C106.026,37.334,106.025,36.974,106.022,36.585z M109.025,35.404
				c-0.072-0.379-0.163-0.683-0.275-0.912c-0.112-0.228-0.24-0.387-0.383-0.474c-0.144-0.088-0.284-0.131-0.421-0.131
				c-0.23,0-0.426,0.083-0.59,0.248c-0.164,0.165-0.297,0.386-0.4,0.664c-0.103,0.277-0.178,0.603-0.224,0.977
				c-0.046,0.374-0.069,0.771-0.069,1.189c0,2.022,0.418,3.034,1.257,3.034c0.207,0,0.386-0.08,0.537-0.241
				c0.152-0.161,0.278-0.384,0.379-0.671c0.1-0.287,0.175-0.622,0.224-1.006c0.049-0.384,0.073-0.795,0.073-1.232
				C109.133,36.264,109.097,35.783,109.025,35.404z"/>
			<path style="fill:#002D73;" d="M110.738,35.221c0.123-0.462,0.285-0.836,0.486-1.123c0.201-0.287,0.426-0.496,0.676-0.627
				c0.25-0.131,0.497-0.197,0.744-0.197c0.253,0,0.502,0.066,0.749,0.197c0.247,0.131,0.47,0.34,0.672,0.627
				c0.201,0.287,0.363,0.661,0.486,1.123c0.123,0.462,0.185,1.024,0.185,1.685c0,0.661-0.062,1.223-0.185,1.685
				c-0.124,0.462-0.285,0.836-0.486,1.123c-0.201,0.287-0.425,0.489-0.672,0.605c-0.247,0.117-0.496,0.175-0.749,0.175
				c-0.247,0-0.494-0.058-0.744-0.175c-0.25-0.117-0.475-0.318-0.676-0.605c-0.201-0.287-0.363-0.661-0.486-1.123
				c-0.124-0.462-0.185-1.023-0.185-1.685C110.552,36.245,110.614,35.683,110.738,35.221z M111.375,38.087
				c0.043,0.379,0.116,0.717,0.22,1.014c0.103,0.297,0.241,0.532,0.413,0.707c0.172,0.175,0.384,0.263,0.637,0.263
				c0.253,0,0.465-0.088,0.637-0.263c0.172-0.175,0.31-0.411,0.413-0.707c0.103-0.296,0.177-0.634,0.22-1.014
				c0.043-0.379,0.065-0.773,0.065-1.181c0-0.408-0.022-0.802-0.065-1.181c-0.043-0.379-0.117-0.717-0.22-1.014
				c-0.103-0.296-0.241-0.532-0.413-0.707c-0.172-0.175-0.384-0.263-0.637-0.263c-0.252,0-0.464,0.088-0.637,0.263
				c-0.172,0.175-0.31,0.411-0.413,0.707c-0.104,0.297-0.177,0.634-0.22,1.014c-0.043,0.379-0.065,0.773-0.065,1.181
				C111.31,37.314,111.332,37.708,111.375,38.087z"/>
			<path style="fill:#002D73;" d="M116.318,38.977c-0.115-0.554-0.24-1.145-0.374-1.772c-0.135-0.627-0.275-1.269-0.421-1.925
				c-0.147-0.656-0.291-1.276-0.435-1.86c0.069,0.02,0.137,0.036,0.202,0.051c0.066,0.015,0.134,0.022,0.202,0.022
				c0.063,0,0.126-0.007,0.189-0.022c0.063-0.015,0.132-0.031,0.207-0.051c0.149,0.914,0.314,1.83,0.495,2.749
				c0.181,0.919,0.383,1.865,0.607,2.837c0.069-0.272,0.152-0.632,0.25-1.079c0.097-0.447,0.198-0.928,0.301-1.444
				c0.104-0.515,0.207-1.04,0.31-1.575c0.103-0.535,0.195-1.03,0.275-1.488c0.103,0.049,0.189,0.073,0.258,0.073
				c0.046,0,0.086-0.007,0.121-0.022c0.034-0.015,0.074-0.031,0.121-0.051c0.143,0.933,0.31,1.855,0.499,2.764
				c0.189,0.909,0.387,1.85,0.593,2.822c0.075-0.311,0.162-0.693,0.263-1.145c0.101-0.452,0.205-0.928,0.314-1.429
				c0.109-0.501,0.22-1.014,0.331-1.539c0.112-0.525,0.217-1.016,0.314-1.473c0.115,0.049,0.207,0.073,0.275,0.073
				c0.075,0,0.161-0.024,0.258-0.073c-0.327,1.177-0.633,2.339-0.916,3.486c-0.284,1.147-0.55,2.295-0.796,3.442
				c-0.063-0.02-0.137-0.029-0.224-0.029c-0.04,0-0.08,0-0.12,0c-0.041,0-0.075,0.01-0.104,0.029
				c-0.149-0.865-0.313-1.736-0.49-2.611c-0.178-0.875-0.382-1.794-0.611-2.757c-0.069,0.292-0.152,0.654-0.25,1.087
				c-0.098,0.433-0.198,0.897-0.301,1.393c-0.103,0.496-0.207,0.999-0.31,1.51c-0.104,0.51-0.195,0.97-0.275,1.378
				c-0.069-0.02-0.149-0.029-0.241-0.029c-0.092,0-0.172,0.01-0.241,0.029C116.525,39.988,116.433,39.531,116.318,38.977z"/>
			<path style="fill:#002D73;" d="M125.19,38.963c-0.046,0.156-0.108,0.323-0.185,0.503c-0.078,0.18-0.175,0.348-0.293,0.503
				c-0.118,0.156-0.257,0.282-0.417,0.379c-0.161,0.097-0.347,0.146-0.56,0.146c-0.218,0-0.431-0.063-0.641-0.19
				s-0.396-0.333-0.559-0.62c-0.164-0.287-0.295-0.656-0.396-1.108c-0.1-0.452-0.151-0.994-0.151-1.626
				c0-0.622,0.055-1.162,0.164-1.619c0.109-0.457,0.251-0.839,0.426-1.145c0.175-0.306,0.373-0.535,0.594-0.686
				c0.221-0.151,0.443-0.226,0.667-0.226c0.637,0,1.078,0.486,1.325,1.459h0.018v-1.429c0-0.369-0.002-0.741-0.005-1.116
				c-0.003-0.374-0.006-0.732-0.008-1.072c-0.003-0.34-0.006-0.661-0.009-0.963c-0.003-0.301-0.007-0.569-0.013-0.802
				c0.069,0.02,0.135,0.036,0.198,0.051c0.064,0.015,0.127,0.022,0.19,0.022s0.125-0.007,0.185-0.022
				c0.061-0.015,0.128-0.031,0.202-0.051c-0.017,0.311-0.032,0.761-0.043,1.349c-0.012,0.588-0.022,1.237-0.03,1.947
				c-0.009,0.71-0.016,1.439-0.022,2.188c-0.006,0.749-0.008,1.434-0.008,2.056c0,0.671,0.002,1.274,0.008,1.809
				c0.006,0.535,0.012,1.084,0.017,1.648c-0.115-0.02-0.227-0.029-0.335-0.029c-0.103,0-0.212,0.01-0.327,0.029l0.025-1.385H125.19z
				 M122.854,38.481c0.071,0.379,0.163,0.683,0.275,0.912c0.112,0.229,0.239,0.386,0.383,0.474c0.144,0.088,0.284,0.131,0.422,0.131
				c0.224,0,0.416-0.095,0.576-0.284c0.161-0.19,0.294-0.437,0.4-0.744c0.106-0.306,0.184-0.654,0.232-1.043
				c0.048-0.389,0.073-0.778,0.073-1.167c0-0.933-0.106-1.646-0.318-2.137c-0.212-0.491-0.525-0.736-0.938-0.736
				c-0.206,0-0.385,0.08-0.537,0.241c-0.152,0.16-0.278,0.384-0.379,0.671c-0.1,0.287-0.175,0.622-0.224,1.006
				c-0.049,0.384-0.073,0.795-0.073,1.232C122.746,37.621,122.782,38.102,122.854,38.481z"/>
			<path style="fill:#002D73;" d="M127.217,34.295c0.335-0.681,0.825-1.021,1.467-1.021c0.304,0,0.567,0.08,0.788,0.241
				c0.221,0.16,0.406,0.374,0.555,0.642c0.149,0.268,0.26,0.581,0.331,0.941c0.072,0.36,0.108,0.744,0.108,1.152
				c0,0.097-0.002,0.192-0.005,0.284c-0.003,0.093-0.007,0.187-0.013,0.284c-0.31-0.01-0.617-0.019-0.921-0.029
				c-0.304-0.01-0.611-0.015-0.921-0.015c-0.19,0-0.378,0.005-0.564,0.015c-0.187,0.01-0.374,0.02-0.564,0.029
				c-0.006,0.049-0.008,0.122-0.008,0.219v0.19c0,0.379,0.033,0.734,0.099,1.065c0.066,0.331,0.162,0.615,0.288,0.853
				c0.126,0.238,0.281,0.428,0.464,0.569c0.184,0.141,0.396,0.212,0.637,0.212c0.115,0,0.232-0.027,0.353-0.08
				c0.121-0.053,0.238-0.126,0.353-0.219c0.115-0.092,0.222-0.202,0.323-0.328c0.101-0.126,0.188-0.263,0.262-0.408l0.043,0.044
				l-0.052,0.715c-0.172,0.233-0.386,0.433-0.641,0.598c-0.255,0.165-0.52,0.248-0.796,0.248c-0.31,0-0.593-0.08-0.848-0.241
				c-0.255-0.16-0.477-0.394-0.663-0.7c-0.187-0.306-0.33-0.668-0.43-1.087c-0.101-0.418-0.151-0.87-0.151-1.356
				C126.713,35.914,126.881,34.976,127.217,34.295z M128.164,33.989c-0.147,0.166-0.267,0.372-0.362,0.62
				c-0.094,0.248-0.166,0.52-0.215,0.817c-0.049,0.297-0.079,0.576-0.091,0.839c0.178,0.01,0.363,0.02,0.555,0.029
				c0.192,0.01,0.38,0.015,0.564,0.015c0.19,0,0.381-0.005,0.577-0.015c0.195-0.01,0.384-0.019,0.568-0.029
				c0-0.263-0.013-0.54-0.039-0.831c-0.026-0.292-0.078-0.564-0.155-0.817c-0.078-0.253-0.185-0.462-0.323-0.627
				c-0.137-0.165-0.318-0.248-0.542-0.248C128.489,33.741,128.31,33.824,128.164,33.989z"/>
			<path style="fill:#002D73;" d="M133.172,34.456c-0.083-0.049-0.168-0.073-0.254-0.073c-0.138,0-0.261,0.054-0.37,0.16
				c-0.109,0.107-0.201,0.25-0.275,0.43c-0.075,0.18-0.132,0.394-0.172,0.642c-0.041,0.248-0.061,0.513-0.061,0.795v1.604
				c0,0.652,0.002,1.15,0.005,1.495c0.002,0.345,0.013,0.625,0.03,0.839c-0.115-0.02-0.23-0.029-0.344-0.029
				c-0.127,0-0.247,0.01-0.361,0.029c0.017-0.33,0.027-0.78,0.03-1.349c0.003-0.569,0.004-1.266,0.004-2.093v-0.467
				c0-0.379-0.001-0.817-0.004-1.313c-0.003-0.496-0.013-1.065-0.03-1.706c0.063,0.02,0.123,0.036,0.181,0.051
				c0.057,0.015,0.118,0.022,0.181,0.022c0.052,0,0.106-0.007,0.164-0.022c0.057-0.015,0.117-0.031,0.181-0.051
				c-0.023,0.35-0.036,0.627-0.039,0.831c-0.003,0.204-0.004,0.399-0.004,0.583l0.017,0.015c0.338-1.05,0.717-1.575,1.136-1.575
				c0.052,0,0.096,0.005,0.134,0.015c0.037,0.01,0.084,0.034,0.142,0.073c-0.029,0.117-0.046,0.294-0.052,0.532
				c-0.006,0.238-0.009,0.455-0.009,0.649l-0.06,0.073C133.311,34.558,133.255,34.504,133.172,34.456z"/>
			<path style="fill:#002D73;" d="M134.411,40.632c0.135-0.442,0.24-0.899,0.314-1.371c0.074-0.472,0.126-0.958,0.155-1.459
				c0.029-0.501,0.043-1.028,0.043-1.582c0-0.554-0.014-1.082-0.043-1.583c-0.029-0.501-0.081-0.987-0.155-1.458
				c-0.075-0.471-0.18-0.936-0.314-1.393c-0.135-0.457-0.308-0.919-0.52-1.386l0.172-0.263c0.465,0.846,0.813,1.792,1.045,2.837
				c0.232,1.045,0.349,2.127,0.349,3.245c0,1.079-0.118,2.146-0.353,3.202c-0.235,1.055-0.582,2-1.041,2.837l-0.172-0.262
				C134.102,41.529,134.276,41.075,134.411,40.632z"/>
		</g>
	</g>
	<path style="fill:#002D73;" d="M13.553,6.302c0-2.406,0-2.836-0.03-3.332c-0.033-0.524-0.152-0.77-0.664-0.88
		c-0.124-0.031-0.383-0.048-0.524-0.048c-0.062,0-0.122-0.028-0.122-0.091c0-0.09,0.075-0.123,0.247-0.123
		c0.694,0,1.665,0.046,1.744,0.046c0.169,0,1.34-0.046,1.819-0.046c0.972,0,2.005,0.096,2.82,0.677
		c0.389,0.28,1.064,1.034,1.064,2.101c0,1.137-0.475,2.278-1.865,3.563c1.267,1.618,2.338,2.971,3.213,3.946
		c6.249,7.009,17.123,2.548,17.123,2.594c0,0.095-12.623,6.068-19.7-3.778c-0.625-0.87-1.373-1.882-1.682-2.287
		c-0.06-0.059-0.108-0.093-0.202-0.093l-1.895-0.028c-0.077,0-0.108,0.045-0.108,0.121v0.37c0,1.482,0,2.7,0.076,3.349
		c0.048,0.446,0.14,0.788,0.603,0.85c0.216,0.03,0.554,0.061,0.695,0.061c0.09,0,0.121,0.048,0.121,0.091
		c0,0.07-0.077,0.127-0.247,0.127c-0.85,0-1.819-0.057-1.896-0.057c-0.016,0-0.988,0.057-1.45,0.057
		c-0.168,0-0.247-0.037-0.247-0.127c0-0.044,0.033-0.091,0.123-0.091c0.139,0,0.324-0.031,0.462-0.061
		c0.308-0.063,0.387-0.404,0.447-0.85c0.077-0.648,0.077-1.866,0.077-3.349V6.302z M14.789,7.645c0,0.077,0.031,0.143,0.108,0.186
		c0.23,0.138,0.937,0.245,1.618,0.245c0.371,0,0.803-0.047,1.157-0.288c0.539-0.376,0.942-1.206,0.942-2.376
		c0-1.93-1.019-3.089-2.669-3.089c-0.462,0-0.878,0.049-1.032,0.095c-0.077,0.029-0.124,0.089-0.124,0.182V7.645z"/>
	<path style="fill:#002D73;" d="M1.57,5.224c0-2.808,0-3.314-0.036-3.893C1.497,0.719,1.352,0.432,0.756,0.305
		c-0.142-0.038-0.45-0.053-0.612-0.053C0.074,0.253,0,0.216,0,0.142C0,0.035,0.091,0,0.292,0C1.1,0,2.237,0.051,2.327,0.051
		C2.759,0.051,3.46,0,4.289,0c2.958,0,3.607,1.804,3.607,2.704c0,1.477-0.847,2.36-1.695,3.243c1.336,0.416,3.12,1.694,3.12,3.801
		c0,1.931-1.515,3.931-4.595,3.931c-0.417,0-2.256-0.106-2.399-0.106c-0.09,0-1.227,0.052-1.766,0.052
		c-0.199,0-0.287-0.033-0.287-0.132c0-0.063,0.032-0.118,0.142-0.118c0.16,0,0.378-0.039,0.541-0.075
		c0.359-0.072,0.451-0.469,0.521-0.989C1.57,11.554,1.57,10.129,1.57,8.398V5.224z M3.013,5.623c0,0.125,0.035,0.162,0.125,0.197
		c0.108,0.017,0.432,0.073,1.1,0.073c1.008,0,1.26-0.036,1.642-0.471c0.374-0.431,0.645-1.077,0.645-1.82
		c0-1.497-0.667-3.102-2.431-3.102c-0.201,0-0.577,0.022-0.866,0.093C3.067,0.628,3.013,0.685,3.013,0.79V5.623z M3.013,7.531
		c0,1.389,0,3.627,0.019,3.894c0.052,0.885,0.052,1.137,0.612,1.406c0.485,0.235,1.261,0.273,1.585,0.273
		c0.972,0,2.541-0.523,2.541-2.56c0-1.08-0.358-2.649-1.747-3.604C5.41,6.524,4.957,6.47,4.527,6.416
		C4.289,6.38,3.389,6.38,3.12,6.38c-0.073,0-0.108,0.036-0.108,0.126V7.531z"/>
	<path style="fill:#002D73;" d="M25.886,6.353c0-2.432,0-2.87-0.034-3.37c-0.03-0.531-0.156-0.78-0.668-0.886
		c-0.124-0.032-0.389-0.05-0.531-0.05c-0.062,0-0.124-0.028-0.124-0.09c0-0.094,0.077-0.127,0.251-0.127
		c0.7,0,1.682,0.048,1.76,0.048c0.109,0,3.211,0,3.57-0.015c0.297-0.015,0.548-0.049,0.669-0.078
		c0.079-0.016,0.144-0.081,0.219-0.081c0.046,0,0.063,0.064,0.063,0.144c0,0.11-0.077,0.296-0.124,0.734
		c-0.015,0.155-0.047,0.841-0.079,1.029c-0.013,0.076-0.046,0.172-0.108,0.172c-0.092,0-0.126-0.081-0.126-0.205
		c0-0.109-0.013-0.373-0.093-0.558c-0.112-0.254-0.265-0.438-1.107-0.532c-0.266-0.035-1.965-0.048-2.136-0.048
		c-0.064,0-0.093,0.048-0.093,0.157v4.302c0,0.11,0.015,0.156,0.093,0.156c0.202,0,2.119,0,2.48-0.033
		c0.373-0.031,0.591-0.059,0.731-0.215c0.112-0.127,0.171-0.203,0.236-0.203c0.043,0,0.077,0.032,0.077,0.124
		c0,0.093-0.077,0.36-0.126,0.871c-0.029,0.312-0.063,0.892-0.063,0.998c0,0.127,0,0.299-0.108,0.299
		c-0.079,0-0.109-0.065-0.109-0.14c0-0.159,0-0.315-0.064-0.518c-0.06-0.218-0.202-0.481-0.809-0.545
		c-0.422-0.047-1.967-0.075-2.23-0.075c-0.08,0-0.109,0.045-0.109,0.109v1.372c0,0.527-0.016,2.337,0,2.663
		c0.045,1.077,0.279,1.281,1.805,1.281c0.407,0,1.092,0,1.499-0.171c0.404-0.173,0.594-0.485,0.703-1.125
		c0.027-0.172,0.062-0.233,0.139-0.233c0.094,0,0.094,0.123,0.094,0.233c0,0.127-0.125,1.186-0.206,1.513
		c-0.104,0.405-0.232,0.405-0.84,0.405c-2.355,0-3.397-0.092-3.851-0.092c-0.078,0-1.06,0.047-1.529,0.047
		c-0.172,0-0.249-0.028-0.249-0.126c0-0.056,0.033-0.099,0.125-0.099c0.143,0,0.325-0.025,0.467-0.06
		c0.314-0.059,0.391-0.402,0.453-0.856c0.079-0.655,0.079-1.884,0.079-3.38V6.353z"/>
	<path style="fill:#002D73;" d="M41.065,1.588c3.607,0,6.337,2.205,6.337,5.811c0,3.463-2.564,6.322-6.428,6.322
		c-4.392,0-6.268-3.297-6.268-6.084C34.706,5.14,36.637,1.588,41.065,1.588 M41.428,13.086c1.441,0,4.333-0.764,4.333-5.243
		c0-3.722-2.255-5.672-4.787-5.672c-2.677,0-4.61,1.675-4.61,5.049C36.364,10.826,38.531,13.086,41.428,13.086"/>
	<path style="fill:#002D73;" d="M54.056,9.009c0-1.509,0-1.781-0.021-2.09c-0.024-0.332-0.082-0.491-0.412-0.534
		c-0.08-0.013-0.25-0.024-0.34-0.024c-0.035,0-0.084-0.046-0.084-0.079c0-0.06,0.049-0.08,0.161-0.08c0.457,0,1.108,0.02,1.165,0.02
		c0.067,0,2.166,0.014,2.395,0c0.193-0.01,0.376-0.043,0.457-0.054c0.044-0.009,0.09-0.047,0.135-0.047
		c0.036,0,0.045,0.047,0.045,0.091c0,0.07-0.058,0.184-0.08,0.458c-0.01,0.091-0.033,0.524-0.056,0.639
		c-0.014,0.045-0.044,0.103-0.091,0.103c-0.057,0-0.081-0.047-0.081-0.126c0-0.069-0.01-0.227-0.057-0.343
		c-0.068-0.16-0.172-0.227-0.719-0.297c-0.171-0.021-1.333-0.035-1.448-0.035c-0.047,0-0.057,0.035-0.057,0.104v2.633
		c0,0.07,0,0.102,0.057,0.102c0.126,0,1.448,0,1.677-0.024c0.239-0.022,0.387-0.035,0.489-0.134
		c0.069-0.068,0.114-0.126,0.149-0.126c0.036,0,0.057,0.018,0.057,0.079c0,0.058-0.057,0.219-0.08,0.536
		c-0.022,0.193-0.044,0.559-0.044,0.626c0,0.082-0.024,0.183-0.092,0.183c-0.045,0-0.069-0.036-0.069-0.092
		c0-0.091,0-0.19-0.045-0.317c-0.036-0.139-0.126-0.256-0.516-0.297C56.283,9.851,55.21,9.84,55.039,9.84
		c-0.059,0-0.069,0.033-0.069,0.067v0.809c0,0.333-0.011,1.459,0,1.654c0.022,0.651,0.204,0.775,1.197,0.775
		c0.263,0,0.74,0,1.004-0.104c0.261-0.113,0.396-0.283,0.456-0.671c0.023-0.114,0.044-0.147,0.101-0.147
		c0.059,0,0.071,0.077,0.071,0.147c0,0.066-0.08,0.728-0.137,0.937c-0.069,0.248-0.172,0.248-0.56,0.248
		c-0.75,0-1.333-0.023-1.743-0.034c-0.423-0.025-0.683-0.025-0.833-0.025c-0.024,0-0.215,0-0.434,0.012
		c-0.194,0.012-0.422,0.024-0.583,0.024c-0.1,0-0.158-0.024-0.158-0.079c0-0.032,0.023-0.076,0.079-0.076
		c0.091,0,0.216-0.043,0.307-0.059c0.195-0.029,0.215-0.221,0.264-0.505c0.055-0.399,0.055-1.165,0.055-2.099V9.009z"/>
	<path style="fill:#002D73;" d="M61.366,10.74c0,1.427,0.021,2.007,0.205,2.177c0.159,0.163,0.548,0.23,1.333,0.23
		c0.526,0,0.97-0.013,1.212-0.296c0.124-0.15,0.203-0.354,0.239-0.55c0.011-0.067,0.044-0.125,0.1-0.125
		c0.047,0,0.071,0.048,0.071,0.147c0,0.103-0.071,0.686-0.148,0.968c-0.07,0.231-0.102,0.266-0.64,0.266
		c-0.719,0-1.276-0.011-1.746-0.034c-0.455-0.012-0.798-0.024-1.094-0.024c-0.046,0-0.215,0-0.411,0.012
		c-0.205,0.012-0.422,0.024-0.581,0.024c-0.101,0-0.159-0.024-0.159-0.079c0-0.032,0.022-0.075,0.08-0.075
		c0.092,0,0.216-0.025,0.306-0.06c0.197-0.04,0.219-0.22,0.263-0.504c0.06-0.4,0.06-1.165,0.06-2.099V9.009
		c0-1.509,0-1.781-0.023-2.09c-0.024-0.332-0.08-0.491-0.413-0.534c-0.08-0.013-0.25-0.024-0.341-0.024
		c-0.036,0-0.08-0.047-0.08-0.079c0-0.06,0.044-0.08,0.158-0.08c0.459,0,1.087,0.02,1.142,0.02c0.047,0,0.8-0.02,1.106-0.02
		c0.102,0,0.159,0.02,0.159,0.08c0,0.033-0.045,0.068-0.081,0.068c-0.066,0-0.216,0.011-0.329,0.023
		c-0.295,0.055-0.355,0.206-0.379,0.547c-0.009,0.309-0.009,0.581-0.009,2.09V10.74z"/>
	<path style="fill:#002D73;" d="M67.397,10.74c0,1.427,0.021,2.007,0.202,2.177c0.163,0.163,0.55,0.23,1.334,0.23
		c0.529,0,0.975-0.013,1.214-0.296c0.123-0.15,0.201-0.354,0.24-0.55c0.01-0.067,0.043-0.125,0.1-0.125
		c0.046,0,0.068,0.048,0.068,0.147c0,0.103-0.068,0.686-0.144,0.968c-0.073,0.231-0.106,0.266-0.642,0.266
		c-0.721,0-1.277-0.011-1.745-0.034c-0.455-0.012-0.801-0.024-1.093-0.024c-0.049,0-0.219,0-0.413,0.012
		c-0.204,0.012-0.42,0.024-0.581,0.024c-0.099,0-0.159-0.024-0.159-0.079c0-0.032,0.021-0.075,0.078-0.075
		c0.091,0,0.219-0.025,0.306-0.06c0.196-0.04,0.219-0.22,0.263-0.504c0.059-0.4,0.059-1.165,0.059-2.099V9.009
		c0-1.509,0-1.781-0.022-2.09c-0.021-0.332-0.081-0.491-0.411-0.534c-0.08-0.013-0.252-0.024-0.343-0.024
		c-0.033,0-0.078-0.047-0.078-0.079c0-0.06,0.045-0.08,0.159-0.08c0.456,0,1.083,0.02,1.142,0.02c0.043,0,0.797-0.02,1.104-0.02
		c0.103,0,0.159,0.02,0.159,0.08c0,0.033-0.045,0.068-0.079,0.068c-0.068,0-0.216,0.011-0.331,0.023
		c-0.297,0.055-0.353,0.206-0.375,0.547c-0.012,0.309-0.012,0.581-0.012,2.09V10.74z"/>
	<path style="fill:#002D73;" d="M73.498,10.717c0,0.936,0,1.699,0.042,2.099c0.036,0.284,0.071,0.464,0.367,0.504
		c0.146,0.034,0.366,0.06,0.458,0.06c0.052,0,0.079,0.043,0.079,0.075c0,0.044-0.048,0.079-0.161,0.079
		c-0.558,0-1.209-0.036-1.254-0.036c-0.059,0-0.686,0.036-0.994,0.036c-0.099,0-0.158-0.024-0.158-0.079
		c0-0.032,0.021-0.075,0.079-0.075c0.093,0,0.219-0.025,0.309-0.06c0.194-0.04,0.227-0.221,0.26-0.504
		c0.048-0.399,0.057-1.163,0.057-2.099V9.009c0-1.509,0-1.781-0.022-2.09c-0.021-0.332-0.101-0.478-0.319-0.523
		c-0.114-0.023-0.238-0.035-0.304-0.035c-0.047,0-0.081-0.047-0.081-0.079c0-0.06,0.043-0.08,0.161-0.08
		c0.328,0,0.955,0.02,1.013,0.02c0.045,0,0.696-0.02,1.004-0.02c0.113,0,0.159,0.02,0.159,0.08c0,0.033-0.047,0.079-0.081,0.079
		c-0.069,0-0.136,0-0.249,0.024c-0.274,0.056-0.332,0.194-0.354,0.534c-0.01,0.309-0.01,0.581-0.01,2.09V10.717z"/>
	<path style="fill:#002D73;" d="M77.189,9.009c0-1.509,0-1.781-0.024-2.09c-0.021-0.332-0.079-0.491-0.412-0.534
		c-0.078-0.013-0.25-0.024-0.341-0.024c-0.035,0-0.079-0.046-0.079-0.079c0-0.06,0.044-0.08,0.159-0.08
		c0.457,0,1.082,0.02,1.165,0.02c0.216,0,0.966-0.02,1.426-0.02c1.288,0,1.745,0.4,1.914,0.55c0.23,0.203,0.5,0.635,0.5,1.164
		c0,1.389-1.048,2.311-2.586,2.311c-0.057,0-0.229,0-0.288-0.009c-0.041,0-0.102-0.049-0.102-0.092c0-0.082,0.06-0.103,0.263-0.103
		c1.085,0,1.861-0.686,1.861-1.564c0-0.319-0.037-0.948-0.572-1.469c-0.525-0.527-1.127-0.469-1.355-0.469
		c-0.171,0-0.457,0.045-0.56,0.066c-0.055,0.014-0.08,0.083-0.08,0.185v3.945c0,0.934,0,1.699,0.047,2.099
		c0.033,0.284,0.09,0.464,0.398,0.505c0.136,0.034,0.354,0.059,0.445,0.059c0.057,0,0.08,0.043,0.08,0.076
		c0,0.043-0.046,0.079-0.16,0.079c-0.547,0-1.206-0.036-1.254-0.036c-0.033,0-0.683,0.036-0.989,0.036
		c-0.106,0-0.162-0.024-0.162-0.079c0-0.032,0.022-0.076,0.08-0.076c0.089,0,0.216-0.025,0.307-0.059
		c0.194-0.041,0.218-0.221,0.263-0.505c0.058-0.399,0.058-1.165,0.058-2.099V9.009z"/>
	<path style="fill:#002D73;" d="M86.007,10.743c0,0.936,0,1.699,0.045,2.099c0.036,0.284,0.081,0.464,0.388,0.504
		c0.137,0.034,0.363,0.06,0.458,0.06c0.067,0,0.079,0.043,0.079,0.075c0,0.044-0.045,0.079-0.16,0.079
		c-0.546,0-1.188-0.036-1.244-0.036c-0.044,0-0.74,0.036-1.036,0.036c-0.116,0-0.159-0.024-0.159-0.079
		c0-0.032,0.021-0.075,0.076-0.075c0.092,0,0.205-0.006,0.298-0.044c0.205-0.044,0.262-0.236,0.295-0.52
		c0.049-0.399,0.049-1.163,0.049-2.099V6.672l-1.451,0.023c-0.629,0.009-0.868,0.082-1.014,0.306
		c-0.116,0.172-0.126,0.241-0.16,0.31C82.449,7.39,82.414,7.4,82.367,7.4C82.344,7.4,82.3,7.38,82.3,7.323
		c0-0.105,0.207-0.97,0.217-1.048c0.022-0.058,0.067-0.185,0.103-0.185c0.067,0,0.171,0.079,0.443,0.114
		c0.285,0.033,0.673,0.043,0.787,0.043h3.609c0.329,0,0.558-0.02,0.719-0.043c0.149-0.02,0.24-0.045,0.283-0.045
		c0.044,0,0.044,0.057,0.044,0.116c0,0.293-0.032,0.991-0.032,1.104c0,0.078-0.044,0.125-0.092,0.125
		c-0.044,0-0.067-0.035-0.076-0.171l-0.016-0.103c-0.032-0.297-0.25-0.513-1.208-0.536l-1.074-0.023V10.743z"/>
	<path style="fill:#002D73;" d="M91.539,6.421c0.126-0.321,0.172-0.377,0.237-0.377c0.104,0,0.139,0.14,0.242,0.354
		c0.182,0.411,1.787,4.415,2.405,5.885c0.364,0.867,0.639,0.99,0.856,1.063c0.147,0.054,0.295,0.059,0.397,0.059
		c0.059,0,0.128,0.018,0.128,0.076c0,0.055-0.116,0.079-0.23,0.079c-0.148,0-0.89,0-1.585-0.024
		c-0.193-0.012-0.354-0.012-0.354-0.068c0-0.045,0.021-0.045,0.069-0.063c0.055-0.025,0.16-0.111,0.092-0.267l-0.901-2.223
		c-0.022-0.048-0.034-0.056-0.094-0.056h-2.313c-0.045,0-0.079,0.019-0.101,0.078l-0.572,1.552c-0.09,0.237-0.146,0.478-0.146,0.648
		c0,0.196,0.17,0.267,0.342,0.267H90.1c0.082,0,0.106,0.034,0.106,0.076c0,0.055-0.059,0.079-0.151,0.079
		c-0.24,0-0.787-0.036-0.901-0.036c-0.101,0-0.604,0.036-1.014,0.036c-0.123,0-0.192-0.024-0.192-0.079
		c0-0.041,0.044-0.076,0.092-0.076c0.068,0,0.215-0.006,0.296-0.025c0.455-0.063,0.648-0.403,0.844-0.89L91.539,6.421z
		 M92.657,10.458c0.043,0,0.043-0.024,0.034-0.068l-0.993-2.653c-0.057-0.154-0.114-0.154-0.17,0L90.59,10.39
		c-0.009,0.044,0,0.068,0.037,0.068H92.657z"/>
	<g>
		<path style="fill:#002D73;" d="M96.274,5.88c0.945,0,1.737,0.746,1.737,1.723c0,0.996-0.792,1.741-1.737,1.741
			c-0.949,0-1.746-0.745-1.746-1.741C94.529,6.626,95.325,5.88,96.274,5.88z M96.274,9.09c0.801,0,1.422-0.639,1.422-1.486
			c0-0.829-0.621-1.468-1.422-1.468c-0.81,0-1.431,0.639-1.431,1.468C94.844,8.45,95.464,9.09,96.274,9.09z M95.598,6.598h0.783
			c0.481,0,0.709,0.19,0.709,0.579c0,0.366-0.232,0.519-0.533,0.551l0.579,0.893h-0.338l-0.551-0.871h-0.333v0.871h-0.315V6.598z
			 M95.913,7.497h0.329c0.278,0,0.533-0.014,0.533-0.333c0-0.269-0.232-0.31-0.445-0.31h-0.417V7.497z"/>
	</g>
	<g>
		<path style="fill:#002D73;" d="M49.679,2.12c0.945,0,1.737,0.746,1.737,1.723c0,0.996-0.792,1.741-1.737,1.741
			c-0.949,0-1.746-0.745-1.746-1.741C47.933,2.866,48.73,2.12,49.679,2.12z M49.679,5.33c0.801,0,1.422-0.639,1.422-1.486
			c0-0.829-0.621-1.468-1.422-1.468c-0.81,0-1.431,0.639-1.431,1.468C48.248,4.69,48.869,5.33,49.679,5.33z M49.003,2.838h0.782
			c0.481,0,0.709,0.19,0.709,0.579c0,0.366-0.232,0.519-0.533,0.551l0.579,0.893h-0.338l-0.551-0.87h-0.333v0.87h-0.315V2.838z
			 M49.318,3.737h0.329c0.278,0,0.533-0.014,0.533-0.333c0-0.269-0.232-0.31-0.445-0.31h-0.417V3.737z"/>
	</g>
</g>
</svg>
