<?xml version="1.0" encoding="iso-8859-1"?>
<!-- Generator: Adobe Illustrator 19.1.0, SVG Export Plug-In . SVG Version: 6.00 Build 0)  -->
<svg version="1.1" xmlns="http://www.w3.org/2000/svg" xmlns:xlink="http://www.w3.org/1999/xlink" x="0px" y="0px"
	 viewBox="0 0 243.333 23.221" style="enable-background:new 0 0 243.333 23.221;" xml:space="preserve">
<g id="Layer_1">
	<g>
		
			<radialGradient id="SVGID_2_" cx="-388.8217" cy="-7115.855" r="146.7328" fx="-431.1307" fy="-7072.4795" gradientTransform="matrix(1.8928 0 0 0.0779 866.9367 572.3279)" gradientUnits="userSpaceOnUse">
			<stop  offset="0" style="stop-color:#C7D7DD"/>
			<stop  offset="0.2558" style="stop-color:#C2D6DD"/>
			<stop  offset="0.5521" style="stop-color:#B4D2DD"/>
			<stop  offset="0.8673" style="stop-color:#9DCBDD"/>
			<stop  offset="1" style="stop-color:#91C8DD"/>
		</radialGradient>
		<rect style="fill:url(#SVGID_2_);" width="243.333" height="23.221"/>
		<rect x="3.052" y="2.221" style="opacity:0.3;fill:#FFFFFF;" width="236.948" height="21"/>
		<g>
			<path style="fill:#002D73;" d="M66.859,8.201c-0.483-0.209-1.022-0.33-1.562-0.33c-0.528,0-1.21,0.231-1.21,1.067
				c0,1.331,3.366,0.77,3.366,3.344c0,1.684-1.331,2.321-2.882,2.321c-0.837,0-1.211-0.11-1.97-0.297l0.144-1.386
				c0.527,0.286,1.133,0.473,1.738,0.473c0.582,0,1.363-0.297,1.363-0.99c0-1.463-3.366-0.858-3.366-3.399
				c0-1.716,1.331-2.343,2.685-2.343c0.66,0,1.275,0.088,1.837,0.275L66.859,8.201z"/>
			<path style="fill:#002D73;" d="M73.922,14.472h-1.396v-0.77h-0.022c-0.45,0.55-1.089,0.902-1.858,0.902
				c-1.343,0-1.926-0.946-1.926-2.222V8.806h1.475v3.025c0,0.693,0.01,1.628,0.957,1.628c1.066,0,1.298-1.155,1.298-1.881V8.806
				h1.474V14.472z"/>
			<path style="fill:#002D73;" d="M75.439,8.806h1.408v0.803h0.021c0.33-0.55,0.892-0.935,1.761-0.935
				c1.738,0,2.376,1.386,2.376,2.948c0,1.551-0.638,2.981-2.409,2.981c-0.627,0-1.144-0.154-1.661-0.781h-0.021v2.959h-1.475V8.806z
				 M76.924,11.622c0,0.803,0.32,1.837,1.299,1.837c0.969,0,1.243-1.056,1.243-1.837c0-0.759-0.265-1.804-1.222-1.804
				C77.299,9.818,76.924,10.83,76.924,11.622z"/>
			<path style="fill:#002D73;" d="M82.16,8.806h1.408v0.803h0.021c0.33-0.55,0.892-0.935,1.761-0.935
				c1.738,0,2.376,1.386,2.376,2.948c0,1.551-0.638,2.981-2.409,2.981c-0.627,0-1.144-0.154-1.661-0.781h-0.021v2.959H82.16V8.806z
				 M83.645,11.622c0,0.803,0.32,1.837,1.299,1.837c0.969,0,1.243-1.056,1.243-1.837c0-0.759-0.265-1.804-1.222-1.804
				C84.02,9.818,83.645,10.83,83.645,11.622z"/>
			<path style="fill:#002D73;" d="M91.477,8.674c1.684,0,2.971,1.133,2.971,3.003c0,1.628-1.089,2.926-2.971,2.926
				c-1.869,0-2.959-1.298-2.959-2.926C88.518,9.807,89.805,8.674,91.477,8.674z M91.477,13.46c1.134,0,1.431-1.012,1.431-1.958
				c0-0.869-0.462-1.684-1.431-1.684c-0.957,0-1.418,0.836-1.418,1.684C90.059,12.437,90.355,13.46,91.477,13.46z"/>
			<path style="fill:#002D73;" d="M95.635,8.806h1.309v1.288h0.022c0.065-0.528,0.671-1.419,1.551-1.419
				c0.144,0,0.298,0,0.451,0.044v1.485c-0.132-0.077-0.396-0.121-0.66-0.121c-1.199,0-1.199,1.496-1.199,2.311v2.079h-1.474V8.806z"
				/>
			<path style="fill:#002D73;" d="M100.364,9.884h-1.089V8.806h1.089V7.673l1.474-0.473v1.606h1.31v1.078h-1.31v2.641
				c0,0.484,0.133,0.935,0.693,0.935c0.264,0,0.518-0.055,0.672-0.154l0.043,1.166c-0.308,0.088-0.648,0.132-1.088,0.132
				c-1.156,0-1.794-0.715-1.794-1.837V9.884z"/>
			<path style="fill:#002D73;" d="M104.191,6.363h1.475v1.408h-1.475V6.363z M104.191,8.806h1.475v5.666h-1.475V8.806z"/>
			<path style="fill:#002D73;" d="M107.217,8.806h1.397v0.771h0.022c0.461-0.649,1.089-0.902,1.859-0.902
				c1.342,0,1.925,0.946,1.925,2.222v3.576h-1.474v-3.025c0-0.693-0.012-1.628-0.957-1.628c-1.068,0-1.299,1.155-1.299,1.881v2.772
				h-1.475V8.806z"/>
			<path style="fill:#002D73;" d="M119.142,8.806v5.116c0,1.541-0.616,2.993-2.993,2.993c-0.582,0-1.254-0.088-1.957-0.385
				l0.121-1.254c0.451,0.242,1.188,0.495,1.649,0.495c1.628,0,1.706-1.221,1.706-2.201h-0.022c-0.275,0.484-0.935,0.902-1.761,0.902
				c-1.672,0-2.311-1.342-2.311-2.86c0-1.364,0.705-2.938,2.398-2.938c0.748,0,1.332,0.253,1.738,0.902h0.022V8.806H119.142z
				 M117.668,11.578c0-0.968-0.375-1.76-1.232-1.76c-1.002,0-1.32,0.924-1.32,1.793c0,0.77,0.406,1.716,1.254,1.716
				C117.293,13.328,117.668,12.525,117.668,11.578z"/>
			<path style="fill:#002D73;" d="M129.438,14.362c-0.561,0.132-1.166,0.242-1.75,0.242c-2.486,0-4.213-1.243-4.213-3.839
				c0-2.629,1.606-4.104,4.213-4.104c0.507,0,1.178,0.099,1.738,0.319l-0.109,1.298c-0.583-0.33-1.111-0.407-1.661-0.407
				c-1.585,0-2.574,1.21-2.574,2.784c0,1.562,0.968,2.739,2.606,2.739c0.605,0,1.32-0.132,1.684-0.319L129.438,14.362z"/>
			<path style="fill:#002D73;" d="M130.471,6.221h1.474v8.251h-1.474V6.221z"/>
			<path style="fill:#002D73;" d="M133.528,6.363h1.474v1.408h-1.474V6.363z M133.528,8.806h1.474v5.666h-1.474V8.806z"/>
			<path style="fill:#002D73;" d="M136.554,8.806h1.397v0.771h0.021c0.463-0.649,1.09-0.902,1.859-0.902
				c1.342,0,1.926,0.946,1.926,2.222v3.576h-1.475v-3.025c0-0.693-0.012-1.628-0.957-1.628c-1.067,0-1.299,1.155-1.299,1.881v2.772
				h-1.474V8.806z"/>
			<path style="fill:#002D73;" d="M143.307,6.363h1.475v1.408h-1.475V6.363z M143.307,8.806h1.475v5.666h-1.475V8.806z"/>
			<path style="fill:#002D73;" d="M150.007,10.027c-0.265-0.121-0.55-0.209-1.001-0.209c-0.913,0-1.496,0.726-1.496,1.793
				c0,1.045,0.494,1.848,1.529,1.848c0.418,0,0.88-0.154,1.133-0.264l0.066,1.221c-0.43,0.132-0.869,0.187-1.475,0.187
				c-1.859,0-2.795-1.265-2.795-2.992c0-1.639,0.969-2.938,2.74-2.938c0.594,0,1.023,0.066,1.43,0.187L150.007,10.027z"/>
			<path style="fill:#002D73;" d="M151.469,9.103c0.572-0.264,1.343-0.429,1.97-0.429c1.728,0,2.442,0.715,2.442,2.387v0.726
				c0,0.572,0.011,1.001,0.021,1.419c0.012,0.429,0.033,0.825,0.066,1.265h-1.299c-0.055-0.297-0.055-0.671-0.065-0.847h-0.022
				c-0.34,0.627-1.078,0.979-1.748,0.979c-1.002,0-1.98-0.605-1.98-1.683c0-0.847,0.406-1.342,0.968-1.617s1.287-0.33,1.903-0.33
				h0.814c0-0.913-0.408-1.221-1.277-1.221c-0.627,0-1.254,0.242-1.748,0.616L151.469,9.103z M153.196,13.526
				c0.451,0,0.804-0.198,1.034-0.506c0.242-0.319,0.309-0.726,0.309-1.166H153.9c-0.66,0-1.639,0.11-1.639,0.979
				C152.262,13.317,152.668,13.526,153.196,13.526z"/>
			<path style="fill:#002D73;" d="M157.365,6.221h1.475v8.251h-1.475V6.221z"/>
			<path style="fill:#002D73;" d="M163.449,6.793h1.539v7.679h-1.539V6.793z"/>
			<path style="fill:#002D73;" d="M166.507,8.806h1.397v0.771h0.021c0.463-0.649,1.09-0.902,1.859-0.902
				c1.342,0,1.926,0.946,1.926,2.222v3.576h-1.475v-3.025c0-0.693-0.012-1.628-0.957-1.628c-1.067,0-1.299,1.155-1.299,1.881v2.772
				h-1.474V8.806z"/>
			<path style="fill:#002D73;" d="M173.767,9.884h-1.089V8.806h1.089V8.014c0-1.133,0.638-1.925,1.804-1.925
				c0.375,0,0.793,0.055,1.078,0.121l-0.121,1.221c-0.131-0.077-0.318-0.198-0.638-0.198c-0.495,0-0.649,0.429-0.649,0.869v0.704
				h1.287v1.078h-1.287v4.588h-1.474V9.884z"/>
			<path style="fill:#002D73;" d="M180.103,8.674c1.683,0,2.97,1.133,2.97,3.003c0,1.628-1.088,2.926-2.97,2.926
				c-1.87,0-2.96-1.298-2.96-2.926C177.143,9.807,178.43,8.674,180.103,8.674z M180.103,13.46c1.134,0,1.431-1.012,1.431-1.958
				c0-0.869-0.463-1.684-1.431-1.684c-0.957,0-1.419,0.836-1.419,1.684C178.684,12.437,178.98,13.46,180.103,13.46z"/>
		</g>
		<line style="fill:none;stroke:#002D73;stroke-miterlimit:10;" x1="63" y1="16.721" x2="183" y2="16.721"/>
	</g>
</g>
<g id="Layer_2">
</g>
</svg>
