<?xml version="1.0" encoding="iso-8859-1"?>
<!-- Generator: Adobe Illustrator 19.1.0, SVG Export Plug-In . SVG Version: 6.00 Build 0)  -->
<svg version="1.1" xmlns="http://www.w3.org/2000/svg" xmlns:xlink="http://www.w3.org/1999/xlink" x="0px" y="0px"
	 viewBox="0 0 141.217 120" style="enable-background:new 0 0 141.217 120;" xml:space="preserve">
<g id="Layer_1">
	<g>
		<path style="fill:#114B89;" d="M41.217,1.246h5.856c2.16,0,5.4,0.625,5.4,4.297c0,1.992-1.344,3.385-3.336,3.744v0.049
			c2.28,0.215,3.84,1.752,3.84,3.815c0,4.225-3.792,4.849-5.904,4.849h-5.856V1.246z M44.578,8.016h1.368
			c1.416,0,3.168-0.312,3.168-2.041c0-1.943-1.704-2.088-3.24-2.088h-1.296V8.016z M44.578,15.359h1.584
			c1.561,0,3.456-0.384,3.456-2.328c0-2.184-1.775-2.52-3.456-2.52h-1.584V15.359z"/>
		<path style="fill:#114B89;" d="M55.593,1.246h3.624c3.601,0,7.896-0.119,7.896,4.537c0,1.968-1.32,3.6-3.456,3.889v0.047
			c0.912,0.072,1.44,0.984,1.776,1.729L68.122,18h-3.744l-2.016-5.232c-0.48-1.248-0.912-1.729-2.328-1.729h-1.08V18h-3.36V1.246z
			 M58.954,8.398h1.104c1.656,0,3.553-0.239,3.553-2.328c0-2.016-1.872-2.184-3.553-2.184h-1.104V8.398z"/>
		<path style="fill:#114B89;" d="M70.546,1.246h9.889v2.641h-6.528v4.129h5.977v2.64h-5.977v4.704h6.576V18h-9.937V1.246z"/>
		<path style="fill:#114B89;" d="M91.282,0.959c5.257,0,8.209,3.552,8.209,8.616s-2.904,8.713-8.209,8.713
			c-5.377,0-8.209-3.576-8.209-8.713C83.073,4.439,85.954,0.959,91.282,0.959z M91.282,15.648c3.433,0,4.704-3.049,4.704-6.073
			c0-2.952-1.368-5.977-4.704-5.977s-4.704,3.024-4.704,5.977C86.578,12.6,87.849,15.648,91.282,15.648z"/>
	</g>
	<g>
		<path style="fill:#114B89;" d="M28.486,33.88c0.555,0.36,1.35,0.54,1.755,0.54c0.645,0,1.439-0.27,1.439-1.095
			c0-1.395-3.314-1.275-3.314-3.42c0-1.59,1.185-2.354,2.7-2.354c0.659,0,1.199,0.135,1.755,0.3l-0.12,1.229
			c-0.315-0.194-1.155-0.39-1.485-0.39c-0.72,0-1.35,0.3-1.35,0.93c0,1.561,3.314,1.11,3.314,3.555c0,1.636-1.305,2.386-2.67,2.386
			c-0.72,0-1.454-0.075-2.1-0.421L28.486,33.88z"/>
		<path style="fill:#114B89;" d="M36.571,26.021h-1.59v-1.59h1.59V26.021z M35.071,27.73h1.41v7.649h-1.41V27.73z"/>
		<path style="fill:#114B89;" d="M45.826,35.05c0,2.325-1.2,3.66-3.945,3.66c-0.81,0-1.515-0.104-2.745-0.525l0.15-1.305
			c1.08,0.495,1.725,0.69,2.76,0.69c1.485,0,2.37-1.005,2.37-2.625v-0.75h-0.03c-0.6,0.795-1.59,1.185-2.564,1.185
			c-2.19,0-3.271-1.785-3.271-3.765c0-1.965,1.11-4.064,3.42-4.064c1.351,0,2.101,0.495,2.521,1.319h0.029v-1.14h1.306V35.05z
			 M44.416,31.646c0-1.59-0.735-2.955-2.235-2.955c-1.425,0-2.13,1.545-2.13,2.85c0,1.44,0.811,2.7,2.13,2.7
			C43.501,34.24,44.416,33.07,44.416,31.646z"/>
		<path style="fill:#114B89;" d="M48.226,27.73h1.364v1.215h0.03c0.42-0.87,1.439-1.395,2.505-1.395
			c1.979,0,2.865,1.229,2.865,3.284v4.545h-1.41v-3.96c0-1.784-0.391-2.654-1.62-2.729c-1.604,0-2.325,1.29-2.325,3.149v3.54h-1.409
			V27.73z"/>
		<path style="fill:#114B89;" d="M59.071,26.021h-1.59v-1.59h1.59V26.021z M57.571,27.73h1.41v7.649h-1.41V27.73z"/>
		<path style="fill:#114B89;" d="M62.475,28.87h-1.8v-1.14h1.8v-0.705c0-1.859,0.48-3.075,2.565-3.075
			c0.36,0,0.66,0.045,0.945,0.091l-0.061,1.14c-0.165-0.061-0.435-0.09-0.675-0.09c-1.215,0-1.365,0.779-1.365,1.814v0.825h2.025
			v1.14h-2.025v6.51h-1.41V28.87z M69.076,26.021h-1.591v-1.59h1.591V26.021z M67.576,27.73h1.409v7.649h-1.409V27.73z"/>
		<path style="fill:#114B89;" d="M76.425,29.021c-0.54-0.226-1.08-0.33-1.53-0.33c-1.574,0-2.46,1.41-2.46,2.865
			c0,1.364,0.735,2.864,2.55,2.864c0.48,0,1.08-0.149,1.516-0.435l0.104,1.26c-0.585,0.27-1.26,0.315-1.77,0.315
			c-2.31,0-3.9-1.815-3.9-4.005c0-2.325,1.561-4.005,3.9-4.005c0.57,0,1.305,0.135,1.71,0.3L76.425,29.021z"/>
		<path style="fill:#114B89;" d="M78.586,28.271c0.705-0.42,1.545-0.72,2.52-0.72c2.19,0,3.075,1.08,3.075,3.164v3.165
			c0,0.87,0.03,1.275,0.06,1.5h-1.319v-0.989h-0.03c-0.33,0.465-1.08,1.17-2.37,1.17c-1.649,0-2.805-0.721-2.805-2.386
			c0-1.92,2.1-2.52,3.555-2.52c0.556,0,0.945,0,1.5,0.03c0-1.32-0.479-1.995-1.89-1.995c-0.795,0-1.65,0.3-2.22,0.78L78.586,28.271z
			 M82.77,31.735c-0.3,0-0.6-0.03-0.899-0.03c-0.766,0-2.655,0.12-2.655,1.47c0,0.811,0.78,1.245,1.425,1.245
			c1.396,0,2.13-0.87,2.13-2.01V31.735z"/>
		<path style="fill:#114B89;" d="M86.566,27.73h1.364v1.215h0.03c0.42-0.87,1.44-1.395,2.505-1.395c1.98,0,2.865,1.229,2.865,3.284
			v4.545h-1.41v-3.96c0-1.784-0.39-2.654-1.62-2.729c-1.604,0-2.324,1.29-2.324,3.149v3.54h-1.41V27.73z"/>
		<path style="fill:#114B89;" d="M99.796,28.87h-2.024v4.186c0,0.885,0.54,1.364,1.185,1.364c0.435,0,0.75-0.135,0.96-0.27v1.2
			c-0.315,0.09-0.75,0.21-1.2,0.21c-1.455,0-2.354-0.69-2.354-2.221v-4.47h-1.725v-1.14h1.725v-1.77l1.41-0.45v2.22h2.024V28.87z"/>
		<path style="fill:#114B89;" d="M101.746,24.131h1.41V35.38h-1.41V24.131z"/>
		<path style="fill:#114B89;" d="M105.166,37.45c0.18,0.06,0.42,0.12,0.66,0.12c1.26,0,1.68-1.74,1.68-1.891
			c0-0.165-0.18-0.555-0.27-0.81l-2.595-7.14h1.545l2.055,6.33h0.029l2.101-6.33h1.425l-2.82,7.814
			c-0.524,1.47-1.079,3.165-2.939,3.165c-0.45,0-0.705-0.06-0.96-0.104L105.166,37.45z"/>
		<path style="fill:#114B89;" d="M15.301,43.73h1.319v1.185h0.03c0.375-0.795,1.185-1.364,1.995-1.364c0.42,0,0.63,0.045,0.93,0.104
			v1.26c-0.255-0.104-0.54-0.135-0.78-0.135c-1.26,0-2.085,1.2-2.085,3.12v3.479h-1.409V43.73z"/>
		<path style="fill:#114B89;" d="M27.001,51.065c-0.54,0.194-1.155,0.495-2.415,0.495c-2.715,0-3.96-1.65-3.96-4.141
			c0-2.265,1.425-3.869,3.585-3.869c2.55,0,3.375,1.859,3.375,4.319h-5.46c0,1.515,1.186,2.55,2.521,2.55
			c0.93,0,2.01-0.479,2.354-0.765V51.065z M26.086,46.82c0-1.17-0.689-2.13-1.905-2.13c-1.38,0-1.949,1.14-2.055,2.13H26.086z"/>
		<path style="fill:#114B89;" d="M34.89,50.3h-0.029c-0.375,0.57-1.245,1.261-2.61,1.261c-2.31,0-3.285-2.056-3.285-4.141
			c0-2.055,1.08-3.869,3.3-3.869c1.335,0,2.101,0.524,2.535,1.229h0.03v-4.649h1.41V51.38H34.89V50.3z M32.581,50.42
			c1.59,0,2.25-1.574,2.25-2.85c0-1.425-0.735-2.88-2.265-2.88c-1.53,0-2.13,1.439-2.101,2.835
			C30.436,48.726,31.066,50.42,32.581,50.42z"/>
		<path style="fill:#114B89;" d="M45.406,51.38h-1.365v-1.215h-0.03c-0.42,0.87-1.439,1.396-2.505,1.396
			c-1.979,0-2.864-1.23-2.864-3.285V43.73h1.409v3.96c0,1.785,0.391,2.654,1.62,2.729c1.605,0,2.325-1.29,2.325-3.149v-3.54h1.41
			V51.38z"/>
		<path style="fill:#114B89;" d="M52.666,45.021c-0.54-0.226-1.08-0.33-1.53-0.33c-1.574,0-2.46,1.41-2.46,2.865
			c0,1.364,0.735,2.864,2.55,2.864c0.48,0,1.08-0.149,1.516-0.435l0.104,1.26c-0.585,0.27-1.26,0.315-1.77,0.315
			c-2.31,0-3.9-1.815-3.9-4.005c0-2.325,1.561-4.005,3.9-4.005c0.57,0,1.305,0.135,1.71,0.3L52.666,45.021z"/>
		<path style="fill:#114B89;" d="M60.331,51.065c-0.54,0.194-1.155,0.495-2.415,0.495c-2.715,0-3.96-1.65-3.96-4.141
			c0-2.265,1.425-3.869,3.585-3.869c2.55,0,3.375,1.859,3.375,4.319h-5.46c0,1.515,1.185,2.55,2.52,2.55
			c0.93,0,2.01-0.479,2.355-0.765V51.065z M59.416,46.82c0-1.17-0.69-2.13-1.905-2.13c-1.38,0-1.95,1.14-2.055,2.13H59.416z"/>
		<path style="fill:#114B89;" d="M68.22,50.3h-0.03c-0.375,0.57-1.245,1.261-2.61,1.261c-2.31,0-3.284-2.056-3.284-4.141
			c0-2.055,1.08-3.869,3.3-3.869c1.335,0,2.1,0.524,2.535,1.229h0.029v-4.649h1.41V51.38h-1.35V50.3z M65.91,50.42
			c1.59,0,2.25-1.574,2.25-2.85c0-1.425-0.734-2.88-2.265-2.88s-2.13,1.439-2.1,2.835C63.765,48.726,64.395,50.42,65.91,50.42z"/>
		<path style="fill:#114B89;" d="M76.501,44.271c0.705-0.42,1.545-0.72,2.52-0.72c2.19,0,3.075,1.08,3.075,3.164v3.165
			c0,0.87,0.03,1.275,0.06,1.5h-1.319v-0.989h-0.03c-0.33,0.465-1.08,1.17-2.37,1.17c-1.65,0-2.805-0.721-2.805-2.386
			c0-1.92,2.1-2.52,3.555-2.52c0.555,0,0.945,0,1.5,0.03c0-1.32-0.479-1.995-1.89-1.995c-0.795,0-1.65,0.3-2.221,0.78L76.501,44.271
			z M80.685,47.735c-0.3,0-0.6-0.03-0.899-0.03c-0.766,0-2.655,0.12-2.655,1.47c0,0.811,0.779,1.245,1.425,1.245
			c1.396,0,2.13-0.87,2.13-2.01V47.735z"/>
		<path style="fill:#114B89;" d="M83.911,49.88c0.555,0.36,1.35,0.54,1.755,0.54c0.646,0,1.44-0.27,1.44-1.095
			c0-1.395-3.315-1.275-3.315-3.42c0-1.59,1.186-2.354,2.7-2.354c0.66,0,1.2,0.135,1.755,0.3l-0.12,1.229
			c-0.314-0.194-1.155-0.39-1.485-0.39c-0.72,0-1.35,0.3-1.35,0.93c0,1.561,3.315,1.11,3.315,3.555c0,1.636-1.306,2.386-2.67,2.386
			c-0.721,0-1.455-0.075-2.101-0.421L83.911,49.88z"/>
		<path style="fill:#114B89;" d="M94.381,44.87h-2.024v4.186c0,0.885,0.54,1.364,1.185,1.364c0.435,0,0.75-0.135,0.96-0.27v1.2
			c-0.315,0.09-0.75,0.21-1.2,0.21c-1.455,0-2.354-0.69-2.354-2.221v-4.47h-1.725v-1.14h1.725v-1.77l1.41-0.45v2.22h2.024V44.87z"/>
		<path style="fill:#114B89;" d="M96.151,40.131h1.41v4.694h0.029c0.51-0.81,1.396-1.274,2.46-1.274c1.98,0,2.865,1.229,2.865,3.284
			v4.545h-1.41v-3.96c0-1.784-0.39-2.654-1.62-2.729c-1.604,0-2.324,1.29-2.324,3.149v3.54h-1.41V40.131z"/>
		<path style="fill:#114B89;" d="M105.3,43.73h1.32v1.11h0.03c0.54-0.886,1.305-1.29,2.43-1.29c0.885,0,1.77,0.449,2.175,1.484
			c0.525-1.095,1.68-1.484,2.37-1.484c1.95,0,2.654,1.26,2.654,2.925v4.904h-1.409v-4.56c0-0.945-0.226-2.13-1.365-2.13
			c-1.44,0-2.01,1.41-2.01,2.835v3.854h-1.41v-4.56c0-0.945-0.225-2.13-1.365-2.13c-1.439,0-2.01,1.41-2.01,2.835v3.854h-1.41V43.73
			z"/>
		<path style="fill:#114B89;" d="M119.01,44.271c0.705-0.42,1.545-0.72,2.521-0.72c2.189,0,3.074,1.08,3.074,3.164v3.165
			c0,0.87,0.03,1.275,0.061,1.5h-1.32v-0.989h-0.029c-0.33,0.465-1.08,1.17-2.37,1.17c-1.65,0-2.805-0.721-2.805-2.386
			c0-1.92,2.1-2.52,3.555-2.52c0.555,0,0.944,0,1.5,0.03c0-1.32-0.48-1.995-1.891-1.995c-0.795,0-1.649,0.3-2.22,0.78L119.01,44.271
			z M123.196,47.735c-0.301,0-0.601-0.03-0.9-0.03c-0.765,0-2.655,0.12-2.655,1.47c0,0.811,0.78,1.245,1.426,1.245
			c1.395,0,2.13-0.87,2.13-2.01V47.735z"/>
		<path style="fill:#114B89;" d="M19.913,67.065c-0.54,0.194-1.155,0.495-2.415,0.495c-2.715,0-3.96-1.65-3.96-4.141
			c0-2.265,1.425-3.869,3.585-3.869c2.55,0,3.375,1.859,3.375,4.319h-5.46c0,1.515,1.186,2.55,2.521,2.55
			c0.93,0,2.01-0.479,2.354-0.765V67.065z M18.998,62.82c0-1.17-0.689-2.13-1.905-2.13c-1.38,0-1.949,1.14-2.055,2.13H18.998z"/>
		<path style="fill:#114B89;" d="M24.097,63.375l-2.489-3.645h1.755l1.665,2.729l1.694-2.729h1.575l-2.46,3.645l2.7,4.005h-1.74
			l-1.89-3l-1.89,3h-1.681L24.097,63.375z"/>
		<path style="fill:#114B89;" d="M30.248,60.271c0.705-0.42,1.545-0.72,2.521-0.72c2.189,0,3.074,1.08,3.074,3.164v3.165
			c0,0.87,0.03,1.275,0.061,1.5h-1.32v-0.989h-0.03c-0.33,0.465-1.08,1.17-2.37,1.17c-1.649,0-2.805-0.721-2.805-2.386
			c0-1.92,2.101-2.52,3.555-2.52c0.556,0,0.945,0,1.5,0.03c0-1.32-0.479-1.995-1.89-1.995c-0.795,0-1.649,0.3-2.22,0.78
			L30.248,60.271z M34.432,63.735c-0.3,0-0.6-0.03-0.899-0.03c-0.765,0-2.655,0.12-2.655,1.47c0,0.811,0.78,1.245,1.425,1.245
			c1.396,0,2.13-0.87,2.13-2.01V63.735z"/>
		<path style="fill:#114B89;" d="M43.088,61.021c-0.54-0.226-1.08-0.33-1.53-0.33c-1.574,0-2.46,1.41-2.46,2.865
			c0,1.364,0.735,2.864,2.55,2.864c0.48,0,1.08-0.149,1.516-0.435l0.104,1.26c-0.585,0.27-1.26,0.315-1.77,0.315
			c-2.31,0-3.9-1.815-3.9-4.005c0-2.325,1.561-4.005,3.9-4.005c0.57,0,1.305,0.135,1.71,0.3L43.088,61.021z"/>
		<path style="fill:#114B89;" d="M50.753,67.065c-0.54,0.194-1.155,0.495-2.415,0.495c-2.715,0-3.96-1.65-3.96-4.141
			c0-2.265,1.425-3.869,3.585-3.869c2.55,0,3.375,1.859,3.375,4.319h-5.46c0,1.515,1.185,2.55,2.52,2.55
			c0.93,0,2.01-0.479,2.355-0.765V67.065z M49.838,62.82c0-1.17-0.69-2.13-1.905-2.13c-1.38,0-1.95,1.14-2.055,2.13H49.838z"/>
		<path style="fill:#114B89;" d="M53.227,59.73h1.32v1.185h0.029c0.375-0.795,1.186-1.364,1.995-1.364c0.42,0,0.63,0.045,0.93,0.104
			v1.26c-0.255-0.104-0.54-0.135-0.779-0.135c-1.26,0-2.085,1.2-2.085,3.12v3.479h-1.41V59.73z"/>
		<path style="fill:#114B89;" d="M59.062,56.131h1.41v4.649h0.03c0.435-0.705,1.199-1.229,2.534-1.229c2.22,0,3.3,1.814,3.3,3.869
			c0,2.101-0.975,4.141-3.284,4.141c-1.365,0-2.235-0.69-2.61-1.261h-0.03v1.08h-1.35V56.131z M62.737,60.69
			c-1.53,0-2.265,1.455-2.265,2.88c0,1.275,0.66,2.85,2.25,2.85c1.515,0,2.145-1.694,2.114-2.895
			C64.867,62.146,64.267,60.69,62.737,60.69z"/>
		<path style="fill:#114B89;" d="M68.588,60.271c0.705-0.42,1.545-0.72,2.52-0.72c2.189,0,3.075,1.08,3.075,3.164v3.165
			c0,0.87,0.029,1.275,0.06,1.5h-1.32v-0.989h-0.029c-0.33,0.465-1.08,1.17-2.37,1.17c-1.65,0-2.805-0.721-2.805-2.386
			c0-1.92,2.1-2.52,3.555-2.52c0.555,0,0.945,0,1.5,0.03c0-1.32-0.48-1.995-1.89-1.995c-0.795,0-1.65,0.3-2.221,0.78L68.588,60.271z
			 M72.772,63.735c-0.3,0-0.6-0.03-0.9-0.03c-0.765,0-2.654,0.12-2.654,1.47c0,0.811,0.779,1.245,1.425,1.245
			c1.395,0,2.13-0.87,2.13-2.01V63.735z"/>
		<path style="fill:#114B89;" d="M80.633,60.87h-2.025v4.186c0,0.885,0.54,1.364,1.186,1.364c0.435,0,0.749-0.135,0.96-0.27v1.2
			c-0.315,0.09-0.75,0.21-1.2,0.21c-1.455,0-2.355-0.69-2.355-2.221v-4.47h-1.725v-1.14h1.725v-1.77l1.41-0.45v2.22h2.025V60.87z"/>
		<path style="fill:#114B89;" d="M84.082,58.021h-1.59v-1.59h1.59V58.021z M82.582,59.73h1.41v7.649h-1.41V59.73z"/>
		<path style="fill:#114B89;" d="M89.962,59.551c2.325,0,3.885,1.68,3.885,4.005c0,2.189-1.59,4.005-3.885,4.005
			c-2.31,0-3.899-1.815-3.899-4.005C86.062,61.23,87.622,59.551,89.962,59.551z M89.962,66.42c1.649,0,2.385-1.5,2.385-2.864
			c0-1.455-0.885-2.865-2.385-2.865c-1.515,0-2.4,1.41-2.4,2.865C87.561,64.92,88.297,66.42,89.962,66.42z"/>
		<path style="fill:#114B89;" d="M95.737,59.73h1.364v1.215h0.03c0.42-0.87,1.44-1.395,2.505-1.395c1.98,0,2.865,1.229,2.865,3.284
			v4.545h-1.41v-3.96c0-1.784-0.39-2.654-1.62-2.729c-1.604,0-2.324,1.29-2.324,3.149v3.54h-1.41V59.73z"/>
		<path style="fill:#114B89;" d="M104.332,65.88c0.555,0.36,1.35,0.54,1.755,0.54c0.646,0,1.44-0.27,1.44-1.095
			c0-1.395-3.315-1.275-3.315-3.42c0-1.59,1.186-2.354,2.7-2.354c0.66,0,1.2,0.135,1.755,0.3l-0.12,1.229
			c-0.314-0.194-1.155-0.39-1.484-0.39c-0.721,0-1.351,0.3-1.351,0.93c0,1.561,3.315,1.11,3.315,3.555
			c0,1.636-1.306,2.386-2.67,2.386c-0.721,0-1.455-0.075-2.101-0.421L104.332,65.88z"/>
		<path style="fill:#114B89;" d="M116.587,58.021h-1.59v-1.59h1.59V58.021z M115.087,59.73h1.41v7.649h-1.41V59.73z"/>
		<path style="fill:#114B89;" d="M119.077,59.73h1.364v1.215h0.03c0.42-0.87,1.44-1.395,2.505-1.395c1.98,0,2.865,1.229,2.865,3.284
			v4.545h-1.41v-3.96c0-1.784-0.39-2.654-1.62-2.729c-1.604,0-2.324,1.29-2.324,3.149v3.54h-1.41V59.73z"/>
		<path style="fill:#114B89;" d="M4.824,76.271c0.705-0.42,1.545-0.72,2.52-0.72c2.189,0,3.075,1.08,3.075,3.164v3.165
			c0,0.87,0.029,1.275,0.06,1.5h-1.32v-0.989H9.129c-0.33,0.465-1.08,1.17-2.37,1.17c-1.65,0-2.805-0.721-2.805-2.386
			c0-1.92,2.1-2.52,3.555-2.52c0.555,0,0.945,0,1.5,0.03c0-1.32-0.48-1.995-1.89-1.995c-0.795,0-1.65,0.3-2.221,0.78L4.824,76.271z
			 M9.009,79.735c-0.3,0-0.6-0.03-0.9-0.03c-0.765,0-2.654,0.12-2.654,1.47c0,0.811,0.779,1.245,1.425,1.245
			c1.395,0,2.13-0.87,2.13-2.01V79.735z"/>
		<path style="fill:#114B89;" d="M18.218,82.3h-0.03c-0.375,0.57-1.245,1.261-2.61,1.261c-2.31,0-3.284-2.056-3.284-4.141
			c0-2.055,1.08-3.869,3.3-3.869c1.335,0,2.1,0.524,2.535,1.229h0.029v-4.649h1.41V83.38h-1.35V82.3z M15.908,82.42
			c1.59,0,2.25-1.574,2.25-2.85c0-1.425-0.734-2.88-2.265-2.88s-2.13,1.439-2.1,2.835C13.763,80.726,14.393,82.42,15.908,82.42z"/>
		<path style="fill:#114B89;" d="M28.733,83.38h-1.365v-1.215h-0.029c-0.42,0.87-1.44,1.396-2.505,1.396
			c-1.98,0-2.865-1.23-2.865-3.285V75.73h1.41v3.96c0,1.785,0.39,2.654,1.62,2.729c1.604,0,2.324-1.29,2.324-3.149v-3.54h1.41V83.38
			z"/>
		<path style="fill:#114B89;" d="M31.313,72.131h1.41V83.38h-1.41V72.131z"/>
		<path style="fill:#114B89;" d="M39.368,76.87h-2.024v4.186c0,0.885,0.54,1.364,1.185,1.364c0.436,0,0.75-0.135,0.96-0.27v1.2
			c-0.314,0.09-0.75,0.21-1.199,0.21c-1.455,0-2.355-0.69-2.355-2.221v-4.47h-1.725v-1.14h1.725v-1.77l1.41-0.45v2.22h2.024V76.87z"
			/>
		<path style="fill:#114B89;" d="M45.308,75.73h1.35v1.08h0.03c0.375-0.57,1.245-1.26,2.595-1.26c2.22,0,3.3,1.814,3.3,3.869
			c0,2.101-0.975,4.141-3.284,4.141c-1.351,0-2.115-0.525-2.55-1.23h-0.03v4.2h-1.41V75.73z M48.983,76.69
			c-1.53,0-2.265,1.455-2.265,2.88c0,1.275,0.66,2.85,2.25,2.85c1.515,0,2.145-1.694,2.114-2.895
			C51.113,78.146,50.513,76.69,48.983,76.69z"/>
		<path style="fill:#114B89;" d="M54.834,76.271c0.705-0.42,1.545-0.72,2.52-0.72c2.189,0,3.075,1.08,3.075,3.164v3.165
			c0,0.87,0.029,1.275,0.06,1.5h-1.32v-0.989h-0.029c-0.33,0.465-1.08,1.17-2.37,1.17c-1.65,0-2.805-0.721-2.805-2.386
			c0-1.92,2.1-2.52,3.555-2.52c0.555,0,0.945,0,1.5,0.03c0-1.32-0.48-1.995-1.89-1.995c-0.795,0-1.65,0.3-2.221,0.78L54.834,76.271z
			 M59.018,79.735c-0.3,0-0.6-0.03-0.9-0.03c-0.765,0-2.654,0.12-2.654,1.47c0,0.811,0.779,1.245,1.425,1.245
			c1.395,0,2.13-0.87,2.13-2.01V79.735z"/>
		<path style="fill:#114B89;" d="M66.878,76.87h-2.024v4.186c0,0.885,0.54,1.364,1.185,1.364c0.436,0,0.75-0.135,0.96-0.27v1.2
			c-0.314,0.09-0.75,0.21-1.199,0.21c-1.455,0-2.355-0.69-2.355-2.221v-4.47h-1.725v-1.14h1.725v-1.77l1.41-0.45v2.22h2.024V76.87z"
			/>
		<path style="fill:#114B89;" d="M70.328,74.021h-1.59v-1.59h1.59V74.021z M68.828,75.73h1.41v7.649h-1.41V75.73z"/>
		<path style="fill:#114B89;" d="M78.683,83.065c-0.54,0.194-1.155,0.495-2.415,0.495c-2.715,0-3.96-1.65-3.96-4.141
			c0-2.265,1.425-3.869,3.585-3.869c2.55,0,3.375,1.859,3.375,4.319h-5.46c0,1.515,1.185,2.55,2.52,2.55
			c0.93,0,2.01-0.479,2.355-0.765V83.065z M77.768,78.82c0-1.17-0.69-2.13-1.905-2.13c-1.38,0-1.95,1.14-2.055,2.13H77.768z"/>
		<path style="fill:#114B89;" d="M81.159,75.73h1.364v1.215h0.03c0.42-0.87,1.44-1.395,2.505-1.395c1.98,0,2.865,1.229,2.865,3.284
			v4.545h-1.41v-3.96c0-1.784-0.39-2.654-1.62-2.729c-1.604,0-2.324,1.29-2.324,3.149v3.54h-1.41V75.73z"/>
		<path style="fill:#114B89;" d="M94.388,76.87h-2.024v4.186c0,0.885,0.54,1.364,1.185,1.364c0.435,0,0.75-0.135,0.96-0.27v1.2
			c-0.315,0.09-0.75,0.21-1.2,0.21c-1.455,0-2.354-0.69-2.354-2.221v-4.47h-1.725v-1.14h1.725v-1.77l1.41-0.45v2.22h2.024V76.87z"/>
		<path style="fill:#114B89;" d="M95.589,81.88c0.555,0.36,1.35,0.54,1.755,0.54c0.646,0,1.44-0.27,1.44-1.095
			c0-1.395-3.315-1.275-3.315-3.42c0-1.59,1.186-2.354,2.7-2.354c0.66,0,1.2,0.135,1.755,0.3l-0.12,1.229
			c-0.314-0.194-1.155-0.39-1.485-0.39c-0.72,0-1.35,0.3-1.35,0.93c0,1.561,3.315,1.11,3.315,3.555c0,1.636-1.306,2.386-2.67,2.386
			c-0.721,0-1.455-0.075-2.101-0.421L95.589,81.88z"/>
		<path style="fill:#114B89;" d="M114.818,83.38h-1.635l-1.98-6.42h-0.029l-1.936,6.42h-1.635l-2.46-7.649h1.545l1.755,6.33h0.03
			l1.95-6.33h1.665l1.92,6.33h0.029l1.86-6.33h1.38L114.818,83.38z"/>
		<path style="fill:#114B89;" d="M120.339,74.021h-1.59v-1.59h1.59V74.021z M118.839,75.73h1.41v7.649h-1.41V75.73z"/>
		<path style="fill:#114B89;" d="M126.893,76.87h-2.024v4.186c0,0.885,0.54,1.364,1.185,1.364c0.435,0,0.75-0.135,0.96-0.27v1.2
			c-0.315,0.09-0.75,0.21-1.2,0.21c-1.455,0-2.354-0.69-2.354-2.221v-4.47h-1.725v-1.14h1.725v-1.77l1.41-0.45v2.22h2.024V76.87z"/>
		<path style="fill:#114B89;" d="M128.664,72.131h1.41v4.694h0.029c0.51-0.81,1.396-1.274,2.46-1.274
			c1.98,0,2.865,1.229,2.865,3.284v4.545h-1.41v-3.96c0-1.784-0.39-2.654-1.62-2.729c-1.604,0-2.324,1.29-2.324,3.149v3.54h-1.41
			V72.131z"/>
		<path style="fill:#114B89;" d="M4.403,92.271c0.705-0.42,1.545-0.72,2.521-0.72c2.189,0,3.074,1.08,3.074,3.164v3.165
			c0,0.87,0.03,1.275,0.061,1.5h-1.32v-0.989h-0.03c-0.33,0.465-1.08,1.17-2.37,1.17c-1.649,0-2.805-0.721-2.805-2.386
			c0-1.92,2.101-2.52,3.555-2.52c0.556,0,0.945,0,1.5,0.03c0-1.32-0.479-1.995-1.89-1.995c-0.795,0-1.649,0.3-2.22,0.78
			L4.403,92.271z M8.588,95.735c-0.3,0-0.6-0.03-0.899-0.03c-0.765,0-2.655,0.12-2.655,1.47c0,0.811,0.78,1.245,1.425,1.245
			c1.396,0,2.13-0.87,2.13-2.01V95.735z"/>
		<path style="fill:#114B89;" d="M16.553,88.131h1.409v4.694h0.03c0.51-0.81,1.395-1.274,2.46-1.274
			c1.979,0,2.865,1.229,2.865,3.284v4.545h-1.41v-3.96c0-1.784-0.391-2.654-1.62-2.729c-1.604,0-2.325,1.29-2.325,3.149v3.54h-1.409
			V88.131z"/>
		<path style="fill:#114B89;" d="M27.398,90.021h-1.59v-1.59h1.59V90.021z M25.898,91.73h1.41v7.649h-1.41V91.73z"/>
		<path style="fill:#114B89;" d="M29.318,97.88c0.555,0.36,1.35,0.54,1.755,0.54c0.645,0,1.439-0.27,1.439-1.095
			c0-1.395-3.314-1.275-3.314-3.42c0-1.59,1.185-2.354,2.7-2.354c0.659,0,1.199,0.135,1.755,0.3l-0.12,1.229
			c-0.315-0.194-1.155-0.39-1.485-0.39c-0.72,0-1.35,0.3-1.35,0.93c0,1.561,3.314,1.11,3.314,3.555c0,1.636-1.305,2.386-2.67,2.386
			c-0.72,0-1.454-0.075-2.1-0.421L29.318,97.88z"/>
		<path style="fill:#114B89;" d="M39.788,92.87h-2.025v4.186c0,0.885,0.54,1.364,1.186,1.364c0.435,0,0.75-0.135,0.96-0.27v1.2
			c-0.315,0.09-0.75,0.21-1.2,0.21c-1.455,0-2.354-0.69-2.354-2.221v-4.47h-1.726v-1.14h1.726v-1.77l1.409-0.45v2.22h2.025V92.87z"
			/>
		<path style="fill:#114B89;" d="M44.948,91.551c2.324,0,3.885,1.68,3.885,4.005c0,2.189-1.59,4.005-3.885,4.005
			c-2.311,0-3.9-1.815-3.9-4.005C41.048,93.23,42.608,91.551,44.948,91.551z M44.948,98.42c1.649,0,2.385-1.5,2.385-2.864
			c0-1.455-0.885-2.865-2.385-2.865c-1.516,0-2.4,1.41-2.4,2.865C42.548,96.92,43.283,98.42,44.948,98.42z"/>
		<path style="fill:#114B89;" d="M50.723,91.73h1.319v1.185h0.03c0.375-0.795,1.185-1.364,1.995-1.364c0.42,0,0.63,0.045,0.93,0.104
			v1.26c-0.255-0.104-0.54-0.135-0.78-0.135c-1.26,0-2.085,1.2-2.085,3.12v3.479h-1.409V91.73z"/>
		<path style="fill:#114B89;" d="M55.988,101.45c0.18,0.06,0.42,0.12,0.66,0.12c1.26,0,1.68-1.74,1.68-1.891
			c0-0.165-0.18-0.555-0.271-0.81l-2.595-7.14h1.545l2.056,6.33h0.029l2.101-6.33h1.425l-2.82,7.814
			c-0.524,1.47-1.08,3.165-2.939,3.165c-0.45,0-0.705-0.06-0.96-0.104L55.988,101.45z"/>
		<path style="fill:#114B89;" d="M71.618,91.551c2.324,0,3.885,1.68,3.885,4.005c0,2.189-1.59,4.005-3.885,4.005
			c-2.311,0-3.9-1.815-3.9-4.005C67.717,93.23,69.278,91.551,71.618,91.551z M71.618,98.42c1.649,0,2.385-1.5,2.385-2.864
			c0-1.455-0.885-2.865-2.385-2.865c-1.516,0-2.4,1.41-2.4,2.865C69.217,96.92,69.953,98.42,71.618,98.42z"/>
		<path style="fill:#114B89;" d="M78.307,92.87h-1.8v-1.14h1.8v-0.705c0-1.859,0.48-3.075,2.565-3.075
			c0.36,0,0.66,0.045,0.945,0.091l-0.061,1.14c-0.165-0.061-0.435-0.09-0.675-0.09c-1.215,0-1.365,0.779-1.365,1.814v0.825h2.025
			v1.14h-2.025v6.51h-1.41V92.87z"/>
		<path style="fill:#114B89;" d="M87.758,92.271c0.705-0.42,1.545-0.72,2.521-0.72c2.189,0,3.074,1.08,3.074,3.164v3.165
			c0,0.87,0.03,1.275,0.061,1.5h-1.32v-0.989h-0.029c-0.33,0.465-1.08,1.17-2.37,1.17c-1.65,0-2.805-0.721-2.805-2.386
			c0-1.92,2.1-2.52,3.555-2.52c0.555,0,0.944,0,1.5,0.03c0-1.32-0.48-1.995-1.891-1.995c-0.795,0-1.649,0.3-2.22,0.78L87.758,92.271
			z M91.943,95.735c-0.301,0-0.601-0.03-0.9-0.03c-0.765,0-2.655,0.12-2.655,1.47c0,0.811,0.78,1.245,1.426,1.245
			c1.395,0,2.13-0.87,2.13-2.01V95.735z"/>
		<path style="fill:#114B89;" d="M95.168,97.88c0.555,0.36,1.35,0.54,1.755,0.54c0.646,0,1.44-0.27,1.44-1.095
			c0-1.395-3.315-1.275-3.315-3.42c0-1.59,1.186-2.354,2.7-2.354c0.66,0,1.2,0.135,1.755,0.3l-0.12,1.229
			c-0.314-0.194-1.155-0.39-1.484-0.39c-0.721,0-1.351,0.3-1.351,0.93c0,1.561,3.315,1.11,3.315,3.555
			c0,1.636-1.306,2.386-2.67,2.386c-0.721,0-1.455-0.075-2.101-0.421L95.168,97.88z"/>
		<path style="fill:#114B89;" d="M105.637,92.87h-2.024v4.186c0,0.885,0.54,1.364,1.185,1.364c0.435,0,0.75-0.135,0.96-0.27v1.2
			c-0.315,0.09-0.75,0.21-1.2,0.21c-1.455,0-2.354-0.69-2.354-2.221v-4.47h-1.725v-1.14h1.725v-1.77l1.41-0.45v2.22h2.024V92.87z"/>
		<path style="fill:#114B89;" d="M107.408,88.131h1.41v4.694h0.029c0.51-0.81,1.396-1.274,2.46-1.274
			c1.98,0,2.865,1.229,2.865,3.284v4.545h-1.41v-3.96c0-1.784-0.39-2.654-1.62-2.729c-1.604,0-2.324,1.29-2.324,3.149v3.54h-1.41
			V88.131z"/>
		<path style="fill:#114B89;" d="M116.557,91.73h1.32v1.11h0.03c0.54-0.886,1.305-1.29,2.43-1.29c0.885,0,1.77,0.449,2.175,1.484
			c0.525-1.095,1.68-1.484,2.37-1.484c1.95,0,2.654,1.26,2.654,2.925v4.904h-1.409v-4.56c0-0.945-0.226-2.13-1.365-2.13
			c-1.44,0-2.01,1.41-2.01,2.835v3.854h-1.41v-4.56c0-0.945-0.225-2.13-1.365-2.13c-1.439,0-2.01,1.41-2.01,2.835v3.854h-1.41V91.73
			z"/>
		<path style="fill:#114B89;" d="M130.267,92.271c0.705-0.42,1.545-0.72,2.521-0.72c2.189,0,3.074,1.08,3.074,3.164v3.165
			c0,0.87,0.03,1.275,0.061,1.5h-1.32v-0.989h-0.029c-0.33,0.465-1.08,1.17-2.37,1.17c-1.65,0-2.805-0.721-2.805-2.386
			c0-1.92,2.1-2.52,3.555-2.52c0.555,0,0.944,0,1.5,0.03c0-1.32-0.48-1.995-1.891-1.995c-0.795,0-1.649,0.3-2.22,0.78
			L130.267,92.271z M134.453,95.735c-0.301,0-0.601-0.03-0.9-0.03c-0.765,0-2.655,0.12-2.655,1.47c0,0.811,0.78,1.245,1.426,1.245
			c1.395,0,2.13-0.87,2.13-2.01V95.735z"/>
		<path style="fill:#114B89;" d="M28.666,115.065c-0.54,0.194-1.155,0.495-2.415,0.495c-2.715,0-3.96-1.65-3.96-4.141
			c0-2.265,1.425-3.869,3.585-3.869c2.55,0,3.375,1.859,3.375,4.319h-5.46c0,1.515,1.185,2.55,2.52,2.55
			c0.93,0,2.01-0.479,2.355-0.765V115.065z M27.751,110.82c0-1.17-0.69-2.13-1.905-2.13c-1.38,0-1.95,1.14-2.055,2.13H27.751z"/>
		<path style="fill:#114B89;" d="M32.85,111.375l-2.49-3.645h1.755l1.665,2.729l1.695-2.729h1.575l-2.46,3.645l2.699,4.005H35.55
			l-1.891-3l-1.89,3h-1.68L32.85,111.375z"/>
		<path style="fill:#114B89;" d="M39.001,108.271c0.705-0.42,1.545-0.72,2.52-0.72c2.189,0,3.075,1.08,3.075,3.164v3.165
			c0,0.87,0.029,1.275,0.06,1.5h-1.32v-0.989h-0.029c-0.33,0.465-1.08,1.17-2.37,1.17c-1.65,0-2.805-0.721-2.805-2.386
			c0-1.92,2.1-2.52,3.555-2.52c0.555,0,0.945,0,1.5,0.03c0-1.32-0.48-1.995-1.89-1.995c-0.795,0-1.65,0.3-2.221,0.78L39.001,108.271
			z M43.185,111.735c-0.3,0-0.6-0.03-0.9-0.03c-0.765,0-2.654,0.12-2.654,1.47c0,0.811,0.779,1.245,1.425,1.245
			c1.395,0,2.13-0.87,2.13-2.01V111.735z"/>
		<path style="fill:#114B89;" d="M51.84,109.021c-0.539-0.226-1.079-0.33-1.529-0.33c-1.575,0-2.46,1.41-2.46,2.865
			c0,1.364,0.734,2.864,2.55,2.864c0.48,0,1.08-0.149,1.515-0.435l0.105,1.26c-0.585,0.27-1.26,0.315-1.771,0.315
			c-2.31,0-3.899-1.815-3.899-4.005c0-2.325,1.56-4.005,3.899-4.005c0.57,0,1.306,0.135,1.71,0.3L51.84,109.021z"/>
		<path style="fill:#114B89;" d="M59.505,115.065c-0.54,0.194-1.155,0.495-2.415,0.495c-2.715,0-3.96-1.65-3.96-4.141
			c0-2.265,1.425-3.869,3.585-3.869c2.55,0,3.375,1.859,3.375,4.319h-5.46c0,1.515,1.186,2.55,2.521,2.55
			c0.93,0,2.01-0.479,2.354-0.765V115.065z M58.59,110.82c0-1.17-0.689-2.13-1.905-2.13c-1.38,0-1.949,1.14-2.055,2.13H58.59z"/>
		<path style="fill:#114B89;" d="M61.98,107.73H63.3v1.185h0.03c0.375-0.795,1.185-1.364,1.995-1.364c0.42,0,0.63,0.045,0.93,0.104
			v1.26c-0.255-0.104-0.54-0.135-0.78-0.135c-1.26,0-2.085,1.2-2.085,3.12v3.479H61.98V107.73z"/>
		<path style="fill:#114B89;" d="M67.815,104.131h1.409v4.649h0.03c0.435-0.705,1.2-1.229,2.535-1.229c2.22,0,3.3,1.814,3.3,3.869
			c0,2.101-0.976,4.141-3.285,4.141c-1.365,0-2.234-0.69-2.609-1.261h-0.03v1.08h-1.35V104.131z M71.49,108.69
			c-1.53,0-2.266,1.455-2.266,2.88c0,1.275,0.66,2.85,2.25,2.85c1.515,0,2.146-1.694,2.115-2.895
			C73.62,110.146,73.019,108.69,71.49,108.69z"/>
		<path style="fill:#114B89;" d="M77.34,108.271c0.705-0.42,1.545-0.72,2.521-0.72c2.189,0,3.074,1.08,3.074,3.164v3.165
			c0,0.87,0.03,1.275,0.061,1.5h-1.32v-0.989h-0.029c-0.33,0.465-1.08,1.17-2.37,1.17c-1.65,0-2.806-0.721-2.806-2.386
			c0-1.92,2.101-2.52,3.556-2.52c0.555,0,0.944,0,1.5,0.03c0-1.32-0.48-1.995-1.891-1.995c-0.795,0-1.649,0.3-2.22,0.78
			L77.34,108.271z M81.525,111.735c-0.301,0-0.601-0.03-0.9-0.03c-0.765,0-2.655,0.12-2.655,1.47c0,0.811,0.78,1.245,1.426,1.245
			c1.395,0,2.13-0.87,2.13-2.01V111.735z"/>
		<path style="fill:#114B89;" d="M89.384,108.87H87.36v4.186c0,0.885,0.54,1.364,1.185,1.364c0.435,0,0.75-0.135,0.96-0.27v1.2
			c-0.315,0.09-0.75,0.21-1.2,0.21c-1.455,0-2.354-0.69-2.354-2.221v-4.47h-1.725v-1.14h1.725v-1.77l1.41-0.45v2.22h2.024V108.87z"
			/>
		<path style="fill:#114B89;" d="M92.835,106.021h-1.59v-1.59h1.59V106.021z M91.335,107.73h1.41v7.649h-1.41V107.73z"/>
		<path style="fill:#114B89;" d="M98.715,107.551c2.325,0,3.885,1.68,3.885,4.005c0,2.189-1.59,4.005-3.885,4.005
			c-2.31,0-3.899-1.815-3.899-4.005C94.815,109.23,96.375,107.551,98.715,107.551z M98.715,114.42c1.65,0,2.385-1.5,2.385-2.864
			c0-1.455-0.885-2.865-2.385-2.865c-1.515,0-2.4,1.41-2.4,2.865C96.314,112.92,97.05,114.42,98.715,114.42z"/>
		<path style="fill:#114B89;" d="M104.49,107.73h1.364v1.215h0.03c0.42-0.87,1.44-1.395,2.505-1.395c1.98,0,2.865,1.229,2.865,3.284
			v4.545h-1.41v-3.96c0-1.784-0.39-2.654-1.62-2.729c-1.604,0-2.324,1.29-2.324,3.149v3.54h-1.41V107.73z"/>
		<path style="fill:#114B89;" d="M113.085,113.88c0.555,0.36,1.35,0.54,1.755,0.54c0.646,0,1.44-0.27,1.44-1.095
			c0-1.395-3.315-1.275-3.315-3.42c0-1.59,1.186-2.354,2.7-2.354c0.66,0,1.2,0.135,1.755,0.3l-0.12,1.229
			c-0.314-0.194-1.155-0.39-1.485-0.39c-0.72,0-1.35,0.3-1.35,0.93c0,1.561,3.315,1.11,3.315,3.555c0,1.636-1.306,2.386-2.67,2.386
			c-0.721,0-1.455-0.075-2.101-0.421L113.085,113.88z"/>
	</g>
</g>
<g id="Border">
</g>
</svg>
