<?xml version="1.0" encoding="iso-8859-1"?>
<!-- Generator: Adobe Illustrator 19.1.0, SVG Export Plug-In . SVG Version: 6.00 Build 0)  -->
<svg version="1.1" id="Layer_1" xmlns="http://www.w3.org/2000/svg" xmlns:xlink="http://www.w3.org/1999/xlink" x="0px" y="0px"
	 viewBox="0 0 286.972 83.465" style="enable-background:new 0 0 286.972 83.465;" xml:space="preserve">
<g>
	<g>
		<path style="fill:#FFFFFF;" d="M0,9.906V8.385c0.845-0.818,3.926-3.393,3.926-5.057c0-0.832-0.741-1.223-1.482-1.223
			c-0.767,0-1.495,0.338-2.093,0.729L0.208,1.326c0.819-0.416,1.768-0.65,2.691-0.65c1.729,0,2.847,0.871,2.847,2.652
			c0,1.924-1.937,3.691-3.419,5.147h3.706v1.431H0z"/>
		<path style="fill:#FFFFFF;" d="M6.903,6.552l3.393-5.72h2.262v5.837h1.157v1.352h-1.157v1.886h-1.742V8.021H6.903V6.552z
			 M10.816,6.669V2.729H10.79L8.541,6.669H10.816z"/>
		<path style="fill:#FFFFFF;" d="M14.378,7.124v-1.43h3.419v1.43H14.378z"/>
		<path style="fill:#FFFFFF;" d="M19.149,0.155h1.742v3.966h0.026c0.442-0.65,1.196-1.066,2.106-1.066
			c1.586,0,2.275,1.118,2.275,2.626v4.226h-1.742V6.331c0-0.819-0.013-1.924-1.131-1.924c-1.261,0-1.534,1.364-1.534,2.223v3.276
			h-1.742V0.155z"/>
		<path style="fill:#FFFFFF;" d="M30.16,3.055c1.989,0,3.51,1.339,3.51,3.549c0,1.925-1.287,3.459-3.51,3.459
			c-2.21,0-3.498-1.534-3.498-3.459C26.663,4.394,28.184,3.055,30.16,3.055z M30.16,8.71c1.339,0,1.69-1.196,1.69-2.314
			c0-1.026-0.546-1.988-1.69-1.988c-1.131,0-1.677,0.987-1.677,1.988C28.483,7.501,28.834,8.71,30.16,8.71z"/>
		<path style="fill:#FFFFFF;" d="M41.184,9.906h-1.651v-0.91h-0.026c-0.533,0.65-1.287,1.066-2.197,1.066
			c-1.586,0-2.275-1.118-2.275-2.627V3.211h1.742v3.575c0,0.818,0.013,1.924,1.131,1.924c1.261,0,1.534-1.365,1.534-2.223V3.211
			h1.742V9.906z"/>
		<path style="fill:#FFFFFF;" d="M43.017,3.211h1.547v1.521h0.026c0.078-0.624,0.793-1.677,1.833-1.677c0.169,0,0.351,0,0.533,0.052
			v1.756c-0.156-0.092-0.468-0.144-0.78-0.144c-1.417,0-1.417,1.769-1.417,2.73v2.457h-1.742V3.211z"/>
		<path style="fill:#FFFFFF;" d="M51.805,0.832h3.172c1.17,0,2.925,0.338,2.925,2.327c0,1.079-0.728,1.833-1.807,2.027v0.026
			c1.235,0.117,2.08,0.949,2.08,2.067c0,2.288-2.054,2.626-3.198,2.626h-3.172V0.832z M53.625,4.498h0.741
			c0.767,0,1.716-0.169,1.716-1.105c0-1.053-0.923-1.131-1.755-1.131h-0.702V4.498z M53.625,8.476h0.858
			c0.845,0,1.872-0.208,1.872-1.261c0-1.183-0.962-1.365-1.872-1.365h-0.858V8.476z"/>
		<path style="fill:#FFFFFF;" d="M59.591,0.832h1.963c1.95,0,4.277-0.065,4.277,2.457c0,1.065-0.715,1.95-1.872,2.105v0.026
			c0.494,0.039,0.78,0.533,0.962,0.936l1.456,3.55H64.35l-1.092-2.834c-0.26-0.677-0.494-0.937-1.261-0.937h-0.585v3.771h-1.82
			V0.832z M61.412,4.706h0.598c0.897,0,1.924-0.13,1.924-1.262c0-1.092-1.014-1.183-1.924-1.183h-0.598V4.706z"/>
		<path style="fill:#FFFFFF;" d="M67.69,0.832h5.356v1.43H69.51v2.236h3.237v1.43H69.51v2.548h3.562v1.431H67.69V0.832z"/>
		<path style="fill:#FFFFFF;" d="M78.922,0.676c2.847,0,4.446,1.924,4.446,4.667s-1.573,4.72-4.446,4.72
			c-2.912,0-4.446-1.938-4.446-4.72S76.036,0.676,78.922,0.676z M78.922,8.632c1.859,0,2.548-1.651,2.548-3.289
			c0-1.599-0.741-3.237-2.548-3.237s-2.548,1.639-2.548,3.237C76.375,6.98,77.063,8.632,78.922,8.632z"/>
		<path style="fill:#FFFFFF;" d="M88.529,0.324h1.742v1.664h-1.742V0.324z M88.529,3.211h1.742v6.695h-1.742V3.211z"/>
		<path style="fill:#FFFFFF;" d="M96.082,4.615c-0.533-0.183-0.923-0.286-1.56-0.286c-0.468,0-1.027,0.169-1.027,0.741
			c0,1.065,3.029,0.39,3.029,2.808c0,1.561-1.391,2.185-2.808,2.185c-0.663,0-1.339-0.117-1.976-0.286l0.104-1.431
			c0.546,0.273,1.118,0.442,1.716,0.442c0.442,0,1.144-0.169,1.144-0.819c0-1.312-3.029-0.416-3.029-2.834
			c0-1.443,1.261-2.08,2.626-2.08c0.819,0,1.352,0.13,1.898,0.247L96.082,4.615z"/>
		<path style="fill:#FFFFFF;" d="M102.126,4.484h-1.287V3.211h1.287V2.274c0-1.339,0.754-2.274,2.132-2.274
			c0.442,0,0.936,0.064,1.274,0.143l-0.143,1.443c-0.156-0.091-0.377-0.234-0.754-0.234c-0.585,0-0.767,0.507-0.767,1.027v0.832
			h1.521v1.273h-1.521v5.422h-1.742V4.484z"/>
		<path style="fill:#FFFFFF;" d="M109.615,3.055c1.989,0,3.51,1.339,3.51,3.549c0,1.925-1.287,3.459-3.51,3.459
			c-2.21,0-3.497-1.534-3.497-3.459C106.118,4.394,107.639,3.055,109.615,3.055z M109.615,8.71c1.339,0,1.69-1.196,1.69-2.314
			c0-1.026-0.546-1.988-1.69-1.988c-1.131,0-1.677,0.987-1.677,1.988C107.938,7.501,108.289,8.71,109.615,8.71z"/>
		<path style="fill:#FFFFFF;" d="M114.528,3.211h1.547v1.521h0.026c0.078-0.624,0.793-1.677,1.833-1.677
			c0.169,0,0.351,0,0.533,0.052v1.756c-0.156-0.092-0.468-0.144-0.78-0.144c-1.417,0-1.417,1.769-1.417,2.73v2.457h-1.742V3.211z"/>
		<path style="fill:#FFFFFF;" d="M123.459,3.562c0.676-0.312,1.586-0.507,2.327-0.507c2.042,0,2.886,0.845,2.886,2.821v0.858
			c0,0.676,0.013,1.183,0.026,1.677c0.013,0.507,0.039,0.975,0.078,1.495h-1.534c-0.065-0.352-0.065-0.793-0.078-1.001h-0.026
			c-0.403,0.741-1.274,1.157-2.067,1.157c-1.183,0-2.34-0.716-2.34-1.989c0-1.001,0.481-1.586,1.145-1.911
			c0.663-0.325,1.521-0.391,2.249-0.391h0.962c0-1.079-0.481-1.442-1.508-1.442c-0.741,0-1.482,0.286-2.067,0.728L123.459,3.562z
			 M125.5,8.788c0.533,0,0.949-0.234,1.222-0.598c0.286-0.378,0.364-0.858,0.364-1.379h-0.754c-0.78,0-1.938,0.131-1.938,1.157
			C124.395,8.541,124.876,8.788,125.5,8.788z"/>
		<path style="fill:#FFFFFF;" d="M134.847,9.152h-0.026c-0.52,0.649-1.235,0.91-2.054,0.91c-2.054,0-2.808-1.69-2.808-3.523
			c0-1.847,0.754-3.484,2.808-3.484c0.871,0,1.482,0.299,2.002,0.937h0.026V0.155h1.742v9.751h-1.69V9.152z M133.249,8.71
			c1.157,0,1.534-1.222,1.534-2.171c0-0.937-0.442-2.132-1.56-2.132c-1.131,0-1.443,1.234-1.443,2.132
			C131.779,7.462,132.104,8.71,133.249,8.71z"/>
		<path style="fill:#FFFFFF;" d="M144.48,9.906h-1.651v-0.91h-0.026c-0.533,0.65-1.287,1.066-2.197,1.066
			c-1.586,0-2.275-1.118-2.275-2.627V3.211h1.742v3.575c0,0.818,0.013,1.924,1.131,1.924c1.261,0,1.534-1.365,1.534-2.223V3.211
			h1.742V9.906z"/>
		<path style="fill:#FFFFFF;" d="M146.313,0.155h1.742v9.751h-1.742V0.155z"/>
		<path style="fill:#FFFFFF;" d="M150.46,4.484h-1.287V3.211h1.287V1.872l1.742-0.56v1.898h1.547v1.273h-1.547v3.12
			c0,0.572,0.156,1.105,0.819,1.105c0.312,0,0.611-0.065,0.793-0.182l0.052,1.378c-0.364,0.104-0.767,0.156-1.287,0.156
			c-1.365,0-2.119-0.846-2.119-2.172V4.484z"/>
		<path style="fill:#FFFFFF;" d="M158.559,3.211h1.664V4.16h0.026c0.39-0.65,1.053-1.105,2.08-1.105
			c2.054,0,2.808,1.638,2.808,3.484c0,1.833-0.754,3.523-2.847,3.523c-0.741,0-1.352-0.183-1.963-0.924h-0.026v3.497h-1.742V3.211z
			 M160.314,6.539c0,0.949,0.377,2.171,1.534,2.171c1.144,0,1.469-1.248,1.469-2.171c0-0.897-0.312-2.132-1.443-2.132
			C160.756,4.407,160.314,5.603,160.314,6.539z"/>
		<path style="fill:#FFFFFF;" d="M166.8,3.562c0.676-0.312,1.586-0.507,2.327-0.507c2.041,0,2.886,0.845,2.886,2.821v0.858
			c0,0.676,0.013,1.183,0.026,1.677c0.013,0.507,0.039,0.975,0.078,1.495h-1.534c-0.065-0.352-0.065-0.793-0.078-1.001h-0.026
			c-0.403,0.741-1.274,1.157-2.067,1.157c-1.183,0-2.34-0.716-2.34-1.989c0-1.001,0.481-1.586,1.144-1.911
			c0.663-0.325,1.521-0.391,2.25-0.391h0.962c0-1.079-0.481-1.442-1.508-1.442c-0.741,0-1.482,0.286-2.067,0.728L166.8,3.562z
			 M168.842,8.788c0.533,0,0.949-0.234,1.222-0.598c0.286-0.378,0.364-0.858,0.364-1.379h-0.754c-0.78,0-1.937,0.131-1.937,1.157
			C167.737,8.541,168.218,8.788,168.842,8.788z"/>
		<path style="fill:#FFFFFF;" d="M174.302,4.484h-1.287V3.211h1.287V1.872l1.742-0.56v1.898h1.547v1.273h-1.547v3.12
			c0,0.572,0.156,1.105,0.819,1.105c0.312,0,0.611-0.065,0.793-0.182l0.052,1.378c-0.364,0.104-0.767,0.156-1.287,0.156
			c-1.365,0-2.119-0.846-2.119-2.172V4.484z"/>
		<path style="fill:#FFFFFF;" d="M178.826,0.324h1.742v1.664h-1.742V0.324z M178.826,3.211h1.742v6.695h-1.742V3.211z"/>
		<path style="fill:#FFFFFF;" d="M187.77,9.529c-0.637,0.351-1.365,0.533-2.301,0.533c-2.21,0-3.498-1.274-3.498-3.472
			c0-1.937,1.027-3.536,3.107-3.536c2.483,0,3.185,1.703,3.185,4.043h-4.628c0.078,1.079,0.832,1.69,1.911,1.69
			c0.845,0,1.573-0.312,2.223-0.676V9.529z M186.6,5.902c-0.052-0.846-0.442-1.573-1.417-1.573s-1.469,0.676-1.547,1.573H186.6z"/>
		<path style="fill:#FFFFFF;" d="M189.628,3.211h1.651v0.91h0.026c0.546-0.768,1.287-1.066,2.197-1.066
			c1.586,0,2.275,1.118,2.275,2.626v4.226h-1.742V6.331c0-0.819-0.013-1.924-1.131-1.924c-1.261,0-1.534,1.364-1.534,2.223v3.276
			h-1.742V3.211z"/>
		<path style="fill:#FFFFFF;" d="M198.144,4.484h-1.287V3.211h1.287V1.872l1.742-0.56v1.898h1.547v1.273h-1.547v3.12
			c0,0.572,0.156,1.105,0.819,1.105c0.312,0,0.611-0.065,0.793-0.182l0.052,1.378c-0.364,0.104-0.767,0.156-1.287,0.156
			c-1.365,0-2.119-0.846-2.119-2.172V4.484z"/>
		<path style="fill:#FFFFFF;" d="M206.606,4.615c-0.533-0.183-0.923-0.286-1.56-0.286c-0.468,0-1.027,0.169-1.027,0.741
			c0,1.065,3.029,0.39,3.029,2.808c0,1.561-1.391,2.185-2.808,2.185c-0.663,0-1.339-0.117-1.976-0.286l0.104-1.431
			c0.546,0.273,1.118,0.442,1.716,0.442c0.442,0,1.144-0.169,1.144-0.819c0-1.312-3.029-0.416-3.029-2.834
			c0-1.443,1.261-2.08,2.626-2.08c0.819,0,1.352,0.13,1.898,0.247L206.606,4.615z"/>
		<path style="fill:#FFFFFF;" d="M211.26,3.211h1.846l1.482,4.953h0.026l1.352-4.953h2.028l1.456,4.953h0.026l1.391-4.953h1.664
			l-2.054,6.695h-2.054l-1.456-5.109h-0.026l-1.43,5.109h-1.989L211.26,3.211z"/>
		<path style="fill:#FFFFFF;" d="M223.61,0.324h1.742v1.664h-1.742V0.324z M223.61,3.211h1.742v6.695h-1.742V3.211z"/>
		<path style="fill:#FFFFFF;" d="M227.757,4.484h-1.287V3.211h1.287V1.872l1.742-0.56v1.898h1.547v1.273h-1.547v3.12
			c0,0.572,0.156,1.105,0.819,1.105c0.312,0,0.611-0.065,0.793-0.182l0.052,1.378c-0.364,0.104-0.767,0.156-1.287,0.156
			c-1.365,0-2.119-0.846-2.119-2.172V4.484z"/>
		<path style="fill:#FFFFFF;" d="M232.242,0.155h1.742v3.966h0.026c0.442-0.65,1.196-1.066,2.106-1.066
			c1.586,0,2.275,1.118,2.275,2.626v4.226h-1.742V6.331c0-0.819-0.013-1.924-1.131-1.924c-1.261,0-1.534,1.364-1.534,2.223v3.276
			h-1.742V0.155z"/>
		<path style="fill:#FFFFFF;" d="M244.098,3.562c0.676-0.312,1.586-0.507,2.327-0.507c2.042,0,2.886,0.845,2.886,2.821v0.858
			c0,0.676,0.013,1.183,0.026,1.677c0.013,0.507,0.039,0.975,0.078,1.495h-1.534c-0.065-0.352-0.065-0.793-0.078-1.001h-0.026
			c-0.403,0.741-1.274,1.157-2.067,1.157c-1.183,0-2.34-0.716-2.34-1.989c0-1.001,0.481-1.586,1.145-1.911
			c0.663-0.325,1.521-0.391,2.249-0.391h0.962c0-1.079-0.481-1.442-1.508-1.442c-0.741,0-1.482,0.286-2.067,0.728L244.098,3.562z
			 M246.139,8.788c0.533,0,0.949-0.234,1.222-0.598c0.286-0.378,0.364-0.858,0.364-1.379h-0.754c-0.78,0-1.938,0.131-1.938,1.157
			C245.034,8.541,245.515,8.788,246.139,8.788z"/>
		<path style="fill:#FFFFFF;" d="M255.005,4.615c-0.533-0.183-0.923-0.286-1.56-0.286c-0.468,0-1.027,0.169-1.027,0.741
			c0,1.065,3.029,0.39,3.029,2.808c0,1.561-1.391,2.185-2.808,2.185c-0.663,0-1.339-0.117-1.976-0.286l0.104-1.431
			c0.546,0.273,1.118,0.442,1.716,0.442c0.442,0,1.144-0.169,1.144-0.819c0-1.312-3.029-0.416-3.029-2.834
			c0-1.443,1.261-2.08,2.626-2.08c0.819,0,1.352,0.13,1.898,0.247L255.005,4.615z"/>
		<path style="fill:#FFFFFF;" d="M257.371,4.484h-1.287V3.211h1.287V1.872l1.742-0.56v1.898h1.547v1.273h-1.547v3.12
			c0,0.572,0.156,1.105,0.819,1.105c0.312,0,0.611-0.065,0.793-0.182l0.052,1.378c-0.364,0.104-0.767,0.156-1.287,0.156
			c-1.365,0-2.119-0.846-2.119-2.172V4.484z"/>
		<path style="fill:#FFFFFF;" d="M261.856,0.155h1.742v3.966h0.026c0.442-0.65,1.196-1.066,2.106-1.066
			c1.586,0,2.275,1.118,2.275,2.626v4.226h-1.742V6.331c0-0.819-0.013-1.924-1.131-1.924c-1.261,0-1.534,1.364-1.534,2.223v3.276
			h-1.742V0.155z"/>
		<path style="fill:#FFFFFF;" d="M269.773,3.211h1.625v0.936h0.026c0.546-0.818,1.339-1.092,1.989-1.092
			c0.936,0,1.599,0.352,1.976,1.184c0.403-0.807,1.274-1.184,2.093-1.184c1.651,0,2.119,1.131,2.119,2.626v4.226h-1.742V5.915
			c0-0.624,0-1.508-1.001-1.508c-1.157,0-1.3,1.378-1.3,2.249v3.25h-1.742V5.915c0-0.624,0-1.508-1.001-1.508
			c-1.157,0-1.3,1.378-1.3,2.249v3.25h-1.742V3.211z"/>
		<path style="fill:#FFFFFF;" d="M281.655,3.562c0.676-0.312,1.586-0.507,2.327-0.507c2.041,0,2.886,0.845,2.886,2.821v0.858
			c0,0.676,0.013,1.183,0.026,1.677c0.013,0.507,0.039,0.975,0.078,1.495h-1.534c-0.065-0.352-0.065-0.793-0.078-1.001h-0.026
			c-0.403,0.741-1.274,1.157-2.067,1.157c-1.183,0-2.34-0.716-2.34-1.989c0-1.001,0.481-1.586,1.144-1.911
			c0.663-0.325,1.521-0.391,2.25-0.391h0.962c0-1.079-0.481-1.442-1.508-1.442c-0.741,0-1.482,0.286-2.067,0.728L281.655,3.562z
			 M283.696,8.788c0.533,0,0.949-0.234,1.222-0.598c0.286-0.378,0.364-0.858,0.364-1.379h-0.754c-0.78,0-1.937,0.131-1.937,1.157
			C282.591,8.541,283.072,8.788,283.696,8.788z"/>
		<path style="fill:#FFFFFF;" d="M26.865,25.906h-1.651v-0.91h-0.026c-0.533,0.65-1.287,1.066-2.197,1.066
			c-1.586,0-2.275-1.118-2.275-2.627v-4.225h1.742v3.575c0,0.818,0.013,1.924,1.131,1.924c1.261,0,1.534-1.365,1.534-2.223v-3.276
			h1.742V25.906z"/>
		<path style="fill:#FFFFFF;" d="M28.658,19.211h1.651v0.91h0.026c0.546-0.768,1.287-1.066,2.197-1.066
			c1.586,0,2.275,1.118,2.275,2.626v4.226h-1.742v-3.575c0-0.819-0.013-1.924-1.131-1.924c-1.261,0-1.534,1.364-1.534,2.223v3.276
			h-1.742V19.211z"/>
		<path style="fill:#FFFFFF;" d="M40.943,20.654c-0.312-0.144-0.65-0.247-1.183-0.247c-1.079,0-1.768,0.857-1.768,2.119
			c0,1.234,0.585,2.184,1.807,2.184c0.494,0,1.04-0.182,1.339-0.312l0.078,1.442c-0.507,0.156-1.027,0.222-1.742,0.222
			c-2.197,0-3.302-1.495-3.302-3.536c0-1.938,1.144-3.472,3.237-3.472c0.702,0,1.209,0.078,1.69,0.221L40.943,20.654z"/>
		<path style="fill:#FFFFFF;" d="M45.441,19.055c1.989,0,3.51,1.339,3.51,3.549c0,1.925-1.287,3.459-3.51,3.459
			c-2.21,0-3.498-1.534-3.498-3.459C41.944,20.394,43.465,19.055,45.441,19.055z M45.441,24.71c1.339,0,1.69-1.196,1.69-2.314
			c0-1.026-0.546-1.988-1.69-1.988c-1.131,0-1.677,0.987-1.677,1.988C43.764,23.501,44.115,24.71,45.441,24.71z"/>
		<path style="fill:#FFFFFF;" d="M50.316,19.211h1.651v0.91h0.026c0.546-0.768,1.287-1.066,2.197-1.066
			c1.586,0,2.275,1.118,2.275,2.626v4.226h-1.742v-3.575c0-0.819-0.013-1.924-1.131-1.924c-1.261,0-1.534,1.364-1.534,2.223v3.276
			h-1.742V19.211z"/>
		<path style="fill:#FFFFFF;" d="M58.831,20.484h-1.287v-1.273h1.287v-1.339l1.742-0.56v1.898h1.547v1.273h-1.547v3.12
			c0,0.572,0.156,1.105,0.819,1.105c0.312,0,0.611-0.065,0.793-0.182l0.052,1.378c-0.364,0.104-0.767,0.156-1.287,0.156
			c-1.365,0-2.119-0.846-2.119-2.172V20.484z"/>
		<path style="fill:#FFFFFF;" d="M63.355,19.211h1.547v1.521h0.026c0.078-0.624,0.793-1.677,1.833-1.677
			c0.169,0,0.351,0,0.533,0.052v1.756c-0.156-0.092-0.468-0.144-0.78-0.144c-1.417,0-1.417,1.769-1.417,2.73v2.457h-1.742V19.211z"
			/>
		<path style="fill:#FFFFFF;" d="M71.208,19.055c1.989,0,3.51,1.339,3.51,3.549c0,1.925-1.287,3.459-3.51,3.459
			c-2.21,0-3.497-1.534-3.497-3.459C67.71,20.394,69.231,19.055,71.208,19.055z M71.208,24.71c1.339,0,1.69-1.196,1.69-2.314
			c0-1.026-0.546-1.988-1.69-1.988c-1.131,0-1.677,0.987-1.677,1.988C69.53,23.501,69.881,24.71,71.208,24.71z"/>
		<path style="fill:#FFFFFF;" d="M76.121,16.155h1.742v9.751h-1.742V16.155z"/>
		<path style="fill:#FFFFFF;" d="M79.735,16.155h1.742v9.751h-1.742V16.155z"/>
		<path style="fill:#FFFFFF;" d="M88.679,25.529c-0.637,0.351-1.365,0.533-2.301,0.533c-2.21,0-3.498-1.274-3.498-3.472
			c0-1.937,1.027-3.536,3.107-3.536c2.483,0,3.185,1.703,3.185,4.043h-4.628c0.078,1.079,0.832,1.69,1.911,1.69
			c0.845,0,1.573-0.312,2.223-0.676V25.529z M87.509,21.902c-0.052-0.846-0.442-1.573-1.417-1.573s-1.469,0.676-1.547,1.573H87.509z
			"/>
		<path style="fill:#FFFFFF;" d="M94.997,25.152h-0.026c-0.52,0.649-1.235,0.91-2.054,0.91c-2.054,0-2.808-1.69-2.808-3.523
			c0-1.847,0.754-3.484,2.808-3.484c0.871,0,1.482,0.299,2.002,0.937h0.026v-3.836h1.742v9.751h-1.69V25.152z M93.398,24.71
			c1.157,0,1.534-1.222,1.534-2.171c0-0.937-0.442-2.132-1.56-2.132c-1.131,0-1.443,1.234-1.443,2.132
			C91.929,23.462,92.254,24.71,93.398,24.71z"/>
		<path style="fill:#FFFFFF;" d="M105.163,19.055c1.989,0,3.51,1.339,3.51,3.549c0,1.925-1.287,3.459-3.51,3.459
			c-2.21,0-3.497-1.534-3.497-3.459C101.666,20.394,103.187,19.055,105.163,19.055z M105.163,24.71c1.339,0,1.69-1.196,1.69-2.314
			c0-1.026-0.546-1.988-1.69-1.988c-1.131,0-1.677,0.987-1.677,1.988C103.485,23.501,103.836,24.71,105.163,24.71z"/>
		<path style="fill:#FFFFFF;" d="M110.037,19.211h1.651v0.91h0.026c0.546-0.768,1.287-1.066,2.197-1.066
			c1.586,0,2.275,1.118,2.275,2.626v4.226h-1.742v-3.575c0-0.819-0.013-1.924-1.131-1.924c-1.261,0-1.534,1.364-1.534,2.223v3.276
			h-1.742V19.211z"/>
		<path style="fill:#FFFFFF;" d="M121.893,19.562c0.676-0.312,1.586-0.507,2.327-0.507c2.042,0,2.886,0.845,2.886,2.821v0.858
			c0,0.676,0.013,1.183,0.026,1.677c0.013,0.507,0.039,0.975,0.078,1.495h-1.534c-0.065-0.352-0.065-0.793-0.078-1.001h-0.026
			c-0.403,0.741-1.274,1.157-2.067,1.157c-1.183,0-2.34-0.716-2.34-1.989c0-1.001,0.481-1.586,1.145-1.911
			c0.663-0.325,1.521-0.391,2.249-0.391h0.962c0-1.079-0.481-1.442-1.508-1.442c-0.741,0-1.482,0.286-2.067,0.728L121.893,19.562z
			 M123.934,24.788c0.533,0,0.949-0.234,1.222-0.598c0.286-0.378,0.364-0.858,0.364-1.379h-0.754c-0.78,0-1.938,0.131-1.938,1.157
			C122.829,24.541,123.31,24.788,123.934,24.788z"/>
		<path style="fill:#FFFFFF;" d="M128.822,19.211h1.651v0.91h0.026c0.546-0.768,1.287-1.066,2.197-1.066
			c1.586,0,2.275,1.118,2.275,2.626v4.226h-1.742v-3.575c0-0.819-0.013-1.924-1.131-1.924c-1.261,0-1.534,1.364-1.534,2.223v3.276
			h-1.742V19.211z"/>
		<path style="fill:#FFFFFF;" d="M140.378,16.832h1.82v9.074h-1.82V16.832z"/>
		<path style="fill:#FFFFFF;" d="M150.752,25.776c-0.663,0.155-1.378,0.286-2.067,0.286c-2.938,0-4.979-1.47-4.979-4.538
			c0-3.106,1.898-4.849,4.979-4.849c0.598,0,1.391,0.117,2.054,0.377l-0.13,1.534c-0.689-0.391-1.313-0.481-1.963-0.481
			c-1.872,0-3.042,1.431-3.042,3.289c0,1.847,1.144,3.237,3.081,3.237c0.715,0,1.56-0.156,1.989-0.377L150.752,25.776z"/>
		<path style="fill:#FFFFFF;" d="M156.966,18.496c-0.572-0.247-1.209-0.391-1.846-0.391c-0.624,0-1.43,0.273-1.43,1.262
			c0,1.572,3.979,0.909,3.979,3.952c0,1.988-1.573,2.743-3.406,2.743c-0.988,0-1.43-0.131-2.327-0.352l0.169-1.638
			c0.624,0.338,1.339,0.559,2.054,0.559c0.689,0,1.612-0.351,1.612-1.17c0-1.729-3.978-1.014-3.978-4.018
			c0-2.027,1.573-2.769,3.172-2.769c0.78,0,1.508,0.104,2.171,0.325L156.966,18.496z"/>
		<path style="fill:#FFFFFF;" d="M165.845,19.055c1.989,0,3.51,1.339,3.51,3.549c0,1.925-1.287,3.459-3.51,3.459
			c-2.21,0-3.497-1.534-3.497-3.459C162.348,20.394,163.869,19.055,165.845,19.055z M165.845,24.71c1.339,0,1.69-1.196,1.69-2.314
			c0-1.026-0.546-1.988-1.69-1.988c-1.131,0-1.677,0.987-1.677,1.988C164.168,23.501,164.519,24.71,165.845,24.71z"/>
		<path style="fill:#FFFFFF;" d="M170.759,19.211h1.547v1.521h0.026c0.078-0.624,0.793-1.677,1.833-1.677
			c0.169,0,0.351,0,0.533,0.052v1.756c-0.156-0.092-0.468-0.144-0.78-0.144c-1.417,0-1.417,1.769-1.417,2.73v2.457h-1.742V19.211z"
			/>
		<path style="fill:#FFFFFF;" d="M178.637,19.211h1.846l1.482,4.953h0.026l1.352-4.953h2.028l1.456,4.953h0.026l1.391-4.953h1.664
			l-2.054,6.695H185.8l-1.456-5.109h-0.026l-1.43,5.109h-1.989L178.637,19.211z"/>
		<path style="fill:#FFFFFF;" d="M190.948,16.155h1.742v3.966h0.026c0.442-0.65,1.196-1.066,2.106-1.066
			c1.586,0,2.275,1.118,2.275,2.626v4.226h-1.742v-3.575c0-0.819-0.013-1.924-1.131-1.924c-1.261,0-1.534,1.364-1.534,2.223v3.276
			h-1.742V16.155z"/>
		<path style="fill:#FFFFFF;" d="M201.959,19.055c1.989,0,3.51,1.339,3.51,3.549c0,1.925-1.287,3.459-3.51,3.459
			c-2.21,0-3.498-1.534-3.498-3.459C198.461,20.394,199.983,19.055,201.959,19.055z M201.959,24.71c1.339,0,1.69-1.196,1.69-2.314
			c0-1.026-0.546-1.988-1.69-1.988c-1.131,0-1.677,0.987-1.677,1.988C200.282,23.501,200.633,24.71,201.959,24.71z"/>
		<path style="fill:#FFFFFF;" d="M210.812,20.615c-0.533-0.183-0.923-0.286-1.56-0.286c-0.468,0-1.027,0.169-1.027,0.741
			c0,1.065,3.029,0.39,3.029,2.808c0,1.561-1.391,2.185-2.808,2.185c-0.663,0-1.339-0.117-1.976-0.286l0.104-1.431
			c0.546,0.273,1.118,0.442,1.716,0.442c0.442,0,1.144-0.169,1.144-0.819c0-1.312-3.029-0.416-3.029-2.834
			c0-1.443,1.261-2.08,2.626-2.08c0.819,0,1.352,0.13,1.898,0.247L210.812,20.615z"/>
		<path style="fill:#FFFFFF;" d="M217.975,25.529c-0.637,0.351-1.365,0.533-2.301,0.533c-2.21,0-3.498-1.274-3.498-3.472
			c0-1.937,1.027-3.536,3.107-3.536c2.483,0,3.185,1.703,3.185,4.043h-4.628c0.078,1.079,0.832,1.69,1.911,1.69
			c0.845,0,1.573-0.312,2.223-0.676V25.529z M216.805,21.902c-0.052-0.846-0.442-1.573-1.417-1.573s-1.469,0.676-1.547,1.573
			H216.805z"/>
		<path style="fill:#FFFFFF;" d="M227.907,25.152h-0.026c-0.52,0.649-1.235,0.91-2.054,0.91c-2.054,0-2.809-1.69-2.809-3.523
			c0-1.847,0.754-3.484,2.809-3.484c0.871,0,1.482,0.299,2.002,0.937h0.026v-3.836h1.742v9.751h-1.69V25.152z M226.308,24.71
			c1.157,0,1.534-1.222,1.534-2.171c0-0.937-0.442-2.132-1.56-2.132c-1.131,0-1.443,1.234-1.443,2.132
			C224.838,23.462,225.164,24.71,226.308,24.71z"/>
		<path style="fill:#FFFFFF;" d="M231.429,16.324h1.742v1.664h-1.742V16.324z M231.429,19.211h1.742v6.695h-1.742V19.211z"/>
		<path style="fill:#FFFFFF;" d="M238.982,20.615c-0.533-0.183-0.923-0.286-1.56-0.286c-0.468,0-1.027,0.169-1.027,0.741
			c0,1.065,3.029,0.39,3.029,2.808c0,1.561-1.391,2.185-2.808,2.185c-0.663,0-1.339-0.117-1.976-0.286l0.104-1.431
			c0.546,0.273,1.118,0.442,1.716,0.442c0.442,0,1.144-0.169,1.144-0.819c0-1.312-3.029-0.416-3.029-2.834
			c0-1.443,1.261-2.08,2.626-2.08c0.819,0,1.352,0.13,1.898,0.247L238.982,20.615z"/>
		<path style="fill:#FFFFFF;" d="M246.145,25.529c-0.637,0.351-1.365,0.533-2.301,0.533c-2.21,0-3.497-1.274-3.497-3.472
			c0-1.937,1.027-3.536,3.107-3.536c2.483,0,3.185,1.703,3.185,4.043h-4.628c0.078,1.079,0.832,1.69,1.911,1.69
			c0.845,0,1.573-0.312,2.223-0.676V25.529z M244.975,21.902c-0.052-0.846-0.442-1.573-1.417-1.573s-1.469,0.676-1.547,1.573
			H244.975z"/>
		<path style="fill:#FFFFFF;" d="M248.303,19.562c0.676-0.312,1.586-0.507,2.327-0.507c2.042,0,2.886,0.845,2.886,2.821v0.858
			c0,0.676,0.013,1.183,0.026,1.677c0.013,0.507,0.039,0.975,0.078,1.495h-1.534c-0.065-0.352-0.065-0.793-0.078-1.001h-0.026
			c-0.403,0.741-1.274,1.157-2.067,1.157c-1.183,0-2.34-0.716-2.34-1.989c0-1.001,0.481-1.586,1.145-1.911
			c0.663-0.325,1.521-0.391,2.249-0.391h0.962c0-1.079-0.481-1.442-1.508-1.442c-0.741,0-1.482,0.286-2.067,0.728L248.303,19.562z
			 M250.344,24.788c0.533,0,0.949-0.234,1.222-0.598c0.286-0.378,0.364-0.858,0.364-1.379h-0.754c-0.78,0-1.938,0.131-1.938,1.157
			C249.239,24.541,249.72,24.788,250.344,24.788z"/>
		<path style="fill:#FFFFFF;" d="M259.21,20.615c-0.533-0.183-0.923-0.286-1.56-0.286c-0.468,0-1.027,0.169-1.027,0.741
			c0,1.065,3.029,0.39,3.029,2.808c0,1.561-1.391,2.185-2.808,2.185c-0.663,0-1.339-0.117-1.976-0.286l0.104-1.431
			c0.546,0.273,1.118,0.442,1.716,0.442c0.442,0,1.144-0.169,1.144-0.819c0-1.312-3.029-0.416-3.029-2.834
			c0-1.443,1.261-2.08,2.626-2.08c0.819,0,1.352,0.13,1.898,0.247L259.21,20.615z"/>
		<path style="fill:#FFFFFF;" d="M266.373,25.529c-0.637,0.351-1.365,0.533-2.301,0.533c-2.21,0-3.498-1.274-3.498-3.472
			c0-1.937,1.027-3.536,3.107-3.536c2.483,0,3.185,1.703,3.185,4.043h-4.628c0.078,1.079,0.832,1.69,1.911,1.69
			c0.845,0,1.573-0.312,2.223-0.676V25.529z M265.203,21.902c-0.052-0.846-0.442-1.573-1.417-1.573s-1.469,0.676-1.547,1.573
			H265.203z"/>
		<path style="fill:#FFFFFF;" d="M33.585,36.615c-0.533-0.183-0.923-0.286-1.56-0.286c-0.468,0-1.027,0.169-1.027,0.741
			c0,1.065,3.029,0.39,3.029,2.808c0,1.561-1.391,2.185-2.808,2.185c-0.663,0-1.339-0.117-1.976-0.286l0.104-1.431
			c0.546,0.273,1.118,0.442,1.716,0.442c0.442,0,1.144-0.169,1.144-0.819c0-1.312-3.029-0.416-3.029-2.834
			c0-1.443,1.261-2.08,2.626-2.08c0.819,0,1.352,0.13,1.898,0.247L33.585,36.615z"/>
		<path style="fill:#FFFFFF;" d="M40.748,41.529c-0.637,0.351-1.365,0.533-2.301,0.533c-2.21,0-3.498-1.274-3.498-3.472
			c0-1.937,1.027-3.536,3.107-3.536c2.483,0,3.185,1.703,3.185,4.043h-4.628c0.078,1.079,0.832,1.69,1.911,1.69
			c0.845,0,1.573-0.312,2.223-0.676V41.529z M39.578,37.902c-0.052-0.846-0.442-1.573-1.417-1.573s-1.469,0.676-1.547,1.573H39.578z
			"/>
		<path style="fill:#FFFFFF;" d="M41.866,35.211h1.872l1.664,4.875h0.026l1.612-4.875h1.742l-2.47,6.695h-1.963L41.866,35.211z"/>
		<path style="fill:#FFFFFF;" d="M55.204,41.529c-0.637,0.351-1.365,0.533-2.301,0.533c-2.21,0-3.498-1.274-3.498-3.472
			c0-1.937,1.027-3.536,3.107-3.536c2.483,0,3.185,1.703,3.185,4.043H51.07c0.078,1.079,0.832,1.69,1.911,1.69
			c0.845,0,1.573-0.312,2.223-0.676V41.529z M54.034,37.902c-0.052-0.846-0.442-1.573-1.417-1.573s-1.469,0.676-1.547,1.573H54.034z
			"/>
		<path style="fill:#FFFFFF;" d="M57.102,35.211h1.547v1.521h0.026c0.078-0.624,0.793-1.677,1.833-1.677
			c0.169,0,0.351,0,0.533,0.052v1.756c-0.156-0.092-0.468-0.144-0.78-0.144c-1.417,0-1.417,1.769-1.417,2.73v2.457h-1.742V35.211z"
			/>
		<path style="fill:#FFFFFF;" d="M62.159,32.324h1.742v1.664h-1.742V32.324z M62.159,35.211h1.742v6.695h-1.742V35.211z"/>
		<path style="fill:#FFFFFF;" d="M66.306,36.484h-1.287v-1.273h1.287v-1.339l1.742-0.56v1.898h1.547v1.273h-1.547v3.12
			c0,0.572,0.156,1.105,0.819,1.105c0.312,0,0.611-0.065,0.793-0.182l0.052,1.378c-0.364,0.104-0.767,0.156-1.287,0.156
			c-1.365,0-2.119-0.846-2.119-2.172V36.484z"/>
		<path style="fill:#FFFFFF;" d="M73.573,40.099h0.026l1.612-4.888h1.768l-2.509,6.644c-0.559,1.481-0.962,2.938-2.782,2.938
			c-0.416,0-0.832-0.064-1.235-0.182l0.117-1.287c0.221,0.078,0.468,0.117,0.897,0.117c0.702,0,1.131-0.481,1.131-1.196
			l-2.561-7.033h1.924L73.573,40.099z"/>
		<path style="fill:#FFFFFF;" d="M85.975,36.654c-0.312-0.144-0.65-0.247-1.183-0.247c-1.079,0-1.768,0.857-1.768,2.119
			c0,1.234,0.585,2.184,1.807,2.184c0.494,0,1.04-0.182,1.339-0.312l0.078,1.442c-0.507,0.156-1.027,0.222-1.742,0.222
			c-2.197,0-3.302-1.495-3.302-3.536c0-1.938,1.145-3.472,3.237-3.472c0.702,0,1.209,0.078,1.69,0.221L85.975,36.654z"/>
		<path style="fill:#FFFFFF;" d="M87.444,32.155h1.742v9.751h-1.742V32.155z"/>
		<path style="fill:#FFFFFF;" d="M96.388,41.529c-0.637,0.351-1.365,0.533-2.301,0.533c-2.21,0-3.498-1.274-3.498-3.472
			c0-1.937,1.027-3.536,3.107-3.536c2.483,0,3.185,1.703,3.185,4.043h-4.628c0.078,1.079,0.832,1.69,1.911,1.69
			c0.845,0,1.573-0.312,2.223-0.676V41.529z M95.218,37.902c-0.052-0.846-0.442-1.573-1.417-1.573s-1.469,0.676-1.547,1.573H95.218z
			"/>
		<path style="fill:#FFFFFF;" d="M98.545,35.562c0.676-0.312,1.586-0.507,2.327-0.507c2.041,0,2.886,0.845,2.886,2.821v0.858
			c0,0.676,0.013,1.183,0.026,1.677c0.013,0.507,0.039,0.975,0.078,1.495h-1.534c-0.065-0.352-0.065-0.793-0.078-1.001h-0.026
			c-0.403,0.741-1.274,1.157-2.067,1.157c-1.183,0-2.34-0.716-2.34-1.989c0-1.001,0.481-1.586,1.144-1.911
			c0.663-0.325,1.521-0.391,2.25-0.391h0.962c0-1.079-0.481-1.442-1.508-1.442c-0.741,0-1.482,0.286-2.067,0.728L98.545,35.562z
			 M100.587,40.788c0.533,0,0.949-0.234,1.222-0.598c0.286-0.378,0.364-0.858,0.364-1.379h-0.754c-0.78,0-1.937,0.131-1.937,1.157
			C99.482,40.541,99.963,40.788,100.587,40.788z"/>
		<path style="fill:#FFFFFF;" d="M105.514,35.211h1.547v1.521h0.026c0.078-0.624,0.793-1.677,1.833-1.677
			c0.169,0,0.351,0,0.533,0.052v1.756c-0.156-0.092-0.468-0.144-0.78-0.144c-1.417,0-1.417,1.769-1.417,2.73v2.457h-1.742V35.211z"
			/>
		<path style="fill:#FFFFFF;" d="M110.571,32.155h1.742v9.751h-1.742V32.155z"/>
		<path style="fill:#FFFFFF;" d="M116.928,40.099h0.026l1.612-4.888h1.768l-2.509,6.644c-0.559,1.481-0.962,2.938-2.782,2.938
			c-0.416,0-0.832-0.064-1.235-0.182l0.117-1.287c0.221,0.078,0.468,0.117,0.897,0.117c0.702,0,1.131-0.481,1.131-1.196
			l-2.561-7.033h1.924L116.928,40.099z"/>
		<path style="fill:#FFFFFF;" d="M124.233,35.211h1.846l1.482,4.953h0.026l1.352-4.953h2.028l1.456,4.953h0.026l1.391-4.953h1.664
			l-2.054,6.695h-2.054l-1.456-5.109h-0.026l-1.43,5.109h-1.989L124.233,35.211z"/>
		<path style="fill:#FFFFFF;" d="M136.843,35.562c0.676-0.312,1.586-0.507,2.327-0.507c2.041,0,2.886,0.845,2.886,2.821v0.858
			c0,0.676,0.013,1.183,0.026,1.677c0.013,0.507,0.039,0.975,0.078,1.495h-1.534c-0.065-0.352-0.065-0.793-0.078-1.001h-0.026
			c-0.403,0.741-1.274,1.157-2.067,1.157c-1.183,0-2.34-0.716-2.34-1.989c0-1.001,0.481-1.586,1.144-1.911
			c0.663-0.325,1.521-0.391,2.25-0.391h0.962c0-1.079-0.481-1.442-1.508-1.442c-0.741,0-1.482,0.286-2.067,0.728L136.843,35.562z
			 M138.885,40.788c0.533,0,0.949-0.234,1.222-0.598c0.286-0.378,0.364-0.858,0.364-1.379h-0.754c-0.78,0-1.937,0.131-1.937,1.157
			C137.78,40.541,138.261,40.788,138.885,40.788z"/>
		<path style="fill:#FFFFFF;" d="M143.812,35.211h1.547v1.521h0.026c0.078-0.624,0.793-1.677,1.833-1.677
			c0.169,0,0.351,0,0.533,0.052v1.756c-0.156-0.092-0.468-0.144-0.78-0.144c-1.417,0-1.417,1.769-1.417,2.73v2.457h-1.742V35.211z"
			/>
		<path style="fill:#FFFFFF;" d="M148.869,35.211h1.547v1.521h0.026c0.078-0.624,0.793-1.677,1.833-1.677
			c0.169,0,0.351,0,0.533,0.052v1.756c-0.156-0.092-0.468-0.144-0.78-0.144c-1.417,0-1.417,1.769-1.417,2.73v2.457h-1.742V35.211z"
			/>
		<path style="fill:#FFFFFF;" d="M154.186,35.562c0.676-0.312,1.586-0.507,2.327-0.507c2.042,0,2.886,0.845,2.886,2.821v0.858
			c0,0.676,0.013,1.183,0.026,1.677c0.013,0.507,0.039,0.975,0.078,1.495h-1.534c-0.065-0.352-0.065-0.793-0.078-1.001h-0.026
			c-0.403,0.741-1.274,1.157-2.067,1.157c-1.183,0-2.34-0.716-2.34-1.989c0-1.001,0.481-1.586,1.145-1.911
			c0.663-0.325,1.521-0.391,2.249-0.391h0.962c0-1.079-0.481-1.442-1.508-1.442c-0.741,0-1.482,0.286-2.067,0.728L154.186,35.562z
			 M156.227,40.788c0.533,0,0.949-0.234,1.222-0.598c0.286-0.378,0.364-0.858,0.364-1.379h-0.754c-0.78,0-1.938,0.131-1.938,1.157
			C155.122,40.541,155.603,40.788,156.227,40.788z"/>
		<path style="fill:#FFFFFF;" d="M161.115,35.211h1.651v0.91h0.026c0.546-0.768,1.287-1.066,2.197-1.066
			c1.586,0,2.275,1.118,2.275,2.626v4.226h-1.742v-3.575c0-0.819-0.013-1.924-1.131-1.924c-1.261,0-1.534,1.364-1.534,2.223v3.276
			h-1.742V35.211z"/>
		<path style="fill:#FFFFFF;" d="M169.63,36.484h-1.287v-1.273h1.287v-1.339l1.742-0.56v1.898h1.547v1.273h-1.547v3.12
			c0,0.572,0.156,1.105,0.819,1.105c0.312,0,0.611-0.065,0.793-0.182l0.052,1.378c-0.364,0.104-0.767,0.156-1.287,0.156
			c-1.365,0-2.119-0.846-2.119-2.172V36.484z"/>
		<path style="fill:#FFFFFF;" d="M178.093,36.615c-0.533-0.183-0.923-0.286-1.56-0.286c-0.468,0-1.027,0.169-1.027,0.741
			c0,1.065,3.029,0.39,3.029,2.808c0,1.561-1.391,2.185-2.808,2.185c-0.663,0-1.339-0.117-1.976-0.286l0.104-1.431
			c0.546,0.273,1.118,0.442,1.716,0.442c0.442,0,1.144-0.169,1.144-0.819c0-1.312-3.029-0.416-3.029-2.834
			c0-1.443,1.261-2.08,2.626-2.08c0.819,0,1.352,0.13,1.898,0.247L178.093,36.615z"/>
		<path style="fill:#FFFFFF;" d="M183.799,35.562c0.676-0.312,1.586-0.507,2.327-0.507c2.041,0,2.886,0.845,2.886,2.821v0.858
			c0,0.676,0.013,1.183,0.026,1.677c0.013,0.507,0.039,0.975,0.078,1.495h-1.534c-0.065-0.352-0.065-0.793-0.078-1.001h-0.026
			c-0.403,0.741-1.274,1.157-2.067,1.157c-1.183,0-2.34-0.716-2.34-1.989c0-1.001,0.481-1.586,1.144-1.911
			c0.663-0.325,1.521-0.391,2.25-0.391h0.962c0-1.079-0.481-1.442-1.508-1.442c-0.741,0-1.482,0.286-2.067,0.728L183.799,35.562z
			 M185.841,40.788c0.533,0,0.949-0.234,1.222-0.598c0.286-0.378,0.364-0.858,0.364-1.379h-0.754c-0.78,0-1.937,0.131-1.937,1.157
			C184.736,40.541,185.217,40.788,185.841,40.788z"/>
		<path style="fill:#FFFFFF;" d="M190.729,35.211h1.651v0.91h0.026c0.546-0.768,1.287-1.066,2.197-1.066
			c1.586,0,2.275,1.118,2.275,2.626v4.226h-1.742v-3.575c0-0.819-0.013-1.924-1.131-1.924c-1.261,0-1.534,1.364-1.534,2.223v3.276
			h-1.742V35.211z"/>
		<path style="fill:#FFFFFF;" d="M202.285,32.832h1.82v9.074h-1.82V32.832z"/>
		<path style="fill:#FFFFFF;" d="M212.659,41.776c-0.663,0.155-1.378,0.286-2.067,0.286c-2.938,0-4.979-1.47-4.979-4.538
			c0-3.106,1.898-4.849,4.979-4.849c0.598,0,1.391,0.117,2.054,0.377l-0.13,1.534c-0.689-0.391-1.313-0.481-1.963-0.481
			c-1.872,0-3.042,1.431-3.042,3.289c0,1.847,1.144,3.237,3.081,3.237c0.715,0,1.56-0.156,1.989-0.377L212.659,41.776z"/>
		<path style="fill:#FFFFFF;" d="M218.873,34.496c-0.572-0.247-1.209-0.391-1.846-0.391c-0.624,0-1.43,0.273-1.43,1.262
			c0,1.572,3.978,0.909,3.978,3.952c0,1.988-1.573,2.743-3.406,2.743c-0.988,0-1.43-0.131-2.327-0.352l0.169-1.638
			c0.624,0.338,1.339,0.559,2.054,0.559c0.689,0,1.612-0.351,1.612-1.17c0-1.729-3.979-1.014-3.979-4.018
			c0-2.027,1.573-2.769,3.172-2.769c0.78,0,1.508,0.104,2.171,0.325L218.873,34.496z"/>
		<path style="fill:#FFFFFF;" d="M223.618,32.676h1.352l-3.172,9.387h-1.352L223.618,32.676z"/>
		<path style="fill:#FFFFFF;" d="M226.283,32.832h1.82v7.644h3.523v1.431h-5.343V32.832z"/>
		<path style="fill:#FFFFFF;" d="M235.383,32.832h2.054L241,41.906h-2.015l-0.78-2.08h-3.679l-0.793,2.08h-1.885L235.383,32.832z
			 M236.384,34.651h-0.026l-1.313,3.744h2.652L236.384,34.651z"/>
		<path style="fill:#FFFFFF;" d="M242.169,32.832h3.172c1.17,0,2.925,0.338,2.925,2.327c0,1.079-0.728,1.833-1.807,2.027v0.026
			c1.235,0.117,2.08,0.949,2.08,2.067c0,2.288-2.054,2.626-3.198,2.626h-3.172V32.832z M243.989,36.498h0.741
			c0.767,0,1.716-0.169,1.716-1.105c0-1.053-0.923-1.131-1.755-1.131h-0.702V36.498z M243.989,40.476h0.858
			c0.845,0,1.872-0.208,1.872-1.261c0-1.183-0.962-1.365-1.872-1.365h-0.858V40.476z"/>
		<path style="fill:#FFFFFF;" d="M252.712,32.832h2.054l3.562,9.074h-2.015l-0.78-2.08h-3.679l-0.793,2.08h-1.885L252.712,32.832z
			 M253.713,34.651h-0.026l-1.313,3.744h2.652L253.713,34.651z"/>
	</g>
	<g>
		<path style="fill:#FFFFFF;" d="M63.939,55.66h3.172c1.17,0,2.925,0.338,2.925,2.327c0,1.079-0.728,1.833-1.807,2.028v0.025
			c1.235,0.117,2.08,0.949,2.08,2.067c0,2.288-2.054,2.626-3.198,2.626h-3.172V55.66z M65.759,59.326H66.5
			c0.767,0,1.716-0.169,1.716-1.104c0-1.054-0.923-1.132-1.755-1.132h-0.702V59.326z M65.759,63.305h0.858
			c0.845,0,1.872-0.208,1.872-1.261c0-1.184-0.962-1.365-1.872-1.365h-0.858V63.305z"/>
		<path style="fill:#FFFFFF;" d="M71.726,55.66h1.963c1.95,0,4.277-0.064,4.277,2.457c0,1.066-0.715,1.95-1.872,2.106v0.025
			c0.494,0.039,0.78,0.533,0.962,0.937l1.456,3.549h-2.028L75.392,61.9c-0.26-0.676-0.494-0.936-1.261-0.936h-0.585v3.77h-1.82
			V55.66z M73.546,59.534h0.598c0.897,0,1.924-0.13,1.924-1.261c0-1.092-1.014-1.184-1.924-1.184h-0.598V59.534z"/>
		<path style="fill:#FFFFFF;" d="M79.825,55.66h5.356v1.43h-3.536v2.236h3.237v1.431h-3.237v2.548h3.562v1.43h-5.382V55.66z"/>
		<path style="fill:#FFFFFF;" d="M91.057,55.504c2.847,0,4.446,1.925,4.446,4.668c0,2.742-1.573,4.719-4.446,4.719
			c-2.912,0-4.446-1.938-4.446-4.719C86.61,57.39,88.17,55.504,91.057,55.504z M91.057,63.461c1.859,0,2.548-1.651,2.548-3.289
			c0-1.6-0.741-3.237-2.548-3.237s-2.548,1.638-2.548,3.237C88.509,61.81,89.198,63.461,91.057,63.461z"/>
		<path style="fill:#FFFFFF;" d="M100.663,55.153h1.742v1.664h-1.742V55.153z M100.663,58.039h1.742v6.695h-1.742V58.039z"/>
		<path style="fill:#FFFFFF;" d="M108.216,59.443c-0.533-0.182-0.923-0.286-1.56-0.286c-0.468,0-1.027,0.169-1.027,0.741
			c0,1.066,3.029,0.39,3.029,2.808c0,1.561-1.391,2.185-2.808,2.185c-0.663,0-1.339-0.117-1.976-0.286l0.104-1.43
			c0.546,0.272,1.118,0.441,1.716,0.441c0.442,0,1.144-0.169,1.144-0.818c0-1.313-3.029-0.416-3.029-2.834
			c0-1.443,1.261-2.08,2.626-2.08c0.819,0,1.352,0.13,1.898,0.246L108.216,59.443z"/>
		<path style="fill:#FFFFFF;" d="M113.688,55.66h2.236l3.458,6.786h0.026V55.66h1.742v9.074h-2.223l-3.471-6.786h-0.026v6.786
			h-1.742V55.66z"/>
		<path style="fill:#FFFFFF;" d="M127.169,55.504c2.847,0,4.446,1.925,4.446,4.668c0,2.742-1.573,4.719-4.446,4.719
			c-2.912,0-4.446-1.938-4.446-4.719C122.723,57.39,124.283,55.504,127.169,55.504z M127.169,63.461
			c1.859,0,2.548-1.651,2.548-3.289c0-1.6-0.741-3.237-2.548-3.237s-2.548,1.638-2.548,3.237
			C124.622,61.81,125.311,63.461,127.169,63.461z"/>
		<path style="fill:#FFFFFF;" d="M134.93,57.09h-2.6v-1.43h7.02v1.43h-2.6v7.645h-1.82V57.09z"/>
		<path style="fill:#FFFFFF;" d="M144.004,55.153h1.742v1.664h-1.742V55.153z M144.004,58.039h1.742v6.695h-1.742V58.039z"/>
		<path style="fill:#FFFFFF;" d="M147.579,58.039h1.651v0.91h0.026c0.546-0.767,1.287-1.065,2.197-1.065
			c1.586,0,2.275,1.117,2.275,2.626v4.225h-1.742v-3.575c0-0.818-0.013-1.924-1.131-1.924c-1.261,0-1.534,1.365-1.534,2.223v3.276
			h-1.742V58.039z"/>
		<path style="fill:#FFFFFF;" d="M159.981,63.98h-0.026c-0.52,0.65-1.235,0.91-2.054,0.91c-2.054,0-2.809-1.69-2.809-3.523
			c0-1.846,0.754-3.483,2.809-3.483c0.871,0,1.482,0.299,2.002,0.936h0.026v-3.835h1.742v9.75h-1.69V63.98z M158.382,63.538
			c1.157,0,1.534-1.222,1.534-2.171c0-0.936-0.442-2.132-1.56-2.132c-1.131,0-1.443,1.235-1.443,2.132
			C156.913,62.29,157.238,63.538,158.382,63.538z"/>
		<path style="fill:#FFFFFF;" d="M163.503,55.153h1.742v1.664h-1.742V55.153z M163.503,58.039h1.742v6.695h-1.742V58.039z"/>
		<path style="fill:#FFFFFF;" d="M171.42,59.482c-0.312-0.143-0.65-0.247-1.183-0.247c-1.079,0-1.768,0.858-1.768,2.119
			c0,1.235,0.585,2.184,1.807,2.184c0.494,0,1.04-0.182,1.339-0.312l0.078,1.443c-0.507,0.155-1.027,0.221-1.742,0.221
			c-2.197,0-3.302-1.495-3.302-3.536c0-1.938,1.145-3.471,3.237-3.471c0.702,0,1.209,0.077,1.69,0.221L171.42,59.482z"/>
		<path style="fill:#FFFFFF;" d="M173.149,58.391c0.676-0.312,1.586-0.507,2.327-0.507c2.041,0,2.886,0.845,2.886,2.82v0.858
			c0,0.676,0.013,1.183,0.026,1.677c0.013,0.507,0.039,0.976,0.078,1.495h-1.534c-0.065-0.351-0.065-0.793-0.078-1.001h-0.026
			c-0.403,0.741-1.274,1.157-2.067,1.157c-1.183,0-2.34-0.715-2.34-1.989c0-1.001,0.481-1.586,1.144-1.911
			c0.663-0.325,1.521-0.39,2.25-0.39h0.962c0-1.079-0.481-1.443-1.508-1.443c-0.741,0-1.482,0.286-2.067,0.729L173.149,58.391z
			 M175.19,63.616c0.533,0,0.949-0.233,1.222-0.598c0.286-0.377,0.364-0.858,0.364-1.378h-0.754c-0.78,0-1.937,0.13-1.937,1.157
			C174.085,63.369,174.566,63.616,175.19,63.616z"/>
		<path style="fill:#FFFFFF;" d="M180.65,59.313h-1.287v-1.274h1.287V56.7l1.742-0.559v1.897h1.547v1.274h-1.547v3.12
			c0,0.572,0.156,1.104,0.819,1.104c0.312,0,0.611-0.064,0.793-0.182l0.052,1.378c-0.364,0.104-0.767,0.156-1.287,0.156
			c-1.365,0-2.119-0.845-2.119-2.171V59.313z"/>
		<path style="fill:#FFFFFF;" d="M190.504,64.357c-0.637,0.352-1.365,0.533-2.301,0.533c-2.21,0-3.497-1.274-3.497-3.471
			c0-1.938,1.027-3.536,3.107-3.536c2.483,0,3.185,1.702,3.185,4.043h-4.628c0.078,1.079,0.832,1.689,1.911,1.689
			c0.845,0,1.573-0.312,2.223-0.676V64.357z M189.334,60.73c-0.052-0.845-0.442-1.573-1.417-1.573s-1.469,0.676-1.547,1.573H189.334
			z"/>
		<path style="fill:#FFFFFF;" d="M196.823,63.98h-0.026c-0.52,0.65-1.235,0.91-2.054,0.91c-2.054,0-2.809-1.69-2.809-3.523
			c0-1.846,0.754-3.483,2.809-3.483c0.871,0,1.482,0.299,2.002,0.936h0.026v-3.835h1.742v9.75h-1.69V63.98z M195.224,63.538
			c1.157,0,1.534-1.222,1.534-2.171c0-0.936-0.442-2.132-1.56-2.132c-1.131,0-1.443,1.235-1.443,2.132
			C193.754,62.29,194.08,63.538,195.224,63.538z"/>
		<path style="fill:#FFFFFF;" d="M204.557,59.313h-1.287v-1.274h1.287v-0.936c0-1.339,0.754-2.275,2.132-2.275
			c0.442,0,0.936,0.065,1.274,0.144l-0.143,1.442c-0.156-0.091-0.377-0.233-0.754-0.233c-0.585,0-0.767,0.507-0.767,1.026v0.832
			h1.521v1.274h-1.521v5.421h-1.742V59.313z"/>
		<path style="fill:#FFFFFF;" d="M212.045,57.884c1.989,0,3.51,1.339,3.51,3.549c0,1.924-1.287,3.458-3.51,3.458
			c-2.21,0-3.497-1.534-3.497-3.458C208.548,59.223,210.069,57.884,212.045,57.884z M212.045,63.538c1.339,0,1.69-1.195,1.69-2.313
			c0-1.027-0.546-1.989-1.69-1.989c-1.131,0-1.677,0.988-1.677,1.989C210.368,62.329,210.719,63.538,212.045,63.538z"/>
		<path style="fill:#FFFFFF;" d="M216.959,58.039h1.547v1.521h0.026c0.078-0.624,0.793-1.677,1.833-1.677
			c0.169,0,0.351,0,0.533,0.052v1.755c-0.156-0.091-0.468-0.143-0.78-0.143c-1.417,0-1.417,1.768-1.417,2.729v2.457h-1.742V58.039z"
			/>
		<path style="fill:#FFFFFF;" d="M42.925,75.313h-1.287v-1.274h1.287V72.7l1.742-0.559v1.897h1.547v1.274h-1.547v3.12
			c0,0.572,0.156,1.104,0.819,1.104c0.312,0,0.611-0.064,0.793-0.182l0.052,1.378c-0.364,0.104-0.767,0.156-1.287,0.156
			c-1.365,0-2.119-0.845-2.119-2.171V75.313z"/>
		<path style="fill:#FFFFFF;" d="M47.41,70.984h1.742v3.965h0.026c0.442-0.649,1.196-1.065,2.106-1.065
			c1.586,0,2.275,1.117,2.275,2.626v4.225h-1.742v-3.575c0-0.818-0.013-1.924-1.131-1.924c-1.261,0-1.534,1.365-1.534,2.223v3.276
			H47.41V70.984z"/>
		<path style="fill:#FFFFFF;" d="M60.722,80.357c-0.637,0.352-1.365,0.533-2.301,0.533c-2.21,0-3.498-1.274-3.498-3.471
			c0-1.938,1.027-3.536,3.107-3.536c2.483,0,3.185,1.702,3.185,4.043h-4.628c0.078,1.079,0.832,1.689,1.911,1.689
			c0.845,0,1.573-0.312,2.223-0.676V80.357z M59.552,76.73c-0.052-0.845-0.442-1.573-1.417-1.573s-1.469,0.676-1.547,1.573H59.552z"
			/>
		<path style="fill:#FFFFFF;" d="M66.233,74.039h1.547v1.521h0.026c0.078-0.624,0.793-1.677,1.833-1.677
			c0.169,0,0.351,0,0.533,0.052v1.755c-0.156-0.091-0.468-0.143-0.78-0.143c-1.417,0-1.417,1.768-1.417,2.729v2.457h-1.742V74.039z"
			/>
		<path style="fill:#FFFFFF;" d="M76.387,80.357c-0.637,0.352-1.365,0.533-2.301,0.533c-2.21,0-3.498-1.274-3.498-3.471
			c0-1.938,1.027-3.536,3.107-3.536c2.483,0,3.185,1.702,3.185,4.043h-4.628c0.078,1.079,0.832,1.689,1.911,1.689
			c0.845,0,1.573-0.312,2.223-0.676V80.357z M75.217,76.73c-0.052-0.845-0.442-1.573-1.417-1.573s-1.469,0.676-1.547,1.573H75.217z"
			/>
		<path style="fill:#FFFFFF;" d="M78.285,70.984h1.742v9.75h-1.742V70.984z"/>
		<path style="fill:#FFFFFF;" d="M81.898,71.153h1.742v1.664h-1.742V71.153z M81.898,74.039h1.742v6.695h-1.742V74.039z"/>
		<path style="fill:#FFFFFF;" d="M90.842,80.357c-0.637,0.352-1.365,0.533-2.301,0.533c-2.21,0-3.497-1.274-3.497-3.471
			c0-1.938,1.027-3.536,3.107-3.536c2.483,0,3.185,1.702,3.185,4.043h-4.628c0.078,1.079,0.832,1.689,1.911,1.689
			c0.845,0,1.573-0.312,2.223-0.676V80.357z M89.672,76.73c-0.052-0.845-0.442-1.573-1.417-1.573s-1.469,0.676-1.547,1.573H89.672z"
			/>
		<path style="fill:#FFFFFF;" d="M93.338,75.313h-1.287v-1.274h1.287v-0.936c0-1.339,0.754-2.275,2.132-2.275
			c0.442,0,0.936,0.065,1.274,0.144l-0.143,1.442c-0.156-0.091-0.377-0.233-0.754-0.233c-0.585,0-0.767,0.507-0.767,1.026v0.832
			h1.521v1.274h-1.521v5.421h-1.742V75.313z"/>
		<path style="fill:#FFFFFF;" d="M104.44,73.884c1.989,0,3.51,1.339,3.51,3.549c0,1.924-1.287,3.458-3.51,3.458
			c-2.21,0-3.498-1.534-3.498-3.458C100.943,75.223,102.464,73.884,104.44,73.884z M104.44,79.538c1.339,0,1.69-1.195,1.69-2.313
			c0-1.027-0.546-1.989-1.69-1.989c-1.131,0-1.677,0.988-1.677,1.989C102.763,78.329,103.114,79.538,104.44,79.538z"/>
		<path style="fill:#FFFFFF;" d="M109.952,75.313h-1.287v-1.274h1.287v-0.936c0-1.339,0.754-2.275,2.132-2.275
			c0.442,0,0.936,0.065,1.274,0.144l-0.143,1.442c-0.156-0.091-0.377-0.233-0.754-0.233c-0.585,0-0.767,0.507-0.767,1.026v0.832
			h1.521v1.274h-1.521v5.421h-1.742V75.313z"/>
		<path style="fill:#FFFFFF;" d="M118.285,74.391c0.676-0.312,1.586-0.507,2.327-0.507c2.041,0,2.886,0.845,2.886,2.82v0.858
			c0,0.676,0.013,1.183,0.026,1.677c0.013,0.507,0.039,0.976,0.078,1.495h-1.534c-0.065-0.351-0.065-0.793-0.078-1.001h-0.026
			c-0.403,0.741-1.274,1.157-2.067,1.157c-1.183,0-2.34-0.715-2.34-1.989c0-1.001,0.481-1.586,1.144-1.911
			c0.663-0.325,1.521-0.39,2.25-0.39h0.962c0-1.079-0.481-1.443-1.508-1.443c-0.741,0-1.482,0.286-2.067,0.729L118.285,74.391z
			 M120.326,79.616c0.533,0,0.949-0.233,1.222-0.598c0.286-0.377,0.364-0.858,0.364-1.378h-0.754c-0.78,0-1.937,0.13-1.937,1.157
			C119.221,79.369,119.702,79.616,120.326,79.616z"/>
		<path style="fill:#FFFFFF;" d="M129.556,75.482c-0.312-0.143-0.65-0.247-1.183-0.247c-1.079,0-1.768,0.858-1.768,2.119
			c0,1.235,0.585,2.184,1.807,2.184c0.494,0,1.04-0.182,1.339-0.312l0.078,1.443c-0.507,0.155-1.027,0.221-1.742,0.221
			c-2.197,0-3.302-1.495-3.302-3.536c0-1.938,1.145-3.471,3.237-3.471c0.702,0,1.209,0.077,1.69,0.221L129.556,75.482z"/>
		<path style="fill:#FFFFFF;" d="M137.135,80.734h-1.651v-0.91h-0.026c-0.533,0.65-1.287,1.066-2.197,1.066
			c-1.586,0-2.275-1.118-2.275-2.626v-4.226h1.742v3.575c0,0.819,0.013,1.924,1.131,1.924c1.261,0,1.534-1.364,1.534-2.223v-3.276
			h1.742V80.734z"/>
		<path style="fill:#FFFFFF;" d="M139.501,75.313h-1.287v-1.274h1.287V72.7l1.742-0.559v1.897h1.547v1.274h-1.547v3.12
			c0,0.572,0.156,1.104,0.819,1.104c0.312,0,0.611-0.064,0.793-0.182l0.052,1.378c-0.364,0.104-0.767,0.156-1.287,0.156
			c-1.365,0-2.119-0.845-2.119-2.171V75.313z"/>
		<path style="fill:#FFFFFF;" d="M149.355,80.357c-0.637,0.352-1.365,0.533-2.301,0.533c-2.21,0-3.497-1.274-3.497-3.471
			c0-1.938,1.027-3.536,3.107-3.536c2.483,0,3.185,1.702,3.185,4.043h-4.628c0.078,1.079,0.832,1.689,1.911,1.689
			c0.845,0,1.573-0.312,2.223-0.676V80.357z M148.185,76.73c-0.052-0.845-0.442-1.573-1.417-1.573s-1.469,0.676-1.547,1.573H148.185
			z"/>
		<path style="fill:#FFFFFF;" d="M154.828,70.984h1.742v3.913h0.026c0.481-0.637,1.092-1.014,2.002-1.014
			c2.054,0,2.808,1.638,2.808,3.483c0,1.833-0.754,3.523-2.808,3.523c-0.741,0-1.547-0.26-2.054-0.975h-0.026v0.818h-1.69V70.984z
			 M158.117,79.538c1.144,0,1.469-1.248,1.469-2.171c0-0.896-0.312-2.132-1.443-2.132c-1.118,0-1.561,1.196-1.561,2.132
			C156.583,78.316,156.96,79.538,158.117,79.538z"/>
		<path style="fill:#FFFFFF;" d="M162.81,74.039h1.547v1.521h0.026c0.078-0.624,0.793-1.677,1.833-1.677
			c0.169,0,0.351,0,0.533,0.052v1.755c-0.156-0.091-0.468-0.143-0.78-0.143c-1.417,0-1.417,1.768-1.417,2.729v2.457h-1.742V74.039z"
			/>
		<path style="fill:#FFFFFF;" d="M170.662,73.884c1.989,0,3.51,1.339,3.51,3.549c0,1.924-1.287,3.458-3.51,3.458
			c-2.21,0-3.498-1.534-3.498-3.458C167.165,75.223,168.686,73.884,170.662,73.884z M170.662,79.538c1.339,0,1.69-1.195,1.69-2.313
			c0-1.027-0.546-1.989-1.69-1.989c-1.131,0-1.677,0.988-1.677,1.989C168.985,78.329,169.336,79.538,170.662,79.538z"/>
		<path style="fill:#FFFFFF;" d="M175.537,74.039h1.651v0.91h0.026c0.546-0.767,1.287-1.065,2.197-1.065
			c1.586,0,2.275,1.117,2.275,2.626v4.225h-1.742v-3.575c0-0.818-0.013-1.924-1.131-1.924c-1.261,0-1.534,1.365-1.534,2.223v3.276
			h-1.742V74.039z"/>
		<path style="fill:#FFFFFF;" d="M187.822,75.482c-0.312-0.143-0.65-0.247-1.183-0.247c-1.079,0-1.768,0.858-1.768,2.119
			c0,1.235,0.585,2.184,1.807,2.184c0.494,0,1.04-0.182,1.339-0.312l0.078,1.443c-0.507,0.155-1.027,0.221-1.742,0.221
			c-2.197,0-3.302-1.495-3.302-3.536c0-1.938,1.145-3.471,3.237-3.471c0.702,0,1.209,0.077,1.69,0.221L187.822,75.482z"/>
		<path style="fill:#FFFFFF;" d="M189.251,70.984h1.742v3.965h0.026c0.442-0.649,1.196-1.065,2.106-1.065
			c1.586,0,2.275,1.117,2.275,2.626v4.225h-1.742v-3.575c0-0.818-0.013-1.924-1.131-1.924c-1.261,0-1.534,1.365-1.534,2.223v3.276
			h-1.742V70.984z"/>
		<path style="fill:#FFFFFF;" d="M200.263,73.884c1.989,0,3.51,1.339,3.51,3.549c0,1.924-1.287,3.458-3.51,3.458
			c-2.21,0-3.498-1.534-3.498-3.458C196.765,75.223,198.287,73.884,200.263,73.884z M200.263,79.538c1.339,0,1.69-1.195,1.69-2.313
			c0-1.027-0.546-1.989-1.69-1.989c-1.131,0-1.677,0.988-1.677,1.989C198.585,78.329,198.937,79.538,200.263,79.538z"/>
		<path style="fill:#FFFFFF;" d="M209.115,75.443c-0.533-0.182-0.923-0.286-1.56-0.286c-0.468,0-1.027,0.169-1.027,0.741
			c0,1.066,3.029,0.39,3.029,2.808c0,1.561-1.391,2.185-2.808,2.185c-0.663,0-1.339-0.117-1.976-0.286l0.104-1.43
			c0.546,0.272,1.118,0.441,1.716,0.441c0.442,0,1.144-0.169,1.144-0.818c0-1.313-3.029-0.416-3.029-2.834
			c0-1.443,1.261-2.08,2.626-2.08c0.819,0,1.352,0.13,1.898,0.246L209.115,75.443z"/>
		<path style="fill:#FFFFFF;" d="M210.909,74.039h1.664v0.949h0.026c0.39-0.65,1.053-1.104,2.08-1.104
			c2.054,0,2.808,1.638,2.808,3.483c0,1.833-0.754,3.523-2.847,3.523c-0.741,0-1.352-0.182-1.963-0.923h-0.026v3.497h-1.742V74.039z
			 M212.665,77.367c0,0.949,0.377,2.171,1.534,2.171c1.144,0,1.469-1.248,1.469-2.171c0-0.896-0.312-2.132-1.443-2.132
			C213.106,75.235,212.665,76.432,212.665,77.367z"/>
		<path style="fill:#FFFFFF;" d="M219.151,74.391c0.676-0.312,1.586-0.507,2.327-0.507c2.041,0,2.886,0.845,2.886,2.82v0.858
			c0,0.676,0.013,1.183,0.026,1.677c0.013,0.507,0.039,0.976,0.078,1.495h-1.534c-0.065-0.351-0.065-0.793-0.078-1.001h-0.026
			c-0.403,0.741-1.274,1.157-2.067,1.157c-1.183,0-2.34-0.715-2.34-1.989c0-1.001,0.481-1.586,1.144-1.911
			c0.663-0.325,1.521-0.39,2.25-0.39h0.962c0-1.079-0.481-1.443-1.508-1.443c-0.741,0-1.482,0.286-2.067,0.729L219.151,74.391z
			 M221.192,79.616c0.533,0,0.949-0.233,1.222-0.598c0.286-0.377,0.364-0.858,0.364-1.378h-0.754c-0.78,0-1.937,0.13-1.937,1.157
			C220.087,79.369,220.568,79.616,221.192,79.616z"/>
		<path style="fill:#FFFFFF;" d="M230.058,75.443c-0.533-0.182-0.923-0.286-1.56-0.286c-0.468,0-1.027,0.169-1.027,0.741
			c0,1.066,3.029,0.39,3.029,2.808c0,1.561-1.391,2.185-2.808,2.185c-0.663,0-1.339-0.117-1.976-0.286l0.104-1.43
			c0.546,0.272,1.118,0.441,1.716,0.441c0.442,0,1.144-0.169,1.144-0.818c0-1.313-3.029-0.416-3.029-2.834
			c0-1.443,1.261-2.08,2.626-2.08c0.819,0,1.352,0.13,1.898,0.246L230.058,75.443z"/>
		<path style="fill:#FFFFFF;" d="M231.826,74.039h1.625v0.937h0.026c0.546-0.819,1.339-1.092,1.989-1.092
			c0.936,0,1.599,0.351,1.976,1.183c0.403-0.806,1.274-1.183,2.093-1.183c1.651,0,2.119,1.131,2.119,2.626v4.225h-1.742v-3.991
			c0-0.624,0-1.508-1.001-1.508c-1.157,0-1.3,1.378-1.3,2.249v3.25h-1.742v-3.991c0-0.624,0-1.508-1.001-1.508
			c-1.157,0-1.3,1.378-1.3,2.249v3.25h-1.742V74.039z"/>
	</g>
</g>
</svg>
