<?xml version="1.0" encoding="iso-8859-1"?>
<!-- Generator: Adobe Illustrator 19.1.0, SVG Export Plug-In . SVG Version: 6.00 Build 0)  -->
<svg version="1.1" id="Layer_1" xmlns="http://www.w3.org/2000/svg" xmlns:xlink="http://www.w3.org/1999/xlink" x="0px" y="0px"
	 viewBox="0 0 248.706 76.658" style="enable-background:new 0 0 248.706 76.658;" xml:space="preserve">
<g>
	<path style="fill:#114B8A;" d="M15.06,7.856c0.432-0.384,0.972-0.852,1.499-1.343c0.924-0.864,2.41-2.219,2.41-3.574
		c0-0.779-0.695-1.331-1.606-1.331c-0.744,0-1.464,0.288-1.919,0.54l-0.12-1.031c0.695-0.3,1.439-0.492,2.194-0.492
		c1.512,0,2.723,0.815,2.723,2.387c0,1.391-1.499,2.878-2.423,3.802c-0.467,0.468-1.067,0.971-1.475,1.343h4.018v0.983H15.06V7.856z
		"/>
	<path style="fill:#114B8A;" d="M25.257,7.232h-3.897V6.249l3.382-5.481h1.716v5.481h1.055v0.984h-1.055v1.907h-1.2V7.232z
		 M25.257,1.751h-0.023l-2.614,4.498h2.638V1.751z"/>
	<path style="fill:#114B8A;" d="M28.259,5.457h3.083v0.912h-3.083V5.457z"/>
	<path style="fill:#114B8A;" d="M32.759,0.144h1.128v3.754h0.023c0.408-0.647,1.115-1.02,1.967-1.02
		c1.583,0,2.291,0.984,2.291,2.627v3.634h-1.127V5.973c0-1.427-0.312-2.123-1.296-2.183c-1.283,0-1.858,1.031-1.858,2.519v2.831
		h-1.128V0.144z"/>
	<path style="fill:#114B8A;" d="M42.802,2.878c1.858,0,3.106,1.343,3.106,3.203c0,1.751-1.271,3.202-3.106,3.202
		c-1.848,0-3.118-1.451-3.118-3.202C39.684,4.222,40.931,2.878,42.802,2.878z M42.802,8.372c1.319,0,1.907-1.199,1.907-2.291
		c0-1.164-0.708-2.291-1.907-2.291c-1.212,0-1.919,1.127-1.919,2.291C40.883,7.172,41.471,8.372,42.802,8.372z"/>
	<path style="fill:#114B8A;" d="M52.832,9.139H51.74V8.167h-0.023c-0.336,0.696-1.151,1.116-2.003,1.116
		c-1.583,0-2.291-0.983-2.291-2.626V3.022h1.128v3.167c0,1.427,0.312,2.123,1.295,2.183c1.283,0,1.859-1.031,1.859-2.519V3.022
		h1.127V9.139z"/>
	<path style="fill:#114B8A;" d="M54.755,3.022h1.056V3.97h0.024c0.3-0.636,0.947-1.092,1.595-1.092c0.336,0,0.504,0.036,0.743,0.084
		V3.97c-0.203-0.084-0.432-0.108-0.623-0.108c-1.008,0-1.667,0.959-1.667,2.494v2.783h-1.128V3.022z"/>
	<path style="fill:#114B8A;" d="M62.795,0.768h2.267C66.801,0.768,68,1.332,68,2.878c0,1.151-0.672,1.727-1.728,1.991v0.024
		c1.14,0.096,1.943,0.839,1.943,2.015c0,1.799-1.487,2.231-3.19,2.231h-2.23V0.768z M63.994,4.342h0.659
		c1.164,0,2.147-0.108,2.147-1.343c0-0.996-0.852-1.248-1.547-1.248h-1.26V4.342z M63.994,8.156h0.899
		c1.079,0,2.051-0.228,2.051-1.355c0-1.295-1.14-1.475-2.171-1.475h-0.779V8.156z"/>
	<path style="fill:#114B8A;" d="M70.126,0.768h2.051c1.655,0,3.251,0.264,3.251,2.267c0,1.019-0.756,1.739-1.728,1.907v0.024
		c0.372,0.144,0.552,0.324,0.815,0.84l1.583,3.334h-1.367l-1.283-2.902c-0.371-0.815-0.768-0.815-1.403-0.815h-0.72v3.718h-1.199
		V0.768z M71.325,4.366h1.02c1.14,0,1.812-0.503,1.812-1.307c0-0.756-0.576-1.235-1.68-1.235h-1.151V4.366z"/>
	<path style="fill:#114B8A;" d="M77.59,0.768h4.689v1.056H78.79V4.27h3.178v1.055H78.79v2.759h3.489v1.055H77.59V0.768z"/>
	<path style="fill:#114B8A;" d="M87.8,0.624c2.543,0,4.03,1.847,4.03,4.33c0,2.542-1.476,4.33-4.03,4.33
		c-2.554,0-4.029-1.787-4.029-4.33C83.771,2.471,85.258,0.624,87.8,0.624z M87.8,8.228c1.932,0,2.759-1.607,2.759-3.274
		c0-1.703-0.911-3.286-2.759-3.274c-1.847-0.012-2.758,1.571-2.758,3.274C85.042,6.621,85.869,8.228,87.8,8.228z"/>
	<path style="fill:#114B8A;" d="M98.109,1.655h-1.271V0.384h1.271V1.655z M96.91,3.022h1.127v6.117H96.91V3.022z"/>
	<path style="fill:#114B8A;" d="M99.646,7.94c0.443,0.288,1.079,0.432,1.403,0.432c0.516,0,1.151-0.216,1.151-0.875
		c0-1.115-2.65-1.02-2.65-2.734c0-1.271,0.947-1.883,2.158-1.883c0.528,0,0.96,0.108,1.403,0.24l-0.096,0.983
		c-0.252-0.156-0.924-0.312-1.188-0.312c-0.575,0-1.079,0.24-1.079,0.744c0,1.248,2.65,0.888,2.65,2.842
		c0,1.308-1.044,1.907-2.135,1.907c-0.576,0-1.164-0.06-1.68-0.336L99.646,7.94z"/>
	<path style="fill:#114B8A;" d="M108.838,3.934h-1.439V3.022h1.439V2.459c0-1.487,0.384-2.459,2.051-2.459
		c0.287,0,0.527,0.036,0.755,0.072l-0.048,0.911c-0.132-0.048-0.348-0.072-0.539-0.072c-0.972,0-1.092,0.624-1.092,1.451v0.66h1.619
		v0.912h-1.619v5.205h-1.127V3.934z"/>
	<path style="fill:#114B8A;" d="M115.484,2.878c1.859,0,3.106,1.343,3.106,3.203c0,1.751-1.271,3.202-3.106,3.202
		c-1.847,0-3.118-1.451-3.118-3.202C112.366,4.222,113.613,2.878,115.484,2.878z M115.484,8.372c1.319,0,1.907-1.199,1.907-2.291
		c0-1.164-0.708-2.291-1.907-2.291c-1.211,0-1.919,1.127-1.919,2.291C113.565,7.172,114.153,8.372,115.484,8.372z"/>
	<path style="fill:#114B8A;" d="M120.105,3.022h1.056V3.97h0.024c0.3-0.636,0.947-1.092,1.595-1.092
		c0.336,0,0.504,0.036,0.744,0.084V3.97c-0.204-0.084-0.432-0.108-0.624-0.108c-1.008,0-1.667,0.959-1.667,2.494v2.783h-1.128V3.022
		z"/>
	<path style="fill:#114B8A;" d="M128.397,3.454c0.563-0.335,1.235-0.576,2.015-0.576c1.752,0,2.459,0.864,2.459,2.531V7.94
		c0,0.695,0.024,1.02,0.048,1.199h-1.055V8.348h-0.024c-0.264,0.372-0.863,0.936-1.895,0.936c-1.319,0-2.243-0.576-2.243-1.907
		c0-1.535,1.679-2.015,2.843-2.015c0.443,0,0.755,0,1.199,0.024c0-1.056-0.384-1.595-1.512-1.595c-0.636,0-1.319,0.24-1.774,0.624
		L128.397,3.454z M131.744,6.225c-0.24,0-0.48-0.024-0.72-0.024c-0.612,0-2.123,0.096-2.123,1.175c0,0.648,0.624,0.996,1.14,0.996
		c1.115,0,1.703-0.696,1.703-1.607V6.225z"/>
	<path style="fill:#114B8A;" d="M139.111,8.275h-0.024c-0.3,0.456-0.995,1.008-2.086,1.008c-1.848,0-2.627-1.643-2.627-3.311
		c0-1.643,0.863-3.094,2.639-3.094c1.067,0,1.679,0.42,2.026,0.984h0.024V0.144h1.127v8.995h-1.079V8.275z M137.265,8.372
		c1.271,0,1.799-1.259,1.799-2.279c0-1.139-0.588-2.303-1.812-2.303c-1.223,0-1.703,1.151-1.679,2.267
		C135.549,7.016,136.053,8.372,137.265,8.372z"/>
	<path style="fill:#114B8A;" d="M147.522,9.139h-1.091V8.167h-0.024c-0.336,0.696-1.151,1.116-2.003,1.116
		c-1.583,0-2.291-0.983-2.291-2.626V3.022h1.128v3.167c0,1.427,0.312,2.123,1.295,2.183c1.283,0,1.859-1.031,1.859-2.519V3.022
		h1.127V9.139z"/>
	<path style="fill:#114B8A;" d="M149.59,0.144h1.127v8.995h-1.127V0.144z"/>
	<path style="fill:#114B8A;" d="M156.032,3.934h-1.619V7.28c0,0.708,0.432,1.091,0.947,1.091c0.348,0,0.6-0.108,0.768-0.216v0.959
		c-0.252,0.072-0.6,0.168-0.96,0.168c-1.163,0-1.883-0.552-1.883-1.775V3.934h-1.379V3.022h1.379V1.607l1.128-0.36v1.775h1.619
		V3.934z"/>
	<path style="fill:#114B8A;" d="M160.785,3.022h1.08v0.864h0.023c0.3-0.456,0.996-1.008,2.075-1.008
		c1.775,0,2.639,1.451,2.639,3.094c0,1.679-0.779,3.311-2.627,3.311c-1.079,0-1.69-0.42-2.038-0.983h-0.024v3.358h-1.128V3.022z
		 M163.724,3.79c-1.223,0-1.811,1.164-1.811,2.303c0,1.02,0.527,2.279,1.799,2.279c1.212,0,1.715-1.355,1.691-2.315
		C165.427,4.954,164.947,3.79,163.724,3.79z"/>
	<path style="fill:#114B8A;" d="M168.405,3.454c0.563-0.335,1.235-0.576,2.015-0.576c1.752,0,2.459,0.864,2.459,2.531V7.94
		c0,0.695,0.024,1.02,0.048,1.199h-1.055V8.348h-0.024c-0.264,0.372-0.863,0.936-1.895,0.936c-1.319,0-2.243-0.576-2.243-1.907
		c0-1.535,1.679-2.015,2.843-2.015c0.443,0,0.755,0,1.199,0.024c0-1.056-0.384-1.595-1.512-1.595c-0.636,0-1.319,0.24-1.774,0.624
		L168.405,3.454z M171.752,6.225c-0.24,0-0.48-0.024-0.72-0.024c-0.612,0-2.123,0.096-2.123,1.175c0,0.648,0.624,0.996,1.14,0.996
		c1.115,0,1.703-0.696,1.703-1.607V6.225z"/>
	<path style="fill:#114B8A;" d="M178.04,3.934h-1.619V7.28c0,0.708,0.432,1.091,0.947,1.091c0.348,0,0.6-0.108,0.768-0.216v0.959
		c-0.252,0.072-0.6,0.168-0.96,0.168c-1.163,0-1.883-0.552-1.883-1.775V3.934h-1.379V3.022h1.379V1.607l1.128-0.36v1.775h1.619
		V3.934z"/>
	<path style="fill:#114B8A;" d="M180.801,1.655h-1.271V0.384h1.271V1.655z M179.602,3.022h1.127v6.117h-1.127V3.022z"/>
	<path style="fill:#114B8A;" d="M187.482,8.887c-0.432,0.156-0.923,0.396-1.931,0.396c-2.171,0-3.166-1.319-3.166-3.311
		c0-1.811,1.14-3.094,2.866-3.094c2.039,0,2.698,1.487,2.698,3.454h-4.365c0,1.211,0.947,2.039,2.015,2.039
		c0.744,0,1.607-0.384,1.883-0.612V8.887z M186.751,5.493c0-0.936-0.552-1.703-1.522-1.703c-1.104,0-1.56,0.912-1.644,1.703H186.751
		z"/>
	<path style="fill:#114B8A;" d="M189.465,3.022h1.092v0.972h0.024c0.336-0.696,1.151-1.116,2.003-1.116
		c1.583,0,2.29,0.984,2.29,2.627v3.634h-1.127V5.973c0-1.427-0.312-2.123-1.295-2.183c-1.284,0-1.859,1.031-1.859,2.519v2.831
		h-1.128V3.022z"/>
	<path style="fill:#114B8A;" d="M200.048,3.934h-1.619V7.28c0,0.708,0.432,1.091,0.947,1.091c0.348,0,0.6-0.108,0.768-0.216v0.959
		c-0.252,0.072-0.6,0.168-0.96,0.168c-1.163,0-1.883-0.552-1.883-1.775V3.934h-1.379V3.022h1.379V1.607l1.128-0.36v1.775h1.619
		V3.934z"/>
	<path style="fill:#114B8A;" d="M201.01,7.94c0.443,0.288,1.079,0.432,1.403,0.432c0.516,0,1.151-0.216,1.151-0.875
		c0-1.115-2.65-1.02-2.65-2.734c0-1.271,0.947-1.883,2.158-1.883c0.528,0,0.96,0.108,1.403,0.24l-0.096,0.983
		c-0.252-0.156-0.924-0.312-1.188-0.312c-0.575,0-1.079,0.24-1.079,0.744c0,1.248,2.65,0.888,2.65,2.842
		c0,1.308-1.044,1.907-2.135,1.907c-0.576,0-1.164-0.06-1.68-0.336L201.01,7.94z"/>
	<path style="fill:#114B8A;" d="M216.39,9.139h-1.308l-1.583-5.133h-0.024l-1.547,5.133h-1.307l-1.968-6.117h1.235l1.403,5.062
		h0.024l1.559-5.062h1.332l1.535,5.062h0.023l1.487-5.062h1.104L216.39,9.139z"/>
	<path style="fill:#114B8A;" d="M220.809,1.655h-1.271V0.384h1.271V1.655z M219.609,3.022h1.127v6.117h-1.127V3.022z"/>
	<path style="fill:#114B8A;" d="M226.052,3.934h-1.619V7.28c0,0.708,0.432,1.091,0.947,1.091c0.348,0,0.6-0.108,0.768-0.216v0.959
		c-0.252,0.072-0.6,0.168-0.96,0.168c-1.163,0-1.883-0.552-1.883-1.775V3.934h-1.379V3.022h1.379V1.607l1.128-0.36v1.775h1.619
		V3.934z"/>
	<path style="fill:#114B8A;" d="M227.469,0.144h1.128v3.754h0.024c0.407-0.647,1.115-1.02,1.967-1.02c1.583,0,2.29,0.984,2.29,2.627
		v3.634h-1.127V5.973c0-1.427-0.312-2.123-1.295-2.183c-1.284,0-1.859,1.031-1.859,2.519v2.831h-1.128V0.144z"/>
	<path style="fill:#114B8A;" d="M12.383,16.454c0.564-0.335,1.235-0.576,2.016-0.576c1.751,0,2.458,0.864,2.458,2.531v2.531
		c0,0.695,0.024,1.02,0.049,1.199H15.85v-0.792h-0.024c-0.264,0.372-0.863,0.936-1.895,0.936c-1.319,0-2.243-0.576-2.243-1.907
		c0-1.535,1.68-2.015,2.843-2.015c0.443,0,0.756,0,1.199,0.024c0-1.056-0.384-1.595-1.511-1.595c-0.636,0-1.319,0.24-1.775,0.624
		L12.383,16.454z M15.729,19.225c-0.24,0-0.479-0.024-0.72-0.024c-0.611,0-2.123,0.096-2.123,1.175c0,0.648,0.624,0.996,1.14,0.996
		c1.115,0,1.703-0.696,1.703-1.607V19.225z"/>
	<path style="fill:#114B8A;" d="M18.312,20.94c0.443,0.288,1.079,0.432,1.403,0.432c0.516,0,1.151-0.216,1.151-0.875
		c0-1.115-2.65-1.02-2.65-2.734c0-1.271,0.947-1.883,2.158-1.883c0.528,0,0.96,0.108,1.403,0.24l-0.096,0.983
		c-0.252-0.156-0.924-0.312-1.188-0.312c-0.575,0-1.079,0.24-1.079,0.744c0,1.248,2.65,0.888,2.65,2.842
		c0,1.308-1.043,1.907-2.135,1.907c-0.575,0-1.163-0.06-1.679-0.336L18.312,20.94z"/>
	<path style="fill:#114B8A;" d="M26.686,16.934h-1.619v3.346c0,0.708,0.432,1.091,0.947,1.091c0.348,0,0.6-0.108,0.768-0.216v0.959
		c-0.252,0.072-0.6,0.168-0.959,0.168c-1.164,0-1.883-0.552-1.883-1.775v-3.574h-1.38v-0.912h1.38v-1.415l1.127-0.36v1.775h1.619
		V16.934z"/>
	<path style="fill:#114B8A;" d="M28.104,13.144h1.127v3.754h0.024c0.407-0.647,1.115-1.02,1.967-1.02
		c1.583,0,2.291,0.984,2.291,2.627v3.634h-1.128v-3.167c0-1.427-0.312-2.123-1.295-2.183c-1.283,0-1.859,1.031-1.859,2.519v2.831
		h-1.127V13.144z"/>
	<path style="fill:#114B8A;" d="M35.423,16.022h1.056v0.888h0.024c0.432-0.708,1.043-1.032,1.942-1.032
		c0.708,0,1.416,0.36,1.739,1.188c0.42-0.875,1.344-1.188,1.896-1.188c1.559,0,2.122,1.008,2.122,2.339v3.922h-1.127v-3.646
		c0-0.755-0.18-1.703-1.092-1.703c-1.151,0-1.606,1.127-1.606,2.267v3.083h-1.128v-3.646c0-0.755-0.18-1.703-1.091-1.703
		c-1.151,0-1.607,1.127-1.607,2.267v3.083h-1.128V16.022z"/>
	<path style="fill:#114B8A;" d="M46.391,16.454c0.564-0.335,1.235-0.576,2.016-0.576c1.751,0,2.458,0.864,2.458,2.531v2.531
		c0,0.695,0.024,1.02,0.049,1.199h-1.056v-0.792h-0.024c-0.264,0.372-0.863,0.936-1.895,0.936c-1.319,0-2.243-0.576-2.243-1.907
		c0-1.535,1.68-2.015,2.843-2.015c0.443,0,0.756,0,1.199,0.024c0-1.056-0.384-1.595-1.511-1.595c-0.636,0-1.319,0.24-1.775,0.624
		L46.391,16.454z M49.737,19.225c-0.24,0-0.479-0.024-0.72-0.024c-0.611,0-2.123,0.096-2.123,1.175c0,0.648,0.624,0.996,1.14,0.996
		c1.115,0,1.703-0.696,1.703-1.607V19.225z"/>
	<path style="fill:#114B8A;" d="M61.521,22.139h-1.092v-0.972h-0.024c-0.335,0.696-1.151,1.116-2.003,1.116
		c-1.583,0-2.29-0.983-2.29-2.626v-3.634h1.127v3.167c0,1.427,0.312,2.123,1.296,2.183c1.283,0,1.858-1.031,1.858-2.519v-2.831
		h1.128V22.139z"/>
	<path style="fill:#114B8A;" d="M63.443,16.022h1.091v0.972h0.024c0.336-0.696,1.151-1.116,2.003-1.116
		c1.583,0,2.29,0.984,2.29,2.627v3.634h-1.127v-3.167c0-1.427-0.312-2.123-1.295-2.183c-1.284,0-1.859,1.031-1.859,2.519v2.831
		h-1.127V16.022z"/>
	<path style="fill:#114B8A;" d="M74.661,17.054c-0.433-0.18-0.864-0.264-1.224-0.264c-1.26,0-1.967,1.127-1.967,2.291
		c0,1.091,0.588,2.291,2.039,2.291c0.384,0,0.863-0.12,1.211-0.348l0.084,1.007c-0.468,0.216-1.008,0.252-1.415,0.252
		c-1.847,0-3.118-1.451-3.118-3.202c0-1.859,1.247-3.203,3.118-3.203c0.456,0,1.043,0.108,1.367,0.24L74.661,17.054z"/>
	<path style="fill:#114B8A;" d="M78.813,15.878c1.859,0,3.106,1.343,3.106,3.203c0,1.751-1.271,3.202-3.106,3.202
		c-1.847,0-3.118-1.451-3.118-3.202C75.695,17.222,76.942,15.878,78.813,15.878z M78.813,21.372c1.319,0,1.907-1.199,1.907-2.291
		c0-1.164-0.708-2.291-1.907-2.291c-1.211,0-1.919,1.127-1.919,2.291C76.895,20.172,77.482,21.372,78.813,21.372z"/>
	<path style="fill:#114B8A;" d="M83.436,16.022h1.091v0.972h0.024c0.336-0.696,1.151-1.116,2.003-1.116
		c1.583,0,2.29,0.984,2.29,2.627v3.634h-1.127v-3.167c0-1.427-0.312-2.123-1.295-2.183c-1.284,0-1.859,1.031-1.859,2.519v2.831
		h-1.127V16.022z"/>
	<path style="fill:#114B8A;" d="M94.018,16.934h-1.619v3.346c0,0.708,0.432,1.091,0.947,1.091c0.348,0,0.6-0.108,0.768-0.216v0.959
		c-0.252,0.072-0.6,0.168-0.96,0.168c-1.163,0-1.883-0.552-1.883-1.775v-3.574h-1.379v-0.912h1.379v-1.415l1.128-0.36v1.775h1.619
		V16.934z"/>
	<path style="fill:#114B8A;" d="M95.436,16.022h1.055v0.948h0.024c0.3-0.636,0.947-1.092,1.595-1.092
		c0.336,0,0.504,0.036,0.744,0.084v1.008c-0.204-0.084-0.432-0.108-0.624-0.108c-1.008,0-1.667,0.959-1.667,2.494v2.783h-1.127
		V16.022z"/>
	<path style="fill:#114B8A;" d="M102.813,15.878c1.859,0,3.106,1.343,3.106,3.203c0,1.751-1.271,3.202-3.106,3.202
		c-1.847,0-3.118-1.451-3.118-3.202C99.695,17.222,100.942,15.878,102.813,15.878z M102.813,21.372c1.319,0,1.907-1.199,1.907-2.291
		c0-1.164-0.708-2.291-1.907-2.291c-1.211,0-1.919,1.127-1.919,2.291C100.895,20.172,101.482,21.372,102.813,21.372z"/>
	<path style="fill:#114B8A;" d="M107.579,13.144h1.127v8.995h-1.127V13.144z"/>
	<path style="fill:#114B8A;" d="M110.915,13.144h1.127v8.995h-1.127V13.144z"/>
	<path style="fill:#114B8A;" d="M118.796,21.887c-0.432,0.156-0.923,0.396-1.931,0.396c-2.171,0-3.166-1.319-3.166-3.311
		c0-1.811,1.14-3.094,2.866-3.094c2.039,0,2.698,1.487,2.698,3.454h-4.365c0,1.211,0.947,2.039,2.015,2.039
		c0.744,0,1.607-0.384,1.883-0.612V21.887z M118.064,18.493c0-0.936-0.552-1.703-1.522-1.703c-1.104,0-1.56,0.912-1.644,1.703
		H118.064z"/>
	<path style="fill:#114B8A;" d="M125.108,21.275h-0.024c-0.3,0.456-0.995,1.008-2.086,1.008c-1.848,0-2.627-1.643-2.627-3.311
		c0-1.643,0.863-3.094,2.639-3.094c1.067,0,1.679,0.42,2.026,0.984h0.024v-3.718h1.127v8.995h-1.079V21.275z M123.262,21.372
		c1.271,0,1.799-1.259,1.799-2.279c0-1.139-0.588-2.303-1.812-2.303c-1.223,0-1.702,1.151-1.679,2.267
		C121.547,20.016,122.05,21.372,123.262,21.372z"/>
	<path style="fill:#114B8A;" d="M134.157,15.878c1.859,0,3.106,1.343,3.106,3.203c0,1.751-1.271,3.202-3.106,3.202
		c-1.847,0-3.118-1.451-3.118-3.202C131.039,17.222,132.286,15.878,134.157,15.878z M134.157,21.372
		c1.319,0,1.907-1.199,1.907-2.291c0-1.164-0.708-2.291-1.907-2.291c-1.211,0-1.919,1.127-1.919,2.291
		C132.238,20.172,132.826,21.372,134.157,21.372z"/>
	<path style="fill:#114B8A;" d="M138.779,16.022h1.091v0.972h0.024c0.336-0.696,1.151-1.116,2.003-1.116
		c1.583,0,2.29,0.984,2.29,2.627v3.634h-1.127v-3.167c0-1.427-0.312-2.123-1.295-2.183c-1.284,0-1.859,1.031-1.859,2.519v2.831
		h-1.127V16.022z"/>
	<path style="fill:#114B8A;" d="M149.734,16.454c0.563-0.335,1.235-0.576,2.016-0.576c1.751,0,2.458,0.864,2.458,2.531v2.531
		c0,0.695,0.024,1.02,0.048,1.199h-1.055v-0.792h-0.024c-0.264,0.372-0.863,0.936-1.895,0.936c-1.319,0-2.243-0.576-2.243-1.907
		c0-1.535,1.679-2.015,2.843-2.015c0.443,0,0.755,0,1.199,0.024c0-1.056-0.384-1.595-1.512-1.595c-0.636,0-1.319,0.24-1.774,0.624
		L149.734,16.454z M153.081,19.225c-0.24,0-0.48-0.024-0.72-0.024c-0.611,0-2.123,0.096-2.123,1.175c0,0.648,0.624,0.996,1.14,0.996
		c1.115,0,1.703-0.696,1.703-1.607V19.225z"/>
	<path style="fill:#114B8A;" d="M156.119,16.022h1.091v0.972h0.024c0.336-0.696,1.151-1.116,2.003-1.116
		c1.583,0,2.29,0.984,2.29,2.627v3.634H160.4v-3.167c0-1.427-0.312-2.123-1.295-2.183c-1.284,0-1.859,1.031-1.859,2.519v2.831
		h-1.127V16.022z"/>
	<path style="fill:#114B8A;" d="M166.895,13.768h1.199v8.372h-1.199V13.768z"/>
	<path style="fill:#114B8A;" d="M176.012,15.147c-0.528-0.312-1.116-0.468-1.728-0.468c-1.931,0-3.214,1.391-3.214,3.274
		c0,1.967,1.415,3.274,3.154,3.274c0.6,0,1.403-0.156,1.822-0.408l0.072,1.164c-0.636,0.264-1.415,0.3-1.907,0.3
		c-2.65,0-4.413-1.703-4.413-4.366c0-2.579,1.871-4.293,4.426-4.293c0.647,0,1.283,0.096,1.883,0.359L176.012,15.147z"/>
	<path style="fill:#114B8A;" d="M181.364,15.027c-0.611-0.24-0.947-0.348-1.571-0.348c-0.671,0-1.463,0.24-1.463,1.115
		c0,1.607,3.598,1.235,3.598,3.994c0,1.787-1.379,2.495-3.058,2.495c-0.588,0-1.164-0.168-1.716-0.348l0.12-1.115
		c0.408,0.168,1.128,0.408,1.739,0.408c0.684,0,1.644-0.384,1.644-1.367c0-1.871-3.599-1.355-3.599-3.958
		c0-1.487,1.176-2.278,2.687-2.278c0.552,0,1.212,0.096,1.787,0.3L181.364,15.027z"/>
	<path style="fill:#114B8A;" d="M189.501,15.878c1.859,0,3.106,1.343,3.106,3.203c0,1.751-1.271,3.202-3.106,3.202
		c-1.847,0-3.118-1.451-3.118-3.202C186.383,17.222,187.63,15.878,189.501,15.878z M189.501,21.372c1.319,0,1.907-1.199,1.907-2.291
		c0-1.164-0.708-2.291-1.907-2.291c-1.211,0-1.919,1.127-1.919,2.291C187.582,20.172,188.17,21.372,189.501,21.372z"/>
	<path style="fill:#114B8A;" d="M194.123,16.022h1.055v0.948h0.024c0.3-0.636,0.947-1.092,1.595-1.092
		c0.336,0,0.504,0.036,0.744,0.084v1.008c-0.204-0.084-0.432-0.108-0.624-0.108c-1.008,0-1.667,0.959-1.667,2.494v2.783h-1.127
		V16.022z"/>
	<path style="fill:#114B8A;" d="M209.047,22.139h-1.308l-1.583-5.133h-0.024l-1.547,5.133h-1.308l-1.967-6.117h1.235l1.403,5.062
		h0.024l1.559-5.062h1.332l1.535,5.062h0.023l1.487-5.062h1.104L209.047,22.139z"/>
	<path style="fill:#114B8A;" d="M212.123,13.144h1.127v3.754h0.023c0.408-0.647,1.116-1.02,1.968-1.02
		c1.583,0,2.29,0.984,2.29,2.627v3.634h-1.127v-3.167c0-1.427-0.312-2.123-1.295-2.183c-1.284,0-1.859,1.031-1.859,2.519v2.831
		h-1.127V13.144z"/>
	<path style="fill:#114B8A;" d="M222.165,15.878c1.859,0,3.106,1.343,3.106,3.203c0,1.751-1.271,3.202-3.106,3.202
		c-1.847,0-3.118-1.451-3.118-3.202C219.047,17.222,220.294,15.878,222.165,15.878z M222.165,21.372
		c1.319,0,1.907-1.199,1.907-2.291c0-1.164-0.708-2.291-1.907-2.291c-1.211,0-1.919,1.127-1.919,2.291
		C220.246,20.172,220.834,21.372,222.165,21.372z"/>
	<path style="fill:#114B8A;" d="M226.331,20.94c0.443,0.288,1.079,0.432,1.403,0.432c0.516,0,1.151-0.216,1.151-0.875
		c0-1.115-2.65-1.02-2.65-2.734c0-1.271,0.947-1.883,2.158-1.883c0.528,0,0.96,0.108,1.403,0.24l-0.096,0.983
		c-0.252-0.156-0.924-0.312-1.188-0.312c-0.576,0-1.079,0.24-1.079,0.744c0,1.248,2.65,0.888,2.65,2.842
		c0,1.308-1.044,1.907-2.135,1.907c-0.576,0-1.163-0.06-1.68-0.336L226.331,20.94z"/>
	<path style="fill:#114B8A;" d="M236.144,21.887c-0.432,0.156-0.923,0.396-1.931,0.396c-2.171,0-3.166-1.319-3.166-3.311
		c0-1.811,1.14-3.094,2.866-3.094c2.039,0,2.698,1.487,2.698,3.454h-4.365c0,1.211,0.947,2.039,2.015,2.039
		c0.744,0,1.607-0.384,1.883-0.612V21.887z M235.412,18.493c0-0.936-0.552-1.703-1.522-1.703c-1.104,0-1.56,0.912-1.644,1.703
		H235.412z"/>
	<path style="fill:#114B8A;" d="M4.737,34.275H4.713c-0.3,0.456-0.995,1.008-2.087,1.008C0.779,35.283,0,33.64,0,31.973
		c0-1.643,0.863-3.094,2.639-3.094c1.067,0,1.679,0.42,2.026,0.984h0.024v-3.718h1.127v8.995H4.737V34.275z M2.89,34.372
		c1.271,0,1.8-1.259,1.8-2.279c0-1.139-0.588-2.303-1.812-2.303s-1.703,1.151-1.679,2.267C1.175,33.016,1.679,34.372,2.89,34.372z"
		/>
	<path style="fill:#114B8A;" d="M9.083,27.655H7.812v-1.271h1.271V27.655z M7.884,29.022h1.127v6.117H7.884V29.022z"/>
	<path style="fill:#114B8A;" d="M10.62,33.94c0.443,0.288,1.079,0.432,1.402,0.432c0.517,0,1.151-0.216,1.151-0.875
		c0-1.115-2.65-1.02-2.65-2.734c0-1.271,0.948-1.883,2.159-1.883c0.527,0,0.959,0.108,1.403,0.24l-0.096,0.983
		c-0.252-0.156-0.924-0.312-1.188-0.312c-0.576,0-1.08,0.24-1.08,0.744c0,1.248,2.651,0.888,2.651,2.842
		c0,1.308-1.044,1.907-2.135,1.907c-0.576,0-1.164-0.06-1.68-0.336L10.62,33.94z"/>
	<path style="fill:#114B8A;" d="M20.433,34.887c-0.432,0.156-0.923,0.396-1.931,0.396c-2.171,0-3.166-1.319-3.166-3.311
		c0-1.811,1.139-3.094,2.866-3.094c2.039,0,2.698,1.487,2.698,3.454h-4.365c0,1.211,0.947,2.039,2.015,2.039
		c0.743,0,1.607-0.384,1.883-0.612V34.887z M19.701,31.493c0-0.936-0.552-1.703-1.523-1.703c-1.104,0-1.559,0.912-1.643,1.703
		H19.701z"/>
	<path style="fill:#114B8A;" d="M22.703,29.454c0.563-0.335,1.235-0.576,2.015-0.576c1.751,0,2.459,0.864,2.459,2.531v2.531
		c0,0.695,0.023,1.02,0.048,1.199h-1.056v-0.792h-0.023c-0.264,0.372-0.864,0.936-1.896,0.936c-1.319,0-2.242-0.576-2.242-1.907
		c0-1.535,1.679-2.015,2.842-2.015c0.444,0,0.756,0,1.199,0.024c0-1.056-0.384-1.595-1.511-1.595c-0.636,0-1.319,0.24-1.775,0.624
		L22.703,29.454z M26.049,32.225c-0.239,0-0.479-0.024-0.719-0.024c-0.612,0-2.123,0.096-2.123,1.175
		c0,0.648,0.623,0.996,1.14,0.996c1.115,0,1.702-0.696,1.702-1.607V32.225z"/>
	<path style="fill:#114B8A;" d="M28.632,33.94c0.443,0.288,1.079,0.432,1.402,0.432c0.517,0,1.151-0.216,1.151-0.875
		c0-1.115-2.65-1.02-2.65-2.734c0-1.271,0.948-1.883,2.159-1.883c0.527,0,0.959,0.108,1.403,0.24l-0.096,0.983
		c-0.252-0.156-0.924-0.312-1.188-0.312c-0.576,0-1.08,0.24-1.08,0.744c0,1.248,2.651,0.888,2.651,2.842
		c0,1.308-1.044,1.907-2.135,1.907c-0.576,0-1.164-0.06-1.68-0.336L28.632,33.94z"/>
	<path style="fill:#114B8A;" d="M38.444,34.887c-0.432,0.156-0.923,0.396-1.931,0.396c-2.171,0-3.166-1.319-3.166-3.311
		c0-1.811,1.139-3.094,2.866-3.094c2.039,0,2.698,1.487,2.698,3.454h-4.365c0,1.211,0.947,2.039,2.015,2.039
		c0.743,0,1.607-0.384,1.883-0.612V34.887z M37.713,31.493c0-0.936-0.552-1.703-1.523-1.703c-1.104,0-1.559,0.912-1.643,1.703
		H37.713z"/>
	<path style="fill:#114B8A;" d="M43.308,33.94c0.443,0.288,1.079,0.432,1.402,0.432c0.517,0,1.151-0.216,1.151-0.875
		c0-1.115-2.65-1.02-2.65-2.734c0-1.271,0.948-1.883,2.159-1.883c0.527,0,0.959,0.108,1.403,0.24l-0.096,0.983
		c-0.252-0.156-0.924-0.312-1.188-0.312c-0.576,0-1.08,0.24-1.08,0.744c0,1.248,2.651,0.888,2.651,2.842
		c0,1.308-1.044,1.907-2.135,1.907c-0.576,0-1.164-0.06-1.68-0.336L43.308,33.94z"/>
	<path style="fill:#114B8A;" d="M53.12,34.887c-0.432,0.156-0.923,0.396-1.931,0.396c-2.171,0-3.166-1.319-3.166-3.311
		c0-1.811,1.139-3.094,2.866-3.094c2.039,0,2.698,1.487,2.698,3.454h-4.365c0,1.211,0.947,2.039,2.015,2.039
		c0.743,0,1.607-0.384,1.883-0.612V34.887z M52.389,31.493c0-0.936-0.552-1.703-1.523-1.703c-1.104,0-1.559,0.912-1.643,1.703
		H52.389z"/>
	<path style="fill:#114B8A;" d="M57.813,35.139H56.47l-2.194-6.117h1.235l1.655,4.989h0.023l1.691-4.989h1.127L57.813,35.139z"/>
	<path style="fill:#114B8A;" d="M65.792,34.887c-0.432,0.156-0.924,0.396-1.931,0.396c-2.171,0-3.166-1.319-3.166-3.311
		c0-1.811,1.139-3.094,2.866-3.094c2.038,0,2.698,1.487,2.698,3.454h-4.365c0,1.211,0.947,2.039,2.015,2.039
		c0.743,0,1.606-0.384,1.883-0.612V34.887z M65.061,31.493c0-0.936-0.552-1.703-1.523-1.703c-1.104,0-1.559,0.912-1.643,1.703
		H65.061z"/>
	<path style="fill:#114B8A;" d="M67.775,29.022h1.055v0.948h0.024c0.3-0.636,0.947-1.092,1.595-1.092
		c0.336,0,0.504,0.036,0.744,0.084v1.008c-0.204-0.084-0.432-0.108-0.624-0.108c-1.008,0-1.667,0.959-1.667,2.494v2.783h-1.127
		V29.022z"/>
	<path style="fill:#114B8A;" d="M73.786,27.655h-1.271v-1.271h1.271V27.655z M72.587,29.022h1.127v6.117h-1.127V29.022z"/>
	<path style="fill:#114B8A;" d="M79.029,29.934H77.41v3.346c0,0.708,0.432,1.091,0.947,1.091c0.348,0,0.6-0.108,0.768-0.216v0.959
		c-0.252,0.072-0.6,0.168-0.96,0.168c-1.163,0-1.883-0.552-1.883-1.775v-3.574h-1.379v-0.912h1.379v-1.415l1.128-0.36v1.775h1.619
		V29.934z"/>
	<path style="fill:#114B8A;" d="M79.991,36.794c0.144,0.048,0.336,0.096,0.527,0.096c1.008,0,1.344-1.391,1.344-1.511
		c0-0.132-0.145-0.444-0.216-0.647l-2.075-5.709h1.235l1.643,5.062h0.024l1.679-5.062h1.14l-2.255,6.249
		c-0.42,1.175-0.863,2.531-2.351,2.531c-0.359,0-0.563-0.048-0.768-0.084L79.991,36.794z"/>
	<path style="fill:#114B8A;" d="M93.669,30.054c-0.433-0.18-0.864-0.264-1.224-0.264c-1.26,0-1.967,1.127-1.967,2.291
		c0,1.091,0.588,2.291,2.039,2.291c0.384,0,0.863-0.12,1.211-0.348l0.084,1.007c-0.468,0.216-1.008,0.252-1.415,0.252
		c-1.847,0-3.118-1.451-3.118-3.202c0-1.859,1.247-3.203,3.118-3.203c0.456,0,1.043,0.108,1.367,0.24L93.669,30.054z"/>
	<path style="fill:#114B8A;" d="M95.255,26.144h1.127v8.995h-1.127V26.144z"/>
	<path style="fill:#114B8A;" d="M103.136,34.887c-0.432,0.156-0.923,0.396-1.931,0.396c-2.171,0-3.166-1.319-3.166-3.311
		c0-1.811,1.14-3.094,2.866-3.094c2.039,0,2.698,1.487,2.698,3.454h-4.365c0,1.211,0.947,2.039,2.015,2.039
		c0.744,0,1.607-0.384,1.883-0.612V34.887z M102.404,31.493c0-0.936-0.552-1.703-1.522-1.703c-1.104,0-1.56,0.912-1.644,1.703
		H102.404z"/>
	<path style="fill:#114B8A;" d="M105.406,29.454c0.563-0.335,1.235-0.576,2.016-0.576c1.751,0,2.458,0.864,2.458,2.531v2.531
		c0,0.695,0.024,1.02,0.048,1.199h-1.055v-0.792h-0.024c-0.264,0.372-0.863,0.936-1.895,0.936c-1.319,0-2.243-0.576-2.243-1.907
		c0-1.535,1.679-2.015,2.843-2.015c0.443,0,0.755,0,1.199,0.024c0-1.056-0.384-1.595-1.512-1.595c-0.636,0-1.319,0.24-1.774,0.624
		L105.406,29.454z M108.753,32.225c-0.24,0-0.48-0.024-0.72-0.024c-0.611,0-2.123,0.096-2.123,1.175c0,0.648,0.624,0.996,1.14,0.996
		c1.115,0,1.703-0.696,1.703-1.607V32.225z"/>
	<path style="fill:#114B8A;" d="M111.791,29.022h1.055v0.948h0.024c0.3-0.636,0.947-1.092,1.595-1.092
		c0.336,0,0.504,0.036,0.744,0.084v1.008c-0.204-0.084-0.432-0.108-0.624-0.108c-1.008,0-1.667,0.959-1.667,2.494v2.783h-1.127
		V29.022z"/>
	<path style="fill:#114B8A;" d="M116.603,26.144h1.127v8.995h-1.127V26.144z"/>
	<path style="fill:#114B8A;" d="M119.339,36.794c0.144,0.048,0.336,0.096,0.527,0.096c1.008,0,1.344-1.391,1.344-1.511
		c0-0.132-0.145-0.444-0.216-0.647l-2.075-5.709h1.235l1.643,5.062h0.024l1.679-5.062h1.14l-2.255,6.249
		c-0.42,1.175-0.863,2.531-2.351,2.531c-0.359,0-0.563-0.048-0.768-0.084L119.339,36.794z"/>
	<path style="fill:#114B8A;" d="M136.051,35.139h-1.308l-1.583-5.133h-0.024l-1.547,5.133h-1.308l-1.967-6.117h1.235l1.403,5.062
		h0.024l1.559-5.062h1.332l1.535,5.062h0.023l1.487-5.062h1.104L136.051,35.139z"/>
	<path style="fill:#114B8A;" d="M139.414,29.454c0.563-0.335,1.235-0.576,2.016-0.576c1.751,0,2.458,0.864,2.458,2.531v2.531
		c0,0.695,0.024,1.02,0.048,1.199h-1.055v-0.792h-0.024c-0.264,0.372-0.863,0.936-1.895,0.936c-1.319,0-2.243-0.576-2.243-1.907
		c0-1.535,1.679-2.015,2.843-2.015c0.443,0,0.755,0,1.199,0.024c0-1.056-0.384-1.595-1.512-1.595c-0.636,0-1.319,0.24-1.774,0.624
		L139.414,29.454z M142.761,32.225c-0.24,0-0.48-0.024-0.72-0.024c-0.611,0-2.123,0.096-2.123,1.175c0,0.648,0.624,0.996,1.14,0.996
		c1.115,0,1.703-0.696,1.703-1.607V32.225z"/>
	<path style="fill:#114B8A;" d="M145.799,29.022h1.055v0.948h0.024c0.3-0.636,0.947-1.092,1.595-1.092
		c0.336,0,0.504,0.036,0.744,0.084v1.008c-0.204-0.084-0.432-0.108-0.624-0.108c-1.008,0-1.667,0.959-1.667,2.494v2.783h-1.127
		V29.022z"/>
	<path style="fill:#114B8A;" d="M150.467,29.022h1.055v0.948h0.024c0.3-0.636,0.947-1.092,1.595-1.092
		c0.336,0,0.504,0.036,0.744,0.084v1.008c-0.204-0.084-0.432-0.108-0.624-0.108c-1.008,0-1.667,0.959-1.667,2.494v2.783h-1.127
		V29.022z"/>
	<path style="fill:#114B8A;" d="M155.422,29.454c0.563-0.335,1.235-0.576,2.016-0.576c1.751,0,2.458,0.864,2.458,2.531v2.531
		c0,0.695,0.024,1.02,0.048,1.199h-1.055v-0.792h-0.024c-0.264,0.372-0.863,0.936-1.895,0.936c-1.319,0-2.243-0.576-2.243-1.907
		c0-1.535,1.679-2.015,2.843-2.015c0.443,0,0.755,0,1.199,0.024c0-1.056-0.384-1.595-1.512-1.595c-0.636,0-1.319,0.24-1.774,0.624
		L155.422,29.454z M158.769,32.225c-0.24,0-0.48-0.024-0.72-0.024c-0.611,0-2.123,0.096-2.123,1.175c0,0.648,0.624,0.996,1.14,0.996
		c1.115,0,1.703-0.696,1.703-1.607V32.225z"/>
	<path style="fill:#114B8A;" d="M161.807,29.022h1.091v0.972h0.024c0.336-0.696,1.151-1.116,2.003-1.116
		c1.583,0,2.29,0.984,2.29,2.627v3.634h-1.127v-3.167c0-1.427-0.312-2.123-1.295-2.183c-1.284,0-1.859,1.031-1.859,2.519v2.831
		h-1.127V29.022z"/>
	<path style="fill:#114B8A;" d="M172.389,29.934h-1.619v3.346c0,0.708,0.432,1.091,0.947,1.091c0.348,0,0.6-0.108,0.768-0.216v0.959
		c-0.252,0.072-0.6,0.168-0.96,0.168c-1.163,0-1.883-0.552-1.883-1.775v-3.574h-1.379v-0.912h1.379v-1.415l1.128-0.36v1.775h1.619
		V29.934z"/>
	<path style="fill:#114B8A;" d="M173.351,33.94c0.443,0.288,1.079,0.432,1.403,0.432c0.516,0,1.151-0.216,1.151-0.875
		c0-1.115-2.65-1.02-2.65-2.734c0-1.271,0.947-1.883,2.158-1.883c0.528,0,0.96,0.108,1.403,0.24l-0.096,0.983
		c-0.252-0.156-0.924-0.312-1.188-0.312c-0.576,0-1.079,0.24-1.079,0.744c0,1.248,2.65,0.888,2.65,2.842
		c0,1.308-1.044,1.907-2.135,1.907c-0.576,0-1.163-0.06-1.68-0.336L173.351,33.94z"/>
	<path style="fill:#114B8A;" d="M182.098,29.454c0.563-0.335,1.235-0.576,2.016-0.576c1.751,0,2.458,0.864,2.458,2.531v2.531
		c0,0.695,0.024,1.02,0.048,1.199h-1.055v-0.792h-0.024c-0.264,0.372-0.863,0.936-1.895,0.936c-1.319,0-2.243-0.576-2.243-1.907
		c0-1.535,1.679-2.015,2.843-2.015c0.443,0,0.755,0,1.199,0.024c0-1.056-0.384-1.595-1.512-1.595c-0.636,0-1.319,0.24-1.774,0.624
		L182.098,29.454z M185.444,32.225c-0.24,0-0.48-0.024-0.72-0.024c-0.611,0-2.123,0.096-2.123,1.175c0,0.648,0.624,0.996,1.14,0.996
		c1.115,0,1.703-0.696,1.703-1.607V32.225z"/>
	<path style="fill:#114B8A;" d="M188.482,29.022h1.091v0.972h0.024c0.336-0.696,1.151-1.116,2.003-1.116
		c1.583,0,2.29,0.984,2.29,2.627v3.634h-1.127v-3.167c0-1.427-0.312-2.123-1.295-2.183c-1.284,0-1.859,1.031-1.859,2.519v2.831
		h-1.127V29.022z"/>
	<path style="fill:#114B8A;" d="M199.258,26.768h1.199v8.372h-1.199V26.768z"/>
	<path style="fill:#114B8A;" d="M208.375,28.147c-0.528-0.312-1.116-0.468-1.728-0.468c-1.931,0-3.214,1.391-3.214,3.274
		c0,1.967,1.415,3.274,3.154,3.274c0.6,0,1.403-0.156,1.822-0.408l0.072,1.164c-0.636,0.264-1.415,0.3-1.907,0.3
		c-2.65,0-4.413-1.703-4.413-4.366c0-2.579,1.871-4.293,4.426-4.293c0.647,0,1.283,0.096,1.883,0.359L208.375,28.147z"/>
	<path style="fill:#114B8A;" d="M213.728,28.027c-0.611-0.24-0.947-0.348-1.571-0.348c-0.671,0-1.463,0.24-1.463,1.115
		c0,1.607,3.598,1.235,3.598,3.994c0,1.787-1.379,2.495-3.058,2.495c-0.588,0-1.164-0.168-1.716-0.348l0.12-1.115
		c0.408,0.168,1.128,0.408,1.739,0.408c0.684,0,1.644-0.384,1.644-1.367c0-1.871-3.599-1.355-3.599-3.958
		c0-1.487,1.176-2.278,2.687-2.278c0.552,0,1.212,0.096,1.787,0.3L213.728,28.027z"/>
	<path style="fill:#114B8A;" d="M217.437,26.624h1.056l-2.878,8.659h-1.056L217.437,26.624z"/>
	<path style="fill:#114B8A;" d="M219.25,26.768h1.199v7.316h3.502v1.055h-4.701V26.768z"/>
	<path style="fill:#114B8A;" d="M227.912,26.768h1.26l3.538,8.372h-1.308l-0.852-2.111h-4.102l-0.852,2.111h-1.26L227.912,26.768z
		 M228.5,27.895l-1.667,4.15h3.334L228.5,27.895z"/>
	<path style="fill:#114B8A;" d="M233.854,26.768h2.268c1.738,0,2.938,0.564,2.938,2.111c0,1.151-0.671,1.727-1.727,1.991v0.024
		c1.14,0.096,1.942,0.839,1.942,2.015c0,1.799-1.486,2.231-3.189,2.231h-2.231V26.768z M235.053,30.342h0.66
		c1.163,0,2.146-0.108,2.146-1.343c0-0.996-0.852-1.248-1.547-1.248h-1.26V30.342z M235.053,34.156h0.9
		c1.079,0,2.051-0.228,2.051-1.355c0-1.295-1.14-1.475-2.171-1.475h-0.78V34.156z"/>
	<path style="fill:#114B8A;" d="M243.908,26.768h1.26l3.538,8.372h-1.308l-0.852-2.111h-4.102l-0.852,2.111h-1.26L243.908,26.768z
		 M244.496,27.895l-1.667,4.15h3.334L244.496,27.895z"/>
	<path style="fill:#114B8A;" d="M17.447,52.768h2.267c1.739,0,2.938,0.564,2.938,2.111c0,1.151-0.672,1.727-1.727,1.991v0.024
		c1.139,0.096,1.942,0.839,1.942,2.015c0,1.799-1.487,2.231-3.19,2.231h-2.23V52.768z M18.646,56.342h0.66
		c1.163,0,2.146-0.108,2.146-1.343c0-0.996-0.852-1.248-1.547-1.248h-1.26V56.342z M18.646,60.156h0.899
		c1.08,0,2.051-0.228,2.051-1.355c0-1.295-1.139-1.475-2.171-1.475h-0.779V60.156z"/>
	<path style="fill:#114B8A;" d="M24.779,52.768h2.051c1.655,0,3.25,0.264,3.25,2.267c0,1.019-0.755,1.739-1.727,1.907v0.024
		c0.372,0.144,0.552,0.324,0.815,0.84l1.583,3.334h-1.367l-1.283-2.902c-0.372-0.815-0.768-0.815-1.403-0.815h-0.72v3.718h-1.199
		V52.768z M25.979,56.366h1.02c1.14,0,1.812-0.503,1.812-1.307c0-0.756-0.576-1.235-1.68-1.235h-1.151V56.366z"/>
	<path style="fill:#114B8A;" d="M32.243,52.768h4.689v1.056h-3.49v2.447h3.179v1.055h-3.179v2.759h3.49v1.055h-4.689V52.768z"/>
	<path style="fill:#114B8A;" d="M42.453,52.624c2.543,0,4.03,1.847,4.03,4.33c0,2.542-1.476,4.33-4.03,4.33s-4.029-1.787-4.029-4.33
		C38.424,54.471,39.911,52.624,42.453,52.624z M42.453,60.228c1.931,0,2.759-1.607,2.759-3.274c0-1.703-0.912-3.286-2.759-3.274
		c-1.847-0.012-2.759,1.571-2.759,3.274C39.694,58.621,40.522,60.228,42.453,60.228z"/>
	<path style="fill:#114B8A;" d="M52.763,53.655h-1.271v-1.271h1.271V53.655z M51.563,55.022h1.127v6.117h-1.127V55.022z"/>
	<path style="fill:#114B8A;" d="M54.3,59.94c0.443,0.288,1.079,0.432,1.402,0.432c0.517,0,1.151-0.216,1.151-0.875
		c0-1.115-2.65-1.02-2.65-2.734c0-1.271,0.948-1.883,2.159-1.883c0.527,0,0.959,0.108,1.403,0.24l-0.096,0.983
		c-0.252-0.156-0.924-0.312-1.188-0.312c-0.576,0-1.08,0.24-1.08,0.744c0,1.248,2.651,0.888,2.651,2.842
		c0,1.308-1.044,1.907-2.135,1.907c-0.576,0-1.164-0.06-1.68-0.336L54.3,59.94z"/>
	<path style="fill:#114B8A;" d="M62.854,52.768h1.632l3.693,6.74h0.024v-6.74h1.199v8.372h-1.535l-3.79-6.884h-0.024v6.884h-1.199
		V52.768z"/>
	<path style="fill:#114B8A;" d="M75.128,52.624c2.543,0,4.03,1.847,4.03,4.33c0,2.542-1.476,4.33-4.03,4.33
		c-2.554,0-4.029-1.787-4.029-4.33C71.099,54.471,72.586,52.624,75.128,52.624z M75.128,60.228c1.932,0,2.759-1.607,2.759-3.274
		c0-1.703-0.911-3.286-2.759-3.274c-1.847-0.012-2.758,1.571-2.758,3.274C72.37,58.621,73.197,60.228,75.128,60.228z"/>
	<path style="fill:#114B8A;" d="M82.533,53.823h-2.603v-1.056h6.404v1.056h-2.603v7.316h-1.199V53.823z"/>
	<path style="fill:#114B8A;" d="M92.109,53.655h-1.271v-1.271h1.271V53.655z M90.91,55.022h1.127v6.117H90.91V55.022z"/>
	<path style="fill:#114B8A;" d="M94.102,55.022h1.092v0.972h0.024c0.336-0.696,1.151-1.116,2.003-1.116
		c1.583,0,2.29,0.984,2.29,2.627v3.634h-1.127v-3.167c0-1.427-0.312-2.123-1.295-2.183c-1.284,0-1.859,1.031-1.859,2.519v2.831
		h-1.128V55.022z"/>
	<path style="fill:#114B8A;" d="M105.764,60.275h-0.024c-0.3,0.456-0.995,1.008-2.086,1.008c-1.848,0-2.627-1.643-2.627-3.311
		c0-1.643,0.863-3.094,2.639-3.094c1.067,0,1.679,0.42,2.026,0.984h0.024v-3.718h1.127v8.995h-1.079V60.275z M103.917,60.372
		c1.271,0,1.799-1.259,1.799-2.279c0-1.139-0.588-2.303-1.812-2.303c-1.223,0-1.703,1.151-1.679,2.267
		C102.201,59.016,102.705,60.372,103.917,60.372z"/>
	<path style="fill:#114B8A;" d="M110.109,53.655h-1.271v-1.271h1.271V53.655z M108.91,55.022h1.127v6.117h-1.127V55.022z"/>
	<path style="fill:#114B8A;" d="M115.988,56.054c-0.432-0.18-0.864-0.264-1.224-0.264c-1.26,0-1.967,1.127-1.967,2.291
		c0,1.091,0.588,2.291,2.039,2.291c0.384,0,0.863-0.12,1.211-0.348l0.084,1.007c-0.468,0.216-1.008,0.252-1.415,0.252
		c-1.848,0-3.118-1.451-3.118-3.202c0-1.859,1.247-3.203,3.118-3.203c0.455,0,1.043,0.108,1.367,0.24L115.988,56.054z"/>
	<path style="fill:#114B8A;" d="M117.718,55.454c0.563-0.335,1.235-0.576,2.015-0.576c1.752,0,2.459,0.864,2.459,2.531v2.531
		c0,0.695,0.024,1.02,0.048,1.199h-1.055v-0.792h-0.024c-0.264,0.372-0.863,0.936-1.895,0.936c-1.319,0-2.243-0.576-2.243-1.907
		c0-1.535,1.679-2.015,2.843-2.015c0.443,0,0.755,0,1.199,0.024c0-1.056-0.384-1.595-1.512-1.595c-0.636,0-1.319,0.24-1.774,0.624
		L117.718,55.454z M121.064,58.225c-0.24,0-0.48-0.024-0.72-0.024c-0.612,0-2.123,0.096-2.123,1.175c0,0.648,0.624,0.996,1.14,0.996
		c1.115,0,1.703-0.696,1.703-1.607V58.225z"/>
	<path style="fill:#114B8A;" d="M127.353,55.934h-1.619v3.346c0,0.708,0.432,1.091,0.947,1.091c0.348,0,0.6-0.108,0.768-0.216v0.959
		c-0.252,0.072-0.6,0.168-0.96,0.168c-1.163,0-1.883-0.552-1.883-1.775v-3.574h-1.379v-0.912h1.379v-1.415l1.128-0.36v1.775h1.619
		V55.934z"/>
	<path style="fill:#114B8A;" d="M133.459,60.887c-0.432,0.156-0.923,0.396-1.931,0.396c-2.171,0-3.166-1.319-3.166-3.311
		c0-1.811,1.14-3.094,2.866-3.094c2.039,0,2.698,1.487,2.698,3.454h-4.365c0,1.211,0.947,2.039,2.015,2.039
		c0.744,0,1.607-0.384,1.883-0.612V60.887z M132.728,57.493c0-0.936-0.552-1.703-1.522-1.703c-1.104,0-1.56,0.912-1.644,1.703
		H132.728z"/>
	<path style="fill:#114B8A;" d="M139.771,60.275h-0.024c-0.3,0.456-0.995,1.008-2.086,1.008c-1.848,0-2.627-1.643-2.627-3.311
		c0-1.643,0.863-3.094,2.639-3.094c1.067,0,1.679,0.42,2.026,0.984h0.024v-3.718h1.127v8.995h-1.079V60.275z M137.925,60.372
		c1.271,0,1.799-1.259,1.799-2.279c0-1.139-0.588-2.303-1.812-2.303c-1.223,0-1.703,1.151-1.679,2.267
		C136.209,59.016,136.713,60.372,137.925,60.372z"/>
	<path style="fill:#114B8A;" d="M146.842,55.934h-1.439v-0.912h1.439v-0.563c0-1.487,0.384-2.459,2.051-2.459
		c0.287,0,0.527,0.036,0.755,0.072l-0.048,0.911c-0.132-0.048-0.348-0.072-0.539-0.072c-0.972,0-1.092,0.624-1.092,1.451v0.66h1.619
		v0.912h-1.619v5.205h-1.127V55.934z"/>
	<path style="fill:#114B8A;" d="M153.488,54.878c1.859,0,3.106,1.343,3.106,3.203c0,1.751-1.271,3.202-3.106,3.202
		c-1.847,0-3.118-1.451-3.118-3.202C150.37,56.222,151.617,54.878,153.488,54.878z M153.488,60.372c1.319,0,1.907-1.199,1.907-2.291
		c0-1.164-0.708-2.291-1.907-2.291c-1.211,0-1.919,1.127-1.919,2.291C151.569,59.172,152.157,60.372,153.488,60.372z"/>
	<path style="fill:#114B8A;" d="M158.109,55.022h1.056v0.948h0.024c0.3-0.636,0.947-1.092,1.595-1.092
		c0.336,0,0.504,0.036,0.744,0.084v1.008c-0.204-0.084-0.432-0.108-0.624-0.108c-1.008,0-1.667,0.959-1.667,2.494v2.783h-1.128
		V55.022z"/>
	<path style="fill:#114B8A;" d="M169.364,55.934h-1.619v3.346c0,0.708,0.432,1.091,0.947,1.091c0.348,0,0.6-0.108,0.768-0.216v0.959
		c-0.252,0.072-0.6,0.168-0.96,0.168c-1.163,0-1.883-0.552-1.883-1.775v-3.574h-1.379v-0.912h1.379v-1.415l1.128-0.36v1.775h1.619
		V55.934z"/>
	<path style="fill:#114B8A;" d="M170.781,52.144h1.128v3.754h0.024c0.407-0.647,1.115-1.02,1.967-1.02
		c1.583,0,2.29,0.984,2.29,2.627v3.634h-1.127v-3.167c0-1.427-0.312-2.123-1.295-2.183c-1.284,0-1.859,1.031-1.859,2.519v2.831
		h-1.128V52.144z"/>
	<path style="fill:#114B8A;" d="M182.803,60.887c-0.432,0.156-0.923,0.396-1.931,0.396c-2.171,0-3.166-1.319-3.166-3.311
		c0-1.811,1.14-3.094,2.866-3.094c2.039,0,2.698,1.487,2.698,3.454h-4.365c0,1.211,0.947,2.039,2.015,2.039
		c0.744,0,1.607-0.384,1.883-0.612V60.887z M182.071,57.493c0-0.936-0.552-1.703-1.522-1.703c-1.104,0-1.56,0.912-1.644,1.703
		H182.071z"/>
	<path style="fill:#114B8A;" d="M188.121,55.022h1.056v0.948h0.024c0.3-0.636,0.947-1.092,1.595-1.092
		c0.336,0,0.504,0.036,0.744,0.084v1.008c-0.204-0.084-0.432-0.108-0.624-0.108c-1.008,0-1.667,0.959-1.667,2.494v2.783h-1.128
		V55.022z"/>
	<path style="fill:#114B8A;" d="M197.479,60.887c-0.432,0.156-0.923,0.396-1.931,0.396c-2.171,0-3.166-1.319-3.166-3.311
		c0-1.811,1.14-3.094,2.866-3.094c2.039,0,2.698,1.487,2.698,3.454h-4.365c0,1.211,0.947,2.039,2.015,2.039
		c0.744,0,1.607-0.384,1.883-0.612V60.887z M196.747,57.493c0-0.936-0.552-1.703-1.522-1.703c-1.104,0-1.56,0.912-1.644,1.703
		H196.747z"/>
	<path style="fill:#114B8A;" d="M199.605,52.144h1.127v8.995h-1.127V52.144z"/>
	<path style="fill:#114B8A;" d="M204.141,53.655h-1.271v-1.271h1.271V53.655z M202.941,55.022h1.127v6.117h-1.127V55.022z"/>
	<path style="fill:#114B8A;" d="M210.822,60.887c-0.432,0.156-0.923,0.396-1.931,0.396c-2.171,0-3.166-1.319-3.166-3.311
		c0-1.811,1.14-3.094,2.866-3.094c2.039,0,2.698,1.487,2.698,3.454h-4.365c0,1.211,0.947,2.039,2.015,2.039
		c0.744,0,1.607-0.384,1.883-0.612V60.887z M210.091,57.493c0-0.936-0.552-1.703-1.522-1.703c-1.104,0-1.56,0.912-1.644,1.703
		H210.091z"/>
	<path style="fill:#114B8A;" d="M213.537,55.934h-1.439v-0.912h1.439v-0.563c0-1.487,0.384-2.459,2.051-2.459
		c0.287,0,0.527,0.036,0.755,0.072l-0.048,0.911c-0.132-0.048-0.348-0.072-0.539-0.072c-0.972,0-1.092,0.624-1.092,1.451v0.66h1.619
		v0.912h-1.619v5.205h-1.127V55.934z"/>
	<path style="fill:#114B8A;" d="M223.52,54.878c1.859,0,3.106,1.343,3.106,3.203c0,1.751-1.271,3.202-3.106,3.202
		c-1.847,0-3.118-1.451-3.118-3.202C220.401,56.222,221.648,54.878,223.52,54.878z M223.52,60.372c1.319,0,1.907-1.199,1.907-2.291
		c0-1.164-0.708-2.291-1.907-2.291c-1.211,0-1.919,1.127-1.919,2.291C221.601,59.172,222.188,60.372,223.52,60.372z"/>
	<path style="fill:#114B8A;" d="M228.873,55.934h-1.439v-0.912h1.439v-0.563c0-1.487,0.384-2.459,2.051-2.459
		c0.287,0,0.527,0.036,0.755,0.072l-0.048,0.911c-0.132-0.048-0.348-0.072-0.539-0.072c-0.972,0-1.092,0.624-1.092,1.451v0.66h1.619
		v0.912H230v5.205h-1.127V55.934z"/>
	<path style="fill:#114B8A;" d="M68.062,68.454c0.563-0.335,1.235-0.576,2.016-0.576c1.751,0,2.458,0.864,2.458,2.531v2.531
		c0,0.695,0.024,1.02,0.048,1.199h-1.055v-0.792h-0.024c-0.264,0.372-0.863,0.936-1.895,0.936c-1.319,0-2.243-0.576-2.243-1.907
		c0-1.535,1.679-2.015,2.843-2.015c0.443,0,0.755,0,1.199,0.024c0-1.056-0.384-1.595-1.512-1.595c-0.636,0-1.319,0.24-1.774,0.624
		L68.062,68.454z M71.409,71.225c-0.24,0-0.48-0.024-0.72-0.024c-0.611,0-2.123,0.096-2.123,1.175c0,0.648,0.624,0.996,1.14,0.996
		c1.115,0,1.703-0.696,1.703-1.607V71.225z"/>
	<path style="fill:#114B8A;" d="M78.333,69.054c-0.433-0.18-0.864-0.264-1.224-0.264c-1.26,0-1.967,1.127-1.967,2.291
		c0,1.091,0.588,2.291,2.039,2.291c0.384,0,0.863-0.12,1.211-0.348l0.084,1.007c-0.468,0.216-1.008,0.252-1.415,0.252
		c-1.847,0-3.118-1.451-3.118-3.202c0-1.859,1.247-3.203,3.118-3.203c0.456,0,1.043,0.108,1.367,0.24L78.333,69.054z"/>
	<path style="fill:#114B8A;" d="M85.184,74.139h-1.091v-0.972h-0.024c-0.336,0.696-1.151,1.116-2.003,1.116
		c-1.583,0-2.29-0.983-2.29-2.626v-3.634h1.127v3.167c0,1.427,0.312,2.123,1.295,2.183c1.283,0,1.859-1.031,1.859-2.519v-2.831
		h1.127V74.139z"/>
	<path style="fill:#114B8A;" d="M90.357,68.934h-1.619v3.346c0,0.708,0.432,1.091,0.947,1.091c0.348,0,0.6-0.108,0.768-0.216v0.959
		c-0.252,0.072-0.6,0.168-0.96,0.168c-1.163,0-1.883-0.552-1.883-1.775v-3.574h-1.379v-0.912h1.379v-1.415l1.128-0.36v1.775h1.619
		V68.934z"/>
	<path style="fill:#114B8A;" d="M96.464,73.887c-0.432,0.156-0.923,0.396-1.931,0.396c-2.171,0-3.166-1.319-3.166-3.311
		c0-1.811,1.14-3.094,2.866-3.094c2.039,0,2.698,1.487,2.698,3.454h-4.365c0,1.211,0.947,2.039,2.015,2.039
		c0.744,0,1.607-0.384,1.883-0.612V73.887z M95.732,70.493c0-0.936-0.552-1.703-1.522-1.703c-1.104,0-1.56,0.912-1.644,1.703H95.732
		z"/>
	<path style="fill:#114B8A;" d="M101.783,65.144h1.127v3.718h0.023c0.349-0.564,0.96-0.984,2.027-0.984
		c1.775,0,2.639,1.451,2.639,3.094c0,1.679-0.779,3.311-2.627,3.311c-1.091,0-1.787-0.552-2.087-1.008h-0.023v0.864h-1.079V65.144z
		 M104.721,68.79c-1.223,0-1.811,1.164-1.811,2.303c0,1.02,0.527,2.279,1.799,2.279c1.212,0,1.715-1.355,1.691-2.315
		C106.424,69.954,105.944,68.79,104.721,68.79z"/>
	<path style="fill:#114B8A;" d="M109.115,68.022h1.055v0.948h0.024c0.3-0.636,0.947-1.092,1.595-1.092
		c0.336,0,0.504,0.036,0.744,0.084v1.008c-0.204-0.084-0.432-0.108-0.624-0.108c-1.008,0-1.667,0.959-1.667,2.494v2.783h-1.127
		V68.022z"/>
	<path style="fill:#114B8A;" d="M116.493,67.878c1.859,0,3.106,1.343,3.106,3.203c0,1.751-1.271,3.202-3.106,3.202
		c-1.847,0-3.118-1.451-3.118-3.202C113.375,69.222,114.622,67.878,116.493,67.878z M116.493,73.372
		c1.319,0,1.907-1.199,1.907-2.291c0-1.164-0.708-2.291-1.907-2.291c-1.211,0-1.919,1.127-1.919,2.291
		C114.574,72.172,115.162,73.372,116.493,73.372z"/>
	<path style="fill:#114B8A;" d="M121.115,68.022h1.091v0.972h0.024c0.336-0.696,1.151-1.116,2.003-1.116
		c1.583,0,2.29,0.984,2.29,2.627v3.634h-1.127v-3.167c0-1.427-0.312-2.123-1.295-2.183c-1.284,0-1.859,1.031-1.859,2.519v2.831
		h-1.127V68.022z"/>
	<path style="fill:#114B8A;" d="M132.333,69.054c-0.433-0.18-0.864-0.264-1.224-0.264c-1.26,0-1.967,1.127-1.967,2.291
		c0,1.091,0.588,2.291,2.039,2.291c0.384,0,0.863-0.12,1.211-0.348l0.084,1.007c-0.468,0.216-1.008,0.252-1.415,0.252
		c-1.847,0-3.118-1.451-3.118-3.202c0-1.859,1.247-3.203,3.118-3.203c0.456,0,1.043,0.108,1.367,0.24L132.333,69.054z"/>
	<path style="fill:#114B8A;" d="M133.775,65.144h1.127v3.754h0.023c0.408-0.647,1.116-1.02,1.968-1.02
		c1.583,0,2.29,0.984,2.29,2.627v3.634h-1.127v-3.167c0-1.427-0.312-2.123-1.295-2.183c-1.284,0-1.859,1.031-1.859,2.519v2.831
		h-1.127V65.144z"/>
	<path style="fill:#114B8A;" d="M143.817,67.878c1.859,0,3.106,1.343,3.106,3.203c0,1.751-1.271,3.202-3.106,3.202
		c-1.847,0-3.118-1.451-3.118-3.202C140.699,69.222,141.946,67.878,143.817,67.878z M143.817,73.372
		c1.319,0,1.907-1.199,1.907-2.291c0-1.164-0.708-2.291-1.907-2.291c-1.211,0-1.919,1.127-1.919,2.291
		C141.898,72.172,142.486,73.372,143.817,73.372z"/>
	<path style="fill:#114B8A;" d="M147.983,72.94c0.443,0.288,1.079,0.432,1.403,0.432c0.516,0,1.151-0.216,1.151-0.875
		c0-1.115-2.65-1.02-2.65-2.734c0-1.271,0.947-1.883,2.158-1.883c0.528,0,0.96,0.108,1.403,0.24l-0.096,0.983
		c-0.252-0.156-0.924-0.312-1.188-0.312c-0.576,0-1.079,0.24-1.079,0.744c0,1.248,2.65,0.888,2.65,2.842
		c0,1.308-1.044,1.907-2.135,1.907c-0.576,0-1.163-0.06-1.68-0.336L147.983,72.94z"/>
	<path style="fill:#114B8A;" d="M153.107,68.022h1.079v0.864h0.023c0.3-0.456,0.996-1.008,2.075-1.008
		c1.775,0,2.639,1.451,2.639,3.094c0,1.679-0.779,3.311-2.627,3.311c-1.079,0-1.69-0.42-2.039-0.983h-0.023v3.358h-1.127V68.022z
		 M156.045,68.79c-1.223,0-1.811,1.164-1.811,2.303c0,1.02,0.527,2.279,1.799,2.279c1.212,0,1.715-1.355,1.691-2.315
		C157.748,69.954,157.269,68.79,156.045,68.79z"/>
	<path style="fill:#114B8A;" d="M160.727,68.454c0.563-0.335,1.235-0.576,2.016-0.576c1.751,0,2.458,0.864,2.458,2.531v2.531
		c0,0.695,0.024,1.02,0.048,1.199h-1.055v-0.792h-0.024c-0.264,0.372-0.863,0.936-1.895,0.936c-1.319,0-2.243-0.576-2.243-1.907
		c0-1.535,1.679-2.015,2.843-2.015c0.443,0,0.755,0,1.199,0.024c0-1.056-0.384-1.595-1.512-1.595c-0.636,0-1.319,0.24-1.774,0.624
		L160.727,68.454z M164.073,71.225c-0.24,0-0.48-0.024-0.72-0.024c-0.611,0-2.123,0.096-2.123,1.175c0,0.648,0.624,0.996,1.14,0.996
		c1.115,0,1.703-0.696,1.703-1.607V71.225z"/>
	<path style="fill:#114B8A;" d="M166.655,72.94c0.443,0.288,1.079,0.432,1.403,0.432c0.516,0,1.151-0.216,1.151-0.875
		c0-1.115-2.65-1.02-2.65-2.734c0-1.271,0.947-1.883,2.158-1.883c0.528,0,0.96,0.108,1.403,0.24l-0.096,0.983
		c-0.252-0.156-0.924-0.312-1.188-0.312c-0.576,0-1.079,0.24-1.079,0.744c0,1.248,2.65,0.888,2.65,2.842
		c0,1.308-1.044,1.907-2.135,1.907c-0.576,0-1.163-0.06-1.68-0.336L166.655,72.94z"/>
	<path style="fill:#114B8A;" d="M171.767,68.022h1.056v0.888h0.024c0.432-0.708,1.043-1.032,1.942-1.032
		c0.708,0,1.415,0.36,1.739,1.188c0.42-0.875,1.343-1.188,1.895-1.188c1.56,0,2.123,1.008,2.123,2.339v3.922h-1.127v-3.646
		c0-0.755-0.181-1.703-1.092-1.703c-1.151,0-1.607,1.127-1.607,2.267v3.083h-1.127v-3.646c0-0.755-0.18-1.703-1.092-1.703
		c-1.151,0-1.606,1.127-1.606,2.267v3.083h-1.128V68.022z"/>
</g>
</svg>
