<?xml version="1.0" encoding="iso-8859-1"?>
<!-- Generator: Adobe Illustrator 19.1.0, SVG Export Plug-In . SVG Version: 6.00 Build 0)  -->
<svg version="1.1" id="Layer_1" xmlns="http://www.w3.org/2000/svg" xmlns:xlink="http://www.w3.org/1999/xlink" x="0px" y="0px"
	 viewBox="0 0 185.233 46.58" style="enable-background:new 0 0 185.233 46.58;" xml:space="preserve">
<g>
	<path style="fill:#114B8A;" d="M0,0.78h2.101V9.6h4.064v1.65H0V0.78z"/>
	<path style="fill:#114B8A;" d="M13.515,10.814C12.78,11.22,11.94,11.43,10.86,11.43c-2.55,0-4.035-1.47-4.035-4.005
		c0-2.235,1.186-4.08,3.585-4.08c2.865,0,3.675,1.965,3.675,4.665h-5.34c0.09,1.245,0.96,1.95,2.205,1.95
		c0.975,0,1.814-0.36,2.564-0.78V10.814z M12.165,6.63c-0.06-0.975-0.51-1.815-1.635-1.815S8.835,5.595,8.745,6.63H12.165z"/>
	<path style="fill:#114B8A;" d="M16.005,3.93c0.78-0.36,1.83-0.585,2.686-0.585c2.354,0,3.329,0.975,3.329,3.255v0.99
		c0,0.78,0.016,1.365,0.03,1.935c0.015,0.585,0.045,1.125,0.09,1.725h-1.77c-0.075-0.405-0.075-0.915-0.09-1.155h-0.03
		c-0.465,0.855-1.47,1.335-2.385,1.335c-1.365,0-2.7-0.825-2.7-2.295c0-1.155,0.555-1.83,1.32-2.205
		c0.765-0.375,1.755-0.45,2.595-0.45h1.11c0-1.245-0.556-1.665-1.74-1.665c-0.855,0-1.71,0.33-2.385,0.84L16.005,3.93z M18.36,9.959
		c0.614,0,1.095-0.27,1.41-0.69c0.329-0.435,0.42-0.99,0.42-1.59h-0.87c-0.9,0-2.235,0.15-2.235,1.335
		C17.085,9.675,17.64,9.959,18.36,9.959z"/>
	<path style="fill:#114B8A;" d="M24.045,3.525h1.785V5.28h0.03c0.09-0.72,0.915-1.935,2.114-1.935c0.195,0,0.405,0,0.615,0.06V5.43
		c-0.18-0.105-0.54-0.165-0.9-0.165c-1.635,0-1.635,2.04-1.635,3.15v2.835h-2.01V3.525z"/>
	<path style="fill:#114B8A;" d="M30.105,3.525h1.904v1.05h0.03c0.63-0.885,1.484-1.23,2.535-1.23c1.829,0,2.625,1.29,2.625,3.03
		v4.875h-2.011V7.125c0-0.945-0.015-2.22-1.305-2.22c-1.455,0-1.77,1.575-1.77,2.565v3.78h-2.01V3.525z"/>
	<path style="fill:#114B8A;" d="M43.44,0h2.01v4.575h0.029c0.511-0.75,1.38-1.23,2.431-1.23c1.829,0,2.625,1.29,2.625,3.03v4.875
		h-2.011V7.125c0-0.945-0.015-2.22-1.305-2.22c-1.455,0-1.77,1.575-1.77,2.565v3.78h-2.01V0z"/>
	<path style="fill:#114B8A;" d="M56.145,3.345c2.295,0,4.05,1.545,4.05,4.095c0,2.22-1.484,3.99-4.05,3.99
		c-2.55,0-4.034-1.77-4.034-3.99C52.11,4.89,53.865,3.345,56.145,3.345z M56.145,9.87c1.545,0,1.95-1.38,1.95-2.67
		c0-1.185-0.63-2.295-1.95-2.295c-1.305,0-1.935,1.14-1.935,2.295C54.21,8.475,54.615,9.87,56.145,9.87z"/>
	<path style="fill:#114B8A;" d="M60.9,3.525h2.13l1.71,5.715h0.029l1.561-5.715h2.34l1.68,5.715h0.03l1.604-5.715h1.92l-2.37,7.725
		h-2.37l-1.68-5.895h-0.03l-1.649,5.895H63.51L60.9,3.525z"/>
	<path style="fill:#114B8A;" d="M79.454,0.78h3.66c1.35,0,3.375,0.39,3.375,2.685c0,1.245-0.84,2.115-2.085,2.34v0.03
		c1.425,0.135,2.399,1.095,2.399,2.385c0,2.64-2.37,3.03-3.689,3.03h-3.66V0.78z M81.554,5.01h0.855
		c0.885,0,1.979-0.195,1.979-1.275c0-1.215-1.064-1.305-2.024-1.305h-0.811V5.01z M81.554,9.6h0.99c0.975,0,2.16-0.24,2.16-1.455
		c0-1.365-1.11-1.575-2.16-1.575h-0.99V9.6z"/>
	<path style="fill:#114B8A;" d="M88.439,0.78h2.265c2.25,0,4.935-0.075,4.935,2.835c0,1.23-0.824,2.25-2.159,2.43v0.03
		c0.569,0.045,0.899,0.615,1.109,1.08l1.68,4.095h-2.34l-1.26-3.27c-0.3-0.78-0.57-1.08-1.455-1.08h-0.675v4.35h-2.1V0.78z
		 M90.539,5.25h0.69c1.034,0,2.22-0.15,2.22-1.455c0-1.26-1.17-1.365-2.22-1.365h-0.69V5.25z"/>
	<path style="fill:#114B8A;" d="M97.784,0.78h6.18v1.65h-4.08v2.58h3.735v1.65h-3.735V9.6h4.11v1.65h-6.21V0.78z"/>
	<path style="fill:#114B8A;" d="M110.744,0.6c3.284,0,5.13,2.22,5.13,5.385c0,3.165-1.815,5.445-5.13,5.445
		c-3.36,0-5.13-2.235-5.13-5.445S107.414,0.6,110.744,0.6z M110.744,9.78c2.145,0,2.939-1.905,2.939-3.795
		c0-1.845-0.854-3.735-2.939-3.735s-2.94,1.89-2.94,3.735C107.804,7.875,108.599,9.78,110.744,9.78z"/>
	<path style="fill:#114B8A;" d="M121.754,3.525h1.875v1.08h0.03c0.63-0.945,1.545-1.26,2.295-1.26c1.08,0,1.845,0.405,2.279,1.365
		c0.465-0.93,1.471-1.365,2.415-1.365c1.905,0,2.445,1.305,2.445,3.03v4.875h-2.01V6.645c0-0.72,0-1.74-1.155-1.74
		c-1.335,0-1.5,1.59-1.5,2.595v3.75h-2.01V6.645c0-0.72,0-1.74-1.155-1.74c-1.335,0-1.5,1.59-1.5,2.595v3.75h-2.01V3.525z"/>
	<path style="fill:#114B8A;" d="M135.464,3.93c0.78-0.36,1.83-0.585,2.685-0.585c2.355,0,3.33,0.975,3.33,3.255v0.99
		c0,0.78,0.016,1.365,0.03,1.935c0.015,0.585,0.045,1.125,0.09,1.725h-1.77c-0.075-0.405-0.075-0.915-0.091-1.155h-0.029
		c-0.465,0.855-1.47,1.335-2.385,1.335c-1.365,0-2.7-0.825-2.7-2.295c0-1.155,0.555-1.83,1.32-2.205
		c0.765-0.375,1.755-0.45,2.595-0.45h1.109c0-1.245-0.555-1.665-1.739-1.665c-0.855,0-1.71,0.33-2.385,0.84L135.464,3.93z
		 M137.818,9.959c0.615,0,1.096-0.27,1.41-0.69c0.33-0.435,0.42-0.99,0.42-1.59h-0.87c-0.899,0-2.234,0.15-2.234,1.335
		C136.544,9.675,137.099,9.959,137.818,9.959z"/>
	<path style="fill:#114B8A;" d="M146.669,9.165h0.029l1.86-5.64h2.04l-2.895,7.665c-0.646,1.71-1.11,3.39-3.21,3.39
		c-0.48,0-0.96-0.075-1.426-0.21l0.136-1.485c0.255,0.09,0.54,0.135,1.034,0.135c0.811,0,1.306-0.555,1.306-1.38l-2.955-8.115h2.22
		L146.669,9.165z"/>
	<path style="fill:#114B8A;" d="M155.969,0h2.01v4.575h0.03c0.51-0.75,1.38-1.23,2.43-1.23c1.83,0,2.625,1.29,2.625,3.03v4.875
		h-2.01V7.125c0-0.945-0.016-2.22-1.306-2.22c-1.454,0-1.77,1.575-1.77,2.565v3.78h-2.01V0z"/>
	<path style="fill:#114B8A;" d="M171.328,10.814c-0.734,0.405-1.575,0.615-2.654,0.615c-2.55,0-4.035-1.47-4.035-4.005
		c0-2.235,1.185-4.08,3.585-4.08c2.864,0,3.675,1.965,3.675,4.665h-5.34c0.09,1.245,0.96,1.95,2.205,1.95
		c0.975,0,1.814-0.36,2.564-0.78V10.814z M169.979,6.63c-0.061-0.975-0.51-1.815-1.635-1.815s-1.695,0.78-1.785,1.815H169.979z"/>
	<path style="fill:#114B8A;" d="M173.519,0h2.01v11.25h-2.01V0z"/>
	<path style="fill:#114B8A;" d="M177.644,3.525h1.92V4.62h0.03c0.449-0.75,1.215-1.275,2.399-1.275c2.37,0,3.24,1.89,3.24,4.02
		c0,2.115-0.87,4.065-3.285,4.065c-0.855,0-1.56-0.21-2.265-1.065h-0.03v4.035h-2.01V3.525z M179.668,7.365
		c0,1.095,0.436,2.505,1.771,2.505c1.319,0,1.694-1.44,1.694-2.505c0-1.035-0.359-2.46-1.665-2.46
		C180.179,4.905,179.668,6.285,179.668,7.365z"/>
	<path style="fill:#114B8A;" d="M18.308,25.165h0.03l1.859-5.64h2.04l-2.895,7.665c-0.646,1.71-1.11,3.39-3.21,3.39
		c-0.48,0-0.96-0.075-1.425-0.21l0.135-1.485c0.255,0.09,0.54,0.135,1.035,0.135c0.81,0,1.305-0.555,1.305-1.38l-2.955-8.115h2.22
		L18.308,25.165z"/>
	<path style="fill:#114B8A;" d="M26.978,19.345c2.295,0,4.05,1.545,4.05,4.095c0,2.22-1.485,3.99-4.05,3.99
		c-2.55,0-4.035-1.77-4.035-3.99C22.942,20.89,24.697,19.345,26.978,19.345z M26.978,25.87c1.545,0,1.95-1.38,1.95-2.67
		c0-1.185-0.631-2.295-1.95-2.295c-1.305,0-1.936,1.14-1.936,2.295C25.042,24.475,25.447,25.87,26.978,25.87z"/>
	<path style="fill:#114B8A;" d="M39.697,27.25h-1.905V26.2h-0.029c-0.615,0.75-1.485,1.23-2.535,1.23c-1.83,0-2.625-1.29-2.625-3.03
		v-4.875h2.01v4.125c0,0.945,0.016,2.22,1.305,2.22c1.455,0,1.771-1.575,1.771-2.565v-3.78h2.01V27.25z"/>
	<path style="fill:#114B8A;" d="M41.812,19.525h1.785v1.755h0.03c0.09-0.72,0.915-1.935,2.114-1.935c0.195,0,0.405,0,0.615,0.06
		v2.025c-0.18-0.105-0.54-0.165-0.9-0.165c-1.635,0-1.635,2.04-1.635,3.15v2.835h-2.01V19.525z"/>
	<path style="fill:#114B8A;" d="M51.772,19.525h1.92v1.095h0.03c0.45-0.75,1.215-1.275,2.399-1.275c2.37,0,3.24,1.89,3.24,4.02
		c0,2.115-0.87,4.065-3.285,4.065c-0.854,0-1.56-0.21-2.265-1.065h-0.03v4.035h-2.01V19.525z M53.798,23.365
		c0,1.095,0.435,2.505,1.77,2.505c1.32,0,1.695-1.44,1.695-2.505c0-1.035-0.36-2.46-1.665-2.46
		C54.308,20.905,53.798,22.285,53.798,23.365z"/>
	<path style="fill:#114B8A;" d="M61.282,19.93c0.78-0.36,1.83-0.585,2.686-0.585c2.354,0,3.329,0.975,3.329,3.255v0.99
		c0,0.78,0.016,1.365,0.03,1.935c0.015,0.585,0.045,1.125,0.09,1.725h-1.77c-0.075-0.405-0.075-0.915-0.09-1.155h-0.03
		c-0.465,0.855-1.47,1.335-2.385,1.335c-1.365,0-2.7-0.825-2.7-2.295c0-1.155,0.555-1.83,1.32-2.205
		c0.765-0.375,1.755-0.45,2.595-0.45h1.11c0-1.245-0.556-1.665-1.74-1.665c-0.855,0-1.71,0.33-2.385,0.84L61.282,19.93z
		 M63.638,25.959c0.614,0,1.095-0.27,1.41-0.69c0.329-0.435,0.42-0.99,0.42-1.59h-0.87c-0.9,0-2.235,0.15-2.235,1.335
		C62.362,25.675,62.917,25.959,63.638,25.959z"/>
	<path style="fill:#114B8A;" d="M69.938,20.995h-1.485v-1.47h1.485V17.98l2.01-0.645v2.19h1.785v1.47h-1.785v3.6
		c0,0.66,0.18,1.275,0.944,1.275c0.36,0,0.705-0.075,0.915-0.21l0.061,1.59c-0.42,0.12-0.885,0.18-1.485,0.18
		c-1.575,0-2.444-0.975-2.444-2.505V20.995z"/>
	<path style="fill:#114B8A;" d="M75.157,16.195h2.01v1.92h-2.01V16.195z M75.157,19.525h2.01v7.725h-2.01V19.525z"/>
	<path style="fill:#114B8A;" d="M85.477,26.814c-0.734,0.405-1.575,0.615-2.654,0.615c-2.55,0-4.035-1.47-4.035-4.005
		c0-2.235,1.185-4.08,3.585-4.08c2.864,0,3.675,1.965,3.675,4.665h-5.34c0.09,1.245,0.96,1.95,2.205,1.95
		c0.975,0,1.814-0.36,2.564-0.78V26.814z M84.127,22.63c-0.061-0.975-0.51-1.815-1.635-1.815s-1.695,0.78-1.785,1.815H84.127z"/>
	<path style="fill:#114B8A;" d="M87.622,19.525h1.904v1.05h0.03c0.63-0.885,1.485-1.23,2.535-1.23c1.83,0,2.625,1.29,2.625,3.03
		v4.875h-2.01v-4.125c0-0.945-0.016-2.22-1.306-2.22c-1.455,0-1.77,1.575-1.77,2.565v3.78h-2.01V19.525z"/>
	<path style="fill:#114B8A;" d="M97.447,20.995h-1.485v-1.47h1.485V17.98l2.01-0.645v2.19h1.785v1.47h-1.785v3.6
		c0,0.66,0.18,1.275,0.944,1.275c0.36,0,0.705-0.075,0.915-0.21l0.061,1.59c-0.42,0.12-0.885,0.18-1.485,0.18
		c-1.575,0-2.444-0.975-2.444-2.505V20.995z"/>
	<path style="fill:#114B8A;" d="M107.212,21.145c-0.615-0.21-1.065-0.33-1.8-0.33c-0.54,0-1.186,0.195-1.186,0.855
		c0,1.23,3.495,0.45,3.495,3.24c0,1.8-1.604,2.52-3.24,2.52c-0.765,0-1.545-0.135-2.279-0.33l0.12-1.65
		c0.63,0.315,1.29,0.51,1.979,0.51c0.51,0,1.32-0.195,1.32-0.945c0-1.515-3.495-0.48-3.495-3.27c0-1.665,1.455-2.4,3.03-2.4
		c0.944,0,1.56,0.15,2.189,0.285L107.212,21.145z"/>
	<path style="fill:#114B8A;" d="M113.497,16.195h2.01v1.92h-2.01V16.195z M113.497,19.525h2.01v7.725h-2.01V19.525z"/>
	<path style="fill:#114B8A;" d="M117.592,19.525h1.875v1.08h0.03c0.63-0.945,1.545-1.26,2.295-1.26c1.08,0,1.845,0.405,2.279,1.365
		c0.465-0.93,1.471-1.365,2.415-1.365c1.905,0,2.445,1.305,2.445,3.03v4.875h-2.01v-4.605c0-0.72,0-1.74-1.155-1.74
		c-1.335,0-1.5,1.59-1.5,2.595v3.75h-2.01v-4.605c0-0.72,0-1.74-1.155-1.74c-1.335,0-1.5,1.59-1.5,2.595v3.75h-2.01V19.525z"/>
	<path style="fill:#114B8A;" d="M130.957,19.525h1.92v1.095h0.03c0.449-0.75,1.215-1.275,2.399-1.275c2.37,0,3.24,1.89,3.24,4.02
		c0,2.115-0.87,4.065-3.285,4.065c-0.855,0-1.56-0.21-2.265-1.065h-0.03v4.035h-2.01V19.525z M132.981,23.365
		c0,1.095,0.436,2.505,1.771,2.505c1.319,0,1.694-1.44,1.694-2.505c0-1.035-0.359-2.46-1.665-2.46
		C133.492,20.905,132.981,22.285,132.981,23.365z"/>
	<path style="fill:#114B8A;" d="M140.167,19.525h1.785v1.755h0.029c0.091-0.72,0.915-1.935,2.115-1.935c0.195,0,0.405,0,0.615,0.06
		v2.025c-0.181-0.105-0.54-0.165-0.9-0.165c-1.635,0-1.635,2.04-1.635,3.15v2.835h-2.01V19.525z"/>
	<path style="fill:#114B8A;" d="M149.228,19.345c2.295,0,4.05,1.545,4.05,4.095c0,2.22-1.485,3.99-4.05,3.99
		c-2.55,0-4.035-1.77-4.035-3.99C145.192,20.89,146.947,19.345,149.228,19.345z M149.228,25.87c1.545,0,1.949-1.38,1.949-2.67
		c0-1.185-0.63-2.295-1.949-2.295c-1.306,0-1.936,1.14-1.936,2.295C147.292,24.475,147.697,25.87,149.228,25.87z"/>
	<path style="fill:#114B8A;" d="M153.997,19.525h2.16l1.92,5.625h0.03l1.859-5.625h2.011l-2.851,7.725h-2.265L153.997,19.525z"/>
	<path style="fill:#114B8A;" d="M169.387,26.814c-0.734,0.405-1.575,0.615-2.654,0.615c-2.55,0-4.035-1.47-4.035-4.005
		c0-2.235,1.185-4.08,3.585-4.08c2.864,0,3.675,1.965,3.675,4.665h-5.34c0.09,1.245,0.96,1.95,2.205,1.95
		c0.975,0,1.814-0.36,2.564-0.78V26.814z M168.037,22.63c-0.061-0.975-0.51-1.815-1.635-1.815s-1.695,0.78-1.785,1.815H168.037z"/>
	<path style="fill:#114B8A;" d="M5.461,35.93c0.779-0.36,1.83-0.585,2.685-0.585c2.355,0,3.33,0.975,3.33,3.255v0.99
		c0,0.78,0.015,1.365,0.03,1.935c0.015,0.585,0.045,1.125,0.09,1.725H9.825c-0.074-0.405-0.074-0.915-0.09-1.155H9.706
		C9.24,42.95,8.235,43.43,7.32,43.43c-1.364,0-2.699-0.825-2.699-2.295c0-1.155,0.555-1.83,1.319-2.205
		c0.766-0.375,1.755-0.45,2.595-0.45h1.11c0-1.245-0.555-1.665-1.74-1.665c-0.854,0-1.71,0.33-2.385,0.84L5.461,35.93z
		 M7.815,41.959c0.615,0,1.095-0.27,1.41-0.69c0.33-0.435,0.42-0.99,0.42-1.59h-0.87c-0.899,0-2.234,0.15-2.234,1.335
		C6.541,41.675,7.096,41.959,7.815,41.959z"/>
	<path style="fill:#114B8A;" d="M18.046,37.145c-0.615-0.21-1.065-0.33-1.801-0.33c-0.54,0-1.185,0.195-1.185,0.855
		c0,1.23,3.495,0.45,3.495,3.24c0,1.8-1.605,2.52-3.24,2.52c-0.765,0-1.545-0.135-2.28-0.33l0.12-1.65
		c0.63,0.315,1.29,0.51,1.98,0.51c0.51,0,1.319-0.195,1.319-0.945c0-1.515-3.494-0.48-3.494-3.27c0-1.665,1.455-2.4,3.029-2.4
		c0.945,0,1.561,0.15,2.19,0.285L18.046,37.145z"/>
	<path style="fill:#114B8A;" d="M20.775,36.995H19.29v-1.47h1.485V33.98l2.01-0.645v2.19h1.785v1.47h-1.785v3.6
		c0,0.66,0.18,1.275,0.945,1.275c0.359,0,0.705-0.075,0.915-0.21l0.06,1.59c-0.42,0.12-0.885,0.18-1.485,0.18
		c-1.574,0-2.444-0.975-2.444-2.505V36.995z"/>
	<path style="fill:#114B8A;" d="M25.95,32h2.01v4.575h0.03c0.51-0.75,1.38-1.23,2.43-1.23c1.83,0,2.625,1.29,2.625,3.03v4.875h-2.01
		v-4.125c0-0.945-0.015-2.22-1.305-2.22c-1.455,0-1.771,1.575-1.771,2.565v3.78h-2.01V32z"/>
	<path style="fill:#114B8A;" d="M35.085,35.525h1.875v1.08h0.03c0.63-0.945,1.545-1.26,2.295-1.26c1.08,0,1.845,0.405,2.28,1.365
		c0.465-0.93,1.47-1.365,2.414-1.365c1.905,0,2.445,1.305,2.445,3.03v4.875h-2.01v-4.605c0-0.72,0-1.74-1.155-1.74
		c-1.335,0-1.5,1.59-1.5,2.595v3.75h-2.01v-4.605c0-0.72,0-1.74-1.155-1.74c-1.335,0-1.5,1.59-1.5,2.595v3.75h-2.01V35.525z"/>
	<path style="fill:#114B8A;" d="M48.795,35.93c0.78-0.36,1.83-0.585,2.686-0.585c2.354,0,3.329,0.975,3.329,3.255v0.99
		c0,0.78,0.016,1.365,0.03,1.935c0.015,0.585,0.045,1.125,0.09,1.725h-1.77c-0.075-0.405-0.075-0.915-0.09-1.155h-0.03
		c-0.465,0.855-1.47,1.335-2.385,1.335c-1.365,0-2.7-0.825-2.7-2.295c0-1.155,0.555-1.83,1.32-2.205
		c0.765-0.375,1.755-0.45,2.595-0.45h1.11c0-1.245-0.556-1.665-1.74-1.665c-0.855,0-1.71,0.33-2.385,0.84L48.795,35.93z
		 M51.15,41.959c0.614,0,1.095-0.27,1.41-0.69c0.329-0.435,0.42-0.99,0.42-1.59h-0.87c-0.9,0-2.235,0.15-2.235,1.335
		C49.875,41.675,50.43,41.959,51.15,41.959z"/>
	<path style="fill:#114B8A;" d="M56.28,40.04v-1.65h3.944v1.65H56.28z"/>
	<path style="fill:#114B8A;" d="M66.375,37.145c-0.615-0.21-1.065-0.33-1.8-0.33c-0.54,0-1.186,0.195-1.186,0.855
		c0,1.23,3.495,0.45,3.495,3.24c0,1.8-1.604,2.52-3.239,2.52c-0.766,0-1.545-0.135-2.28-0.33l0.12-1.65
		c0.63,0.315,1.29,0.51,1.979,0.51c0.511,0,1.32-0.195,1.32-0.945c0-1.515-3.495-0.48-3.495-3.27c0-1.665,1.455-2.4,3.03-2.4
		c0.944,0,1.56,0.15,2.189,0.285L66.375,37.145z"/>
	<path style="fill:#114B8A;" d="M71.655,41.165h0.029l1.86-5.64h2.04l-2.895,7.665c-0.646,1.71-1.11,3.39-3.21,3.39
		c-0.48,0-0.96-0.075-1.426-0.21l0.136-1.485c0.255,0.09,0.54,0.135,1.034,0.135c0.811,0,1.306-0.555,1.306-1.38l-2.955-8.115h2.22
		L71.655,41.165z"/>
	<path style="fill:#114B8A;" d="M76.755,35.525h1.875v1.08h0.03c0.63-0.945,1.545-1.26,2.295-1.26c1.08,0,1.845,0.405,2.279,1.365
		c0.465-0.93,1.471-1.365,2.415-1.365c1.905,0,2.445,1.305,2.445,3.03v4.875h-2.01v-4.605c0-0.72,0-1.74-1.155-1.74
		c-1.335,0-1.5,1.59-1.5,2.595v3.75h-2.01v-4.605c0-0.72,0-1.74-1.155-1.74c-1.335,0-1.5,1.59-1.5,2.595v3.75h-2.01V35.525z"/>
	<path style="fill:#114B8A;" d="M90.12,35.525h1.92v1.095h0.03c0.449-0.75,1.215-1.275,2.399-1.275c2.37,0,3.24,1.89,3.24,4.02
		c0,2.115-0.87,4.065-3.285,4.065c-0.855,0-1.56-0.21-2.265-1.065h-0.03v4.035h-2.01V35.525z M92.145,39.365
		c0,1.095,0.436,2.505,1.771,2.505c1.319,0,1.694-1.44,1.694-2.505c0-1.035-0.359-2.46-1.665-2.46
		C92.655,36.905,92.145,38.285,92.145,39.365z"/>
	<path style="fill:#114B8A;" d="M99.945,36.995H98.46v-1.47h1.485V33.98l2.01-0.645v2.19h1.785v1.47h-1.785v3.6
		c0,0.66,0.18,1.275,0.944,1.275c0.36,0,0.705-0.075,0.915-0.21l0.061,1.59c-0.42,0.12-0.885,0.18-1.485,0.18
		c-1.575,0-2.444-0.975-2.444-2.505V36.995z"/>
	<path style="fill:#114B8A;" d="M108.66,35.345c2.295,0,4.05,1.545,4.05,4.095c0,2.22-1.485,3.99-4.05,3.99
		c-2.55,0-4.035-1.77-4.035-3.99C104.625,36.89,106.38,35.345,108.66,35.345z M108.66,41.87c1.545,0,1.949-1.38,1.949-2.67
		c0-1.185-0.63-2.295-1.949-2.295c-1.306,0-1.936,1.14-1.936,2.295C106.725,40.475,107.13,41.87,108.66,41.87z"/>
	<path style="fill:#114B8A;" d="M114.255,35.525h1.875v1.08h0.03c0.63-0.945,1.545-1.26,2.295-1.26c1.08,0,1.845,0.405,2.279,1.365
		c0.465-0.93,1.471-1.365,2.415-1.365c1.905,0,2.445,1.305,2.445,3.03v4.875h-2.01v-4.605c0-0.72,0-1.74-1.155-1.74
		c-1.335,0-1.5,1.59-1.5,2.595v3.75h-2.01v-4.605c0-0.72,0-1.74-1.155-1.74c-1.335,0-1.5,1.59-1.5,2.595v3.75h-2.01V35.525z"/>
	<path style="fill:#114B8A;" d="M136.8,37.19c-0.36-0.165-0.75-0.285-1.365-0.285c-1.245,0-2.04,0.99-2.04,2.445
		c0,1.425,0.675,2.52,2.085,2.52c0.57,0,1.2-0.21,1.545-0.36l0.09,1.665c-0.585,0.18-1.185,0.255-2.01,0.255
		c-2.535,0-3.81-1.725-3.81-4.08c0-2.235,1.32-4.005,3.734-4.005c0.811,0,1.396,0.09,1.95,0.255L136.8,37.19z"/>
	<path style="fill:#114B8A;" d="M141.99,35.345c2.295,0,4.05,1.545,4.05,4.095c0,2.22-1.485,3.99-4.05,3.99
		c-2.55,0-4.035-1.77-4.035-3.99C137.955,36.89,139.71,35.345,141.99,35.345z M141.99,41.87c1.545,0,1.949-1.38,1.949-2.67
		c0-1.185-0.63-2.295-1.949-2.295c-1.306,0-1.936,1.14-1.936,2.295C140.055,40.475,140.46,41.87,141.99,41.87z"/>
	<path style="fill:#114B8A;" d="M147.615,35.525h1.904v1.05h0.03c0.63-0.885,1.485-1.23,2.535-1.23c1.83,0,2.625,1.29,2.625,3.03
		v4.875h-2.01v-4.125c0-0.945-0.016-2.22-1.306-2.22c-1.454,0-1.77,1.575-1.77,2.565v3.78h-2.01V35.525z"/>
	<path style="fill:#114B8A;" d="M157.44,36.995h-1.485v-1.47h1.485V33.98l2.01-0.645v2.19h1.785v1.47h-1.785v3.6
		c0,0.66,0.18,1.275,0.944,1.275c0.36,0,0.705-0.075,0.915-0.21l0.061,1.59c-0.42,0.12-0.885,0.18-1.485,0.18
		c-1.575,0-2.444-0.975-2.444-2.505V36.995z"/>
	<path style="fill:#114B8A;" d="M162.66,35.525h1.785v1.755h0.029c0.091-0.72,0.915-1.935,2.115-1.935c0.195,0,0.405,0,0.615,0.06
		v2.025c-0.181-0.105-0.54-0.165-0.9-0.165c-1.635,0-1.635,2.04-1.635,3.15v2.835h-2.01V35.525z"/>
	<path style="fill:#114B8A;" d="M171.721,35.345c2.295,0,4.05,1.545,4.05,4.095c0,2.22-1.485,3.99-4.05,3.99
		c-2.55,0-4.035-1.77-4.035-3.99C167.686,36.89,169.44,35.345,171.721,35.345z M171.721,41.87c1.545,0,1.949-1.38,1.949-2.67
		c0-1.185-0.63-2.295-1.949-2.295c-1.306,0-1.936,1.14-1.936,2.295C169.785,40.475,170.19,41.87,171.721,41.87z"/>
	<path style="fill:#114B8A;" d="M177.391,32h2.01v11.25h-2.01V32z"/>
</g>
</svg>
