<?xml version="1.0" encoding="iso-8859-1"?>
<!-- Generator: Adobe Illustrator 19.1.0, SVG Export Plug-In . SVG Version: 6.00 Build 0)  -->
<svg version="1.1" id="Layer_1" xmlns="http://www.w3.org/2000/svg" xmlns:xlink="http://www.w3.org/1999/xlink" x="0px" y="0px"
	 viewBox="0 0 414.565 18.352" style="enable-background:new 0 0 414.565 18.352;" xml:space="preserve">
<g>
	<path style="fill:#002D73;" d="M13.754,14.248h-1.558L8.834,2.47H8.796L5.377,14.248H3.8L0,0.988h1.35l3.267,11.778h0.038
		l3.4-11.778h1.577l3.344,11.778h0.038l3.324-11.778h1.254L13.754,14.248z"/>
	<path style="fill:#002D73;" d="M19.266,0h1.197v6.193h0.038c0.513-1.064,1.596-1.862,3.021-1.862c2.603,0,3.305,1.729,3.305,4.123
		v5.794H25.63V8.473c0-1.672-0.323-3.116-2.299-3.116c-2.128,0-2.868,2.014-2.868,3.705v5.186h-1.197V0z"/>
	<path style="fill:#002D73;" d="M36.327,13.944c-0.836,0.342-1.919,0.532-2.812,0.532c-3.21,0-4.407-2.166-4.407-5.072
		c0-2.963,1.634-5.072,4.085-5.072c2.735,0,3.856,2.204,3.856,4.806v0.608h-6.63c0,2.052,1.102,3.705,3.191,3.705
		c0.874,0,2.146-0.361,2.717-0.722V13.944z M35.737,8.72c0-1.69-0.684-3.362-2.469-3.362c-1.768,0-2.85,1.767-2.85,3.362H35.737z"/>
	<path style="fill:#002D73;" d="M39.33,6.839c0-0.741,0-1.501-0.076-2.28h1.158v1.729h0.038c0.399-0.874,1.121-1.957,3.135-1.957
		c2.394,0,3.306,1.596,3.306,3.724v6.193h-1.197V8.359c0-1.824-0.646-3.001-2.298-3.001c-2.186,0-2.869,1.918-2.869,3.533v5.357
		H39.33V6.839z"/>
	<path style="fill:#002D73;" d="M56.373,1.976h-1.197V0.38h1.197V1.976z M55.176,4.56h1.197v9.688h-1.197V4.56z"/>
	<path style="fill:#002D73;" d="M63.573,5.585h-2.204v6.269c0,0.874,0.323,1.596,1.292,1.596c0.456,0,0.76-0.095,1.102-0.228
		l0.076,0.988c-0.285,0.114-0.874,0.266-1.463,0.266c-2.128,0-2.203-1.463-2.203-3.229V5.585h-1.9V4.56h1.9V2.223l1.196-0.418V4.56
		h2.204V5.585z"/>
	<path style="fill:#002D73;" d="M66.708,0.988h1.425L66.67,5.129h-1.083L66.708,0.988z"/>
	<path style="fill:#002D73;" d="M68.152,12.842c0.723,0.361,1.596,0.608,2.527,0.608c1.14,0,2.146-0.627,2.146-1.729
		c0-2.298-4.654-1.938-4.654-4.749c0-1.919,1.558-2.641,3.153-2.641c0.513,0,1.539,0.114,2.394,0.437l-0.114,1.045
		c-0.627-0.285-1.481-0.456-2.146-0.456c-1.234,0-2.09,0.38-2.09,1.615c0,1.805,4.769,1.577,4.769,4.749
		c0,2.052-1.919,2.755-3.382,2.755c-0.931,0-1.861-0.114-2.716-0.456L68.152,12.842z"/>
	<path style="fill:#002D73;" d="M85.746,5.585h-2.203v6.269c0,0.874,0.323,1.596,1.292,1.596c0.456,0,0.76-0.095,1.102-0.228
		l0.076,0.988c-0.285,0.114-0.874,0.266-1.463,0.266c-2.128,0-2.204-1.463-2.204-3.229V5.585h-1.899V4.56h1.899V2.223l1.197-0.418
		V4.56h2.203V5.585z"/>
	<path style="fill:#002D73;" d="M89.091,1.976h-1.196V0.38h1.196V1.976z M87.895,4.56h1.196v9.688h-1.196V4.56z"/>
	<path style="fill:#002D73;" d="M103.814,14.248v-6.44c0-1.368-0.513-2.451-2.052-2.451c-1.311,0-2.603,1.121-2.603,3.533v5.357
		h-1.197v-6.44c0-1.368-0.513-2.451-2.052-2.451c-1.311,0-2.603,1.121-2.603,3.533v5.357h-1.196V6.839c0-0.741,0-1.501-0.076-2.28
		h1.159v1.634l0.038,0.019c0.38-0.665,0.949-1.881,3.021-1.881c0.854,0,2.261,0.361,2.564,2.052h0.038
		c0.437-1.14,1.576-2.052,3.097-2.052c1.956,0,3.058,1.368,3.058,3.249v6.668H103.814z"/>
	<path style="fill:#002D73;" d="M114.437,13.944c-0.836,0.342-1.919,0.532-2.812,0.532c-3.211,0-4.407-2.166-4.407-5.072
		c0-2.963,1.634-5.072,4.084-5.072c2.735,0,3.856,2.204,3.856,4.806v0.608h-6.63c0,2.052,1.102,3.705,3.191,3.705
		c0.874,0,2.146-0.361,2.717-0.722V13.944z M113.848,8.72c0-1.69-0.685-3.362-2.47-3.362c-1.767,0-2.85,1.767-2.85,3.362H113.848z"
		/>
	<path style="fill:#002D73;" d="M126.9,5.585h-2.203v6.269c0,0.874,0.323,1.596,1.292,1.596c0.456,0,0.76-0.095,1.102-0.228
		l0.076,0.988c-0.285,0.114-0.874,0.266-1.463,0.266c-2.128,0-2.204-1.463-2.204-3.229V5.585h-1.899V4.56h1.899V2.223l1.197-0.418
		V4.56h2.203V5.585z"/>
	<path style="fill:#002D73;" d="M132.829,4.332c3.135,0,4.521,2.432,4.521,5.072s-1.387,5.072-4.521,5.072s-4.521-2.432-4.521-5.072
		S129.694,4.332,132.829,4.332z M132.829,13.45c2.09,0,3.211-1.805,3.211-4.046s-1.121-4.046-3.211-4.046s-3.211,1.805-3.211,4.046
		S130.739,13.45,132.829,13.45z"/>
	<path style="fill:#002D73;" d="M146.092,1.976h-1.196V0.38h1.196V1.976z M144.896,4.56h1.196v9.688h-1.196V4.56z"/>
	<path style="fill:#002D73;" d="M160.815,14.248v-6.44c0-1.368-0.513-2.451-2.052-2.451c-1.311,0-2.603,1.121-2.603,3.533v5.357
		h-1.197v-6.44c0-1.368-0.513-2.451-2.052-2.451c-1.311,0-2.603,1.121-2.603,3.533v5.357h-1.196V6.839c0-0.741,0-1.501-0.076-2.28
		h1.159v1.634l0.038,0.019c0.38-0.665,0.949-1.881,3.021-1.881c0.854,0,2.26,0.361,2.564,2.052h0.038
		c0.437-1.14,1.576-2.052,3.097-2.052c1.956,0,3.058,1.368,3.058,3.249v6.668H160.815z"/>
	<path style="fill:#002D73;" d="M164.826,4.56h1.197l-0.076,1.767h0.038c0.304-0.532,1.045-1.995,3.097-1.995
		c2.85,0,3.989,2.127,3.989,5.072c0,2.869-1.33,5.072-3.989,5.072c-1.521,0-2.432-0.627-3.021-1.881h-0.038v5.642h-1.197V4.56z
		 M168.892,5.357c-2.128,0-2.868,2.28-2.868,4.046s0.74,4.046,2.868,4.046c2.279,0,2.868-2.166,2.868-4.046
		S171.171,5.357,168.892,5.357z"/>
	<path style="fill:#002D73;" d="M175.505,6.725c0-1.064,0-1.463-0.076-2.166h1.197v1.862h0.037c0.438-1.083,1.254-2.09,2.489-2.09
		c0.285,0,0.627,0.057,0.836,0.114v1.254c-0.247-0.076-0.57-0.114-0.874-0.114c-1.899,0-2.413,2.127-2.413,3.875v4.787h-1.196V6.725
		z"/>
	<path style="fill:#002D73;" d="M185.271,4.332c3.135,0,4.521,2.432,4.521,5.072s-1.387,5.072-4.521,5.072s-4.521-2.432-4.521-5.072
		S182.136,4.332,185.271,4.332z M185.271,13.45c2.09,0,3.211-1.805,3.211-4.046s-1.121-4.046-3.211-4.046s-3.211,1.805-3.211,4.046
		S183.181,13.45,185.271,13.45z"/>
	<path style="fill:#002D73;" d="M195.417,14.248h-1.406l-3.286-9.688h1.311l2.679,8.377h0.038l2.812-8.377h1.254L195.417,14.248z"/>
	<path style="fill:#002D73;" d="M206.987,13.944c-0.836,0.342-1.919,0.532-2.812,0.532c-3.211,0-4.407-2.166-4.407-5.072
		c0-2.963,1.634-5.072,4.084-5.072c2.735,0,3.856,2.204,3.856,4.806v0.608h-6.63c0,2.052,1.102,3.705,3.191,3.705
		c0.874,0,2.146-0.361,2.717-0.722V13.944z M206.398,8.72c0-1.69-0.685-3.362-2.47-3.362c-1.767,0-2.85,1.767-2.85,3.362H206.398z"
		/>
	<path style="fill:#002D73;" d="M220.839,12.69h-0.038c-0.532,1.159-1.881,1.786-3.078,1.786c-2.754,0-3.191-1.862-3.191-2.736
		c0-3.249,3.458-3.4,5.965-3.4h0.229V7.846c0-1.653-0.589-2.489-2.204-2.489c-1.007,0-1.956,0.228-2.85,0.798V4.997
		c0.741-0.361,1.995-0.665,2.85-0.665c2.394,0,3.4,1.083,3.4,3.609v4.274c0,0.779,0,1.368,0.096,2.033h-1.178V12.69z M220.725,9.366
		h-0.342c-2.071,0-4.541,0.209-4.541,2.337c0,1.272,0.912,1.748,2.014,1.748c2.812,0,2.869-2.451,2.869-3.496V9.366z"/>
	<path style="fill:#002D73;" d="M224.031,12.842c0.722,0.361,1.596,0.608,2.526,0.608c1.141,0,2.147-0.627,2.147-1.729
		c0-2.298-4.654-1.938-4.654-4.749c0-1.919,1.558-2.641,3.153-2.641c0.513,0,1.539,0.114,2.394,0.437l-0.114,1.045
		c-0.627-0.285-1.481-0.456-2.146-0.456c-1.234,0-2.09,0.38-2.09,1.615c0,1.805,4.769,1.577,4.769,4.749
		c0,2.052-1.919,2.755-3.382,2.755c-0.931,0-1.861-0.114-2.717-0.456L224.031,12.842z"/>
	<path style="fill:#002D73;" d="M236.342,5.585h-2.203v6.269c0,0.874,0.323,1.596,1.292,1.596c0.456,0,0.76-0.095,1.102-0.228
		l0.076,0.988c-0.285,0.114-0.874,0.266-1.463,0.266c-2.128,0-2.204-1.463-2.204-3.229V5.585h-1.899V4.56h1.899V2.223l1.197-0.418
		V4.56h2.203V5.585z"/>
	<path style="fill:#002D73;" d="M238.49,0h1.196v6.193h0.038c0.513-1.064,1.596-1.862,3.021-1.862c2.603,0,3.306,1.729,3.306,4.123
		v5.794h-1.196V8.473c0-1.672-0.323-3.116-2.299-3.116c-2.128,0-2.869,2.014-2.869,3.705v5.186h-1.196V0z"/>
	<path style="fill:#002D73;" d="M260.757,14.248v-6.44c0-1.368-0.513-2.451-2.052-2.451c-1.311,0-2.603,1.121-2.603,3.533v5.357
		h-1.197v-6.44c0-1.368-0.513-2.451-2.052-2.451c-1.311,0-2.603,1.121-2.603,3.533v5.357h-1.196V6.839c0-0.741,0-1.501-0.076-2.28
		h1.159v1.634l0.038,0.019c0.38-0.665,0.949-1.881,3.021-1.881c0.854,0,2.26,0.361,2.564,2.052h0.038
		c0.437-1.14,1.576-2.052,3.097-2.052c1.956,0,3.058,1.368,3.058,3.249v6.668H260.757z"/>
	<path style="fill:#002D73;" d="M270.448,12.69h-0.038c-0.532,1.159-1.881,1.786-3.078,1.786c-2.754,0-3.191-1.862-3.191-2.736
		c0-3.249,3.458-3.4,5.965-3.4h0.229V7.846c0-1.653-0.589-2.489-2.204-2.489c-1.007,0-1.956,0.228-2.85,0.798V4.997
		c0.741-0.361,1.995-0.665,2.85-0.665c2.394,0,3.4,1.083,3.4,3.609v4.274c0,0.779,0,1.368,0.096,2.033h-1.178V12.69z M270.334,9.366
		h-0.342c-2.071,0-4.541,0.209-4.541,2.337c0,1.272,0.912,1.748,2.014,1.748c2.812,0,2.869-2.451,2.869-3.496V9.366z"/>
	<path style="fill:#002D73;" d="M273.66,8.473h4.768v1.311h-4.768V8.473z"/>
	<path style="fill:#002D73;" d="M279.968,12.842c0.722,0.361,1.596,0.608,2.526,0.608c1.141,0,2.147-0.627,2.147-1.729
		c0-2.298-4.654-1.938-4.654-4.749c0-1.919,1.558-2.641,3.153-2.641c0.513,0,1.538,0.114,2.394,0.437l-0.114,1.045
		c-0.627-0.285-1.481-0.456-2.146-0.456c-1.234,0-2.09,0.38-2.09,1.615c0,1.805,4.769,1.577,4.769,4.749
		c0,2.052-1.919,2.755-3.382,2.755c-0.931,0-1.861-0.114-2.717-0.456L279.968,12.842z"/>
	<path style="fill:#002D73;" d="M290.797,12.633h0.02l2.792-8.074h1.254l-3.875,11.132c-0.456,1.33-1.141,2.66-2.489,2.66
		c-0.437,0-0.893-0.057-1.292-0.152l0.114-1.026c0.229,0.076,0.456,0.152,0.894,0.152c1.025,0,1.367-0.855,1.747-2.109l0.247-0.855
		L286.77,4.56h1.311L290.797,12.633z"/>
	<path style="fill:#002D73;" d="M308.237,14.248v-6.44c0-1.368-0.513-2.451-2.052-2.451c-1.311,0-2.603,1.121-2.603,3.533v5.357
		h-1.197v-6.44c0-1.368-0.513-2.451-2.052-2.451c-1.311,0-2.603,1.121-2.603,3.533v5.357h-1.196V6.839c0-0.741,0-1.501-0.076-2.28
		h1.159v1.634l0.038,0.019c0.38-0.665,0.949-1.881,3.021-1.881c0.854,0,2.26,0.361,2.564,2.052h0.038
		c0.437-1.14,1.576-2.052,3.097-2.052c1.956,0,3.058,1.368,3.058,3.249v6.668H308.237z"/>
	<path style="fill:#002D73;" d="M312.248,4.56h1.197l-0.076,1.767h0.038c0.304-0.532,1.045-1.995,3.097-1.995
		c2.85,0,3.989,2.127,3.989,5.072c0,2.869-1.33,5.072-3.989,5.072c-1.521,0-2.432-0.627-3.021-1.881h-0.038v5.642h-1.197V4.56z
		 M316.313,5.357c-2.128,0-2.868,2.28-2.868,4.046s0.74,4.046,2.868,4.046c2.279,0,2.868-2.166,2.868-4.046
		S318.593,5.357,316.313,5.357z"/>
	<path style="fill:#002D73;" d="M327.105,5.585h-2.203v6.269c0,0.874,0.323,1.596,1.292,1.596c0.456,0,0.76-0.095,1.102-0.228
		l0.076,0.988c-0.285,0.114-0.874,0.266-1.463,0.266c-2.128,0-2.204-1.463-2.204-3.229V5.585h-1.899V4.56h1.899V2.223l1.197-0.418
		V4.56h2.203V5.585z"/>
	<path style="fill:#002D73;" d="M333.034,4.332c3.135,0,4.521,2.432,4.521,5.072s-1.387,5.072-4.521,5.072s-4.521-2.432-4.521-5.072
		S329.899,4.332,333.034,4.332z M333.034,13.45c2.09,0,3.211-1.805,3.211-4.046s-1.121-4.046-3.211-4.046s-3.211,1.805-3.211,4.046
		S330.944,13.45,333.034,13.45z"/>
	<path style="fill:#002D73;" d="M351.521,14.248v-6.44c0-1.368-0.513-2.451-2.052-2.451c-1.311,0-2.603,1.121-2.603,3.533v5.357
		h-1.197v-6.44c0-1.368-0.513-2.451-2.052-2.451c-1.311,0-2.603,1.121-2.603,3.533v5.357h-1.196V6.839c0-0.741,0-1.501-0.076-2.28
		h1.159v1.634l0.038,0.019c0.38-0.665,0.949-1.881,3.021-1.881c0.854,0,2.26,0.361,2.564,2.052h0.038
		c0.437-1.14,1.576-2.052,3.097-2.052c1.956,0,3.058,1.368,3.058,3.249v6.668H351.521z"/>
	<path style="fill:#002D73;" d="M367.234,5.851c-0.646-0.285-1.425-0.494-2.07-0.494c-2.337,0-3.647,1.691-3.647,4.046
		c0,2.204,1.33,4.046,3.515,4.046c0.76,0,1.463-0.171,2.185-0.437l0.113,1.121c-0.816,0.285-1.576,0.342-2.488,0.342
		c-3.115,0-4.635-2.375-4.635-5.072c0-2.982,1.918-5.072,4.787-5.072c1.158,0,1.994,0.266,2.336,0.38L367.234,5.851z"/>
	<path style="fill:#002D73;" d="M373.144,4.332c3.135,0,4.521,2.432,4.521,5.072s-1.387,5.072-4.521,5.072s-4.521-2.432-4.521-5.072
		S370.009,4.332,373.144,4.332z M373.144,13.45c2.09,0,3.211-1.805,3.211-4.046s-1.121-4.046-3.211-4.046s-3.211,1.805-3.211,4.046
		S371.054,13.45,373.144,13.45z"/>
	<path style="fill:#002D73;" d="M379.928,6.839c0-0.741,0-1.501-0.076-2.28h1.159v1.729h0.038c0.398-0.874,1.12-1.957,3.134-1.957
		c2.394,0,3.306,1.596,3.306,3.724v6.193h-1.196V8.359c0-1.824-0.646-3.001-2.299-3.001c-2.185,0-2.869,1.918-2.869,3.533v5.357
		h-1.196V6.839z"/>
	<path style="fill:#002D73;" d="M394.671,5.585h-2.203v6.269c0,0.874,0.323,1.596,1.292,1.596c0.456,0,0.76-0.095,1.102-0.228
		l0.076,0.988c-0.285,0.114-0.874,0.266-1.463,0.266c-2.128,0-2.204-1.463-2.204-3.229V5.585h-1.899V4.56h1.899V2.223l1.197-0.418
		V4.56h2.203V5.585z"/>
	<path style="fill:#002D73;" d="M396.819,6.725c0-1.064,0-1.463-0.076-2.166h1.197v1.862h0.037c0.438-1.083,1.254-2.09,2.489-2.09
		c0.285,0,0.627,0.057,0.836,0.114v1.254c-0.247-0.076-0.57-0.114-0.874-0.114c-1.899,0-2.413,2.127-2.413,3.875v4.787h-1.196V6.725
		z"/>
	<path style="fill:#002D73;" d="M406.585,4.332c3.135,0,4.521,2.432,4.521,5.072s-1.387,5.072-4.521,5.072s-4.521-2.432-4.521-5.072
		S403.45,4.332,406.585,4.332z M406.585,13.45c2.09,0,3.211-1.805,3.211-4.046s-1.121-4.046-3.211-4.046s-3.211,1.805-3.211,4.046
		S404.495,13.45,406.585,13.45z"/>
	<path style="fill:#002D73;" d="M413.369,0h1.196v14.248h-1.196V0z"/>
</g>
</svg>
