<?xml version="1.0" encoding="iso-8859-1"?>
<!-- Generator: Adobe Illustrator 19.1.0, SVG Export Plug-In . SVG Version: 6.00 Build 0)  -->
<svg version="1.1" id="Layer_1" xmlns="http://www.w3.org/2000/svg" xmlns:xlink="http://www.w3.org/1999/xlink" x="0px" y="0px"
	 viewBox="0 0 217.302 15.483" style="enable-background:new 0 0 217.302 15.483;" xml:space="preserve">
<g>
	<path style="fill:#002D73;" d="M0,4.941h2.38v2.34h0.041c0.119-0.96,1.22-2.581,2.82-2.581c0.26,0,0.54,0,0.82,0.08v2.701
		c-0.24-0.14-0.721-0.22-1.201-0.22c-2.18,0-2.18,2.721-2.18,4.201v3.781H0V4.941z"/>
	<path style="fill:#002D73;" d="M15.622,14.663c-0.98,0.54-2.102,0.82-3.541,0.82c-3.4,0-5.381-1.96-5.381-5.341
		c0-2.98,1.58-5.441,4.78-5.441c3.821,0,4.901,2.621,4.901,6.222H9.261c0.119,1.66,1.279,2.601,2.939,2.601
		c1.301,0,2.422-0.48,3.422-1.041V14.663z M13.821,9.082c-0.08-1.3-0.68-2.421-2.181-2.421S9.38,7.702,9.261,9.082H13.821z"/>
	<path style="fill:#002D73;" d="M18.94,5.481c1.039-0.48,2.439-0.78,3.58-0.78c3.141,0,4.441,1.3,4.441,4.341v1.32
		c0,1.04,0.02,1.82,0.04,2.581c0.021,0.78,0.06,1.5,0.12,2.3h-2.361c-0.1-0.54-0.1-1.22-0.119-1.541h-0.041
		c-0.619,1.141-1.96,1.781-3.18,1.781c-1.82,0-3.602-1.101-3.602-3.061c0-1.54,0.74-2.44,1.761-2.94s2.341-0.6,3.461-0.6h1.479
		c0-1.66-0.739-2.221-2.32-2.221c-1.14,0-2.279,0.44-3.18,1.121L18.94,5.481z M22.081,13.523c0.82,0,1.46-0.36,1.88-0.92
		c0.44-0.58,0.56-1.32,0.56-2.121h-1.16c-1.199,0-2.98,0.2-2.98,1.781C20.38,13.143,21.12,13.523,22.081,13.523z"/>
	<path style="fill:#002D73;" d="M36.281,7.162c-0.479-0.22-1-0.38-1.82-0.38c-1.66,0-2.72,1.32-2.72,3.261
		c0,1.9,0.899,3.361,2.779,3.361c0.761,0,1.602-0.28,2.061-0.48l0.121,2.22c-0.781,0.24-1.581,0.34-2.682,0.34
		c-3.381,0-5.08-2.301-5.08-5.441c0-2.98,1.76-5.341,4.98-5.341c1.08,0,1.86,0.12,2.601,0.34L36.281,7.162z"/>
	<path style="fill:#002D73;" d="M38.479,0.24h2.682v6.102H41.2c0.681-1,1.841-1.641,3.241-1.641c2.44,0,3.501,1.721,3.501,4.041
		v6.501h-2.682V9.742c0-1.26-0.02-2.961-1.74-2.961c-1.939,0-2.359,2.101-2.359,3.421v5.041h-2.682V0.24z"/>
	<path style="fill:#002D73;" d="M57.239,6.901h-1.98v-1.96h1.98V3.5c0-2.06,1.16-3.5,3.281-3.5c0.68,0,1.44,0.1,1.961,0.22
		L62.261,2.44c-0.24-0.14-0.58-0.36-1.16-0.36c-0.9,0-1.18,0.78-1.18,1.58v1.28h2.34v1.96h-2.34v8.342h-2.682V6.901z"/>
	<path style="fill:#002D73;" d="M68.761,4.701c3.061,0,5.4,2.061,5.4,5.461c0,2.96-1.98,5.321-5.4,5.321
		c-3.4,0-5.381-2.361-5.381-5.321C63.38,6.761,65.72,4.701,68.761,4.701z M68.761,13.403c2.061,0,2.6-1.84,2.6-3.561
		c0-1.58-0.84-3.061-2.6-3.061c-1.74,0-2.58,1.521-2.58,3.061C66.181,11.542,66.72,13.403,68.761,13.403z"/>
	<path style="fill:#002D73;" d="M76.319,4.941H78.7v2.34h0.039c0.121-0.96,1.221-2.581,2.822-2.581c0.26,0,0.539,0,0.82,0.08v2.701
		c-0.24-0.14-0.721-0.22-1.201-0.22c-2.18,0-2.18,2.721-2.18,4.201v3.781h-2.682V4.941z"/>
	<path style="fill:#002D73;" d="M89.04,15.243v-2.34c1.299-1.26,6.041-5.221,6.041-7.782c0-1.28-1.141-1.88-2.281-1.88
		c-1.18,0-2.301,0.52-3.221,1.12l-0.219-2.32c1.26-0.64,2.719-1,4.141-1c2.66,0,4.381,1.34,4.381,4.081
		c0,2.96-2.98,5.681-5.262,7.921h5.701v2.201H89.04z"/>
	<path style="fill:#002D73;" d="M99.659,10.082l5.221-8.802h3.48v8.982h1.781v2.081h-1.781v2.9h-2.68v-2.9h-6.021V10.082z
		 M105.681,10.262V4.201h-0.039l-3.461,6.062H105.681z"/>
	<path style="fill:#002D73;" d="M111.159,10.962V8.762h5.262v2.201H111.159z"/>
	<path style="fill:#002D73;" d="M118.499,0.24h2.682v6.102h0.039c0.682-1,1.842-1.641,3.242-1.641c2.439,0,3.5,1.721,3.5,4.041
		v6.501h-2.68V9.742c0-1.26-0.021-2.961-1.742-2.961c-1.939,0-2.359,2.101-2.359,3.421v5.041h-2.682V0.24z"/>
	<path style="fill:#002D73;" d="M135.44,4.701c3.061,0,5.402,2.061,5.402,5.461c0,2.96-1.98,5.321-5.402,5.321
		c-3.4,0-5.381-2.361-5.381-5.321C130.06,6.761,132.399,4.701,135.44,4.701z M135.44,13.403c2.061,0,2.602-1.84,2.602-3.561
		c0-1.58-0.842-3.061-2.602-3.061c-1.74,0-2.58,1.521-2.58,3.061C132.86,11.542,133.399,13.403,135.44,13.403z"/>
	<path style="fill:#002D73;" d="M152.401,15.243h-2.541v-1.4h-0.039c-0.82,1-1.98,1.641-3.381,1.641
		c-2.441,0-3.502-1.721-3.502-4.041V4.941h2.682v5.501c0,1.261,0.02,2.961,1.74,2.961c1.939,0,2.361-2.101,2.361-3.421V4.941h2.68
		V15.243z"/>
	<path style="fill:#002D73;" d="M155.22,4.941h2.381v2.34h0.039c0.119-0.96,1.221-2.581,2.82-2.581c0.26,0,0.541,0,0.82,0.08v2.701
		c-0.24-0.14-0.721-0.22-1.199-0.22c-2.182,0-2.182,2.721-2.182,4.201v3.781h-2.68V4.941z"/>
	<path style="fill:#002D73;" d="M168.739,1.28h4.881c1.801,0,4.5,0.52,4.5,3.581c0,1.661-1.119,2.821-2.779,3.121v0.04
		c1.9,0.18,3.201,1.46,3.201,3.181c0,3.521-3.162,4.041-4.922,4.041h-4.881V1.28z M171.54,6.921h1.141c1.18,0,2.641-0.26,2.641-1.7
		c0-1.621-1.422-1.741-2.701-1.741h-1.08V6.921z M171.54,13.042h1.32c1.301,0,2.881-0.32,2.881-1.94c0-1.82-1.48-2.1-2.881-2.1
		h-1.32V13.042z"/>
	<path style="fill:#002D73;" d="M180.718,1.28h3.021c3,0,6.582-0.1,6.582,3.781c0,1.64-1.102,3-2.881,3.241v0.04
		c0.76,0.06,1.199,0.82,1.48,1.44l2.24,5.461h-3.121l-1.68-4.361c-0.4-1.041-0.76-1.44-1.941-1.44h-0.9v5.801h-2.801V1.28z
		 M183.519,7.242h0.922c1.379,0,2.959-0.2,2.959-1.94c0-1.681-1.561-1.821-2.959-1.821h-0.922V7.242z"/>
	<path style="fill:#002D73;" d="M193.179,1.28h8.242v2.2h-5.441v3.441h4.98v2.201h-4.98v3.92h5.48v2.201h-8.281V1.28z"/>
	<path style="fill:#002D73;" d="M210.46,1.04c4.381,0,6.842,2.961,6.842,7.182s-2.422,7.262-6.842,7.262
		c-4.48,0-6.842-2.981-6.842-7.262S206.019,1.04,210.46,1.04z M210.46,13.283c2.861,0,3.92-2.541,3.92-5.061
		c0-2.46-1.139-4.981-3.92-4.981s-3.922,2.521-3.922,4.981C206.538,10.742,207.599,13.283,210.46,13.283z"/>
</g>
</svg>
