<?xml version="1.0" encoding="iso-8859-1"?>
<!-- Generator: Adobe Illustrator 19.1.1, SVG Export Plug-In . SVG Version: 6.00 Build 0)  -->
<svg version="1.1" id="Layer_1" xmlns="http://www.w3.org/2000/svg" xmlns:xlink="http://www.w3.org/1999/xlink" x="0px" y="0px"
	 viewBox="0 0 137.722 48.203" style="enable-background:new 0 0 137.722 48.203;" xml:space="preserve">
<g>
	<rect y="1.651" style="fill:none;" width="137.722" height="46.552"/>
	<path style="fill:#FFFFFF;" d="M31.416,2.235c0.494-0.104,1.273-0.182,2.066-0.182c1.132,0,1.859,0.195,2.405,0.637
		c0.455,0.338,0.729,0.858,0.729,1.547c0,0.845-0.56,1.586-1.482,1.924v0.026c0.832,0.208,1.808,0.897,1.808,2.197
		c0,0.754-0.3,1.326-0.741,1.755c-0.611,0.559-1.6,0.819-3.029,0.819c-0.78,0-1.378-0.052-1.755-0.104V2.235z M32.546,5.824h1.027
		c1.195,0,1.897-0.624,1.897-1.469c0-1.027-0.779-1.43-1.924-1.43c-0.52,0-0.819,0.039-1.001,0.078V5.824z M32.546,10.023
		c0.221,0.039,0.546,0.052,0.949,0.052c1.17,0,2.249-0.429,2.249-1.703c0-1.196-1.027-1.69-2.263-1.69h-0.936V10.023z"/>
	<path style="fill:#FFFFFF;" d="M38.461,2.235c0.572-0.117,1.391-0.182,2.171-0.182c1.209,0,1.989,0.221,2.535,0.715
		c0.442,0.39,0.688,0.988,0.688,1.664c0,1.157-0.728,1.924-1.65,2.236v0.039c0.676,0.234,1.079,0.858,1.287,1.768
		c0.286,1.222,0.494,2.067,0.676,2.405h-1.17c-0.144-0.247-0.338-1.001-0.585-2.093c-0.261-1.209-0.729-1.664-1.755-1.703h-1.066
		v3.796h-1.131V2.235z M39.592,6.227h1.157c1.209,0,1.976-0.663,1.976-1.664c0-1.131-0.818-1.625-2.015-1.638
		c-0.546,0-0.937,0.052-1.118,0.104V6.227z"/>
	<path style="fill:#FFFFFF;" d="M49.993,6.772h-3.406v3.159h3.796v0.949h-4.927V2.119h4.732v0.949h-3.602v2.77h3.406V6.772z"/>
	<path style="fill:#FFFFFF;" d="M59.339,6.409c0,3.016-1.833,4.615-4.069,4.615c-2.314,0-3.939-1.794-3.939-4.446
		c0-2.782,1.729-4.602,4.069-4.602C57.793,1.976,59.339,3.809,59.339,6.409z M52.54,6.552c0,1.872,1.015,3.549,2.795,3.549
		c1.795,0,2.809-1.651,2.809-3.64c0-1.742-0.91-3.563-2.795-3.563C53.476,2.898,52.54,4.627,52.54,6.552z"/>
	<path style="fill:#FFFFFF;" d="M63.525,6.552c0-0.741-0.013-1.378-0.052-1.963h1.001l0.039,1.235h0.052
		c0.286-0.845,0.975-1.378,1.742-1.378c0.13,0,0.221,0.013,0.324,0.039v1.079c-0.116-0.026-0.233-0.039-0.39-0.039
		c-0.806,0-1.378,0.611-1.534,1.469c-0.025,0.156-0.052,0.338-0.052,0.533v3.354h-1.131V6.552z"/>
	<path style="fill:#FFFFFF;" d="M68.283,7.943c0.026,1.547,1.015,2.184,2.158,2.184c0.819,0,1.313-0.143,1.742-0.325l0.195,0.819
		c-0.403,0.182-1.093,0.39-2.094,0.39c-1.937,0-3.094-1.274-3.094-3.172c0-1.898,1.118-3.393,2.951-3.393
		c2.054,0,2.6,1.807,2.6,2.964c0,0.234-0.025,0.416-0.039,0.533H68.283z M71.637,7.124c0.013-0.728-0.299-1.859-1.586-1.859
		c-1.157,0-1.664,1.066-1.756,1.859H71.637z"/>
	<path style="fill:#FFFFFF;" d="M79.592,1.65v7.605c0,0.559,0.014,1.196,0.053,1.625h-1.027l-0.052-1.092H78.54
		c-0.351,0.702-1.118,1.235-2.145,1.235c-1.521,0-2.691-1.287-2.691-3.198c-0.013-2.093,1.287-3.38,2.821-3.38
		c0.962,0,1.611,0.455,1.897,0.962h0.026V1.65H79.592z M78.449,7.15c0-0.143-0.013-0.338-0.052-0.481
		c-0.169-0.729-0.793-1.326-1.651-1.326c-1.183,0-1.885,1.04-1.885,2.431c0,1.274,0.624,2.327,1.858,2.327
		c0.768,0,1.47-0.507,1.678-1.365c0.039-0.156,0.052-0.312,0.052-0.494V7.15z"/>
	<path style="fill:#FFFFFF;" d="M86.755,9.165c0,0.65,0.014,1.222,0.053,1.716h-1.015l-0.064-1.027h-0.026
		c-0.299,0.507-0.962,1.17-2.08,1.17c-0.988,0-2.171-0.546-2.171-2.756V4.589h1.144v3.484c0,1.196,0.364,2.002,1.404,2.002
		c0.768,0,1.3-0.533,1.508-1.04c0.065-0.169,0.104-0.377,0.104-0.585V4.589h1.144V9.165z"/>
	<path style="fill:#FFFFFF;" d="M93.139,10.647c-0.3,0.156-0.963,0.364-1.808,0.364c-1.897,0-3.133-1.287-3.133-3.211
		c0-1.937,1.326-3.341,3.38-3.341c0.676,0,1.274,0.169,1.586,0.325l-0.26,0.884c-0.273-0.156-0.702-0.299-1.326-0.299
		c-1.443,0-2.223,1.066-2.223,2.379c0,1.456,0.936,2.353,2.184,2.353c0.65,0,1.079-0.169,1.404-0.312L93.139,10.647z"/>
	<path style="fill:#FFFFFF;" d="M95.037,7.943c0.026,1.547,1.015,2.184,2.158,2.184c0.819,0,1.313-0.143,1.742-0.325l0.195,0.819
		c-0.403,0.182-1.093,0.39-2.094,0.39c-1.937,0-3.094-1.274-3.094-3.172c0-1.898,1.118-3.393,2.951-3.393
		c2.054,0,2.6,1.807,2.6,2.964c0,0.234-0.025,0.416-0.039,0.533H95.037z M98.391,7.124c0.013-0.728-0.299-1.859-1.586-1.859
		c-1.157,0-1.664,1.066-1.756,1.859H98.391z"/>
	<path style="fill:#FFFFFF;" d="M106.346,1.65v7.605c0,0.559,0.014,1.196,0.053,1.625h-1.027l-0.052-1.092h-0.026
		c-0.351,0.702-1.118,1.235-2.145,1.235c-1.521,0-2.691-1.287-2.691-3.198c-0.013-2.093,1.287-3.38,2.821-3.38
		c0.962,0,1.611,0.455,1.897,0.962h0.026V1.65H106.346z M105.203,7.15c0-0.143-0.013-0.338-0.052-0.481
		c-0.169-0.729-0.793-1.326-1.651-1.326c-1.183,0-1.885,1.04-1.885,2.431c0,1.274,0.624,2.327,1.858,2.327
		c0.768,0,1.47-0.507,1.678-1.365c0.039-0.156,0.052-0.312,0.052-0.494V7.15z"/>
	<path style="fill:#FFFFFF;" d="M7.866,18.782v1.807h1.638v0.871H7.866v3.393c0,0.78,0.221,1.222,0.858,1.222
		c0.299,0,0.52-0.039,0.663-0.078l0.052,0.858c-0.222,0.091-0.572,0.156-1.015,0.156c-0.532,0-0.962-0.169-1.234-0.481
		c-0.325-0.338-0.442-0.897-0.442-1.638v-3.432H5.773v-0.871h0.975v-1.508L7.866,18.782z"/>
	<path style="fill:#FFFFFF;" d="M10.791,17.65h1.144v3.926h0.026c0.182-0.325,0.468-0.611,0.819-0.806
		c0.338-0.195,0.74-0.325,1.17-0.325c0.845,0,2.197,0.52,2.197,2.691v3.744h-1.145v-3.614c0-1.014-0.377-1.872-1.456-1.872
		c-0.741,0-1.326,0.52-1.534,1.144c-0.064,0.156-0.078,0.325-0.078,0.546v3.796h-1.144V17.65z"/>
	<path style="fill:#FFFFFF;" d="M18.642,23.943c0.026,1.547,1.015,2.184,2.158,2.184c0.819,0,1.313-0.143,1.742-0.325l0.195,0.819
		c-0.403,0.182-1.093,0.39-2.094,0.39c-1.937,0-3.094-1.274-3.094-3.172c0-1.898,1.118-3.393,2.951-3.393
		c2.054,0,2.6,1.807,2.6,2.964c0,0.234-0.025,0.416-0.039,0.533H18.642z M21.997,23.124c0.013-0.728-0.299-1.859-1.586-1.859
		c-1.157,0-1.664,1.066-1.756,1.859H21.997z"/>
	<path style="fill:#FFFFFF;" d="M27.274,22.552c0-0.741-0.014-1.378-0.052-1.963h1.001l0.039,1.235h0.052
		c0.286-0.845,0.975-1.378,1.742-1.378c0.13,0,0.221,0.013,0.325,0.039v1.079c-0.117-0.026-0.234-0.039-0.391-0.039
		c-0.806,0-1.378,0.611-1.534,1.469c-0.025,0.156-0.052,0.338-0.052,0.533v3.354h-1.131V22.552z"/>
	<path style="fill:#FFFFFF;" d="M32.85,18.82c0.014,0.39-0.272,0.702-0.728,0.702c-0.403,0-0.689-0.312-0.689-0.702
		c0-0.403,0.3-0.715,0.716-0.715C32.578,18.105,32.85,18.417,32.85,18.82z M31.577,26.881v-6.292h1.144v6.292H31.577z"/>
	<path style="fill:#FFFFFF;" d="M34.462,25.711c0.338,0.221,0.937,0.455,1.508,0.455c0.832,0,1.223-0.416,1.223-0.936
		c0-0.546-0.325-0.845-1.17-1.157c-1.132-0.403-1.664-1.027-1.664-1.781c0-1.014,0.818-1.846,2.171-1.846
		c0.637,0,1.195,0.182,1.547,0.39l-0.286,0.832c-0.247-0.156-0.702-0.364-1.287-0.364c-0.676,0-1.053,0.39-1.053,0.858
		c0,0.52,0.377,0.754,1.196,1.066c1.092,0.416,1.65,0.962,1.65,1.898c0,1.105-0.857,1.885-2.353,1.885
		c-0.689,0-1.326-0.169-1.769-0.429L34.462,25.711z"/>
	<path style="fill:#FFFFFF;" d="M40.898,23.475h0.026c0.155-0.221,0.377-0.494,0.559-0.715l1.846-2.171h1.379l-2.432,2.587
		l2.77,3.705h-1.392l-2.171-3.016l-0.585,0.65v2.366h-1.131v-9.23h1.131V23.475z"/>
	<path style="fill:#FFFFFF;" d="M54.314,23.683c0,2.327-1.612,3.341-3.134,3.341c-1.703,0-3.016-1.248-3.016-3.237
		c0-2.106,1.378-3.341,3.12-3.341C53.091,20.446,54.314,21.759,54.314,23.683z M49.322,23.748c0,1.378,0.793,2.418,1.911,2.418
		c1.092,0,1.911-1.027,1.911-2.444c0-1.066-0.533-2.418-1.886-2.418C49.907,21.304,49.322,22.552,49.322,23.748z"/>
	<path style="fill:#FFFFFF;" d="M55.874,26.881v-5.421h-0.885v-0.871h0.885V20.29c0-0.884,0.194-1.69,0.728-2.197
		c0.429-0.416,1.001-0.585,1.534-0.585c0.403,0,0.754,0.091,0.975,0.182l-0.155,0.884c-0.169-0.078-0.403-0.143-0.729-0.143
		c-0.975,0-1.222,0.858-1.222,1.82v0.338h1.521v0.871h-1.521v5.421H55.874z"/>
	<path style="fill:#FFFFFF;" d="M62.945,23.943c0.026,1.547,1.015,2.184,2.158,2.184c0.819,0,1.313-0.143,1.742-0.325l0.195,0.819
		c-0.403,0.182-1.093,0.39-2.094,0.39c-1.937,0-3.094-1.274-3.094-3.172c0-1.898,1.118-3.393,2.951-3.393
		c2.054,0,2.6,1.807,2.6,2.964c0,0.234-0.025,0.416-0.039,0.533H62.945z M66.299,23.124c0.013-0.728-0.299-1.859-1.586-1.859
		c-1.157,0-1.664,1.066-1.756,1.859H66.299z"/>
	<path style="fill:#FFFFFF;" d="M69.315,20.589l0.896,1.352c0.234,0.351,0.43,0.676,0.637,1.027h0.039
		c0.208-0.377,0.416-0.702,0.624-1.04l0.885-1.339h1.234l-2.145,3.042l2.21,3.25h-1.3l-0.923-1.417
		c-0.247-0.364-0.455-0.715-0.677-1.092h-0.025c-0.208,0.377-0.43,0.715-0.663,1.092l-0.91,1.417h-1.262l2.236-3.211l-2.132-3.081
		H69.315z"/>
	<path style="fill:#FFFFFF;" d="M74.8,22.643c0-0.806-0.026-1.456-0.052-2.054h1.026l0.052,1.079h0.026
		c0.468-0.767,1.209-1.222,2.236-1.222c1.521,0,2.665,1.287,2.665,3.198c0,2.262-1.378,3.38-2.86,3.38
		c-0.832,0-1.56-0.364-1.937-0.988h-0.026v3.419H74.8V22.643z M75.931,24.32c0,0.169,0.026,0.325,0.052,0.468
		c0.208,0.793,0.897,1.339,1.717,1.339c1.209,0,1.91-0.988,1.91-2.431c0-1.261-0.662-2.34-1.872-2.34
		c-0.779,0-1.508,0.559-1.729,1.417c-0.039,0.143-0.078,0.313-0.078,0.468V24.32z"/>
	<path style="fill:#FFFFFF;" d="M82.834,23.943c0.026,1.547,1.015,2.184,2.158,2.184c0.819,0,1.313-0.143,1.742-0.325l0.195,0.819
		c-0.403,0.182-1.093,0.39-2.094,0.39c-1.937,0-3.094-1.274-3.094-3.172c0-1.898,1.118-3.393,2.951-3.393
		c2.054,0,2.6,1.807,2.6,2.964c0,0.234-0.025,0.416-0.039,0.533H82.834z M86.188,23.124c0.013-0.728-0.299-1.859-1.586-1.859
		c-1.157,0-1.664,1.066-1.756,1.859H86.188z"/>
	<path style="fill:#FFFFFF;" d="M88.71,22.552c0-0.741-0.014-1.378-0.052-1.963h1.001l0.039,1.235h0.052
		c0.286-0.845,0.975-1.378,1.742-1.378c0.13,0,0.221,0.013,0.325,0.039v1.079c-0.117-0.026-0.234-0.039-0.391-0.039
		c-0.806,0-1.378,0.611-1.534,1.469c-0.025,0.156-0.052,0.338-0.052,0.533v3.354H88.71V22.552z"/>
	<path style="fill:#FFFFFF;" d="M94.287,18.82c0.014,0.39-0.272,0.702-0.728,0.702c-0.403,0-0.689-0.312-0.689-0.702
		c0-0.403,0.3-0.715,0.716-0.715C94.014,18.105,94.287,18.417,94.287,18.82z M93.013,26.881v-6.292h1.144v6.292H93.013z"/>
	<path style="fill:#FFFFFF;" d="M96.692,23.943c0.026,1.547,1.014,2.184,2.158,2.184c0.819,0,1.313-0.143,1.742-0.325l0.195,0.819
		c-0.403,0.182-1.093,0.39-2.094,0.39c-1.937,0-3.094-1.274-3.094-3.172c0-1.898,1.118-3.393,2.951-3.393
		c2.054,0,2.6,1.807,2.6,2.964c0,0.234-0.025,0.416-0.039,0.533H96.692z M100.046,23.124c0.013-0.728-0.299-1.859-1.586-1.859
		c-1.157,0-1.664,1.066-1.756,1.859H100.046z"/>
	<path style="fill:#FFFFFF;" d="M102.568,22.292c0-0.65-0.013-1.183-0.052-1.703h1.014l0.064,1.04h0.026
		c0.313-0.598,1.04-1.183,2.08-1.183c0.871,0,2.224,0.52,2.224,2.678v3.757h-1.145v-3.627c0-1.014-0.377-1.859-1.456-1.859
		c-0.754,0-1.339,0.533-1.534,1.17c-0.052,0.143-0.078,0.338-0.078,0.533v3.783h-1.144V22.292z"/>
	<path style="fill:#FFFFFF;" d="M114.268,26.647c-0.3,0.156-0.963,0.364-1.808,0.364c-1.897,0-3.133-1.287-3.133-3.211
		c0-1.937,1.326-3.341,3.38-3.341c0.676,0,1.274,0.169,1.586,0.325l-0.26,0.884c-0.273-0.156-0.702-0.299-1.326-0.299
		c-1.443,0-2.223,1.066-2.223,2.379c0,1.456,0.936,2.353,2.184,2.353c0.65,0,1.079-0.169,1.404-0.312L114.268,26.647z"/>
	<path style="fill:#FFFFFF;" d="M116.88,18.82c0.014,0.39-0.272,0.702-0.728,0.702c-0.403,0-0.689-0.312-0.689-0.702
		c0-0.403,0.3-0.715,0.716-0.715C116.608,18.105,116.88,18.417,116.88,18.82z M115.607,26.881v-6.292h1.144v6.292H115.607z"/>
	<path style="fill:#FFFFFF;" d="M118.649,22.292c0-0.65-0.014-1.183-0.052-1.703h1.014l0.065,1.04h0.025
		c0.313-0.598,1.04-1.183,2.08-1.183c0.871,0,2.224,0.52,2.224,2.678v3.757h-1.145v-3.627c0-1.014-0.377-1.859-1.456-1.859
		c-0.754,0-1.339,0.533-1.534,1.17c-0.052,0.143-0.078,0.338-0.078,0.533v3.783h-1.144V22.292z"/>
	<path style="fill:#FFFFFF;" d="M131.285,20.589c-0.026,0.455-0.052,0.962-0.052,1.729v3.653c0,1.443-0.286,2.327-0.897,2.873
		c-0.61,0.572-1.495,0.754-2.288,0.754c-0.754,0-1.586-0.182-2.093-0.52l0.286-0.871c0.416,0.26,1.066,0.494,1.846,0.494
		c1.17,0,2.028-0.611,2.028-2.197v-0.702h-0.026c-0.351,0.585-1.026,1.053-2.002,1.053c-1.56,0-2.678-1.326-2.678-3.068
		c0-2.132,1.391-3.341,2.834-3.341c1.092,0,1.69,0.572,1.963,1.092h0.026l0.052-0.949H131.285z M130.102,23.072
		c0-0.195-0.014-0.364-0.065-0.52c-0.208-0.663-0.767-1.209-1.599-1.209c-1.093,0-1.872,0.923-1.872,2.379
		c0,1.235,0.624,2.262,1.858,2.262c0.702,0,1.34-0.442,1.586-1.17c0.065-0.195,0.092-0.416,0.092-0.611V23.072z"/>
	<path style="fill:#FFFFFF;" d="M5.767,42.881l-0.092-0.793H5.636c-0.351,0.494-1.026,0.936-1.924,0.936
		c-1.273,0-1.924-0.897-1.924-1.807c0-1.521,1.352-2.353,3.783-2.34v-0.13c0-0.52-0.144-1.456-1.431-1.456
		c-0.585,0-1.195,0.182-1.638,0.468l-0.26-0.754c0.52-0.338,1.274-0.559,2.067-0.559c1.924,0,2.392,1.313,2.392,2.574v2.354
		c0,0.546,0.026,1.079,0.104,1.508H5.767z M5.598,39.67c-1.248-0.026-2.666,0.195-2.666,1.417c0,0.741,0.494,1.092,1.079,1.092
		c0.819,0,1.34-0.52,1.521-1.053c0.039-0.117,0.065-0.247,0.065-0.364V39.67z"/>
	<path style="fill:#FFFFFF;" d="M8.548,38.292c0-0.65-0.013-1.183-0.052-1.703H9.51l0.064,1.04h0.026
		c0.313-0.598,1.04-1.183,2.08-1.183c0.871,0,2.224,0.52,2.224,2.678v3.757H12.76v-3.627c0-1.014-0.377-1.859-1.456-1.859
		c-0.754,0-1.339,0.533-1.534,1.17c-0.052,0.143-0.078,0.338-0.078,0.533v3.783H8.548V38.292z"/>
	<path style="fill:#FFFFFF;" d="M22.003,42.881l-0.092-0.793h-0.039c-0.351,0.494-1.026,0.936-1.924,0.936
		c-1.273,0-1.924-0.897-1.924-1.807c0-1.521,1.352-2.353,3.783-2.34v-0.13c0-0.52-0.144-1.456-1.431-1.456
		c-0.585,0-1.195,0.182-1.638,0.468l-0.26-0.754c0.52-0.338,1.274-0.559,2.067-0.559c1.924,0,2.392,1.313,2.392,2.574v2.354
		c0,0.546,0.026,1.079,0.104,1.508H22.003z M21.835,39.67c-1.248-0.026-2.666,0.195-2.666,1.417c0,0.741,0.494,1.092,1.079,1.092
		c0.819,0,1.34-0.52,1.521-1.053c0.039-0.117,0.065-0.247,0.065-0.364V39.67z"/>
	<path style="fill:#FFFFFF;" d="M24.628,41.711c0.338,0.221,0.937,0.455,1.508,0.455c0.832,0,1.223-0.416,1.223-0.936
		c0-0.546-0.325-0.845-1.17-1.157c-1.132-0.403-1.664-1.027-1.664-1.781c0-1.014,0.818-1.846,2.171-1.846
		c0.637,0,1.195,0.182,1.547,0.39l-0.286,0.832c-0.247-0.156-0.702-0.364-1.287-0.364c-0.676,0-1.053,0.39-1.053,0.858
		c0,0.52,0.377,0.754,1.196,1.066c1.092,0.416,1.65,0.962,1.65,1.898c0,1.105-0.857,1.885-2.353,1.885
		c-0.689,0-1.326-0.169-1.769-0.429L24.628,41.711z"/>
	<path style="fill:#FFFFFF;" d="M31.31,34.782v1.807h1.638v0.871H31.31v3.393c0,0.78,0.221,1.222,0.858,1.222
		c0.299,0,0.52-0.039,0.662-0.078l0.053,0.858c-0.222,0.091-0.572,0.156-1.015,0.156c-0.532,0-0.962-0.169-1.234-0.481
		c-0.325-0.338-0.442-0.897-0.442-1.638v-3.432h-0.975v-0.871h0.975v-1.508L31.31,34.782z"/>
	<path style="fill:#FFFFFF;" d="M34.235,33.65h1.144v3.926h0.026c0.182-0.325,0.468-0.611,0.819-0.806
		c0.338-0.195,0.74-0.325,1.17-0.325c0.845,0,2.197,0.52,2.197,2.691v3.744h-1.145v-3.614c0-1.014-0.377-1.872-1.456-1.872
		c-0.741,0-1.326,0.52-1.534,1.144c-0.064,0.156-0.078,0.325-0.078,0.546v3.796h-1.144V33.65z"/>
	<path style="fill:#FFFFFF;" d="M41.45,38.292c0-0.65-0.014-1.183-0.052-1.703h1.001l0.052,1.014h0.039
		c0.351-0.598,0.936-1.157,1.976-1.157c0.858,0,1.509,0.52,1.781,1.261h0.026c0.194-0.351,0.441-0.624,0.702-0.819
		c0.377-0.286,0.793-0.442,1.391-0.442c0.832,0,2.067,0.546,2.067,2.73v3.705h-1.118v-3.562c0-1.209-0.442-1.937-1.365-1.937
		c-0.65,0-1.157,0.481-1.352,1.04c-0.053,0.156-0.092,0.364-0.092,0.572v3.887h-1.117v-3.77c0-1.001-0.442-1.729-1.313-1.729
		c-0.715,0-1.235,0.572-1.417,1.144c-0.065,0.169-0.091,0.364-0.091,0.559v3.796H41.45V38.292z"/>
	<path style="fill:#FFFFFF;" d="M55.776,42.881l-0.092-0.793h-0.039c-0.351,0.494-1.026,0.936-1.924,0.936
		c-1.273,0-1.924-0.897-1.924-1.807c0-1.521,1.352-2.353,3.783-2.34v-0.13c0-0.52-0.144-1.456-1.43-1.456
		c-0.586,0-1.196,0.182-1.639,0.468l-0.26-0.754c0.52-0.338,1.273-0.559,2.067-0.559c1.924,0,2.392,1.313,2.392,2.574v2.354
		c0,0.546,0.026,1.079,0.104,1.508H55.776z M55.606,39.67c-1.248-0.026-2.665,0.195-2.665,1.417c0,0.741,0.494,1.092,1.079,1.092
		c0.819,0,1.34-0.52,1.521-1.053c0.039-0.117,0.064-0.247,0.064-0.364V39.67z"/>
	<path style="fill:#FFFFFF;" d="M61.95,39.943c0.026,1.547,1.014,2.184,2.158,2.184c0.819,0,1.313-0.143,1.742-0.325l0.195,0.819
		c-0.403,0.182-1.093,0.39-2.094,0.39c-1.937,0-3.094-1.274-3.094-3.172c0-1.898,1.118-3.393,2.951-3.393
		c2.054,0,2.6,1.807,2.6,2.964c0,0.234-0.025,0.416-0.039,0.533H61.95z M65.304,39.124c0.013-0.728-0.299-1.859-1.586-1.859
		c-1.157,0-1.664,1.066-1.756,1.859H65.304z"/>
	<path style="fill:#FFFFFF;" d="M68.32,36.589l0.896,1.352c0.234,0.351,0.429,0.676,0.638,1.027h0.038
		c0.208-0.377,0.416-0.702,0.624-1.04l0.885-1.339h1.234l-2.145,3.042l2.21,3.25h-1.3l-0.924-1.417
		c-0.246-0.364-0.454-0.715-0.676-1.092h-0.025c-0.208,0.377-0.43,0.715-0.663,1.092l-0.91,1.417h-1.261l2.235-3.211l-2.132-3.081
		H68.32z"/>
	<path style="fill:#FFFFFF;" d="M77.29,42.881l-0.092-0.793h-0.039c-0.351,0.494-1.026,0.936-1.924,0.936
		c-1.273,0-1.924-0.897-1.924-1.807c0-1.521,1.352-2.353,3.783-2.34v-0.13c0-0.52-0.144-1.456-1.43-1.456
		c-0.586,0-1.196,0.182-1.639,0.468l-0.26-0.754c0.52-0.338,1.273-0.559,2.067-0.559c1.924,0,2.392,1.313,2.392,2.574v2.354
		c0,0.546,0.026,1.079,0.104,1.508H77.29z M77.12,39.67c-1.248-0.026-2.665,0.195-2.665,1.417c0,0.741,0.494,1.092,1.079,1.092
		c0.819,0,1.34-0.52,1.521-1.053c0.039-0.117,0.064-0.247,0.064-0.364V39.67z"/>
	<path style="fill:#FFFFFF;" d="M84.556,42.647c-0.3,0.156-0.962,0.364-1.808,0.364c-1.897,0-3.133-1.287-3.133-3.211
		c0-1.937,1.326-3.341,3.38-3.341c0.676,0,1.274,0.169,1.586,0.325l-0.26,0.884c-0.273-0.156-0.702-0.299-1.326-0.299
		c-1.443,0-2.223,1.066-2.223,2.379c0,1.456,0.936,2.353,2.184,2.353c0.65,0,1.079-0.169,1.404-0.312L84.556,42.647z"/>
	<path style="fill:#FFFFFF;" d="M86.454,39.943c0.026,1.547,1.014,2.184,2.158,2.184c0.819,0,1.313-0.143,1.742-0.325l0.195,0.819
		c-0.403,0.182-1.093,0.39-2.094,0.39c-1.937,0-3.094-1.274-3.094-3.172c0-1.898,1.118-3.393,2.951-3.393
		c2.054,0,2.6,1.807,2.6,2.964c0,0.234-0.025,0.416-0.039,0.533H86.454z M89.808,39.124c0.013-0.728-0.299-1.859-1.586-1.859
		c-1.157,0-1.664,1.066-1.756,1.859H89.808z"/>
	<path style="fill:#FFFFFF;" d="M92.33,38.552c0-0.741-0.013-1.378-0.052-1.963h1.001l0.039,1.235h0.052
		c0.286-0.845,0.975-1.378,1.742-1.378c0.13,0,0.221,0.013,0.324,0.039v1.079c-0.116-0.026-0.233-0.039-0.39-0.039
		c-0.806,0-1.378,0.611-1.534,1.469c-0.025,0.156-0.052,0.338-0.052,0.533v3.354H92.33V38.552z"/>
	<path style="fill:#FFFFFF;" d="M96.582,42.881c0.025-0.429,0.052-1.066,0.052-1.625V33.65h1.131v3.952h0.026
		c0.402-0.702,1.131-1.157,2.145-1.157c1.561,0,2.665,1.3,2.652,3.211c0,2.249-1.417,3.367-2.821,3.367
		c-0.91,0-1.638-0.351-2.105-1.183h-0.039l-0.053,1.04H96.582z M97.764,40.359c0,0.143,0.026,0.286,0.052,0.416
		c0.222,0.793,0.884,1.339,1.716,1.339c1.196,0,1.911-0.975,1.911-2.418c0-1.261-0.649-2.34-1.872-2.34
		c-0.779,0-1.508,0.533-1.741,1.404c-0.026,0.13-0.065,0.286-0.065,0.468V40.359z"/>
	<path style="fill:#FFFFFF;" d="M107.514,42.881l-0.092-0.793h-0.039c-0.351,0.494-1.026,0.936-1.924,0.936
		c-1.273,0-1.924-0.897-1.924-1.807c0-1.521,1.352-2.353,3.783-2.34v-0.13c0-0.52-0.144-1.456-1.43-1.456
		c-0.586,0-1.196,0.182-1.639,0.468l-0.26-0.754c0.52-0.338,1.273-0.559,2.067-0.559c1.924,0,2.392,1.313,2.392,2.574v2.354
		c0,0.546,0.026,1.079,0.104,1.508H107.514z M107.344,39.67c-1.248-0.026-2.665,0.195-2.665,1.417c0,0.741,0.494,1.092,1.079,1.092
		c0.819,0,1.34-0.52,1.521-1.053c0.039-0.117,0.064-0.247,0.064-0.364V39.67z"/>
	<path style="fill:#FFFFFF;" d="M111.621,34.782v1.807h1.638v0.871h-1.638v3.393c0,0.78,0.221,1.222,0.858,1.222
		c0.299,0,0.52-0.039,0.662-0.078l0.053,0.858c-0.222,0.091-0.572,0.156-1.015,0.156c-0.532,0-0.962-0.169-1.234-0.481
		c-0.325-0.338-0.442-0.897-0.442-1.638v-3.432h-0.975v-0.871h0.975v-1.508L111.621,34.782z"/>
	<path style="fill:#FFFFFF;" d="M115.819,34.82c0.014,0.39-0.272,0.702-0.728,0.702c-0.403,0-0.689-0.312-0.689-0.702
		c0-0.403,0.3-0.715,0.716-0.715C115.546,34.105,115.819,34.417,115.819,34.82z M114.545,42.881v-6.292h1.144v6.292H114.545z"/>
	<path style="fill:#FFFFFF;" d="M123.282,39.683c0,2.327-1.612,3.341-3.134,3.341c-1.703,0-3.016-1.248-3.016-3.237
		c0-2.106,1.378-3.341,3.12-3.341C122.059,36.446,123.282,37.759,123.282,39.683z M118.29,39.748c0,1.378,0.793,2.418,1.911,2.418
		c1.092,0,1.911-1.027,1.911-2.444c0-1.066-0.533-2.418-1.886-2.418C118.875,37.304,118.29,38.552,118.29,39.748z"/>
	<path style="fill:#FFFFFF;" d="M124.724,38.292c0-0.65-0.013-1.183-0.052-1.703h1.014l0.064,1.04h0.026
		c0.313-0.598,1.04-1.183,2.08-1.183c0.871,0,2.224,0.52,2.224,2.678v3.757h-1.145v-3.627c0-1.014-0.377-1.859-1.456-1.859
		c-0.754,0-1.339,0.533-1.534,1.17c-0.052,0.143-0.078,0.338-0.078,0.533v3.783h-1.144V38.292z"/>
	<path style="fill:#FFFFFF;" d="M135.267,34.417l-1.235,1.625v0.026l1.963-0.26v0.884l-1.963-0.234v0.026l1.248,1.561l-0.819,0.468
		l-0.779-1.82h-0.026l-0.845,1.833l-0.741-0.468l1.235-1.586v-0.026l-1.925,0.247v-0.884l1.911,0.247V36.03l-1.222-1.586
		l0.793-0.455l0.806,1.807h0.026l0.793-1.82L135.267,34.417z"/>
</g>
<g>
</g>
<g>
</g>
<g>
</g>
<g>
</g>
<g>
</g>
<g>
</g>
<g>
</g>
<g>
</g>
<g>
</g>
<g>
</g>
<g>
</g>
<g>
</g>
<g>
</g>
<g>
</g>
<g>
</g>
<g>
</g>
</svg>
