<?xml version="1.0" encoding="utf-8"?>
<!-- Generator: Adobe Illustrator 19.1.0, SVG Export Plug-In . SVG Version: 6.00 Build 0)  -->
<!DOCTYPE svg PUBLIC "-//W3C//DTD SVG 1.1//EN" "http://www.w3.org/Graphics/SVG/1.1/DTD/svg11.dtd">
<svg version="1.1" xmlns="http://www.w3.org/2000/svg" xmlns:xlink="http://www.w3.org/1999/xlink" x="0px" y="0px" width="147.8px"
	 height="164.5px" viewBox="0 0 147.8 164.5" style="enable-background:new 0 0 147.8 164.5;" xml:space="preserve">
<style type="text/css">
	.st0{fill:#004B8C;}
	.st1{display:none;fill:none;}
	.st2{opacity:0.6;fill:url(#SVGID_1_);}
	.st3{opacity:0.6;fill:url(#SVGID_2_);}
	.st4{fill:none;}
	.st5{fill:#FFFFFF;}
	.st6{fill:url(#SVGID_3_);}
	.st7{clip-path:url(#SVGID_5_);fill:#FFFFFF;}
	.st8{fill:#002D73;}
	.st9{clip-path:url(#SVGID_6_);fill:#FFFFFF;}
	.st10{clip-path:url(#SVGID_8_);fill:url(#SVGID_9_);}
	.st11{fill:#114B89;}
	.st12{clip-path:url(#SVGID_10_);fill:#FFFFFF;}
	.st13{opacity:0.5;}
	.st14{fill:url(#SVGID_11_);}
	.st15{fill-rule:evenodd;clip-rule:evenodd;fill:url(#SVGID_12_);}
	.st16{fill:url(#SVGID_13_);}
	.st17{fill-rule:evenodd;clip-rule:evenodd;fill:url(#SVGID_14_);}
	.st18{opacity:0.32;}
	.st19{clip-path:url(#SVGID_16_);fill:url(#SVGID_17_);}
	.st20{fill:url(#SVGID_18_);}
	.st21{fill-rule:evenodd;clip-rule:evenodd;fill:url(#SVGID_19_);}
	.st22{clip-path:url(#SVGID_21_);fill:url(#SVGID_22_);}
	.st23{clip-path:url(#SVGID_24_);fill:url(#SVGID_25_);}
	.st24{opacity:0.5;fill:url(#SVGID_26_);}
	.st25{fill:#231F20;}
	.st26{clip-path:url(#SVGID_28_);fill:#231F20;}
	.st27{clip-path:url(#SVGID_28_);fill:#6FA5D9;}
	.st28{clip-path:url(#SVGID_28_);fill:#007AC1;}
	.st29{fill:none;stroke:#58595B;stroke-width:0.1413;}
	.st30{clip-path:url(#SVGID_30_);fill:#F27021;}
	.st31{clip-path:url(#SVGID_32_);}
	.st32{clip-path:url(#SVGID_36_);}
	.st33{clip-path:url(#SVGID_40_);}
	.st34{clip-path:url(#SVGID_44_);}
	.st35{clip-path:url(#SVGID_48_);}
	.st36{clip-path:url(#SVGID_52_);}
	.st37{clip-path:url(#SVGID_56_);}
	.st38{clip-path:url(#SVGID_58_);}
	.st39{clip-path:url(#SVGID_62_);}
	.st40{clip-path:url(#SVGID_64_);}
	.st41{clip-path:url(#SVGID_68_);}
	.st42{clip-path:url(#SVGID_70_);}
	.st43{clip-path:url(#SVGID_74_);}
	.st44{clip-path:url(#SVGID_76_);}
	.st45{clip-path:url(#SVGID_80_);}
	.st46{clip-path:url(#SVGID_84_);}
	.st47{clip-path:url(#SVGID_88_);}
	.st48{clip-path:url(#SVGID_92_);}
	.st49{clip-path:url(#SVGID_96_);}
	.st50{clip-path:url(#SVGID_100_);}
	.st51{clip-path:url(#SVGID_104_);}
	.st52{clip-path:url(#SVGID_108_);}
	.st53{clip-path:url(#SVGID_112_);}
	.st54{clip-path:url(#SVGID_116_);}
	.st55{clip-path:url(#SVGID_120_);}
	.st56{clip-path:url(#SVGID_124_);}
	.st57{clip-path:url(#SVGID_128_);}
	.st58{clip-path:url(#SVGID_132_);}
	.st59{clip-path:url(#SVGID_136_);}
	.st60{clip-path:url(#SVGID_140_);}
	.st61{clip-path:url(#SVGID_144_);}
	.st62{clip-path:url(#SVGID_148_);}
	.st63{clip-path:url(#SVGID_152_);}
	.st64{clip-path:url(#SVGID_156_);}
	.st65{clip-path:url(#SVGID_160_);}
	.st66{clip-path:url(#SVGID_164_);}
	.st67{clip-path:url(#SVGID_168_);}
	.st68{clip-path:url(#SVGID_172_);}
	.st69{clip-path:url(#SVGID_176_);}
	.st70{clip-path:url(#SVGID_180_);}
	.st71{clip-path:url(#SVGID_182_);}
	.st72{clip-path:url(#SVGID_186_);}
	.st73{clip-path:url(#SVGID_190_);}
	.st74{clip-path:url(#SVGID_194_);}
	.st75{clip-path:url(#SVGID_198_);}
	.st76{clip-path:url(#SVGID_202_);}
	.st77{clip-path:url(#SVGID_206_);}
	.st78{clip-path:url(#SVGID_210_);}
	.st79{clip-path:url(#SVGID_214_);}
	.st80{clip-path:url(#SVGID_218_);}
	.st81{clip-path:url(#SVGID_222_);}
	.st82{clip-path:url(#SVGID_224_);}
	.st83{clip-path:url(#SVGID_228_);}
	.st84{clip-path:url(#SVGID_232_);}
	.st85{clip-path:url(#SVGID_236_);}
	.st86{clip-path:url(#SVGID_240_);}
	.st87{clip-path:url(#SVGID_244_);}
	.st88{clip-path:url(#SVGID_248_);}
	.st89{clip-path:url(#SVGID_252_);}
	.st90{clip-path:url(#SVGID_256_);}
	.st91{clip-path:url(#SVGID_260_);}
	.st92{clip-path:url(#SVGID_264_);}
	.st93{clip-path:url(#SVGID_268_);}
	.st94{clip-path:url(#SVGID_272_);}
	.st95{clip-path:url(#SVGID_276_);}
	.st96{clip-path:url(#SVGID_280_);}
	.st97{clip-path:url(#SVGID_284_);}
	.st98{clip-path:url(#SVGID_288_);}
	.st99{clip-path:url(#SVGID_292_);}
	.st100{clip-path:url(#SVGID_296_);}
	.st101{clip-path:url(#SVGID_300_);}
	.st102{clip-path:url(#SVGID_304_);}
	.st103{clip-path:url(#SVGID_308_);}
	.st104{clip-path:url(#SVGID_312_);}
	.st105{clip-path:url(#SVGID_316_);}
	.st106{clip-path:url(#SVGID_320_);}
	.st107{clip-path:url(#SVGID_324_);}
	.st108{clip-path:url(#SVGID_328_);}
	.st109{clip-path:url(#SVGID_332_);}
	.st110{clip-path:url(#SVGID_336_);}
	.st111{clip-path:url(#SVGID_340_);}
	.st112{clip-path:url(#SVGID_344_);}
	.st113{clip-path:url(#SVGID_348_);}
	.st114{clip-path:url(#SVGID_352_);}
	.st115{clip-path:url(#SVGID_356_);}
	.st116{clip-path:url(#SVGID_360_);}
	.st117{clip-path:url(#SVGID_364_);}
	.st118{clip-path:url(#SVGID_368_);}
	.st119{clip-path:url(#SVGID_372_);}
	.st120{clip-path:url(#SVGID_376_);}
	.st121{clip-path:url(#SVGID_380_);}
	.st122{clip-path:url(#SVGID_384_);}
	.st123{clip-path:url(#SVGID_388_);}
	.st124{clip-path:url(#SVGID_392_);}
	.st125{clip-path:url(#SVGID_396_);}
	.st126{clip-path:url(#SVGID_400_);}
	.st127{clip-path:url(#SVGID_404_);}
	.st128{clip-path:url(#SVGID_408_);}
	.st129{clip-path:url(#SVGID_412_);}
	.st130{clip-path:url(#SVGID_416_);}
	.st131{clip-path:url(#SVGID_420_);}
	.st132{clip-path:url(#SVGID_424_);}
	.st133{clip-path:url(#SVGID_428_);}
	.st134{clip-path:url(#SVGID_432_);}
	.st135{clip-path:url(#SVGID_436_);}
	.st136{clip-path:url(#SVGID_440_);}
	.st137{clip-path:url(#SVGID_444_);}
	.st138{clip-path:url(#SVGID_448_);}
	.st139{clip-path:url(#SVGID_452_);}
	.st140{clip-path:url(#SVGID_456_);}
	.st141{clip-path:url(#SVGID_460_);}
	.st142{clip-path:url(#SVGID_464_);}
	.st143{clip-path:url(#SVGID_468_);}
	.st144{clip-path:url(#SVGID_472_);}
	.st145{clip-path:url(#SVGID_476_);}
	.st146{clip-path:url(#SVGID_480_);}
	.st147{clip-path:url(#SVGID_482_);}
	.st148{clip-path:url(#SVGID_486_);}
	.st149{clip-path:url(#SVGID_490_);}
	.st150{clip-path:url(#SVGID_492_);}
	.st151{clip-path:url(#SVGID_496_);}
	.st152{clip-path:url(#SVGID_500_);}
	.st153{clip-path:url(#SVGID_502_);}
	.st154{clip-path:url(#SVGID_506_);}
	.st155{clip-path:url(#SVGID_508_);}
	.st156{clip-path:url(#SVGID_512_);}
	.st157{clip-path:url(#SVGID_514_);}
	.st158{clip-path:url(#SVGID_518_);}
	.st159{clip-path:url(#SVGID_520_);}
	.st160{clip-path:url(#SVGID_524_);}
	.st161{clip-path:url(#SVGID_526_);}
	.st162{clip-path:url(#SVGID_530_);}
	.st163{clip-path:url(#SVGID_534_);}
	.st164{clip-path:url(#SVGID_536_);}
	.st165{clip-path:url(#SVGID_540_);}
	.st166{clip-path:url(#SVGID_542_);}
	.st167{clip-path:url(#SVGID_546_);}
	.st168{clip-path:url(#SVGID_548_);}
	.st169{clip-path:url(#SVGID_552_);}
	.st170{clip-path:url(#SVGID_554_);}
	.st171{clip-path:url(#SVGID_558_);}
	.st172{clip-path:url(#SVGID_560_);}
	.st173{clip-path:url(#SVGID_564_);}
	.st174{clip-path:url(#SVGID_568_);}
	.st175{clip-path:url(#SVGID_572_);}
	.st176{clip-path:url(#SVGID_576_);}
	.st177{clip-path:url(#SVGID_580_);}
	.st178{clip-path:url(#SVGID_584_);}
	.st179{clip-path:url(#SVGID_588_);}
	.st180{clip-path:url(#SVGID_592_);}
	.st181{clip-path:url(#SVGID_596_);}
	.st182{clip-path:url(#SVGID_600_);}
	.st183{clip-path:url(#SVGID_604_);}
	.st184{clip-path:url(#SVGID_608_);}
	.st185{clip-path:url(#SVGID_612_);}
	.st186{clip-path:url(#SVGID_616_);}
	.st187{clip-path:url(#SVGID_620_);}
	.st188{clip-path:url(#SVGID_624_);}
	.st189{clip-path:url(#SVGID_628_);}
	.st190{clip-path:url(#SVGID_632_);}
	.st191{clip-path:url(#SVGID_636_);}
	.st192{clip-path:url(#SVGID_640_);}
	.st193{clip-path:url(#SVGID_644_);}
	.st194{clip-path:url(#SVGID_648_);}
	.st195{clip-path:url(#SVGID_652_);}
	.st196{clip-path:url(#SVGID_656_);}
	.st197{clip-path:url(#SVGID_660_);}
	.st198{clip-path:url(#SVGID_664_);}
	.st199{clip-path:url(#SVGID_668_);}
	.st200{clip-path:url(#SVGID_672_);}
	.st201{clip-path:url(#SVGID_676_);}
	.st202{clip-path:url(#SVGID_680_);}
	.st203{clip-path:url(#SVGID_684_);}
	.st204{clip-path:url(#SVGID_688_);}
	.st205{clip-path:url(#SVGID_692_);}
	.st206{clip-path:url(#SVGID_694_);}
	.st207{clip-path:url(#SVGID_698_);}
	.st208{clip-path:url(#SVGID_702_);}
	.st209{clip-path:url(#SVGID_704_);}
	.st210{clip-path:url(#SVGID_708_);}
	.st211{clip-path:url(#SVGID_712_);}
	.st212{clip-path:url(#SVGID_716_);}
	.st213{clip-path:url(#SVGID_720_);}
	.st214{clip-path:url(#SVGID_724_);}
	.st215{clip-path:url(#SVGID_728_);}
	.st216{clip-path:url(#SVGID_732_);}
	.st217{clip-path:url(#SVGID_736_);}
	.st218{clip-path:url(#SVGID_740_);}
	.st219{clip-path:url(#SVGID_744_);}
	.st220{clip-path:url(#SVGID_748_);}
	.st221{clip-path:url(#SVGID_752_);}
	.st222{clip-path:url(#SVGID_756_);}
	.st223{clip-path:url(#SVGID_760_);}
	.st224{clip-path:url(#SVGID_764_);}
	.st225{clip-path:url(#SVGID_768_);}
	.st226{clip-path:url(#SVGID_772_);}
	.st227{clip-path:url(#SVGID_776_);}
	.st228{clip-path:url(#SVGID_780_);}
	.st229{clip-path:url(#SVGID_784_);}
	.st230{clip-path:url(#SVGID_788_);}
	.st231{clip-path:url(#SVGID_792_);}
	.st232{clip-path:url(#SVGID_796_);}
	.st233{clip-path:url(#SVGID_800_);}
	.st234{clip-path:url(#SVGID_804_);}
	.st235{clip-path:url(#SVGID_808_);}
	.st236{clip-path:url(#SVGID_812_);}
	.st237{clip-path:url(#SVGID_816_);}
	.st238{clip-path:url(#SVGID_820_);}
	.st239{clip-path:url(#SVGID_824_);}
	.st240{clip-path:url(#SVGID_828_);}
	.st241{clip-path:url(#SVGID_832_);}
	.st242{clip-path:url(#SVGID_836_);}
	.st243{clip-path:url(#SVGID_840_);}
	.st244{clip-path:url(#SVGID_844_);}
	.st245{clip-path:url(#SVGID_848_);}
	.st246{clip-path:url(#SVGID_852_);}
	.st247{clip-path:url(#SVGID_856_);}
	.st248{clip-path:url(#SVGID_860_);}
	.st249{clip-path:url(#SVGID_864_);}
	.st250{clip-path:url(#SVGID_868_);}
	.st251{clip-path:url(#SVGID_872_);}
	.st252{clip-path:url(#SVGID_876_);}
	.st253{clip-path:url(#SVGID_880_);}
	.st254{clip-path:url(#SVGID_884_);}
	.st255{clip-path:url(#SVGID_888_);}
	.st256{clip-path:url(#SVGID_892_);}
	.st257{clip-path:url(#SVGID_896_);}
	.st258{clip-path:url(#SVGID_900_);}
	.st259{clip-path:url(#SVGID_904_);}
	.st260{clip-path:url(#SVGID_908_);}
	.st261{clip-path:url(#SVGID_912_);}
	.st262{clip-path:url(#SVGID_916_);}
	.st263{clip-path:url(#SVGID_920_);}
	.st264{clip-path:url(#SVGID_924_);}
	.st265{clip-path:url(#SVGID_926_);}
	.st266{clip-path:url(#SVGID_930_);}
	.st267{clip-path:url(#SVGID_934_);}
	.st268{clip-path:url(#SVGID_938_);}
	.st269{clip-path:url(#SVGID_942_);}
	.st270{clip-path:url(#SVGID_946_);}
	.st271{clip-path:url(#SVGID_950_);}
	.st272{clip-path:url(#SVGID_954_);}
	.st273{clip-path:url(#SVGID_958_);}
	.st274{clip-path:url(#SVGID_962_);}
	.st275{clip-path:url(#SVGID_966_);}
	.st276{clip-path:url(#SVGID_970_);}
	.st277{clip-path:url(#SVGID_974_);}
	.st278{clip-path:url(#SVGID_978_);}
	.st279{clip-path:url(#SVGID_980_);}
	.st280{clip-path:url(#SVGID_984_);}
	.st281{clip-path:url(#SVGID_986_);}
	.st282{clip-path:url(#SVGID_990_);}
	.st283{clip-path:url(#SVGID_994_);}
	.st284{clip-path:url(#SVGID_996_);}
	.st285{clip-path:url(#SVGID_1000_);}
	.st286{clip-path:url(#SVGID_1002_);}
	.st287{clip-path:url(#SVGID_1006_);}
	.st288{clip-path:url(#SVGID_1008_);}
	.st289{clip-path:url(#SVGID_1012_);}
	.st290{clip-path:url(#SVGID_1016_);}
	.st291{clip-path:url(#SVGID_1020_);}
	.st292{clip-path:url(#SVGID_1024_);}
	.st293{clip-path:url(#SVGID_1028_);}
	.st294{clip-path:url(#SVGID_1032_);fill:#FFFFFF;}
	.st295{fill:url(#SVGID_1033_);}
	.st296{fill:none;stroke:#002D73;stroke-width:0.859;stroke-miterlimit:10;}
	.st297{fill:#65797F;}
	.st298{fill:url(#SVGID_1034_);}
	.st299{fill-rule:evenodd;clip-rule:evenodd;fill:url(#SVGID_1035_);}
	.st300{clip-path:url(#SVGID_1036_);fill:#FFFFFF;}
	.st301{fill:url(#SVGID_1037_);}
	.st302{fill:none;stroke:#002D73;stroke-linecap:round;stroke-miterlimit:10;}
	.st303{opacity:0.6;fill:url(#SVGID_1038_);}
	.st304{fill:url(#SVGID_1039_);}
	.st305{opacity:0.3;fill:#FFFFFF;}
	.st306{clip-path:url(#SVGID_1040_);fill:#FFFFFF;}
	.st307{fill:none;stroke:#002D73;stroke-miterlimit:10;}
	.st308{opacity:0.6;fill:url(#SVGID_1041_);}
	.st309{fill:url(#SVGID_1042_);}
	.st310{clip-path:url(#SVGID_1043_);fill:#FFFFFF;}
	.st311{fill:url(#SVGID_1044_);}
</style>
<g id="Layer_1">
</g>
<g id="Border">
	<g>
		<rect y="1.5" class="st4" width="142.6" height="162.3"/>
		<path class="st5" d="M0.8,15.8v-2.2c1.2-1.2,5.7-5,5.7-7.4c0-1.2-1.1-1.8-2.2-1.8c-1.1,0-2.2,0.5-3.1,1.1L1.1,3.2
			C2.3,2.6,3.7,2.3,5,2.3c2.5,0,4.2,1.3,4.2,3.9c0,2.8-2.8,5.4-5,7.5h5.4v2.1H0.8z"/>
		<path class="st5" d="M10.9,10.9l5-8.4h3.3V11h1.7v2h-1.7v2.8h-2.5V13h-5.7V10.9z M16.6,11V5.3h0L13.3,11H16.6z"/>
		<path class="st5" d="M21.8,11.7V9.6h5v2.1H21.8z"/>
		<path class="st5" d="M28.8,1.5h2.5v5.8h0c0.6-1,1.7-1.6,3.1-1.6c2.3,0,3.3,1.6,3.3,3.8v6.2h-2.5v-5.2c0-1.2,0-2.8-1.7-2.8
			c-1.8,0-2.2,2-2.2,3.2v4.8h-2.5V1.5z"/>
		<path class="st5" d="M44.9,5.8c2.9,0,5.1,2,5.1,5.2c0,2.8-1.9,5.1-5.1,5.1c-3.2,0-5.1-2.2-5.1-5.1C39.7,7.7,42,5.8,44.9,5.8z
			 M44.9,14c2,0,2.5-1.7,2.5-3.4c0-1.5-0.8-2.9-2.5-2.9c-1.7,0-2.5,1.4-2.5,2.9C42.4,12.3,42.9,14,44.9,14z"/>
		<path class="st5" d="M61,15.8h-2.4v-1.3h0c-0.8,0.9-1.9,1.6-3.2,1.6C53,16,52,14.4,52,12.2V6h2.5v5.2c0,1.2,0,2.8,1.7,2.8
			c1.8,0,2.2-2,2.2-3.2V6H61V15.8z"/>
		<path class="st5" d="M63.6,6h2.3v2.2h0c0.1-0.9,1.2-2.5,2.7-2.5c0.2,0,0.5,0,0.8,0.1v2.6c-0.2-0.1-0.7-0.2-1.1-0.2
			c-2.1,0-2.1,2.6-2.1,4v3.6h-2.5V6z"/>
		<path class="st5" d="M76.5,2.5h4.6c1.7,0,4.3,0.5,4.3,3.4c0,1.6-1.1,2.7-2.6,3v0c1.8,0.2,3,1.4,3,3c0,3.3-3,3.8-4.7,3.8h-4.6V2.5z
			 M79.2,7.9h1.1c1.1,0,2.5-0.2,2.5-1.6c0-1.5-1.3-1.7-2.6-1.7h-1V7.9z M79.2,13.7h1.3c1.2,0,2.7-0.3,2.7-1.8c0-1.7-1.4-2-2.7-2
			h-1.3V13.7z"/>
		<path class="st5" d="M87.9,2.5h2.9c2.8,0,6.2-0.1,6.2,3.6c0,1.6-1,2.8-2.7,3.1v0c0.7,0.1,1.1,0.8,1.4,1.4l2.1,5.2h-3l-1.6-4.1
			c-0.4-1-0.7-1.4-1.8-1.4h-0.9v5.5h-2.7V2.5z M90.5,8.2h0.9c1.3,0,2.8-0.2,2.8-1.8c0-1.6-1.5-1.7-2.8-1.7h-0.9V8.2z"/>
		<path class="st5" d="M99.7,2.5h7.8v2.1h-5.2v3.3h4.7V10h-4.7v3.7h5.2v2.1h-7.9V2.5z"/>
		<path class="st5" d="M116.1,2.3c4.2,0,6.5,2.8,6.5,6.8c0,4-2.3,6.9-6.5,6.9c-4.3,0-6.5-2.8-6.5-6.9S111.9,2.3,116.1,2.3z
			 M116.1,13.9c2.7,0,3.7-2.4,3.7-4.8c0-2.3-1.1-4.7-3.7-4.7s-3.7,2.4-3.7,4.7C112.4,11.5,113.4,13.9,116.1,13.9z"/>
		<path class="st5" d="M0.9,37c0.8,0.3,2,0.7,3.2,0.7c0.7,0,1.4-0.1,1.4-0.8c0-1.7-4.9-0.5-4.9-4.1c0-2.3,2.2-3.2,4.2-3.2
			c1.2,0,2.4,0.1,3.5,0.6L8,32.6c-0.7-0.4-1.8-0.7-2.7-0.7c-0.7,0-1.6,0.1-1.6,0.7c0,1.5,5.1,0.3,5.1,4.1c0,2.6-2.4,3.3-4.6,3.3
			c-1.5,0-2.6-0.2-3.6-0.5L0.9,37z"/>
		<path class="st5" d="M14.4,28.3H11v-2.5h3.4V28.3z M11,29.9h3.4v9.9H11V29.9z"/>
		<path class="st5" d="M27.4,38.6c0,4.1-2,5.4-6,5.4c-1.6,0-3-0.3-3.8-0.6l0.2-2.7c1,0.5,1.9,0.8,3.3,0.8c2,0,3-0.9,3-2.9v-0.5h0
			c-0.8,1.2-2,1.7-3.3,1.7c-2.7,0-4.4-2.1-4.4-5c0-2.9,1.4-5.1,4.5-5.1c1.5,0,2.6,0.8,3.4,2h0v-1.8h3.1V38.6z M21.9,37.1
			c1.2,0,2.2-1,2.2-2.5c0-1.1-0.6-2.3-2.2-2.3c-1.3,0-1.9,1.1-1.9,2.5C20,36.3,20.9,37.1,21.9,37.1z"/>
		<path class="st5" d="M29.6,29.9h3.1v1.8h0c0.7-1.4,2.1-2.1,3.6-2.1c2.7,0,3.8,1.9,3.8,4v6.2h-3.4V35c0-1.9-0.6-2.5-1.6-2.5
			c-1.4,0-2.1,1-2.1,3.1v4.2h-3.4V29.9z"/>
		<path class="st5" d="M46.1,28.3h-3.4v-2.5h3.4V28.3z M42.7,29.9h3.4v9.9h-3.4V29.9z"/>
		<path class="st5" d="M49.8,32.3h-2v-2.4h2.1v-0.6c0-2.9,1.4-4,4.1-4c0.7,0,1.3,0.1,1.7,0.2l-0.2,2.4c-0.3-0.1-0.6-0.2-1.1-0.2
			c-0.9,0-1.2,0.6-1.2,1.6v0.6h2.4v2.4h-2.4v7.5h-3.4V32.3z M60.9,28.3h-3.4v-2.5h3.4V28.3z M57.5,29.9h3.4v9.9h-3.4V29.9z"/>
		<path class="st5" d="M71.2,32.7c-0.6-0.4-1.3-0.6-2.1-0.6c-1.5,0-2.6,1-2.6,2.7c0,1.6,1.3,2.6,2.8,2.6c0.8,0,1.6-0.2,2.1-0.5
			l0.1,2.5c-0.9,0.3-1.9,0.4-2.8,0.4c-3.3,0-5.8-1.9-5.8-5.2c0-3.3,2.5-5.2,5.8-5.2c1,0,1.9,0.2,2.7,0.6L71.2,32.7z"/>
		<path class="st5" d="M79.4,39.8c0-0.5-0.1-1-0.1-1.6h0c-0.8,1.2-1.7,1.8-3.1,1.8c-2,0-3.7-1-3.7-3.1c0-3,3.3-3.4,5.1-3.4
			c0.6,0,1.2,0.1,1.6,0.1c0-1.3-1-1.7-2.3-1.7c-1.1,0-2.2,0.2-3.2,0.7l-0.1-2.3c1.2-0.5,2.5-0.7,4-0.7c2.5,0,4.7,1.1,4.7,4.1v3.7
			c0,0.8,0,1.6,0.2,2.3H79.4z M77,37.7c1.3,0,2.1-1.2,2.1-2.3c-0.4,0-0.9-0.1-1.4-0.1c-1.2,0-2.1,0.4-2.1,1.3
			C75.6,37.3,76.2,37.7,77,37.7z"/>
		<path class="st5" d="M84.5,29.9h3.1v1.8h0c0.7-1.4,2.1-2.1,3.6-2.1c2.7,0,3.8,1.9,3.8,4v6.2h-3.4V35c0-1.9-0.6-2.5-1.6-2.5
			c-1.4,0-2.1,1-2.1,3.1v4.2h-3.4V29.9z"/>
		<path class="st5" d="M96.3,29.9h2v-2.2l3.4-1v3.3h2.4v2.4h-2.4v3.6c0,1.2,0.3,1.8,1.4,1.8c0.3,0,0.7-0.1,1-0.1l0.1,2.2
			c-0.6,0.1-1.3,0.2-2.1,0.2c-3.1,0-3.8-1.3-3.8-3.7v-4h-2V29.9z"/>
		<path class="st5" d="M106,25.5h3.4v14.2H106V25.5z"/>
		<path class="st5" d="M112,41.2c0.5,0.2,0.9,0.2,1.3,0.2c0.8,0,1.5-0.5,1.7-1.4l-4-10.1h3.7l2.1,6.5h0l2-6.5h3.4l-3.6,9.2
			c-1,2.5-1.7,4.9-4.8,4.9c-0.7,0-1.4-0.1-2.1-0.2L112,41.2z"/>
		<path class="st5" d="M8.1,56.6c-0.4-0.1-0.8-0.1-1.2-0.1c-1.6,0-2.5,1.2-2.5,3.1v4.2H1.1v-9.9h3.1v1.8h0c0.6-1.3,1.4-2.1,2.9-2.1
			c0.4,0,0.8,0.1,1.2,0.1L8.1,56.6z"/>
		<path class="st5" d="M12.1,59.8c0.2,1.4,1.2,1.9,2.9,1.9c0.9,0,2-0.2,3-0.8v2.4C17,63.8,15.7,64,14.4,64c-3.3,0-5.8-1.9-5.8-5.2
			s2.2-5.2,5.3-5.2c3.7,0,5,2.6,5,5.5v0.6H12.1z M15.9,57.9c0-1.1-0.5-2.1-1.9-2.1c-1.2,0-1.8,0.9-1.9,2.1H15.9z"/>
		<path class="st5" d="M31.4,63.8h-3.2V62h0c-0.4,1.1-1.8,2-3.4,2c-2.9,0-4.5-2.4-4.5-5.4c0-2.4,1.5-5,4.2-5c1.4,0,2.5,0.4,3.4,1.5
			h0v-5.6h3.4V63.8z M25.9,61.4c1.1,0,2.1-1.1,2.1-2.5c0-1.5-0.8-2.6-2.1-2.6c-1.3,0-2.1,1.1-2.1,2.5C23.8,60.3,24.6,61.4,25.9,61.4
			z"/>
		<path class="st5" d="M44,63.8h-3.1v-1.8h0c-0.7,1.4-2.1,2.1-3.6,2.1c-2.7,0-3.8-1.9-3.8-4v-6.2h3.4v4.8c0,1.9,0.6,2.5,1.6,2.5
			c1.4,0,2.1-1,2.1-3.1v-4.2H44V63.8z"/>
		<path class="st5" d="M53.9,56.7c-0.6-0.4-1.3-0.6-2.1-0.6c-1.5,0-2.6,1-2.6,2.7c0,1.6,1.3,2.6,2.8,2.6c0.8,0,1.6-0.2,2.1-0.5
			l0.1,2.5c-0.9,0.3-1.9,0.4-2.8,0.4c-3.3,0-5.8-1.9-5.8-5.2c0-3.3,2.5-5.2,5.8-5.2c1,0,1.9,0.2,2.7,0.6L53.9,56.7z"/>
		<path class="st5" d="M58.6,59.8c0.2,1.4,1.2,1.9,2.9,1.9c0.9,0,2-0.2,3-0.8v2.4c-1.1,0.4-2.4,0.6-3.6,0.6c-3.3,0-5.8-1.9-5.8-5.2
			s2.2-5.2,5.3-5.2c3.7,0,5,2.6,5,5.5v0.6H58.6z M62.4,57.9c0-1.1-0.5-2.1-1.9-2.1c-1.2,0-1.8,0.9-1.9,2.1H62.4z"/>
		<path class="st5" d="M77.9,63.8h-3.2V62h0c-0.4,1.1-1.8,2-3.4,2c-2.9,0-4.5-2.4-4.5-5.4c0-2.4,1.5-5,4.2-5c1.4,0,2.5,0.4,3.4,1.5
			h0v-5.6h3.4V63.8z M72.4,61.4c1.1,0,2.1-1.1,2.1-2.5c0-1.5-0.8-2.6-2.1-2.6c-1.3,0-2.1,1.1-2.1,2.5C70.3,60.3,71.1,61.4,72.4,61.4
			z"/>
		<path class="st5" d="M2.1,79.8H0.3V78h1.9v-2l2.5-0.8V78H7v1.9H4.7v4.6c0,0.8,0.2,1.6,1.2,1.6c0.5,0,0.9-0.1,1.2-0.3l0.1,2
			C6.6,87.9,6,88,5.2,88c-2,0-3.1-1.2-3.1-3.2V79.8z"/>
		<path class="st5" d="M8.7,73.5h2.5v5.8h0c0.6-1,1.7-1.6,3.1-1.6c2.3,0,3.3,1.6,3.3,3.8v6.2h-2.5v-5.2c0-1.2,0-2.8-1.7-2.8
			c-1.8,0-2.2,2-2.2,3.2v4.8H8.7V73.5z"/>
		<path class="st5" d="M28.2,87.2c-0.9,0.5-2,0.8-3.4,0.8c-3.2,0-5.1-1.9-5.1-5.1c0-2.8,1.5-5.2,4.5-5.2c3.6,0,4.7,2.5,4.7,5.9h-6.8
			c0.1,1.6,1.2,2.5,2.8,2.5c1.2,0,2.3-0.5,3.2-1V87.2z M26.4,81.9c-0.1-1.2-0.6-2.3-2.1-2.3c-1.4,0-2.1,1-2.3,2.3H26.4z"/>
		<path class="st5" d="M36.2,78h2.3v2.2h0c0.1-0.9,1.2-2.5,2.7-2.5c0.2,0,0.5,0,0.8,0.1v2.6c-0.2-0.1-0.7-0.2-1.1-0.2
			c-2.1,0-2.1,2.6-2.1,4v3.6h-2.5V78z"/>
		<path class="st5" d="M43.6,73.8h2.5v2.4h-2.5V73.8z M43.6,78h2.5v9.8h-2.5V78z"/>
		<path class="st5" d="M54.6,80c-0.8-0.3-1.3-0.4-2.3-0.4c-0.7,0-1.5,0.2-1.5,1.1c0,1.6,4.4,0.6,4.4,4.1c0,2.3-2,3.2-4.1,3.2
			c-1,0-2-0.2-2.9-0.4l0.2-2.1c0.8,0.4,1.6,0.6,2.5,0.6c0.6,0,1.7-0.2,1.7-1.2c0-1.9-4.4-0.6-4.4-4.1c0-2.1,1.8-3,3.8-3
			c1.2,0,2,0.2,2.8,0.4L54.6,80z"/>
		<path class="st5" d="M57.3,73.5h2.5v8.4h0l3-3.9h3l-3.6,4.4l4.1,5.4h-3.2L59.9,83h0v4.7h-2.5V73.5z"/>
		<path class="st5" d="M77.6,77.8c2.9,0,5.1,2,5.1,5.2c0,2.8-1.9,5.1-5.1,5.1c-3.2,0-5.1-2.2-5.1-5.1C72.5,79.7,74.7,77.8,77.6,77.8
			z M77.6,86c2,0,2.5-1.7,2.5-3.4c0-1.5-0.8-2.9-2.5-2.9c-1.7,0-2.5,1.4-2.5,2.9C75.1,84.3,75.7,86,77.6,86z"/>
		<path class="st5" d="M85.7,79.8h-1.9V78h1.9v-1.4c0-2,1.1-3.3,3.1-3.3c0.6,0,1.4,0.1,1.9,0.2l-0.2,2.1c-0.2-0.1-0.6-0.3-1.1-0.3
			c-0.9,0-1.1,0.7-1.1,1.5V78h2.2v1.9h-2.2v7.9h-2.5V79.8z"/>
		<path class="st5" d="M9.2,111.2c-0.9,0.5-2,0.8-3.4,0.8c-3.2,0-5.1-1.9-5.1-5.1c0-2.8,1.5-5.2,4.5-5.2c3.6,0,4.7,2.5,4.7,5.9H3.1
			c0.1,1.6,1.2,2.5,2.8,2.5c1.2,0,2.3-0.5,3.2-1V111.2z M7.4,105.9c-0.1-1.2-0.6-2.3-2.1-2.3s-2.1,1-2.3,2.3H7.4z"/>
		<path class="st5" d="M11.1,102h3l1.9,3.2l1.9-3.2h2.7l-2.9,4.7l3.3,5.1h-3l-2.2-3.6l-2.2,3.6h-2.8l3.4-5.1L11.1,102z"/>
		<path class="st5" d="M22.4,102h2.4v1.4h0c0.6-1,1.5-1.6,3-1.6c3,0,4.1,2.4,4.1,5.1c0,2.7-1.1,5.1-4.2,5.1c-1.1,0-2-0.3-2.9-1.3h0
			v5.1h-2.5V102z M25,106.8c0,1.4,0.6,3.2,2.2,3.2c1.7,0,2.1-1.8,2.1-3.2c0-1.3-0.5-3.1-2.1-3.1C25.6,103.7,25,105.5,25,106.8z"/>
		<path class="st5" d="M41.9,111.2c-0.9,0.5-2,0.8-3.4,0.8c-3.2,0-5.1-1.9-5.1-5.1c0-2.8,1.5-5.2,4.5-5.2c3.6,0,4.7,2.5,4.7,5.9
			h-6.8c0.1,1.6,1.2,2.5,2.8,2.5c1.2,0,2.3-0.5,3.2-1V111.2z M40.2,105.9c-0.1-1.2-0.6-2.3-2.1-2.3c-1.4,0-2.1,1-2.3,2.3H40.2z"/>
		<path class="st5" d="M44.7,102h2.3v2.2h0c0.1-0.9,1.2-2.5,2.7-2.5c0.2,0,0.5,0,0.8,0.1v2.6c-0.2-0.1-0.7-0.2-1.1-0.2
			c-2.1,0-2.1,2.6-2.1,4v3.6h-2.5V102z"/>
		<path class="st5" d="M52.1,97.8h2.5v2.4h-2.5V97.8z M52.1,102h2.5v9.8h-2.5V102z"/>
		<path class="st5" d="M65.1,111.2c-0.9,0.5-2,0.8-3.4,0.8c-3.2,0-5.1-1.9-5.1-5.1c0-2.8,1.5-5.2,4.5-5.2c3.6,0,4.7,2.5,4.7,5.9
			h-6.8c0.1,1.6,1.2,2.5,2.8,2.5c1.2,0,2.3-0.5,3.2-1V111.2z M63.4,105.9c-0.1-1.2-0.6-2.3-2.1-2.3s-2.1,1-2.3,2.3H63.4z"/>
		<path class="st5" d="M67.8,102h2.4v1.3h0c0.8-1.1,1.9-1.6,3.2-1.6c2.3,0,3.3,1.6,3.3,3.8v6.2h-2.5v-5.2c0-1.2,0-2.8-1.7-2.8
			c-1.8,0-2.2,2-2.2,3.2v4.8h-2.5V102z"/>
		<path class="st5" d="M85.8,104.1c-0.5-0.2-1-0.4-1.7-0.4c-1.6,0-2.6,1.3-2.6,3.1c0,1.8,0.9,3.2,2.6,3.2c0.7,0,1.5-0.3,2-0.5
			l0.1,2.1c-0.7,0.2-1.5,0.3-2.5,0.3c-3.2,0-4.8-2.2-4.8-5.2c0-2.8,1.7-5.1,4.7-5.1c1,0,1.8,0.1,2.5,0.3L85.8,104.1z"/>
		<path class="st5" d="M88,97.8h2.5v2.4H88V97.8z M88,102h2.5v9.8H88V102z"/>
		<path class="st5" d="M93.2,102h2.4v1.3h0c0.8-1.1,1.9-1.6,3.2-1.6c2.3,0,3.3,1.6,3.3,3.8v6.2h-2.5v-5.2c0-1.2,0-2.8-1.7-2.8
			c-1.8,0-2.2,2-2.2,3.2v4.8h-2.5V102z"/>
		<path class="st5" d="M113.8,102v8.8c0,2.7-1.1,5.2-5.2,5.2c-1,0-2.2-0.2-3.4-0.7l0.2-2.2c0.8,0.4,2.1,0.9,2.8,0.9
			c2.8,0,2.9-2.1,2.9-3.8h0c-0.5,0.8-1.6,1.6-3,1.6c-2.9,0-4-2.3-4-4.9c0-2.4,1.2-5.1,4.1-5.1c1.3,0,2.3,0.4,3,1.6h0V102H113.8z
			 M111.2,106.8c0-1.7-0.6-3-2.1-3c-1.7,0-2.3,1.6-2.3,3.1c0,1.3,0.7,3,2.2,3C110.6,109.8,111.2,108.4,111.2,106.8z"/>
		<path class="st5" d="M122.1,102.5c1-0.5,2.3-0.7,3.4-0.7c3,0,4.2,1.2,4.2,4.1v1.3c0,1,0,1.7,0,2.5c0,0.7,0.1,1.4,0.1,2.2h-2.2
			c-0.1-0.5-0.1-1.2-0.1-1.5h0c-0.6,1.1-1.9,1.7-3,1.7c-1.7,0-3.4-1-3.4-2.9c0-1.5,0.7-2.3,1.7-2.8c1-0.5,2.2-0.6,3.3-0.6h1.4
			c0-1.6-0.7-2.1-2.2-2.1c-1.1,0-2.2,0.4-3,1.1L122.1,102.5z M125.1,110.1c0.8,0,1.4-0.3,1.8-0.9c0.4-0.6,0.5-1.3,0.5-2h-1.1
			c-1.1,0-2.8,0.2-2.8,1.7C123.5,109.8,124.2,110.1,125.1,110.1z"/>
		<path class="st5" d="M132.2,102h2.4v1.3h0c0.8-1.1,1.9-1.6,3.2-1.6c2.3,0,3.3,1.6,3.3,3.8v6.2h-2.5v-5.2c0-1.2,0-2.8-1.7-2.8
			c-1.8,0-2.2,2-2.2,3.2v4.8h-2.5V102z"/>
		<path class="st5" d="M7.5,135.8c0-0.5-0.1-1-0.1-1.6h0c-0.8,1.2-1.7,1.8-3.1,1.8c-2,0-3.7-1-3.7-3.1c0-3,3.3-3.4,5.1-3.4
			c0.6,0,1.2,0.1,1.6,0.1c0-1.3-1-1.7-2.3-1.7c-1.1,0-2.2,0.2-3.2,0.7l-0.1-2.3c1.2-0.5,2.5-0.7,4-0.7c2.5,0,4.7,1.1,4.7,4.1v3.7
			c0,0.8,0,1.6,0.2,2.3H7.5z M5.2,133.7c1.3,0,2.1-1.2,2.1-2.3c-0.4,0-0.9-0.1-1.4-0.1c-1.2,0-2.1,0.4-2.1,1.3
			C3.8,133.3,4.4,133.7,5.2,133.7z"/>
		<path class="st5" d="M12.5,133c0.8,0.3,2,0.7,3.2,0.7c0.7,0,1.4-0.1,1.4-0.8c0-1.7-4.9-0.5-4.9-4.1c0-2.3,2.2-3.2,4.2-3.2
			c1.2,0,2.4,0.1,3.5,0.6l-0.3,2.4c-0.7-0.4-1.8-0.7-2.7-0.7c-0.7,0-1.6,0.1-1.6,0.7c0,1.5,5.1,0.3,5.1,4.1c0,2.6-2.4,3.3-4.6,3.3
			c-1.5,0-2.6-0.2-3.6-0.5L12.5,133z"/>
		<path class="st5" d="M21.3,125.9h2v-2.2l3.4-1v3.3h2.4v2.4h-2.4v3.6c0,1.2,0.3,1.8,1.4,1.8c0.3,0,0.7-0.1,1-0.1l0.1,2.2
			c-0.6,0.1-1.3,0.2-2.1,0.2c-3.1,0-3.8-1.3-3.8-3.7v-4h-2V125.9z"/>
		<path class="st5" d="M30.6,121.5H34v5.8h0c0.7-1,1.8-1.7,3.3-1.7c2.7,0,3.8,1.9,3.8,4v6.2h-3.4V131c0-1.9-0.6-2.5-1.6-2.5
			c-1.4,0-2.1,1-2.1,3.1v4.2h-3.4V121.5z"/>
		<path class="st5" d="M43.3,125.9h3.1v1.8h0c0.7-1.4,2.1-2.1,3.6-2.1c1.4,0,2.6,0.6,3.1,1.9c0.8-1.3,2.1-1.9,3.5-1.9
			c2.8,0,3.5,1.6,3.5,4.3v5.8h-3.4v-5.3c0-1.1-0.4-2-1.4-2c-1.2,0-1.9,1-1.9,3.1v4.2H50v-5.3c0-1.1-0.4-2-1.4-2
			c-1.2,0-1.9,1-1.9,3.1v4.2h-3.4V125.9z"/>
		<path class="st5" d="M68.8,135.8c0-0.5-0.1-1-0.1-1.6h0c-0.8,1.2-1.7,1.8-3.1,1.8c-2,0-3.7-1-3.7-3.1c0-3,3.3-3.4,5.1-3.4
			c0.6,0,1.2,0.1,1.6,0.1c0-1.3-1-1.7-2.3-1.7c-1.1,0-2.2,0.2-3.2,0.7l-0.1-2.3c1.2-0.5,2.5-0.7,4-0.7c2.5,0,4.7,1.1,4.7,4.1v3.7
			c0,0.8,0,1.6,0.2,2.3H68.8z M66.4,133.7c1.3,0,2.1-1.2,2.1-2.3c-0.4,0-0.9-0.1-1.4-0.1c-1.2,0-2.1,0.4-2.1,1.3
			C65,133.3,65.6,133.7,66.4,133.7z"/>
		<path class="st5" d="M4,155.8c0.2,1.4,1.2,1.9,2.9,1.9c0.9,0,2-0.2,3-0.8v2.4c-1.1,0.4-2.4,0.6-3.6,0.6c-3.3,0-5.8-1.9-5.8-5.2
			s2.2-5.2,5.3-5.2c3.7,0,5,2.6,5,5.5v0.6H4z M7.8,153.9c0-1.1-0.5-2.1-1.9-2.1c-1.2,0-1.8,0.9-1.9,2.1H7.8z"/>
		<path class="st5" d="M15.1,154.7l-3.1-4.9h4l1.5,3l1.5-3h3.7l-3.1,4.8l3.3,5.1h-4.1l-1.7-3.1l-1.6,3.1h-3.9L15.1,154.7z"/>
		<path class="st5" d="M30.8,159.8c0-0.5-0.1-1-0.1-1.6h0c-0.8,1.2-1.7,1.8-3.1,1.8c-2,0-3.7-1-3.7-3.1c0-3,3.3-3.4,5.1-3.4
			c0.6,0,1.2,0.1,1.6,0.1c0-1.3-1-1.7-2.3-1.7c-1.1,0-2.2,0.2-3.2,0.7l-0.1-2.3c1.2-0.5,2.5-0.7,4-0.7c2.5,0,4.7,1.1,4.7,4.1v3.7
			c0,0.8,0,1.6,0.2,2.3H30.8z M28.4,157.7c1.3,0,2.1-1.2,2.1-2.3c-0.4,0-0.9-0.1-1.4-0.1c-1.2,0-2.1,0.4-2.1,1.3
			C27,157.3,27.6,157.7,28.4,157.7z"/>
		<path class="st5" d="M43.6,152.7c-0.6-0.4-1.3-0.6-2.1-0.6c-1.5,0-2.6,1-2.6,2.7c0,1.6,1.3,2.6,2.8,2.6c0.8,0,1.6-0.2,2.1-0.5
			l0.1,2.5c-0.9,0.3-1.9,0.4-2.8,0.4c-3.3,0-5.8-1.9-5.8-5.2c0-3.3,2.5-5.2,5.8-5.2c1,0,1.9,0.2,2.7,0.6L43.6,152.7z"/>
		<path class="st5" d="M48.4,155.8c0.2,1.4,1.2,1.9,2.9,1.9c0.9,0,2-0.2,3-0.8v2.4c-1.1,0.4-2.4,0.6-3.6,0.6c-3.3,0-5.8-1.9-5.8-5.2
			s2.2-5.2,5.3-5.2c3.7,0,5,2.6,5,5.5v0.6H48.4z M52.1,153.9c0-1.1-0.5-2.1-1.9-2.1c-1.2,0-1.8,0.9-1.9,2.1H52.1z"/>
		<path class="st5" d="M64.1,152.6c-0.4-0.1-0.8-0.1-1.2-0.1c-1.6,0-2.5,1.2-2.5,3.1v4.2H57v-9.9h3.1v1.8h0c0.6-1.3,1.4-2.1,2.9-2.1
			c0.4,0,0.8,0.1,1.2,0.1L64.1,152.6z"/>
		<path class="st5" d="M65.4,145.5h3.4v5.6h0c0.9-1.1,2-1.5,3.4-1.5c2.7,0,4.2,2.6,4.2,5c0,2.9-1.6,5.4-4.5,5.4c-1.6,0-3-0.9-3.4-2
			h0v1.8h-3.2V145.5z M70.9,152.3c-1.3,0-2.1,1.1-2.1,2.6c0,1.4,1,2.5,2.1,2.5c1.3,0,2.1-1.1,2.1-2.7
			C72.9,153.4,72.2,152.3,70.9,152.3z"/>
		<path class="st5" d="M84.6,159.8c0-0.5-0.1-1-0.1-1.6h0c-0.8,1.2-1.7,1.8-3.1,1.8c-2,0-3.7-1-3.7-3.1c0-3,3.3-3.4,5.1-3.4
			c0.6,0,1.2,0.1,1.6,0.1c0-1.3-1-1.7-2.3-1.7c-1.1,0-2.2,0.2-3.2,0.7l-0.1-2.3c1.2-0.5,2.5-0.7,4-0.7c2.5,0,4.7,1.1,4.7,4.1v3.7
			c0,0.8,0,1.6,0.2,2.3H84.6z M82.2,157.7c1.3,0,2.1-1.2,2.1-2.3c-0.4,0-0.9-0.1-1.4-0.1c-1.2,0-2.1,0.4-2.1,1.3
			C80.8,157.3,81.5,157.7,82.2,157.7z"/>
		<path class="st5" d="M88.9,149.9h2v-2.2l3.4-1v3.3h2.4v2.4h-2.4v3.6c0,1.2,0.3,1.8,1.4,1.8c0.3,0,0.7-0.1,1-0.1l0.1,2.2
			c-0.6,0.1-1.3,0.2-2.1,0.2c-3.1,0-3.8-1.3-3.8-3.7v-4h-2V149.9z"/>
		<path class="st5" d="M102,148.3h-3.4v-2.5h3.4V148.3z M98.6,149.9h3.4v9.9h-3.4V149.9z"/>
		<path class="st5" d="M104,154.8c0-3.3,2.5-5.2,5.8-5.2s5.8,1.9,5.8,5.2c0,3.3-2.5,5.2-5.8,5.2S104,158.1,104,154.8z M112,154.8
			c0-1.5-0.6-2.8-2.2-2.8c-1.6,0-2.2,1.3-2.2,2.8c0,1.5,0.6,2.8,2.2,2.8C111.4,157.6,112,156.3,112,154.8z"/>
		<path class="st5" d="M117.2,149.9h3.1v1.8h0c0.7-1.4,2.1-2.1,3.6-2.1c2.7,0,3.8,1.9,3.8,4v6.2h-3.4V155c0-1.9-0.6-2.5-1.6-2.5
			c-1.4,0-2.1,1-2.1,3.1v4.2h-3.4V149.9z"/>
		<path class="st5" d="M135.4,150.7l1.8,2l-1.7,1.3l-1.3-2.4l-1.4,2.4l-1.7-1.3l1.9-2l-2.6-0.6l0.6-2l2.5,1.1l-0.3-2.8h2.2l-0.3,2.7
			l2.5-1.1l0.6,2L135.4,150.7z"/>
	</g>
</g>
</svg>
