<?xml version="1.0" encoding="iso-8859-1"?>
<!-- Generator: Adobe Illustrator 19.1.0, SVG Export Plug-In . SVG Version: 6.00 Build 0)  -->
<svg version="1.1" id="Layer_1" xmlns="http://www.w3.org/2000/svg" xmlns:xlink="http://www.w3.org/1999/xlink" x="0px" y="0px"
	 viewBox="0 0 293.385 28.221" style="enable-background:new 0 0 293.385 28.221;" xml:space="preserve">
<g>
	<g>
		<defs>
			<rect id="SVGID_15_" x="181.052" y="-259.779" width="299" height="131"/>
		</defs>
		<clipPath id="SVGID_2_">
			<use xlink:href="#SVGID_15_"  style="overflow:visible;"/>
		</clipPath>
		<g style="clip-path:url(#SVGID_2_);">
			<rect x="228.052" y="-228.779" style="fill:none;" width="262" height="250"/>
		</g>
	</g>
</g>
<g>
	
		<radialGradient id="SVGID_3_" cx="74.4796" cy="1874.0815" r="160.2317" fx="28.2782" fy="1921.4473" gradientTransform="matrix(1.8928 0 0 0.0947 16.9359 -155.8087)" gradientUnits="userSpaceOnUse">
		<stop  offset="0" style="stop-color:#C7D7DD"/>
		<stop  offset="0.2558" style="stop-color:#C2D6DD"/>
		<stop  offset="0.5521" style="stop-color:#B4D2DD"/>
		<stop  offset="0.8673" style="stop-color:#9DCBDD"/>
		<stop  offset="1" style="stop-color:#91C8DD"/>
	</radialGradient>
	<rect style="fill:url(#SVGID_3_);" width="293.385" height="28.221"/>
	<rect x="3.052" y="2.221" style="opacity:0.3;fill:#FFFFFF;" width="287" height="23"/>
	<g>
		<path style="fill:#002D73;" d="M96.911,8.201c-0.483-0.209-1.022-0.33-1.562-0.33c-0.528,0-1.21,0.23-1.21,1.067
			c0,1.331,3.366,0.77,3.366,3.344c0,1.684-1.331,2.321-2.882,2.321c-0.837,0-1.211-0.109-1.97-0.297l0.144-1.386
			c0.527,0.286,1.133,0.473,1.738,0.473c0.582,0,1.363-0.297,1.363-0.99c0-1.463-3.366-0.857-3.366-3.399
			c0-1.716,1.331-2.343,2.685-2.343c0.66,0,1.275,0.088,1.837,0.274L96.911,8.201z"/>
		<path style="fill:#002D73;" d="M103.974,14.471h-1.396v-0.77h-0.022c-0.45,0.55-1.089,0.901-1.858,0.901
			c-1.343,0-1.926-0.945-1.926-2.222V8.805h1.475v3.025c0,0.693,0.01,1.629,0.957,1.629c1.066,0,1.298-1.155,1.298-1.882V8.805
			h1.474V14.471z"/>
		<path style="fill:#002D73;" d="M105.492,8.805h1.408v0.804h0.021c0.33-0.55,0.892-0.936,1.761-0.936
			c1.738,0,2.376,1.387,2.376,2.948c0,1.552-0.638,2.981-2.409,2.981c-0.627,0-1.144-0.153-1.661-0.78h-0.021v2.959h-1.475V8.805z
			 M106.976,11.622c0,0.804,0.32,1.838,1.299,1.838c0.969,0,1.243-1.057,1.243-1.838c0-0.759-0.265-1.804-1.222-1.804
			C107.351,9.818,106.976,10.83,106.976,11.622z"/>
		<path style="fill:#002D73;" d="M112.212,8.805h1.408v0.804h0.021c0.33-0.55,0.892-0.936,1.761-0.936
			c1.738,0,2.376,1.387,2.376,2.948c0,1.552-0.638,2.981-2.409,2.981c-0.627,0-1.144-0.153-1.661-0.78h-0.021v2.959h-1.475V8.805z
			 M113.697,11.622c0,0.804,0.32,1.838,1.299,1.838c0.969,0,1.243-1.057,1.243-1.838c0-0.759-0.265-1.804-1.222-1.804
			C114.072,9.818,113.697,10.83,113.697,11.622z"/>
		<path style="fill:#002D73;" d="M121.529,8.674c1.684,0,2.971,1.134,2.971,3.004c0,1.628-1.089,2.926-2.971,2.926
			c-1.869,0-2.959-1.298-2.959-2.926C118.57,9.807,119.857,8.674,121.529,8.674z M121.529,13.46c1.134,0,1.431-1.013,1.431-1.958
			c0-0.869-0.462-1.684-1.431-1.684c-0.957,0-1.418,0.836-1.418,1.684C120.111,12.436,120.408,13.46,121.529,13.46z"/>
		<path style="fill:#002D73;" d="M125.687,8.805h1.309v1.288h0.022c0.065-0.528,0.671-1.42,1.551-1.42c0.144,0,0.298,0,0.451,0.044
			v1.485c-0.132-0.077-0.396-0.121-0.66-0.121c-1.199,0-1.199,1.496-1.199,2.311v2.079h-1.474V8.805z"/>
		<path style="fill:#002D73;" d="M130.416,9.883h-1.089V8.805h1.089V7.673L131.89,7.2v1.605h1.31v1.078h-1.31v2.641
			c0,0.484,0.133,0.936,0.693,0.936c0.264,0,0.518-0.056,0.672-0.154l0.043,1.166c-0.308,0.088-0.648,0.132-1.088,0.132
			c-1.156,0-1.794-0.715-1.794-1.837V9.883z"/>
		<path style="fill:#002D73;" d="M134.243,6.363h1.475v1.408h-1.475V6.363z M134.243,8.805h1.475v5.666h-1.475V8.805z"/>
		<path style="fill:#002D73;" d="M137.269,8.805h1.397v0.771h0.022c0.461-0.649,1.089-0.902,1.859-0.902
			c1.342,0,1.925,0.946,1.925,2.223v3.575h-1.474v-3.025c0-0.693-0.012-1.628-0.957-1.628c-1.068,0-1.299,1.155-1.299,1.881v2.772
			h-1.475V8.805z"/>
		<path style="fill:#002D73;" d="M149.194,8.805v5.116c0,1.54-0.616,2.992-2.993,2.992c-0.582,0-1.254-0.088-1.957-0.385
			l0.121-1.254c0.451,0.241,1.188,0.495,1.649,0.495c1.628,0,1.706-1.222,1.706-2.201h-0.022c-0.275,0.484-0.935,0.902-1.761,0.902
			c-1.672,0-2.311-1.342-2.311-2.86c0-1.364,0.705-2.938,2.398-2.938c0.748,0,1.332,0.253,1.738,0.902h0.022V8.805H149.194z
			 M147.72,11.578c0-0.968-0.375-1.76-1.232-1.76c-1.002,0-1.32,0.924-1.32,1.793c0,0.771,0.406,1.717,1.254,1.717
			C147.345,13.328,147.72,12.524,147.72,11.578z"/>
		<path style="fill:#002D73;" d="M159.49,14.362c-0.561,0.132-1.166,0.241-1.75,0.241c-2.486,0-4.213-1.243-4.213-3.839
			c0-2.63,1.606-4.104,4.213-4.104c0.507,0,1.178,0.099,1.738,0.318l-0.109,1.299c-0.583-0.33-1.111-0.407-1.661-0.407
			c-1.585,0-2.574,1.21-2.574,2.783c0,1.562,0.968,2.739,2.606,2.739c0.605,0,1.32-0.132,1.684-0.318L159.49,14.362z"/>
		<path style="fill:#002D73;" d="M160.523,6.22h1.474v8.251h-1.474V6.22z"/>
		<path style="fill:#002D73;" d="M163.58,6.363h1.474v1.408h-1.474V6.363z M163.58,8.805h1.474v5.666h-1.474V8.805z"/>
		<path style="fill:#002D73;" d="M166.606,8.805h1.397v0.771h0.021c0.463-0.649,1.09-0.902,1.859-0.902
			c1.342,0,1.926,0.946,1.926,2.223v3.575h-1.475v-3.025c0-0.693-0.012-1.628-0.957-1.628c-1.067,0-1.299,1.155-1.299,1.881v2.772
			h-1.474V8.805z"/>
		<path style="fill:#002D73;" d="M173.359,6.363h1.475v1.408h-1.475V6.363z M173.359,8.805h1.475v5.666h-1.475V8.805z"/>
		<path style="fill:#002D73;" d="M180.059,10.027c-0.265-0.121-0.55-0.209-1.001-0.209c-0.913,0-1.496,0.726-1.496,1.793
			c0,1.045,0.494,1.849,1.529,1.849c0.418,0,0.88-0.154,1.133-0.265l0.066,1.222c-0.43,0.132-0.869,0.187-1.475,0.187
			c-1.859,0-2.795-1.265-2.795-2.992c0-1.639,0.969-2.938,2.74-2.938c0.594,0,1.023,0.066,1.43,0.188L180.059,10.027z"/>
		<path style="fill:#002D73;" d="M181.521,9.103c0.572-0.265,1.343-0.43,1.97-0.43c1.728,0,2.442,0.716,2.442,2.388v0.726
			c0,0.572,0.011,1.002,0.021,1.42c0.012,0.429,0.033,0.825,0.066,1.265h-1.299c-0.055-0.297-0.055-0.671-0.065-0.847h-0.022
			c-0.34,0.627-1.078,0.979-1.748,0.979c-1.002,0-1.98-0.604-1.98-1.683c0-0.848,0.406-1.343,0.968-1.617
			c0.562-0.275,1.287-0.33,1.903-0.33h0.814c0-0.913-0.408-1.222-1.277-1.222c-0.627,0-1.254,0.242-1.748,0.616L181.521,9.103z
			 M183.248,13.525c0.451,0,0.804-0.197,1.034-0.506c0.242-0.319,0.309-0.726,0.309-1.166h-0.639c-0.66,0-1.639,0.11-1.639,0.979
			C182.314,13.316,182.72,13.525,183.248,13.525z"/>
		<path style="fill:#002D73;" d="M187.417,6.22h1.475v8.251h-1.475V6.22z"/>
		<path style="fill:#002D73;" d="M193.501,6.793h1.539v7.679h-1.539V6.793z"/>
		<path style="fill:#002D73;" d="M196.559,8.805h1.397v0.771h0.021c0.463-0.649,1.09-0.902,1.859-0.902
			c1.342,0,1.926,0.946,1.926,2.223v3.575h-1.475v-3.025c0-0.693-0.012-1.628-0.957-1.628c-1.067,0-1.299,1.155-1.299,1.881v2.772
			h-1.474V8.805z"/>
		<path style="fill:#002D73;" d="M203.819,9.883h-1.089V8.805h1.089V8.013c0-1.133,0.638-1.925,1.804-1.925
			c0.375,0,0.793,0.055,1.078,0.121l-0.121,1.221c-0.131-0.077-0.318-0.198-0.638-0.198c-0.495,0-0.649,0.43-0.649,0.869v0.704
			h1.287v1.078h-1.287v4.588h-1.474V9.883z"/>
		<path style="fill:#002D73;" d="M210.155,8.674c1.683,0,2.97,1.134,2.97,3.004c0,1.628-1.088,2.926-2.97,2.926
			c-1.87,0-2.96-1.298-2.96-2.926C207.195,9.807,208.482,8.674,210.155,8.674z M210.155,13.46c1.134,0,1.431-1.013,1.431-1.958
			c0-0.869-0.463-1.684-1.431-1.684c-0.957,0-1.419,0.836-1.419,1.684C208.736,12.436,209.033,13.46,210.155,13.46z"/>
	</g>
	<line style="fill:none;stroke:#002D73;stroke-miterlimit:10;" x1="93.052" y1="16.721" x2="213.052" y2="16.721"/>
</g>
</svg>
