<?xml version="1.0" encoding="iso-8859-1"?>
<!-- Generator: Adobe Illustrator 19.1.1, SVG Export Plug-In . SVG Version: 6.00 Build 0)  -->
<svg version="1.1" id="Layer_1" xmlns="http://www.w3.org/2000/svg" xmlns:xlink="http://www.w3.org/1999/xlink" x="0px" y="0px"
	 viewBox="0 0 186.103 61.566" style="enable-background:new 0 0 186.103 61.566;" xml:space="preserve">
<g>
	<rect y="2.286" style="fill:none;" width="184.779" height="57.278"/>
	<path style="fill:#FFFFFF;" d="M11.409,4.263h-3.69V2.93h8.984v1.333h-3.709v10.803h-1.585V4.263z"/>
	<path style="fill:#FFFFFF;" d="M17.188,9.07c0-1.026-0.019-1.909-0.072-2.719h1.387l0.054,1.71h0.072
		c0.396-1.17,1.351-1.909,2.413-1.909c0.18,0,0.306,0.018,0.45,0.054v1.495c-0.162-0.036-0.324-0.054-0.541-0.054
		c-1.116,0-1.908,0.847-2.124,2.035c-0.036,0.216-0.072,0.468-0.072,0.738v4.646h-1.566V9.07z"/>
	<path style="fill:#FFFFFF;" d="M23.774,10.997c0.036,2.143,1.404,3.025,2.989,3.025c1.135,0,1.818-0.198,2.413-0.45l0.27,1.135
		c-0.558,0.252-1.513,0.54-2.898,0.54c-2.683,0-4.285-1.765-4.285-4.394s1.548-4.699,4.087-4.699c2.845,0,3.601,2.503,3.601,4.105
		c0,0.324-0.035,0.576-0.054,0.738H23.774z M28.42,9.862c0.019-1.008-0.414-2.575-2.196-2.575c-1.603,0-2.305,1.477-2.431,2.575
		H28.42z"/>
	<path style="fill:#FFFFFF;" d="M36.735,15.066l-0.126-1.098h-0.054c-0.486,0.684-1.423,1.296-2.665,1.296
		c-1.765,0-2.665-1.243-2.665-2.503c0-2.106,1.873-3.259,5.24-3.241V9.34c0-0.72-0.198-2.017-1.98-2.017
		c-0.811,0-1.657,0.252-2.27,0.648l-0.359-1.044c0.72-0.468,1.764-0.774,2.862-0.774c2.665,0,3.313,1.818,3.313,3.565v3.259
		c0,0.756,0.036,1.494,0.144,2.088H36.735z M36.501,10.619c-1.729-0.036-3.69,0.27-3.69,1.962c0,1.026,0.684,1.513,1.494,1.513
		c1.135,0,1.854-0.72,2.106-1.458c0.055-0.162,0.09-0.342,0.09-0.504V10.619z"/>
	<path style="fill:#FFFFFF;" d="M42.423,3.849v2.503h2.269v1.206h-2.269v4.699c0,1.081,0.307,1.693,1.188,1.693
		c0.414,0,0.721-0.054,0.919-0.108l0.071,1.188c-0.306,0.126-0.792,0.216-1.404,0.216c-0.738,0-1.332-0.234-1.71-0.667
		c-0.45-0.468-0.612-1.242-0.612-2.269V7.558h-1.351V6.352h1.351V4.263L42.423,3.849z"/>
	<path style="fill:#FFFFFF;" d="M48.237,3.902c0.018,0.541-0.378,0.973-1.009,0.973c-0.558,0-0.954-0.432-0.954-0.973
		c0-0.558,0.414-0.99,0.99-0.99C47.859,2.912,48.237,3.344,48.237,3.902z M46.473,15.066V6.352h1.584v8.714H46.473z"/>
	<path style="fill:#FFFFFF;" d="M50.685,8.71c0-0.9-0.018-1.639-0.072-2.358h1.404l0.09,1.44h0.036
		c0.433-0.829,1.44-1.639,2.881-1.639c1.207,0,3.079,0.72,3.079,3.709v5.204h-1.584v-5.023c0-1.404-0.522-2.575-2.017-2.575
		c-1.045,0-1.854,0.738-2.125,1.62c-0.072,0.198-0.108,0.468-0.108,0.738v5.24h-1.584V8.71z"/>
	<path style="fill:#FFFFFF;" d="M68.183,6.352c-0.035,0.63-0.071,1.332-0.071,2.395v5.06c0,1.999-0.396,3.223-1.243,3.979
		c-0.846,0.792-2.07,1.044-3.169,1.044c-1.044,0-2.196-0.252-2.898-0.72l0.396-1.207c0.576,0.36,1.476,0.685,2.557,0.685
		c1.62,0,2.809-0.847,2.809-3.043v-0.973h-0.036c-0.486,0.811-1.422,1.458-2.772,1.458c-2.161,0-3.709-1.836-3.709-4.249
		c0-2.953,1.926-4.627,3.925-4.627c1.513,0,2.341,0.792,2.719,1.512h0.036l0.072-1.314H68.183z M66.545,9.791
		c0-0.27-0.019-0.504-0.091-0.72c-0.288-0.918-1.062-1.675-2.214-1.675c-1.513,0-2.593,1.278-2.593,3.295
		c0,1.711,0.864,3.133,2.574,3.133c0.973,0,1.854-0.612,2.197-1.621c0.09-0.27,0.126-0.576,0.126-0.846V9.791z"/>
	<path style="fill:#FFFFFF;" d="M79.377,15.066l-0.126-1.098h-0.054c-0.486,0.684-1.423,1.296-2.665,1.296
		c-1.765,0-2.665-1.243-2.665-2.503c0-2.106,1.873-3.259,5.24-3.241V9.34c0-0.72-0.198-2.017-1.981-2.017
		c-0.81,0-1.656,0.252-2.269,0.648l-0.359-1.044c0.72-0.468,1.765-0.774,2.862-0.774c2.665,0,3.313,1.818,3.313,3.565v3.259
		c0,0.756,0.036,1.494,0.144,2.088H79.377z M79.144,10.619c-1.729-0.036-3.691,0.27-3.691,1.962c0,1.026,0.684,1.513,1.494,1.513
		c1.135,0,1.854-0.72,2.106-1.458c0.055-0.162,0.091-0.342,0.091-0.504V10.619z"/>
	<path style="fill:#FFFFFF;" d="M90.754,2.282v10.533c0,0.774,0.018,1.656,0.072,2.25h-1.423l-0.072-1.512h-0.036
		c-0.485,0.972-1.548,1.71-2.971,1.71c-2.106,0-3.727-1.783-3.727-4.43c-0.019-2.899,1.782-4.681,3.907-4.681
		c1.332,0,2.232,0.63,2.628,1.333h0.036V2.282H90.754z M89.169,9.898c0-0.198-0.018-0.468-0.071-0.666
		c-0.234-1.009-1.099-1.837-2.287-1.837c-1.639,0-2.61,1.44-2.61,3.367c0,1.765,0.864,3.223,2.574,3.223
		c1.063,0,2.035-0.702,2.323-1.89c0.054-0.216,0.071-0.432,0.071-0.685V9.898z"/>
	<path style="fill:#FFFFFF;" d="M100.672,12.689c0,0.9,0.019,1.692,0.072,2.376H99.34l-0.09-1.422h-0.036
		c-0.414,0.702-1.333,1.621-2.881,1.621c-1.369,0-3.007-0.756-3.007-3.817V6.352h1.584v4.825c0,1.656,0.504,2.773,1.944,2.773
		c1.063,0,1.801-0.738,2.089-1.44c0.09-0.234,0.145-0.522,0.145-0.811V6.352h1.584V12.689z"/>
	<path style="fill:#FFFFFF;" d="M103.298,2.282h1.584v12.784h-1.584V2.282z"/>
	<path style="fill:#FFFFFF;" d="M109.454,3.849v2.503h2.269v1.206h-2.269v4.699c0,1.081,0.307,1.693,1.188,1.693
		c0.414,0,0.721-0.054,0.919-0.108l0.071,1.188c-0.306,0.126-0.792,0.216-1.404,0.216c-0.738,0-1.332-0.234-1.71-0.667
		c-0.45-0.468-0.612-1.242-0.612-2.269V7.558h-1.351V6.352h1.351V4.263L109.454,3.849z"/>
	<path style="fill:#FFFFFF;" d="M117.319,9.196c0-1.116-0.036-2.017-0.072-2.845h1.423l0.071,1.494h0.036
		c0.648-1.063,1.675-1.692,3.098-1.692c2.106,0,3.69,1.782,3.69,4.429c0,3.133-1.908,4.682-3.961,4.682
		c-1.152,0-2.16-0.504-2.683-1.369h-0.036v4.735h-1.566V9.196z M118.886,11.519c0,0.234,0.036,0.45,0.072,0.648
		c0.288,1.099,1.242,1.854,2.377,1.854c1.674,0,2.646-1.368,2.646-3.367c0-1.747-0.918-3.241-2.593-3.241
		c-1.08,0-2.089,0.774-2.395,1.962c-0.055,0.198-0.108,0.433-0.108,0.648V11.519z"/>
	<path style="fill:#FFFFFF;" d="M132.387,15.066l-0.126-1.098h-0.054c-0.486,0.684-1.423,1.296-2.665,1.296
		c-1.765,0-2.665-1.243-2.665-2.503c0-2.106,1.873-3.259,5.24-3.241V9.34c0-0.72-0.198-2.017-1.981-2.017
		c-0.81,0-1.656,0.252-2.269,0.648l-0.359-1.044c0.72-0.468,1.765-0.774,2.862-0.774c2.665,0,3.313,1.818,3.313,3.565v3.259
		c0,0.756,0.036,1.494,0.144,2.088H132.387z M132.153,10.619c-1.729-0.036-3.691,0.27-3.691,1.962c0,1.026,0.684,1.513,1.494,1.513
		c1.135,0,1.854-0.72,2.106-1.458c0.055-0.162,0.091-0.342,0.091-0.504V10.619z"/>
	<path style="fill:#FFFFFF;" d="M138.073,3.849v2.503h2.269v1.206h-2.269v4.699c0,1.081,0.307,1.693,1.188,1.693
		c0.414,0,0.721-0.054,0.919-0.108l0.071,1.188c-0.306,0.126-0.792,0.216-1.404,0.216c-0.738,0-1.332-0.234-1.71-0.667
		c-0.45-0.468-0.612-1.242-0.612-2.269V7.558h-1.351V6.352h1.351V4.263L138.073,3.849z"/>
	<path style="fill:#FFFFFF;" d="M143.888,3.902c0.018,0.541-0.378,0.973-1.009,0.973c-0.558,0-0.954-0.432-0.954-0.973
		c0-0.558,0.414-0.99,0.99-0.99C143.51,2.912,143.888,3.344,143.888,3.902z M142.123,15.066V6.352h1.584v8.714H142.123z"/>
	<path style="fill:#FFFFFF;" d="M147.217,10.997c0.036,2.143,1.405,3.025,2.989,3.025c1.135,0,1.818-0.198,2.413-0.45l0.27,1.135
		c-0.558,0.252-1.513,0.54-2.898,0.54c-2.683,0-4.285-1.765-4.285-4.394s1.548-4.699,4.087-4.699c2.845,0,3.601,2.503,3.601,4.105
		c0,0.324-0.035,0.576-0.054,0.738H147.217z M151.862,9.862c0.019-1.008-0.414-2.575-2.196-2.575c-1.603,0-2.305,1.477-2.431,2.575
		H151.862z"/>
	<path style="fill:#FFFFFF;" d="M155.353,8.71c0-0.9-0.018-1.639-0.072-2.358h1.404l0.09,1.44h0.036
		c0.433-0.829,1.44-1.639,2.881-1.639c1.207,0,3.079,0.72,3.079,3.709v5.204h-1.584v-5.023c0-1.404-0.522-2.575-2.017-2.575
		c-1.045,0-1.854,0.738-2.125,1.62c-0.072,0.198-0.108,0.468-0.108,0.738v5.24h-1.584V8.71z"/>
	<path style="fill:#FFFFFF;" d="M167.179,3.849v2.503h2.269v1.206h-2.269v4.699c0,1.081,0.307,1.693,1.188,1.693
		c0.414,0,0.721-0.054,0.919-0.108l0.071,1.188c-0.306,0.126-0.792,0.216-1.404,0.216c-0.738,0-1.332-0.234-1.71-0.667
		c-0.45-0.468-0.612-1.242-0.612-2.269V7.558h-1.351V6.352h1.351V4.263L167.179,3.849z"/>
	<path style="fill:#FFFFFF;" d="M171.013,13.445c0.468,0.306,1.296,0.63,2.088,0.63c1.152,0,1.693-0.576,1.693-1.296
		c0-0.756-0.45-1.17-1.621-1.603c-1.566-0.558-2.305-1.422-2.305-2.467c0-1.404,1.135-2.557,3.007-2.557
		c0.883,0,1.657,0.252,2.143,0.54l-0.396,1.152c-0.343-0.216-0.973-0.504-1.783-0.504c-0.936,0-1.458,0.54-1.458,1.188
		c0,0.72,0.522,1.044,1.656,1.477c1.513,0.576,2.287,1.333,2.287,2.629c0,1.53-1.188,2.611-3.259,2.611
		c-0.955,0-1.837-0.234-2.449-0.594L171.013,13.445z"/>
	<path style="fill:#FFFFFF;" d="M4.434,27.352l1.152,4.429c0.252,0.972,0.486,1.873,0.648,2.773h0.054
		c0.198-0.882,0.486-1.819,0.774-2.755l1.423-4.447h1.332l1.351,4.357c0.324,1.044,0.576,1.963,0.774,2.845h0.054
		c0.144-0.882,0.378-1.801,0.666-2.827l1.242-4.375h1.566l-2.809,8.714h-1.44L9.89,31.907c-0.307-0.972-0.559-1.836-0.774-2.863
		H9.079c-0.216,1.044-0.486,1.944-0.792,2.881l-1.404,4.141h-1.44l-2.629-8.714H4.434z"/>
	<path style="fill:#FFFFFF;" d="M18.816,24.902c0.018,0.541-0.378,0.973-1.009,0.973c-0.558,0-0.954-0.432-0.954-0.973
		c0-0.558,0.414-0.99,0.99-0.99C18.439,23.912,18.816,24.344,18.816,24.902z M17.052,36.066v-8.714h1.584v8.714H17.052z"/>
	<path style="fill:#FFFFFF;" d="M23.172,24.849v2.503h2.269v1.206h-2.269v4.699c0,1.081,0.307,1.693,1.188,1.693
		c0.414,0,0.721-0.054,0.918-0.108l0.072,1.188c-0.306,0.126-0.792,0.216-1.404,0.216c-0.738,0-1.332-0.234-1.71-0.667
		c-0.45-0.468-0.612-1.242-0.612-2.269v-4.753h-1.351v-1.206h1.351v-2.089L23.172,24.849z"/>
	<path style="fill:#FFFFFF;" d="M27.222,23.282h1.584v5.438h0.036c0.252-0.45,0.648-0.846,1.135-1.116
		c0.468-0.27,1.026-0.45,1.62-0.45c1.171,0,3.043,0.72,3.043,3.727v5.186h-1.584v-5.005c0-1.404-0.522-2.593-2.017-2.593
		c-1.026,0-1.837,0.72-2.125,1.584c-0.09,0.216-0.108,0.45-0.108,0.756v5.257h-1.584V23.282z"/>
	<path style="fill:#FFFFFF;" d="M45.853,36.066l-0.126-1.098h-0.054c-0.486,0.684-1.423,1.296-2.665,1.296
		c-1.765,0-2.665-1.243-2.665-2.503c0-2.106,1.873-3.259,5.24-3.241v-0.18c0-0.72-0.198-2.017-1.98-2.017
		c-0.811,0-1.657,0.252-2.27,0.648l-0.359-1.044c0.72-0.468,1.764-0.774,2.862-0.774c2.665,0,3.313,1.818,3.313,3.565v3.259
		c0,0.756,0.036,1.494,0.144,2.088H45.853z M45.618,31.619c-1.729-0.036-3.69,0.27-3.69,1.962c0,1.026,0.684,1.513,1.494,1.513
		c1.135,0,1.854-0.72,2.106-1.458c0.055-0.162,0.09-0.342,0.09-0.504V31.619z"/>
	<path style="fill:#FFFFFF;" d="M53.519,23.282h1.584v5.438h0.036c0.252-0.45,0.648-0.846,1.135-1.116
		c0.468-0.27,1.026-0.45,1.62-0.45c1.171,0,3.043,0.72,3.043,3.727v5.186h-1.584v-5.005c0-1.404-0.522-2.593-2.017-2.593
		c-1.026,0-1.837,0.72-2.125,1.584c-0.09,0.216-0.108,0.45-0.108,0.756v5.257h-1.584V23.282z"/>
	<path style="fill:#FFFFFF;" d="M65.273,24.902c0.018,0.541-0.378,0.973-1.009,0.973c-0.558,0-0.954-0.432-0.954-0.973
		c0-0.558,0.414-0.99,0.99-0.99C64.896,23.912,65.273,24.344,65.273,24.902z M63.509,36.066v-8.714h1.584v8.714H63.509z"/>
	<path style="fill:#FFFFFF;" d="M67.505,34.445c0.468,0.306,1.296,0.63,2.088,0.63c1.152,0,1.693-0.576,1.693-1.296
		c0-0.756-0.45-1.17-1.621-1.603c-1.566-0.558-2.305-1.422-2.305-2.467c0-1.404,1.135-2.557,3.007-2.557
		c0.883,0,1.657,0.252,2.143,0.54l-0.396,1.152c-0.343-0.216-0.973-0.504-1.783-0.504c-0.936,0-1.458,0.54-1.458,1.188
		c0,0.72,0.522,1.044,1.656,1.477c1.513,0.576,2.287,1.333,2.287,2.629c0,1.53-1.188,2.611-3.259,2.611
		c-0.955,0-1.837-0.234-2.449-0.594L67.505,34.445z"/>
	<path style="fill:#FFFFFF;" d="M76.757,24.849v2.503h2.269v1.206h-2.269v4.699c0,1.081,0.307,1.693,1.188,1.693
		c0.414,0,0.721-0.054,0.919-0.108l0.071,1.188c-0.306,0.126-0.792,0.216-1.404,0.216c-0.738,0-1.332-0.234-1.71-0.667
		c-0.45-0.468-0.612-1.242-0.612-2.269v-4.753h-1.351v-1.206h1.351v-2.089L76.757,24.849z"/>
	<path style="fill:#FFFFFF;" d="M88.585,31.637c0,3.223-2.233,4.627-4.34,4.627c-2.358,0-4.177-1.729-4.177-4.483
		c0-2.917,1.908-4.627,4.321-4.627C86.892,27.153,88.585,28.972,88.585,31.637z M81.671,31.727c0,1.909,1.098,3.349,2.646,3.349
		c1.513,0,2.646-1.422,2.646-3.385c0-1.476-0.738-3.349-2.61-3.349C82.481,28.342,81.671,30.07,81.671,31.727z"/>
	<path style="fill:#FFFFFF;" d="M90.58,30.07c0-1.026-0.019-1.909-0.072-2.719h1.387l0.054,1.71h0.072
		c0.396-1.17,1.351-1.909,2.413-1.909c0.18,0,0.306,0.018,0.45,0.054v1.495c-0.162-0.036-0.324-0.054-0.541-0.054
		c-1.116,0-1.908,0.847-2.124,2.035c-0.036,0.216-0.072,0.468-0.072,0.738v4.646H90.58V30.07z"/>
	<path style="fill:#FFFFFF;" d="M97.492,27.352l1.908,5.149c0.198,0.576,0.414,1.26,0.559,1.782h0.036
		c0.162-0.522,0.342-1.188,0.558-1.818l1.729-5.113h1.675l-2.377,6.211c-1.134,2.989-1.908,4.52-2.988,5.456
		c-0.774,0.685-1.549,0.955-1.945,1.026l-0.396-1.332c0.396-0.126,0.918-0.378,1.386-0.774c0.433-0.342,0.973-0.954,1.333-1.765
		c0.072-0.162,0.126-0.288,0.126-0.378s-0.036-0.216-0.108-0.414l-3.223-8.03H97.492z"/>
	<path style="fill:#FFFFFF;" d="M117.096,31.637c0,3.223-2.233,4.627-4.34,4.627c-2.358,0-4.177-1.729-4.177-4.483
		c0-2.917,1.908-4.627,4.321-4.627C115.402,27.153,117.096,28.972,117.096,31.637z M110.182,31.727c0,1.909,1.098,3.349,2.646,3.349
		c1.513,0,2.646-1.422,2.646-3.385c0-1.476-0.738-3.349-2.61-3.349C110.991,28.342,110.182,30.07,110.182,31.727z"/>
	<path style="fill:#FFFFFF;" d="M119.253,36.066v-7.508h-1.225v-1.206h1.225v-0.415c0-1.224,0.27-2.34,1.008-3.042
		c0.595-0.576,1.387-0.811,2.125-0.811c0.559,0,1.044,0.126,1.351,0.252l-0.216,1.225c-0.234-0.108-0.559-0.198-1.009-0.198
		c-1.351,0-1.692,1.188-1.692,2.521v0.468h2.106v1.206h-2.106v7.508H119.253z"/>
	<path style="fill:#FFFFFF;" d="M132.987,36.066l-0.126-1.098h-0.054c-0.486,0.684-1.423,1.296-2.665,1.296
		c-1.765,0-2.665-1.243-2.665-2.503c0-2.106,1.873-3.259,5.24-3.241v-0.18c0-0.72-0.198-2.017-1.98-2.017
		c-0.811,0-1.657,0.252-2.27,0.648l-0.359-1.044c0.72-0.468,1.764-0.774,2.862-0.774c2.665,0,3.313,1.818,3.313,3.565v3.259
		c0,0.756,0.036,1.494,0.144,2.088H132.987z M132.753,31.619c-1.729-0.036-3.69,0.27-3.69,1.962c0,1.026,0.684,1.513,1.494,1.513
		c1.135,0,1.854-0.72,2.106-1.458c0.055-0.162,0.09-0.342,0.09-0.504V31.619z"/>
	<path style="fill:#FFFFFF;" d="M136.622,34.445c0.468,0.306,1.296,0.63,2.088,0.63c1.152,0,1.693-0.576,1.693-1.296
		c0-0.756-0.45-1.17-1.621-1.603c-1.566-0.558-2.305-1.422-2.305-2.467c0-1.404,1.135-2.557,3.007-2.557
		c0.883,0,1.657,0.252,2.143,0.54l-0.396,1.152c-0.343-0.216-0.973-0.504-1.783-0.504c-0.936,0-1.458,0.54-1.458,1.188
		c0,0.72,0.522,1.044,1.656,1.477c1.513,0.576,2.287,1.333,2.287,2.629c0,1.53-1.188,2.611-3.259,2.611
		c-0.955,0-1.837-0.234-2.449-0.594L136.622,34.445z"/>
	<path style="fill:#FFFFFF;" d="M145.874,24.849v2.503h2.269v1.206h-2.269v4.699c0,1.081,0.307,1.693,1.188,1.693
		c0.414,0,0.721-0.054,0.919-0.108l0.071,1.188c-0.306,0.126-0.792,0.216-1.404,0.216c-0.738,0-1.332-0.234-1.71-0.667
		c-0.45-0.468-0.612-1.242-0.612-2.269v-4.753h-1.351v-1.206h1.351v-2.089L145.874,24.849z"/>
	<path style="fill:#FFFFFF;" d="M149.924,23.282h1.584v5.438h0.036c0.252-0.45,0.648-0.846,1.135-1.116
		c0.468-0.27,1.026-0.45,1.62-0.45c1.171,0,3.043,0.72,3.043,3.727v5.186h-1.584v-5.005c0-1.404-0.522-2.593-2.017-2.593
		c-1.026,0-1.837,0.72-2.125,1.584c-0.09,0.216-0.108,0.45-0.108,0.756v5.257h-1.584V23.282z"/>
	<path style="fill:#FFFFFF;" d="M159.914,29.71c0-0.9-0.019-1.639-0.072-2.358h1.387l0.072,1.404h0.054
		c0.486-0.828,1.296-1.603,2.736-1.603c1.188,0,2.089,0.72,2.467,1.747h0.036c0.271-0.486,0.612-0.864,0.973-1.134
		c0.522-0.396,1.099-0.612,1.927-0.612c1.152,0,2.862,0.756,2.862,3.781v5.131h-1.548v-4.934c0-1.674-0.612-2.683-1.891-2.683
		c-0.9,0-1.603,0.666-1.873,1.44c-0.072,0.216-0.126,0.504-0.126,0.792v5.384h-1.548v-5.222c0-1.386-0.612-2.395-1.819-2.395
		c-0.99,0-1.71,0.792-1.962,1.584c-0.091,0.234-0.126,0.504-0.126,0.774v5.257h-1.549V29.71z"/>
	<path style="fill:#FFFFFF;" d="M179.751,36.066l-0.126-1.098h-0.054c-0.486,0.684-1.423,1.296-2.665,1.296
		c-1.765,0-2.665-1.243-2.665-2.503c0-2.106,1.873-3.259,5.24-3.241v-0.18c0-0.72-0.198-2.017-1.98-2.017
		c-0.811,0-1.657,0.252-2.27,0.648l-0.359-1.044c0.72-0.468,1.764-0.774,2.862-0.774c2.665,0,3.313,1.818,3.313,3.565v3.259
		c0,0.756,0.036,1.494,0.144,2.088H179.751z M179.517,31.619c-1.729-0.036-3.69,0.27-3.69,1.962c0,1.026,0.684,1.513,1.494,1.513
		c1.135,0,1.854-0.72,2.106-1.458c0.055-0.162,0.09-0.342,0.09-0.504V31.619z"/>
	<path style="fill:#FFFFFF;" d="M38.471,52.997c0.036,2.143,1.405,3.025,2.989,3.025c1.135,0,1.818-0.198,2.413-0.45l0.27,1.135
		c-0.558,0.252-1.513,0.54-2.898,0.54c-2.683,0-4.285-1.765-4.285-4.394s1.548-4.699,4.087-4.699c2.845,0,3.601,2.503,3.601,4.105
		c0,0.324-0.035,0.576-0.054,0.738H38.471z M43.116,51.862c0.019-1.008-0.414-2.575-2.196-2.575c-1.603,0-2.305,1.477-2.431,2.575
		H43.116z"/>
	<path style="fill:#FFFFFF;" d="M47.291,48.352l1.242,1.872c0.324,0.486,0.595,0.937,0.882,1.423h0.055
		c0.288-0.522,0.576-0.973,0.864-1.44l1.225-1.854h1.71l-2.971,4.213l3.061,4.501h-1.8l-1.278-1.962
		c-0.343-0.504-0.631-0.99-0.937-1.513h-0.036c-0.288,0.522-0.595,0.99-0.918,1.513l-1.261,1.962h-1.747l3.098-4.447l-2.953-4.267
		H47.291z"/>
	<path style="fill:#FFFFFF;" d="M59.712,57.066l-0.126-1.098h-0.054c-0.486,0.684-1.423,1.296-2.665,1.296
		c-1.765,0-2.665-1.243-2.665-2.503c0-2.106,1.873-3.259,5.24-3.241v-0.18c0-0.72-0.198-2.017-1.98-2.017
		c-0.811,0-1.657,0.252-2.27,0.648l-0.359-1.044c0.72-0.468,1.764-0.774,2.862-0.774c2.665,0,3.313,1.818,3.313,3.565v3.259
		c0,0.756,0.036,1.494,0.144,2.088H59.712z M59.478,52.619c-1.729-0.036-3.69,0.27-3.69,1.962c0,1.026,0.684,1.513,1.494,1.513
		c1.135,0,1.854-0.72,2.106-1.458c0.055-0.162,0.09-0.342,0.09-0.504V52.619z"/>
	<path style="fill:#FFFFFF;" d="M69.774,56.742c-0.414,0.216-1.332,0.504-2.503,0.504c-2.629,0-4.339-1.783-4.339-4.447
		c0-2.683,1.836-4.627,4.681-4.627c0.937,0,1.765,0.234,2.197,0.45l-0.36,1.224c-0.378-0.216-0.973-0.414-1.837-0.414
		c-1.998,0-3.078,1.477-3.078,3.295c0,2.017,1.296,3.259,3.024,3.259c0.9,0,1.494-0.234,1.944-0.432L69.774,56.742z"/>
	<path style="fill:#FFFFFF;" d="M72.4,52.997c0.036,2.143,1.405,3.025,2.989,3.025c1.135,0,1.818-0.198,2.413-0.45l0.27,1.135
		c-0.558,0.252-1.513,0.54-2.898,0.54c-2.683,0-4.285-1.765-4.285-4.394s1.548-4.699,4.087-4.699c2.845,0,3.601,2.503,3.601,4.105
		c0,0.324-0.035,0.576-0.054,0.738H72.4z M77.046,51.862c0.019-1.008-0.414-2.575-2.196-2.575c-1.603,0-2.305,1.477-2.431,2.575
		H77.046z"/>
	<path style="fill:#FFFFFF;" d="M80.536,51.07c0-1.026-0.018-1.909-0.072-2.719h1.387l0.054,1.71h0.072
		c0.396-1.17,1.351-1.909,2.413-1.909c0.18,0,0.306,0.018,0.449,0.054v1.495c-0.161-0.036-0.323-0.054-0.54-0.054
		c-1.116,0-1.908,0.847-2.124,2.035c-0.036,0.216-0.072,0.468-0.072,0.738v4.646h-1.566V51.07z"/>
	<path style="fill:#FFFFFF;" d="M86.422,57.066c0.036-0.594,0.072-1.477,0.072-2.25V44.282h1.566v5.474h0.036
		c0.558-0.973,1.566-1.603,2.971-1.603c2.161,0,3.691,1.8,3.673,4.447c0,3.115-1.962,4.664-3.907,4.664
		c-1.26,0-2.269-0.486-2.916-1.639h-0.055l-0.072,1.44H86.422z M88.061,53.573c0,0.198,0.036,0.396,0.072,0.576
		c0.306,1.099,1.224,1.854,2.376,1.854c1.657,0,2.647-1.35,2.647-3.349c0-1.747-0.9-3.241-2.593-3.241
		c-1.08,0-2.089,0.738-2.413,1.945c-0.036,0.18-0.09,0.396-0.09,0.648V53.573z"/>
	<path style="fill:#FFFFFF;" d="M101.562,57.066l-0.126-1.098h-0.054c-0.486,0.684-1.423,1.296-2.665,1.296
		c-1.765,0-2.665-1.243-2.665-2.503c0-2.106,1.873-3.259,5.24-3.241v-0.18c0-0.72-0.198-2.017-1.98-2.017
		c-0.811,0-1.657,0.252-2.27,0.648l-0.359-1.044c0.72-0.468,1.764-0.774,2.862-0.774c2.665,0,3.313,1.818,3.313,3.565v3.259
		c0,0.756,0.036,1.494,0.144,2.088H101.562z M101.327,52.619c-1.729-0.036-3.69,0.27-3.69,1.962c0,1.026,0.684,1.513,1.494,1.513
		c1.135,0,1.854-0.72,2.106-1.458c0.055-0.162,0.09-0.342,0.09-0.504V52.619z"/>
	<path style="fill:#FFFFFF;" d="M107.248,45.849v2.503h2.269v1.206h-2.269v4.699c0,1.081,0.307,1.693,1.188,1.693
		c0.414,0,0.721-0.054,0.918-0.108l0.072,1.188c-0.306,0.126-0.792,0.216-1.404,0.216c-0.738,0-1.332-0.234-1.71-0.667
		c-0.45-0.468-0.612-1.242-0.612-2.269v-4.753h-1.351v-1.206h1.351v-2.089L107.248,45.849z"/>
	<path style="fill:#FFFFFF;" d="M113.063,45.902c0.018,0.541-0.378,0.973-1.009,0.973c-0.558,0-0.954-0.432-0.954-0.973
		c0-0.558,0.414-0.99,0.99-0.99C112.685,44.912,113.063,45.344,113.063,45.902z M111.298,57.066v-8.714h1.584v8.714H111.298z"/>
	<path style="fill:#FFFFFF;" d="M123.397,52.637c0,3.223-2.233,4.627-4.34,4.627c-2.358,0-4.177-1.729-4.177-4.483
		c0-2.917,1.908-4.627,4.321-4.627C121.703,48.153,123.397,49.972,123.397,52.637z M116.482,52.727c0,1.909,1.098,3.349,2.646,3.349
		c1.513,0,2.646-1.422,2.646-3.385c0-1.476-0.738-3.349-2.61-3.349C117.292,49.342,116.482,51.07,116.482,52.727z"/>
	<path style="fill:#FFFFFF;" d="M125.392,50.71c0-0.9-0.018-1.639-0.072-2.358h1.404l0.09,1.44h0.036
		c0.433-0.829,1.44-1.639,2.881-1.639c1.207,0,3.079,0.72,3.079,3.709v5.204h-1.584v-5.023c0-1.404-0.522-2.575-2.017-2.575
		c-1.045,0-1.854,0.738-2.125,1.62c-0.072,0.198-0.108,0.468-0.108,0.738v5.24h-1.584V50.71z"/>
	<path style="fill:#FFFFFF;" d="M135.166,55.445c0.468,0.306,1.296,0.63,2.088,0.63c1.152,0,1.693-0.576,1.693-1.296
		c0-0.756-0.45-1.17-1.621-1.603c-1.566-0.558-2.305-1.422-2.305-2.467c0-1.404,1.135-2.557,3.007-2.557
		c0.883,0,1.656,0.252,2.143,0.54l-0.396,1.152c-0.343-0.216-0.973-0.504-1.783-0.504c-0.936,0-1.458,0.54-1.458,1.188
		c0,0.72,0.522,1.044,1.656,1.477c1.513,0.576,2.287,1.333,2.287,2.629c0,1.53-1.188,2.611-3.259,2.611
		c-0.955,0-1.837-0.234-2.449-0.594L135.166,55.445z"/>
	<path style="fill:#FFFFFF;" d="M143.734,53.627l-0.036-0.468c-0.108-0.972,0.216-2.035,1.116-3.115
		c0.811-0.955,1.261-1.657,1.261-2.467c0-0.918-0.576-1.53-1.711-1.548c-0.648,0-1.368,0.216-1.818,0.558l-0.433-1.134
		c0.595-0.432,1.621-0.72,2.575-0.72c2.07,0,3.007,1.278,3.007,2.646c0,1.225-0.685,2.107-1.549,3.133
		c-0.792,0.937-1.08,1.729-1.026,2.647l0.019,0.468H143.734z M143.338,56.147c0-0.666,0.45-1.134,1.08-1.134
		c0.631,0,1.063,0.468,1.063,1.134c0,0.63-0.414,1.117-1.08,1.117C143.771,57.264,143.338,56.778,143.338,56.147z"/>
</g>
<g>
</g>
<g>
</g>
<g>
</g>
<g>
</g>
<g>
</g>
<g>
</g>
<g>
</g>
<g>
</g>
<g>
</g>
<g>
</g>
<g>
</g>
<g>
</g>
<g>
</g>
<g>
</g>
<g>
</g>
<g>
</g>
</svg>
