<?xml version="1.0" encoding="iso-8859-1"?>
<!-- Generator: Adobe Illustrator 19.1.0, SVG Export Plug-In . SVG Version: 6.00 Build 0)  -->
<svg version="1.1" id="Layer_1" xmlns="http://www.w3.org/2000/svg" xmlns:xlink="http://www.w3.org/1999/xlink" x="0px" y="0px"
	 viewBox="0 0 216.164 59.819" style="enable-background:new 0 0 216.164 59.819;" xml:space="preserve">
<g>
	<defs>
		<rect id="SVGID_24_" x="140.77" y="-344.378" width="300" height="250"/>
	</defs>
	<clipPath id="SVGID_2_">
		<use xlink:href="#SVGID_24_"  style="overflow:visible;"/>
	</clipPath>
	
		<radialGradient id="SVGID_3_" cx="1115.869" cy="-192.0446" r="576.2422" gradientTransform="matrix(0.689 0 0 1 -478.4286 0)" gradientUnits="userSpaceOnUse">
		<stop  offset="0" style="stop-color:#FFFFFF"/>
		<stop  offset="0.54" style="stop-color:#FFFFFF;stop-opacity:0"/>
	</radialGradient>
	<ellipse style="clip-path:url(#SVGID_2_);fill:url(#SVGID_3_);" cx="291.77" cy="-192.045" rx="242.314" ry="351.667"/>
</g>
<g>
	<path style="fill:#114B89;" d="M84.188,0.252h5.123c1.891,0,4.725,0.546,4.725,3.758c0,1.743-1.176,2.961-2.918,3.275v0.042
		c1.994,0.189,3.359,1.533,3.359,3.339c0,3.695-3.318,4.241-5.166,4.241h-5.123V0.252z M87.127,6.173h1.197
		c1.238,0,2.771-0.273,2.771-1.785c0-1.7-1.49-1.826-2.834-1.826h-1.135V6.173z M87.127,12.598h1.387
		c1.364,0,3.023-0.336,3.023-2.037c0-1.91-1.555-2.204-3.023-2.204h-1.387V12.598z"/>
	<path style="fill:#114B89;" d="M96.768,0.252h3.17c3.149,0,6.908-0.105,6.908,3.968c0,1.722-1.155,3.149-3.023,3.401v0.042
		c0.797,0.063,1.26,0.861,1.553,1.512l2.352,5.732h-3.275l-1.764-4.577c-0.42-1.092-0.797-1.512-2.036-1.512h-0.944v6.089h-2.939
		V0.252z M99.707,6.509h0.965c1.449,0,3.107-0.21,3.107-2.037c0-1.764-1.637-1.91-3.107-1.91h-0.965V6.509z"/>
	<path style="fill:#114B89;" d="M109.85,0.252h8.65v2.31h-5.711v3.611h5.229v2.31h-5.229v4.115h5.754v2.31h-8.693V0.252z"/>
	<path style="fill:#114B89;" d="M127.992,0c4.599,0,7.182,3.107,7.182,7.537c0,4.431-2.541,7.622-7.182,7.622
		c-4.703,0-7.18-3.129-7.18-7.622S123.332,0,127.992,0z M127.992,12.85c3.003,0,4.115-2.667,4.115-5.312
		c0-2.582-1.196-5.228-4.115-5.228c-2.918,0-4.115,2.646-4.115,5.228C123.877,10.183,124.99,12.85,127.992,12.85z"/>
</g>
<g>
	<path style="fill:#114B89;" d="M28.703,27.958c0.443,0.287,1.08,0.432,1.403,0.432c0.517,0,1.151-0.216,1.151-0.875
		c0-1.115-2.65-1.02-2.65-2.734c0-1.271,0.947-1.884,2.158-1.884c0.528,0,0.96,0.108,1.404,0.24l-0.096,0.983
		c-0.252-0.156-0.924-0.312-1.188-0.312c-0.576,0-1.08,0.24-1.08,0.744c0,1.248,2.65,0.888,2.65,2.842
		c0,1.309-1.043,1.908-2.135,1.908c-0.575,0-1.163-0.061-1.679-0.336L28.703,27.958z"/>
	<path style="fill:#114B89;" d="M35.17,21.673h-1.271v-1.271h1.271V21.673z M33.971,23.04h1.128v6.117h-1.128V23.04z"/>
	<path style="fill:#114B89;" d="M42.572,28.894c0,1.859-0.959,2.926-3.154,2.926c-0.648,0-1.211-0.084-2.195-0.42l0.12-1.043
		c0.864,0.396,1.38,0.552,2.207,0.552c1.188,0,1.896-0.804,1.896-2.099v-0.6h-0.024c-0.479,0.635-1.271,0.947-2.052,0.947
		c-1.75,0-2.613-1.428-2.613-3.01c0-1.572,0.887-3.251,2.734-3.251c1.079,0,1.679,0.396,2.015,1.056h0.024V23.04h1.043V28.894z
		 M41.445,26.171c0-1.271-0.588-2.363-1.787-2.363c-1.14,0-1.703,1.236-1.703,2.279c0,1.151,0.646,2.158,1.703,2.158
		C40.713,28.245,41.445,27.31,41.445,26.171z"/>
	<path style="fill:#114B89;" d="M44.495,23.04h1.091v0.973h0.024c0.336-0.696,1.151-1.116,2.003-1.116
		c1.584,0,2.291,0.983,2.291,2.627v3.634h-1.127v-3.166c0-1.428-0.312-2.123-1.296-2.184c-1.283,0-1.858,1.031-1.858,2.52v2.83
		h-1.128V23.04z"/>
	<path style="fill:#114B89;" d="M53.17,21.673h-1.271v-1.271h1.271V21.673z M51.971,23.04h1.128v6.117h-1.128V23.04z"/>
	<path style="fill:#114B89;" d="M55.895,23.952h-1.439V23.04h1.439v-0.562c0-1.488,0.384-2.459,2.051-2.459
		c0.289,0,0.527,0.035,0.756,0.072l-0.049,0.91c-0.131-0.047-0.348-0.071-0.539-0.071c-0.971,0-1.092,0.624-1.092,1.451v0.659h1.619
		v0.912h-1.619v5.205h-1.127V23.952z M61.172,21.673H59.9v-1.271h1.271V21.673z M59.973,23.04H61.1v6.117h-1.127V23.04z"/>
	<path style="fill:#114B89;" d="M67.053,24.071c-0.432-0.18-0.863-0.264-1.223-0.264c-1.26,0-1.967,1.128-1.967,2.291
		c0,1.092,0.588,2.291,2.039,2.291c0.383,0,0.863-0.12,1.211-0.348l0.084,1.008c-0.469,0.215-1.008,0.252-1.416,0.252
		c-1.846,0-3.117-1.451-3.117-3.203c0-1.859,1.246-3.202,3.117-3.202c0.457,0,1.043,0.108,1.367,0.24L67.053,24.071z"/>
	<path style="fill:#114B89;" d="M68.783,23.472c0.562-0.335,1.234-0.575,2.016-0.575c1.75,0,2.457,0.864,2.457,2.53v2.531
		c0,0.695,0.025,1.02,0.049,1.199H72.25v-0.791h-0.025c-0.264,0.371-0.863,0.936-1.895,0.936c-1.318,0-2.242-0.576-2.242-1.908
		c0-1.535,1.678-2.014,2.842-2.014c0.443,0,0.756,0,1.199,0.023c0-1.056-0.383-1.596-1.512-1.596c-0.635,0-1.318,0.24-1.773,0.624
		L68.783,23.472z M72.129,26.243c-0.24,0-0.48-0.024-0.719-0.024c-0.611,0-2.123,0.097-2.123,1.175c0,0.648,0.623,0.996,1.139,0.996
		c1.115,0,1.703-0.695,1.703-1.607V26.243z"/>
	<path style="fill:#114B89;" d="M75.168,23.04h1.09v0.973h0.025c0.336-0.696,1.15-1.116,2.002-1.116
		c1.584,0,2.291,0.983,2.291,2.627v3.634h-1.127v-3.166c0-1.428-0.312-2.123-1.295-2.184c-1.285,0-1.859,1.031-1.859,2.52v2.83
		h-1.127V23.04z"/>
	<path style="fill:#114B89;" d="M85.75,23.952h-1.619v3.346c0,0.708,0.432,1.092,0.947,1.092c0.348,0,0.6-0.107,0.768-0.216v0.96
		c-0.252,0.071-0.6,0.168-0.961,0.168c-1.162,0-1.883-0.553-1.883-1.775v-3.574h-1.379V23.04h1.379v-1.414l1.129-0.36v1.774h1.619
		V23.952z"/>
	<path style="fill:#114B89;" d="M87.311,20.162h1.127v8.995h-1.127V20.162z"/>
	<path style="fill:#114B89;" d="M90.047,30.812c0.145,0.048,0.336,0.096,0.527,0.096c1.008,0,1.344-1.392,1.344-1.511
		c0-0.133-0.145-0.444-0.215-0.648l-2.076-5.709h1.236l1.643,5.062h0.023l1.68-5.062h1.139l-2.254,6.249
		c-0.42,1.175-0.863,2.53-2.352,2.53c-0.359,0-0.562-0.047-0.768-0.084L90.047,30.812z"/>
	<path style="fill:#114B89;" d="M99.84,23.04h1.055v0.948h0.023c0.301-0.636,0.947-1.092,1.596-1.092
		c0.336,0,0.504,0.036,0.744,0.084v1.008c-0.205-0.084-0.432-0.108-0.625-0.108c-1.008,0-1.666,0.959-1.666,2.494v2.783H99.84V23.04
		z"/>
	<path style="fill:#114B89;" d="M109.195,28.905c-0.432,0.156-0.922,0.396-1.93,0.396c-2.172,0-3.166-1.32-3.166-3.311
		c0-1.811,1.139-3.095,2.865-3.095c2.039,0,2.699,1.487,2.699,3.454h-4.365c0,1.211,0.947,2.039,2.014,2.039
		c0.744,0,1.607-0.384,1.883-0.611V28.905z M108.465,25.511c0-0.936-0.553-1.703-1.523-1.703c-1.104,0-1.559,0.912-1.643,1.703
		H108.465z"/>
	<path style="fill:#114B89;" d="M115.508,28.294h-0.023c-0.301,0.455-0.996,1.008-2.086,1.008c-1.848,0-2.627-1.644-2.627-3.311
		c0-1.644,0.863-3.095,2.639-3.095c1.066,0,1.678,0.42,2.025,0.983h0.025v-3.718h1.127v8.995h-1.08V28.294z M113.662,28.39
		c1.271,0,1.799-1.26,1.799-2.279c0-1.139-0.588-2.303-1.812-2.303c-1.223,0-1.701,1.152-1.678,2.268
		C111.947,27.034,112.449,28.39,113.662,28.39z"/>
	<path style="fill:#114B89;" d="M123.92,29.157h-1.092v-0.972h-0.023c-0.336,0.696-1.152,1.116-2.004,1.116
		c-1.582,0-2.289-0.984-2.289-2.627V23.04h1.127v3.167c0,1.427,0.311,2.122,1.295,2.183c1.283,0,1.859-1.031,1.859-2.519V23.04
		h1.127V29.157z"/>
	<path style="fill:#114B89;" d="M129.729,24.071c-0.432-0.18-0.863-0.264-1.223-0.264c-1.26,0-1.967,1.128-1.967,2.291
		c0,1.092,0.588,2.291,2.039,2.291c0.383,0,0.863-0.12,1.211-0.348l0.084,1.008c-0.469,0.215-1.008,0.252-1.416,0.252
		c-1.846,0-3.117-1.451-3.117-3.203c0-1.859,1.246-3.202,3.117-3.202c0.457,0,1.043,0.108,1.367,0.24L129.729,24.071z"/>
	<path style="fill:#114B89;" d="M135.859,28.905c-0.432,0.156-0.922,0.396-1.93,0.396c-2.172,0-3.166-1.32-3.166-3.311
		c0-1.811,1.139-3.095,2.865-3.095c2.039,0,2.699,1.487,2.699,3.454h-4.365c0,1.211,0.947,2.039,2.014,2.039
		c0.744,0,1.607-0.384,1.883-0.611V28.905z M135.129,25.511c0-0.936-0.553-1.703-1.523-1.703c-1.104,0-1.559,0.912-1.643,1.703
		H135.129z"/>
	<path style="fill:#114B89;" d="M142.172,28.294h-0.023c-0.301,0.455-0.996,1.008-2.086,1.008c-1.848,0-2.627-1.644-2.627-3.311
		c0-1.644,0.863-3.095,2.639-3.095c1.066,0,1.678,0.42,2.025,0.983h0.025v-3.718h1.127v8.995h-1.08V28.294z M140.326,28.39
		c1.271,0,1.799-1.26,1.799-2.279c0-1.139-0.588-2.303-1.812-2.303c-1.223,0-1.701,1.152-1.678,2.268
		C138.611,27.034,139.113,28.39,140.326,28.39z"/>
	<path style="fill:#114B89;" d="M148.799,23.472c0.562-0.335,1.234-0.575,2.016-0.575c1.75,0,2.457,0.864,2.457,2.53v2.531
		c0,0.695,0.025,1.02,0.049,1.199h-1.055v-0.791h-0.025c-0.264,0.371-0.863,0.936-1.895,0.936c-1.318,0-2.242-0.576-2.242-1.908
		c0-1.535,1.678-2.014,2.842-2.014c0.443,0,0.756,0,1.199,0.023c0-1.056-0.383-1.596-1.512-1.596c-0.635,0-1.318,0.24-1.773,0.624
		L148.799,23.472z M152.145,26.243c-0.24,0-0.48-0.024-0.719-0.024c-0.611,0-2.123,0.097-2.123,1.175
		c0,0.648,0.623,0.996,1.139,0.996c1.115,0,1.703-0.695,1.703-1.607V26.243z"/>
	<path style="fill:#114B89;" d="M154.727,27.958c0.443,0.287,1.08,0.432,1.404,0.432c0.516,0,1.15-0.216,1.15-0.875
		c0-1.115-2.65-1.02-2.65-2.734c0-1.271,0.947-1.884,2.158-1.884c0.529,0,0.961,0.108,1.404,0.24l-0.096,0.983
		c-0.252-0.156-0.924-0.312-1.188-0.312c-0.576,0-1.08,0.24-1.08,0.744c0,1.248,2.65,0.888,2.65,2.842
		c0,1.309-1.043,1.908-2.135,1.908c-0.576,0-1.162-0.061-1.68-0.336L154.727,27.958z"/>
	<path style="fill:#114B89;" d="M163.102,23.952h-1.619v3.346c0,0.708,0.432,1.092,0.947,1.092c0.348,0,0.6-0.107,0.768-0.216v0.96
		c-0.252,0.071-0.6,0.168-0.961,0.168c-1.162,0-1.883-0.553-1.883-1.775v-3.574h-1.379V23.04h1.379v-1.414l1.129-0.36v1.774h1.619
		V23.952z"/>
	<path style="fill:#114B89;" d="M164.52,20.162h1.127v3.754h0.023c0.408-0.647,1.115-1.02,1.967-1.02
		c1.584,0,2.291,0.983,2.291,2.627v3.634h-1.127v-3.166c0-1.428-0.312-2.123-1.295-2.184c-1.285,0-1.859,1.031-1.859,2.52v2.83
		h-1.127V20.162z"/>
	<path style="fill:#114B89;" d="M171.838,23.04h1.057v0.889h0.023c0.432-0.708,1.043-1.032,1.943-1.032
		c0.707,0,1.414,0.36,1.738,1.188c0.42-0.876,1.344-1.188,1.895-1.188c1.561,0,2.123,1.008,2.123,2.339v3.922h-1.127v-3.646
		c0-0.755-0.18-1.703-1.092-1.703c-1.15,0-1.607,1.128-1.607,2.268v3.082h-1.127v-3.646c0-0.755-0.18-1.703-1.092-1.703
		c-1.15,0-1.605,1.128-1.605,2.268v3.082h-1.129V23.04z"/>
	<path style="fill:#114B89;" d="M182.807,23.472c0.562-0.335,1.234-0.575,2.016-0.575c1.75,0,2.457,0.864,2.457,2.53v2.531
		c0,0.695,0.025,1.02,0.049,1.199h-1.055v-0.791h-0.025c-0.264,0.371-0.863,0.936-1.895,0.936c-1.318,0-2.242-0.576-2.242-1.908
		c0-1.535,1.678-2.014,2.842-2.014c0.443,0,0.756,0,1.199,0.023c0-1.056-0.383-1.596-1.512-1.596c-0.635,0-1.318,0.24-1.773,0.624
		L182.807,23.472z M186.152,26.243c-0.24,0-0.48-0.024-0.719-0.024c-0.611,0-2.123,0.097-2.123,1.175
		c0,0.648,0.623,0.996,1.139,0.996c1.115,0,1.703-0.695,1.703-1.607V26.243z"/>
	<path style="fill:#114B89;" d="M27.506,42.905c-0.432,0.156-0.923,0.396-1.931,0.396c-2.171,0-3.166-1.32-3.166-3.311
		c0-1.811,1.14-3.095,2.866-3.095c2.039,0,2.699,1.487,2.699,3.454h-4.366c0,1.211,0.948,2.039,2.015,2.039
		c0.744,0,1.607-0.384,1.883-0.611V42.905z M26.775,39.511c0-0.936-0.553-1.703-1.523-1.703c-1.104,0-1.56,0.912-1.644,1.703H26.775
		z"/>
	<path style="fill:#114B89;" d="M30.855,39.955l-1.99-2.915h1.403l1.331,2.184l1.355-2.184h1.26l-1.968,2.915l2.159,3.202h-1.392
		l-1.511-2.398l-1.512,2.398h-1.343L30.855,39.955z"/>
	<path style="fill:#114B89;" d="M35.777,37.472c0.562-0.335,1.234-0.575,2.014-0.575c1.752,0,2.459,0.864,2.459,2.53v2.531
		c0,0.695,0.023,1.02,0.049,1.199h-1.057v-0.791h-0.023c-0.264,0.371-0.863,0.936-1.895,0.936c-1.32,0-2.243-0.576-2.243-1.908
		c0-1.535,1.679-2.014,2.843-2.014c0.443,0,0.756,0,1.199,0.023c0-1.056-0.385-1.596-1.512-1.596c-0.635,0-1.318,0.24-1.775,0.624
		L35.777,37.472z M39.123,40.243c-0.24,0-0.48-0.024-0.72-0.024c-0.612,0-2.123,0.097-2.123,1.175c0,0.648,0.624,0.996,1.14,0.996
		c1.115,0,1.703-0.695,1.703-1.607V40.243z"/>
	<path style="fill:#114B89;" d="M46.047,38.071c-0.432-0.18-0.863-0.264-1.224-0.264c-1.259,0-1.967,1.128-1.967,2.291
		c0,1.092,0.587,2.291,2.038,2.291c0.385,0,0.864-0.12,1.212-0.348l0.084,1.008c-0.468,0.215-1.007,0.252-1.415,0.252
		c-1.848,0-3.119-1.451-3.119-3.203c0-1.859,1.248-3.202,3.119-3.202c0.455,0,1.043,0.108,1.367,0.24L46.047,38.071z"/>
	<path style="fill:#114B89;" d="M52.178,42.905c-0.432,0.156-0.924,0.396-1.932,0.396c-2.17,0-3.166-1.32-3.166-3.311
		c0-1.811,1.14-3.095,2.867-3.095c2.039,0,2.698,1.487,2.698,3.454h-4.366c0,1.211,0.948,2.039,2.016,2.039
		c0.744,0,1.607-0.384,1.883-0.611V42.905z M51.446,39.511c0-0.936-0.552-1.703-1.523-1.703c-1.104,0-1.56,0.912-1.644,1.703H51.446
		z"/>
	<path style="fill:#114B89;" d="M54.16,37.04h1.055v0.948h0.025c0.299-0.636,0.947-1.092,1.594-1.092
		c0.336,0,0.504,0.036,0.744,0.084v1.008c-0.203-0.084-0.432-0.108-0.623-0.108c-1.008,0-1.668,0.959-1.668,2.494v2.783H54.16V37.04
		z"/>
	<path style="fill:#114B89;" d="M58.828,34.162h1.127v3.718h0.025c0.348-0.563,0.959-0.983,2.025-0.983
		c1.775,0,2.639,1.451,2.639,3.095c0,1.679-0.779,3.311-2.627,3.311c-1.09,0-1.787-0.553-2.086-1.008h-0.023v0.863h-1.08V34.162z
		 M61.766,37.808c-1.223,0-1.811,1.164-1.811,2.303c0,1.02,0.527,2.279,1.799,2.279c1.213,0,1.715-1.355,1.691-2.314
		C63.469,38.972,62.99,37.808,61.766,37.808z"/>
	<path style="fill:#114B89;" d="M66.447,37.472c0.564-0.335,1.236-0.575,2.016-0.575c1.752,0,2.459,0.864,2.459,2.53v2.531
		c0,0.695,0.023,1.02,0.047,1.199h-1.055v-0.791h-0.023c-0.264,0.371-0.863,0.936-1.895,0.936c-1.32,0-2.244-0.576-2.244-1.908
		c0-1.535,1.68-2.014,2.844-2.014c0.443,0,0.754,0,1.199,0.023c0-1.056-0.385-1.596-1.512-1.596c-0.637,0-1.32,0.24-1.775,0.624
		L66.447,37.472z M69.795,40.243c-0.24,0-0.48-0.024-0.721-0.024c-0.611,0-2.123,0.097-2.123,1.175c0,0.648,0.625,0.996,1.141,0.996
		c1.115,0,1.703-0.695,1.703-1.607V40.243z"/>
	<path style="fill:#114B89;" d="M76.082,37.952h-1.619v3.346c0,0.708,0.432,1.092,0.947,1.092c0.348,0,0.6-0.107,0.768-0.216v0.96
		c-0.252,0.071-0.6,0.168-0.959,0.168c-1.164,0-1.883-0.553-1.883-1.775v-3.574h-1.379V37.04h1.379v-1.414l1.127-0.36v1.774h1.619
		V37.952z"/>
	<path style="fill:#114B89;" d="M78.844,35.673h-1.271v-1.271h1.271V35.673z M77.645,37.04h1.127v6.117h-1.127V37.04z"/>
	<path style="fill:#114B89;" d="M83.547,36.896c1.859,0,3.105,1.343,3.105,3.202c0,1.752-1.271,3.203-3.105,3.203
		c-1.848,0-3.119-1.451-3.119-3.203C80.428,38.239,81.676,36.896,83.547,36.896z M83.547,42.39c1.318,0,1.906-1.199,1.906-2.291
		c0-1.163-0.707-2.291-1.906-2.291c-1.211,0-1.92,1.128-1.92,2.291C81.627,41.19,82.215,42.39,83.547,42.39z"/>
	<path style="fill:#114B89;" d="M88.168,37.04h1.092v0.973h0.023c0.336-0.696,1.152-1.116,2.004-1.116
		c1.582,0,2.289,0.983,2.289,2.627v3.634h-1.127v-3.166c0-1.428-0.311-2.123-1.295-2.184c-1.283,0-1.859,1.031-1.859,2.52v2.83
		h-1.127V37.04z"/>
	<path style="fill:#114B89;" d="M95.045,41.958c0.443,0.287,1.078,0.432,1.402,0.432c0.516,0,1.152-0.216,1.152-0.875
		c0-1.115-2.65-1.02-2.65-2.734c0-1.271,0.947-1.884,2.158-1.884c0.527,0,0.959,0.108,1.402,0.24l-0.096,0.983
		c-0.252-0.156-0.924-0.312-1.188-0.312c-0.574,0-1.078,0.24-1.078,0.744c0,1.248,2.65,0.888,2.65,2.842
		c0,1.309-1.045,1.908-2.135,1.908c-0.576,0-1.164-0.061-1.68-0.336L95.045,41.958z"/>
	<path style="fill:#114B89;" d="M104.848,35.673h-1.271v-1.271h1.271V35.673z M103.648,37.04h1.127v6.117h-1.127V37.04z"/>
	<path style="fill:#114B89;" d="M106.84,37.04h1.092v0.973h0.023c0.336-0.696,1.152-1.116,2.004-1.116
		c1.582,0,2.289,0.983,2.289,2.627v3.634h-1.127v-3.166c0-1.428-0.311-2.123-1.295-2.184c-1.283,0-1.859,1.031-1.859,2.52v2.83
		h-1.127V37.04z"/>
	<path style="fill:#114B89;" d="M117.795,37.472c0.564-0.335,1.236-0.575,2.016-0.575c1.752,0,2.459,0.864,2.459,2.53v2.531
		c0,0.695,0.023,1.02,0.047,1.199h-1.055v-0.791h-0.023c-0.264,0.371-0.863,0.936-1.895,0.936c-1.32,0-2.244-0.576-2.244-1.908
		c0-1.535,1.68-2.014,2.844-2.014c0.443,0,0.754,0,1.199,0.023c0-1.056-0.385-1.596-1.512-1.596c-0.637,0-1.32,0.24-1.775,0.624
		L117.795,37.472z M121.143,40.243c-0.24,0-0.48-0.024-0.721-0.024c-0.611,0-2.123,0.097-2.123,1.175
		c0,0.648,0.625,0.996,1.141,0.996c1.115,0,1.703-0.695,1.703-1.607V40.243z"/>
	<path style="fill:#114B89;" d="M128.51,42.294h-0.025c-0.299,0.455-0.994,1.008-2.086,1.008c-1.848,0-2.627-1.644-2.627-3.311
		c0-1.644,0.863-3.095,2.639-3.095c1.068,0,1.68,0.42,2.027,0.983h0.023v-3.718h1.127v8.995h-1.078V42.294z M126.662,42.39
		c1.271,0,1.799-1.26,1.799-2.279c0-1.139-0.588-2.303-1.811-2.303s-1.703,1.152-1.68,2.268
		C124.947,41.034,125.451,42.39,126.662,42.39z"/>
	<path style="fill:#114B89;" d="M136.92,43.157h-1.09v-0.972h-0.025c-0.336,0.696-1.15,1.116-2.002,1.116
		c-1.584,0-2.291-0.984-2.291-2.627V37.04h1.127v3.167c0,1.427,0.312,2.122,1.295,2.183c1.283,0,1.859-1.031,1.859-2.519V37.04
		h1.127V43.157z"/>
	<path style="fill:#114B89;" d="M138.988,34.162h1.127v8.995h-1.127V34.162z"/>
	<path style="fill:#114B89;" d="M145.43,37.952h-1.619v3.346c0,0.708,0.432,1.092,0.947,1.092c0.348,0,0.6-0.107,0.768-0.216v0.96
		c-0.252,0.071-0.6,0.168-0.959,0.168c-1.164,0-1.883-0.553-1.883-1.775v-3.574h-1.379V37.04h1.379v-1.414l1.127-0.36v1.774h1.619
		V37.952z"/>
	<path style="fill:#114B89;" d="M150.184,37.04h1.08v0.864h0.023c0.299-0.456,0.996-1.008,2.074-1.008
		c1.775,0,2.639,1.451,2.639,3.095c0,1.679-0.779,3.311-2.627,3.311c-1.078,0-1.689-0.42-2.037-0.984h-0.025v3.358h-1.127V37.04z
		 M153.121,37.808c-1.223,0-1.811,1.164-1.811,2.303c0,1.02,0.527,2.279,1.799,2.279c1.213,0,1.715-1.355,1.691-2.314
		C154.824,38.972,154.346,37.808,153.121,37.808z"/>
	<path style="fill:#114B89;" d="M157.803,37.472c0.564-0.335,1.236-0.575,2.016-0.575c1.752,0,2.459,0.864,2.459,2.53v2.531
		c0,0.695,0.023,1.02,0.047,1.199h-1.055v-0.791h-0.023c-0.264,0.371-0.863,0.936-1.895,0.936c-1.32,0-2.244-0.576-2.244-1.908
		c0-1.535,1.68-2.014,2.844-2.014c0.443,0,0.754,0,1.199,0.023c0-1.056-0.385-1.596-1.512-1.596c-0.637,0-1.32,0.24-1.775,0.624
		L157.803,37.472z M161.15,40.243c-0.24,0-0.48-0.024-0.721-0.024c-0.611,0-2.123,0.097-2.123,1.175
		c0,0.648,0.625,0.996,1.141,0.996c1.115,0,1.703-0.695,1.703-1.607V40.243z"/>
	<path style="fill:#114B89;" d="M167.438,37.952h-1.619v3.346c0,0.708,0.432,1.092,0.947,1.092c0.348,0,0.6-0.107,0.768-0.216v0.96
		c-0.252,0.071-0.6,0.168-0.959,0.168c-1.164,0-1.883-0.553-1.883-1.775v-3.574h-1.379V37.04h1.379v-1.414l1.127-0.36v1.774h1.619
		V37.952z"/>
	<path style="fill:#114B89;" d="M170.199,35.673h-1.271v-1.271h1.271V35.673z M169,37.04h1.127v6.117H169V37.04z"/>
	<path style="fill:#114B89;" d="M176.881,42.905c-0.432,0.156-0.924,0.396-1.932,0.396c-2.17,0-3.166-1.32-3.166-3.311
		c0-1.811,1.141-3.095,2.867-3.095c2.039,0,2.697,1.487,2.697,3.454h-4.365c0,1.211,0.947,2.039,2.016,2.039
		c0.744,0,1.607-0.384,1.883-0.611V42.905z M176.148,39.511c0-0.936-0.551-1.703-1.521-1.703c-1.104,0-1.561,0.912-1.645,1.703
		H176.148z"/>
	<path style="fill:#114B89;" d="M178.863,37.04h1.092v0.973h0.023c0.336-0.696,1.152-1.116,2.004-1.116
		c1.582,0,2.289,0.983,2.289,2.627v3.634h-1.127v-3.166c0-1.428-0.311-2.123-1.295-2.184c-1.283,0-1.859,1.031-1.859,2.52v2.83
		h-1.127V37.04z"/>
	<path style="fill:#114B89;" d="M189.445,37.952h-1.619v3.346c0,0.708,0.432,1.092,0.947,1.092c0.348,0,0.6-0.107,0.768-0.216v0.96
		c-0.252,0.071-0.6,0.168-0.959,0.168c-1.164,0-1.883-0.553-1.883-1.775v-3.574h-1.379V37.04h1.379v-1.414l1.127-0.36v1.774h1.619
		V37.952z"/>
	<path style="fill:#114B89;" d="M190.408,41.958c0.443,0.287,1.078,0.432,1.402,0.432c0.516,0,1.152-0.216,1.152-0.875
		c0-1.115-2.65-1.02-2.65-2.734c0-1.271,0.947-1.884,2.158-1.884c0.527,0,0.959,0.108,1.402,0.24l-0.096,0.983
		c-0.252-0.156-0.924-0.312-1.188-0.312c-0.574,0-1.078,0.24-1.078,0.744c0,1.248,2.65,0.888,2.65,2.842
		c0,1.309-1.045,1.908-2.135,1.908c-0.576,0-1.164-0.061-1.68-0.336L190.408,41.958z"/>
	<path style="fill:#114B89;" d="M7.736,57.157H6.428l-1.582-5.133H4.821l-1.548,5.133H1.967L0,51.04h1.235l1.403,5.062h0.023
		l1.56-5.062h1.331l1.535,5.062h0.023L8.6,51.04h1.104L7.736,57.157z"/>
	<path style="fill:#114B89;" d="M12.154,49.673h-1.271v-1.271h1.271V49.673z M10.955,51.04h1.128v6.117h-1.128V51.04z"/>
	<path style="fill:#114B89;" d="M17.397,51.952h-1.618v3.346c0,0.708,0.432,1.092,0.947,1.092c0.348,0,0.6-0.107,0.768-0.216v0.96
		c-0.252,0.071-0.6,0.168-0.96,0.168c-1.163,0-1.883-0.553-1.883-1.775v-3.574h-1.38V51.04h1.38v-1.414l1.128-0.36v1.774h1.618
		V51.952z"/>
	<path style="fill:#114B89;" d="M18.815,48.162h1.128v3.754h0.023c0.408-0.647,1.115-1.02,1.967-1.02
		c1.584,0,2.291,0.983,2.291,2.627v3.634h-1.127v-3.166c0-1.428-0.312-2.123-1.296-2.184c-1.283,0-1.858,1.031-1.858,2.52v2.83
		h-1.128V48.162z"/>
	<path style="fill:#114B89;" d="M29.771,51.472c0.563-0.335,1.234-0.575,2.015-0.575c1.751,0,2.458,0.864,2.458,2.53v2.531
		c0,0.695,0.024,1.02,0.049,1.199h-1.056v-0.791h-0.024c-0.264,0.371-0.863,0.936-1.895,0.936c-1.319,0-2.242-0.576-2.242-1.908
		c0-1.535,1.679-2.014,2.842-2.014c0.443,0,0.756,0,1.199,0.023c0-1.056-0.384-1.596-1.511-1.596c-0.636,0-1.319,0.24-1.775,0.624
		L29.771,51.472z M33.117,54.243c-0.24,0-0.479-0.024-0.719-0.024c-0.612,0-2.123,0.097-2.123,1.175
		c0,0.648,0.623,0.996,1.139,0.996c1.115,0,1.703-0.695,1.703-1.607V54.243z"/>
	<path style="fill:#114B89;" d="M39.491,48.162h1.128v3.754h0.023c0.408-0.647,1.115-1.02,1.967-1.02
		c1.584,0,2.291,0.983,2.291,2.627v3.634h-1.127v-3.166c0-1.428-0.312-2.123-1.296-2.184c-1.283,0-1.858,1.031-1.858,2.52v2.83
		h-1.128V48.162z"/>
	<path style="fill:#114B89;" d="M48.166,49.673h-1.271v-1.271h1.271V49.673z M46.967,51.04h1.128v6.117h-1.128V51.04z"/>
	<path style="fill:#114B89;" d="M49.703,55.958c0.443,0.287,1.08,0.432,1.403,0.432c0.517,0,1.151-0.216,1.151-0.875
		c0-1.115-2.65-1.02-2.65-2.734c0-1.271,0.947-1.884,2.158-1.884c0.528,0,0.96,0.108,1.404,0.24l-0.096,0.983
		c-0.252-0.156-0.924-0.312-1.188-0.312c-0.576,0-1.08,0.24-1.08,0.744c0,1.248,2.65,0.888,2.65,2.842
		c0,1.309-1.043,1.908-2.135,1.908c-0.575,0-1.163-0.061-1.679-0.336L49.703,55.958z"/>
	<path style="fill:#114B89;" d="M58.078,51.952h-1.619v3.346c0,0.708,0.432,1.092,0.947,1.092c0.348,0,0.6-0.107,0.768-0.216v0.96
		c-0.252,0.071-0.6,0.168-0.96,0.168c-1.163,0-1.883-0.553-1.883-1.775v-3.574h-1.38V51.04h1.38v-1.414l1.128-0.36v1.774h1.619
		V51.952z"/>
	<path style="fill:#114B89;" d="M62.205,50.896c1.859,0,3.107,1.343,3.107,3.202c0,1.752-1.271,3.203-3.107,3.203
		c-1.846,0-3.117-1.451-3.117-3.203C59.088,52.239,60.334,50.896,62.205,50.896z M62.205,56.39c1.32,0,1.908-1.199,1.908-2.291
		c0-1.163-0.709-2.291-1.908-2.291c-1.211,0-1.918,1.128-1.918,2.291C60.287,55.19,60.875,56.39,62.205,56.39z"/>
	<path style="fill:#114B89;" d="M66.828,51.04h1.055v0.948h0.023c0.301-0.636,0.947-1.092,1.596-1.092
		c0.336,0,0.504,0.036,0.744,0.084v1.008c-0.205-0.084-0.432-0.108-0.625-0.108c-1.008,0-1.666,0.959-1.666,2.494v2.783h-1.127
		V51.04z"/>
	<path style="fill:#114B89;" d="M71.039,58.812c0.145,0.048,0.336,0.096,0.527,0.096c1.008,0,1.344-1.392,1.344-1.511
		c0-0.133-0.145-0.444-0.215-0.648l-2.076-5.709h1.236l1.643,5.062h0.023l1.68-5.062h1.139l-2.254,6.249
		c-0.42,1.175-0.863,2.53-2.352,2.53c-0.359,0-0.562-0.047-0.768-0.084L71.039,58.812z"/>
	<path style="fill:#114B89;" d="M83.541,50.896c1.859,0,3.107,1.343,3.107,3.202c0,1.752-1.271,3.203-3.107,3.203
		c-1.846,0-3.117-1.451-3.117-3.203C80.424,52.239,81.67,50.896,83.541,50.896z M83.541,56.39c1.32,0,1.908-1.199,1.908-2.291
		c0-1.163-0.709-2.291-1.908-2.291c-1.211,0-1.918,1.128-1.918,2.291C81.623,55.19,82.211,56.39,83.541,56.39z"/>
	<path style="fill:#114B89;" d="M88.895,51.952h-1.439V51.04h1.439v-0.562c0-1.488,0.385-2.459,2.051-2.459
		c0.289,0,0.527,0.035,0.756,0.072l-0.049,0.91c-0.131-0.047-0.348-0.071-0.539-0.071c-0.971,0-1.092,0.624-1.092,1.451v0.659h1.619
		v0.912h-1.619v5.205h-1.127V51.952z"/>
	<path style="fill:#114B89;" d="M96.455,51.472c0.562-0.335,1.234-0.575,2.016-0.575c1.75,0,2.457,0.864,2.457,2.53v2.531
		c0,0.695,0.025,1.02,0.049,1.199h-1.055v-0.791h-0.025c-0.264,0.371-0.863,0.936-1.895,0.936c-1.318,0-2.242-0.576-2.242-1.908
		c0-1.535,1.678-2.014,2.842-2.014c0.443,0,0.756,0,1.199,0.023c0-1.056-0.383-1.596-1.512-1.596c-0.635,0-1.318,0.24-1.773,0.624
		L96.455,51.472z M99.801,54.243c-0.24,0-0.48-0.024-0.719-0.024c-0.611,0-2.123,0.097-2.123,1.175c0,0.648,0.623,0.996,1.139,0.996
		c1.115,0,1.703-0.695,1.703-1.607V54.243z"/>
	<path style="fill:#114B89;" d="M102.383,55.958c0.443,0.287,1.08,0.432,1.404,0.432c0.516,0,1.15-0.216,1.15-0.875
		c0-1.115-2.65-1.02-2.65-2.734c0-1.271,0.947-1.884,2.158-1.884c0.529,0,0.961,0.108,1.404,0.24l-0.096,0.983
		c-0.252-0.156-0.924-0.312-1.188-0.312c-0.576,0-1.08,0.24-1.08,0.744c0,1.248,2.65,0.888,2.65,2.842
		c0,1.309-1.043,1.908-2.135,1.908c-0.576,0-1.162-0.061-1.68-0.336L102.383,55.958z"/>
	<path style="fill:#114B89;" d="M110.758,51.952h-1.619v3.346c0,0.708,0.432,1.092,0.947,1.092c0.348,0,0.6-0.107,0.768-0.216v0.96
		c-0.252,0.071-0.6,0.168-0.961,0.168c-1.162,0-1.883-0.553-1.883-1.775v-3.574h-1.379V51.04h1.379v-1.414l1.129-0.36v1.774h1.619
		V51.952z"/>
	<path style="fill:#114B89;" d="M112.176,48.162h1.127v3.754h0.023c0.408-0.647,1.115-1.02,1.967-1.02
		c1.584,0,2.291,0.983,2.291,2.627v3.634h-1.127v-3.166c0-1.428-0.312-2.123-1.295-2.184c-1.285,0-1.859,1.031-1.859,2.52v2.83
		h-1.127V48.162z"/>
	<path style="fill:#114B89;" d="M119.494,51.04h1.057v0.889h0.023c0.432-0.708,1.043-1.032,1.943-1.032
		c0.707,0,1.414,0.36,1.738,1.188c0.42-0.876,1.344-1.188,1.895-1.188c1.561,0,2.123,1.008,2.123,2.339v3.922h-1.127v-3.646
		c0-0.755-0.18-1.703-1.092-1.703c-1.15,0-1.607,1.128-1.607,2.268v3.082h-1.127v-3.646c0-0.755-0.18-1.703-1.092-1.703
		c-1.15,0-1.605,1.128-1.605,2.268v3.082h-1.129V51.04z"/>
	<path style="fill:#114B89;" d="M130.463,51.472c0.562-0.335,1.234-0.575,2.016-0.575c1.75,0,2.457,0.864,2.457,2.53v2.531
		c0,0.695,0.025,1.02,0.049,1.199h-1.055v-0.791h-0.025c-0.264,0.371-0.863,0.936-1.895,0.936c-1.318,0-2.242-0.576-2.242-1.908
		c0-1.535,1.678-2.014,2.842-2.014c0.443,0,0.756,0,1.199,0.023c0-1.056-0.383-1.596-1.512-1.596c-0.635,0-1.318,0.24-1.773,0.624
		L130.463,51.472z M133.809,54.243c-0.24,0-0.48-0.024-0.719-0.024c-0.611,0-2.123,0.097-2.123,1.175
		c0,0.648,0.623,0.996,1.139,0.996c1.115,0,1.703-0.695,1.703-1.607V54.243z"/>
	<path style="fill:#114B89;" d="M144.871,56.905c-0.432,0.156-0.922,0.396-1.93,0.396c-2.172,0-3.166-1.32-3.166-3.311
		c0-1.811,1.139-3.095,2.865-3.095c2.039,0,2.699,1.487,2.699,3.454h-4.365c0,1.211,0.947,2.039,2.014,2.039
		c0.744,0,1.607-0.384,1.883-0.611V56.905z M144.141,53.511c0-0.936-0.553-1.703-1.523-1.703c-1.104,0-1.559,0.912-1.643,1.703
		H144.141z"/>
	<path style="fill:#114B89;" d="M148.223,53.955l-1.992-2.915h1.404l1.33,2.184l1.355-2.184h1.26l-1.967,2.915l2.158,3.202h-1.391
		l-1.512-2.398l-1.512,2.398h-1.342L148.223,53.955z"/>
	<path style="fill:#114B89;" d="M153.143,51.472c0.562-0.335,1.234-0.575,2.016-0.575c1.75,0,2.457,0.864,2.457,2.53v2.531
		c0,0.695,0.025,1.02,0.049,1.199h-1.055v-0.791h-0.025c-0.264,0.371-0.863,0.936-1.895,0.936c-1.318,0-2.242-0.576-2.242-1.908
		c0-1.535,1.678-2.014,2.842-2.014c0.443,0,0.756,0,1.199,0.023c0-1.056-0.383-1.596-1.512-1.596c-0.635,0-1.318,0.24-1.773,0.624
		L153.143,51.472z M156.488,54.243c-0.24,0-0.48-0.024-0.719-0.024c-0.611,0-2.123,0.097-2.123,1.175
		c0,0.648,0.623,0.996,1.139,0.996c1.115,0,1.703-0.695,1.703-1.607V54.243z"/>
	<path style="fill:#114B89;" d="M163.412,52.071c-0.432-0.18-0.863-0.264-1.223-0.264c-1.26,0-1.967,1.128-1.967,2.291
		c0,1.092,0.588,2.291,2.039,2.291c0.383,0,0.863-0.12,1.211-0.348l0.084,1.008c-0.469,0.215-1.008,0.252-1.416,0.252
		c-1.846,0-3.117-1.451-3.117-3.203c0-1.859,1.246-3.202,3.117-3.202c0.457,0,1.043,0.108,1.367,0.24L163.412,52.071z"/>
	<path style="fill:#114B89;" d="M169.543,56.905c-0.432,0.156-0.922,0.396-1.93,0.396c-2.172,0-3.166-1.32-3.166-3.311
		c0-1.811,1.139-3.095,2.865-3.095c2.039,0,2.699,1.487,2.699,3.454h-4.365c0,1.211,0.947,2.039,2.014,2.039
		c0.744,0,1.607-0.384,1.883-0.611V56.905z M168.812,53.511c0-0.936-0.553-1.703-1.523-1.703c-1.104,0-1.559,0.912-1.643,1.703
		H168.812z"/>
	<path style="fill:#114B89;" d="M171.527,51.04h1.055v0.948h0.023c0.301-0.636,0.947-1.092,1.596-1.092
		c0.336,0,0.504,0.036,0.744,0.084v1.008c-0.205-0.084-0.432-0.108-0.625-0.108c-1.008,0-1.666,0.959-1.666,2.494v2.783h-1.127
		V51.04z"/>
	<path style="fill:#114B89;" d="M176.195,48.162h1.127v3.718h0.023c0.348-0.563,0.959-0.983,2.027-0.983
		c1.775,0,2.639,1.451,2.639,3.095c0,1.679-0.779,3.311-2.627,3.311c-1.092,0-1.787-0.553-2.088-1.008h-0.023v0.863h-1.078V48.162z
		 M179.133,51.808c-1.223,0-1.811,1.164-1.811,2.303c0,1.02,0.527,2.279,1.799,2.279c1.211,0,1.715-1.355,1.691-2.314
		C180.836,52.972,180.355,51.808,179.133,51.808z"/>
	<path style="fill:#114B89;" d="M183.814,51.472c0.562-0.335,1.234-0.575,2.016-0.575c1.75,0,2.457,0.864,2.457,2.53v2.531
		c0,0.695,0.025,1.02,0.049,1.199h-1.055v-0.791h-0.025c-0.264,0.371-0.863,0.936-1.895,0.936c-1.318,0-2.242-0.576-2.242-1.908
		c0-1.535,1.678-2.014,2.842-2.014c0.443,0,0.756,0,1.199,0.023c0-1.056-0.383-1.596-1.512-1.596c-0.635,0-1.318,0.24-1.773,0.624
		L183.814,51.472z M187.16,54.243c-0.24,0-0.48-0.024-0.719-0.024c-0.611,0-2.123,0.097-2.123,1.175
		c0,0.648,0.623,0.996,1.139,0.996c1.115,0,1.703-0.695,1.703-1.607V54.243z"/>
	<path style="fill:#114B89;" d="M193.449,51.952h-1.619v3.346c0,0.708,0.432,1.092,0.947,1.092c0.348,0,0.6-0.107,0.768-0.216v0.96
		c-0.252,0.071-0.6,0.168-0.961,0.168c-1.162,0-1.883-0.553-1.883-1.775v-3.574h-1.379V51.04h1.379v-1.414l1.129-0.36v1.774h1.619
		V51.952z"/>
	<path style="fill:#114B89;" d="M196.209,49.673h-1.271v-1.271h1.271V49.673z M195.01,51.04h1.127v6.117h-1.127V51.04z"/>
	<path style="fill:#114B89;" d="M200.912,50.896c1.859,0,3.107,1.343,3.107,3.202c0,1.752-1.271,3.203-3.107,3.203
		c-1.846,0-3.117-1.451-3.117-3.203C197.795,52.239,199.041,50.896,200.912,50.896z M200.912,56.39c1.32,0,1.908-1.199,1.908-2.291
		c0-1.163-0.709-2.291-1.908-2.291c-1.211,0-1.918,1.128-1.918,2.291C198.994,55.19,199.582,56.39,200.912,56.39z"/>
	<path style="fill:#114B89;" d="M205.535,51.04h1.09v0.973h0.025c0.336-0.696,1.15-1.116,2.002-1.116
		c1.584,0,2.291,0.983,2.291,2.627v3.634h-1.127v-3.166c0-1.428-0.312-2.123-1.295-2.184c-1.285,0-1.859,1.031-1.859,2.52v2.83
		h-1.127V51.04z"/>
	<path style="fill:#114B89;" d="M212.41,55.958c0.443,0.287,1.08,0.432,1.404,0.432c0.516,0,1.15-0.216,1.15-0.875
		c0-1.115-2.65-1.02-2.65-2.734c0-1.271,0.947-1.884,2.158-1.884c0.529,0,0.961,0.108,1.404,0.24l-0.096,0.983
		c-0.252-0.156-0.924-0.312-1.188-0.312c-0.576,0-1.08,0.24-1.08,0.744c0,1.248,2.65,0.888,2.65,2.842
		c0,1.309-1.043,1.908-2.135,1.908c-0.576,0-1.162-0.061-1.68-0.336L212.41,55.958z"/>
</g>
</svg>
