<?xml version="1.0" encoding="utf-8"?>
<!-- Generator: Adobe Illustrator 19.1.0, SVG Export Plug-In . SVG Version: 6.00 Build 0)  -->
<!DOCTYPE svg PUBLIC "-//W3C//DTD SVG 1.1//EN" "http://www.w3.org/Graphics/SVG/1.1/DTD/svg11.dtd">
<svg version="1.1" xmlns="http://www.w3.org/2000/svg" xmlns:xlink="http://www.w3.org/1999/xlink" x="0px" y="0px" width="150.6px"
	 height="164px" viewBox="0 0 150.6 164" style="enable-background:new 0 0 150.6 164;" xml:space="preserve">
<style type="text/css">
	.st0{fill:#004B8C;}
	.st1{display:none;fill:none;}
	.st2{opacity:0.6;fill:url(#SVGID_1_);}
	.st3{opacity:0.6;fill:url(#SVGID_2_);}
	.st4{fill:none;}
	.st5{fill:#FFFFFF;}
	.st6{fill:url(#SVGID_3_);}
	.st7{clip-path:url(#SVGID_5_);fill:#FFFFFF;}
	.st8{fill:#002D73;}
	.st9{clip-path:url(#SVGID_6_);fill:#FFFFFF;}
	.st10{clip-path:url(#SVGID_8_);fill:url(#SVGID_9_);}
	.st11{fill:#114B89;}
	.st12{clip-path:url(#SVGID_10_);fill:#FFFFFF;}
	.st13{opacity:0.5;}
	.st14{fill:url(#SVGID_11_);}
	.st15{fill-rule:evenodd;clip-rule:evenodd;fill:url(#SVGID_12_);}
	.st16{fill:url(#SVGID_13_);}
	.st17{fill-rule:evenodd;clip-rule:evenodd;fill:url(#SVGID_14_);}
	.st18{opacity:0.32;}
	.st19{clip-path:url(#SVGID_16_);fill:url(#SVGID_17_);}
	.st20{fill:url(#SVGID_18_);}
	.st21{fill-rule:evenodd;clip-rule:evenodd;fill:url(#SVGID_19_);}
	.st22{clip-path:url(#SVGID_21_);fill:url(#SVGID_22_);}
	.st23{clip-path:url(#SVGID_24_);fill:url(#SVGID_25_);}
	.st24{opacity:0.5;fill:url(#SVGID_26_);}
	.st25{fill:#231F20;}
	.st26{clip-path:url(#SVGID_28_);fill:#231F20;}
	.st27{clip-path:url(#SVGID_28_);fill:#6FA5D9;}
	.st28{clip-path:url(#SVGID_28_);fill:#007AC1;}
	.st29{fill:none;stroke:#58595B;stroke-width:0.1413;}
	.st30{clip-path:url(#SVGID_30_);fill:#F27021;}
	.st31{clip-path:url(#SVGID_32_);}
	.st32{clip-path:url(#SVGID_36_);}
	.st33{clip-path:url(#SVGID_40_);}
	.st34{clip-path:url(#SVGID_44_);}
	.st35{clip-path:url(#SVGID_48_);}
	.st36{clip-path:url(#SVGID_52_);}
	.st37{clip-path:url(#SVGID_56_);}
	.st38{clip-path:url(#SVGID_58_);}
	.st39{clip-path:url(#SVGID_62_);}
	.st40{clip-path:url(#SVGID_64_);}
	.st41{clip-path:url(#SVGID_68_);}
	.st42{clip-path:url(#SVGID_70_);}
	.st43{clip-path:url(#SVGID_74_);}
	.st44{clip-path:url(#SVGID_76_);}
	.st45{clip-path:url(#SVGID_80_);}
	.st46{clip-path:url(#SVGID_84_);}
	.st47{clip-path:url(#SVGID_88_);}
	.st48{clip-path:url(#SVGID_92_);}
	.st49{clip-path:url(#SVGID_96_);}
	.st50{clip-path:url(#SVGID_100_);}
	.st51{clip-path:url(#SVGID_104_);}
	.st52{clip-path:url(#SVGID_108_);}
	.st53{clip-path:url(#SVGID_112_);}
	.st54{clip-path:url(#SVGID_116_);}
	.st55{clip-path:url(#SVGID_120_);}
	.st56{clip-path:url(#SVGID_124_);}
	.st57{clip-path:url(#SVGID_128_);}
	.st58{clip-path:url(#SVGID_132_);}
	.st59{clip-path:url(#SVGID_136_);}
	.st60{clip-path:url(#SVGID_140_);}
	.st61{clip-path:url(#SVGID_144_);}
	.st62{clip-path:url(#SVGID_148_);}
	.st63{clip-path:url(#SVGID_152_);}
	.st64{clip-path:url(#SVGID_156_);}
	.st65{clip-path:url(#SVGID_160_);}
	.st66{clip-path:url(#SVGID_164_);}
	.st67{clip-path:url(#SVGID_168_);}
	.st68{clip-path:url(#SVGID_172_);}
	.st69{clip-path:url(#SVGID_176_);}
	.st70{clip-path:url(#SVGID_180_);}
	.st71{clip-path:url(#SVGID_182_);}
	.st72{clip-path:url(#SVGID_186_);}
	.st73{clip-path:url(#SVGID_190_);}
	.st74{clip-path:url(#SVGID_194_);}
	.st75{clip-path:url(#SVGID_198_);}
	.st76{clip-path:url(#SVGID_202_);}
	.st77{clip-path:url(#SVGID_206_);}
	.st78{clip-path:url(#SVGID_210_);}
	.st79{clip-path:url(#SVGID_214_);}
	.st80{clip-path:url(#SVGID_218_);}
	.st81{clip-path:url(#SVGID_222_);}
	.st82{clip-path:url(#SVGID_224_);}
	.st83{clip-path:url(#SVGID_228_);}
	.st84{clip-path:url(#SVGID_232_);}
	.st85{clip-path:url(#SVGID_236_);}
	.st86{clip-path:url(#SVGID_240_);}
	.st87{clip-path:url(#SVGID_244_);}
	.st88{clip-path:url(#SVGID_248_);}
	.st89{clip-path:url(#SVGID_252_);}
	.st90{clip-path:url(#SVGID_256_);}
	.st91{clip-path:url(#SVGID_260_);}
	.st92{clip-path:url(#SVGID_264_);}
	.st93{clip-path:url(#SVGID_268_);}
	.st94{clip-path:url(#SVGID_272_);}
	.st95{clip-path:url(#SVGID_276_);}
	.st96{clip-path:url(#SVGID_280_);}
	.st97{clip-path:url(#SVGID_284_);}
	.st98{clip-path:url(#SVGID_288_);}
	.st99{clip-path:url(#SVGID_292_);}
	.st100{clip-path:url(#SVGID_296_);}
	.st101{clip-path:url(#SVGID_300_);}
	.st102{clip-path:url(#SVGID_304_);}
	.st103{clip-path:url(#SVGID_308_);}
	.st104{clip-path:url(#SVGID_312_);}
	.st105{clip-path:url(#SVGID_316_);}
	.st106{clip-path:url(#SVGID_320_);}
	.st107{clip-path:url(#SVGID_324_);}
	.st108{clip-path:url(#SVGID_328_);}
	.st109{clip-path:url(#SVGID_332_);}
	.st110{clip-path:url(#SVGID_336_);}
	.st111{clip-path:url(#SVGID_340_);}
	.st112{clip-path:url(#SVGID_344_);}
	.st113{clip-path:url(#SVGID_348_);}
	.st114{clip-path:url(#SVGID_352_);}
	.st115{clip-path:url(#SVGID_356_);}
	.st116{clip-path:url(#SVGID_360_);}
	.st117{clip-path:url(#SVGID_364_);}
	.st118{clip-path:url(#SVGID_368_);}
	.st119{clip-path:url(#SVGID_372_);}
	.st120{clip-path:url(#SVGID_376_);}
	.st121{clip-path:url(#SVGID_380_);}
	.st122{clip-path:url(#SVGID_384_);}
	.st123{clip-path:url(#SVGID_388_);}
	.st124{clip-path:url(#SVGID_392_);}
	.st125{clip-path:url(#SVGID_396_);}
	.st126{clip-path:url(#SVGID_400_);}
	.st127{clip-path:url(#SVGID_404_);}
	.st128{clip-path:url(#SVGID_408_);}
	.st129{clip-path:url(#SVGID_412_);}
	.st130{clip-path:url(#SVGID_416_);}
	.st131{clip-path:url(#SVGID_420_);}
	.st132{clip-path:url(#SVGID_424_);}
	.st133{clip-path:url(#SVGID_428_);}
	.st134{clip-path:url(#SVGID_432_);}
	.st135{clip-path:url(#SVGID_436_);}
	.st136{clip-path:url(#SVGID_440_);}
	.st137{clip-path:url(#SVGID_444_);}
	.st138{clip-path:url(#SVGID_448_);}
	.st139{clip-path:url(#SVGID_452_);}
	.st140{clip-path:url(#SVGID_456_);}
	.st141{clip-path:url(#SVGID_460_);}
	.st142{clip-path:url(#SVGID_464_);}
	.st143{clip-path:url(#SVGID_468_);}
	.st144{clip-path:url(#SVGID_472_);}
	.st145{clip-path:url(#SVGID_476_);}
	.st146{clip-path:url(#SVGID_480_);}
	.st147{clip-path:url(#SVGID_482_);}
	.st148{clip-path:url(#SVGID_486_);}
	.st149{clip-path:url(#SVGID_490_);}
	.st150{clip-path:url(#SVGID_492_);}
	.st151{clip-path:url(#SVGID_496_);}
	.st152{clip-path:url(#SVGID_500_);}
	.st153{clip-path:url(#SVGID_502_);}
	.st154{clip-path:url(#SVGID_506_);}
	.st155{clip-path:url(#SVGID_508_);}
	.st156{clip-path:url(#SVGID_512_);}
	.st157{clip-path:url(#SVGID_514_);}
	.st158{clip-path:url(#SVGID_518_);}
	.st159{clip-path:url(#SVGID_520_);}
	.st160{clip-path:url(#SVGID_524_);}
	.st161{clip-path:url(#SVGID_526_);}
	.st162{clip-path:url(#SVGID_530_);}
	.st163{clip-path:url(#SVGID_534_);}
	.st164{clip-path:url(#SVGID_536_);}
	.st165{clip-path:url(#SVGID_540_);}
	.st166{clip-path:url(#SVGID_542_);}
	.st167{clip-path:url(#SVGID_546_);}
	.st168{clip-path:url(#SVGID_548_);}
	.st169{clip-path:url(#SVGID_552_);}
	.st170{clip-path:url(#SVGID_554_);}
	.st171{clip-path:url(#SVGID_558_);}
	.st172{clip-path:url(#SVGID_560_);}
	.st173{clip-path:url(#SVGID_564_);}
	.st174{clip-path:url(#SVGID_568_);}
	.st175{clip-path:url(#SVGID_572_);}
	.st176{clip-path:url(#SVGID_576_);}
	.st177{clip-path:url(#SVGID_580_);}
	.st178{clip-path:url(#SVGID_584_);}
	.st179{clip-path:url(#SVGID_588_);}
	.st180{clip-path:url(#SVGID_592_);}
	.st181{clip-path:url(#SVGID_596_);}
	.st182{clip-path:url(#SVGID_600_);}
	.st183{clip-path:url(#SVGID_604_);}
	.st184{clip-path:url(#SVGID_608_);}
	.st185{clip-path:url(#SVGID_612_);}
	.st186{clip-path:url(#SVGID_616_);}
	.st187{clip-path:url(#SVGID_620_);}
	.st188{clip-path:url(#SVGID_624_);}
	.st189{clip-path:url(#SVGID_628_);}
	.st190{clip-path:url(#SVGID_632_);}
	.st191{clip-path:url(#SVGID_636_);}
	.st192{clip-path:url(#SVGID_640_);}
	.st193{clip-path:url(#SVGID_644_);}
	.st194{clip-path:url(#SVGID_648_);}
	.st195{clip-path:url(#SVGID_652_);}
	.st196{clip-path:url(#SVGID_656_);}
	.st197{clip-path:url(#SVGID_660_);}
	.st198{clip-path:url(#SVGID_664_);}
	.st199{clip-path:url(#SVGID_668_);}
	.st200{clip-path:url(#SVGID_672_);}
	.st201{clip-path:url(#SVGID_676_);}
	.st202{clip-path:url(#SVGID_680_);}
	.st203{clip-path:url(#SVGID_684_);}
	.st204{clip-path:url(#SVGID_688_);}
	.st205{clip-path:url(#SVGID_692_);}
	.st206{clip-path:url(#SVGID_694_);}
	.st207{clip-path:url(#SVGID_698_);}
	.st208{clip-path:url(#SVGID_702_);}
	.st209{clip-path:url(#SVGID_704_);}
	.st210{clip-path:url(#SVGID_708_);}
	.st211{clip-path:url(#SVGID_712_);}
	.st212{clip-path:url(#SVGID_716_);}
	.st213{clip-path:url(#SVGID_720_);}
	.st214{clip-path:url(#SVGID_724_);}
	.st215{clip-path:url(#SVGID_728_);}
	.st216{clip-path:url(#SVGID_732_);}
	.st217{clip-path:url(#SVGID_736_);}
	.st218{clip-path:url(#SVGID_740_);}
	.st219{clip-path:url(#SVGID_744_);}
	.st220{clip-path:url(#SVGID_748_);}
	.st221{clip-path:url(#SVGID_752_);}
	.st222{clip-path:url(#SVGID_756_);}
	.st223{clip-path:url(#SVGID_760_);}
	.st224{clip-path:url(#SVGID_764_);}
	.st225{clip-path:url(#SVGID_768_);}
	.st226{clip-path:url(#SVGID_772_);}
	.st227{clip-path:url(#SVGID_776_);}
	.st228{clip-path:url(#SVGID_780_);}
	.st229{clip-path:url(#SVGID_784_);}
	.st230{clip-path:url(#SVGID_788_);}
	.st231{clip-path:url(#SVGID_792_);}
	.st232{clip-path:url(#SVGID_796_);}
	.st233{clip-path:url(#SVGID_800_);}
	.st234{clip-path:url(#SVGID_804_);}
	.st235{clip-path:url(#SVGID_808_);}
	.st236{clip-path:url(#SVGID_812_);}
	.st237{clip-path:url(#SVGID_816_);}
	.st238{clip-path:url(#SVGID_820_);}
	.st239{clip-path:url(#SVGID_824_);}
	.st240{clip-path:url(#SVGID_828_);}
	.st241{clip-path:url(#SVGID_832_);}
	.st242{clip-path:url(#SVGID_836_);}
	.st243{clip-path:url(#SVGID_840_);}
	.st244{clip-path:url(#SVGID_844_);}
	.st245{clip-path:url(#SVGID_848_);}
	.st246{clip-path:url(#SVGID_852_);}
	.st247{clip-path:url(#SVGID_856_);}
	.st248{clip-path:url(#SVGID_860_);}
	.st249{clip-path:url(#SVGID_864_);}
	.st250{clip-path:url(#SVGID_868_);}
	.st251{clip-path:url(#SVGID_872_);}
	.st252{clip-path:url(#SVGID_876_);}
	.st253{clip-path:url(#SVGID_880_);}
	.st254{clip-path:url(#SVGID_884_);}
	.st255{clip-path:url(#SVGID_888_);}
	.st256{clip-path:url(#SVGID_892_);}
	.st257{clip-path:url(#SVGID_896_);}
	.st258{clip-path:url(#SVGID_900_);}
	.st259{clip-path:url(#SVGID_904_);}
	.st260{clip-path:url(#SVGID_908_);}
	.st261{clip-path:url(#SVGID_912_);}
	.st262{clip-path:url(#SVGID_916_);}
	.st263{clip-path:url(#SVGID_920_);}
	.st264{clip-path:url(#SVGID_924_);}
	.st265{clip-path:url(#SVGID_926_);}
	.st266{clip-path:url(#SVGID_930_);}
	.st267{clip-path:url(#SVGID_934_);}
	.st268{clip-path:url(#SVGID_938_);}
	.st269{clip-path:url(#SVGID_942_);}
	.st270{clip-path:url(#SVGID_946_);}
	.st271{clip-path:url(#SVGID_950_);}
	.st272{clip-path:url(#SVGID_954_);}
	.st273{clip-path:url(#SVGID_958_);}
	.st274{clip-path:url(#SVGID_962_);}
	.st275{clip-path:url(#SVGID_966_);}
	.st276{clip-path:url(#SVGID_970_);}
	.st277{clip-path:url(#SVGID_974_);}
	.st278{clip-path:url(#SVGID_978_);}
	.st279{clip-path:url(#SVGID_980_);}
	.st280{clip-path:url(#SVGID_984_);}
	.st281{clip-path:url(#SVGID_986_);}
	.st282{clip-path:url(#SVGID_990_);}
	.st283{clip-path:url(#SVGID_994_);}
	.st284{clip-path:url(#SVGID_996_);}
	.st285{clip-path:url(#SVGID_1000_);}
	.st286{clip-path:url(#SVGID_1002_);}
	.st287{clip-path:url(#SVGID_1006_);}
	.st288{clip-path:url(#SVGID_1008_);}
	.st289{clip-path:url(#SVGID_1012_);}
	.st290{clip-path:url(#SVGID_1016_);}
	.st291{clip-path:url(#SVGID_1020_);}
	.st292{clip-path:url(#SVGID_1024_);}
	.st293{clip-path:url(#SVGID_1028_);}
	.st294{clip-path:url(#SVGID_1032_);fill:#FFFFFF;}
	.st295{fill:url(#SVGID_1033_);}
	.st296{fill:none;stroke:#002D73;stroke-width:0.859;stroke-miterlimit:10;}
	.st297{fill:#65797F;}
	.st298{fill:url(#SVGID_1034_);}
	.st299{fill-rule:evenodd;clip-rule:evenodd;fill:url(#SVGID_1035_);}
	.st300{clip-path:url(#SVGID_1036_);fill:#FFFFFF;}
	.st301{fill:url(#SVGID_1037_);}
	.st302{fill:none;stroke:#002D73;stroke-linecap:round;stroke-miterlimit:10;}
	.st303{opacity:0.6;fill:url(#SVGID_1038_);}
	.st304{fill:url(#SVGID_1039_);}
	.st305{opacity:0.3;fill:#FFFFFF;}
	.st306{clip-path:url(#SVGID_1040_);fill:#FFFFFF;}
	.st307{fill:none;stroke:#002D73;stroke-miterlimit:10;}
	.st308{opacity:0.6;fill:url(#SVGID_1041_);}
	.st309{fill:url(#SVGID_1042_);}
	.st310{clip-path:url(#SVGID_1043_);fill:#FFFFFF;}
	.st311{fill:url(#SVGID_1044_);}
</style>
<g id="Layer_1">
	<g>
		<rect y="1.6" class="st4" width="150.6" height="162.1"/>
		<path class="st5" d="M13.9,4.8h-4V2.6h10.8v2.2h-4v11.8h-2.8V4.8z"/>
		<path class="st5" d="M20.4,6.3h2.4v2.3h0c0.1-1,1.2-2.6,2.8-2.6c0.3,0,0.5,0,0.8,0.1v2.7c-0.2-0.1-0.7-0.2-1.2-0.2
			c-2.2,0-2.2,2.7-2.2,4.2v3.8h-2.7V6.3z"/>
		<path class="st5" d="M36,16c-1,0.5-2.1,0.8-3.5,0.8c-3.4,0-5.4-2-5.4-5.3c0-3,1.6-5.4,4.8-5.4c3.8,0,4.9,2.6,4.9,6.2h-7.1
			c0.1,1.7,1.3,2.6,2.9,2.6c1.3,0,2.4-0.5,3.4-1V16z M34.2,10.4C34.2,9.1,33.6,8,32.1,8c-1.5,0-2.3,1-2.4,2.4H34.2z"/>
		<path class="st5" d="M39.3,6.8c1-0.5,2.4-0.8,3.6-0.8c3.1,0,4.4,1.3,4.4,4.3v1.3c0,1,0,1.8,0,2.6c0,0.8,0.1,1.5,0.1,2.3h-2.4
			c-0.1-0.5-0.1-1.2-0.1-1.5h0c-0.6,1.1-2,1.8-3.2,1.8c-1.8,0-3.6-1.1-3.6-3.1c0-1.5,0.7-2.4,1.8-2.9c1-0.5,2.3-0.6,3.5-0.6h1.5
			c0-1.7-0.7-2.2-2.3-2.2c-1.1,0-2.3,0.4-3.2,1.1L39.3,6.8z M42.5,14.9c0.8,0,1.5-0.4,1.9-0.9c0.4-0.6,0.6-1.3,0.6-2.1h-1.2
			c-1.2,0-3,0.2-3,1.8C40.8,14.5,41.5,14.9,42.5,14.9z"/>
		<path class="st5" d="M50.9,8.3h-2v-2h2V4.2l2.7-0.9v2.9H56v2h-2.4v4.8c0,0.9,0.2,1.7,1.3,1.7c0.5,0,0.9-0.1,1.2-0.3l0.1,2.1
			c-0.6,0.2-1.2,0.2-2,0.2c-2.1,0-3.3-1.3-3.3-3.3V8.3z"/>
		<path class="st5" d="M57.8,1.9h2.7v2.6h-2.7V1.9z M57.8,6.3h2.7v10.3h-2.7V6.3z"/>
		<path class="st5" d="M63.3,6.3h2.5v1.4h0c0.8-1.2,2-1.6,3.4-1.6c2.4,0,3.5,1.7,3.5,4v6.5h-2.7v-5.5c0-1.3,0-3-1.7-3
			c-1.9,0-2.4,2.1-2.4,3.4v5h-2.7V6.3z"/>
		<path class="st5" d="M85,6.3v9.3c0,2.8-1.1,5.4-5.4,5.4c-1.1,0-2.3-0.2-3.6-0.7l0.2-2.3c0.8,0.4,2.2,0.9,3,0.9c3,0,3.1-2.2,3.1-4
			h0c-0.5,0.9-1.7,1.6-3.2,1.6c-3,0-4.2-2.4-4.2-5.2c0-2.5,1.3-5.3,4.4-5.3c1.4,0,2.4,0.5,3.2,1.6h0V6.3H85z M82.4,11.3
			c0-1.8-0.7-3.2-2.2-3.2c-1.8,0-2.4,1.7-2.4,3.3c0,1.4,0.7,3.1,2.3,3.1C81.7,14.5,82.4,13.1,82.4,11.3z"/>
		<path class="st5" d="M93.8,6.8c1-0.5,2.4-0.8,3.6-0.8c3.1,0,4.4,1.3,4.4,4.3v1.3c0,1,0,1.8,0,2.6c0,0.8,0.1,1.5,0.1,2.3h-2.4
			c-0.1-0.5-0.1-1.2-0.1-1.5h0c-0.6,1.1-2,1.8-3.2,1.8c-1.8,0-3.6-1.1-3.6-3.1c0-1.5,0.7-2.4,1.8-2.9s2.3-0.6,3.5-0.6h1.5
			c0-1.7-0.7-2.2-2.3-2.2c-1.1,0-2.3,0.4-3.2,1.1L93.8,6.8z M96.9,14.9c0.8,0,1.5-0.4,1.9-0.9c0.4-0.6,0.6-1.3,0.6-2.1h-1.2
			c-1.2,0-3,0.2-3,1.8C95.2,14.5,96,14.9,96.9,14.9z"/>
		<path class="st5" d="M111.3,15.4L111.3,15.4c-0.8,1-1.9,1.4-3.2,1.4c-3.2,0-4.3-2.6-4.3-5.4c0-2.8,1.2-5.4,4.3-5.4
			c1.3,0,2.3,0.5,3.1,1.4h0V1.6h2.7v15h-2.6V15.4z M108.9,14.8c1.8,0,2.4-1.9,2.4-3.3c0-1.4-0.7-3.3-2.4-3.3c-1.7,0-2.2,1.9-2.2,3.3
			C106.6,12.8,107.1,14.8,108.9,14.8z"/>
		<path class="st5" d="M126.2,16.6h-2.5v-1.4h0c-0.8,1-2,1.6-3.4,1.6c-2.4,0-3.5-1.7-3.5-4V6.3h2.7v5.5c0,1.3,0,3,1.7,3
			c1.9,0,2.4-2.1,2.4-3.4v-5h2.7V16.6z"/>
		<path class="st5" d="M129,1.6h2.7v15H129V1.6z"/>
		<path class="st5" d="M135.3,8.3h-2v-2h2V4.2l2.7-0.9v2.9h2.4v2H138v4.8c0,0.9,0.2,1.7,1.3,1.7c0.5,0,0.9-0.1,1.2-0.3l0.1,2.1
			c-0.6,0.2-1.2,0.2-2,0.2c-2.1,0-3.3-1.3-3.3-3.3V8.3z"/>
		<path class="st5" d="M38.3,30.3h2.6v1.5h0c0.6-1,1.6-1.7,3.2-1.7c3.2,0,4.3,2.5,4.3,5.4c0,2.8-1.2,5.4-4.4,5.4
			c-1.1,0-2.1-0.3-3-1.4h0v5.4h-2.7V30.3z M41,35.4c0,1.5,0.6,3.3,2.4,3.3c1.8,0,2.3-1.9,2.3-3.3c0-1.4-0.5-3.3-2.2-3.3
			C41.7,32.1,41,34,41,35.4z"/>
		<path class="st5" d="M51,30.8c1-0.5,2.4-0.8,3.6-0.8c3.1,0,4.4,1.3,4.4,4.3v1.3c0,1,0,1.8,0,2.6c0,0.8,0.1,1.5,0.1,2.3h-2.4
			c-0.1-0.5-0.1-1.2-0.1-1.5h0c-0.6,1.1-2,1.8-3.2,1.8c-1.8,0-3.6-1.1-3.6-3.1c0-1.5,0.7-2.4,1.8-2.9c1-0.5,2.3-0.6,3.5-0.6h1.5
			c0-1.7-0.7-2.2-2.3-2.2c-1.1,0-2.3,0.4-3.2,1.1L51,30.8z M54.1,38.9c0.8,0,1.5-0.4,1.9-0.9c0.4-0.6,0.6-1.3,0.6-2.1h-1.2
			c-1.2,0-3,0.2-3,1.8C52.4,38.5,53.2,38.9,54.1,38.9z"/>
		<path class="st5" d="M62.5,32.3h-2v-2h2v-2.1l2.7-0.9v2.9h2.4v2h-2.4v4.8c0,0.9,0.2,1.7,1.3,1.7c0.5,0,0.9-0.1,1.2-0.3l0.1,2.1
			c-0.6,0.2-1.2,0.2-2,0.2c-2.1,0-3.3-1.3-3.3-3.3V32.3z"/>
		<path class="st5" d="M69.5,25.9h2.7v2.6h-2.7V25.9z M69.5,30.3h2.7v10.3h-2.7V30.3z"/>
		<path class="st5" d="M83.3,40c-1,0.5-2.1,0.8-3.5,0.8c-3.4,0-5.4-2-5.4-5.3c0-3,1.6-5.4,4.8-5.4c3.8,0,4.9,2.6,4.9,6.2h-7.1
			c0.1,1.7,1.3,2.6,2.9,2.6c1.3,0,2.4-0.5,3.4-1V40z M81.5,34.4c-0.1-1.3-0.7-2.4-2.2-2.4s-2.3,1-2.4,2.4H81.5z"/>
		<path class="st5" d="M86.1,30.3h2.5v1.4h0c0.8-1.2,2-1.6,3.4-1.6c2.4,0,3.5,1.7,3.5,4v6.5h-2.7v-5.5c0-1.3,0-3-1.7-3
			c-1.9,0-2.4,2.1-2.4,3.4v5h-2.7V30.3z"/>
		<path class="st5" d="M99.2,32.3h-2v-2h2v-2.1l2.7-0.9v2.9h2.4v2h-2.4v4.8c0,0.9,0.2,1.7,1.3,1.7c0.5,0,0.9-0.1,1.2-0.3l0.1,2.1
			c-0.6,0.2-1.2,0.2-2,0.2c-2.1,0-3.3-1.3-3.3-3.3V32.3z"/>
		<path class="st5" d="M112.2,32.5c-0.8-0.3-1.4-0.4-2.4-0.4c-0.7,0-1.6,0.3-1.6,1.1c0,1.6,4.7,0.6,4.7,4.3c0,2.4-2.1,3.4-4.3,3.4
			c-1,0-2.1-0.2-3-0.4l0.2-2.2c0.8,0.4,1.7,0.7,2.6,0.7c0.7,0,1.8-0.3,1.8-1.3c0-2-4.7-0.6-4.7-4.4c0-2.2,1.9-3.2,4-3.2
			c1.3,0,2.1,0.2,2.9,0.4L112.2,32.5z"/>
		<path class="st5" d="M16.6,54.3h2.8l2.3,7.6h0l2.1-7.6H27l2.2,7.6h0l2.1-7.6h2.6l-3.2,10.3h-3.2l-2.2-7.9h0l-2.2,7.9h-3.1
			L16.6,54.3z"/>
		<path class="st5" d="M35.6,49.9h2.7v2.6h-2.7V49.9z M35.6,54.3h2.7v10.3h-2.7V54.3z"/>
		<path class="st5" d="M42,56.3h-2v-2h2v-2.1l2.7-0.9v2.9H47v2h-2.4v4.8c0,0.9,0.2,1.7,1.3,1.7c0.5,0,0.9-0.1,1.2-0.3l0.1,2.1
			c-0.6,0.2-1.2,0.2-2,0.2c-2.1,0-3.3-1.3-3.3-3.3V56.3z"/>
		<path class="st5" d="M48.9,49.6h2.7v6.1h0c0.7-1,1.8-1.6,3.2-1.6c2.4,0,3.5,1.7,3.5,4v6.5h-2.7v-5.5c0-1.3,0-3-1.7-3
			c-1.9,0-2.4,2.1-2.4,3.4v5h-2.7V49.6z"/>
		<path class="st5" d="M67.1,54.8c1-0.5,2.4-0.8,3.6-0.8c3.1,0,4.4,1.3,4.4,4.3v1.3c0,1,0,1.8,0,2.6c0,0.8,0.1,1.5,0.1,2.3h-2.4
			c-0.1-0.5-0.1-1.2-0.1-1.5h0c-0.6,1.1-2,1.8-3.2,1.8c-1.8,0-3.6-1.1-3.6-3.1c0-1.5,0.7-2.4,1.8-2.9c1-0.5,2.3-0.6,3.5-0.6h1.5
			c0-1.7-0.7-2.2-2.3-2.2c-1.1,0-2.3,0.4-3.2,1.1L67.1,54.8z M70.3,62.9c0.8,0,1.5-0.4,1.9-0.9c0.4-0.6,0.6-1.3,0.6-2.1h-1.2
			c-1.2,0-3,0.2-3,1.8C68.6,62.5,69.3,62.9,70.3,62.9z"/>
		<path class="st5" d="M83.9,56.5c-0.8-0.3-1.4-0.4-2.4-0.4c-0.7,0-1.6,0.3-1.6,1.1c0,1.6,4.7,0.6,4.7,4.3c0,2.4-2.1,3.4-4.3,3.4
			c-1,0-2.1-0.2-3-0.4l0.2-2.2c0.8,0.4,1.7,0.7,2.6,0.7c0.7,0,1.8-0.3,1.8-1.3c0-2-4.7-0.6-4.7-4.4c0-2.2,1.9-3.2,4-3.2
			c1.3,0,2.1,0.2,2.9,0.4L83.9,56.5z"/>
		<path class="st5" d="M87.5,56.3h-2v-2h2v-2.1l2.7-0.9v2.9h2.4v2h-2.4v4.8c0,0.9,0.2,1.7,1.3,1.7c0.5,0,0.9-0.1,1.2-0.3l0.1,2.1
			c-0.6,0.2-1.2,0.2-2,0.2c-2.1,0-3.3-1.3-3.3-3.3V56.3z"/>
		<path class="st5" d="M94.4,49.6h2.7v6.1h0c0.7-1,1.8-1.6,3.2-1.6c2.4,0,3.5,1.7,3.5,4v6.5h-2.7v-5.5c0-1.3,0-3-1.7-3
			c-1.9,0-2.4,2.1-2.4,3.4v5h-2.7V49.6z"/>
		<path class="st5" d="M106.6,54.3h2.5v1.4h0c0.8-1.3,2.1-1.7,3.1-1.7c1.4,0,2.5,0.5,3,1.8c0.6-1.2,2-1.8,3.2-1.8
			c2.5,0,3.3,1.7,3.3,4v6.5h-2.7v-6.1c0-1,0-2.3-1.5-2.3c-1.8,0-2,2.1-2,3.5v5h-2.7v-6.1c0-1,0-2.3-1.5-2.3c-1.8,0-2,2.1-2,3.5v5
			h-2.7V54.3z"/>
		<path class="st5" d="M124.9,54.8c1-0.5,2.4-0.8,3.6-0.8c3.1,0,4.4,1.3,4.4,4.3v1.3c0,1,0,1.8,0,2.6c0,0.8,0.1,1.5,0.1,2.3h-2.4
			c-0.1-0.5-0.1-1.2-0.1-1.5h0c-0.6,1.1-2,1.8-3.2,1.8c-1.8,0-3.6-1.1-3.6-3.1c0-1.5,0.7-2.4,1.8-2.9s2.3-0.6,3.5-0.6h1.5
			c0-1.7-0.7-2.2-2.3-2.2c-1.1,0-2.3,0.4-3.2,1.1L124.9,54.8z M128,62.9c0.8,0,1.5-0.4,1.9-0.9c0.4-0.6,0.6-1.3,0.6-2.1h-1.2
			c-1.2,0-3,0.2-3,1.8C126.3,62.5,127.1,62.9,128,62.9z"/>
		<path class="st5" d="M28.8,78.3h2.8l2.3,7.6h0l2.1-7.6h3.1l2.2,7.6h0l2.1-7.6h2.6L43,88.6h-3.2l-2.2-7.9h0l-2.2,7.9h-3.1
			L28.8,78.3z"/>
		<path class="st5" d="M47.8,73.6h2.7v6.1h0c0.7-1,1.8-1.6,3.2-1.6c2.4,0,3.5,1.7,3.5,4v6.5h-2.7v-5.5c0-1.3,0-3-1.7-3
			c-1.9,0-2.4,2.1-2.4,3.4v5h-2.7V73.6z"/>
		<path class="st5" d="M64.7,78.1c3.1,0,5.4,2.1,5.4,5.5c0,3-2,5.3-5.4,5.3c-3.4,0-5.4-2.4-5.4-5.3C59.3,80.1,61.7,78.1,64.7,78.1z
			 M64.7,86.8c2.1,0,2.6-1.8,2.6-3.6c0-1.6-0.8-3.1-2.6-3.1c-1.7,0-2.6,1.5-2.6,3.1C62.1,84.9,62.7,86.8,64.7,86.8z"/>
		<path class="st5" d="M77.8,73.6h2.7v6.1h0c0.7-1,1.8-1.6,3.2-1.6c2.4,0,3.5,1.7,3.5,4v6.5h-2.7v-5.5c0-1.3,0-3-1.7-3
			c-1.9,0-2.4,2.1-2.4,3.4v5h-2.7V73.6z"/>
		<path class="st5" d="M90.4,78.8c1-0.5,2.4-0.8,3.6-0.8c3.1,0,4.4,1.3,4.4,4.3v1.3c0,1,0,1.8,0,2.6c0,0.8,0.1,1.5,0.1,2.3h-2.4
			c-0.1-0.5-0.1-1.2-0.1-1.5h0c-0.6,1.1-2,1.8-3.2,1.8c-1.8,0-3.6-1.1-3.6-3.1c0-1.5,0.7-2.4,1.8-2.9s2.3-0.6,3.5-0.6H96
			c0-1.7-0.7-2.2-2.3-2.2c-1.1,0-2.3,0.4-3.2,1.1L90.4,78.8z M93.6,86.9c0.8,0,1.5-0.4,1.9-0.9c0.4-0.6,0.6-1.3,0.6-2.1h-1.2
			c-1.2,0-3,0.2-3,1.8C91.9,86.5,92.6,86.9,93.6,86.9z"/>
		<path class="st5" d="M100,78.3h2.9l2.6,7.5h0l2.5-7.5h2.7l-3.8,10.3h-3L100,78.3z"/>
		<path class="st5" d="M120.5,88c-1,0.5-2.1,0.8-3.5,0.8c-3.4,0-5.4-2-5.4-5.3c0-3,1.6-5.4,4.8-5.4c3.8,0,4.9,2.6,4.9,6.2h-7.1
			c0.1,1.7,1.3,2.6,2.9,2.6c1.3,0,2.4-0.5,3.4-1V88z M118.7,82.4c-0.1-1.3-0.7-2.4-2.2-2.4s-2.3,1-2.4,2.4H118.7z"/>
		<path class="st5" d="M36,102.8c1-0.5,2.4-0.8,3.6-0.8c3.1,0,4.4,1.3,4.4,4.3v1.3c0,1,0,1.8,0,2.6c0,0.8,0.1,1.5,0.1,2.3h-2.4
			c-0.1-0.5-0.1-1.2-0.1-1.5h0c-0.6,1.1-2,1.8-3.2,1.8c-1.8,0-3.6-1.1-3.6-3.1c0-1.5,0.7-2.4,1.8-2.9c1-0.5,2.3-0.6,3.5-0.6h1.5
			c0-1.7-0.7-2.2-2.3-2.2c-1.1,0-2.3,0.4-3.2,1.1L36,102.8z M39.1,110.9c0.8,0,1.5-0.4,1.9-0.9c0.4-0.6,0.6-1.3,0.6-2.1h-1.2
			c-1.2,0-3,0.2-3,1.8C37.4,110.5,38.2,110.9,39.1,110.9z"/>
		<path class="st5" d="M52.2,97.6h2.7v6.1h0c0.7-1,1.8-1.6,3.2-1.6c2.4,0,3.5,1.7,3.5,4v6.5H59v-5.5c0-1.3,0-3-1.7-3
			c-1.9,0-2.4,2.1-2.4,3.4v5h-2.7V97.6z"/>
		<path class="st5" d="M64.5,97.9h2.7v2.6h-2.7V97.9z M64.5,102.3h2.7v10.3h-2.7V102.3z"/>
		<path class="st5" d="M76.1,104.5c-0.8-0.3-1.4-0.4-2.4-0.4c-0.7,0-1.6,0.3-1.6,1.1c0,1.6,4.7,0.6,4.7,4.3c0,2.4-2.1,3.4-4.3,3.4
			c-1,0-2.1-0.2-3-0.4l0.2-2.2c0.8,0.4,1.7,0.7,2.6,0.7c0.7,0,1.8-0.3,1.8-1.3c0-2-4.7-0.6-4.7-4.4c0-2.2,1.9-3.2,4-3.2
			c1.3,0,2.1,0.2,2.9,0.4L76.1,104.5z"/>
		<path class="st5" d="M79.8,104.3h-2v-2h2v-2.1l2.7-0.9v2.9h2.4v2h-2.4v4.8c0,0.9,0.2,1.7,1.3,1.7c0.5,0,0.9-0.1,1.2-0.3l0.1,2.1
			c-0.6,0.2-1.2,0.2-2,0.2c-2.1,0-3.3-1.3-3.3-3.3V104.3z"/>
		<path class="st5" d="M91.4,102.1c3.1,0,5.4,2.1,5.4,5.5c0,3-2,5.3-5.4,5.3c-3.4,0-5.4-2.4-5.4-5.3C86,104.1,88.3,102.1,91.4,102.1
			z M91.4,110.8c2.1,0,2.6-1.8,2.6-3.6c0-1.6-0.8-3.1-2.6-3.1c-1.7,0-2.6,1.5-2.6,3.1C88.8,108.9,89.3,110.8,91.4,110.8z"/>
		<path class="st5" d="M98.9,102.3h2.4v2.3h0c0.1-1,1.2-2.6,2.8-2.6c0.3,0,0.5,0,0.8,0.1v2.7c-0.2-0.1-0.7-0.2-1.2-0.2
			c-2.2,0-2.2,2.7-2.2,4.2v3.8h-2.7V102.3z"/>
		<path class="st5" d="M110.9,109.8L110.9,109.8l2.5-7.5h2.7l-3.9,10.2c-0.9,2.3-1.5,4.5-4.3,4.5c-0.6,0-1.3-0.1-1.9-0.3l0.2-2
			c0.3,0.1,0.7,0.2,1.4,0.2c1.1,0,1.7-0.7,1.7-1.8l-3.9-10.8h3L110.9,109.8z"/>
		<path class="st5" d="M34.2,126.1c3.1,0,5.4,2.1,5.4,5.5c0,3-2,5.3-5.4,5.3c-3.4,0-5.4-2.4-5.4-5.3
			C28.8,128.1,31.1,126.1,34.2,126.1z M34.2,134.8c2.1,0,2.6-1.8,2.6-3.6c0-1.6-0.8-3.1-2.6-3.1c-1.7,0-2.6,1.5-2.6,3.1
			C31.6,132.9,32.1,134.8,34.2,134.8z"/>
		<path class="st5" d="M42.6,128.3h-2v-2h2v-1.4c0-2.1,1.2-3.5,3.3-3.5c0.7,0,1.4,0.1,2,0.2l-0.2,2.2c-0.2-0.1-0.6-0.4-1.2-0.4
			c-0.9,0-1.2,0.8-1.2,1.6v1.3h2.3v2h-2.3v8.3h-2.7V128.3z"/>
		<path class="st5" d="M55.4,126.8c1-0.5,2.4-0.8,3.6-0.8c3.1,0,4.4,1.3,4.4,4.3v1.3c0,1,0,1.8,0,2.6c0,0.8,0.1,1.5,0.1,2.3h-2.4
			c-0.1-0.5-0.1-1.2-0.1-1.5h0c-0.6,1.1-2,1.8-3.2,1.8c-1.8,0-3.6-1.1-3.6-3.1c0-1.5,0.7-2.4,1.8-2.9c1-0.5,2.3-0.6,3.5-0.6H61
			c0-1.7-0.7-2.2-2.3-2.2c-1.1,0-2.3,0.4-3.2,1.1L55.4,126.8z M58.6,134.9c0.8,0,1.5-0.4,1.9-0.9c0.4-0.6,0.6-1.3,0.6-2.1h-1.2
			c-1.2,0-3,0.2-3,1.8C56.9,134.5,57.6,134.9,58.6,134.9z"/>
		<path class="st5" d="M72.2,128.5c-0.8-0.3-1.4-0.4-2.4-0.4c-0.7,0-1.6,0.3-1.6,1.1c0,1.6,4.7,0.6,4.7,4.3c0,2.4-2.1,3.4-4.3,3.4
			c-1,0-2.1-0.2-3-0.4l0.2-2.2c0.8,0.4,1.7,0.7,2.6,0.7c0.7,0,1.8-0.3,1.8-1.3c0-2-4.7-0.6-4.7-4.4c0-2.2,1.9-3.2,4-3.2
			c1.3,0,2.1,0.2,2.9,0.4L72.2,128.5z"/>
		<path class="st5" d="M75.9,128.3h-2v-2h2v-2.1l2.7-0.9v2.9h2.4v2h-2.4v4.8c0,0.9,0.2,1.7,1.3,1.7c0.5,0,0.9-0.1,1.2-0.3l0.1,2.1
			c-0.6,0.2-1.2,0.2-2,0.2c-2.1,0-3.3-1.3-3.3-3.3V128.3z"/>
		<path class="st5" d="M82.8,121.6h2.7v6.1h0c0.7-1,1.8-1.6,3.2-1.6c2.4,0,3.5,1.7,3.5,4v6.5h-2.7v-5.5c0-1.3,0-3-1.7-3
			c-1.9,0-2.4,2.1-2.4,3.4v5h-2.7V121.6z"/>
		<path class="st5" d="M94.9,126.3h2.5v1.4h0c0.8-1.3,2.1-1.7,3.1-1.7c1.4,0,2.5,0.5,3,1.8c0.6-1.2,2-1.8,3.2-1.8
			c2.5,0,3.3,1.7,3.3,4v6.5h-2.7v-6.1c0-1,0-2.3-1.5-2.3c-1.8,0-2,2.1-2,3.5v5h-2.7v-6.1c0-1,0-2.3-1.5-2.3c-1.8,0-2,2.1-2,3.5v5
			h-2.7V126.3z"/>
		<path class="st5" d="M113.2,126.8c1-0.5,2.4-0.8,3.6-0.8c3.1,0,4.4,1.3,4.4,4.3v1.3c0,1,0,1.8,0,2.6c0,0.8,0.1,1.5,0.1,2.3h-2.4
			c-0.1-0.5-0.1-1.2-0.1-1.5h0c-0.6,1.1-2,1.8-3.2,1.8c-1.8,0-3.6-1.1-3.6-3.1c0-1.5,0.7-2.4,1.8-2.9s2.3-0.6,3.5-0.6h1.5
			c0-1.7-0.7-2.2-2.3-2.2c-1.1,0-2.3,0.4-3.2,1.1L113.2,126.8z M116.4,134.9c0.8,0,1.5-0.4,1.9-0.9c0.4-0.6,0.6-1.3,0.6-2.1h-1.2
			c-1.2,0-3,0.2-3,1.8C114.7,134.5,115.4,134.9,116.4,134.9z"/>
		<path class="st5" d="M14.4,160c-1,0.5-2.1,0.8-3.5,0.8c-3.4,0-5.4-2-5.4-5.3c0-3,1.6-5.4,4.8-5.4c3.8,0,4.9,2.6,4.9,6.2H8
			c0.1,1.7,1.3,2.6,2.9,2.6c1.3,0,2.4-0.5,3.4-1V160z M12.6,154.4c-0.1-1.3-0.7-2.4-2.2-2.4c-1.5,0-2.3,1-2.4,2.4H12.6z"/>
		<path class="st5" d="M16.4,150.3h3.2l2,3.4l2-3.4h2.8l-3.1,4.9l3.5,5.4h-3.2l-2.3-3.8l-2.3,3.8H16l3.5-5.4L16.4,150.3z"/>
		<path class="st5" d="M28.8,150.8c1-0.5,2.4-0.8,3.6-0.8c3.1,0,4.4,1.3,4.4,4.3v1.3c0,1,0,1.8,0,2.6c0,0.8,0.1,1.5,0.1,2.3h-2.4
			c-0.1-0.5-0.1-1.2-0.1-1.5h0c-0.6,1.1-2,1.8-3.2,1.8c-1.8,0-3.6-1.1-3.6-3.1c0-1.5,0.7-2.4,1.8-2.9c1-0.5,2.3-0.6,3.5-0.6h1.5
			c0-1.7-0.7-2.2-2.3-2.2c-1.1,0-2.3,0.4-3.2,1.1L28.8,150.8z M31.9,158.9c0.8,0,1.5-0.4,1.9-0.9c0.4-0.6,0.6-1.3,0.6-2.1h-1.2
			c-1.2,0-3,0.2-3,1.8C30.2,158.5,31,158.9,31.9,158.9z"/>
		<path class="st5" d="M46.1,152.5c-0.5-0.2-1-0.4-1.8-0.4c-1.7,0-2.7,1.3-2.7,3.3c0,1.9,0.9,3.4,2.8,3.4c0.8,0,1.6-0.3,2.1-0.5
			l0.1,2.2c-0.8,0.2-1.6,0.3-2.7,0.3c-3.4,0-5.1-2.3-5.1-5.4c0-3,1.8-5.3,5-5.3c1.1,0,1.9,0.1,2.6,0.3L46.1,152.5z"/>
		<path class="st5" d="M56.6,160c-1,0.5-2.1,0.8-3.5,0.8c-3.4,0-5.4-2-5.4-5.3c0-3,1.6-5.4,4.8-5.4c3.8,0,4.9,2.6,4.9,6.2h-7.1
			c0.1,1.7,1.3,2.6,2.9,2.6c1.3,0,2.4-0.5,3.4-1V160z M54.8,154.4c-0.1-1.3-0.7-2.4-2.2-2.4c-1.5,0-2.3,1-2.4,2.4H54.8z"/>
		<path class="st5" d="M59.5,150.3h2.4v2.3h0c0.1-1,1.2-2.6,2.8-2.6c0.3,0,0.5,0,0.8,0.1v2.7c-0.2-0.1-0.7-0.2-1.2-0.2
			c-2.2,0-2.2,2.7-2.2,4.2v3.8h-2.7V150.3z"/>
		<path class="st5" d="M67.2,145.6h2.7v6h0c0.7-1,1.7-1.6,3.1-1.6c3.2,0,4.3,2.5,4.3,5.4c0,2.8-1.2,5.4-4.3,5.4
			c-1.1,0-2.4-0.4-3.2-1.5h0v1.3h-2.6V145.6z M72.3,158.8c1.8,0,2.3-1.9,2.3-3.3c0-1.4-0.5-3.3-2.2-3.3c-1.7,0-2.4,1.8-2.4,3.3
			C69.9,156.9,70.5,158.8,72.3,158.8z"/>
		<path class="st5" d="M79.9,150.8c1-0.5,2.4-0.8,3.6-0.8c3.1,0,4.4,1.3,4.4,4.3v1.3c0,1,0,1.8,0,2.6c0,0.8,0.1,1.5,0.1,2.3h-2.4
			c-0.1-0.5-0.1-1.2-0.1-1.5h0c-0.6,1.1-2,1.8-3.2,1.8c-1.8,0-3.6-1.1-3.6-3.1c0-1.5,0.7-2.4,1.8-2.9s2.3-0.6,3.5-0.6h1.5
			c0-1.7-0.7-2.2-2.3-2.2c-1.1,0-2.3,0.4-3.2,1.1L79.9,150.8z M83.1,158.9c0.8,0,1.5-0.4,1.9-0.9c0.4-0.6,0.6-1.3,0.6-2.1h-1.2
			c-1.2,0-3,0.2-3,1.8C81.4,158.5,82.1,158.9,83.1,158.9z"/>
		<path class="st5" d="M91.5,152.3h-2v-2h2v-2.1l2.7-0.9v2.9h2.4v2h-2.4v4.8c0,0.9,0.2,1.7,1.3,1.7c0.5,0,0.9-0.1,1.2-0.3l0.1,2.1
			c-0.6,0.2-1.2,0.2-2,0.2c-2.1,0-3.3-1.3-3.3-3.3V152.3z"/>
		<path class="st5" d="M98.4,145.9h2.7v2.6h-2.7V145.9z M98.4,150.3h2.7v10.3h-2.7V150.3z"/>
		<path class="st5" d="M108.6,150.1c3.1,0,5.4,2.1,5.4,5.5c0,3-2,5.3-5.4,5.3c-3.4,0-5.4-2.4-5.4-5.3
			C103.2,152.1,105.6,150.1,108.6,150.1z M108.6,158.8c2.1,0,2.6-1.8,2.6-3.6c0-1.6-0.8-3.1-2.6-3.1c-1.7,0-2.6,1.5-2.6,3.1
			C106.1,156.9,106.6,158.8,108.6,158.8z"/>
		<path class="st5" d="M116.1,150.3h2.5v1.4h0c0.8-1.2,2-1.6,3.4-1.6c2.4,0,3.5,1.7,3.5,4v6.5h-2.7v-5.5c0-1.3,0-3-1.7-3
			c-1.9,0-2.4,2.1-2.4,3.4v5h-2.7V150.3z"/>
		<path class="st5" d="M134.5,152.5c-0.8-0.3-1.4-0.4-2.4-0.4c-0.7,0-1.6,0.3-1.6,1.1c0,1.6,4.7,0.6,4.7,4.3c0,2.4-2.1,3.4-4.3,3.4
			c-1,0-2.1-0.2-3-0.4l0.2-2.2c0.8,0.4,1.7,0.7,2.6,0.7c0.7,0,1.8-0.3,1.8-1.3c0-2-4.7-0.6-4.7-4.4c0-2.2,1.9-3.2,4-3.2
			c1.3,0,2.1,0.2,2.9,0.4L134.5,152.5z"/>
		<path class="st5" d="M136.8,147.1c1.3-0.4,2.6-0.7,4-0.7c2.3,0,4.6,1,4.6,3.6c0,2.8-3.6,3.9-3.4,6.5h-2.5c0-1.9,0.7-2.9,1.5-3.8
			c0.7-0.8,1.5-1.4,1.5-2.5c0-1.3-1.1-1.8-2.3-1.8c-1.1,0-2.1,0.4-3.1,0.8L136.8,147.1z M139.4,157.8h2.8v2.8h-2.8V157.8z"/>
	</g>
</g>
<g id="Border">
</g>
</svg>
