<?xml version="1.0" encoding="utf-8"?>
<!-- Generator: Adobe Illustrator 19.1.0, SVG Export Plug-In . SVG Version: 6.00 Build 0)  -->
<!DOCTYPE svg PUBLIC "-//W3C//DTD SVG 1.1//EN" "http://www.w3.org/Graphics/SVG/1.1/DTD/svg11.dtd">
<svg version="1.1" xmlns="http://www.w3.org/2000/svg" xmlns:xlink="http://www.w3.org/1999/xlink" x="0px" y="0px" width="142.9px"
	 height="47.3px" viewBox="0 0 142.9 47.3" style="enable-background:new 0 0 142.9 47.3;" xml:space="preserve">
<style type="text/css">
	.st0{clip-path:url(#SVGID_4_);}
	.st1{fill:url(#SVGID_5_);}
	.st2{fill:#231F20;}
	.st3{clip-path:url(#SVGID_7_);fill:#231F20;}
	.st4{clip-path:url(#SVGID_7_);fill:#6FA5D9;}
	.st5{clip-path:url(#SVGID_7_);fill:#007AC1;}
	.st6{fill:none;stroke:#58595B;stroke-width:0.1413;}
	.st7{clip-path:url(#SVGID_9_);fill:#F27021;}
	.st8{clip-path:url(#SVGID_11_);}
	.st9{clip-path:url(#SVGID_15_);}
	.st10{clip-path:url(#SVGID_19_);}
	.st11{clip-path:url(#SVGID_23_);}
	.st12{clip-path:url(#SVGID_27_);}
	.st13{clip-path:url(#SVGID_31_);}
	.st14{clip-path:url(#SVGID_35_);}
	.st15{clip-path:url(#SVGID_37_);}
	.st16{clip-path:url(#SVGID_41_);}
	.st17{clip-path:url(#SVGID_43_);}
	.st18{clip-path:url(#SVGID_47_);}
	.st19{clip-path:url(#SVGID_49_);}
	.st20{clip-path:url(#SVGID_53_);}
	.st21{clip-path:url(#SVGID_55_);}
	.st22{clip-path:url(#SVGID_59_);}
	.st23{clip-path:url(#SVGID_63_);}
	.st24{clip-path:url(#SVGID_67_);}
	.st25{clip-path:url(#SVGID_71_);}
	.st26{clip-path:url(#SVGID_75_);}
	.st27{clip-path:url(#SVGID_79_);}
	.st28{clip-path:url(#SVGID_83_);}
	.st29{clip-path:url(#SVGID_87_);}
	.st30{clip-path:url(#SVGID_91_);}
	.st31{clip-path:url(#SVGID_95_);}
	.st32{clip-path:url(#SVGID_99_);}
	.st33{clip-path:url(#SVGID_103_);}
	.st34{clip-path:url(#SVGID_107_);}
	.st35{clip-path:url(#SVGID_111_);}
	.st36{clip-path:url(#SVGID_115_);}
	.st37{clip-path:url(#SVGID_119_);}
	.st38{clip-path:url(#SVGID_123_);}
	.st39{clip-path:url(#SVGID_127_);}
	.st40{clip-path:url(#SVGID_131_);}
	.st41{clip-path:url(#SVGID_135_);}
	.st42{clip-path:url(#SVGID_139_);}
	.st43{clip-path:url(#SVGID_143_);}
	.st44{clip-path:url(#SVGID_147_);}
	.st45{clip-path:url(#SVGID_151_);}
	.st46{clip-path:url(#SVGID_155_);}
	.st47{clip-path:url(#SVGID_159_);}
	.st48{clip-path:url(#SVGID_161_);}
	.st49{clip-path:url(#SVGID_165_);}
	.st50{clip-path:url(#SVGID_169_);}
	.st51{clip-path:url(#SVGID_173_);}
	.st52{clip-path:url(#SVGID_177_);}
	.st53{clip-path:url(#SVGID_181_);}
	.st54{clip-path:url(#SVGID_185_);}
	.st55{clip-path:url(#SVGID_189_);}
	.st56{clip-path:url(#SVGID_193_);}
	.st57{clip-path:url(#SVGID_197_);}
	.st58{clip-path:url(#SVGID_201_);}
	.st59{clip-path:url(#SVGID_203_);}
	.st60{clip-path:url(#SVGID_207_);}
	.st61{clip-path:url(#SVGID_211_);}
	.st62{clip-path:url(#SVGID_215_);}
	.st63{clip-path:url(#SVGID_219_);}
	.st64{clip-path:url(#SVGID_223_);}
	.st65{clip-path:url(#SVGID_227_);}
	.st66{clip-path:url(#SVGID_231_);}
	.st67{clip-path:url(#SVGID_235_);}
	.st68{clip-path:url(#SVGID_239_);}
	.st69{clip-path:url(#SVGID_243_);}
	.st70{clip-path:url(#SVGID_247_);}
	.st71{clip-path:url(#SVGID_251_);}
	.st72{clip-path:url(#SVGID_255_);}
	.st73{clip-path:url(#SVGID_259_);}
	.st74{clip-path:url(#SVGID_263_);}
	.st75{clip-path:url(#SVGID_267_);}
	.st76{clip-path:url(#SVGID_271_);}
	.st77{clip-path:url(#SVGID_275_);}
	.st78{clip-path:url(#SVGID_279_);}
	.st79{clip-path:url(#SVGID_283_);}
	.st80{clip-path:url(#SVGID_287_);}
	.st81{clip-path:url(#SVGID_291_);}
	.st82{clip-path:url(#SVGID_295_);}
	.st83{clip-path:url(#SVGID_299_);}
	.st84{clip-path:url(#SVGID_303_);}
	.st85{clip-path:url(#SVGID_307_);}
	.st86{clip-path:url(#SVGID_311_);}
	.st87{clip-path:url(#SVGID_315_);}
	.st88{clip-path:url(#SVGID_319_);}
	.st89{clip-path:url(#SVGID_323_);}
	.st90{clip-path:url(#SVGID_327_);}
	.st91{clip-path:url(#SVGID_331_);}
	.st92{clip-path:url(#SVGID_335_);}
	.st93{clip-path:url(#SVGID_339_);}
	.st94{clip-path:url(#SVGID_343_);}
	.st95{clip-path:url(#SVGID_347_);}
	.st96{clip-path:url(#SVGID_351_);}
	.st97{clip-path:url(#SVGID_355_);}
	.st98{clip-path:url(#SVGID_359_);}
	.st99{clip-path:url(#SVGID_363_);}
	.st100{clip-path:url(#SVGID_367_);}
	.st101{clip-path:url(#SVGID_371_);}
	.st102{clip-path:url(#SVGID_375_);}
	.st103{clip-path:url(#SVGID_379_);}
	.st104{clip-path:url(#SVGID_383_);}
	.st105{clip-path:url(#SVGID_387_);}
	.st106{clip-path:url(#SVGID_391_);}
	.st107{clip-path:url(#SVGID_395_);}
	.st108{clip-path:url(#SVGID_399_);}
	.st109{clip-path:url(#SVGID_403_);}
	.st110{clip-path:url(#SVGID_407_);}
	.st111{clip-path:url(#SVGID_411_);}
	.st112{clip-path:url(#SVGID_415_);}
	.st113{clip-path:url(#SVGID_419_);}
	.st114{clip-path:url(#SVGID_423_);}
	.st115{clip-path:url(#SVGID_427_);}
	.st116{clip-path:url(#SVGID_431_);}
	.st117{clip-path:url(#SVGID_435_);}
	.st118{clip-path:url(#SVGID_439_);}
	.st119{clip-path:url(#SVGID_443_);}
	.st120{clip-path:url(#SVGID_447_);}
	.st121{clip-path:url(#SVGID_451_);}
	.st122{clip-path:url(#SVGID_455_);}
	.st123{clip-path:url(#SVGID_459_);}
	.st124{clip-path:url(#SVGID_461_);}
	.st125{clip-path:url(#SVGID_465_);}
	.st126{clip-path:url(#SVGID_469_);}
	.st127{clip-path:url(#SVGID_471_);}
	.st128{clip-path:url(#SVGID_475_);}
	.st129{clip-path:url(#SVGID_479_);}
	.st130{clip-path:url(#SVGID_481_);}
	.st131{clip-path:url(#SVGID_485_);}
	.st132{clip-path:url(#SVGID_487_);}
	.st133{clip-path:url(#SVGID_491_);}
	.st134{clip-path:url(#SVGID_493_);}
	.st135{clip-path:url(#SVGID_497_);}
	.st136{clip-path:url(#SVGID_499_);}
	.st137{clip-path:url(#SVGID_503_);}
	.st138{clip-path:url(#SVGID_505_);}
	.st139{clip-path:url(#SVGID_509_);}
	.st140{clip-path:url(#SVGID_513_);}
	.st141{clip-path:url(#SVGID_515_);}
	.st142{clip-path:url(#SVGID_519_);}
	.st143{clip-path:url(#SVGID_521_);}
	.st144{clip-path:url(#SVGID_525_);}
	.st145{clip-path:url(#SVGID_527_);}
	.st146{clip-path:url(#SVGID_531_);}
	.st147{clip-path:url(#SVGID_533_);}
	.st148{clip-path:url(#SVGID_537_);}
	.st149{clip-path:url(#SVGID_539_);}
	.st150{clip-path:url(#SVGID_543_);}
	.st151{clip-path:url(#SVGID_547_);}
	.st152{clip-path:url(#SVGID_551_);}
	.st153{clip-path:url(#SVGID_555_);}
	.st154{clip-path:url(#SVGID_559_);}
	.st155{clip-path:url(#SVGID_563_);}
	.st156{clip-path:url(#SVGID_567_);}
	.st157{clip-path:url(#SVGID_571_);}
	.st158{clip-path:url(#SVGID_575_);}
	.st159{clip-path:url(#SVGID_579_);}
	.st160{clip-path:url(#SVGID_583_);}
	.st161{clip-path:url(#SVGID_587_);}
	.st162{clip-path:url(#SVGID_591_);}
	.st163{clip-path:url(#SVGID_595_);}
	.st164{clip-path:url(#SVGID_599_);}
	.st165{clip-path:url(#SVGID_603_);}
	.st166{clip-path:url(#SVGID_607_);}
	.st167{clip-path:url(#SVGID_611_);}
	.st168{clip-path:url(#SVGID_615_);}
	.st169{clip-path:url(#SVGID_619_);}
	.st170{clip-path:url(#SVGID_623_);}
	.st171{clip-path:url(#SVGID_627_);}
	.st172{clip-path:url(#SVGID_631_);}
	.st173{clip-path:url(#SVGID_635_);}
	.st174{clip-path:url(#SVGID_639_);}
	.st175{clip-path:url(#SVGID_643_);}
	.st176{clip-path:url(#SVGID_647_);}
	.st177{clip-path:url(#SVGID_651_);}
	.st178{clip-path:url(#SVGID_655_);}
	.st179{clip-path:url(#SVGID_659_);}
	.st180{clip-path:url(#SVGID_663_);}
	.st181{clip-path:url(#SVGID_667_);}
	.st182{clip-path:url(#SVGID_671_);}
	.st183{clip-path:url(#SVGID_673_);}
	.st184{clip-path:url(#SVGID_677_);}
	.st185{clip-path:url(#SVGID_681_);}
	.st186{clip-path:url(#SVGID_683_);}
	.st187{clip-path:url(#SVGID_687_);}
	.st188{clip-path:url(#SVGID_691_);}
	.st189{clip-path:url(#SVGID_695_);}
	.st190{clip-path:url(#SVGID_699_);}
	.st191{clip-path:url(#SVGID_703_);}
	.st192{clip-path:url(#SVGID_707_);}
	.st193{clip-path:url(#SVGID_711_);}
	.st194{clip-path:url(#SVGID_715_);}
	.st195{clip-path:url(#SVGID_719_);}
	.st196{clip-path:url(#SVGID_723_);}
	.st197{clip-path:url(#SVGID_727_);}
	.st198{clip-path:url(#SVGID_731_);}
	.st199{clip-path:url(#SVGID_735_);}
	.st200{clip-path:url(#SVGID_739_);}
	.st201{clip-path:url(#SVGID_743_);}
	.st202{clip-path:url(#SVGID_747_);}
	.st203{clip-path:url(#SVGID_751_);}
	.st204{clip-path:url(#SVGID_755_);}
	.st205{clip-path:url(#SVGID_759_);}
	.st206{clip-path:url(#SVGID_763_);}
	.st207{clip-path:url(#SVGID_767_);}
	.st208{clip-path:url(#SVGID_771_);}
	.st209{clip-path:url(#SVGID_775_);}
	.st210{clip-path:url(#SVGID_779_);}
	.st211{clip-path:url(#SVGID_783_);}
	.st212{clip-path:url(#SVGID_787_);}
	.st213{clip-path:url(#SVGID_791_);}
	.st214{clip-path:url(#SVGID_795_);}
	.st215{clip-path:url(#SVGID_799_);}
	.st216{clip-path:url(#SVGID_803_);}
	.st217{clip-path:url(#SVGID_807_);}
	.st218{clip-path:url(#SVGID_811_);}
	.st219{clip-path:url(#SVGID_815_);}
	.st220{clip-path:url(#SVGID_819_);}
	.st221{clip-path:url(#SVGID_823_);}
	.st222{clip-path:url(#SVGID_827_);}
	.st223{clip-path:url(#SVGID_831_);}
	.st224{clip-path:url(#SVGID_835_);}
	.st225{clip-path:url(#SVGID_839_);}
	.st226{clip-path:url(#SVGID_843_);}
	.st227{clip-path:url(#SVGID_847_);}
	.st228{clip-path:url(#SVGID_851_);}
	.st229{clip-path:url(#SVGID_855_);}
	.st230{clip-path:url(#SVGID_859_);}
	.st231{clip-path:url(#SVGID_863_);}
	.st232{clip-path:url(#SVGID_867_);}
	.st233{clip-path:url(#SVGID_871_);}
	.st234{clip-path:url(#SVGID_875_);}
	.st235{clip-path:url(#SVGID_879_);}
	.st236{clip-path:url(#SVGID_883_);}
	.st237{clip-path:url(#SVGID_887_);}
	.st238{clip-path:url(#SVGID_891_);}
	.st239{clip-path:url(#SVGID_895_);}
	.st240{clip-path:url(#SVGID_899_);}
	.st241{clip-path:url(#SVGID_903_);}
	.st242{clip-path:url(#SVGID_905_);}
	.st243{clip-path:url(#SVGID_909_);}
	.st244{clip-path:url(#SVGID_913_);}
	.st245{clip-path:url(#SVGID_917_);}
	.st246{clip-path:url(#SVGID_921_);}
	.st247{clip-path:url(#SVGID_925_);}
	.st248{clip-path:url(#SVGID_929_);}
	.st249{clip-path:url(#SVGID_933_);}
	.st250{clip-path:url(#SVGID_937_);}
	.st251{clip-path:url(#SVGID_941_);}
	.st252{clip-path:url(#SVGID_945_);}
	.st253{clip-path:url(#SVGID_949_);}
	.st254{clip-path:url(#SVGID_953_);}
	.st255{clip-path:url(#SVGID_957_);}
	.st256{clip-path:url(#SVGID_959_);}
	.st257{clip-path:url(#SVGID_963_);}
	.st258{clip-path:url(#SVGID_965_);}
	.st259{clip-path:url(#SVGID_969_);}
	.st260{clip-path:url(#SVGID_973_);}
	.st261{clip-path:url(#SVGID_975_);}
	.st262{clip-path:url(#SVGID_979_);}
	.st263{clip-path:url(#SVGID_981_);}
	.st264{clip-path:url(#SVGID_985_);}
	.st265{clip-path:url(#SVGID_987_);}
	.st266{clip-path:url(#SVGID_991_);}
	.st267{clip-path:url(#SVGID_995_);}
	.st268{clip-path:url(#SVGID_999_);}
	.st269{clip-path:url(#SVGID_1003_);}
	.st270{clip-path:url(#SVGID_1007_);}
	.st271{clip-path:url(#SVGID_1011_);fill:#FFFFFF;}
	.st272{clip-path:url(#SVGID_1013_);}
	.st273{opacity:0.44;clip-path:url(#SVGID_1013_);fill:url(#SVGID_1014_);}
	.st274{opacity:0.74;clip-path:url(#SVGID_1013_);fill:url(#SVGID_1015_);}
	.st275{fill:none;}
	.st276{fill:#002D73;}
	.st277{fill:url(#SVGID_1016_);}
	.st278{opacity:0.66;clip-path:url(#SVGID_1018_);}
	.st279{opacity:0.66;}
	.st280{clip-path:url(#SVGID_1020_);fill:#FFFFFF;}
	.st281{clip-path:url(#SVGID_1018_);}
	.st282{clip-path:url(#SVGID_1022_);fill:url(#SVGID_1023_);}
	.st283{clip-path:url(#SVGID_1022_);fill:url(#SVGID_1024_);}
	.st284{clip-path:url(#SVGID_1026_);}
	.st285{clip-path:url(#SVGID_1030_);}
	.st286{clip-path:url(#SVGID_1032_);}
	.st287{opacity:0.65;fill:url(#SVGID_1033_);}
	.st288{opacity:0.89;fill:url(#SVGID_1034_);}
	.st289{fill:url(#SVGID_1035_);}
	.st290{opacity:0.66;clip-path:url(#SVGID_1037_);}
	.st291{clip-path:url(#SVGID_1039_);fill:#FFFFFF;}
	.st292{clip-path:url(#SVGID_1037_);}
	.st293{clip-path:url(#SVGID_1041_);fill:#FFFFFF;}
	.st294{clip-path:url(#SVGID_1041_);fill:url(#SVGID_1042_);}
	.st295{clip-path:url(#SVGID_1041_);fill:url(#SVGID_1043_);}
	.st296{fill:url(#SVGID_1044_);}
	.st297{opacity:0.66;clip-path:url(#SVGID_1046_);}
	.st298{clip-path:url(#SVGID_1048_);fill:#FFFFFF;}
	.st299{clip-path:url(#SVGID_1046_);}
	.st300{clip-path:url(#SVGID_1050_);fill:#FFFFFF;}
	.st301{clip-path:url(#SVGID_1050_);fill:url(#SVGID_1051_);}
	.st302{clip-path:url(#SVGID_1050_);fill:url(#SVGID_1052_);}
	.st303{opacity:0.44;clip-path:url(#SVGID_1050_);fill:url(#SVGID_1053_);}
	.st304{opacity:0.74;clip-path:url(#SVGID_1050_);fill:url(#SVGID_1054_);}
	.st305{opacity:0.89;clip-path:url(#SVGID_1046_);fill:url(#SVGID_1055_);}
	.st306{fill:url(#SVGID_1056_);}
	.st307{opacity:0.66;clip-path:url(#SVGID_1058_);}
	.st308{clip-path:url(#SVGID_1060_);fill:#FFFFFF;}
	.st309{clip-path:url(#SVGID_1058_);}
	.st310{clip-path:url(#SVGID_1062_);fill:url(#SVGID_1063_);}
	.st311{clip-path:url(#SVGID_1062_);fill:url(#SVGID_1064_);}
	.st312{clip-path:url(#SVGID_1066_);}
	.st313{opacity:0.5;fill:url(#SVGID_1069_);}
	.st314{fill:url(#SVGID_1070_);}
	.st315{clip-path:url(#SVGID_1071_);fill:none;stroke:#002D73;stroke-width:3.1257;stroke-linecap:round;stroke-miterlimit:10;}
	.st316{fill:url(#SVGID_1074_);stroke:#FFFFFF;stroke-width:1.8484;stroke-miterlimit:10;}
	.st317{fill:#FFFFFF;}
	.st318{fill:#FFE8BA;}
	.st319{fill:none;stroke:#002D73;stroke-miterlimit:10;}
	.st320{fill:url(#SVGID_1075_);}
	.st321{fill:none;stroke:#002D73;stroke-width:0.859;stroke-miterlimit:10;}
	.st322{clip-path:url(#SVGID_1077_);fill:#231F20;}
	.st323{clip-path:url(#SVGID_1077_);fill:#6FA5D9;}
	.st324{clip-path:url(#SVGID_1077_);fill:#007AC1;}
	.st325{clip-path:url(#SVGID_1079_);fill:#F27021;}
	.st326{clip-path:url(#SVGID_1081_);}
	.st327{clip-path:url(#SVGID_1085_);}
	.st328{clip-path:url(#SVGID_1089_);}
	.st329{clip-path:url(#SVGID_1093_);}
	.st330{clip-path:url(#SVGID_1097_);}
	.st331{clip-path:url(#SVGID_1101_);}
	.st332{clip-path:url(#SVGID_1105_);}
	.st333{clip-path:url(#SVGID_1107_);}
	.st334{clip-path:url(#SVGID_1111_);}
	.st335{clip-path:url(#SVGID_1113_);}
	.st336{clip-path:url(#SVGID_1117_);}
	.st337{clip-path:url(#SVGID_1119_);}
	.st338{clip-path:url(#SVGID_1123_);}
	.st339{clip-path:url(#SVGID_1125_);}
	.st340{clip-path:url(#SVGID_1129_);}
	.st341{clip-path:url(#SVGID_1133_);}
	.st342{clip-path:url(#SVGID_1137_);}
	.st343{clip-path:url(#SVGID_1141_);}
	.st344{clip-path:url(#SVGID_1145_);}
	.st345{clip-path:url(#SVGID_1149_);}
	.st346{clip-path:url(#SVGID_1153_);}
	.st347{clip-path:url(#SVGID_1157_);}
	.st348{clip-path:url(#SVGID_1161_);}
	.st349{clip-path:url(#SVGID_1165_);}
	.st350{clip-path:url(#SVGID_1169_);}
	.st351{clip-path:url(#SVGID_1173_);}
	.st352{clip-path:url(#SVGID_1177_);}
	.st353{clip-path:url(#SVGID_1181_);}
	.st354{clip-path:url(#SVGID_1185_);}
	.st355{clip-path:url(#SVGID_1189_);}
	.st356{clip-path:url(#SVGID_1193_);}
	.st357{clip-path:url(#SVGID_1197_);}
	.st358{clip-path:url(#SVGID_1201_);}
	.st359{clip-path:url(#SVGID_1205_);}
	.st360{clip-path:url(#SVGID_1209_);}
	.st361{clip-path:url(#SVGID_1213_);}
	.st362{clip-path:url(#SVGID_1217_);}
	.st363{clip-path:url(#SVGID_1221_);}
	.st364{clip-path:url(#SVGID_1225_);}
	.st365{clip-path:url(#SVGID_1229_);}
	.st366{clip-path:url(#SVGID_1231_);}
	.st367{clip-path:url(#SVGID_1235_);}
	.st368{clip-path:url(#SVGID_1239_);}
	.st369{clip-path:url(#SVGID_1243_);}
	.st370{clip-path:url(#SVGID_1247_);}
	.st371{clip-path:url(#SVGID_1251_);}
	.st372{clip-path:url(#SVGID_1255_);}
	.st373{clip-path:url(#SVGID_1259_);}
	.st374{clip-path:url(#SVGID_1263_);}
	.st375{clip-path:url(#SVGID_1267_);}
	.st376{clip-path:url(#SVGID_1271_);}
	.st377{clip-path:url(#SVGID_1273_);}
	.st378{clip-path:url(#SVGID_1277_);}
	.st379{clip-path:url(#SVGID_1281_);}
	.st380{clip-path:url(#SVGID_1285_);}
	.st381{clip-path:url(#SVGID_1289_);}
	.st382{clip-path:url(#SVGID_1293_);}
	.st383{clip-path:url(#SVGID_1297_);}
	.st384{clip-path:url(#SVGID_1301_);}
	.st385{clip-path:url(#SVGID_1305_);}
	.st386{clip-path:url(#SVGID_1309_);}
	.st387{clip-path:url(#SVGID_1313_);}
	.st388{clip-path:url(#SVGID_1317_);}
	.st389{clip-path:url(#SVGID_1321_);}
	.st390{clip-path:url(#SVGID_1325_);}
	.st391{clip-path:url(#SVGID_1329_);}
	.st392{clip-path:url(#SVGID_1333_);}
	.st393{clip-path:url(#SVGID_1337_);}
	.st394{clip-path:url(#SVGID_1341_);}
	.st395{clip-path:url(#SVGID_1345_);}
	.st396{clip-path:url(#SVGID_1349_);}
	.st397{clip-path:url(#SVGID_1353_);}
	.st398{clip-path:url(#SVGID_1357_);}
	.st399{clip-path:url(#SVGID_1361_);}
	.st400{clip-path:url(#SVGID_1365_);}
	.st401{clip-path:url(#SVGID_1369_);}
	.st402{clip-path:url(#SVGID_1373_);}
	.st403{clip-path:url(#SVGID_1377_);}
	.st404{clip-path:url(#SVGID_1381_);}
	.st405{clip-path:url(#SVGID_1385_);}
	.st406{clip-path:url(#SVGID_1389_);}
	.st407{clip-path:url(#SVGID_1393_);}
	.st408{clip-path:url(#SVGID_1397_);}
	.st409{clip-path:url(#SVGID_1401_);}
	.st410{clip-path:url(#SVGID_1405_);}
	.st411{clip-path:url(#SVGID_1409_);}
	.st412{clip-path:url(#SVGID_1413_);}
	.st413{clip-path:url(#SVGID_1417_);}
	.st414{clip-path:url(#SVGID_1421_);}
	.st415{clip-path:url(#SVGID_1425_);}
	.st416{clip-path:url(#SVGID_1429_);}
	.st417{clip-path:url(#SVGID_1433_);}
	.st418{clip-path:url(#SVGID_1437_);}
	.st419{clip-path:url(#SVGID_1441_);}
	.st420{clip-path:url(#SVGID_1445_);}
	.st421{clip-path:url(#SVGID_1449_);}
	.st422{clip-path:url(#SVGID_1453_);}
	.st423{clip-path:url(#SVGID_1457_);}
	.st424{clip-path:url(#SVGID_1461_);}
	.st425{clip-path:url(#SVGID_1465_);}
	.st426{clip-path:url(#SVGID_1469_);}
	.st427{clip-path:url(#SVGID_1473_);}
	.st428{clip-path:url(#SVGID_1477_);}
	.st429{clip-path:url(#SVGID_1481_);}
	.st430{clip-path:url(#SVGID_1485_);}
	.st431{clip-path:url(#SVGID_1489_);}
	.st432{clip-path:url(#SVGID_1493_);}
	.st433{clip-path:url(#SVGID_1497_);}
	.st434{clip-path:url(#SVGID_1501_);}
	.st435{clip-path:url(#SVGID_1505_);}
	.st436{clip-path:url(#SVGID_1509_);}
	.st437{clip-path:url(#SVGID_1513_);}
	.st438{clip-path:url(#SVGID_1517_);}
	.st439{clip-path:url(#SVGID_1521_);}
	.st440{clip-path:url(#SVGID_1525_);}
	.st441{clip-path:url(#SVGID_1529_);}
	.st442{clip-path:url(#SVGID_1531_);}
	.st443{clip-path:url(#SVGID_1535_);}
	.st444{clip-path:url(#SVGID_1539_);}
	.st445{clip-path:url(#SVGID_1541_);}
	.st446{clip-path:url(#SVGID_1545_);}
	.st447{clip-path:url(#SVGID_1549_);}
	.st448{clip-path:url(#SVGID_1551_);}
	.st449{clip-path:url(#SVGID_1555_);}
	.st450{clip-path:url(#SVGID_1557_);}
	.st451{clip-path:url(#SVGID_1561_);}
	.st452{clip-path:url(#SVGID_1563_);}
	.st453{clip-path:url(#SVGID_1567_);}
	.st454{clip-path:url(#SVGID_1569_);}
	.st455{clip-path:url(#SVGID_1573_);}
	.st456{clip-path:url(#SVGID_1575_);}
	.st457{clip-path:url(#SVGID_1579_);}
	.st458{clip-path:url(#SVGID_1583_);}
	.st459{clip-path:url(#SVGID_1585_);}
	.st460{clip-path:url(#SVGID_1589_);}
	.st461{clip-path:url(#SVGID_1591_);}
	.st462{clip-path:url(#SVGID_1595_);}
	.st463{clip-path:url(#SVGID_1597_);}
	.st464{clip-path:url(#SVGID_1601_);}
	.st465{clip-path:url(#SVGID_1603_);}
	.st466{clip-path:url(#SVGID_1607_);}
	.st467{clip-path:url(#SVGID_1609_);}
	.st468{clip-path:url(#SVGID_1613_);}
	.st469{clip-path:url(#SVGID_1617_);}
	.st470{clip-path:url(#SVGID_1621_);}
	.st471{clip-path:url(#SVGID_1625_);}
	.st472{clip-path:url(#SVGID_1629_);}
	.st473{clip-path:url(#SVGID_1633_);}
	.st474{clip-path:url(#SVGID_1637_);}
	.st475{clip-path:url(#SVGID_1641_);}
	.st476{clip-path:url(#SVGID_1645_);}
	.st477{clip-path:url(#SVGID_1649_);}
	.st478{clip-path:url(#SVGID_1653_);}
	.st479{clip-path:url(#SVGID_1657_);}
	.st480{clip-path:url(#SVGID_1661_);}
	.st481{clip-path:url(#SVGID_1665_);}
	.st482{clip-path:url(#SVGID_1669_);}
	.st483{clip-path:url(#SVGID_1673_);}
	.st484{clip-path:url(#SVGID_1677_);}
	.st485{clip-path:url(#SVGID_1681_);}
	.st486{clip-path:url(#SVGID_1685_);}
	.st487{clip-path:url(#SVGID_1689_);}
	.st488{clip-path:url(#SVGID_1693_);}
	.st489{clip-path:url(#SVGID_1697_);}
	.st490{clip-path:url(#SVGID_1701_);}
	.st491{clip-path:url(#SVGID_1705_);}
	.st492{clip-path:url(#SVGID_1709_);}
	.st493{clip-path:url(#SVGID_1713_);}
	.st494{clip-path:url(#SVGID_1717_);}
	.st495{clip-path:url(#SVGID_1721_);}
	.st496{clip-path:url(#SVGID_1725_);}
	.st497{clip-path:url(#SVGID_1729_);}
	.st498{clip-path:url(#SVGID_1733_);}
	.st499{clip-path:url(#SVGID_1737_);}
	.st500{clip-path:url(#SVGID_1741_);}
	.st501{clip-path:url(#SVGID_1743_);}
	.st502{clip-path:url(#SVGID_1747_);}
	.st503{clip-path:url(#SVGID_1751_);}
	.st504{clip-path:url(#SVGID_1753_);}
	.st505{clip-path:url(#SVGID_1757_);}
	.st506{clip-path:url(#SVGID_1761_);}
	.st507{clip-path:url(#SVGID_1765_);}
	.st508{clip-path:url(#SVGID_1769_);}
	.st509{clip-path:url(#SVGID_1773_);}
	.st510{clip-path:url(#SVGID_1777_);}
	.st511{clip-path:url(#SVGID_1781_);}
	.st512{clip-path:url(#SVGID_1785_);}
	.st513{clip-path:url(#SVGID_1789_);}
	.st514{clip-path:url(#SVGID_1793_);}
	.st515{clip-path:url(#SVGID_1797_);}
	.st516{clip-path:url(#SVGID_1801_);}
	.st517{clip-path:url(#SVGID_1805_);}
	.st518{clip-path:url(#SVGID_1809_);}
	.st519{clip-path:url(#SVGID_1813_);}
	.st520{clip-path:url(#SVGID_1817_);}
	.st521{clip-path:url(#SVGID_1821_);}
	.st522{clip-path:url(#SVGID_1825_);}
	.st523{clip-path:url(#SVGID_1829_);}
	.st524{clip-path:url(#SVGID_1833_);}
	.st525{clip-path:url(#SVGID_1837_);}
	.st526{clip-path:url(#SVGID_1841_);}
	.st527{clip-path:url(#SVGID_1845_);}
	.st528{clip-path:url(#SVGID_1849_);}
	.st529{clip-path:url(#SVGID_1853_);}
	.st530{clip-path:url(#SVGID_1857_);}
	.st531{clip-path:url(#SVGID_1861_);}
	.st532{clip-path:url(#SVGID_1865_);}
	.st533{clip-path:url(#SVGID_1869_);}
	.st534{clip-path:url(#SVGID_1873_);}
	.st535{clip-path:url(#SVGID_1877_);}
	.st536{clip-path:url(#SVGID_1881_);}
	.st537{clip-path:url(#SVGID_1885_);}
	.st538{clip-path:url(#SVGID_1889_);}
	.st539{clip-path:url(#SVGID_1893_);}
	.st540{clip-path:url(#SVGID_1897_);}
	.st541{clip-path:url(#SVGID_1901_);}
	.st542{clip-path:url(#SVGID_1905_);}
	.st543{clip-path:url(#SVGID_1909_);}
	.st544{clip-path:url(#SVGID_1913_);}
	.st545{clip-path:url(#SVGID_1917_);}
	.st546{clip-path:url(#SVGID_1921_);}
	.st547{clip-path:url(#SVGID_1925_);}
	.st548{clip-path:url(#SVGID_1929_);}
	.st549{clip-path:url(#SVGID_1933_);}
	.st550{clip-path:url(#SVGID_1937_);}
	.st551{clip-path:url(#SVGID_1941_);}
	.st552{clip-path:url(#SVGID_1945_);}
	.st553{clip-path:url(#SVGID_1949_);}
	.st554{clip-path:url(#SVGID_1953_);}
	.st555{clip-path:url(#SVGID_1957_);}
	.st556{clip-path:url(#SVGID_1961_);}
	.st557{clip-path:url(#SVGID_1965_);}
	.st558{clip-path:url(#SVGID_1969_);}
	.st559{clip-path:url(#SVGID_1973_);}
	.st560{clip-path:url(#SVGID_1975_);}
	.st561{clip-path:url(#SVGID_1979_);}
	.st562{clip-path:url(#SVGID_1983_);}
	.st563{clip-path:url(#SVGID_1987_);}
	.st564{clip-path:url(#SVGID_1991_);}
	.st565{clip-path:url(#SVGID_1995_);}
	.st566{clip-path:url(#SVGID_1999_);}
	.st567{clip-path:url(#SVGID_2003_);}
	.st568{clip-path:url(#SVGID_2007_);}
	.st569{clip-path:url(#SVGID_2011_);}
	.st570{clip-path:url(#SVGID_2015_);}
	.st571{clip-path:url(#SVGID_2019_);}
	.st572{clip-path:url(#SVGID_2023_);}
	.st573{clip-path:url(#SVGID_2027_);}
	.st574{clip-path:url(#SVGID_2029_);}
	.st575{clip-path:url(#SVGID_2033_);}
	.st576{clip-path:url(#SVGID_2035_);}
	.st577{clip-path:url(#SVGID_2039_);}
	.st578{clip-path:url(#SVGID_2043_);}
	.st579{clip-path:url(#SVGID_2045_);}
	.st580{clip-path:url(#SVGID_2049_);}
	.st581{clip-path:url(#SVGID_2051_);}
	.st582{clip-path:url(#SVGID_2055_);}
	.st583{clip-path:url(#SVGID_2057_);}
	.st584{clip-path:url(#SVGID_2061_);}
	.st585{clip-path:url(#SVGID_2065_);}
	.st586{clip-path:url(#SVGID_2069_);}
	.st587{clip-path:url(#SVGID_2073_);}
	.st588{clip-path:url(#SVGID_2077_);}
	.st589{clip-path:url(#SVGID_2081_);fill:#FFFFFF;}
	.st590{opacity:0.74;fill:url(#SVGID_2082_);}
	.st591{opacity:0.44;fill:url(#SVGID_2083_);}
	.st592{opacity:0.89;fill:url(#SVGID_2084_);}
	.st593{opacity:0.65;fill:url(#SVGID_2085_);}
	.st594{fill:url(#SVGID_2086_);}
	.st595{opacity:0.5;fill:url(#SVGID_2087_);}
	.st596{fill:url(#SVGID_2088_);}
	.st597{clip-path:url(#SVGID_2089_);fill:none;stroke:#002D73;stroke-width:3.1257;stroke-linecap:round;stroke-miterlimit:10;}
	.st598{fill:url(#SVGID_2092_);stroke:#FFFFFF;stroke-width:1.8484;stroke-miterlimit:10;}
	.st599{fill:url(#SVGID_2093_);}
	.st600{clip-path:url(#SVGID_2095_);fill:#FFFFFF;}
	.st601{clip-path:url(#SVGID_2097_);fill:url(#SVGID_2098_);}
	.st602{clip-path:url(#SVGID_2097_);fill:url(#SVGID_2099_);}
	.st603{fill:none;stroke:#002D73;stroke-linecap:round;stroke-miterlimit:10;}
	.st604{display:none;fill:none;}
</style>
<g id="Layer_1">
	<g>
		<g>
			<g>
				<path class="st276" d="M2.1,20.1c-0.1,0.5-0.3,1-0.3,1.5c-0.1,0.5-0.1,1-0.2,1.5c0,0.5,0,1.1,0,1.7c0,0.6,0,1.1,0,1.7
					c0,0.5,0.1,1,0.2,1.5c0.1,0.5,0.2,1,0.3,1.4c0.1,0.5,0.3,0.9,0.5,1.4l-0.2,0.3c-0.5-0.9-0.9-1.9-1.1-3C1.1,27.1,1,25.9,1,24.8
					c0-0.6,0-1.1,0.1-1.7c0.1-0.6,0.2-1.1,0.3-1.7c0.1-0.5,0.3-1.1,0.5-1.6c0.2-0.5,0.4-1,0.6-1.4l0.2,0.3
					C2.4,19.1,2.3,19.6,2.1,20.1z"/>
				<path class="st276" d="M5.1,18.6c-0.1,0-0.2,0-0.3,0.1c-0.1,0.1-0.2,0.2-0.2,0.3c-0.1,0.1-0.1,0.3-0.1,0.5c0,0.2,0,0.4,0,0.6
					c0,0.2,0,0.5,0,0.8c0,0.3,0.1,0.7,0.1,1c0.2,0,0.3,0,0.5,0c0.2,0,0.3,0,0.5,0c0,0.1,0,0.1,0,0.2c0,0.1,0,0.1,0,0.2
					c0,0.1,0,0.1,0,0.2c0,0.1,0,0.1,0,0.2c-0.2,0-0.3,0-0.5,0c-0.2,0-0.3,0-0.5,0c0,1.1,0,2.2,0,3.3c0,1.1,0,2.2,0,3.3
					c-0.1,0-0.1,0-0.2,0c-0.1,0-0.1,0-0.2,0c-0.1,0-0.3,0-0.4,0c0-1.1,0.1-2.2,0.1-3.3c0-1.1,0-2.2,0-3.3c-0.1,0-0.2,0-0.3,0
					c-0.1,0-0.2,0-0.3,0c0-0.1,0-0.1,0-0.2c0-0.1,0-0.1,0-0.2c0-0.1,0-0.1,0-0.2c0-0.1,0-0.1,0-0.2c0.1,0,0.2,0,0.3,0
					c0.1,0,0.2,0,0.3,0c0-0.3,0-0.6,0.1-1c0-0.3,0.1-0.7,0.2-1c0.1-0.3,0.2-0.7,0.2-1c0.1-0.3,0.2-0.6,0.3-0.8
					C4.7,18,4.8,17.8,5,17.7c0.2-0.1,0.3-0.2,0.5-0.2c0.1,0,0.1,0,0.2,0c0,0.2,0,0.4,0,0.6c0,0.2,0,0.4,0,0.6l-0.1,0
					C5.5,18.6,5.3,18.6,5.1,18.6z"/>
				<path class="st276" d="M6.4,20.8c0-0.4,0-0.8,0-1.2c0-0.4,0-0.8,0-1.1c0-0.4,0-0.7,0-0.9c0.2,0.1,0.3,0.1,0.4,0.1
					c0.1,0,0.2,0,0.4-0.1c0,0.3,0,0.6,0,0.9c0,0.4,0,0.7,0,1.1c0,0.4,0,0.8,0,1.2c0,0.4,0,0.8,0,1.1v2.8c0,0.3,0,0.7,0,1.1
					c0,0.4,0,0.8,0,1.2c0,0.4,0,0.8,0,1.1c0,0.4,0,0.7,0,0.9c-0.1,0-0.3,0-0.4,0c-0.1,0-0.3,0-0.4,0c0-0.2,0-0.5,0-0.9
					c0-0.4,0-0.7,0-1.1c0-0.4,0-0.8,0-1.2c0-0.4,0-0.8,0-1.1v-2.8C6.4,21.6,6.4,21.2,6.4,20.8z"/>
				<path class="st276" d="M8.7,25.4c0-0.4,0-0.8,0-1.1c0-0.4,0-0.7,0-1.2c0-0.4,0-0.8,0-1.3c0.2,0.1,0.3,0.1,0.4,0.1
					c0.1,0,0.2,0,0.4-0.1c0,0.6-0.1,1.3-0.1,2c0,0.7,0,1.5,0,2.3c0,0.5,0,0.9,0.1,1.2c0.1,0.3,0.1,0.5,0.2,0.6
					c0.1,0.2,0.2,0.3,0.3,0.4c0.1,0.1,0.3,0.2,0.5,0.2c0.3,0,0.5-0.1,0.6-0.3c0.2-0.2,0.3-0.4,0.4-0.7c0-0.2,0.1-0.3,0.1-0.4
					c0-0.1,0-0.3,0.1-0.5c0-0.2,0-0.5,0-0.8c0-0.3,0-0.8,0-1.4V23c0-0.2,0-0.4,0-0.6c0-0.2,0-0.4,0-0.6c0.1,0,0.1,0,0.2,0.1
					c0.1,0,0.1,0,0.2,0c0.1,0,0.1,0,0.2,0c0.1,0,0.1,0,0.2-0.1c0,0.8,0,1.6-0.1,2.3c0,0.7,0,1.5,0,2.4c0,0.5,0,0.9,0,1.4
					c0,0.4,0,0.9,0,1.3c-0.1,0-0.2,0-0.4,0c-0.1,0-0.2,0-0.4,0c0-0.1,0-0.2,0-0.3c0-0.1,0-0.2,0-0.3v-0.7h0
					c-0.2,0.5-0.4,0.9-0.6,1.1c-0.2,0.2-0.5,0.3-0.8,0.3c-0.5,0-0.8-0.2-1.1-0.6c-0.3-0.4-0.4-1-0.4-1.8C8.7,26.2,8.7,25.8,8.7,25.4
					z"/>
				<path class="st276" d="M14.6,19.7c0,0.4,0,0.8,0,1.1c0,0.4,0,0.8,0,1.1c0.1,0,0.2,0,0.4,0c0.2,0,0.4,0,0.6,0c0,0,0,0.1,0,0.2
					v0.2v0.2c0,0.1,0,0.1,0,0.2c-0.1,0-0.2,0-0.2,0c-0.1,0-0.2,0-0.3,0h-0.4c0,0,0,0.2,0,0.5c0,0.3,0,0.6,0,1c0,0.4,0,0.8,0,1.2
					c0,0.4,0,0.8,0,1.2c0,0.3,0,0.6,0,0.8c0,0.3,0,0.5,0.1,0.7c0,0.2,0.1,0.4,0.2,0.5c0.1,0.1,0.2,0.2,0.4,0.2c0,0,0.1,0,0.2,0
					c0.1,0,0.2,0,0.2-0.1v0.4c-0.1,0-0.2,0.1-0.3,0.1c-0.1,0-0.2,0.1-0.4,0.1c-0.4,0-0.7-0.2-0.8-0.5c-0.2-0.3-0.3-0.8-0.3-1.4
					c0-0.3,0-0.6,0-0.9c0-0.3,0-0.7,0-1.1c0-0.4,0-0.8,0-1.3c0-0.5,0-1,0-1.6h-0.3c0,0-0.1,0-0.2,0c-0.1,0-0.1,0-0.2,0
					c0-0.1,0-0.1,0-0.2c0-0.1,0-0.1,0-0.2c0-0.1,0-0.1,0-0.2c0-0.1,0-0.1,0-0.2c0.3,0,0.5,0,0.6,0c0-0.2,0-0.5,0-0.8
					c0-0.3,0-0.6,0-1L14.6,19.7L14.6,19.7z"/>
				<path class="st276" d="M16.6,18.6c0.1-0.2,0.2-0.2,0.3-0.2c0.1,0,0.2,0.1,0.3,0.2c0.1,0.2,0.1,0.3,0.1,0.6c0,0.2,0,0.4-0.1,0.6
					c-0.1,0.2-0.2,0.2-0.3,0.2c-0.1,0-0.2-0.1-0.3-0.2c-0.1-0.2-0.1-0.3-0.1-0.6C16.4,18.9,16.5,18.7,16.6,18.6z M16.5,23.2
					c0-0.5,0-1-0.1-1.4c0.2,0.1,0.3,0.1,0.4,0.1c0.1,0,0.2,0,0.4-0.1c0,0.4,0,0.9-0.1,1.4c0,0.5,0,1,0,1.5v1.6c0,0.5,0,0.9,0,1.5
					c0,0.5,0,1,0.1,1.4c-0.1,0-0.3,0-0.4,0c-0.1,0-0.3,0-0.4,0c0-0.4,0-0.9,0.1-1.4c0-0.5,0-1,0-1.5v-1.6
					C16.5,24.2,16.5,23.7,16.5,23.2z"/>
				<path class="st276" d="M18.7,23.8c0.1-0.5,0.3-0.9,0.5-1.2c0.2-0.3,0.5-0.5,0.7-0.7c0.3-0.1,0.6-0.2,0.9-0.2
					c0.3,0,0.6,0.1,0.9,0.2c0.3,0.1,0.5,0.3,0.6,0.5c0,0.2-0.1,0.3-0.1,0.5c0,0.2-0.1,0.3-0.1,0.5H22c0-0.1-0.1-0.3-0.2-0.4
					c-0.1-0.1-0.2-0.3-0.3-0.4c-0.1-0.1-0.2-0.2-0.3-0.3c-0.1-0.1-0.3-0.1-0.4-0.1c-0.3,0-0.5,0.1-0.7,0.3c-0.2,0.2-0.4,0.4-0.5,0.7
					c-0.1,0.3-0.2,0.6-0.3,1.1c-0.1,0.4-0.1,0.8-0.1,1.3c0,1.1,0.1,1.9,0.4,2.4c0.3,0.5,0.7,0.8,1.2,0.8c0.1,0,0.2,0,0.4-0.1
					c0.1-0.1,0.3-0.1,0.4-0.2c0.1-0.1,0.2-0.2,0.3-0.3c0.1-0.1,0.2-0.3,0.3-0.4l0,0c0,0.2,0,0.5-0.1,0.8c-0.2,0.2-0.4,0.5-0.7,0.6
					c-0.3,0.2-0.5,0.3-0.8,0.3c-0.3,0-0.5-0.1-0.8-0.2c-0.3-0.1-0.5-0.3-0.7-0.6c-0.2-0.3-0.4-0.7-0.5-1.2c-0.1-0.5-0.2-1.1-0.2-1.8
					C18.5,24.8,18.6,24.2,18.7,23.8z"/>
				<path class="st276" d="M24.2,21.8c0.2-0.1,0.5-0.2,0.7-0.2c0.2,0,0.4,0.1,0.6,0.2c0.2,0.1,0.3,0.3,0.5,0.5
					c0.1,0.2,0.2,0.4,0.3,0.7c0.1,0.3,0.1,0.6,0.1,0.9c0,0.6,0,1.2,0,1.7c0,0.6,0,1.2,0,1.8c0,0.1,0,0.3,0,0.4c0,0.1,0,0.3,0,0.4
					c0,0.1,0.1,0.2,0.1,0.3c0,0.1,0.1,0.1,0.2,0.1c0,0,0.1,0,0.1,0c0,0,0.1,0,0.1-0.1v0.3c-0.1,0.1-0.1,0.1-0.2,0.1
					c-0.1,0-0.2,0-0.3,0c-0.2,0-0.3-0.1-0.5-0.3c-0.1-0.2-0.2-0.4-0.2-0.7c-0.2,0.4-0.4,0.6-0.6,0.8c-0.2,0.2-0.5,0.3-0.8,0.3
					c-0.2,0-0.3,0-0.4-0.1c-0.1-0.1-0.3-0.2-0.4-0.4c-0.1-0.2-0.2-0.4-0.3-0.6c-0.1-0.2-0.1-0.5-0.1-0.8c0-0.6,0.1-1.1,0.3-1.4
					c0.2-0.3,0.5-0.6,0.9-0.7c0.3-0.1,0.6-0.2,0.8-0.2c0.2-0.1,0.3-0.1,0.4-0.2c0.1-0.1,0.1-0.2,0.2-0.3c0-0.1,0-0.2,0-0.4
					c0-0.3,0-0.5-0.1-0.7c0-0.2-0.1-0.4-0.2-0.6c-0.1-0.2-0.2-0.3-0.3-0.4c-0.1-0.1-0.3-0.2-0.5-0.2c-0.2,0-0.5,0.1-0.7,0.3
					c-0.2,0.2-0.4,0.4-0.5,0.8h-0.1v-0.8C23.7,22.2,24,22,24.2,21.8z M25.3,25.4c-0.1,0-0.3,0.1-0.4,0.1c-0.1,0-0.3,0.1-0.4,0.2
					c-0.1,0.1-0.3,0.2-0.4,0.3c-0.1,0.1-0.2,0.3-0.3,0.5c-0.1,0.2-0.1,0.4-0.1,0.7c0,0.5,0.1,0.8,0.2,1.1c0.2,0.2,0.3,0.4,0.5,0.4
					c0.2,0,0.4-0.1,0.6-0.3c0.2-0.2,0.3-0.5,0.4-0.8l0-2.3C25.6,25.3,25.5,25.4,25.3,25.4z"/>
				<path class="st276" d="M28,28c0.1,0.1,0.1,0.2,0.2,0.3c0.1,0.1,0.2,0.2,0.3,0.3c0.1,0.1,0.2,0.1,0.4,0.1c0.1,0,0.2,0,0.3-0.1
					c0.1-0.1,0.2-0.1,0.3-0.3c0.1-0.1,0.1-0.3,0.2-0.4c0-0.2,0.1-0.4,0.1-0.6c0-0.3-0.1-0.6-0.2-0.7c-0.1-0.2-0.2-0.3-0.4-0.4
					c-0.2-0.1-0.3-0.2-0.5-0.3c-0.2-0.1-0.4-0.2-0.5-0.3c-0.2-0.1-0.3-0.3-0.4-0.6c-0.1-0.2-0.2-0.6-0.2-1c0-0.3,0-0.6,0.1-0.9
					c0.1-0.3,0.2-0.5,0.3-0.7c0.1-0.2,0.3-0.4,0.5-0.5c0.2-0.1,0.4-0.2,0.6-0.2c0.2,0,0.4,0.1,0.6,0.2c0.2,0.1,0.3,0.2,0.4,0.3
					c0,0.2-0.1,0.3-0.1,0.6c0,0.2-0.1,0.4-0.1,0.5h-0.1c0-0.2-0.1-0.5-0.3-0.7c-0.1-0.2-0.3-0.3-0.5-0.3c-0.1,0-0.2,0-0.3,0.1
					c-0.1,0.1-0.2,0.1-0.2,0.2c-0.1,0.1-0.1,0.2-0.2,0.4c0,0.2-0.1,0.4-0.1,0.6c0,0.3,0.1,0.6,0.2,0.8c0.1,0.2,0.2,0.3,0.4,0.4
					c0.2,0.1,0.3,0.2,0.5,0.3c0.2,0.1,0.4,0.2,0.5,0.3c0.2,0.1,0.3,0.3,0.4,0.6c0.1,0.2,0.2,0.6,0.2,1c0,0.3,0,0.6-0.1,0.9
					c-0.1,0.3-0.2,0.5-0.3,0.8c-0.1,0.2-0.3,0.4-0.5,0.5c-0.2,0.1-0.4,0.2-0.7,0.2c-0.3,0-0.5,0-0.7-0.1c-0.2-0.1-0.3-0.2-0.5-0.3
					c0-0.1,0.1-0.3,0.1-0.5c0-0.2,0.1-0.4,0.1-0.6h0.1C27.9,27.8,27.9,27.9,28,28z"/>
				<path class="st276" d="M31.3,23.7c0.1-0.5,0.3-0.9,0.5-1.2c0.2-0.3,0.4-0.5,0.7-0.7c0.3-0.1,0.5-0.2,0.8-0.2
					c0.3,0,0.5,0.1,0.8,0.2c0.3,0.1,0.5,0.4,0.7,0.7c0.2,0.3,0.4,0.7,0.5,1.2c0.1,0.5,0.2,1.1,0.2,1.8c0,0.7-0.1,1.3-0.2,1.8
					c-0.1,0.5-0.3,0.9-0.5,1.2c-0.2,0.3-0.4,0.5-0.7,0.6c-0.3,0.1-0.5,0.2-0.8,0.2c-0.3,0-0.5-0.1-0.8-0.2c-0.3-0.1-0.5-0.3-0.7-0.6
					c-0.2-0.3-0.4-0.7-0.5-1.2c-0.1-0.5-0.2-1.1-0.2-1.8C31.1,24.8,31.1,24.2,31.3,23.7z M31.9,26.7c0,0.4,0.1,0.8,0.2,1.1
					c0.1,0.3,0.3,0.6,0.4,0.7c0.2,0.2,0.4,0.3,0.7,0.3c0.3,0,0.5-0.1,0.7-0.3c0.2-0.2,0.3-0.4,0.4-0.7c0.1-0.3,0.2-0.7,0.2-1.1
					c0-0.4,0.1-0.8,0.1-1.2c0-0.4,0-0.8-0.1-1.2c0-0.4-0.1-0.8-0.2-1.1c-0.1-0.3-0.3-0.6-0.4-0.7c-0.2-0.2-0.4-0.3-0.7-0.3
					c-0.3,0-0.5,0.1-0.7,0.3c-0.2,0.2-0.3,0.4-0.4,0.7c-0.1,0.3-0.2,0.7-0.2,1.1c0,0.4-0.1,0.8-0.1,1.2
					C31.9,25.9,31.9,26.3,31.9,26.7z"/>
				<path class="st276" d="M39.2,23c-0.2-0.4-0.4-0.6-0.7-0.6c-0.4,0-0.7,0.2-0.9,0.7c-0.2,0.4-0.3,1.1-0.3,1.9v1.3
					c0,0.5,0,0.9,0,1.5c0,0.5,0,1,0.1,1.4c-0.1,0-0.3,0-0.4,0c-0.1,0-0.3,0-0.4,0c0-0.4,0-0.9,0.1-1.4c0-0.5,0-1,0-1.5v-1.6
					c0-0.5,0-0.9,0-1.5c0-0.5,0-1-0.1-1.4c0.2,0.1,0.3,0.1,0.4,0.1c0,0,0.1,0,0.2,0c0.1,0,0.1,0,0.2-0.1c0,0.4,0,0.8,0,1.2h0
					c0.2-0.4,0.4-0.8,0.6-1c0.2-0.2,0.5-0.4,0.8-0.4c0.2,0,0.3,0,0.5,0.1c0.2,0.1,0.3,0.2,0.5,0.4c0.1,0.2,0.3,0.5,0.3,0.8
					c0.1,0.3,0.1,0.8,0.1,1.3c0,0.4,0,0.9,0,1.4c0,0.5,0,1,0,1.5v1c0,0.2,0,0.3,0,0.5c0,0.2,0,0.3,0,0.5c-0.1,0-0.3,0-0.4,0
					c-0.1,0-0.3,0-0.4,0c0-0.5,0-1.1,0-1.6c0-0.6,0-1.1,0-1.7v-0.9C39.5,24,39.4,23.4,39.2,23z"/>
				<path class="st276" d="M41.7,22.7c0.4-0.7,0.9-1.1,1.5-1.1c0.3,0,0.6,0.1,0.8,0.3c0.2,0.2,0.4,0.4,0.6,0.7
					c0.2,0.3,0.3,0.6,0.3,1c0.1,0.4,0.1,0.8,0.1,1.2c0,0.1,0,0.2,0,0.3c0,0.1,0,0.2,0,0.3c-0.3,0-0.7,0-1,0c-0.3,0-0.6,0-1,0
					c-0.2,0-0.4,0-0.6,0c-0.2,0-0.4,0-0.6,0c0,0.1,0,0.1,0,0.2v0.2c0,0.4,0,0.8,0.1,1.1c0.1,0.3,0.2,0.6,0.3,0.9
					c0.1,0.3,0.3,0.5,0.5,0.6c0.2,0.1,0.4,0.2,0.7,0.2c0.1,0,0.2,0,0.4-0.1c0.1-0.1,0.3-0.1,0.4-0.2c0.1-0.1,0.2-0.2,0.3-0.3
					c0.1-0.1,0.2-0.3,0.3-0.4l0,0l-0.1,0.8c-0.2,0.2-0.4,0.5-0.7,0.6c-0.3,0.2-0.5,0.3-0.8,0.3c-0.3,0-0.6-0.1-0.9-0.3
					c-0.3-0.2-0.5-0.4-0.7-0.7c-0.2-0.3-0.3-0.7-0.5-1.1c-0.1-0.4-0.2-0.9-0.2-1.4C41.2,24.4,41.3,23.4,41.7,22.7z M42.7,22.4
					c-0.2,0.2-0.3,0.4-0.4,0.7c-0.1,0.3-0.2,0.5-0.2,0.9C42,24.2,42,24.5,42,24.8c0.2,0,0.4,0,0.6,0c0.2,0,0.4,0,0.6,0
					c0.2,0,0.4,0,0.6,0c0.2,0,0.4,0,0.6,0c0-0.3,0-0.6,0-0.9c0-0.3-0.1-0.6-0.2-0.9c-0.1-0.3-0.2-0.5-0.3-0.7
					c-0.1-0.2-0.3-0.3-0.6-0.3C43,22.1,42.9,22.2,42.7,22.4z"/>
				<path class="st276" d="M50,18.6c-0.1,0-0.2,0-0.3,0.1c-0.1,0.1-0.2,0.2-0.2,0.3c-0.1,0.1-0.1,0.3-0.1,0.5c0,0.2,0,0.4,0,0.6
					c0,0.2,0,0.5,0,0.8c0,0.3,0.1,0.7,0.1,1c0.2,0,0.3,0,0.5,0c0.2,0,0.3,0,0.5,0c0,0.1,0,0.1,0,0.2c0,0.1,0,0.1,0,0.2
					c0,0.1,0,0.1,0,0.2c0,0.1,0,0.1,0,0.2c-0.2,0-0.3,0-0.5,0c-0.2,0-0.3,0-0.5,0c0,1.1,0,2.2,0,3.3c0,1.1,0,2.2,0,3.3
					c-0.1,0-0.1,0-0.2,0c-0.1,0-0.1,0-0.2,0c-0.1,0-0.3,0-0.4,0c0-1.1,0.1-2.2,0.1-3.3c0-1.1,0-2.2,0-3.3c-0.1,0-0.2,0-0.3,0
					c-0.1,0-0.2,0-0.3,0c0-0.1,0-0.1,0-0.2c0-0.1,0-0.1,0-0.2c0-0.1,0-0.1,0-0.2c0-0.1,0-0.1,0-0.2c0.1,0,0.2,0,0.3,0
					c0.1,0,0.2,0,0.3,0c0-0.3,0-0.6,0.1-1c0-0.3,0.1-0.7,0.2-1c0.1-0.3,0.2-0.7,0.2-1c0.1-0.3,0.2-0.6,0.3-0.8
					c0.1-0.2,0.2-0.3,0.4-0.5c0.2-0.1,0.3-0.2,0.5-0.2c0.1,0,0.1,0,0.2,0c0,0.2,0,0.4,0,0.6c0,0.2,0,0.4,0,0.6l-0.1,0
					C50.4,18.6,50.2,18.6,50,18.6z"/>
				<path class="st276" d="M51.1,25.4c0-0.4,0-0.8,0-1.1c0-0.4,0-0.7,0-1.2c0-0.4,0-0.8,0-1.3c0.2,0.1,0.3,0.1,0.4,0.1
					c0.1,0,0.2,0,0.4-0.1c0,0.6-0.1,1.3-0.1,2c0,0.7,0,1.5,0,2.3c0,0.5,0,0.9,0.1,1.2c0.1,0.3,0.1,0.5,0.2,0.6
					c0.1,0.2,0.2,0.3,0.3,0.4c0.1,0.1,0.3,0.2,0.5,0.2c0.3,0,0.5-0.1,0.6-0.3c0.2-0.2,0.3-0.4,0.4-0.7c0-0.2,0.1-0.3,0.1-0.4
					c0-0.1,0-0.3,0.1-0.5c0-0.2,0-0.5,0-0.8c0-0.3,0-0.8,0-1.4V23c0-0.2,0-0.4,0-0.6c0-0.2,0-0.4,0-0.6c0.1,0,0.1,0,0.2,0.1
					c0.1,0,0.1,0,0.2,0c0.1,0,0.1,0,0.2,0c0.1,0,0.1,0,0.2-0.1c0,0.8,0,1.6-0.1,2.3c0,0.7,0,1.5,0,2.4c0,0.5,0,0.9,0,1.4
					c0,0.4,0,0.9,0,1.3c-0.1,0-0.2,0-0.4,0s-0.2,0-0.4,0c0-0.1,0-0.2,0-0.3c0-0.1,0-0.2,0-0.3v-0.7h0c-0.2,0.5-0.4,0.9-0.6,1.1
					c-0.2,0.2-0.5,0.3-0.8,0.3c-0.5,0-0.8-0.2-1.1-0.6c-0.3-0.4-0.4-1-0.4-1.8C51.1,26.2,51.1,25.8,51.1,25.4z"/>
				<path class="st276" d="M58.1,22.9c-0.1-0.1-0.2-0.1-0.3-0.1c-0.1,0-0.3,0.1-0.4,0.2c-0.1,0.1-0.2,0.3-0.3,0.5
					c-0.1,0.2-0.1,0.4-0.2,0.7c0,0.3-0.1,0.5-0.1,0.8v1.7c0,0.7,0,1.2,0,1.6c0,0.4,0,0.7,0,0.9c-0.1,0-0.2,0-0.4,0
					c-0.1,0-0.3,0-0.4,0c0-0.3,0-0.8,0-1.4c0-0.6,0-1.3,0-2.2V25c0-0.4,0-0.9,0-1.4c0-0.5,0-1.1,0-1.8c0.1,0,0.1,0,0.2,0.1
					c0.1,0,0.1,0,0.2,0c0.1,0,0.1,0,0.2,0c0.1,0,0.1,0,0.2-0.1c0,0.4,0,0.7,0,0.9c0,0.2,0,0.4,0,0.6l0,0c0.4-1.1,0.8-1.7,1.2-1.7
					c0.1,0,0.1,0,0.1,0c0,0,0.1,0,0.1,0.1c0,0.1,0,0.3-0.1,0.6c0,0.3,0,0.5,0,0.7l-0.1,0.1C58.2,23,58.2,23,58.1,22.9z"/>
				<path class="st276" d="M59,23.7c0.1-0.5,0.3-0.9,0.5-1.2c0.2-0.3,0.4-0.5,0.7-0.7c0.3-0.1,0.5-0.2,0.8-0.2
					c0.3,0,0.5,0.1,0.8,0.2c0.3,0.1,0.5,0.4,0.7,0.7c0.2,0.3,0.4,0.7,0.5,1.2c0.1,0.5,0.2,1.1,0.2,1.8c0,0.7-0.1,1.3-0.2,1.8
					c-0.1,0.5-0.3,0.9-0.5,1.2c-0.2,0.3-0.4,0.5-0.7,0.6c-0.3,0.1-0.5,0.2-0.8,0.2c-0.3,0-0.5-0.1-0.8-0.2c-0.3-0.1-0.5-0.3-0.7-0.6
					c-0.2-0.3-0.4-0.7-0.5-1.2c-0.1-0.5-0.2-1.1-0.2-1.8C58.8,24.8,58.9,24.2,59,23.7z M59.7,26.7c0,0.4,0.1,0.8,0.2,1.1
					c0.1,0.3,0.3,0.6,0.4,0.7c0.2,0.2,0.4,0.3,0.7,0.3c0.3,0,0.5-0.1,0.7-0.3c0.2-0.2,0.3-0.4,0.4-0.7c0.1-0.3,0.2-0.7,0.2-1.1
					c0-0.4,0.1-0.8,0.1-1.2c0-0.4,0-0.8-0.1-1.2c0-0.4-0.1-0.8-0.2-1.1c-0.1-0.3-0.3-0.6-0.4-0.7c-0.2-0.2-0.4-0.3-0.7-0.3
					c-0.3,0-0.5,0.1-0.7,0.3c-0.2,0.2-0.3,0.4-0.4,0.7c-0.1,0.3-0.2,0.7-0.2,1.1c0,0.4-0.1,0.8-0.1,1.2
					C59.6,25.9,59.6,26.3,59.7,26.7z"/>
				<path class="st276" d="M65.1,21.8c0.2-0.1,0.5-0.2,0.7-0.2c0.2,0,0.4,0.1,0.6,0.2c0.2,0.1,0.3,0.3,0.5,0.5
					c0.1,0.2,0.2,0.4,0.3,0.7c0.1,0.3,0.1,0.6,0.1,0.9c0,0.6,0,1.2,0,1.7c0,0.6,0,1.2,0,1.8c0,0.1,0,0.3,0,0.4c0,0.1,0,0.3,0,0.4
					c0,0.1,0.1,0.2,0.1,0.3c0,0.1,0.1,0.1,0.2,0.1c0,0,0.1,0,0.1,0c0,0,0.1,0,0.1-0.1v0.3c-0.1,0.1-0.1,0.1-0.2,0.1
					c-0.1,0-0.2,0-0.3,0c-0.2,0-0.3-0.1-0.5-0.3c-0.1-0.2-0.2-0.4-0.2-0.7c-0.2,0.4-0.4,0.6-0.6,0.8c-0.2,0.2-0.5,0.3-0.8,0.3
					c-0.2,0-0.3,0-0.4-0.1c-0.1-0.1-0.3-0.2-0.4-0.4c-0.1-0.2-0.2-0.4-0.3-0.6c-0.1-0.2-0.1-0.5-0.1-0.8c0-0.6,0.1-1.1,0.3-1.4
					c0.2-0.3,0.5-0.6,0.9-0.7c0.3-0.1,0.6-0.2,0.8-0.2c0.2-0.1,0.3-0.1,0.4-0.2c0.1-0.1,0.1-0.2,0.2-0.3c0-0.1,0-0.2,0-0.4
					c0-0.3,0-0.5-0.1-0.7c0-0.2-0.1-0.4-0.2-0.6c-0.1-0.2-0.2-0.3-0.3-0.4c-0.1-0.1-0.3-0.2-0.5-0.2c-0.2,0-0.5,0.1-0.7,0.3
					c-0.2,0.2-0.4,0.4-0.5,0.8h-0.1v-0.8C64.6,22.2,64.9,22,65.1,21.8z M66.2,25.4c-0.1,0-0.3,0.1-0.4,0.1c-0.1,0-0.3,0.1-0.4,0.2
					c-0.1,0.1-0.3,0.2-0.4,0.3c-0.1,0.1-0.2,0.3-0.3,0.5c-0.1,0.2-0.1,0.4-0.1,0.7c0,0.5,0.1,0.8,0.2,1.1c0.2,0.2,0.3,0.4,0.5,0.4
					c0.2,0,0.4-0.1,0.6-0.3c0.2-0.2,0.3-0.5,0.4-0.8l0-2.3C66.5,25.3,66.3,25.4,66.2,25.4z"/>
				<path class="st276" d="M69.6,19.7c0,0.4,0,0.8,0,1.1c0,0.4,0,0.8,0,1.1c0.1,0,0.2,0,0.4,0c0.2,0,0.4,0,0.6,0c0,0,0,0.1,0,0.2
					v0.2v0.2c0,0.1,0,0.1,0,0.2c-0.1,0-0.2,0-0.2,0c-0.1,0-0.2,0-0.3,0h-0.4c0,0,0,0.2,0,0.5c0,0.3,0,0.6,0,1c0,0.4,0,0.8,0,1.2
					c0,0.4,0,0.8,0,1.2c0,0.3,0,0.6,0,0.8c0,0.3,0,0.5,0.1,0.7c0,0.2,0.1,0.4,0.2,0.5c0.1,0.1,0.2,0.2,0.4,0.2c0,0,0.1,0,0.2,0
					c0.1,0,0.2,0,0.2-0.1v0.4c-0.1,0-0.2,0.1-0.3,0.1c-0.1,0-0.2,0.1-0.4,0.1c-0.4,0-0.7-0.2-0.8-0.5c-0.2-0.3-0.3-0.8-0.3-1.4
					c0-0.3,0-0.6,0-0.9c0-0.3,0-0.7,0-1.1c0-0.4,0-0.8,0-1.3c0-0.5,0-1,0-1.6h-0.3c0,0-0.1,0-0.2,0c-0.1,0-0.1,0-0.2,0
					c0-0.1,0-0.1,0-0.2c0-0.1,0-0.1,0-0.2c0-0.1,0-0.1,0-0.2c0-0.1,0-0.1,0-0.2c0.3,0,0.5,0,0.6,0c0-0.2,0-0.5,0-0.8
					c0-0.3,0-0.6,0-1L69.6,19.7L69.6,19.7z"/>
				<path class="st276" d="M71.5,22.7c0.4-0.7,0.9-1.1,1.5-1.1c0.3,0,0.6,0.1,0.8,0.3c0.2,0.2,0.4,0.4,0.6,0.7
					c0.2,0.3,0.3,0.6,0.3,1c0.1,0.4,0.1,0.8,0.1,1.2c0,0.1,0,0.2,0,0.3c0,0.1,0,0.2,0,0.3c-0.3,0-0.7,0-1,0c-0.3,0-0.6,0-1,0
					c-0.2,0-0.4,0-0.6,0c-0.2,0-0.4,0-0.6,0c0,0.1,0,0.1,0,0.2v0.2c0,0.4,0,0.8,0.1,1.1c0.1,0.3,0.2,0.6,0.3,0.9
					c0.1,0.3,0.3,0.5,0.5,0.6c0.2,0.1,0.4,0.2,0.7,0.2c0.1,0,0.2,0,0.4-0.1c0.1-0.1,0.3-0.1,0.4-0.2c0.1-0.1,0.2-0.2,0.3-0.3
					c0.1-0.1,0.2-0.3,0.3-0.4l0,0l-0.1,0.8c-0.2,0.2-0.4,0.5-0.7,0.6c-0.3,0.2-0.5,0.3-0.8,0.3c-0.3,0-0.6-0.1-0.9-0.3
					c-0.3-0.2-0.5-0.4-0.7-0.7c-0.2-0.3-0.3-0.7-0.5-1.1c-0.1-0.4-0.2-0.9-0.2-1.4C70.9,24.4,71.1,23.4,71.5,22.7z M72.5,22.4
					c-0.2,0.2-0.3,0.4-0.4,0.7c-0.1,0.3-0.2,0.5-0.2,0.9c-0.1,0.3-0.1,0.6-0.1,0.9c0.2,0,0.4,0,0.6,0c0.2,0,0.4,0,0.6,0
					c0.2,0,0.4,0,0.6,0c0.2,0,0.4,0,0.6,0c0-0.3,0-0.6,0-0.9c0-0.3-0.1-0.6-0.2-0.9c-0.1-0.3-0.2-0.5-0.3-0.7
					c-0.1-0.2-0.3-0.3-0.6-0.3C72.8,22.1,72.6,22.2,72.5,22.4z"/>
			</g>
			<g>
				<path class="st276" d="M77.7,20.7c-0.1-0.2-0.2-0.4-0.3-0.5v-0.1c0.3-0.2,0.7-0.5,1.1-0.8c0.4-0.3,0.7-0.6,1-0.8l0.1,0.1
					c0,0.7,0,1.3-0.1,2c0,0.7,0,1.3,0,2v2.6c0,0.7,0,1.3,0,2c0,0.7,0,1.3,0.1,1.9c-0.1,0-0.1,0-0.2,0c-0.1,0-0.1,0-0.2,0
					c-0.1,0-0.1,0-0.2,0c-0.1,0-0.1,0-0.2,0c0-0.6,0-1.3,0.1-1.9c0-0.6,0-1.3,0-2v-5.5L77.7,20.7z"/>
			</g>
			<g>
				<path class="st276" d="M81,21.8c0.1-0.7,0.2-1.2,0.4-1.7c0.2-0.5,0.4-0.9,0.7-1.2c0.3-0.3,0.6-0.4,1-0.4c0.4,0,0.8,0.1,1.1,0.4
					c0.3,0.3,0.5,0.7,0.6,1.2c0.2,0.5,0.3,1.1,0.3,1.7c0.1,0.7,0.1,1.4,0.1,2.1c0,0.7,0,1.4-0.1,2.1c-0.1,0.6-0.2,1.2-0.4,1.7
					c-0.2,0.5-0.4,0.9-0.7,1.2c-0.3,0.3-0.6,0.4-1,0.4c-0.4,0-0.8-0.1-1.1-0.4c-0.3-0.3-0.5-0.7-0.6-1.1c-0.2-0.5-0.3-1.1-0.3-1.7
					c-0.1-0.7-0.1-1.4-0.1-2.1C80.9,23.2,80.9,22.5,81,21.8z M81.7,25.9c0,0.6,0.1,1.1,0.2,1.6c0.1,0.4,0.3,0.8,0.4,1
					c0.2,0.3,0.4,0.4,0.7,0.4c0.3,0,0.5-0.1,0.7-0.4c0.2-0.3,0.3-0.6,0.4-1c0.1-0.4,0.2-1,0.2-1.6c0-0.6,0.1-1.2,0.1-1.9
					c0-0.7,0-1.3-0.1-1.9s-0.1-1.1-0.2-1.6c-0.1-0.4-0.3-0.8-0.4-1C83.5,19.2,83.3,19,83,19c-0.3,0-0.5,0.1-0.7,0.3
					c-0.2,0.2-0.3,0.6-0.4,1c-0.1,0.4-0.2,0.9-0.2,1.5c0,0.6-0.1,1.3-0.1,2C81.7,24.6,81.7,25.3,81.7,25.9z"/>
			</g>
			<g>
				<path class="st276" d="M86.4,21.8c0.1-0.7,0.2-1.2,0.4-1.7c0.2-0.5,0.4-0.9,0.7-1.2c0.3-0.3,0.6-0.4,1-0.4
					c0.4,0,0.8,0.1,1.1,0.4c0.3,0.3,0.5,0.7,0.6,1.2c0.2,0.5,0.3,1.1,0.3,1.7c0.1,0.7,0.1,1.4,0.1,2.1c0,0.7,0,1.4-0.1,2.1
					c-0.1,0.6-0.2,1.2-0.4,1.7c-0.2,0.5-0.4,0.9-0.7,1.2c-0.3,0.3-0.6,0.4-1,0.4c-0.4,0-0.8-0.1-1.1-0.4c-0.3-0.3-0.5-0.7-0.6-1.1
					c-0.2-0.5-0.3-1.1-0.3-1.7c-0.1-0.7-0.1-1.4-0.1-2.1C86.3,23.2,86.4,22.5,86.4,21.8z M87.1,25.9c0,0.6,0.1,1.1,0.2,1.6
					c0.1,0.4,0.3,0.8,0.4,1c0.2,0.3,0.4,0.4,0.7,0.4c0.3,0,0.5-0.1,0.7-0.4c0.2-0.3,0.3-0.6,0.4-1c0.1-0.4,0.2-1,0.2-1.6
					c0-0.6,0.1-1.2,0.1-1.9c0-0.7,0-1.3-0.1-1.9c0-0.6-0.1-1.1-0.2-1.6c-0.1-0.4-0.3-0.8-0.4-1c-0.2-0.3-0.4-0.4-0.7-0.4
					c-0.3,0-0.5,0.1-0.7,0.3c-0.2,0.2-0.3,0.6-0.4,1c-0.1,0.4-0.2,0.9-0.2,1.5c0,0.6-0.1,1.3-0.1,2C87.1,24.6,87.1,25.3,87.1,25.9z"
					/>
			</g>
			<g>
				<path class="st276" d="M93.7,23.2c0-0.5,0-1-0.1-1.4c0.2,0.1,0.3,0.1,0.4,0.1c0,0,0.1,0,0.2,0c0.1,0,0.1,0,0.2-0.1
					c0,0.4,0,0.8,0,1.2h0c0.3-0.9,0.8-1.4,1.3-1.4c0.2,0,0.3,0,0.4,0.1c0.1,0.1,0.3,0.2,0.4,0.3c0.1,0.1,0.2,0.3,0.3,0.5
					c0.1,0.2,0.1,0.4,0.2,0.6h0c0.1-0.5,0.3-0.9,0.6-1.1c0.3-0.3,0.5-0.4,0.9-0.4c0.2,0,0.4,0,0.6,0.1c0.2,0.1,0.3,0.2,0.4,0.4
					c0.1,0.2,0.2,0.4,0.3,0.8c0.1,0.3,0.1,0.7,0.1,1.1c0,0.2,0,0.4,0,0.6c0,0.2,0,0.4,0,0.7c0,0.3,0,0.6,0,0.9c0,0.3,0,0.7,0,1.2
					c0,0.3,0,0.5,0,0.8c0,0.3,0,0.5,0,0.8c-0.1,0-0.1,0-0.2,0c-0.1,0-0.1,0-0.2,0c-0.1,0-0.1,0-0.2,0c-0.1,0-0.1,0-0.2,0
					c0-0.3,0-0.8,0.1-1.6c0-0.8,0-1.9,0-3.3c0-0.3,0-0.5-0.1-0.7c0-0.2-0.1-0.4-0.2-0.6c-0.1-0.2-0.2-0.3-0.3-0.4
					c-0.1-0.1-0.3-0.1-0.5-0.1c-0.2,0-0.4,0.1-0.6,0.2c-0.2,0.1-0.3,0.3-0.4,0.5c0,0.1-0.1,0.2-0.1,0.3c0,0.1,0,0.3-0.1,0.5
					c0,0.2,0,0.6,0,1c0,0.4,0,1,0,1.7c0,0.4,0,0.8,0,1.2c0,0.4,0,0.8,0,1.2c-0.1,0-0.3,0-0.4,0c-0.1,0-0.3,0-0.4,0
					c0-0.6,0-1.1,0.1-1.7c0-0.6,0-1.2,0-1.7c0-0.5,0-0.9,0-1.1c0-0.3,0-0.5,0-0.6c0-0.2,0-0.3,0-0.4c0-0.1,0-0.2-0.1-0.3
					c-0.1-0.2-0.2-0.4-0.3-0.5c-0.1-0.1-0.3-0.2-0.4-0.2c-0.4,0-0.7,0.2-0.9,0.7c-0.2,0.4-0.3,1.1-0.3,1.9v1.3c0,0.5,0,0.9,0,1.5
					c0,0.5,0,1,0.1,1.4c-0.1,0-0.3,0-0.4,0c-0.1,0-0.3,0-0.4,0c0-0.4,0-0.9,0.1-1.4c0-0.5,0-1,0-1.5v-1.6
					C93.7,24.2,93.7,23.7,93.7,23.2z"/>
				<path class="st276" d="M101.1,23.8c0.1-0.5,0.3-0.9,0.5-1.2c0.2-0.3,0.5-0.5,0.7-0.7c0.3-0.1,0.6-0.2,0.9-0.2
					c0.3,0,0.6,0.1,0.9,0.2c0.3,0.1,0.5,0.3,0.6,0.5c0,0.2-0.1,0.3-0.1,0.5c0,0.2-0.1,0.3-0.1,0.5h-0.1c0-0.1-0.1-0.3-0.2-0.4
					c-0.1-0.1-0.2-0.3-0.3-0.4c-0.1-0.1-0.2-0.2-0.3-0.3c-0.1-0.1-0.3-0.1-0.4-0.1c-0.3,0-0.5,0.1-0.7,0.3c-0.2,0.2-0.4,0.4-0.5,0.7
					c-0.1,0.3-0.2,0.6-0.3,1.1c-0.1,0.4-0.1,0.8-0.1,1.3c0,1.1,0.1,1.9,0.4,2.4c0.3,0.5,0.7,0.8,1.2,0.8c0.1,0,0.2,0,0.4-0.1
					c0.1-0.1,0.3-0.1,0.4-0.2c0.1-0.1,0.2-0.2,0.3-0.3c0.1-0.1,0.2-0.3,0.3-0.4l0,0c0,0.2,0,0.5-0.1,0.8c-0.2,0.2-0.4,0.5-0.7,0.6
					c-0.3,0.2-0.5,0.3-0.8,0.3c-0.3,0-0.5-0.1-0.8-0.2c-0.3-0.1-0.5-0.3-0.7-0.6c-0.2-0.3-0.4-0.7-0.5-1.2c-0.1-0.5-0.2-1.1-0.2-1.8
					C100.9,24.8,101,24.2,101.1,23.8z"/>
				<path class="st276" d="M105.7,23c0.1-0.3,0.2-0.6,0.4-0.8c0.2-0.2,0.3-0.4,0.6-0.5c0.2-0.1,0.4-0.2,0.7-0.2c0.1,0,0.2,0,0.3,0
					c0.1,0,0.2,0,0.4,0c0.1,0,0.3,0,0.4,0c0.1,0,0.2,0,0.3,0c0.3,0,0.6,0,0.7-0.1c0,0.1,0,0.1,0,0.2c0,0.1,0,0.1,0,0.2
					c0,0.1,0,0.1,0,0.2c0,0.1,0,0.1,0,0.2c-0.2,0-0.3,0-0.5-0.1c-0.2,0-0.3,0-0.5-0.1l0,0c0.2,0.2,0.3,0.4,0.5,0.8
					c0.1,0.4,0.2,0.7,0.2,1.1c0,0.8-0.2,1.4-0.5,1.8c-0.3,0.4-0.7,0.7-1.2,0.7c-0.1,0-0.2,0-0.2,0c-0.1,0-0.2,0-0.2,0
					c-0.1,0-0.2,0.1-0.3,0.2c-0.1,0.1-0.1,0.3-0.1,0.5c0,0.3,0,0.5,0.1,0.6s0.2,0.2,0.4,0.2c0.2,0,0.3,0,0.5,0c0.2,0,0.3,0,0.5,0
					c0.3,0,0.5,0.1,0.7,0.2c0.2,0.1,0.4,0.2,0.5,0.4c0.1,0.2,0.2,0.4,0.3,0.6c0.1,0.2,0.1,0.5,0.1,0.7c0,0.4,0,0.7-0.1,1.1
					c-0.1,0.4-0.2,0.7-0.4,1c-0.2,0.3-0.4,0.5-0.7,0.7c-0.3,0.2-0.6,0.3-1,0.3c-0.6,0-1.1-0.2-1.4-0.6c-0.3-0.4-0.5-0.9-0.5-1.6
					c0-0.3,0-0.5,0.1-0.7c0.1-0.2,0.1-0.4,0.2-0.6c0.1-0.2,0.2-0.3,0.3-0.4c0.1-0.1,0.2-0.2,0.4-0.2v0c-0.2-0.1-0.3-0.2-0.4-0.5
					c-0.1-0.2-0.1-0.5-0.1-0.8c0-0.2,0-0.3,0.1-0.5c0-0.1,0.1-0.3,0.1-0.4c0.1-0.1,0.1-0.2,0.2-0.3c0.1-0.1,0.2-0.1,0.2-0.1v0
					c-0.3-0.2-0.5-0.5-0.7-0.9c-0.2-0.4-0.2-0.8-0.2-1.4C105.5,23.7,105.6,23.4,105.7,23z M108.5,29.5c-0.2-0.2-0.6-0.4-1.1-0.4
					c-0.5,0-0.8,0.1-1.1,0.4c-0.2,0.3-0.4,0.7-0.4,1.4c0,0.3,0,0.6,0.1,0.9c0.1,0.2,0.2,0.4,0.3,0.6c0.1,0.2,0.3,0.3,0.4,0.3
					c0.2,0.1,0.3,0.1,0.5,0.1c0.2,0,0.4,0,0.5-0.1c0.2-0.1,0.3-0.2,0.5-0.4c0.1-0.2,0.2-0.4,0.3-0.6c0.1-0.3,0.1-0.6,0.1-0.9
					C108.8,30.1,108.7,29.7,108.5,29.5z M108,22.6c-0.2-0.3-0.4-0.5-0.7-0.5c-0.3,0-0.6,0.2-0.8,0.6c-0.2,0.4-0.3,0.9-0.3,1.5
					c0,0.6,0.1,1.2,0.2,1.5c0.2,0.4,0.4,0.6,0.8,0.6c0.2,0,0.3-0.1,0.4-0.2c0.1-0.1,0.2-0.3,0.3-0.5c0.1-0.2,0.1-0.4,0.2-0.7
					c0-0.3,0.1-0.5,0.1-0.8C108.3,23.4,108.2,22.9,108,22.6z"/>
			</g>
			<g>
				<path class="st276" d="M113.1,21.8c0.2-0.1,0.5-0.2,0.7-0.2c0.2,0,0.4,0.1,0.6,0.2c0.2,0.1,0.3,0.3,0.5,0.5
					c0.1,0.2,0.2,0.4,0.3,0.7c0.1,0.3,0.1,0.6,0.1,0.9c0,0.6,0,1.2,0,1.7c0,0.6,0,1.2,0,1.8c0,0.1,0,0.3,0,0.4c0,0.1,0,0.3,0,0.4
					c0,0.1,0.1,0.2,0.1,0.3c0,0.1,0.1,0.1,0.2,0.1c0,0,0.1,0,0.1,0c0,0,0.1,0,0.1-0.1v0.3c-0.1,0.1-0.1,0.1-0.2,0.1
					c-0.1,0-0.2,0-0.3,0c-0.2,0-0.3-0.1-0.5-0.3c-0.1-0.2-0.2-0.4-0.2-0.7c-0.2,0.4-0.4,0.6-0.6,0.8c-0.2,0.2-0.5,0.3-0.8,0.3
					c-0.2,0-0.3,0-0.4-0.1c-0.1-0.1-0.3-0.2-0.4-0.4c-0.1-0.2-0.2-0.4-0.3-0.6c-0.1-0.2-0.1-0.5-0.1-0.8c0-0.6,0.1-1.1,0.3-1.4
					c0.2-0.3,0.5-0.6,0.9-0.7c0.3-0.1,0.6-0.2,0.8-0.2c0.2-0.1,0.3-0.1,0.4-0.2c0.1-0.1,0.1-0.2,0.2-0.3c0-0.1,0-0.2,0-0.4
					c0-0.3,0-0.5-0.1-0.7c0-0.2-0.1-0.4-0.2-0.6c-0.1-0.2-0.2-0.3-0.3-0.4c-0.1-0.1-0.3-0.2-0.5-0.2c-0.2,0-0.5,0.1-0.7,0.3
					c-0.2,0.2-0.4,0.4-0.5,0.8h-0.1v-0.8C112.6,22.2,112.9,22,113.1,21.8z M114.2,25.4c-0.1,0-0.3,0.1-0.4,0.1
					c-0.1,0-0.3,0.1-0.4,0.2c-0.1,0.1-0.3,0.2-0.4,0.3c-0.1,0.1-0.2,0.3-0.3,0.5c-0.1,0.2-0.1,0.4-0.1,0.7c0,0.5,0.1,0.8,0.2,1.1
					c0.2,0.2,0.3,0.4,0.5,0.4c0.2,0,0.4-0.1,0.6-0.3c0.2-0.2,0.3-0.5,0.4-0.8l0-2.3C114.5,25.3,114.4,25.4,114.2,25.4z"/>
			</g>
			<g>
				<path class="st276" d="M119.3,23c-0.2-0.4-0.4-0.6-0.7-0.6c-0.4,0-0.7,0.2-0.9,0.7c-0.2,0.4-0.3,1.1-0.3,1.9v1.3
					c0,0.5,0,0.9,0,1.5c0,0.5,0,1,0.1,1.4c-0.1,0-0.3,0-0.4,0c-0.1,0-0.3,0-0.4,0c0-0.4,0-0.9,0.1-1.4c0-0.5,0-1,0-1.5v-1.6
					c0-0.5,0-0.9,0-1.5c0-0.5,0-1-0.1-1.4c0.2,0.1,0.3,0.1,0.4,0.1c0,0,0.1,0,0.2,0c0.1,0,0.1,0,0.2-0.1c0,0.4,0,0.8,0,1.2h0
					c0.2-0.4,0.4-0.8,0.6-1c0.2-0.2,0.5-0.4,0.8-0.4c0.2,0,0.3,0,0.5,0.1c0.2,0.1,0.3,0.2,0.5,0.4c0.1,0.2,0.3,0.5,0.3,0.8
					c0.1,0.3,0.1,0.8,0.1,1.3c0,0.4,0,0.9,0,1.4c0,0.5,0,1,0,1.5v1c0,0.2,0,0.3,0,0.5c0,0.2,0,0.3,0,0.5c-0.1,0-0.3,0-0.4,0
					c-0.1,0-0.3,0-0.4,0c0-0.5,0-1.1,0-1.6c0-0.6,0-1.1,0-1.7v-0.9C119.6,24,119.5,23.4,119.3,23z"/>
				<path class="st276" d="M124.7,27.7c0,0.2-0.1,0.3-0.2,0.5c-0.1,0.2-0.2,0.4-0.3,0.5c-0.1,0.2-0.3,0.3-0.4,0.4
					c-0.2,0.1-0.4,0.2-0.6,0.2c-0.2,0-0.5-0.1-0.7-0.2c-0.2-0.1-0.4-0.4-0.6-0.7c-0.2-0.3-0.3-0.7-0.4-1.2c-0.1-0.5-0.2-1-0.2-1.7
					c0-0.7,0.1-1.2,0.2-1.7c0.1-0.5,0.3-0.9,0.4-1.2c0.2-0.3,0.4-0.6,0.6-0.7c0.2-0.2,0.5-0.2,0.7-0.2c0.7,0,1.1,0.5,1.4,1.5h0v-1.5
					c0-0.4,0-0.8,0-1.2c0-0.4,0-0.8,0-1.1c0-0.4,0-0.7,0-1c0-0.3,0-0.6,0-0.8c0.1,0,0.1,0,0.2,0.1c0.1,0,0.1,0,0.2,0
					c0.1,0,0.1,0,0.2,0c0.1,0,0.1,0,0.2-0.1c0,0.3,0,0.8,0,1.4c0,0.6,0,1.3,0,2.1c0,0.7,0,1.5,0,2.3c0,0.8,0,1.5,0,2.2
					c0,0.7,0,1.3,0,1.9c0,0.6,0,1.1,0,1.7c-0.1,0-0.2,0-0.4,0c-0.1,0-0.2,0-0.3,0L124.7,27.7L124.7,27.7z M122.3,27.1
					c0.1,0.4,0.2,0.7,0.3,1c0.1,0.2,0.3,0.4,0.4,0.5c0.2,0.1,0.3,0.1,0.4,0.1c0.2,0,0.4-0.1,0.6-0.3c0.2-0.2,0.3-0.5,0.4-0.8
					c0.1-0.3,0.2-0.7,0.2-1.1c0.1-0.4,0.1-0.8,0.1-1.2c0-1-0.1-1.7-0.3-2.3c-0.2-0.5-0.6-0.8-1-0.8c-0.2,0-0.4,0.1-0.6,0.3
					c-0.2,0.2-0.3,0.4-0.4,0.7c-0.1,0.3-0.2,0.7-0.2,1.1c-0.1,0.4-0.1,0.8-0.1,1.3C122.1,26.2,122.2,26.7,122.3,27.1z"/>
			</g>
		</g>
		<g>
			<g>
				<path class="st276" d="M1.9,39.5c-0.3-1.2-0.6-2.4-0.9-3.7c0.1,0,0.2,0,0.2,0.1c0.1,0,0.1,0,0.2,0c0.1,0,0.1,0,0.2,0
					c0.1,0,0.1,0,0.2-0.1c0.2,1,0.4,2,0.6,3c0.2,1,0.5,2,0.7,3c0.1-0.4,0.2-0.9,0.4-1.4c0.1-0.5,0.2-1,0.4-1.5
					c0.1-0.5,0.2-1,0.3-1.6c0.1-0.5,0.2-1,0.3-1.5c0.1,0.1,0.2,0.1,0.3,0.1c0.1,0,0.2,0,0.3-0.1c-0.3,1.2-0.6,2.5-1,3.7
					c-0.3,1.2-0.6,2.4-0.9,3.6c-0.1,0-0.2,0-0.3,0c-0.1,0-0.2,0-0.3,0C2.5,42,2.2,40.8,1.9,39.5z"/>
				<path class="st276" d="M6.3,32.6c0.1-0.2,0.2-0.2,0.3-0.2c0.1,0,0.2,0.1,0.3,0.2C7,32.8,7.1,33,7.1,33.2c0,0.2,0,0.4-0.1,0.6
					C6.9,33.9,6.8,34,6.6,34c-0.1,0-0.2-0.1-0.3-0.2c-0.1-0.2-0.1-0.3-0.1-0.6C6.2,33,6.2,32.8,6.3,32.6z M6.3,37.3
					c0-0.5,0-1-0.1-1.4c0.2,0.1,0.3,0.1,0.4,0.1c0.1,0,0.2,0,0.4-0.1c0,0.4,0,0.9-0.1,1.4c0,0.5,0,1,0,1.5v1.6c0,0.5,0,0.9,0,1.5
					c0,0.5,0,1,0.1,1.4c-0.1,0-0.3,0-0.4,0c-0.1,0-0.3,0-0.4,0c0-0.4,0.1-0.9,0.1-1.4c0-0.5,0-1,0-1.5v-1.6
					C6.3,38.3,6.3,37.8,6.3,37.3z"/>
				<path class="st276" d="M8.8,34.9c0-0.4,0-0.8,0-1.2c0-0.4,0-0.8,0-1.1c0-0.4,0-0.7,0-0.9c0.2,0.1,0.3,0.1,0.4,0.1
					c0.1,0,0.2,0,0.4-0.1c0,0.3,0,0.6,0,0.9c0,0.4,0,0.7,0,1.1c0,0.4,0,0.8,0,1.2c0,0.4,0,0.8,0,1.1v2.8c0,0.3,0,0.7,0,1.1
					c0,0.4,0,0.8,0,1.2c0,0.4,0,0.8,0,1.1c0,0.4,0,0.7,0,0.9c-0.1,0-0.3,0-0.4,0c-0.1,0-0.3,0-0.4,0c0-0.2,0-0.5,0-0.9
					c0-0.4,0-0.7,0-1.1c0-0.4,0-0.8,0-1.2c0-0.4,0-0.8,0-1.1V36C8.8,35.7,8.8,35.3,8.8,34.9z"/>
				<path class="st276" d="M11.9,35.9c0.2-0.1,0.5-0.2,0.7-0.2c0.2,0,0.4,0.1,0.6,0.2c0.2,0.1,0.3,0.3,0.5,0.5
					c0.1,0.2,0.2,0.4,0.3,0.7c0.1,0.3,0.1,0.6,0.1,0.9c0,0.6,0,1.2,0,1.7c0,0.6,0,1.2,0,1.8c0,0.1,0,0.3,0,0.4c0,0.1,0,0.3,0,0.4
					c0,0.1,0.1,0.2,0.1,0.3c0,0.1,0.1,0.1,0.2,0.1c0,0,0.1,0,0.1,0c0,0,0.1,0,0.1-0.1V43c-0.1,0.1-0.1,0.1-0.2,0.1
					c-0.1,0-0.2,0-0.3,0c-0.2,0-0.3-0.1-0.5-0.3c-0.1-0.2-0.2-0.4-0.2-0.7c-0.2,0.4-0.4,0.6-0.6,0.8c-0.2,0.2-0.5,0.3-0.8,0.3
					c-0.2,0-0.3,0-0.4-0.1c-0.1-0.1-0.3-0.2-0.4-0.4c-0.1-0.2-0.2-0.4-0.3-0.6c-0.1-0.2-0.1-0.5-0.1-0.8c0-0.6,0.1-1.1,0.3-1.4
					c0.2-0.3,0.5-0.6,0.9-0.7c0.3-0.1,0.6-0.2,0.8-0.2c0.2-0.1,0.3-0.1,0.4-0.2c0.1-0.1,0.1-0.2,0.2-0.3c0-0.1,0-0.2,0-0.4
					c0-0.3,0-0.5-0.1-0.7c0-0.2-0.1-0.4-0.2-0.6c-0.1-0.2-0.2-0.3-0.3-0.4c-0.1-0.1-0.3-0.2-0.5-0.2c-0.2,0-0.5,0.1-0.7,0.3
					c-0.2,0.2-0.4,0.4-0.5,0.8h-0.1v-0.8C11.5,36.3,11.7,36,11.9,35.9z M13.1,39.5c-0.1,0-0.3,0.1-0.4,0.1c-0.1,0-0.3,0.1-0.4,0.2
					c-0.1,0.1-0.3,0.2-0.4,0.3c-0.1,0.1-0.2,0.3-0.3,0.5c-0.1,0.2-0.1,0.4-0.1,0.7c0,0.5,0.1,0.8,0.2,1.1c0.2,0.2,0.3,0.4,0.5,0.4
					c0.2,0,0.4-0.1,0.6-0.3c0.2-0.2,0.3-0.5,0.4-0.8l0-2.3C13.3,39.4,13.2,39.5,13.1,39.5z"/>
				<path class="st276" d="M18.3,37.1c-0.2-0.4-0.4-0.6-0.7-0.6c-0.4,0-0.7,0.2-0.9,0.7c-0.2,0.4-0.3,1.1-0.3,1.9v1.3
					c0,0.5,0,0.9,0,1.5c0,0.5,0,1,0.1,1.4c-0.1,0-0.3,0-0.4,0c-0.1,0-0.3,0-0.4,0c0-0.4,0-0.9,0.1-1.4c0-0.5,0-1,0-1.5v-1.6
					c0-0.5,0-0.9,0-1.5c0-0.5,0-1-0.1-1.4c0.2,0.1,0.3,0.1,0.4,0.1c0,0,0.1,0,0.2,0c0.1,0,0.1,0,0.2-0.1c0,0.4,0,0.8,0,1.2h0
					c0.2-0.4,0.4-0.8,0.6-1c0.2-0.2,0.5-0.4,0.8-0.4c0.2,0,0.3,0,0.5,0.1c0.2,0.1,0.3,0.2,0.5,0.4c0.1,0.2,0.3,0.5,0.3,0.8
					c0.1,0.3,0.1,0.8,0.1,1.3c0,0.4,0,0.9,0,1.4c0,0.5,0,1,0,1.5v1c0,0.2,0,0.3,0,0.5c0,0.2,0,0.3,0,0.5c-0.1,0-0.3,0-0.4,0
					c-0.1,0-0.3,0-0.4,0c0-0.5,0-1.1,0-1.6c0-0.6,0-1.1,0-1.7v-0.9C18.6,38.1,18.5,37.5,18.3,37.1z"/>
				<path class="st276" d="M21.5,33.8c0,0.4,0,0.8,0,1.1c0,0.4,0,0.8,0,1.1c0.1,0,0.2,0,0.4,0c0.2,0,0.4,0,0.6,0c0,0,0,0.1,0,0.2
					v0.2v0.2c0,0.1,0,0.1,0,0.2c-0.1,0-0.2,0-0.2,0c-0.1,0-0.2,0-0.3,0h-0.4c0,0,0,0.2,0,0.5c0,0.3,0,0.6,0,1c0,0.4,0,0.8,0,1.2
					c0,0.4,0,0.8,0,1.2c0,0.3,0,0.6,0,0.8c0,0.3,0,0.5,0.1,0.7c0,0.2,0.1,0.4,0.2,0.5c0.1,0.1,0.2,0.2,0.4,0.2c0,0,0.1,0,0.2,0
					c0.1,0,0.2,0,0.2-0.1v0.4c-0.1,0-0.2,0.1-0.3,0.1c-0.1,0-0.2,0.1-0.4,0.1c-0.4,0-0.7-0.2-0.8-0.5c-0.2-0.3-0.3-0.8-0.3-1.4
					c0-0.3,0-0.6,0-0.9c0-0.3,0-0.7,0-1.1c0-0.4,0-0.8,0-1.3c0-0.5,0-1,0-1.6h-0.3c0,0-0.1,0-0.2,0c-0.1,0-0.1,0-0.2,0
					c0-0.1,0-0.1,0-0.2c0-0.1,0-0.1,0-0.2c0-0.1,0-0.1,0-0.2c0-0.1,0-0.1,0-0.2c0.3,0,0.5,0,0.6,0c0-0.2,0-0.5,0-0.8
					c0-0.3,0-0.6,0-1L21.5,33.8L21.5,33.8z"/>
				<path class="st276" d="M23.4,36.8c0.4-0.7,0.9-1.1,1.5-1.1c0.3,0,0.6,0.1,0.8,0.3c0.2,0.2,0.4,0.4,0.6,0.7
					c0.2,0.3,0.3,0.6,0.3,1c0.1,0.4,0.1,0.8,0.1,1.2c0,0.1,0,0.2,0,0.3c0,0.1,0,0.2,0,0.3c-0.3,0-0.7,0-1,0c-0.3,0-0.6,0-1,0
					c-0.2,0-0.4,0-0.6,0c-0.2,0-0.4,0-0.6,0c0,0.1,0,0.1,0,0.2v0.2c0,0.4,0,0.8,0.1,1.1c0.1,0.3,0.2,0.6,0.3,0.9
					c0.1,0.3,0.3,0.5,0.5,0.6c0.2,0.1,0.4,0.2,0.7,0.2c0.1,0,0.2,0,0.4-0.1c0.1-0.1,0.3-0.1,0.4-0.2c0.1-0.1,0.2-0.2,0.3-0.3
					c0.1-0.1,0.2-0.3,0.3-0.4l0,0l-0.1,0.8c-0.2,0.2-0.4,0.5-0.7,0.6c-0.3,0.2-0.5,0.3-0.8,0.3c-0.3,0-0.6-0.1-0.9-0.3
					c-0.3-0.2-0.5-0.4-0.7-0.7c-0.2-0.3-0.3-0.7-0.5-1.1c-0.1-0.4-0.2-0.9-0.2-1.4C22.8,38.5,23,37.5,23.4,36.8z M24.4,36.5
					c-0.2,0.2-0.3,0.4-0.4,0.7c-0.1,0.3-0.2,0.5-0.2,0.9c-0.1,0.3-0.1,0.6-0.1,0.9c0.2,0,0.4,0,0.6,0c0.2,0,0.4,0,0.6,0
					c0.2,0,0.4,0,0.6,0c0.2,0,0.4,0,0.6,0c0-0.3,0-0.6,0-0.9c0-0.3-0.1-0.6-0.2-0.9c-0.1-0.3-0.2-0.5-0.3-0.7
					c-0.1-0.2-0.3-0.3-0.6-0.3C24.7,36.2,24.5,36.3,24.4,36.5z"/>
			</g>
			<g>
				<path class="st276" d="M29.7,37c-0.1-0.1-0.2-0.1-0.3-0.1c-0.1,0-0.3,0.1-0.4,0.2c-0.1,0.1-0.2,0.3-0.3,0.5
					c-0.1,0.2-0.1,0.4-0.2,0.7c0,0.3-0.1,0.5-0.1,0.8v1.7c0,0.7,0,1.2,0,1.6c0,0.4,0,0.7,0,0.9c-0.1,0-0.2,0-0.4,0
					c-0.1,0-0.3,0-0.4,0c0-0.3,0-0.8,0-1.4c0-0.6,0-1.3,0-2.2V39c0-0.4,0-0.9,0-1.4c0-0.5,0-1.1,0-1.8c0.1,0,0.1,0,0.2,0.1
					c0.1,0,0.1,0,0.2,0c0.1,0,0.1,0,0.2,0c0.1,0,0.1,0,0.2-0.1c0,0.4,0,0.7,0,0.9c0,0.2,0,0.4,0,0.6l0,0c0.4-1.1,0.8-1.7,1.2-1.7
					c0.1,0,0.1,0,0.1,0c0,0,0.1,0,0.1,0.1c0,0.1,0,0.3-0.1,0.6c0,0.3,0,0.5,0,0.7l-0.1,0.1C29.8,37.1,29.7,37,29.7,37z"/>
			</g>
			<g>
				<path class="st276" d="M30.4,37.8c0.1-0.5,0.3-0.9,0.5-1.2c0.2-0.3,0.4-0.5,0.7-0.7c0.3-0.1,0.5-0.2,0.8-0.2
					c0.3,0,0.5,0.1,0.8,0.2c0.3,0.1,0.5,0.4,0.7,0.7c0.2,0.3,0.4,0.7,0.5,1.2c0.1,0.5,0.2,1.1,0.2,1.8c0,0.7-0.1,1.3-0.2,1.8
					c-0.1,0.5-0.3,0.9-0.5,1.2c-0.2,0.3-0.4,0.5-0.7,0.6c-0.3,0.1-0.5,0.2-0.8,0.2c-0.3,0-0.5-0.1-0.8-0.2c-0.3-0.1-0.5-0.3-0.7-0.6
					c-0.2-0.3-0.4-0.7-0.5-1.2c-0.1-0.5-0.2-1.1-0.2-1.8C30.2,38.8,30.3,38.2,30.4,37.8z M31.1,40.8c0,0.4,0.1,0.8,0.2,1.1
					c0.1,0.3,0.3,0.6,0.4,0.7c0.2,0.2,0.4,0.3,0.7,0.3c0.3,0,0.5-0.1,0.7-0.3c0.2-0.2,0.3-0.4,0.4-0.7c0.1-0.3,0.2-0.7,0.2-1.1
					c0-0.4,0.1-0.8,0.1-1.2c0-0.4,0-0.8-0.1-1.2c0-0.4-0.1-0.8-0.2-1.1c-0.1-0.3-0.3-0.6-0.4-0.7c-0.2-0.2-0.4-0.3-0.7-0.3
					c-0.3,0-0.5,0.1-0.7,0.3c-0.2,0.2-0.3,0.4-0.4,0.7c-0.1,0.3-0.2,0.7-0.2,1.1c0,0.4-0.1,0.8-0.1,1.2C31,40,31,40.4,31.1,40.8z"/>
			</g>
			<g>
				<path class="st276" d="M35.7,34.9c0-0.4,0-0.8,0-1.2c0-0.4,0-0.8,0-1.1c0-0.4,0-0.7,0-0.9c0.2,0.1,0.3,0.1,0.4,0.1
					c0.1,0,0.2,0,0.4-0.1c0,0.3,0,0.6,0,0.9c0,0.4,0,0.7,0,1.1c0,0.4,0,0.8,0,1.2c0,0.4,0,0.8,0,1.1v2.8c0,0.3,0,0.7,0,1.1
					c0,0.4,0,0.8,0,1.2c0,0.4,0,0.8,0,1.1c0,0.4,0,0.7,0,0.9c-0.1,0-0.3,0-0.4,0c-0.1,0-0.3,0-0.4,0c0-0.2,0-0.5,0-0.9
					c0-0.4,0-0.7,0-1.1c0-0.4,0-0.8,0-1.2c0-0.4,0-0.8,0-1.1V36C35.7,35.7,35.7,35.3,35.7,34.9z"/>
			</g>
			<g>
				<path class="st276" d="M40.9,33.2c0.3-0.2,0.6-0.4,1-0.4c0.2,0,0.5,0.1,0.7,0.2c0.2,0.1,0.4,0.3,0.5,0.5
					c0.2,0.2,0.3,0.5,0.4,0.8c0.1,0.3,0.1,0.7,0.1,1.2c0,0.3,0,0.7-0.1,1c0,0.3-0.1,0.6-0.2,0.9c-0.1,0.3-0.2,0.6-0.4,0.9
					c-0.1,0.3-0.3,0.6-0.5,0.9c-0.1,0.2-0.2,0.4-0.4,0.7c-0.2,0.3-0.3,0.5-0.5,0.8c-0.2,0.3-0.3,0.5-0.4,0.8
					c-0.1,0.3-0.3,0.5-0.4,0.7h0.9c0.4,0,0.8,0,1.2,0c0.3,0,0.6-0.1,0.9-0.1c0,0.2,0,0.4,0,0.6c0,0.1,0,0.3,0,0.5c-0.3,0-0.7,0-1,0
					c-0.3,0-0.6,0-1,0c-0.3,0-0.7,0-1,0c-0.3,0-0.6,0-1,0V43c0.4-0.7,0.8-1.3,1.1-1.9c0.3-0.5,0.6-1,0.8-1.5
					c0.2-0.4,0.4-0.8,0.5-1.2c0.1-0.3,0.2-0.7,0.3-1c0.1-0.3,0.1-0.6,0.2-0.9c0-0.3,0-0.6,0-1c0-0.8-0.1-1.3-0.3-1.7
					c-0.2-0.4-0.4-0.5-0.7-0.5c-0.2,0-0.4,0.1-0.5,0.2c-0.1,0.1-0.3,0.3-0.3,0.4c-0.1,0.2-0.2,0.4-0.2,0.5c0,0.2-0.1,0.4-0.1,0.5
					l-0.1,0l-0.3-0.8C40.4,33.8,40.6,33.4,40.9,33.2z"/>
			</g>
			<g>
				<path class="st276" d="M45.9,37.1c0.1-0.1,0.3-0.1,0.6-0.1c0.3,0,0.5,0.1,0.7,0.2c0.2,0.2,0.4,0.4,0.5,0.6
					c0.2,0.3,0.3,0.6,0.3,0.9c0.1,0.3,0.1,0.7,0.1,1.1c0,0.5-0.1,0.9-0.2,1.4c-0.1,0.4-0.3,0.8-0.5,1.1c-0.2,0.3-0.4,0.6-0.7,0.7
					c-0.3,0.2-0.6,0.3-0.9,0.3c-0.3,0-0.5,0-0.8-0.1c-0.3-0.1-0.5-0.2-0.7-0.5v-0.1c0-0.1,0.1-0.3,0.1-0.5c0-0.2,0-0.3,0.1-0.4h0.1
					c0.1,0.2,0.1,0.3,0.2,0.5c0.1,0.1,0.2,0.3,0.3,0.4c0.1,0.1,0.2,0.2,0.4,0.2c0.1,0,0.3,0.1,0.4,0.1c0.2,0,0.4-0.1,0.5-0.2
					c0.2-0.1,0.3-0.3,0.4-0.5c0.1-0.2,0.2-0.5,0.3-0.9c0.1-0.4,0.1-0.8,0.1-1.3c0-0.4,0-0.8-0.1-1.1c-0.1-0.3-0.2-0.6-0.3-0.8
					c-0.1-0.2-0.3-0.3-0.4-0.4c-0.2-0.1-0.3-0.1-0.5-0.1c-0.3,0-0.5,0.1-0.6,0.2c-0.2,0.1-0.3,0.2-0.3,0.3L45.2,38
					c0-0.4,0.1-0.8,0.1-1.3c0-0.4,0-0.9,0-1.3c0-0.4,0-0.9,0-1.3c0-0.5,0-0.9-0.1-1.2l0.1-0.1c0.1,0,0.3,0.1,0.5,0.1
					c0.3,0,0.6,0,1.1,0c0.3,0,0.5,0,0.8,0c0.2,0,0.4,0,0.5,0l0,0.1c0,0.1,0,0.3,0,0.4c0,0.1,0,0.3,0,0.4c0,0.1,0,0.2,0,0.3
					c-0.1,0-0.3-0.1-0.5-0.1c-0.2,0-0.5,0-0.7-0.1c-0.2,0-0.5,0-0.7,0c-0.2,0-0.4,0-0.5,0l-0.1,3.5C45.7,37.3,45.8,37.2,45.9,37.1z"
					/>
			</g>
			<g>
				<path class="st276" d="M51.1,37.3c0-0.5,0-1-0.1-1.4c0.2,0.1,0.3,0.1,0.4,0.1c0,0,0.1,0,0.2,0c0.1,0,0.1,0,0.2-0.1
					c0,0.4,0,0.8,0,1.2h0c0.3-0.9,0.8-1.4,1.3-1.4c0.2,0,0.3,0,0.4,0.1c0.1,0.1,0.3,0.2,0.4,0.3c0.1,0.1,0.2,0.3,0.3,0.5
					c0.1,0.2,0.1,0.4,0.2,0.6h0c0.1-0.5,0.3-0.9,0.6-1.1c0.3-0.3,0.5-0.4,0.9-0.4c0.2,0,0.4,0,0.6,0.1c0.2,0.1,0.3,0.2,0.4,0.4
					c0.1,0.2,0.2,0.4,0.3,0.8c0.1,0.3,0.1,0.7,0.1,1.1c0,0.2,0,0.4,0,0.6c0,0.2,0,0.4,0,0.7c0,0.3,0,0.6,0,0.9c0,0.3,0,0.7,0,1.2
					c0,0.3,0,0.5,0,0.8c0,0.3,0,0.5,0,0.8c-0.1,0-0.1,0-0.2,0c-0.1,0-0.1,0-0.2,0c-0.1,0-0.1,0-0.2,0c-0.1,0-0.1,0-0.2,0
					c0-0.3,0-0.8,0.1-1.6c0-0.8,0-1.9,0-3.3c0-0.3,0-0.5-0.1-0.7c0-0.2-0.1-0.4-0.2-0.6c-0.1-0.2-0.2-0.3-0.3-0.4
					c-0.1-0.1-0.3-0.1-0.5-0.1c-0.2,0-0.4,0.1-0.6,0.2c-0.2,0.1-0.3,0.3-0.4,0.5c0,0.1-0.1,0.2-0.1,0.3c0,0.1,0,0.3-0.1,0.5
					c0,0.2,0,0.6,0,1c0,0.4,0,1,0,1.7c0,0.4,0,0.8,0,1.2c0,0.4,0,0.8,0,1.2c-0.1,0-0.3,0-0.4,0c-0.1,0-0.3,0-0.4,0
					c0-0.6,0-1.1,0.1-1.7c0-0.6,0-1.2,0-1.7c0-0.5,0-0.9,0-1.1c0-0.3,0-0.5,0-0.6c0-0.2,0-0.3,0-0.4c0-0.1,0-0.2-0.1-0.3
					c-0.1-0.2-0.2-0.4-0.3-0.5c-0.1-0.1-0.3-0.2-0.4-0.2c-0.4,0-0.7,0.2-0.9,0.7c-0.2,0.4-0.3,1.1-0.3,1.9v1.3c0,0.5,0,0.9,0,1.5
					c0,0.5,0,1,0.1,1.4c-0.1,0-0.3,0-0.4,0c-0.1,0-0.3,0-0.4,0c0-0.4,0-0.9,0.1-1.4c0-0.5,0-1,0-1.5v-1.6
					C51.1,38.3,51.1,37.8,51.1,37.3z"/>
				<path class="st276" d="M58.5,37.8c0.1-0.5,0.3-0.9,0.5-1.2c0.2-0.3,0.5-0.5,0.7-0.7c0.3-0.1,0.6-0.2,0.9-0.2
					c0.3,0,0.6,0.1,0.9,0.2c0.3,0.1,0.5,0.3,0.6,0.5c0,0.2-0.1,0.3-0.1,0.5c0,0.2-0.1,0.3-0.1,0.5h-0.1c0-0.1-0.1-0.3-0.2-0.4
					c-0.1-0.1-0.2-0.3-0.3-0.4c-0.1-0.1-0.2-0.2-0.3-0.3c-0.1-0.1-0.3-0.1-0.4-0.1c-0.3,0-0.5,0.1-0.7,0.3c-0.2,0.2-0.4,0.4-0.5,0.7
					c-0.1,0.3-0.2,0.6-0.3,1.1c-0.1,0.4-0.1,0.8-0.1,1.3c0,1.1,0.1,1.9,0.4,2.4c0.3,0.5,0.7,0.8,1.2,0.8c0.1,0,0.2,0,0.4-0.1
					c0.1-0.1,0.3-0.1,0.4-0.2c0.1-0.1,0.2-0.2,0.3-0.3c0.1-0.1,0.2-0.3,0.3-0.4l0,0c0,0.2,0,0.5-0.1,0.8c-0.2,0.2-0.4,0.5-0.7,0.6
					c-0.3,0.2-0.5,0.3-0.8,0.3c-0.3,0-0.5-0.1-0.8-0.2c-0.3-0.1-0.5-0.3-0.7-0.6c-0.2-0.3-0.4-0.7-0.5-1.2c-0.1-0.5-0.2-1.1-0.2-1.8
					C58.3,38.9,58.4,38.3,58.5,37.8z"/>
				<path class="st276" d="M63.1,37.1c0.1-0.3,0.2-0.6,0.4-0.8c0.2-0.2,0.3-0.4,0.6-0.5c0.2-0.1,0.4-0.2,0.7-0.2c0.1,0,0.2,0,0.3,0
					c0.1,0,0.2,0,0.4,0c0.1,0,0.3,0,0.4,0c0.1,0,0.2,0,0.3,0c0.3,0,0.6,0,0.7-0.1c0,0.1,0,0.1,0,0.2c0,0.1,0,0.1,0,0.2
					c0,0.1,0,0.1,0,0.2c0,0.1,0,0.1,0,0.2c-0.2,0-0.3,0-0.5-0.1c-0.2,0-0.3,0-0.5-0.1l0,0c0.2,0.2,0.3,0.4,0.5,0.8
					c0.1,0.4,0.2,0.7,0.2,1.1c0,0.8-0.2,1.4-0.5,1.8c-0.3,0.4-0.7,0.7-1.2,0.7c-0.1,0-0.2,0-0.2,0c-0.1,0-0.2,0-0.2,0
					c-0.1,0-0.2,0.1-0.3,0.2c-0.1,0.1-0.1,0.3-0.1,0.5c0,0.3,0,0.5,0.1,0.6c0.1,0.1,0.2,0.2,0.4,0.2c0.2,0,0.3,0,0.5,0
					c0.2,0,0.3,0,0.5,0c0.3,0,0.5,0.1,0.7,0.2c0.2,0.1,0.4,0.2,0.5,0.4c0.1,0.2,0.2,0.4,0.3,0.6c0.1,0.2,0.1,0.5,0.1,0.7
					c0,0.4,0,0.7-0.1,1.1c-0.1,0.4-0.2,0.7-0.4,1c-0.2,0.3-0.4,0.5-0.7,0.7c-0.3,0.2-0.6,0.3-1,0.3c-0.6,0-1.1-0.2-1.4-0.6
					c-0.3-0.4-0.5-0.9-0.5-1.6c0-0.3,0-0.5,0.1-0.7c0.1-0.2,0.1-0.4,0.2-0.6c0.1-0.2,0.2-0.3,0.3-0.4c0.1-0.1,0.2-0.2,0.4-0.2v0
					c-0.2-0.1-0.3-0.2-0.4-0.5c-0.1-0.2-0.1-0.5-0.1-0.8c0-0.2,0-0.3,0.1-0.5c0-0.1,0.1-0.3,0.1-0.4c0.1-0.1,0.1-0.2,0.2-0.3
					c0.1-0.1,0.2-0.1,0.2-0.1v0c-0.3-0.2-0.5-0.5-0.7-0.9C63,39.2,63,38.8,63,38.2C63,37.8,63,37.4,63.1,37.1z M65.9,43.5
					c-0.2-0.2-0.6-0.4-1.1-0.4c-0.5,0-0.8,0.1-1.1,0.4c-0.2,0.3-0.4,0.7-0.4,1.4c0,0.3,0,0.6,0.1,0.9c0.1,0.2,0.2,0.4,0.3,0.6
					c0.1,0.2,0.3,0.3,0.4,0.3c0.2,0.1,0.3,0.1,0.5,0.1c0.2,0,0.4,0,0.5-0.1c0.2-0.1,0.3-0.2,0.5-0.4c0.1-0.2,0.2-0.4,0.3-0.6
					c0.1-0.3,0.1-0.6,0.1-0.9C66.2,44.2,66.1,43.8,65.9,43.5z M65.4,36.7c-0.2-0.3-0.4-0.5-0.7-0.5c-0.3,0-0.6,0.2-0.8,0.6
					c-0.2,0.4-0.3,0.9-0.3,1.5c0,0.6,0.1,1.2,0.2,1.5c0.2,0.4,0.4,0.6,0.8,0.6c0.2,0,0.3-0.1,0.4-0.2c0.1-0.1,0.2-0.3,0.3-0.5
					c0.1-0.2,0.1-0.4,0.2-0.7c0-0.3,0.1-0.5,0.1-0.8C65.7,37.5,65.6,37,65.4,36.7z"/>
			</g>
			<g>
				<path class="st276" d="M70.3,32.6c0.1-0.2,0.2-0.2,0.3-0.2s0.2,0.1,0.3,0.2c0.1,0.2,0.1,0.3,0.1,0.6c0,0.2,0,0.4-0.1,0.6
					c-0.1,0.2-0.2,0.2-0.3,0.2s-0.2-0.1-0.3-0.2c-0.1-0.2-0.1-0.3-0.1-0.6C70.2,33,70.2,32.8,70.3,32.6z M70.3,37.3
					c0-0.5,0-1-0.1-1.4c0.2,0.1,0.3,0.1,0.4,0.1s0.2,0,0.4-0.1c0,0.4-0.1,0.9-0.1,1.4c0,0.5,0,1,0,1.5v1.6c0,0.5,0,0.9,0,1.5
					c0,0.5,0,1,0.1,1.4c-0.1,0-0.3,0-0.4,0c-0.1,0-0.3,0-0.4,0c0-0.4,0-0.9,0.1-1.4c0-0.5,0-1,0-1.5v-1.6
					C70.3,38.3,70.3,37.8,70.3,37.3z"/>
				<path class="st276" d="M75.3,37.1c-0.2-0.4-0.4-0.6-0.7-0.6c-0.4,0-0.7,0.2-0.9,0.7c-0.2,0.4-0.3,1.1-0.3,1.9v1.3
					c0,0.5,0,0.9,0,1.5c0,0.5,0,1,0.1,1.4c-0.1,0-0.3,0-0.4,0c-0.1,0-0.3,0-0.4,0c0-0.4,0-0.9,0.1-1.4c0-0.5,0-1,0-1.5v-1.6
					c0-0.5,0-0.9,0-1.5c0-0.5,0-1-0.1-1.4c0.2,0.1,0.3,0.1,0.4,0.1c0,0,0.1,0,0.2,0c0.1,0,0.1,0,0.2-0.1c0,0.4,0,0.8,0,1.2h0
					c0.2-0.4,0.4-0.8,0.6-1c0.2-0.2,0.5-0.4,0.8-0.4c0.2,0,0.3,0,0.5,0.1c0.2,0.1,0.3,0.2,0.5,0.4c0.1,0.2,0.3,0.5,0.3,0.8
					c0.1,0.3,0.1,0.8,0.1,1.3c0,0.4,0,0.9,0,1.4c0,0.5,0,1,0,1.5v1c0,0.2,0,0.3,0,0.5c0,0.2,0,0.3,0,0.5c-0.1,0-0.3,0-0.4,0
					c-0.1,0-0.3,0-0.4,0c0-0.5,0-1.1,0-1.6c0-0.6,0-1.1,0-1.7v-0.9C75.6,38.1,75.5,37.5,75.3,37.1z"/>
				<path class="st276" d="M77.7,34.9c0-0.4,0-0.8,0-1.2c0-0.4,0-0.8,0-1.1c0-0.4,0-0.7,0-0.9c0.2,0.1,0.3,0.1,0.4,0.1
					s0.2,0,0.4-0.1c0,0.3,0,0.6,0,0.9c0,0.4,0,0.7,0,1.1c0,0.4,0,0.8,0,1.2c0,0.4,0,0.8,0,1.1v1.2h0c0.2-0.4,0.4-0.8,0.6-1
					c0.2-0.2,0.5-0.4,0.8-0.4c0.2,0,0.3,0,0.5,0.1c0.2,0.1,0.3,0.2,0.5,0.4c0.1,0.2,0.3,0.5,0.3,0.8c0.1,0.3,0.1,0.8,0.1,1.3
					c0,0.4,0,0.9,0,1.4c0,0.5,0,1,0,1.5v1c0,0.2,0,0.3,0,0.5c0,0.2,0,0.3,0,0.5c-0.1,0-0.3,0-0.4,0c-0.1,0-0.3,0-0.4,0
					c0-0.5,0-1.1,0-1.6c0-0.6,0-1.1,0-1.7v-0.9c0-0.8-0.1-1.4-0.3-1.7c-0.2-0.4-0.4-0.6-0.7-0.6c-0.4,0-0.7,0.2-0.9,0.7
					c-0.2,0.4-0.3,1.1-0.3,1.9c0,0.3,0,0.6,0,1c0,0.4,0,0.8,0,1.1c0,0.4,0,0.8,0,1.1c0,0.4,0,0.7,0,0.9c-0.1,0-0.3,0-0.4,0
					c-0.1,0-0.3,0-0.4,0c0-0.2,0-0.5,0-0.9c0-0.4,0-0.7,0-1.1c0-0.4,0-0.8,0-1.2c0-0.4,0-0.8,0-1.1V36
					C77.7,35.7,77.7,35.3,77.7,34.9z"/>
				<path class="st276" d="M83.5,35.9c0.2-0.1,0.5-0.2,0.7-0.2c0.2,0,0.4,0.1,0.6,0.2c0.2,0.1,0.3,0.3,0.5,0.5
					c0.1,0.2,0.2,0.4,0.3,0.7c0.1,0.3,0.1,0.6,0.1,0.9c0,0.6,0,1.2,0,1.7c0,0.6,0,1.2,0,1.8c0,0.1,0,0.3,0,0.4c0,0.1,0,0.3,0,0.4
					c0,0.1,0.1,0.2,0.1,0.3c0,0.1,0.1,0.1,0.2,0.1c0,0,0.1,0,0.1,0c0,0,0.1,0,0.1-0.1V43c-0.1,0.1-0.1,0.1-0.2,0.1
					c-0.1,0-0.2,0-0.3,0c-0.2,0-0.3-0.1-0.5-0.3c-0.1-0.2-0.2-0.4-0.2-0.7c-0.2,0.4-0.4,0.6-0.6,0.8c-0.2,0.2-0.5,0.3-0.8,0.3
					c-0.2,0-0.3,0-0.4-0.1c-0.1-0.1-0.3-0.2-0.4-0.4c-0.1-0.2-0.2-0.4-0.3-0.6c-0.1-0.2-0.1-0.5-0.1-0.8c0-0.6,0.1-1.1,0.3-1.4
					c0.2-0.3,0.5-0.6,0.9-0.7c0.3-0.1,0.6-0.2,0.8-0.2c0.2-0.1,0.3-0.1,0.4-0.2c0.1-0.1,0.1-0.2,0.2-0.3c0-0.1,0-0.2,0-0.4
					c0-0.3,0-0.5-0.1-0.7c0-0.2-0.1-0.4-0.2-0.6c-0.1-0.2-0.2-0.3-0.3-0.4c-0.1-0.1-0.3-0.2-0.5-0.2c-0.2,0-0.5,0.1-0.7,0.3
					c-0.2,0.2-0.4,0.4-0.5,0.8h-0.1v-0.8C83.1,36.3,83.3,36,83.5,35.9z M84.7,39.5c-0.1,0-0.3,0.1-0.4,0.1c-0.1,0-0.3,0.1-0.4,0.2
					c-0.1,0.1-0.3,0.2-0.4,0.3c-0.1,0.1-0.2,0.3-0.3,0.5c-0.1,0.2-0.1,0.4-0.1,0.7c0,0.5,0.1,0.8,0.2,1.1c0.2,0.2,0.3,0.4,0.5,0.4
					c0.2,0,0.4-0.1,0.6-0.3c0.2-0.2,0.3-0.5,0.4-0.8l0-2.3C84.9,39.4,84.8,39.5,84.7,39.5z"/>
				<path class="st276" d="M87.5,34.9c0-0.4,0-0.8,0-1.2c0-0.4,0-0.8,0-1.1c0-0.4,0-0.7,0-0.9c0.2,0.1,0.3,0.1,0.4,0.1
					c0.1,0,0.2,0,0.4-0.1c0,0.3,0,0.6,0,0.9c0,0.4,0,0.7,0,1.1c0,0.4,0,0.8,0,1.2c0,0.4,0,0.8,0,1.1v2.8c0,0.3,0,0.7,0,1.1
					c0,0.4,0,0.8,0,1.2c0,0.4,0,0.8,0,1.1c0,0.4,0,0.7,0,0.9c-0.1,0-0.3,0-0.4,0c-0.1,0-0.3,0-0.4,0c0-0.2,0-0.5,0-0.9
					c0-0.4,0-0.7,0-1.1c0-0.4,0-0.8,0-1.2c0-0.4,0-0.8,0-1.1V36C87.5,35.7,87.5,35.3,87.5,34.9z"/>
				<path class="st276" d="M90.6,35.9c0.2-0.1,0.5-0.2,0.7-0.2c0.2,0,0.4,0.1,0.6,0.2c0.2,0.1,0.3,0.3,0.5,0.5
					c0.1,0.2,0.2,0.4,0.3,0.7c0.1,0.3,0.1,0.6,0.1,0.9c0,0.6,0,1.2,0,1.7c0,0.6,0,1.2,0,1.8c0,0.1,0,0.3,0,0.4c0,0.1,0,0.3,0,0.4
					c0,0.1,0.1,0.2,0.1,0.3c0,0.1,0.1,0.1,0.2,0.1c0,0,0.1,0,0.1,0c0,0,0.1,0,0.1-0.1V43c-0.1,0.1-0.1,0.1-0.2,0.1
					c-0.1,0-0.2,0-0.3,0c-0.2,0-0.3-0.1-0.5-0.3c-0.1-0.2-0.2-0.4-0.2-0.7c-0.2,0.4-0.4,0.6-0.6,0.8c-0.2,0.2-0.5,0.3-0.8,0.3
					c-0.2,0-0.3,0-0.4-0.1c-0.1-0.1-0.3-0.2-0.4-0.4c-0.1-0.2-0.2-0.4-0.3-0.6c-0.1-0.2-0.1-0.5-0.1-0.8c0-0.6,0.1-1.1,0.3-1.4
					c0.2-0.3,0.5-0.6,0.9-0.7c0.3-0.1,0.6-0.2,0.8-0.2c0.2-0.1,0.3-0.1,0.4-0.2c0.1-0.1,0.1-0.2,0.2-0.3c0-0.1,0-0.2,0-0.4
					c0-0.3,0-0.5-0.1-0.7c0-0.2-0.1-0.4-0.2-0.6c-0.1-0.2-0.2-0.3-0.3-0.4c-0.1-0.1-0.3-0.2-0.5-0.2c-0.2,0-0.5,0.1-0.7,0.3
					c-0.2,0.2-0.4,0.4-0.5,0.8h-0.1v-0.8C90.1,36.3,90.4,36,90.6,35.9z M91.7,39.5c-0.1,0-0.3,0.1-0.4,0.1c-0.1,0-0.3,0.1-0.4,0.2
					c-0.1,0.1-0.3,0.2-0.4,0.3c-0.1,0.1-0.2,0.3-0.3,0.5c-0.1,0.2-0.1,0.4-0.1,0.7c0,0.5,0.1,0.8,0.2,1.1c0.2,0.2,0.3,0.4,0.5,0.4
					c0.2,0,0.4-0.1,0.6-0.3c0.2-0.2,0.3-0.5,0.4-0.8l0-2.3C92,39.4,91.9,39.5,91.7,39.5z"/>
				<path class="st276" d="M95.1,33.8c0,0.4,0,0.8,0,1.1c0,0.4,0,0.8,0,1.1c0.1,0,0.2,0,0.4,0c0.2,0,0.4,0,0.6,0c0,0,0,0.1,0,0.2
					v0.2v0.2c0,0.1,0,0.1,0,0.2c-0.1,0-0.2,0-0.2,0c-0.1,0-0.2,0-0.3,0h-0.4c0,0,0,0.2,0,0.5c0,0.3,0,0.6,0,1c0,0.4,0,0.8,0,1.2
					c0,0.4,0,0.8,0,1.2c0,0.3,0,0.6,0,0.8c0,0.3,0,0.5,0.1,0.7c0,0.2,0.1,0.4,0.2,0.5c0.1,0.1,0.2,0.2,0.4,0.2c0,0,0.1,0,0.2,0
					c0.1,0,0.2,0,0.2-0.1v0.4c-0.1,0-0.2,0.1-0.3,0.1c-0.1,0-0.2,0.1-0.4,0.1c-0.4,0-0.7-0.2-0.8-0.5c-0.2-0.3-0.3-0.8-0.3-1.4
					c0-0.3,0-0.6,0-0.9c0-0.3,0-0.7,0-1.1c0-0.4,0-0.8,0-1.3c0-0.5,0-1,0-1.6h-0.3c0,0-0.1,0-0.2,0c-0.1,0-0.1,0-0.2,0
					c0-0.1,0-0.1,0-0.2c0-0.1,0-0.1,0-0.2c0-0.1,0-0.1,0-0.2c0-0.1,0-0.1,0-0.2c0.3,0,0.5,0,0.6,0c0-0.2,0-0.5,0-0.8
					c0-0.3,0-0.6,0-1L95.1,33.8L95.1,33.8z"/>
				<path class="st276" d="M97.1,32.6c0.1-0.2,0.2-0.2,0.3-0.2c0.1,0,0.2,0.1,0.3,0.2c0.1,0.2,0.1,0.3,0.1,0.6c0,0.2,0,0.4-0.1,0.6
					c-0.1,0.2-0.2,0.2-0.3,0.2c-0.1,0-0.2-0.1-0.3-0.2c-0.1-0.2-0.1-0.3-0.1-0.6C96.9,33,97,32.8,97.1,32.6z M97,37.3
					c0-0.5,0-1-0.1-1.4c0.2,0.1,0.3,0.1,0.4,0.1c0.1,0,0.2,0,0.4-0.1c0,0.4,0,0.9-0.1,1.4c0,0.5,0,1,0,1.5v1.6c0,0.5,0,0.9,0,1.5
					c0,0.5,0,1,0.1,1.4c-0.1,0-0.3,0-0.4,0c-0.1,0-0.3,0-0.4,0c0-0.4,0.1-0.9,0.1-1.4c0-0.5,0-1,0-1.5v-1.6
					C97.1,38.3,97.1,37.8,97,37.3z"/>
				<path class="st276" d="M99.2,37.8c0.1-0.5,0.3-0.9,0.5-1.2c0.2-0.3,0.4-0.5,0.7-0.7c0.3-0.1,0.5-0.2,0.8-0.2
					c0.3,0,0.5,0.1,0.8,0.2c0.3,0.1,0.5,0.4,0.7,0.7c0.2,0.3,0.4,0.7,0.5,1.2c0.1,0.5,0.2,1.1,0.2,1.8c0,0.7-0.1,1.3-0.2,1.8
					c-0.1,0.5-0.3,0.9-0.5,1.2c-0.2,0.3-0.4,0.5-0.7,0.6c-0.3,0.1-0.5,0.2-0.8,0.2c-0.3,0-0.5-0.1-0.8-0.2c-0.3-0.1-0.5-0.3-0.7-0.6
					c-0.2-0.3-0.4-0.7-0.5-1.2C99,40.8,99,40.2,99,39.5C99,38.8,99,38.2,99.2,37.8z M99.8,40.8c0,0.4,0.1,0.8,0.2,1.1
					c0.1,0.3,0.3,0.6,0.4,0.7c0.2,0.2,0.4,0.3,0.7,0.3s0.5-0.1,0.7-0.3c0.2-0.2,0.3-0.4,0.4-0.7c0.1-0.3,0.2-0.7,0.2-1.1
					c0-0.4,0.1-0.8,0.1-1.2c0-0.4,0-0.8-0.1-1.2c0-0.4-0.1-0.8-0.2-1.1c-0.1-0.3-0.3-0.6-0.4-0.7c-0.2-0.2-0.4-0.3-0.7-0.3
					s-0.5,0.1-0.7,0.3c-0.2,0.2-0.3,0.4-0.4,0.7c-0.1,0.3-0.2,0.7-0.2,1.1c0,0.4-0.1,0.8-0.1,1.2C99.8,40,99.8,40.4,99.8,40.8z"/>
				<path class="st276" d="M107.1,37.1c-0.2-0.4-0.4-0.6-0.7-0.6c-0.4,0-0.7,0.2-0.9,0.7c-0.2,0.4-0.3,1.1-0.3,1.9v1.3
					c0,0.5,0,0.9,0,1.5c0,0.5,0,1,0.1,1.4c-0.1,0-0.3,0-0.4,0c-0.1,0-0.3,0-0.4,0c0-0.4,0-0.9,0.1-1.4c0-0.5,0-1,0-1.5v-1.6
					c0-0.5,0-0.9,0-1.5c0-0.5,0-1-0.1-1.4c0.2,0.1,0.3,0.1,0.4,0.1c0,0,0.1,0,0.2,0c0.1,0,0.1,0,0.2-0.1c0,0.4,0,0.8,0,1.2h0
					c0.2-0.4,0.4-0.8,0.6-1c0.2-0.2,0.5-0.4,0.8-0.4c0.2,0,0.3,0,0.5,0.1c0.2,0.1,0.3,0.2,0.5,0.4c0.1,0.2,0.3,0.5,0.3,0.8
					c0.1,0.3,0.1,0.8,0.1,1.3c0,0.4,0,0.9,0,1.4c0,0.5,0,1,0,1.5v1c0,0.2,0,0.3,0,0.5c0,0.2,0,0.3,0,0.5c-0.1,0-0.3,0-0.4,0
					c-0.1,0-0.3,0-0.4,0c0-0.5,0-1.1,0-1.6c0-0.6,0-1.1,0-1.7v-0.9C107.4,38.1,107.3,37.5,107.1,37.1z"/>
				<path class="st276" d="M111.9,39.2c0-0.4,0-0.8,0-1.2c0-0.4,0-0.8,0-1.2c0-0.4,0-0.7,0-1c0.2,0.1,0.3,0.1,0.4,0.1
					c0.1,0,0.2,0,0.4-0.1c0,0.3,0,0.5-0.1,0.8c0,0.2,0,0.5,0,0.7h0c0-0.2,0.1-0.3,0.2-0.5c0.1-0.2,0.2-0.4,0.3-0.5
					c0.1-0.2,0.3-0.3,0.4-0.4c0.2-0.1,0.4-0.2,0.6-0.2c0.2,0,0.5,0.1,0.7,0.2c0.2,0.1,0.4,0.4,0.6,0.7c0.2,0.3,0.3,0.7,0.4,1.2
					c0.1,0.5,0.2,1,0.2,1.7c0,0.7-0.1,1.2-0.2,1.7c-0.1,0.5-0.3,0.9-0.4,1.2c-0.2,0.3-0.4,0.6-0.6,0.7c-0.2,0.1-0.5,0.2-0.7,0.2
					c-0.7,0-1.1-0.5-1.4-1.5h0v1c0,0.3,0,0.7,0,1.1c0,0.4,0,0.8,0,1.2c0,0.4,0,0.8,0,1.1c0,0.4,0,0.7,0,0.9
					c-0.2-0.1-0.3-0.1-0.4-0.1c-0.1,0-0.2,0-0.4,0.1c0-0.3,0-0.6,0-0.9c0-0.4,0-0.7,0-1.1c0-0.4,0-0.8,0-1.2c0-0.4,0-0.8,0-1.1v-2.5
					C111.9,40,111.9,39.6,111.9,39.2z M115,38c-0.1-0.4-0.2-0.7-0.3-1c-0.1-0.2-0.3-0.4-0.4-0.5c-0.2-0.1-0.3-0.1-0.4-0.1
					c-0.2,0-0.4,0.1-0.6,0.3c-0.2,0.2-0.3,0.4-0.4,0.7c-0.1,0.3-0.2,0.6-0.2,1c0,0.4-0.1,0.8-0.1,1.3c0,2.1,0.4,3.2,1.3,3.2
					c0.2,0,0.4-0.1,0.6-0.3c0.2-0.2,0.3-0.4,0.4-0.7c0.1-0.3,0.2-0.7,0.2-1.1c0.1-0.4,0.1-0.8,0.1-1.3C115.1,38.9,115.1,38.4,115,38
					z"/>
				<path class="st276" d="M116.8,37.8c0.1-0.5,0.3-0.9,0.5-1.2c0.2-0.3,0.4-0.5,0.7-0.7c0.3-0.1,0.5-0.2,0.8-0.2
					c0.3,0,0.5,0.1,0.8,0.2c0.3,0.1,0.5,0.4,0.7,0.7c0.2,0.3,0.4,0.7,0.5,1.2c0.1,0.5,0.2,1.1,0.2,1.8c0,0.7-0.1,1.3-0.2,1.8
					c-0.1,0.5-0.3,0.9-0.5,1.2c-0.2,0.3-0.4,0.5-0.7,0.6c-0.3,0.1-0.5,0.2-0.8,0.2c-0.3,0-0.5-0.1-0.8-0.2c-0.3-0.1-0.5-0.3-0.7-0.6
					c-0.2-0.3-0.4-0.7-0.5-1.2c-0.1-0.5-0.2-1.1-0.2-1.8C116.6,38.8,116.7,38.2,116.8,37.8z M117.5,40.8c0,0.4,0.1,0.8,0.2,1.1
					c0.1,0.3,0.3,0.6,0.4,0.7c0.2,0.2,0.4,0.3,0.7,0.3s0.5-0.1,0.7-0.3c0.2-0.2,0.3-0.4,0.4-0.7c0.1-0.3,0.2-0.7,0.2-1.1
					c0-0.4,0.1-0.8,0.1-1.2c0-0.4,0-0.8-0.1-1.2c0-0.4-0.1-0.8-0.2-1.1c-0.1-0.3-0.3-0.6-0.4-0.7c-0.2-0.2-0.4-0.3-0.7-0.3
					s-0.5,0.1-0.7,0.3c-0.2,0.2-0.3,0.4-0.4,0.7c-0.1,0.3-0.2,0.7-0.2,1.1c0,0.4-0.1,0.8-0.1,1.2C117.4,40,117.5,40.4,117.5,40.8z"
					/>
				<path class="st276" d="M122.7,41.7c-0.1-0.6-0.3-1.2-0.4-1.9c-0.1-0.7-0.3-1.3-0.4-2c-0.2-0.7-0.3-1.3-0.5-2
					c0.1,0,0.1,0,0.2,0.1c0.1,0,0.1,0,0.2,0c0.1,0,0.1,0,0.2,0c0.1,0,0.1,0,0.2-0.1c0.2,1,0.3,1.9,0.5,2.9c0.2,1,0.4,2,0.6,3
					c0.1-0.3,0.2-0.7,0.3-1.1c0.1-0.5,0.2-1,0.3-1.5c0.1-0.5,0.2-1.1,0.3-1.7c0.1-0.6,0.2-1.1,0.3-1.6c0.1,0.1,0.2,0.1,0.3,0.1
					c0,0,0.1,0,0.1,0c0,0,0.1,0,0.1-0.1c0.2,1,0.3,2,0.5,2.9c0.2,1,0.4,2,0.6,3c0.1-0.3,0.2-0.7,0.3-1.2c0.1-0.5,0.2-1,0.3-1.5
					c0.1-0.5,0.2-1.1,0.3-1.6c0.1-0.6,0.2-1.1,0.3-1.6c0.1,0.1,0.2,0.1,0.3,0.1c0.1,0,0.2,0,0.3-0.1c-0.3,1.2-0.7,2.5-1,3.7
					c-0.3,1.2-0.6,2.4-0.8,3.6c-0.1,0-0.1,0-0.2,0c0,0-0.1,0-0.1,0c0,0-0.1,0-0.1,0c-0.2-0.9-0.3-1.8-0.5-2.8
					c-0.2-0.9-0.4-1.9-0.6-2.9c-0.1,0.3-0.2,0.7-0.3,1.1c-0.1,0.5-0.2,0.9-0.3,1.5c-0.1,0.5-0.2,1.1-0.3,1.6c-0.1,0.5-0.2,1-0.3,1.5
					c-0.1,0-0.2,0-0.3,0c-0.1,0-0.2,0-0.3,0C122.9,42.8,122.8,42.3,122.7,41.7z"/>
				<path class="st276" d="M132.1,41.7c0,0.2-0.1,0.3-0.2,0.5c-0.1,0.2-0.2,0.4-0.3,0.5c-0.1,0.2-0.3,0.3-0.4,0.4
					c-0.2,0.1-0.4,0.2-0.6,0.2c-0.2,0-0.5-0.1-0.7-0.2c-0.2-0.1-0.4-0.4-0.6-0.7c-0.2-0.3-0.3-0.7-0.4-1.2c-0.1-0.5-0.2-1-0.2-1.7
					c0-0.7,0.1-1.2,0.2-1.7c0.1-0.5,0.3-0.9,0.4-1.2c0.2-0.3,0.4-0.6,0.6-0.7c0.2-0.2,0.5-0.2,0.7-0.2c0.7,0,1.1,0.5,1.4,1.5h0v-1.5
					c0-0.4,0-0.8,0-1.2c0-0.4,0-0.8,0-1.1c0-0.4,0-0.7,0-1c0-0.3,0-0.6,0-0.8c0.1,0,0.1,0,0.2,0.1c0.1,0,0.1,0,0.2,0s0.1,0,0.2,0
					c0.1,0,0.1,0,0.2-0.1c0,0.3,0,0.8,0,1.4c0,0.6,0,1.3,0,2.1c0,0.7,0,1.5,0,2.3c0,0.8,0,1.5,0,2.2c0,0.7,0,1.3,0,1.9
					c0,0.6,0,1.1,0,1.7c-0.1,0-0.2,0-0.4,0c-0.1,0-0.2,0-0.3,0L132.1,41.7L132.1,41.7z M129.6,41.2c0.1,0.4,0.2,0.7,0.3,1
					c0.1,0.2,0.3,0.4,0.4,0.5c0.2,0.1,0.3,0.1,0.4,0.1c0.2,0,0.4-0.1,0.6-0.3c0.2-0.2,0.3-0.5,0.4-0.8c0.1-0.3,0.2-0.7,0.2-1.1
					c0.1-0.4,0.1-0.8,0.1-1.2c0-1-0.1-1.7-0.3-2.3c-0.2-0.5-0.6-0.8-1-0.8c-0.2,0-0.4,0.1-0.6,0.3c-0.2,0.2-0.3,0.4-0.4,0.7
					c-0.1,0.3-0.2,0.7-0.2,1.1c-0.1,0.4-0.1,0.8-0.1,1.3C129.5,40.3,129.5,40.8,129.6,41.2z"/>
				<path class="st276" d="M134.2,36.8c0.4-0.7,0.9-1.1,1.5-1.1c0.3,0,0.6,0.1,0.8,0.3c0.2,0.2,0.4,0.4,0.6,0.7
					c0.2,0.3,0.3,0.6,0.3,1c0.1,0.4,0.1,0.8,0.1,1.2c0,0.1,0,0.2,0,0.3c0,0.1,0,0.2,0,0.3c-0.3,0-0.7,0-1,0c-0.3,0-0.6,0-1,0
					c-0.2,0-0.4,0-0.6,0c-0.2,0-0.4,0-0.6,0c0,0.1,0,0.1,0,0.2v0.2c0,0.4,0,0.8,0.1,1.1c0.1,0.3,0.2,0.6,0.3,0.9
					c0.1,0.3,0.3,0.5,0.5,0.6c0.2,0.1,0.4,0.2,0.7,0.2c0.1,0,0.2,0,0.4-0.1c0.1-0.1,0.3-0.1,0.4-0.2c0.1-0.1,0.2-0.2,0.3-0.3
					c0.1-0.1,0.2-0.3,0.3-0.4l0,0l-0.1,0.8c-0.2,0.2-0.4,0.5-0.7,0.6c-0.3,0.2-0.5,0.3-0.8,0.3c-0.3,0-0.6-0.1-0.9-0.3
					c-0.3-0.2-0.5-0.4-0.7-0.7c-0.2-0.3-0.3-0.7-0.5-1.1c-0.1-0.4-0.2-0.9-0.2-1.4C133.7,38.5,133.9,37.5,134.2,36.8z M135.2,36.5
					c-0.2,0.2-0.3,0.4-0.4,0.7c-0.1,0.3-0.2,0.5-0.2,0.9c-0.1,0.3-0.1,0.6-0.1,0.9c0.2,0,0.4,0,0.6,0c0.2,0,0.4,0,0.6,0
					c0.2,0,0.4,0,0.6,0c0.2,0,0.4,0,0.6,0c0-0.3,0-0.6,0-0.9c0-0.3-0.1-0.6-0.2-0.9c-0.1-0.3-0.2-0.5-0.3-0.7
					c-0.1-0.2-0.3-0.3-0.6-0.3C135.6,36.2,135.4,36.3,135.2,36.5z"/>
				<path class="st276" d="M140.5,37c-0.1-0.1-0.2-0.1-0.3-0.1c-0.1,0-0.3,0.1-0.4,0.2c-0.1,0.1-0.2,0.3-0.3,0.5
					c-0.1,0.2-0.1,0.4-0.2,0.7c0,0.3-0.1,0.5-0.1,0.8v1.7c0,0.7,0,1.2,0,1.6c0,0.4,0,0.7,0,0.9c-0.1,0-0.2,0-0.4,0
					c-0.1,0-0.3,0-0.4,0c0-0.3,0-0.8,0-1.4c0-0.6,0-1.3,0-2.2V39c0-0.4,0-0.9,0-1.4c0-0.5,0-1.1,0-1.8c0.1,0,0.1,0,0.2,0.1
					c0.1,0,0.1,0,0.2,0c0.1,0,0.1,0,0.2,0c0.1,0,0.1,0,0.2-0.1c0,0.4,0,0.7,0,0.9c0,0.2,0,0.4,0,0.6l0,0c0.4-1.1,0.8-1.7,1.2-1.7
					c0.1,0,0.1,0,0.1,0c0,0,0.1,0,0.1,0.1c0,0.1,0,0.3-0.1,0.6c0,0.3,0,0.5,0,0.7l-0.1,0.1C140.7,37.1,140.6,37,140.5,37z"/>
				<path class="st276" d="M141.8,43.5c0.1-0.5,0.3-0.9,0.3-1.4c0.1-0.5,0.1-1,0.2-1.5c0-0.5,0-1.1,0-1.7c0-0.6,0-1.1,0-1.7
					c0-0.5-0.1-1-0.2-1.5c-0.1-0.5-0.2-1-0.3-1.5c-0.1-0.5-0.3-1-0.5-1.5l0.2-0.3c0.5,0.9,0.9,1.9,1.1,3c0.2,1.1,0.4,2.2,0.4,3.4
					c0,1.1-0.1,2.3-0.4,3.4c-0.2,1.1-0.6,2.1-1.1,3l-0.2-0.3C141.5,44.4,141.7,43.9,141.8,43.5z"/>
			</g>
		</g>
		<path class="st276" d="M14.3,7.2c0-2.5,0-3,0-3.5c0-0.6-0.2-0.8-0.7-0.9c-0.1,0-0.4-0.1-0.6-0.1c-0.1,0-0.1,0-0.1-0.1
			c0-0.1,0.1-0.1,0.3-0.1c0.7,0,1.8,0,1.8,0c0.2,0,1.4,0,1.9,0c1,0,2.1,0.1,3,0.7C20.3,3.5,21,4.3,21,5.5c0,1.2-0.5,2.4-2,3.8
			c1.3,1.7,2.5,3.1,3.4,4.2c6.6,7.4,18.1,2.7,18.1,2.7c0,0.1-13.3,6.4-20.8-4c-0.7-0.9-1.4-2-1.8-2.4c-0.1-0.1-0.1-0.1-0.2-0.1l-2,0
			c-0.1,0-0.1,0-0.1,0.1v0.4c0,1.6,0,2.8,0.1,3.5c0.1,0.5,0.1,0.8,0.6,0.9c0.2,0,0.6,0.1,0.7,0.1c0.1,0,0.1,0.1,0.1,0.1
			c0,0.1-0.1,0.1-0.3,0.1c-0.9,0-1.9-0.1-2-0.1c0,0-1,0.1-1.5,0.1c-0.2,0-0.3,0-0.3-0.1c0,0,0-0.1,0.1-0.1c0.1,0,0.3,0,0.5-0.1
			c0.3-0.1,0.4-0.4,0.5-0.9c0.1-0.7,0.1-2,0.1-3.5V7.2z M15.6,8.7c0,0.1,0,0.2,0.1,0.2c0.2,0.1,1,0.3,1.7,0.3c0.4,0,0.8,0,1.2-0.3
			c0.6-0.4,1-1.3,1-2.5c0-2-1.1-3.3-2.8-3.3c-0.5,0-0.9,0.1-1.1,0.1c-0.1,0-0.1,0.1-0.1,0.2V8.7z"/>
		<path class="st276" d="M1.7,6.1c0-3,0-3.5,0-4.1c0-0.6-0.2-0.9-0.8-1.1c-0.2,0-0.5-0.1-0.6-0.1C0.1,0.9,0,0.8,0,0.7
			c0-0.1,0.1-0.1,0.3-0.1c0.9,0,2.1,0.1,2.1,0.1c0.5,0,1.2-0.1,2.1-0.1c3.1,0,3.8,1.9,3.8,2.9c0,1.6-0.9,2.5-1.8,3.4
			c1.4,0.4,3.3,1.8,3.3,4c0,2-1.6,4.1-4.8,4.1c-0.4,0-2.4-0.1-2.5-0.1c-0.1,0-1.3,0.1-1.9,0.1c-0.2,0-0.3,0-0.3-0.1
			c0-0.1,0-0.1,0.1-0.1c0.2,0,0.4,0,0.6-0.1c0.4-0.1,0.5-0.5,0.5-1c0.1-0.8,0.1-2.3,0.1-4.1V6.1z M3.2,6.5c0,0.1,0,0.2,0.1,0.2
			c0.1,0,0.5,0.1,1.2,0.1c1.1,0,1.3,0,1.7-0.5c0.4-0.5,0.7-1.1,0.7-1.9c0-1.6-0.7-3.3-2.6-3.3c-0.2,0-0.6,0-0.9,0.1
			c-0.2,0-0.2,0.1-0.2,0.2V6.5z M3.2,8.5c0,1.5,0,3.8,0,4.1c0.1,0.9,0.1,1.2,0.6,1.5c0.5,0.2,1.3,0.3,1.7,0.3c1,0,2.7-0.6,2.7-2.7
			c0-1.1-0.4-2.8-1.8-3.8C5.7,7.5,5.2,7.4,4.8,7.4c-0.3,0-1.2,0-1.5,0c-0.1,0-0.1,0-0.1,0.1V8.5z"/>
		<path class="st276" d="M27.3,7.3c0-2.6,0-3,0-3.6c0-0.6-0.2-0.8-0.7-0.9c-0.1,0-0.4-0.1-0.6-0.1c-0.1,0-0.1,0-0.1-0.1
			c0-0.1,0.1-0.1,0.3-0.1c0.7,0,1.8,0.1,1.9,0.1c0.1,0,3.4,0,3.8,0c0.3,0,0.6-0.1,0.7-0.1c0.1,0,0.2-0.1,0.2-0.1
			c0,0,0.1,0.1,0.1,0.2c0,0.1-0.1,0.3-0.1,0.8c0,0.2,0,0.9-0.1,1.1c0,0.1,0,0.2-0.1,0.2c-0.1,0-0.1-0.1-0.1-0.2c0-0.1,0-0.4-0.1-0.6
			c-0.1-0.3-0.3-0.5-1.2-0.6c-0.3,0-2.1-0.1-2.3-0.1c-0.1,0-0.1,0.1-0.1,0.2v4.5c0,0.1,0,0.2,0.1,0.2C29,8,31,8,31.4,8
			c0.4,0,0.6-0.1,0.8-0.2c0.1-0.1,0.2-0.2,0.2-0.2c0,0,0.1,0,0.1,0.1c0,0.1-0.1,0.4-0.1,0.9c0,0.3-0.1,0.9-0.1,1.1
			c0,0.1,0,0.3-0.1,0.3c-0.1,0-0.1-0.1-0.1-0.1c0-0.2,0-0.3-0.1-0.5c-0.1-0.2-0.2-0.5-0.9-0.6c-0.4,0-2.1-0.1-2.4-0.1
			c-0.1,0-0.1,0-0.1,0.1v1.4c0,0.6,0,2.5,0,2.8c0,1.1,0.3,1.4,1.9,1.4c0.4,0,1.2,0,1.6-0.2c0.4-0.2,0.6-0.5,0.7-1.2
			c0-0.2,0.1-0.2,0.1-0.2c0.1,0,0.1,0.1,0.1,0.2c0,0.1-0.1,1.3-0.2,1.6C32.8,15,32.7,15,32.1,15c-2.5,0-3.6-0.1-4.1-0.1
			c-0.1,0-1.1,0-1.6,0c-0.2,0-0.3,0-0.3-0.1c0-0.1,0-0.1,0.1-0.1c0.2,0,0.3,0,0.5-0.1c0.3-0.1,0.4-0.4,0.5-0.9
			c0.1-0.7,0.1-2,0.1-3.6V7.3z"/>
		<path class="st276" d="M43.3,2.3c3.8,0,6.7,2.3,6.7,6.1c0,3.7-2.7,6.7-6.8,6.7c-4.6,0-6.6-3.5-6.6-6.4C36.6,6,38.7,2.3,43.3,2.3
			 M43.7,14.4c1.5,0,4.6-0.8,4.6-5.5c0-3.9-2.4-6-5.1-6c-2.8,0-4.9,1.8-4.9,5.3C38.4,12,40.7,14.4,43.7,14.4"/>
		<path class="st276" d="M57,10.1c0-1.6,0-1.9,0-2.2c0-0.4-0.1-0.5-0.4-0.6c-0.1,0-0.3,0-0.4,0c0,0-0.1,0-0.1-0.1
			c0-0.1,0.1-0.1,0.2-0.1c0.5,0,1.2,0,1.2,0c0.1,0,2.3,0,2.5,0c0.2,0,0.4,0,0.5-0.1c0,0,0.1,0,0.1,0c0,0,0,0,0,0.1
			c0,0.1-0.1,0.2-0.1,0.5c0,0.1,0,0.6-0.1,0.7c0,0,0,0.1-0.1,0.1c-0.1,0-0.1,0-0.1-0.1c0-0.1,0-0.2-0.1-0.4
			c-0.1-0.2-0.2-0.2-0.8-0.3c-0.2,0-1.4,0-1.5,0c0,0-0.1,0-0.1,0.1v2.8c0,0.1,0,0.1,0.1,0.1c0.1,0,1.5,0,1.8,0c0.3,0,0.4,0,0.5-0.1
			c0.1-0.1,0.1-0.1,0.2-0.1c0,0,0.1,0,0.1,0.1c0,0.1-0.1,0.2-0.1,0.6c0,0.2,0,0.6,0,0.7c0,0.1,0,0.2-0.1,0.2c0,0-0.1,0-0.1-0.1
			c0-0.1,0-0.2,0-0.3c0-0.1-0.1-0.3-0.5-0.3c-0.3,0-1.4,0-1.6,0C58,11,58,11,58,11.1v0.9c0,0.4,0,1.5,0,1.7c0,0.7,0.2,0.8,1.3,0.8
			c0.3,0,0.8,0,1.1-0.1c0.3-0.1,0.4-0.3,0.5-0.7c0-0.1,0-0.2,0.1-0.2c0.1,0,0.1,0.1,0.1,0.2c0,0.1-0.1,0.8-0.1,1
			c-0.1,0.3-0.2,0.3-0.6,0.3c-0.8,0-1.4,0-1.8,0c-0.4,0-0.7,0-0.9,0c0,0-0.2,0-0.5,0c-0.2,0-0.4,0-0.6,0c-0.1,0-0.2,0-0.2-0.1
			c0,0,0-0.1,0.1-0.1c0.1,0,0.2,0,0.3-0.1c0.2,0,0.2-0.2,0.3-0.5c0.1-0.4,0.1-1.2,0.1-2.2V10.1z"/>
		<path class="st276" d="M64.7,11.9c0,1.5,0,2.1,0.2,2.3c0.2,0.2,0.6,0.2,1.4,0.2c0.6,0,1,0,1.3-0.3c0.1-0.2,0.2-0.4,0.3-0.6
			c0-0.1,0-0.1,0.1-0.1c0,0,0.1,0.1,0.1,0.2c0,0.1-0.1,0.7-0.2,1c-0.1,0.2-0.1,0.3-0.7,0.3c-0.8,0-1.3,0-1.8,0c-0.5,0-0.8,0-1.2,0
			c0,0-0.2,0-0.4,0c-0.2,0-0.4,0-0.6,0c-0.1,0-0.2,0-0.2-0.1c0,0,0-0.1,0.1-0.1c0.1,0,0.2,0,0.3-0.1c0.2,0,0.2-0.2,0.3-0.5
			c0.1-0.4,0.1-1.2,0.1-2.2v-1.8c0-1.6,0-1.9,0-2.2c0-0.4-0.1-0.5-0.4-0.6c-0.1,0-0.3,0-0.4,0c0,0-0.1,0-0.1-0.1
			c0-0.1,0-0.1,0.2-0.1c0.5,0,1.1,0,1.2,0c0,0,0.8,0,1.2,0c0.1,0,0.2,0,0.2,0.1c0,0,0,0.1-0.1,0.1c-0.1,0-0.2,0-0.3,0
			c-0.3,0.1-0.4,0.2-0.4,0.6c0,0.3,0,0.6,0,2.2V11.9z"/>
		<path class="st276" d="M71.1,11.9c0,1.5,0,2.1,0.2,2.3c0.2,0.2,0.6,0.2,1.4,0.2c0.6,0,1,0,1.3-0.3c0.1-0.2,0.2-0.4,0.3-0.6
			c0-0.1,0-0.1,0.1-0.1c0,0,0.1,0.1,0.1,0.2c0,0.1-0.1,0.7-0.2,1c-0.1,0.2-0.1,0.3-0.7,0.3c-0.8,0-1.3,0-1.8,0c-0.5,0-0.8,0-1.2,0
			c-0.1,0-0.2,0-0.4,0c-0.2,0-0.4,0-0.6,0c-0.1,0-0.2,0-0.2-0.1c0,0,0-0.1,0.1-0.1c0.1,0,0.2,0,0.3-0.1c0.2,0,0.2-0.2,0.3-0.5
			c0.1-0.4,0.1-1.2,0.1-2.2v-1.8c0-1.6,0-1.9,0-2.2c0-0.4-0.1-0.5-0.4-0.6c-0.1,0-0.3,0-0.4,0c0,0-0.1,0-0.1-0.1
			c0-0.1,0-0.1,0.2-0.1c0.5,0,1.1,0,1.2,0c0,0,0.8,0,1.2,0c0.1,0,0.2,0,0.2,0.1c0,0,0,0.1-0.1,0.1c-0.1,0-0.2,0-0.3,0
			c-0.3,0.1-0.4,0.2-0.4,0.6c0,0.3,0,0.6,0,2.2V11.9z"/>
		<path class="st276" d="M77.5,11.9c0,1,0,1.8,0,2.2c0,0.3,0.1,0.5,0.4,0.5c0.2,0,0.4,0.1,0.5,0.1c0.1,0,0.1,0,0.1,0.1
			c0,0-0.1,0.1-0.2,0.1c-0.6,0-1.3,0-1.3,0c-0.1,0-0.7,0-1,0c-0.1,0-0.2,0-0.2-0.1c0,0,0-0.1,0.1-0.1c0.1,0,0.2,0,0.3-0.1
			c0.2,0,0.2-0.2,0.3-0.5c0.1-0.4,0.1-1.2,0.1-2.2v-1.8c0-1.6,0-1.9,0-2.2c0-0.4-0.1-0.5-0.3-0.6c-0.1,0-0.3,0-0.3,0
			c0,0-0.1,0-0.1-0.1c0-0.1,0-0.1,0.2-0.1c0.3,0,1,0,1.1,0c0,0,0.7,0,1.1,0c0.1,0,0.2,0,0.2,0.1c0,0,0,0.1-0.1,0.1
			c-0.1,0-0.1,0-0.3,0c-0.3,0.1-0.4,0.2-0.4,0.6c0,0.3,0,0.6,0,2.2V11.9z"/>
		<path class="st276" d="M81.4,10.1c0-1.6,0-1.9,0-2.2c0-0.4-0.1-0.5-0.4-0.6c-0.1,0-0.3,0-0.4,0c0,0-0.1,0-0.1-0.1
			c0-0.1,0-0.1,0.2-0.1c0.5,0,1.1,0,1.2,0c0.2,0,1,0,1.5,0c1.4,0,1.8,0.4,2,0.6C85.7,7.9,86,8.4,86,9c0,1.5-1.1,2.4-2.7,2.4
			c-0.1,0-0.2,0-0.3,0c0,0-0.1-0.1-0.1-0.1c0-0.1,0.1-0.1,0.3-0.1c1.1,0,2-0.7,2-1.7c0-0.3,0-1-0.6-1.6c-0.6-0.6-1.2-0.5-1.4-0.5
			c-0.2,0-0.5,0-0.6,0.1c-0.1,0-0.1,0.1-0.1,0.2v4.2c0,1,0,1.8,0,2.2c0,0.3,0.1,0.5,0.4,0.5c0.1,0,0.4,0.1,0.5,0.1
			c0.1,0,0.1,0,0.1,0.1c0,0,0,0.1-0.2,0.1c-0.6,0-1.3,0-1.3,0c0,0-0.7,0-1,0c-0.1,0-0.2,0-0.2-0.1c0,0,0-0.1,0.1-0.1
			c0.1,0,0.2,0,0.3-0.1c0.2,0,0.2-0.2,0.3-0.5c0.1-0.4,0.1-1.2,0.1-2.2V10.1z"/>
		<path class="st276" d="M90.7,11.9c0,1,0,1.8,0,2.2c0,0.3,0.1,0.5,0.4,0.5c0.1,0,0.4,0.1,0.5,0.1c0.1,0,0.1,0,0.1,0.1
			c0,0,0,0.1-0.2,0.1c-0.6,0-1.3,0-1.3,0c0,0-0.8,0-1.1,0c-0.1,0-0.2,0-0.2-0.1c0,0,0-0.1,0.1-0.1c0.1,0,0.2,0,0.3,0
			c0.2,0,0.3-0.2,0.3-0.5c0.1-0.4,0.1-1.2,0.1-2.2V7.6l-1.5,0c-0.7,0-0.9,0.1-1.1,0.3c-0.1,0.2-0.1,0.3-0.2,0.3
			c0,0.1-0.1,0.1-0.1,0.1c0,0-0.1,0-0.1-0.1c0-0.1,0.2-1,0.2-1.1c0-0.1,0.1-0.2,0.1-0.2c0.1,0,0.2,0.1,0.5,0.1c0.3,0,0.7,0,0.8,0
			h3.8c0.3,0,0.6,0,0.8,0c0.2,0,0.3,0,0.3,0c0,0,0,0.1,0,0.1c0,0.3,0,1,0,1.2c0,0.1,0,0.1-0.1,0.1c0,0-0.1,0-0.1-0.2l0-0.1
			c0-0.3-0.3-0.5-1.3-0.6l-1.1,0V11.9z"/>
		<path class="st276" d="M96.6,7.4C96.7,7,96.8,7,96.8,7c0.1,0,0.1,0.1,0.3,0.4c0.2,0.4,1.9,4.7,2.5,6.2c0.4,0.9,0.7,1,0.9,1.1
			c0.2,0.1,0.3,0.1,0.4,0.1c0.1,0,0.1,0,0.1,0.1c0,0.1-0.1,0.1-0.2,0.1c-0.2,0-0.9,0-1.7,0c-0.2,0-0.4,0-0.4-0.1c0,0,0,0,0.1-0.1
			c0.1,0,0.2-0.1,0.1-0.3l-1-2.3c0-0.1,0-0.1-0.1-0.1h-2.4c0,0-0.1,0-0.1,0.1l-0.6,1.6c-0.1,0.3-0.2,0.5-0.2,0.7
			c0,0.2,0.2,0.3,0.4,0.3h0.1c0.1,0,0.1,0,0.1,0.1c0,0.1-0.1,0.1-0.2,0.1c-0.3,0-0.8,0-1,0c-0.1,0-0.6,0-1.1,0c-0.1,0-0.2,0-0.2-0.1
			c0,0,0-0.1,0.1-0.1c0.1,0,0.2,0,0.3,0c0.5-0.1,0.7-0.4,0.9-0.9L96.6,7.4z M97.8,11.6C97.8,11.6,97.8,11.6,97.8,11.6l-1-2.9
			c-0.1-0.2-0.1-0.2-0.2,0l-1,2.8c0,0,0,0.1,0,0.1H97.8z"/>
		<g>
			<path class="st276" d="M101.6,6.8c1,0,1.8,0.8,1.8,1.8c0,1.1-0.8,1.8-1.8,1.8c-1,0-1.8-0.8-1.8-1.8C99.7,7.6,100.6,6.8,101.6,6.8
				z M101.6,10.2c0.8,0,1.5-0.7,1.5-1.6c0-0.9-0.7-1.5-1.5-1.5c-0.9,0-1.5,0.7-1.5,1.5C100.1,9.5,100.7,10.2,101.6,10.2z M100.9,7.6
				h0.8c0.5,0,0.7,0.2,0.7,0.6c0,0.4-0.2,0.5-0.6,0.6l0.6,0.9h-0.4l-0.6-0.9h-0.4v0.9h-0.3V7.6z M101.2,8.5h0.3c0.3,0,0.6,0,0.6-0.4
				c0-0.3-0.2-0.3-0.5-0.3h-0.4V8.5z"/>
		</g>
		<g>
			<path class="st276" d="M52.4,2.8c1,0,1.8,0.8,1.8,1.8c0,1.1-0.8,1.8-1.8,1.8c-1,0-1.8-0.8-1.8-1.8C50.6,3.6,51.4,2.8,52.4,2.8z
				 M52.4,6.2c0.8,0,1.5-0.7,1.5-1.6c0-0.9-0.7-1.5-1.5-1.5c-0.9,0-1.5,0.7-1.5,1.5C50.9,5.5,51.6,6.2,52.4,6.2z M51.7,3.6h0.8
				c0.5,0,0.7,0.2,0.7,0.6c0,0.4-0.2,0.5-0.6,0.6l0.6,0.9H53l-0.6-0.9H52v0.9h-0.3V3.6z M52,4.5h0.3c0.3,0,0.6,0,0.6-0.4
				c0-0.3-0.2-0.3-0.5-0.3H52V4.5z"/>
		</g>
	</g>
</g>
<g id="Layer_2">
</g>
</svg>
