<?xml version="1.0" encoding="utf-8"?>
<!-- Generator: Adobe Illustrator 19.1.0, SVG Export Plug-In . SVG Version: 6.00 Build 0)  -->
<!DOCTYPE svg PUBLIC "-//W3C//DTD SVG 1.1//EN" "http://www.w3.org/Graphics/SVG/1.1/DTD/svg11.dtd">
<svg version="1.1" xmlns="http://www.w3.org/2000/svg" xmlns:xlink="http://www.w3.org/1999/xlink" x="0px" y="0px" width="156.9px"
	 height="150.7px" viewBox="0 0 156.9 150.7" style="enable-background:new 0 0 156.9 150.7;" xml:space="preserve">
<style type="text/css">
	.st0{clip-path:url(#SVGID_4_);}
	.st1{fill:url(#SVGID_5_);}
	.st2{fill:#231F20;}
	.st3{clip-path:url(#SVGID_7_);fill:#231F20;}
	.st4{clip-path:url(#SVGID_7_);fill:#6FA5D9;}
	.st5{clip-path:url(#SVGID_7_);fill:#007AC1;}
	.st6{fill:none;stroke:#58595B;stroke-width:0.1413;}
	.st7{clip-path:url(#SVGID_9_);fill:#F27021;}
	.st8{clip-path:url(#SVGID_11_);}
	.st9{clip-path:url(#SVGID_15_);}
	.st10{clip-path:url(#SVGID_19_);}
	.st11{clip-path:url(#SVGID_23_);}
	.st12{clip-path:url(#SVGID_27_);}
	.st13{clip-path:url(#SVGID_31_);}
	.st14{clip-path:url(#SVGID_35_);}
	.st15{clip-path:url(#SVGID_37_);}
	.st16{clip-path:url(#SVGID_41_);}
	.st17{clip-path:url(#SVGID_43_);}
	.st18{clip-path:url(#SVGID_47_);}
	.st19{clip-path:url(#SVGID_49_);}
	.st20{clip-path:url(#SVGID_53_);}
	.st21{clip-path:url(#SVGID_55_);}
	.st22{clip-path:url(#SVGID_59_);}
	.st23{clip-path:url(#SVGID_63_);}
	.st24{clip-path:url(#SVGID_67_);}
	.st25{clip-path:url(#SVGID_71_);}
	.st26{clip-path:url(#SVGID_75_);}
	.st27{clip-path:url(#SVGID_79_);}
	.st28{clip-path:url(#SVGID_83_);}
	.st29{clip-path:url(#SVGID_87_);}
	.st30{clip-path:url(#SVGID_91_);}
	.st31{clip-path:url(#SVGID_95_);}
	.st32{clip-path:url(#SVGID_99_);}
	.st33{clip-path:url(#SVGID_103_);}
	.st34{clip-path:url(#SVGID_107_);}
	.st35{clip-path:url(#SVGID_111_);}
	.st36{clip-path:url(#SVGID_115_);}
	.st37{clip-path:url(#SVGID_119_);}
	.st38{clip-path:url(#SVGID_123_);}
	.st39{clip-path:url(#SVGID_127_);}
	.st40{clip-path:url(#SVGID_131_);}
	.st41{clip-path:url(#SVGID_135_);}
	.st42{clip-path:url(#SVGID_139_);}
	.st43{clip-path:url(#SVGID_143_);}
	.st44{clip-path:url(#SVGID_147_);}
	.st45{clip-path:url(#SVGID_151_);}
	.st46{clip-path:url(#SVGID_155_);}
	.st47{clip-path:url(#SVGID_159_);}
	.st48{clip-path:url(#SVGID_161_);}
	.st49{clip-path:url(#SVGID_165_);}
	.st50{clip-path:url(#SVGID_169_);}
	.st51{clip-path:url(#SVGID_173_);}
	.st52{clip-path:url(#SVGID_177_);}
	.st53{clip-path:url(#SVGID_181_);}
	.st54{clip-path:url(#SVGID_185_);}
	.st55{clip-path:url(#SVGID_189_);}
	.st56{clip-path:url(#SVGID_193_);}
	.st57{clip-path:url(#SVGID_197_);}
	.st58{clip-path:url(#SVGID_201_);}
	.st59{clip-path:url(#SVGID_203_);}
	.st60{clip-path:url(#SVGID_207_);}
	.st61{clip-path:url(#SVGID_211_);}
	.st62{clip-path:url(#SVGID_215_);}
	.st63{clip-path:url(#SVGID_219_);}
	.st64{clip-path:url(#SVGID_223_);}
	.st65{clip-path:url(#SVGID_227_);}
	.st66{clip-path:url(#SVGID_231_);}
	.st67{clip-path:url(#SVGID_235_);}
	.st68{clip-path:url(#SVGID_239_);}
	.st69{clip-path:url(#SVGID_243_);}
	.st70{clip-path:url(#SVGID_247_);}
	.st71{clip-path:url(#SVGID_251_);}
	.st72{clip-path:url(#SVGID_255_);}
	.st73{clip-path:url(#SVGID_259_);}
	.st74{clip-path:url(#SVGID_263_);}
	.st75{clip-path:url(#SVGID_267_);}
	.st76{clip-path:url(#SVGID_271_);}
	.st77{clip-path:url(#SVGID_275_);}
	.st78{clip-path:url(#SVGID_279_);}
	.st79{clip-path:url(#SVGID_283_);}
	.st80{clip-path:url(#SVGID_287_);}
	.st81{clip-path:url(#SVGID_291_);}
	.st82{clip-path:url(#SVGID_295_);}
	.st83{clip-path:url(#SVGID_299_);}
	.st84{clip-path:url(#SVGID_303_);}
	.st85{clip-path:url(#SVGID_307_);}
	.st86{clip-path:url(#SVGID_311_);}
	.st87{clip-path:url(#SVGID_315_);}
	.st88{clip-path:url(#SVGID_319_);}
	.st89{clip-path:url(#SVGID_323_);}
	.st90{clip-path:url(#SVGID_327_);}
	.st91{clip-path:url(#SVGID_331_);}
	.st92{clip-path:url(#SVGID_335_);}
	.st93{clip-path:url(#SVGID_339_);}
	.st94{clip-path:url(#SVGID_343_);}
	.st95{clip-path:url(#SVGID_347_);}
	.st96{clip-path:url(#SVGID_351_);}
	.st97{clip-path:url(#SVGID_355_);}
	.st98{clip-path:url(#SVGID_359_);}
	.st99{clip-path:url(#SVGID_363_);}
	.st100{clip-path:url(#SVGID_367_);}
	.st101{clip-path:url(#SVGID_371_);}
	.st102{clip-path:url(#SVGID_375_);}
	.st103{clip-path:url(#SVGID_379_);}
	.st104{clip-path:url(#SVGID_383_);}
	.st105{clip-path:url(#SVGID_387_);}
	.st106{clip-path:url(#SVGID_391_);}
	.st107{clip-path:url(#SVGID_395_);}
	.st108{clip-path:url(#SVGID_399_);}
	.st109{clip-path:url(#SVGID_403_);}
	.st110{clip-path:url(#SVGID_407_);}
	.st111{clip-path:url(#SVGID_411_);}
	.st112{clip-path:url(#SVGID_415_);}
	.st113{clip-path:url(#SVGID_419_);}
	.st114{clip-path:url(#SVGID_423_);}
	.st115{clip-path:url(#SVGID_427_);}
	.st116{clip-path:url(#SVGID_431_);}
	.st117{clip-path:url(#SVGID_435_);}
	.st118{clip-path:url(#SVGID_439_);}
	.st119{clip-path:url(#SVGID_443_);}
	.st120{clip-path:url(#SVGID_447_);}
	.st121{clip-path:url(#SVGID_451_);}
	.st122{clip-path:url(#SVGID_455_);}
	.st123{clip-path:url(#SVGID_459_);}
	.st124{clip-path:url(#SVGID_461_);}
	.st125{clip-path:url(#SVGID_465_);}
	.st126{clip-path:url(#SVGID_469_);}
	.st127{clip-path:url(#SVGID_471_);}
	.st128{clip-path:url(#SVGID_475_);}
	.st129{clip-path:url(#SVGID_479_);}
	.st130{clip-path:url(#SVGID_481_);}
	.st131{clip-path:url(#SVGID_485_);}
	.st132{clip-path:url(#SVGID_487_);}
	.st133{clip-path:url(#SVGID_491_);}
	.st134{clip-path:url(#SVGID_493_);}
	.st135{clip-path:url(#SVGID_497_);}
	.st136{clip-path:url(#SVGID_499_);}
	.st137{clip-path:url(#SVGID_503_);}
	.st138{clip-path:url(#SVGID_505_);}
	.st139{clip-path:url(#SVGID_509_);}
	.st140{clip-path:url(#SVGID_513_);}
	.st141{clip-path:url(#SVGID_515_);}
	.st142{clip-path:url(#SVGID_519_);}
	.st143{clip-path:url(#SVGID_521_);}
	.st144{clip-path:url(#SVGID_525_);}
	.st145{clip-path:url(#SVGID_527_);}
	.st146{clip-path:url(#SVGID_531_);}
	.st147{clip-path:url(#SVGID_533_);}
	.st148{clip-path:url(#SVGID_537_);}
	.st149{clip-path:url(#SVGID_539_);}
	.st150{clip-path:url(#SVGID_543_);}
	.st151{clip-path:url(#SVGID_547_);}
	.st152{clip-path:url(#SVGID_551_);}
	.st153{clip-path:url(#SVGID_555_);}
	.st154{clip-path:url(#SVGID_559_);}
	.st155{clip-path:url(#SVGID_563_);}
	.st156{clip-path:url(#SVGID_567_);}
	.st157{clip-path:url(#SVGID_571_);}
	.st158{clip-path:url(#SVGID_575_);}
	.st159{clip-path:url(#SVGID_579_);}
	.st160{clip-path:url(#SVGID_583_);}
	.st161{clip-path:url(#SVGID_587_);}
	.st162{clip-path:url(#SVGID_591_);}
	.st163{clip-path:url(#SVGID_595_);}
	.st164{clip-path:url(#SVGID_599_);}
	.st165{clip-path:url(#SVGID_603_);}
	.st166{clip-path:url(#SVGID_607_);}
	.st167{clip-path:url(#SVGID_611_);}
	.st168{clip-path:url(#SVGID_615_);}
	.st169{clip-path:url(#SVGID_619_);}
	.st170{clip-path:url(#SVGID_623_);}
	.st171{clip-path:url(#SVGID_627_);}
	.st172{clip-path:url(#SVGID_631_);}
	.st173{clip-path:url(#SVGID_635_);}
	.st174{clip-path:url(#SVGID_639_);}
	.st175{clip-path:url(#SVGID_643_);}
	.st176{clip-path:url(#SVGID_647_);}
	.st177{clip-path:url(#SVGID_651_);}
	.st178{clip-path:url(#SVGID_655_);}
	.st179{clip-path:url(#SVGID_659_);}
	.st180{clip-path:url(#SVGID_663_);}
	.st181{clip-path:url(#SVGID_667_);}
	.st182{clip-path:url(#SVGID_671_);}
	.st183{clip-path:url(#SVGID_673_);}
	.st184{clip-path:url(#SVGID_677_);}
	.st185{clip-path:url(#SVGID_681_);}
	.st186{clip-path:url(#SVGID_683_);}
	.st187{clip-path:url(#SVGID_687_);}
	.st188{clip-path:url(#SVGID_691_);}
	.st189{clip-path:url(#SVGID_695_);}
	.st190{clip-path:url(#SVGID_699_);}
	.st191{clip-path:url(#SVGID_703_);}
	.st192{clip-path:url(#SVGID_707_);}
	.st193{clip-path:url(#SVGID_711_);}
	.st194{clip-path:url(#SVGID_715_);}
	.st195{clip-path:url(#SVGID_719_);}
	.st196{clip-path:url(#SVGID_723_);}
	.st197{clip-path:url(#SVGID_727_);}
	.st198{clip-path:url(#SVGID_731_);}
	.st199{clip-path:url(#SVGID_735_);}
	.st200{clip-path:url(#SVGID_739_);}
	.st201{clip-path:url(#SVGID_743_);}
	.st202{clip-path:url(#SVGID_747_);}
	.st203{clip-path:url(#SVGID_751_);}
	.st204{clip-path:url(#SVGID_755_);}
	.st205{clip-path:url(#SVGID_759_);}
	.st206{clip-path:url(#SVGID_763_);}
	.st207{clip-path:url(#SVGID_767_);}
	.st208{clip-path:url(#SVGID_771_);}
	.st209{clip-path:url(#SVGID_775_);}
	.st210{clip-path:url(#SVGID_779_);}
	.st211{clip-path:url(#SVGID_783_);}
	.st212{clip-path:url(#SVGID_787_);}
	.st213{clip-path:url(#SVGID_791_);}
	.st214{clip-path:url(#SVGID_795_);}
	.st215{clip-path:url(#SVGID_799_);}
	.st216{clip-path:url(#SVGID_803_);}
	.st217{clip-path:url(#SVGID_807_);}
	.st218{clip-path:url(#SVGID_811_);}
	.st219{clip-path:url(#SVGID_815_);}
	.st220{clip-path:url(#SVGID_819_);}
	.st221{clip-path:url(#SVGID_823_);}
	.st222{clip-path:url(#SVGID_827_);}
	.st223{clip-path:url(#SVGID_831_);}
	.st224{clip-path:url(#SVGID_835_);}
	.st225{clip-path:url(#SVGID_839_);}
	.st226{clip-path:url(#SVGID_843_);}
	.st227{clip-path:url(#SVGID_847_);}
	.st228{clip-path:url(#SVGID_851_);}
	.st229{clip-path:url(#SVGID_855_);}
	.st230{clip-path:url(#SVGID_859_);}
	.st231{clip-path:url(#SVGID_863_);}
	.st232{clip-path:url(#SVGID_867_);}
	.st233{clip-path:url(#SVGID_871_);}
	.st234{clip-path:url(#SVGID_875_);}
	.st235{clip-path:url(#SVGID_879_);}
	.st236{clip-path:url(#SVGID_883_);}
	.st237{clip-path:url(#SVGID_887_);}
	.st238{clip-path:url(#SVGID_891_);}
	.st239{clip-path:url(#SVGID_895_);}
	.st240{clip-path:url(#SVGID_899_);}
	.st241{clip-path:url(#SVGID_903_);}
	.st242{clip-path:url(#SVGID_905_);}
	.st243{clip-path:url(#SVGID_909_);}
	.st244{clip-path:url(#SVGID_913_);}
	.st245{clip-path:url(#SVGID_917_);}
	.st246{clip-path:url(#SVGID_921_);}
	.st247{clip-path:url(#SVGID_925_);}
	.st248{clip-path:url(#SVGID_929_);}
	.st249{clip-path:url(#SVGID_933_);}
	.st250{clip-path:url(#SVGID_937_);}
	.st251{clip-path:url(#SVGID_941_);}
	.st252{clip-path:url(#SVGID_945_);}
	.st253{clip-path:url(#SVGID_949_);}
	.st254{clip-path:url(#SVGID_953_);}
	.st255{clip-path:url(#SVGID_957_);}
	.st256{clip-path:url(#SVGID_959_);}
	.st257{clip-path:url(#SVGID_963_);}
	.st258{clip-path:url(#SVGID_965_);}
	.st259{clip-path:url(#SVGID_969_);}
	.st260{clip-path:url(#SVGID_973_);}
	.st261{clip-path:url(#SVGID_975_);}
	.st262{clip-path:url(#SVGID_979_);}
	.st263{clip-path:url(#SVGID_981_);}
	.st264{clip-path:url(#SVGID_985_);}
	.st265{clip-path:url(#SVGID_987_);}
	.st266{clip-path:url(#SVGID_991_);}
	.st267{clip-path:url(#SVGID_995_);}
	.st268{clip-path:url(#SVGID_999_);}
	.st269{clip-path:url(#SVGID_1003_);}
	.st270{clip-path:url(#SVGID_1007_);}
	.st271{clip-path:url(#SVGID_1011_);fill:#FFFFFF;}
	.st272{clip-path:url(#SVGID_1013_);}
	.st273{opacity:0.44;clip-path:url(#SVGID_1013_);fill:url(#SVGID_1014_);}
	.st274{opacity:0.74;clip-path:url(#SVGID_1013_);fill:url(#SVGID_1015_);}
	.st275{fill:none;}
	.st276{fill:#002D73;}
	.st277{fill:url(#SVGID_1016_);}
	.st278{opacity:0.66;clip-path:url(#SVGID_1018_);}
	.st279{opacity:0.66;}
	.st280{clip-path:url(#SVGID_1020_);fill:#FFFFFF;}
	.st281{clip-path:url(#SVGID_1018_);}
	.st282{clip-path:url(#SVGID_1022_);fill:url(#SVGID_1023_);}
	.st283{clip-path:url(#SVGID_1022_);fill:url(#SVGID_1024_);}
	.st284{clip-path:url(#SVGID_1026_);}
	.st285{clip-path:url(#SVGID_1030_);}
	.st286{clip-path:url(#SVGID_1032_);}
	.st287{opacity:0.65;fill:url(#SVGID_1033_);}
	.st288{opacity:0.89;fill:url(#SVGID_1034_);}
	.st289{fill:url(#SVGID_1035_);}
	.st290{opacity:0.66;clip-path:url(#SVGID_1037_);}
	.st291{clip-path:url(#SVGID_1039_);fill:#FFFFFF;}
	.st292{clip-path:url(#SVGID_1037_);}
	.st293{clip-path:url(#SVGID_1041_);fill:#FFFFFF;}
	.st294{clip-path:url(#SVGID_1041_);fill:url(#SVGID_1042_);}
	.st295{clip-path:url(#SVGID_1041_);fill:url(#SVGID_1043_);}
	.st296{fill:url(#SVGID_1044_);}
	.st297{opacity:0.66;clip-path:url(#SVGID_1046_);}
	.st298{clip-path:url(#SVGID_1048_);fill:#FFFFFF;}
	.st299{clip-path:url(#SVGID_1046_);}
	.st300{clip-path:url(#SVGID_1050_);fill:#FFFFFF;}
	.st301{clip-path:url(#SVGID_1050_);fill:url(#SVGID_1051_);}
	.st302{clip-path:url(#SVGID_1050_);fill:url(#SVGID_1052_);}
	.st303{opacity:0.44;clip-path:url(#SVGID_1050_);fill:url(#SVGID_1053_);}
	.st304{opacity:0.74;clip-path:url(#SVGID_1050_);fill:url(#SVGID_1054_);}
	.st305{opacity:0.89;clip-path:url(#SVGID_1046_);fill:url(#SVGID_1055_);}
	.st306{fill:url(#SVGID_1056_);}
	.st307{opacity:0.66;clip-path:url(#SVGID_1058_);}
	.st308{clip-path:url(#SVGID_1060_);fill:#FFFFFF;}
	.st309{clip-path:url(#SVGID_1058_);}
	.st310{clip-path:url(#SVGID_1062_);fill:url(#SVGID_1063_);}
	.st311{clip-path:url(#SVGID_1062_);fill:url(#SVGID_1064_);}
	.st312{clip-path:url(#SVGID_1066_);}
	.st313{opacity:0.5;fill:url(#SVGID_1069_);}
	.st314{fill:url(#SVGID_1070_);}
	.st315{clip-path:url(#SVGID_1071_);fill:none;stroke:#002D73;stroke-width:3.1257;stroke-linecap:round;stroke-miterlimit:10;}
	.st316{fill:url(#SVGID_1074_);stroke:#FFFFFF;stroke-width:1.8484;stroke-miterlimit:10;}
	.st317{fill:#FFFFFF;}
	.st318{fill:#FFE8BA;}
	.st319{fill:none;stroke:#002D73;stroke-miterlimit:10;}
	.st320{fill:url(#SVGID_1075_);}
	.st321{fill:none;stroke:#002D73;stroke-width:0.859;stroke-miterlimit:10;}
	.st322{clip-path:url(#SVGID_1077_);fill:#231F20;}
	.st323{clip-path:url(#SVGID_1077_);fill:#6FA5D9;}
	.st324{clip-path:url(#SVGID_1077_);fill:#007AC1;}
	.st325{clip-path:url(#SVGID_1079_);fill:#F27021;}
	.st326{clip-path:url(#SVGID_1081_);}
	.st327{clip-path:url(#SVGID_1085_);}
	.st328{clip-path:url(#SVGID_1089_);}
	.st329{clip-path:url(#SVGID_1093_);}
	.st330{clip-path:url(#SVGID_1097_);}
	.st331{clip-path:url(#SVGID_1101_);}
	.st332{clip-path:url(#SVGID_1105_);}
	.st333{clip-path:url(#SVGID_1107_);}
	.st334{clip-path:url(#SVGID_1111_);}
	.st335{clip-path:url(#SVGID_1113_);}
	.st336{clip-path:url(#SVGID_1117_);}
	.st337{clip-path:url(#SVGID_1119_);}
	.st338{clip-path:url(#SVGID_1123_);}
	.st339{clip-path:url(#SVGID_1125_);}
	.st340{clip-path:url(#SVGID_1129_);}
	.st341{clip-path:url(#SVGID_1133_);}
	.st342{clip-path:url(#SVGID_1137_);}
	.st343{clip-path:url(#SVGID_1141_);}
	.st344{clip-path:url(#SVGID_1145_);}
	.st345{clip-path:url(#SVGID_1149_);}
	.st346{clip-path:url(#SVGID_1153_);}
	.st347{clip-path:url(#SVGID_1157_);}
	.st348{clip-path:url(#SVGID_1161_);}
	.st349{clip-path:url(#SVGID_1165_);}
	.st350{clip-path:url(#SVGID_1169_);}
	.st351{clip-path:url(#SVGID_1173_);}
	.st352{clip-path:url(#SVGID_1177_);}
	.st353{clip-path:url(#SVGID_1181_);}
	.st354{clip-path:url(#SVGID_1185_);}
	.st355{clip-path:url(#SVGID_1189_);}
	.st356{clip-path:url(#SVGID_1193_);}
	.st357{clip-path:url(#SVGID_1197_);}
	.st358{clip-path:url(#SVGID_1201_);}
	.st359{clip-path:url(#SVGID_1205_);}
	.st360{clip-path:url(#SVGID_1209_);}
	.st361{clip-path:url(#SVGID_1213_);}
	.st362{clip-path:url(#SVGID_1217_);}
	.st363{clip-path:url(#SVGID_1221_);}
	.st364{clip-path:url(#SVGID_1225_);}
	.st365{clip-path:url(#SVGID_1229_);}
	.st366{clip-path:url(#SVGID_1231_);}
	.st367{clip-path:url(#SVGID_1235_);}
	.st368{clip-path:url(#SVGID_1239_);}
	.st369{clip-path:url(#SVGID_1243_);}
	.st370{clip-path:url(#SVGID_1247_);}
	.st371{clip-path:url(#SVGID_1251_);}
	.st372{clip-path:url(#SVGID_1255_);}
	.st373{clip-path:url(#SVGID_1259_);}
	.st374{clip-path:url(#SVGID_1263_);}
	.st375{clip-path:url(#SVGID_1267_);}
	.st376{clip-path:url(#SVGID_1271_);}
	.st377{clip-path:url(#SVGID_1273_);}
	.st378{clip-path:url(#SVGID_1277_);}
	.st379{clip-path:url(#SVGID_1281_);}
	.st380{clip-path:url(#SVGID_1285_);}
	.st381{clip-path:url(#SVGID_1289_);}
	.st382{clip-path:url(#SVGID_1293_);}
	.st383{clip-path:url(#SVGID_1297_);}
	.st384{clip-path:url(#SVGID_1301_);}
	.st385{clip-path:url(#SVGID_1305_);}
	.st386{clip-path:url(#SVGID_1309_);}
	.st387{clip-path:url(#SVGID_1313_);}
	.st388{clip-path:url(#SVGID_1317_);}
	.st389{clip-path:url(#SVGID_1321_);}
	.st390{clip-path:url(#SVGID_1325_);}
	.st391{clip-path:url(#SVGID_1329_);}
	.st392{clip-path:url(#SVGID_1333_);}
	.st393{clip-path:url(#SVGID_1337_);}
	.st394{clip-path:url(#SVGID_1341_);}
	.st395{clip-path:url(#SVGID_1345_);}
	.st396{clip-path:url(#SVGID_1349_);}
	.st397{clip-path:url(#SVGID_1353_);}
	.st398{clip-path:url(#SVGID_1357_);}
	.st399{clip-path:url(#SVGID_1361_);}
	.st400{clip-path:url(#SVGID_1365_);}
	.st401{clip-path:url(#SVGID_1369_);}
	.st402{clip-path:url(#SVGID_1373_);}
	.st403{clip-path:url(#SVGID_1377_);}
	.st404{clip-path:url(#SVGID_1381_);}
	.st405{clip-path:url(#SVGID_1385_);}
	.st406{clip-path:url(#SVGID_1389_);}
	.st407{clip-path:url(#SVGID_1393_);}
	.st408{clip-path:url(#SVGID_1397_);}
	.st409{clip-path:url(#SVGID_1401_);}
	.st410{clip-path:url(#SVGID_1405_);}
	.st411{clip-path:url(#SVGID_1409_);}
	.st412{clip-path:url(#SVGID_1413_);}
	.st413{clip-path:url(#SVGID_1417_);}
	.st414{clip-path:url(#SVGID_1421_);}
	.st415{clip-path:url(#SVGID_1425_);}
	.st416{clip-path:url(#SVGID_1429_);}
	.st417{clip-path:url(#SVGID_1433_);}
	.st418{clip-path:url(#SVGID_1437_);}
	.st419{clip-path:url(#SVGID_1441_);}
	.st420{clip-path:url(#SVGID_1445_);}
	.st421{clip-path:url(#SVGID_1449_);}
	.st422{clip-path:url(#SVGID_1453_);}
	.st423{clip-path:url(#SVGID_1457_);}
	.st424{clip-path:url(#SVGID_1461_);}
	.st425{clip-path:url(#SVGID_1465_);}
	.st426{clip-path:url(#SVGID_1469_);}
	.st427{clip-path:url(#SVGID_1473_);}
	.st428{clip-path:url(#SVGID_1477_);}
	.st429{clip-path:url(#SVGID_1481_);}
	.st430{clip-path:url(#SVGID_1485_);}
	.st431{clip-path:url(#SVGID_1489_);}
	.st432{clip-path:url(#SVGID_1493_);}
	.st433{clip-path:url(#SVGID_1497_);}
	.st434{clip-path:url(#SVGID_1501_);}
	.st435{clip-path:url(#SVGID_1505_);}
	.st436{clip-path:url(#SVGID_1509_);}
	.st437{clip-path:url(#SVGID_1513_);}
	.st438{clip-path:url(#SVGID_1517_);}
	.st439{clip-path:url(#SVGID_1521_);}
	.st440{clip-path:url(#SVGID_1525_);}
	.st441{clip-path:url(#SVGID_1529_);}
	.st442{clip-path:url(#SVGID_1531_);}
	.st443{clip-path:url(#SVGID_1535_);}
	.st444{clip-path:url(#SVGID_1539_);}
	.st445{clip-path:url(#SVGID_1541_);}
	.st446{clip-path:url(#SVGID_1545_);}
	.st447{clip-path:url(#SVGID_1549_);}
	.st448{clip-path:url(#SVGID_1551_);}
	.st449{clip-path:url(#SVGID_1555_);}
	.st450{clip-path:url(#SVGID_1557_);}
	.st451{clip-path:url(#SVGID_1561_);}
	.st452{clip-path:url(#SVGID_1563_);}
	.st453{clip-path:url(#SVGID_1567_);}
	.st454{clip-path:url(#SVGID_1569_);}
	.st455{clip-path:url(#SVGID_1573_);}
	.st456{clip-path:url(#SVGID_1575_);}
	.st457{clip-path:url(#SVGID_1579_);}
	.st458{clip-path:url(#SVGID_1583_);}
	.st459{clip-path:url(#SVGID_1585_);}
	.st460{clip-path:url(#SVGID_1589_);}
	.st461{clip-path:url(#SVGID_1591_);}
	.st462{clip-path:url(#SVGID_1595_);}
	.st463{clip-path:url(#SVGID_1597_);}
	.st464{clip-path:url(#SVGID_1601_);}
	.st465{clip-path:url(#SVGID_1603_);}
	.st466{clip-path:url(#SVGID_1607_);}
	.st467{clip-path:url(#SVGID_1609_);}
	.st468{clip-path:url(#SVGID_1613_);}
	.st469{clip-path:url(#SVGID_1617_);}
	.st470{clip-path:url(#SVGID_1621_);}
	.st471{clip-path:url(#SVGID_1625_);}
	.st472{clip-path:url(#SVGID_1629_);}
	.st473{clip-path:url(#SVGID_1633_);}
	.st474{clip-path:url(#SVGID_1637_);}
	.st475{clip-path:url(#SVGID_1641_);}
	.st476{clip-path:url(#SVGID_1645_);}
	.st477{clip-path:url(#SVGID_1649_);}
	.st478{clip-path:url(#SVGID_1653_);}
	.st479{clip-path:url(#SVGID_1657_);}
	.st480{clip-path:url(#SVGID_1661_);}
	.st481{clip-path:url(#SVGID_1665_);}
	.st482{clip-path:url(#SVGID_1669_);}
	.st483{clip-path:url(#SVGID_1673_);}
	.st484{clip-path:url(#SVGID_1677_);}
	.st485{clip-path:url(#SVGID_1681_);}
	.st486{clip-path:url(#SVGID_1685_);}
	.st487{clip-path:url(#SVGID_1689_);}
	.st488{clip-path:url(#SVGID_1693_);}
	.st489{clip-path:url(#SVGID_1697_);}
	.st490{clip-path:url(#SVGID_1701_);}
	.st491{clip-path:url(#SVGID_1705_);}
	.st492{clip-path:url(#SVGID_1709_);}
	.st493{clip-path:url(#SVGID_1713_);}
	.st494{clip-path:url(#SVGID_1717_);}
	.st495{clip-path:url(#SVGID_1721_);}
	.st496{clip-path:url(#SVGID_1725_);}
	.st497{clip-path:url(#SVGID_1729_);}
	.st498{clip-path:url(#SVGID_1733_);}
	.st499{clip-path:url(#SVGID_1737_);}
	.st500{clip-path:url(#SVGID_1741_);}
	.st501{clip-path:url(#SVGID_1743_);}
	.st502{clip-path:url(#SVGID_1747_);}
	.st503{clip-path:url(#SVGID_1751_);}
	.st504{clip-path:url(#SVGID_1753_);}
	.st505{clip-path:url(#SVGID_1757_);}
	.st506{clip-path:url(#SVGID_1761_);}
	.st507{clip-path:url(#SVGID_1765_);}
	.st508{clip-path:url(#SVGID_1769_);}
	.st509{clip-path:url(#SVGID_1773_);}
	.st510{clip-path:url(#SVGID_1777_);}
	.st511{clip-path:url(#SVGID_1781_);}
	.st512{clip-path:url(#SVGID_1785_);}
	.st513{clip-path:url(#SVGID_1789_);}
	.st514{clip-path:url(#SVGID_1793_);}
	.st515{clip-path:url(#SVGID_1797_);}
	.st516{clip-path:url(#SVGID_1801_);}
	.st517{clip-path:url(#SVGID_1805_);}
	.st518{clip-path:url(#SVGID_1809_);}
	.st519{clip-path:url(#SVGID_1813_);}
	.st520{clip-path:url(#SVGID_1817_);}
	.st521{clip-path:url(#SVGID_1821_);}
	.st522{clip-path:url(#SVGID_1825_);}
	.st523{clip-path:url(#SVGID_1829_);}
	.st524{clip-path:url(#SVGID_1833_);}
	.st525{clip-path:url(#SVGID_1837_);}
	.st526{clip-path:url(#SVGID_1841_);}
	.st527{clip-path:url(#SVGID_1845_);}
	.st528{clip-path:url(#SVGID_1849_);}
	.st529{clip-path:url(#SVGID_1853_);}
	.st530{clip-path:url(#SVGID_1857_);}
	.st531{clip-path:url(#SVGID_1861_);}
	.st532{clip-path:url(#SVGID_1865_);}
	.st533{clip-path:url(#SVGID_1869_);}
	.st534{clip-path:url(#SVGID_1873_);}
	.st535{clip-path:url(#SVGID_1877_);}
	.st536{clip-path:url(#SVGID_1881_);}
	.st537{clip-path:url(#SVGID_1885_);}
	.st538{clip-path:url(#SVGID_1889_);}
	.st539{clip-path:url(#SVGID_1893_);}
	.st540{clip-path:url(#SVGID_1897_);}
	.st541{clip-path:url(#SVGID_1901_);}
	.st542{clip-path:url(#SVGID_1905_);}
	.st543{clip-path:url(#SVGID_1909_);}
	.st544{clip-path:url(#SVGID_1913_);}
	.st545{clip-path:url(#SVGID_1917_);}
	.st546{clip-path:url(#SVGID_1921_);}
	.st547{clip-path:url(#SVGID_1925_);}
	.st548{clip-path:url(#SVGID_1929_);}
	.st549{clip-path:url(#SVGID_1933_);}
	.st550{clip-path:url(#SVGID_1937_);}
	.st551{clip-path:url(#SVGID_1941_);}
	.st552{clip-path:url(#SVGID_1945_);}
	.st553{clip-path:url(#SVGID_1949_);}
	.st554{clip-path:url(#SVGID_1953_);}
	.st555{clip-path:url(#SVGID_1957_);}
	.st556{clip-path:url(#SVGID_1961_);}
	.st557{clip-path:url(#SVGID_1965_);}
	.st558{clip-path:url(#SVGID_1969_);}
	.st559{clip-path:url(#SVGID_1973_);}
	.st560{clip-path:url(#SVGID_1975_);}
	.st561{clip-path:url(#SVGID_1979_);}
	.st562{clip-path:url(#SVGID_1983_);}
	.st563{clip-path:url(#SVGID_1987_);}
	.st564{clip-path:url(#SVGID_1991_);}
	.st565{clip-path:url(#SVGID_1995_);}
	.st566{clip-path:url(#SVGID_1999_);}
	.st567{clip-path:url(#SVGID_2003_);}
	.st568{clip-path:url(#SVGID_2007_);}
	.st569{clip-path:url(#SVGID_2011_);}
	.st570{clip-path:url(#SVGID_2015_);}
	.st571{clip-path:url(#SVGID_2019_);}
	.st572{clip-path:url(#SVGID_2023_);}
	.st573{clip-path:url(#SVGID_2027_);}
	.st574{clip-path:url(#SVGID_2029_);}
	.st575{clip-path:url(#SVGID_2033_);}
	.st576{clip-path:url(#SVGID_2035_);}
	.st577{clip-path:url(#SVGID_2039_);}
	.st578{clip-path:url(#SVGID_2043_);}
	.st579{clip-path:url(#SVGID_2045_);}
	.st580{clip-path:url(#SVGID_2049_);}
	.st581{clip-path:url(#SVGID_2051_);}
	.st582{clip-path:url(#SVGID_2055_);}
	.st583{clip-path:url(#SVGID_2057_);}
	.st584{clip-path:url(#SVGID_2061_);}
	.st585{clip-path:url(#SVGID_2065_);}
	.st586{clip-path:url(#SVGID_2069_);}
	.st587{clip-path:url(#SVGID_2073_);}
	.st588{clip-path:url(#SVGID_2077_);}
	.st589{clip-path:url(#SVGID_2081_);fill:#FFFFFF;}
	.st590{opacity:0.74;fill:url(#SVGID_2082_);}
	.st591{opacity:0.44;fill:url(#SVGID_2083_);}
	.st592{opacity:0.89;fill:url(#SVGID_2084_);}
	.st593{opacity:0.65;fill:url(#SVGID_2085_);}
	.st594{fill:url(#SVGID_2086_);}
	.st595{opacity:0.5;fill:url(#SVGID_2087_);}
	.st596{fill:url(#SVGID_2088_);}
	.st597{clip-path:url(#SVGID_2089_);fill:none;stroke:#002D73;stroke-width:3.1257;stroke-linecap:round;stroke-miterlimit:10;}
	.st598{fill:url(#SVGID_2092_);stroke:#FFFFFF;stroke-width:1.8484;stroke-miterlimit:10;}
	.st599{fill:url(#SVGID_2093_);}
	.st600{clip-path:url(#SVGID_2095_);fill:#FFFFFF;}
	.st601{clip-path:url(#SVGID_2097_);fill:url(#SVGID_2098_);}
	.st602{clip-path:url(#SVGID_2097_);fill:url(#SVGID_2099_);}
	.st603{fill:none;stroke:#002D73;stroke-linecap:round;stroke-miterlimit:10;}
	.st604{display:none;fill:none;}
</style>
<g id="Layer_1">
	<g>
		<rect y="1" class="st275" width="156.9" height="149.6"/>
		<path class="st276" d="M19.4,10.8V9.3c0.8-0.8,3.9-3.4,3.9-5.1c0-0.8-0.7-1.2-1.5-1.2c-0.8,0-1.5,0.3-2.1,0.7l-0.1-1.5
			c0.8-0.4,1.8-0.7,2.7-0.7c1.7,0,2.8,0.9,2.8,2.7c0,1.9-1.9,3.7-3.4,5.1h3.7v1.4H19.4z"/>
		<path class="st276" d="M26.3,7.4l3.4-5.7H32v5.8h1.2v1.4H32v1.9h-1.7V8.9h-3.9V7.4z M30.2,7.6V3.6h0l-2.2,3.9H30.2z"/>
		<path class="st276" d="M33.8,8V6.6h3.4V8H33.8z"/>
		<path class="st276" d="M38.5,1h1.7v4h0c0.4-0.6,1.2-1.1,2.1-1.1c1.6,0,2.3,1.1,2.3,2.6v4.2H43V7.2c0-0.8,0-1.9-1.1-1.9
			c-1.3,0-1.5,1.4-1.5,2.2v3.3h-1.7V1z"/>
		<path class="st276" d="M49.6,3.9c2,0,3.5,1.3,3.5,3.5c0,1.9-1.3,3.5-3.5,3.5c-2.2,0-3.5-1.5-3.5-3.5C46.1,5.3,47.6,3.9,49.6,3.9z
			 M49.6,9.6c1.3,0,1.7-1.2,1.7-2.3c0-1-0.5-2-1.7-2c-1.1,0-1.7,1-1.7,2C47.9,8.4,48.2,9.6,49.6,9.6z"/>
		<path class="st276" d="M60.6,10.8h-1.7V9.9h0c-0.5,0.7-1.3,1.1-2.2,1.1c-1.6,0-2.3-1.1-2.3-2.6V4.1h1.7v3.6c0,0.8,0,1.9,1.1,1.9
			c1.3,0,1.5-1.4,1.5-2.2V4.1h1.7V10.8z"/>
		<path class="st276" d="M62.4,4.1H64v1.5h0c0.1-0.6,0.8-1.7,1.8-1.7c0.2,0,0.4,0,0.5,0.1v1.8c-0.2-0.1-0.5-0.1-0.8-0.1
			c-1.4,0-1.4,1.8-1.4,2.7v2.5h-1.7V4.1z"/>
		<path class="st276" d="M71.2,1.7h3.2c1.2,0,2.9,0.3,2.9,2.3c0,1.1-0.7,1.8-1.8,2v0c1.2,0.1,2.1,0.9,2.1,2.1c0,2.3-2.1,2.6-3.2,2.6
			h-3.2V1.7z M73,5.4h0.7c0.8,0,1.7-0.2,1.7-1.1c0-1.1-0.9-1.1-1.8-1.1H73V5.4z M73,9.4h0.9c0.8,0,1.9-0.2,1.9-1.3
			c0-1.2-1-1.4-1.9-1.4H73V9.4z"/>
		<path class="st276" d="M79,1.7h2c2,0,4.3-0.1,4.3,2.5c0,1.1-0.7,2-1.9,2.1v0c0.5,0,0.8,0.5,1,0.9l1.5,3.5h-2L82.7,8
			C82.4,7.3,82.2,7,81.4,7h-0.6v3.8H79V1.7z M80.8,5.6h0.6c0.9,0,1.9-0.1,1.9-1.3c0-1.1-1-1.2-1.9-1.2h-0.6V5.6z"/>
		<path class="st276" d="M87.1,1.7h5.4v1.4h-3.5v2.2h3.2v1.4h-3.2v2.5h3.6v1.4h-5.4V1.7z"/>
		<path class="st276" d="M98.3,1.6c2.8,0,4.4,1.9,4.4,4.7s-1.6,4.7-4.4,4.7c-2.9,0-4.4-1.9-4.4-4.7C93.9,3.4,95.4,1.6,98.3,1.6z
			 M98.3,9.5c1.9,0,2.5-1.7,2.5-3.3c0-1.6-0.7-3.2-2.5-3.2c-1.8,0-2.5,1.6-2.5,3.2C95.8,7.9,96.5,9.5,98.3,9.5z"/>
		<path class="st276" d="M107.9,1.2h1.7v1.7h-1.7V1.2z M107.9,4.1h1.7v6.7h-1.7V4.1z"/>
		<path class="st276" d="M115.5,5.5c-0.5-0.2-0.9-0.3-1.6-0.3c-0.5,0-1,0.2-1,0.7c0,1.1,3,0.4,3,2.8c0,1.6-1.4,2.2-2.8,2.2
			c-0.7,0-1.3-0.1-2-0.3l0.1-1.4c0.5,0.3,1.1,0.4,1.7,0.4c0.4,0,1.1-0.2,1.1-0.8c0-1.3-3-0.4-3-2.8c0-1.4,1.3-2.1,2.6-2.1
			c0.8,0,1.4,0.1,1.9,0.2L115.5,5.5z"/>
		<path class="st276" d="M121.5,5.4h-1.3V4.1h1.3V3.2c0-1.3,0.8-2.3,2.1-2.3c0.4,0,0.9,0.1,1.3,0.1l-0.1,1.4
			c-0.2-0.1-0.4-0.2-0.8-0.2c-0.6,0-0.8,0.5-0.8,1v0.8h1.5v1.3h-1.5v5.4h-1.7V5.4z"/>
		<path class="st276" d="M129,3.9c2,0,3.5,1.3,3.5,3.5c0,1.9-1.3,3.5-3.5,3.5c-2.2,0-3.5-1.5-3.5-3.5C125.5,5.3,127,3.9,129,3.9z
			 M129,9.6c1.3,0,1.7-1.2,1.7-2.3c0-1-0.5-2-1.7-2c-1.1,0-1.7,1-1.7,2C127.3,8.4,127.7,9.6,129,9.6z"/>
		<path class="st276" d="M133.9,4.1h1.5v1.5h0c0.1-0.6,0.8-1.7,1.8-1.7c0.2,0,0.4,0,0.5,0.1v1.8c-0.2-0.1-0.5-0.1-0.8-0.1
			c-1.4,0-1.4,1.8-1.4,2.7v2.5h-1.7V4.1z"/>
		<path class="st276" d="M21.1,20c0.7-0.3,1.6-0.5,2.3-0.5c2,0,2.9,0.8,2.9,2.8v0.9c0,0.7,0,1.2,0,1.7c0,0.5,0,1,0.1,1.5h-1.5
			c-0.1-0.4-0.1-0.8-0.1-1h0c-0.4,0.7-1.3,1.2-2.1,1.2c-1.2,0-2.3-0.7-2.3-2c0-1,0.5-1.6,1.1-1.9s1.5-0.4,2.2-0.4h1
			c0-1.1-0.5-1.4-1.5-1.4c-0.7,0-1.5,0.3-2.1,0.7L21.1,20z M23.2,25.3c0.5,0,0.9-0.2,1.2-0.6c0.3-0.4,0.4-0.9,0.4-1.4H24
			c-0.8,0-1.9,0.1-1.9,1.2C22.1,25,22.6,25.3,23.2,25.3z"/>
		<path class="st276" d="M32.5,25.6L32.5,25.6c-0.5,0.6-1.3,0.9-2.1,0.9c-2.1,0-2.8-1.7-2.8-3.5c0-1.8,0.8-3.5,2.8-3.5
			c0.9,0,1.5,0.3,2,0.9h0v-3.8h1.7v9.8h-1.7V25.6z M30.9,25.2c1.2,0,1.5-1.2,1.5-2.2c0-0.9-0.4-2.1-1.6-2.1c-1.1,0-1.4,1.2-1.4,2.1
			C29.5,23.9,29.8,25.2,30.9,25.2z"/>
		<path class="st276" d="M42.2,26.4h-1.7v-0.9h0c-0.5,0.7-1.3,1.1-2.2,1.1c-1.6,0-2.3-1.1-2.3-2.6v-4.2h1.7v3.6c0,0.8,0,1.9,1.1,1.9
			c1.3,0,1.5-1.4,1.5-2.2v-3.3h1.7V26.4z"/>
		<path class="st276" d="M44,16.6h1.7v9.8H44V16.6z"/>
		<path class="st276" d="M48.1,21h-1.3v-1.3h1.3v-1.3l1.7-0.6v1.9h1.5V21h-1.5v3.1c0,0.6,0.2,1.1,0.8,1.1c0.3,0,0.6-0.1,0.8-0.2
			l0.1,1.4c-0.4,0.1-0.8,0.2-1.3,0.2c-1.4,0-2.1-0.8-2.1-2.2V21z"/>
		<path class="st276" d="M56.2,19.7h1.7v0.9h0c0.4-0.7,1.1-1.1,2.1-1.1c2.1,0,2.8,1.6,2.8,3.5c0,1.8-0.8,3.5-2.8,3.5
			c-0.7,0-1.4-0.2-2-0.9h0v3.5h-1.7V19.7z M58,23c0,0.9,0.4,2.2,1.5,2.2c1.1,0,1.5-1.2,1.5-2.2c0-0.9-0.3-2.1-1.4-2.1
			C58.4,20.9,58,22.1,58,23z"/>
		<path class="st276" d="M64.5,20c0.7-0.3,1.6-0.5,2.3-0.5c2,0,2.9,0.8,2.9,2.8v0.9c0,0.7,0,1.2,0,1.7c0,0.5,0,1,0.1,1.5h-1.5
			c-0.1-0.4-0.1-0.8-0.1-1h0c-0.4,0.7-1.3,1.2-2.1,1.2c-1.2,0-2.3-0.7-2.3-2c0-1,0.5-1.6,1.1-1.9c0.7-0.3,1.5-0.4,2.2-0.4h1
			c0-1.1-0.5-1.4-1.5-1.4c-0.7,0-1.5,0.3-2.1,0.7L64.5,20z M66.5,25.3c0.5,0,0.9-0.2,1.2-0.6c0.3-0.4,0.4-0.9,0.4-1.4h-0.8
			c-0.8,0-1.9,0.1-1.9,1.2C65.4,25,65.9,25.3,66.5,25.3z"/>
		<path class="st276" d="M72,21h-1.3v-1.3H72v-1.3l1.7-0.6v1.9h1.5V21h-1.5v3.1c0,0.6,0.2,1.1,0.8,1.1c0.3,0,0.6-0.1,0.8-0.2
			l0.1,1.4c-0.4,0.1-0.8,0.2-1.3,0.2c-1.4,0-2.1-0.8-2.1-2.2V21z"/>
		<path class="st276" d="M76.5,16.8h1.7v1.7h-1.7V16.8z M76.5,19.7h1.7v6.7h-1.7V19.7z"/>
		<path class="st276" d="M85.5,26c-0.6,0.4-1.4,0.5-2.3,0.5c-2.2,0-3.5-1.3-3.5-3.5c0-1.9,1-3.5,3.1-3.5c2.5,0,3.2,1.7,3.2,4h-4.6
			c0.1,1.1,0.8,1.7,1.9,1.7c0.8,0,1.6-0.3,2.2-0.7V26z M84.3,22.4c-0.1-0.8-0.4-1.6-1.4-1.6c-1,0-1.5,0.7-1.5,1.6H84.3z"/>
		<path class="st276" d="M87.3,19.7H89v0.9h0c0.5-0.8,1.3-1.1,2.2-1.1c1.6,0,2.3,1.1,2.3,2.6v4.2h-1.7v-3.6c0-0.8,0-1.9-1.1-1.9
			c-1.3,0-1.5,1.4-1.5,2.2v3.3h-1.7V19.7z"/>
		<path class="st276" d="M95.8,21h-1.3v-1.3h1.3v-1.3l1.7-0.6v1.9h1.5V21h-1.5v3.1c0,0.6,0.2,1.1,0.8,1.1c0.3,0,0.6-0.1,0.8-0.2
			l0.1,1.4c-0.4,0.1-0.8,0.2-1.3,0.2c-1.4,0-2.1-0.8-2.1-2.2V21z"/>
		<path class="st276" d="M104.3,21.1c-0.5-0.2-0.9-0.3-1.6-0.3c-0.5,0-1,0.2-1,0.7c0,1.1,3,0.4,3,2.8c0,1.6-1.4,2.2-2.8,2.2
			c-0.7,0-1.3-0.1-2-0.3l0.1-1.4c0.5,0.3,1.1,0.4,1.7,0.4c0.4,0,1.1-0.2,1.1-0.8c0-1.3-3-0.4-3-2.8c0-1.4,1.3-2.1,2.6-2.1
			c0.8,0,1.4,0.1,1.9,0.2L104.3,21.1z"/>
		<path class="st276" d="M108.9,19.7h1.8l1.5,5h0l1.4-5h2l1.5,5h0l1.4-5h1.7l-2.1,6.7h-2.1l-1.5-5.1h0l-1.4,5.1h-2L108.9,19.7z"/>
		<path class="st276" d="M121.3,16.8h1.7v1.7h-1.7V16.8z M121.3,19.7h1.7v6.7h-1.7V19.7z"/>
		<path class="st276" d="M125.4,21h-1.3v-1.3h1.3v-1.3l1.7-0.6v1.9h1.5V21h-1.5v3.1c0,0.6,0.2,1.1,0.8,1.1c0.3,0,0.6-0.1,0.8-0.2
			l0.1,1.4c-0.4,0.1-0.8,0.2-1.3,0.2c-1.4,0-2.1-0.8-2.1-2.2V21z"/>
		<path class="st276" d="M129.9,16.6h1.7v4h0c0.4-0.7,1.2-1.1,2.1-1.1c1.6,0,2.3,1.1,2.3,2.6v4.2h-1.7v-3.6c0-0.8,0-1.9-1.1-1.9
			c-1.3,0-1.5,1.4-1.5,2.2v3.3h-1.7V16.6z"/>
		<path class="st276" d="M16.5,35.6c0.7-0.3,1.6-0.5,2.3-0.5c2,0,2.9,0.8,2.9,2.8v0.9c0,0.7,0,1.2,0,1.7c0,0.5,0,1,0.1,1.5h-1.5
			c-0.1-0.4-0.1-0.8-0.1-1h0c-0.4,0.7-1.3,1.2-2.1,1.2c-1.2,0-2.3-0.7-2.3-2c0-1,0.5-1.6,1.1-1.9s1.5-0.4,2.2-0.4h1
			c0-1.1-0.5-1.4-1.5-1.4c-0.7,0-1.5,0.3-2.1,0.7L16.5,35.6z M18.5,40.9c0.5,0,0.9-0.2,1.2-0.6c0.3-0.4,0.4-0.9,0.4-1.4h-0.8
			c-0.8,0-1.9,0.1-1.9,1.2C17.4,40.6,17.9,40.9,18.5,40.9z"/>
		<path class="st276" d="M27.4,36.7c-0.5-0.2-0.9-0.3-1.6-0.3c-0.5,0-1,0.2-1,0.7c0,1.1,3,0.4,3,2.8c0,1.6-1.4,2.2-2.8,2.2
			c-0.7,0-1.3-0.1-2-0.3l0.1-1.4c0.5,0.3,1.1,0.4,1.7,0.4c0.4,0,1.1-0.2,1.1-0.8c0-1.3-3-0.4-3-2.8c0-1.4,1.3-2.1,2.6-2.1
			c0.8,0,1.4,0.1,1.9,0.2L27.4,36.7z"/>
		<path class="st276" d="M29.7,36.6h-1.3v-1.3h1.3V34l1.7-0.6v1.9H33v1.3h-1.5v3.1c0,0.6,0.2,1.1,0.8,1.1c0.3,0,0.6-0.1,0.8-0.2
			l0.1,1.4c-0.4,0.1-0.8,0.2-1.3,0.2c-1.4,0-2.1-0.8-2.1-2.2V36.6z"/>
		<path class="st276" d="M34.2,32.2H36v4h0c0.4-0.6,1.2-1.1,2.1-1.1c1.6,0,2.3,1.1,2.3,2.6V42h-1.7v-3.6c0-0.8,0-1.9-1.1-1.9
			c-1.3,0-1.5,1.4-1.5,2.2V42h-1.7V32.2z"/>
		<path class="st276" d="M42.1,35.3h1.6v0.9h0c0.5-0.8,1.3-1.1,2-1.1c0.9,0,1.6,0.4,2,1.2c0.4-0.8,1.3-1.2,2.1-1.2
			c1.7,0,2.1,1.1,2.1,2.6V42h-1.7v-4c0-0.6,0-1.5-1-1.5c-1.2,0-1.3,1.4-1.3,2.2V42h-1.7v-4c0-0.6,0-1.5-1-1.5
			c-1.2,0-1.3,1.4-1.3,2.2V42h-1.7V35.3z"/>
		<path class="st276" d="M54,35.6c0.7-0.3,1.6-0.5,2.3-0.5c2,0,2.9,0.8,2.9,2.8v0.9c0,0.7,0,1.2,0,1.7c0,0.5,0,1,0.1,1.5h-1.5
			c-0.1-0.4-0.1-0.8-0.1-1h0c-0.4,0.7-1.3,1.2-2.1,1.2c-1.2,0-2.3-0.7-2.3-2c0-1,0.5-1.6,1.1-1.9c0.7-0.3,1.5-0.4,2.2-0.4h1
			c0-1.1-0.5-1.4-1.5-1.4c-0.7,0-1.5,0.3-2.1,0.7L54,35.6z M56.1,40.9c0.5,0,0.9-0.2,1.2-0.6c0.3-0.4,0.4-0.9,0.4-1.4h-0.8
			c-0.8,0-1.9,0.1-1.9,1.2C54.9,40.6,55.4,40.9,56.1,40.9z"/>
		<path class="st276" d="M70.7,42h-1.7v-0.9h0c-0.5,0.7-1.3,1.1-2.2,1.1c-1.6,0-2.3-1.1-2.3-2.6v-4.2h1.7v3.6c0,0.8,0,1.9,1.1,1.9
			c1.3,0,1.5-1.4,1.5-2.2v-3.3h1.7V42z"/>
		<path class="st276" d="M72.5,35.3h1.7v0.9h0c0.5-0.8,1.3-1.1,2.2-1.1c1.6,0,2.3,1.1,2.3,2.6V42h-1.7v-3.6c0-0.8,0-1.9-1.1-1.9
			c-1.3,0-1.5,1.4-1.5,2.2V42h-1.7V35.3z"/>
		<path class="st276" d="M84.8,36.7c-0.3-0.1-0.7-0.2-1.2-0.2c-1.1,0-1.8,0.9-1.8,2.1c0,1.2,0.6,2.2,1.8,2.2c0.5,0,1-0.2,1.3-0.3
			l0.1,1.4c-0.5,0.2-1,0.2-1.7,0.2c-2.2,0-3.3-1.5-3.3-3.5c0-1.9,1.1-3.5,3.2-3.5c0.7,0,1.2,0.1,1.7,0.2L84.8,36.7z"/>
		<path class="st276" d="M89.3,35.1c2,0,3.5,1.3,3.5,3.5c0,1.9-1.3,3.5-3.5,3.5c-2.2,0-3.5-1.5-3.5-3.5
			C85.8,36.5,87.3,35.1,89.3,35.1z M89.3,40.8c1.3,0,1.7-1.2,1.7-2.3c0-1-0.5-2-1.7-2c-1.1,0-1.7,1-1.7,2
			C87.6,39.6,88,40.8,89.3,40.8z"/>
		<path class="st276" d="M94.2,35.3h1.7v0.9h0c0.5-0.8,1.3-1.1,2.2-1.1c1.6,0,2.3,1.1,2.3,2.6V42h-1.7v-3.6c0-0.8,0-1.9-1.1-1.9
			c-1.3,0-1.5,1.4-1.5,2.2V42h-1.7V35.3z"/>
		<path class="st276" d="M102.7,36.6h-1.3v-1.3h1.3V34l1.7-0.6v1.9h1.5v1.3h-1.5v3.1c0,0.6,0.2,1.1,0.8,1.1c0.3,0,0.6-0.1,0.8-0.2
			l0.1,1.4c-0.4,0.1-0.8,0.2-1.3,0.2c-1.4,0-2.1-0.8-2.1-2.2V36.6z"/>
		<path class="st276" d="M107.2,35.3h1.5v1.5h0c0.1-0.6,0.8-1.7,1.8-1.7c0.2,0,0.4,0,0.5,0.1v1.8c-0.2-0.1-0.5-0.1-0.8-0.1
			c-1.4,0-1.4,1.8-1.4,2.7V42h-1.7V35.3z"/>
		<path class="st276" d="M115.3,35.1c2,0,3.5,1.3,3.5,3.5c0,1.9-1.3,3.5-3.5,3.5c-2.2,0-3.5-1.5-3.5-3.5
			C111.8,36.5,113.3,35.1,115.3,35.1z M115.3,40.8c1.3,0,1.7-1.2,1.7-2.3c0-1-0.5-2-1.7-2c-1.1,0-1.7,1-1.7,2
			C113.6,39.6,114,40.8,115.3,40.8z"/>
		<path class="st276" d="M120.2,32.2h1.7V42h-1.7V32.2z"/>
		<path class="st276" d="M123.8,32.2h1.7V42h-1.7V32.2z"/>
		<path class="st276" d="M132.8,41.6c-0.6,0.4-1.4,0.5-2.3,0.5c-2.2,0-3.5-1.3-3.5-3.5c0-1.9,1-3.5,3.1-3.5c2.5,0,3.2,1.7,3.2,4
			h-4.6c0.1,1.1,0.8,1.7,1.9,1.7c0.8,0,1.6-0.3,2.2-0.7V41.6z M131.6,38c-0.1-0.8-0.4-1.6-1.4-1.6c-1,0-1.5,0.7-1.5,1.6H131.6z"/>
		<path class="st276" d="M139.1,41.2L139.1,41.2c-0.5,0.7-1.3,0.9-2.1,0.9c-2.1,0-2.8-1.7-2.8-3.5c0-1.8,0.8-3.5,2.8-3.5
			c0.9,0,1.5,0.3,2,0.9h0v-3.8h1.7V42h-1.7V41.2z M137.5,40.8c1.2,0,1.5-1.2,1.5-2.2c0-0.9-0.4-2.1-1.6-2.1c-1.1,0-1.4,1.2-1.4,2.1
			C136,39.5,136.3,40.8,137.5,40.8z"/>
		<path class="st276" d="M23.6,50.7c2,0,3.5,1.3,3.5,3.5c0,1.9-1.3,3.5-3.5,3.5c-2.2,0-3.5-1.5-3.5-3.5
			C20.1,52.1,21.6,50.7,23.6,50.7z M23.6,56.4c1.3,0,1.7-1.2,1.7-2.3c0-1-0.5-2-1.7-2c-1.1,0-1.7,1-1.7,2
			C21.9,55.2,22.2,56.4,23.6,56.4z"/>
		<path class="st276" d="M28.4,50.9h1.7v0.9h0c0.5-0.8,1.3-1.1,2.2-1.1c1.6,0,2.3,1.1,2.3,2.6v4.2h-1.7V54c0-0.8,0-1.9-1.1-1.9
			c-1.3,0-1.5,1.4-1.5,2.2v3.3h-1.7V50.9z"/>
		<path class="st276" d="M40.3,51.2c0.7-0.3,1.6-0.5,2.3-0.5c2,0,2.9,0.8,2.9,2.8v0.9c0,0.7,0,1.2,0,1.7c0,0.5,0,1,0.1,1.5h-1.5
			c-0.1-0.4-0.1-0.8-0.1-1h0c-0.4,0.7-1.3,1.2-2.1,1.2c-1.2,0-2.3-0.7-2.3-2c0-1,0.5-1.6,1.1-1.9s1.5-0.4,2.2-0.4h1
			c0-1.1-0.5-1.4-1.5-1.4c-0.7,0-1.5,0.3-2.1,0.7L40.3,51.2z M42.3,56.5c0.5,0,0.9-0.2,1.2-0.6c0.3-0.4,0.4-0.9,0.4-1.4h-0.8
			c-0.8,0-1.9,0.1-1.9,1.2C41.2,56.2,41.7,56.5,42.3,56.5z"/>
		<path class="st276" d="M47.2,50.9h1.7v0.9h0c0.5-0.8,1.3-1.1,2.2-1.1c1.6,0,2.3,1.1,2.3,2.6v4.2h-1.7V54c0-0.8,0-1.9-1.1-1.9
			c-1.3,0-1.5,1.4-1.5,2.2v3.3h-1.7V50.9z"/>
		<path class="st276" d="M58.8,48.5h1.8v9.1h-1.8V48.5z"/>
		<path class="st276" d="M69.1,57.5c-0.7,0.2-1.4,0.3-2.1,0.3c-2.9,0-5-1.5-5-4.5c0-3.1,1.9-4.8,5-4.8c0.6,0,1.4,0.1,2.1,0.4
			L69,50.3c-0.7-0.4-1.3-0.5-2-0.5c-1.9,0-3,1.4-3,3.3c0,1.8,1.1,3.2,3.1,3.2c0.7,0,1.6-0.2,2-0.4L69.1,57.5z"/>
		<path class="st276" d="M75.4,50.2c-0.6-0.2-1.2-0.4-1.8-0.4c-0.6,0-1.4,0.3-1.4,1.3c0,1.6,4,0.9,4,4c0,2-1.6,2.7-3.4,2.7
			c-1,0-1.4-0.1-2.3-0.4l0.2-1.6c0.6,0.3,1.3,0.6,2.1,0.6c0.7,0,1.6-0.4,1.6-1.2c0-1.7-4-1-4-4c0-2,1.6-2.8,3.2-2.8
			c0.8,0,1.5,0.1,2.2,0.3L75.4,50.2z"/>
		<path class="st276" d="M84.2,50.7c2,0,3.5,1.3,3.5,3.5c0,1.9-1.3,3.5-3.5,3.5c-2.2,0-3.5-1.5-3.5-3.5
			C80.7,52.1,82.3,50.7,84.2,50.7z M84.2,56.4c1.3,0,1.7-1.2,1.7-2.3c0-1-0.5-2-1.7-2c-1.1,0-1.7,1-1.7,2
			C82.6,55.2,82.9,56.4,84.2,56.4z"/>
		<path class="st276" d="M89.2,50.9h1.5v1.5h0c0.1-0.6,0.8-1.7,1.8-1.7c0.2,0,0.4,0,0.5,0.1v1.8c-0.2-0.1-0.5-0.1-0.8-0.1
			c-1.4,0-1.4,1.8-1.4,2.7v2.5h-1.7V50.9z"/>
		<path class="st276" d="M97,50.9h1.8l1.5,5h0l1.4-5h2l1.5,5h0l1.4-5h1.7l-2.1,6.7h-2.1l-1.5-5.1h0l-1.4,5.1h-2L97,50.9z"/>
		<path class="st276" d="M109.3,47.8h1.7v4h0c0.4-0.6,1.2-1.1,2.1-1.1c1.6,0,2.3,1.1,2.3,2.6v4.2h-1.7V54c0-0.8,0-1.9-1.1-1.9
			c-1.3,0-1.5,1.4-1.5,2.2v3.3h-1.7V47.8z"/>
		<path class="st276" d="M120.4,50.7c2,0,3.5,1.3,3.5,3.5c0,1.9-1.3,3.5-3.5,3.5c-2.2,0-3.5-1.5-3.5-3.5
			C116.9,52.1,118.4,50.7,120.4,50.7z M120.4,56.4c1.3,0,1.7-1.2,1.7-2.3c0-1-0.5-2-1.7-2c-1.1,0-1.7,1-1.7,2
			C118.7,55.2,119,56.4,120.4,56.4z"/>
		<path class="st276" d="M129.2,52.3c-0.5-0.2-0.9-0.3-1.6-0.3c-0.5,0-1,0.2-1,0.7c0,1.1,3,0.4,3,2.8c0,1.6-1.4,2.2-2.8,2.2
			c-0.7,0-1.3-0.1-2-0.3L125,56c0.5,0.3,1.1,0.4,1.7,0.4c0.4,0,1.1-0.2,1.1-0.8c0-1.3-3-0.4-3-2.8c0-1.4,1.3-2.1,2.6-2.1
			c0.8,0,1.4,0.1,1.9,0.2L129.2,52.3z"/>
		<path class="st276" d="M136.4,57.2c-0.6,0.4-1.4,0.5-2.3,0.5c-2.2,0-3.5-1.3-3.5-3.5c0-1.9,1-3.5,3.1-3.5c2.5,0,3.2,1.7,3.2,4
			h-4.6c0.1,1.1,0.8,1.7,1.9,1.7c0.8,0,1.6-0.3,2.2-0.7V57.2z M135.2,53.6c-0.1-0.8-0.4-1.6-1.4-1.6c-1,0-1.5,0.7-1.5,1.6H135.2z"/>
		<path class="st276" d="M13.7,72.4L13.7,72.4c-0.5,0.6-1.3,0.9-2.1,0.9c-2.1,0-2.8-1.7-2.8-3.5c0-1.8,0.8-3.5,2.8-3.5
			c0.9,0,1.5,0.3,2,0.9h0v-3.8h1.7v9.8h-1.7V72.4z M12.1,72c1.2,0,1.5-1.2,1.5-2.2c0-0.9-0.4-2.1-1.6-2.1c-1.1,0-1.4,1.2-1.4,2.1
			C10.7,70.7,11,72,12.1,72z"/>
		<path class="st276" d="M17.3,63.6H19v1.7h-1.7V63.6z M17.3,66.5H19v6.7h-1.7V66.5z"/>
		<path class="st276" d="M24.8,67.9c-0.5-0.2-0.9-0.3-1.6-0.3c-0.5,0-1,0.2-1,0.7c0,1.1,3,0.4,3,2.8c0,1.6-1.4,2.2-2.8,2.2
			c-0.7,0-1.3-0.1-2-0.3l0.1-1.4c0.5,0.3,1.1,0.4,1.7,0.4c0.4,0,1.1-0.2,1.1-0.8c0-1.3-3-0.4-3-2.8c0-1.4,1.3-2.1,2.6-2.1
			c0.8,0,1.4,0.1,1.9,0.2L24.8,67.9z"/>
		<path class="st276" d="M32,72.8c-0.6,0.4-1.4,0.5-2.3,0.5c-2.2,0-3.5-1.3-3.5-3.5c0-1.9,1-3.5,3.1-3.5c2.5,0,3.2,1.7,3.2,4h-4.6
			c0.1,1.1,0.8,1.7,1.9,1.7c0.8,0,1.6-0.3,2.2-0.7V72.8z M30.8,69.2c-0.1-0.8-0.4-1.6-1.4-1.6c-1,0-1.5,0.7-1.5,1.6H30.8z"/>
		<path class="st276" d="M34.1,66.8c0.7-0.3,1.6-0.5,2.3-0.5c2,0,2.9,0.8,2.9,2.8V70c0,0.7,0,1.2,0,1.7c0,0.5,0,1,0.1,1.5h-1.5
			c-0.1-0.4-0.1-0.8-0.1-1h0c-0.4,0.7-1.3,1.2-2.1,1.2c-1.2,0-2.3-0.7-2.3-2c0-1,0.5-1.6,1.1-1.9s1.5-0.4,2.2-0.4h1
			c0-1.1-0.5-1.4-1.5-1.4c-0.7,0-1.5,0.3-2.1,0.7L34.1,66.8z M36.2,72.1c0.5,0,0.9-0.2,1.2-0.6c0.3-0.4,0.4-0.9,0.4-1.4H37
			c-0.8,0-1.9,0.1-1.9,1.2C35.1,71.8,35.5,72.1,36.2,72.1z"/>
		<path class="st276" d="M45,67.9c-0.5-0.2-0.9-0.3-1.6-0.3c-0.5,0-1,0.2-1,0.7c0,1.1,3,0.4,3,2.8c0,1.6-1.4,2.2-2.8,2.2
			c-0.7,0-1.3-0.1-2-0.3l0.1-1.4c0.5,0.3,1.1,0.4,1.7,0.4c0.4,0,1.1-0.2,1.1-0.8c0-1.3-3-0.4-3-2.8c0-1.4,1.3-2.1,2.6-2.1
			c0.8,0,1.4,0.1,1.9,0.2L45,67.9z"/>
		<path class="st276" d="M52.2,72.8c-0.6,0.4-1.4,0.5-2.3,0.5c-2.2,0-3.5-1.3-3.5-3.5c0-1.9,1-3.5,3.1-3.5c2.5,0,3.2,1.7,3.2,4h-4.6
			c0.1,1.1,0.8,1.7,1.9,1.7c0.8,0,1.6-0.3,2.2-0.7V72.8z M51,69.2c-0.1-0.8-0.4-1.6-1.4-1.6c-1,0-1.5,0.7-1.5,1.6H51z"/>
		<path class="st276" d="M61.6,67.9c-0.5-0.2-0.9-0.3-1.6-0.3c-0.5,0-1,0.2-1,0.7c0,1.1,3,0.4,3,2.8c0,1.6-1.4,2.2-2.8,2.2
			c-0.7,0-1.3-0.1-2-0.3l0.1-1.4c0.5,0.3,1.1,0.4,1.7,0.4c0.4,0,1.1-0.2,1.1-0.8c0-1.3-3-0.4-3-2.8c0-1.4,1.3-2.1,2.6-2.1
			c0.8,0,1.4,0.1,1.9,0.2L61.6,67.9z"/>
		<path class="st276" d="M68.8,72.8c-0.6,0.4-1.4,0.5-2.3,0.5c-2.2,0-3.5-1.3-3.5-3.5c0-1.9,1-3.5,3.1-3.5c2.5,0,3.2,1.7,3.2,4h-4.6
			c0.1,1.1,0.8,1.7,1.9,1.7c0.8,0,1.6-0.3,2.2-0.7V72.8z M67.6,69.2c-0.1-0.8-0.4-1.6-1.4-1.6c-1,0-1.5,0.7-1.5,1.6H67.6z"/>
		<path class="st276" d="M69.9,66.5h1.9l1.7,4.9h0l1.6-4.9h1.7l-2.5,6.7h-2L69.9,66.5z"/>
		<path class="st276" d="M83.3,72.8c-0.6,0.4-1.4,0.5-2.3,0.5c-2.2,0-3.5-1.3-3.5-3.5c0-1.9,1-3.5,3.1-3.5c2.5,0,3.2,1.7,3.2,4h-4.6
			c0.1,1.1,0.8,1.7,1.9,1.7c0.8,0,1.6-0.3,2.2-0.7V72.8z M82.1,69.2c-0.1-0.8-0.4-1.6-1.4-1.6c-1,0-1.5,0.7-1.5,1.6H82.1z"/>
		<path class="st276" d="M85.2,66.5h1.5V68h0c0.1-0.6,0.8-1.7,1.8-1.7c0.2,0,0.4,0,0.5,0.1v1.8C89,68.1,88.6,68,88.3,68
			c-1.4,0-1.4,1.8-1.4,2.7v2.5h-1.7V66.5z"/>
		<path class="st276" d="M90.2,63.6H92v1.7h-1.7V63.6z M90.2,66.5H92v6.7h-1.7V66.5z"/>
		<path class="st276" d="M94.4,67.8h-1.3v-1.3h1.3v-1.3l1.7-0.6v1.9h1.5v1.3h-1.5v3.1c0,0.6,0.2,1.1,0.8,1.1c0.3,0,0.6-0.1,0.8-0.2
			l0.1,1.4c-0.4,0.1-0.8,0.2-1.3,0.2c-1.4,0-2.1-0.8-2.1-2.2V67.8z"/>
		<path class="st276" d="M101.6,71.4L101.6,71.4l1.6-4.9h1.8l-2.5,6.6c-0.6,1.5-1,2.9-2.8,2.9c-0.4,0-0.8-0.1-1.2-0.2l0.1-1.3
			c0.2,0.1,0.5,0.1,0.9,0.1c0.7,0,1.1-0.5,1.1-1.2l-2.6-7h1.9L101.6,71.4z"/>
		<path class="st276" d="M114,67.9c-0.3-0.1-0.7-0.2-1.2-0.2c-1.1,0-1.8,0.9-1.8,2.1c0,1.2,0.6,2.2,1.8,2.2c0.5,0,1-0.2,1.3-0.3
			l0.1,1.4c-0.5,0.2-1,0.2-1.7,0.2c-2.2,0-3.3-1.5-3.3-3.5c0-1.9,1.1-3.5,3.2-3.5c0.7,0,1.2,0.1,1.7,0.2L114,67.9z"/>
		<path class="st276" d="M115.5,63.4h1.7v9.8h-1.7V63.4z"/>
		<path class="st276" d="M124.5,72.8c-0.6,0.4-1.4,0.5-2.3,0.5c-2.2,0-3.5-1.3-3.5-3.5c0-1.9,1-3.5,3.1-3.5c2.5,0,3.2,1.7,3.2,4
			h-4.6c0.1,1.1,0.8,1.7,1.9,1.7c0.8,0,1.6-0.3,2.2-0.7V72.8z M123.3,69.2c-0.1-0.8-0.4-1.6-1.4-1.6c-1,0-1.5,0.7-1.5,1.6H123.3z"/>
		<path class="st276" d="M126.6,66.8c0.7-0.3,1.6-0.5,2.3-0.5c2,0,2.9,0.8,2.9,2.8V70c0,0.7,0,1.2,0,1.7c0,0.5,0,1,0.1,1.5h-1.5
			c-0.1-0.4-0.1-0.8-0.1-1h0c-0.4,0.7-1.3,1.2-2.1,1.2c-1.2,0-2.3-0.7-2.3-2c0-1,0.5-1.6,1.1-1.9s1.5-0.4,2.2-0.4h1
			c0-1.1-0.5-1.4-1.5-1.4c-0.7,0-1.5,0.3-2.1,0.7L126.6,66.8z M128.7,72.1c0.5,0,0.9-0.2,1.2-0.6c0.3-0.4,0.4-0.9,0.4-1.4h-0.8
			c-0.8,0-1.9,0.1-1.9,1.2C127.5,71.8,128,72.1,128.7,72.1z"/>
		<path class="st276" d="M133.6,66.5h1.5V68h0c0.1-0.6,0.8-1.7,1.8-1.7c0.2,0,0.4,0,0.5,0.1v1.8c-0.2-0.1-0.5-0.1-0.8-0.1
			c-1.4,0-1.4,1.8-1.4,2.7v2.5h-1.7V66.5z"/>
		<path class="st276" d="M138.6,63.4h1.7v9.8h-1.7V63.4z"/>
		<path class="st276" d="M145,71.4L145,71.4l1.6-4.9h1.8l-2.5,6.6c-0.6,1.5-1,2.9-2.8,2.9c-0.4,0-0.8-0.1-1.2-0.2l0.1-1.3
			c0.2,0.1,0.5,0.1,0.9,0.1c0.7,0,1.1-0.5,1.1-1.2l-2.6-7h1.9L145,71.4z"/>
		<path class="st276" d="M11.4,82.1h1.8l1.5,5h0l1.4-5h2l1.5,5h0l1.4-5h1.7l-2.1,6.7h-2.1l-1.5-5.1h0l-1.4,5.1h-2L11.4,82.1z"/>
		<path class="st276" d="M24,82.4c0.7-0.3,1.6-0.5,2.3-0.5c2,0,2.9,0.8,2.9,2.8v0.9c0,0.7,0,1.2,0,1.7c0,0.5,0,1,0.1,1.5h-1.5
			c-0.1-0.4-0.1-0.8-0.1-1h0c-0.4,0.7-1.3,1.2-2.1,1.2c-1.2,0-2.3-0.7-2.3-2c0-1,0.5-1.6,1.1-1.9s1.5-0.4,2.2-0.4h1
			c0-1.1-0.5-1.4-1.5-1.4c-0.7,0-1.5,0.3-2.1,0.7L24,82.4z M26.1,87.7c0.5,0,0.9-0.2,1.2-0.6c0.3-0.4,0.4-0.9,0.4-1.4h-0.8
			c-0.8,0-1.9,0.1-1.9,1.2C25,87.4,25.5,87.7,26.1,87.7z"/>
		<path class="st276" d="M31,82.1h1.5v1.5h0c0.1-0.6,0.8-1.7,1.8-1.7c0.2,0,0.4,0,0.5,0.1v1.8c-0.2-0.1-0.5-0.1-0.8-0.1
			c-1.4,0-1.4,1.8-1.4,2.7v2.5H31V82.1z"/>
		<path class="st276" d="M36.1,82.1h1.5v1.5h0c0.1-0.6,0.8-1.7,1.8-1.7c0.2,0,0.4,0,0.5,0.1v1.8c-0.2-0.1-0.5-0.1-0.8-0.1
			c-1.4,0-1.4,1.8-1.4,2.7v2.5h-1.7V82.1z"/>
		<path class="st276" d="M41.4,82.4c0.7-0.3,1.6-0.5,2.3-0.5c2,0,2.9,0.8,2.9,2.8v0.9c0,0.7,0,1.2,0,1.7c0,0.5,0,1,0.1,1.5h-1.5
			c-0.1-0.4-0.1-0.8-0.1-1h0c-0.4,0.7-1.3,1.2-2.1,1.2c-1.2,0-2.3-0.7-2.3-2c0-1,0.5-1.6,1.1-1.9c0.7-0.3,1.5-0.4,2.2-0.4h1
			c0-1.1-0.5-1.4-1.5-1.4c-0.7,0-1.5,0.3-2.1,0.7L41.4,82.4z M43.4,87.7c0.5,0,0.9-0.2,1.2-0.6c0.3-0.4,0.4-0.9,0.4-1.4h-0.8
			c-0.8,0-1.9,0.1-1.9,1.2C42.3,87.4,42.8,87.7,43.4,87.7z"/>
		<path class="st276" d="M48.3,82.1H50V83h0c0.5-0.8,1.3-1.1,2.2-1.1c1.6,0,2.3,1.1,2.3,2.6v4.2h-1.7v-3.6c0-0.8,0-1.9-1.1-1.9
			c-1.3,0-1.5,1.4-1.5,2.2v3.3h-1.7V82.1z"/>
		<path class="st276" d="M56.8,83.4h-1.3v-1.3h1.3v-1.3l1.7-0.6v1.9h1.5v1.3h-1.5v3.1c0,0.6,0.2,1.1,0.8,1.1c0.3,0,0.6-0.1,0.8-0.2
			l0.1,1.4c-0.4,0.1-0.8,0.2-1.3,0.2c-1.4,0-2.1-0.8-2.1-2.2V83.4z"/>
		<path class="st276" d="M65.3,83.5c-0.5-0.2-0.9-0.3-1.6-0.3c-0.5,0-1,0.2-1,0.7c0,1.1,3,0.4,3,2.8c0,1.6-1.4,2.2-2.8,2.2
			c-0.7,0-1.3-0.1-2-0.3l0.1-1.4c0.5,0.3,1.1,0.4,1.7,0.4c0.4,0,1.1-0.2,1.1-0.8c0-1.3-3-0.4-3-2.8c0-1.4,1.3-2.1,2.6-2.1
			c0.8,0,1.4,0.1,1.9,0.2L65.3,83.5z"/>
		<path class="st276" d="M71,82.4c0.7-0.3,1.6-0.5,2.3-0.5c2,0,2.9,0.8,2.9,2.8v0.9c0,0.7,0,1.2,0,1.7c0,0.5,0,1,0.1,1.5h-1.5
			c-0.1-0.4-0.1-0.8-0.1-1h0c-0.4,0.7-1.3,1.2-2.1,1.2c-1.2,0-2.3-0.7-2.3-2c0-1,0.5-1.6,1.1-1.9s1.5-0.4,2.2-0.4h1
			c0-1.1-0.5-1.4-1.5-1.4c-0.7,0-1.5,0.3-2.1,0.7L71,82.4z M73,87.7c0.5,0,0.9-0.2,1.2-0.6c0.3-0.4,0.4-0.9,0.4-1.4h-0.8
			c-0.8,0-1.9,0.1-1.9,1.2C71.9,87.4,72.4,87.7,73,87.7z"/>
		<path class="st276" d="M77.9,82.1h1.7V83h0c0.5-0.8,1.3-1.1,2.2-1.1c1.6,0,2.3,1.1,2.3,2.6v4.2h-1.7v-3.6c0-0.8,0-1.9-1.1-1.9
			c-1.3,0-1.5,1.4-1.5,2.2v3.3h-1.7V82.1z"/>
		<path class="st276" d="M89.5,79.7h1.8v9.1h-1.8V79.7z"/>
		<path class="st276" d="M99.9,88.7c-0.7,0.2-1.4,0.3-2.1,0.3c-2.9,0-5-1.5-5-4.5c0-3.1,1.9-4.8,5-4.8c0.6,0,1.4,0.1,2.1,0.4
			l-0.1,1.5c-0.7-0.4-1.3-0.5-2-0.5c-1.9,0-3,1.4-3,3.3c0,1.8,1.1,3.2,3.1,3.2c0.7,0,1.6-0.2,2-0.4L99.9,88.7z"/>
		<path class="st276" d="M106.1,81.4c-0.6-0.2-1.2-0.4-1.8-0.4c-0.6,0-1.4,0.3-1.4,1.3c0,1.6,4,0.9,4,4c0,2-1.6,2.7-3.4,2.7
			c-1,0-1.4-0.1-2.3-0.4l0.2-1.6c0.6,0.3,1.3,0.6,2.1,0.6c0.7,0,1.6-0.4,1.6-1.2c0-1.7-4-1-4-4c0-2,1.6-2.8,3.2-2.8
			c0.8,0,1.5,0.1,2.2,0.3L106.1,81.4z"/>
		<path class="st276" d="M110.8,79.6h1.4l-3.2,9.4h-1.4L110.8,79.6z"/>
		<path class="st276" d="M113.5,79.7h1.8v7.6h3.5v1.4h-5.3V79.7z"/>
		<path class="st276" d="M122.6,79.7h2.1l3.6,9.1h-2l-0.8-2.1h-3.7l-0.8,2.1H119L122.6,79.7z M123.6,81.5L123.6,81.5l-1.3,3.7h2.7
			L123.6,81.5z"/>
		<path class="st276" d="M129.4,79.7h3.2c1.2,0,2.9,0.3,2.9,2.3c0,1.1-0.7,1.8-1.8,2v0c1.2,0.1,2.1,0.9,2.1,2.1
			c0,2.3-2.1,2.6-3.2,2.6h-3.2V79.7z M131.2,83.4h0.7c0.8,0,1.7-0.2,1.7-1.1c0-1.1-0.9-1.1-1.8-1.1h-0.7V83.4z M131.2,87.4h0.9
			c0.8,0,1.9-0.2,1.9-1.3c0-1.2-1-1.4-1.9-1.4h-0.9V87.4z"/>
		<path class="st276" d="M139.9,79.7h2.1l3.6,9.1h-2l-0.8-2.1H139l-0.8,2.1h-1.9L139.9,79.7z M140.9,81.5L140.9,81.5l-1.3,3.7h2.7
			L140.9,81.5z"/>
		<path class="st276" d="M11.2,106.3h3.2c1.2,0,2.9,0.3,2.9,2.3c0,1.1-0.7,1.8-1.8,2v0c1.2,0.1,2.1,0.9,2.1,2.1
			c0,2.3-2.1,2.6-3.2,2.6h-3.2V106.3z M13.1,110h0.7c0.8,0,1.7-0.2,1.7-1.1c0-1.1-0.9-1.1-1.8-1.1h-0.7V110z M13.1,114h0.9
			c0.8,0,1.9-0.2,1.9-1.3c0-1.2-1-1.4-1.9-1.4h-0.9V114z"/>
		<path class="st276" d="M19,106.3h2c1.9,0,4.3-0.1,4.3,2.5c0,1.1-0.7,2-1.9,2.1v0c0.5,0,0.8,0.5,1,0.9l1.5,3.5h-2l-1.1-2.8
			c-0.3-0.7-0.5-0.9-1.3-0.9h-0.6v3.8H19V106.3z M20.9,110.2h0.6c0.9,0,1.9-0.1,1.9-1.3c0-1.1-1-1.2-1.9-1.2h-0.6V110.2z"/>
		<path class="st276" d="M27.1,106.3h5.4v1.4H29v2.2h3.2v1.4H29v2.5h3.6v1.4h-5.4V106.3z"/>
		<path class="st276" d="M38.4,106.2c2.8,0,4.4,1.9,4.4,4.7s-1.6,4.7-4.4,4.7c-2.9,0-4.4-1.9-4.4-4.7S35.5,106.2,38.4,106.2z
			 M38.4,114.1c1.9,0,2.5-1.7,2.5-3.3c0-1.6-0.7-3.2-2.5-3.2c-1.8,0-2.5,1.6-2.5,3.2C35.8,112.5,36.5,114.1,38.4,114.1z"/>
		<path class="st276" d="M48,105.8h1.7v1.7H48V105.8z M48,108.7h1.7v6.7H48V108.7z"/>
		<path class="st276" d="M55.5,110.1c-0.5-0.2-0.9-0.3-1.6-0.3c-0.5,0-1,0.2-1,0.7c0,1.1,3,0.4,3,2.8c0,1.6-1.4,2.2-2.8,2.2
			c-0.7,0-1.3-0.1-2-0.3l0.1-1.4c0.5,0.3,1.1,0.4,1.7,0.4c0.4,0,1.1-0.2,1.1-0.8c0-1.3-3-0.4-3-2.8c0-1.4,1.3-2.1,2.6-2.1
			c0.8,0,1.4,0.1,1.9,0.2L55.5,110.1z"/>
		<path class="st276" d="M61,106.3h2.2l3.5,6.8h0v-6.8h1.7v9.1h-2.2l-3.5-6.8h0v6.8H61V106.3z"/>
		<path class="st276" d="M74.5,106.2c2.8,0,4.4,1.9,4.4,4.7s-1.6,4.7-4.4,4.7c-2.9,0-4.4-1.9-4.4-4.7S71.6,106.2,74.5,106.2z
			 M74.5,114.1c1.9,0,2.5-1.7,2.5-3.3c0-1.6-0.7-3.2-2.5-3.2c-1.8,0-2.5,1.6-2.5,3.2C71.9,112.5,72.6,114.1,74.5,114.1z"/>
		<path class="st276" d="M82.2,107.7h-2.6v-1.4h7v1.4h-2.6v7.6h-1.8V107.7z"/>
		<path class="st276" d="M91.3,105.8h1.7v1.7h-1.7V105.8z M91.3,108.7h1.7v6.7h-1.7V108.7z"/>
		<path class="st276" d="M94.9,108.7h1.7v0.9h0c0.5-0.8,1.3-1.1,2.2-1.1c1.6,0,2.3,1.1,2.3,2.6v4.2h-1.7v-3.6c0-0.8,0-1.9-1.1-1.9
			c-1.3,0-1.5,1.4-1.5,2.2v3.3h-1.7V108.7z"/>
		<path class="st276" d="M107.3,114.6L107.3,114.6c-0.5,0.6-1.3,0.9-2.1,0.9c-2.1,0-2.8-1.7-2.8-3.5c0-1.8,0.8-3.5,2.8-3.5
			c0.9,0,1.5,0.3,2,0.9h0v-3.8h1.7v9.8h-1.7V114.6z M105.7,114.2c1.2,0,1.5-1.2,1.5-2.2c0-0.9-0.4-2.1-1.6-2.1
			c-1.1,0-1.4,1.2-1.4,2.1C104.2,112.9,104.5,114.2,105.7,114.2z"/>
		<path class="st276" d="M110.8,105.8h1.7v1.7h-1.7V105.8z M110.8,108.7h1.7v6.7h-1.7V108.7z"/>
		<path class="st276" d="M118.7,110.1c-0.3-0.1-0.7-0.2-1.2-0.2c-1.1,0-1.8,0.9-1.8,2.1c0,1.2,0.6,2.2,1.8,2.2c0.5,0,1-0.2,1.3-0.3
			l0.1,1.4c-0.5,0.2-1,0.2-1.7,0.2c-2.2,0-3.3-1.5-3.3-3.5c0-1.9,1.1-3.5,3.2-3.5c0.7,0,1.2,0.1,1.7,0.2L118.7,110.1z"/>
		<path class="st276" d="M120.5,109c0.7-0.3,1.6-0.5,2.3-0.5c2,0,2.9,0.8,2.9,2.8v0.9c0,0.7,0,1.2,0,1.7c0,0.5,0,1,0.1,1.5h-1.5
			c-0.1-0.4-0.1-0.8-0.1-1h0c-0.4,0.7-1.3,1.2-2.1,1.2c-1.2,0-2.3-0.7-2.3-2c0-1,0.5-1.6,1.1-1.9s1.5-0.4,2.2-0.4h1
			c0-1.1-0.5-1.4-1.5-1.4c-0.7,0-1.5,0.3-2.1,0.7L120.5,109z M122.5,114.3c0.5,0,0.9-0.2,1.2-0.6c0.3-0.4,0.4-0.9,0.4-1.4h-0.8
			c-0.8,0-1.9,0.1-1.9,1.2C121.4,114,121.9,114.3,122.5,114.3z"/>
		<path class="st276" d="M128,110h-1.3v-1.3h1.3v-1.3l1.7-0.6v1.9h1.5v1.3h-1.5v3.1c0,0.6,0.2,1.1,0.8,1.1c0.3,0,0.6-0.1,0.8-0.2
			l0.1,1.4c-0.4,0.1-0.8,0.2-1.3,0.2c-1.4,0-2.1-0.8-2.1-2.2V110z"/>
		<path class="st276" d="M137.8,115c-0.6,0.4-1.4,0.5-2.3,0.5c-2.2,0-3.5-1.3-3.5-3.5c0-1.9,1-3.5,3.1-3.5c2.5,0,3.2,1.7,3.2,4h-4.6
			c0.1,1.1,0.8,1.7,1.9,1.7c0.8,0,1.6-0.3,2.2-0.7V115z M136.6,111.4c-0.1-0.8-0.4-1.6-1.4-1.6c-1,0-1.5,0.7-1.5,1.6H136.6z"/>
		<path class="st276" d="M144.1,114.6L144.1,114.6c-0.5,0.6-1.3,0.9-2.1,0.9c-2.1,0-2.8-1.7-2.8-3.5c0-1.8,0.8-3.5,2.8-3.5
			c0.9,0,1.5,0.3,2,0.9h0v-3.8h1.7v9.8h-1.7V114.6z M142.5,114.2c1.2,0,1.5-1.2,1.5-2.2c0-0.9-0.4-2.1-1.6-2.1
			c-1.1,0-1.4,1.2-1.4,2.1C141.1,112.9,141.4,114.2,142.5,114.2z"/>
		<path class="st276" d="M14.6,125.6h-1.3v-1.3h1.3v-0.9c0-1.3,0.8-2.3,2.1-2.3c0.4,0,0.9,0.1,1.3,0.1l-0.1,1.4
			c-0.2-0.1-0.4-0.2-0.8-0.2c-0.6,0-0.8,0.5-0.8,1v0.8h1.5v1.3h-1.5v5.4h-1.7V125.6z"/>
		<path class="st276" d="M22.1,124.1c2,0,3.5,1.3,3.5,3.5c0,1.9-1.3,3.5-3.5,3.5c-2.2,0-3.5-1.5-3.5-3.5
			C18.6,125.5,20.1,124.1,22.1,124.1z M22.1,129.8c1.3,0,1.7-1.2,1.7-2.3c0-1-0.5-2-1.7-2c-1.1,0-1.7,1-1.7,2
			C20.4,128.6,20.8,129.8,22.1,129.8z"/>
		<path class="st276" d="M27,124.3h1.5v1.5h0c0.1-0.6,0.8-1.7,1.8-1.7c0.2,0,0.4,0,0.5,0.1v1.8c-0.2-0.1-0.5-0.1-0.8-0.1
			c-1.4,0-1.4,1.8-1.4,2.7v2.5H27V124.3z"/>
		<path class="st276" d="M36.2,125.6h-1.3v-1.3h1.3V123l1.7-0.6v1.9h1.5v1.3H38v3.1c0,0.6,0.2,1.1,0.8,1.1c0.3,0,0.6-0.1,0.8-0.2
			l0.1,1.4c-0.4,0.1-0.8,0.2-1.3,0.2c-1.4,0-2.1-0.8-2.1-2.2V125.6z"/>
		<path class="st276" d="M40.7,121.2h1.7v4h0c0.4-0.6,1.2-1.1,2.1-1.1c1.6,0,2.3,1.1,2.3,2.6v4.2h-1.7v-3.6c0-0.8,0-1.9-1.1-1.9
			c-1.3,0-1.5,1.4-1.5,2.2v3.3h-1.7V121.2z"/>
		<path class="st276" d="M54,130.6c-0.6,0.4-1.4,0.5-2.3,0.5c-2.2,0-3.5-1.3-3.5-3.5c0-1.9,1-3.5,3.1-3.5c2.5,0,3.2,1.7,3.2,4h-4.6
			c0.1,1.1,0.8,1.7,1.9,1.7c0.8,0,1.6-0.3,2.2-0.7V130.6z M52.8,127c-0.1-0.8-0.4-1.6-1.4-1.6c-1,0-1.5,0.7-1.5,1.6H52.8z"/>
		<path class="st276" d="M59.5,124.3h1.5v1.5h0c0.1-0.6,0.8-1.7,1.8-1.7c0.2,0,0.4,0,0.5,0.1v1.8c-0.2-0.1-0.5-0.1-0.8-0.1
			c-1.4,0-1.4,1.8-1.4,2.7v2.5h-1.7V124.3z"/>
		<path class="st276" d="M69.9,130.6c-0.6,0.4-1.4,0.5-2.3,0.5c-2.2,0-3.5-1.3-3.5-3.5c0-1.9,1-3.5,3.1-3.5c2.5,0,3.2,1.7,3.2,4
			h-4.6c0.1,1.1,0.8,1.7,1.9,1.7c0.8,0,1.6-0.3,2.2-0.7V130.6z M68.7,127c-0.1-0.8-0.4-1.6-1.4-1.6c-1,0-1.5,0.7-1.5,1.6H68.7z"/>
		<path class="st276" d="M71.8,121.2h1.7v9.8h-1.7V121.2z"/>
		<path class="st276" d="M75.4,121.4h1.7v1.7h-1.7V121.4z M75.4,124.3h1.7v6.7h-1.7V124.3z"/>
		<path class="st276" d="M84.4,130.6c-0.6,0.4-1.4,0.5-2.3,0.5c-2.2,0-3.5-1.3-3.5-3.5c0-1.9,1-3.5,3.1-3.5c2.5,0,3.2,1.7,3.2,4
			h-4.6c0.1,1.1,0.8,1.7,1.9,1.7c0.8,0,1.6-0.3,2.2-0.7V130.6z M83.2,127c-0.1-0.8-0.4-1.6-1.4-1.6c-1,0-1.5,0.7-1.5,1.6H83.2z"/>
		<path class="st276" d="M86.9,125.6h-1.3v-1.3h1.3v-0.9c0-1.3,0.8-2.3,2.1-2.3c0.4,0,0.9,0.1,1.3,0.1l-0.1,1.4
			c-0.2-0.1-0.4-0.2-0.8-0.2c-0.6,0-0.8,0.5-0.8,1v0.8h1.5v1.3h-1.5v5.4h-1.7V125.6z"/>
		<path class="st276" d="M98,124.1c2,0,3.5,1.3,3.5,3.5c0,1.9-1.3,3.5-3.5,3.5c-2.2,0-3.5-1.5-3.5-3.5C94.5,125.5,96,124.1,98,124.1
			z M98,129.8c1.3,0,1.7-1.2,1.7-2.3c0-1-0.5-2-1.7-2c-1.1,0-1.7,1-1.7,2C96.3,128.6,96.6,129.8,98,129.8z"/>
		<path class="st276" d="M103.5,125.6h-1.3v-1.3h1.3v-0.9c0-1.3,0.8-2.3,2.1-2.3c0.4,0,0.9,0.1,1.3,0.1l-0.1,1.4
			c-0.2-0.1-0.4-0.2-0.8-0.2c-0.6,0-0.8,0.5-0.8,1v0.8h1.5v1.3h-1.5v5.4h-1.7V125.6z"/>
		<path class="st276" d="M111.8,124.6c0.7-0.3,1.6-0.5,2.3-0.5c2,0,2.9,0.8,2.9,2.8v0.9c0,0.7,0,1.2,0,1.7c0,0.5,0,1,0.1,1.5h-1.5
			c-0.1-0.4-0.1-0.8-0.1-1h0c-0.4,0.7-1.3,1.2-2.1,1.2c-1.2,0-2.3-0.7-2.3-2c0-1,0.5-1.6,1.1-1.9c0.7-0.3,1.5-0.4,2.2-0.4h1
			c0-1.1-0.5-1.4-1.5-1.4c-0.7,0-1.5,0.3-2.1,0.7L111.8,124.6z M113.9,129.9c0.5,0,0.9-0.2,1.2-0.6c0.3-0.4,0.4-0.9,0.4-1.4h-0.8
			c-0.8,0-1.9,0.1-1.9,1.2C112.7,129.6,113.2,129.9,113.9,129.9z"/>
		<path class="st276" d="M123.1,125.7c-0.3-0.1-0.6-0.2-1.2-0.2c-1.1,0-1.8,0.9-1.8,2.1c0,1.2,0.6,2.2,1.8,2.2c0.5,0,1-0.2,1.3-0.3
			l0.1,1.4c-0.5,0.2-1,0.2-1.7,0.2c-2.2,0-3.3-1.5-3.3-3.5c0-1.9,1.1-3.5,3.2-3.5c0.7,0,1.2,0.1,1.7,0.2L123.1,125.7z"/>
		<path class="st276" d="M130.7,131H129v-0.9h0c-0.5,0.7-1.3,1.1-2.2,1.1c-1.6,0-2.3-1.1-2.3-2.6v-4.2h1.7v3.6c0,0.8,0,1.9,1.1,1.9
			c1.3,0,1.5-1.4,1.5-2.2v-3.3h1.7V131z"/>
		<path class="st276" d="M133,125.6h-1.3v-1.3h1.3V123l1.7-0.6v1.9h1.5v1.3h-1.5v3.1c0,0.6,0.2,1.1,0.8,1.1c0.3,0,0.6-0.1,0.8-0.2
			l0.1,1.4c-0.4,0.1-0.8,0.2-1.3,0.2c-1.4,0-2.1-0.8-2.1-2.2V125.6z"/>
		<path class="st276" d="M142.9,130.6c-0.6,0.4-1.4,0.5-2.3,0.5c-2.2,0-3.5-1.3-3.5-3.5c0-1.9,1-3.5,3.1-3.5c2.5,0,3.2,1.7,3.2,4
			h-4.6c0.1,1.1,0.8,1.7,1.9,1.7c0.8,0,1.6-0.3,2.2-0.7V130.6z M141.7,127c-0.1-0.8-0.4-1.6-1.4-1.6c-1,0-1.5,0.7-1.5,1.6H141.7z"/>
		<path class="st276" d="M34.9,136.8h1.7v3.9h0c0.5-0.6,1.1-1,2-1c2.1,0,2.8,1.6,2.8,3.5c0,1.8-0.8,3.5-2.8,3.5
			c-0.7,0-1.5-0.3-2.1-1h0v0.8h-1.7V136.8z M38.2,145.4c1.1,0,1.5-1.2,1.5-2.2c0-0.9-0.3-2.1-1.4-2.1c-1.1,0-1.6,1.2-1.6,2.1
			C36.7,144.2,37.1,145.4,38.2,145.4z"/>
		<path class="st276" d="M42.9,139.9h1.5v1.5h0c0.1-0.6,0.8-1.7,1.8-1.7c0.2,0,0.4,0,0.5,0.1v1.8c-0.2-0.1-0.5-0.1-0.8-0.1
			c-1.4,0-1.4,1.8-1.4,2.7v2.5h-1.7V139.9z"/>
		<path class="st276" d="M51,139.7c2,0,3.5,1.3,3.5,3.5c0,1.9-1.3,3.5-3.5,3.5c-2.2,0-3.5-1.5-3.5-3.5C47.5,141.1,49,139.7,51,139.7
			z M51,145.4c1.3,0,1.7-1.2,1.7-2.3c0-1-0.5-2-1.7-2c-1.1,0-1.7,1-1.7,2C49.3,144.2,49.7,145.4,51,145.4z"/>
		<path class="st276" d="M55.9,139.9h1.7v0.9h0c0.5-0.8,1.3-1.1,2.2-1.1c1.6,0,2.3,1.1,2.3,2.6v4.2h-1.7V143c0-0.8,0-1.9-1.1-1.9
			c-1.3,0-1.5,1.4-1.5,2.2v3.3h-1.7V139.9z"/>
		<path class="st276" d="M68.2,141.3c-0.3-0.1-0.7-0.2-1.2-0.2c-1.1,0-1.8,0.9-1.8,2.1c0,1.2,0.6,2.2,1.8,2.2c0.5,0,1-0.2,1.3-0.3
			l0.1,1.4c-0.5,0.2-1,0.2-1.7,0.2c-2.2,0-3.3-1.5-3.3-3.5c0-1.9,1.1-3.5,3.2-3.5c0.7,0,1.2,0.1,1.7,0.2L68.2,141.3z"/>
		<path class="st276" d="M69.6,136.8h1.7v4h0c0.4-0.6,1.2-1.1,2.1-1.1c1.6,0,2.3,1.1,2.3,2.6v4.2H74V143c0-0.8,0-1.9-1.1-1.9
			c-1.3,0-1.5,1.4-1.5,2.2v3.3h-1.7V136.8z"/>
		<path class="st276" d="M80.6,139.7c2,0,3.5,1.3,3.5,3.5c0,1.9-1.3,3.5-3.5,3.5c-2.2,0-3.5-1.5-3.5-3.5
			C77.1,141.1,78.6,139.7,80.6,139.7z M80.6,145.4c1.3,0,1.7-1.2,1.7-2.3c0-1-0.5-2-1.7-2c-1.1,0-1.7,1-1.7,2
			C78.9,144.2,79.3,145.4,80.6,145.4z"/>
		<path class="st276" d="M89.5,141.3c-0.5-0.2-0.9-0.3-1.6-0.3c-0.5,0-1,0.2-1,0.7c0,1.1,3,0.4,3,2.8c0,1.6-1.4,2.2-2.8,2.2
			c-0.7,0-1.3-0.1-2-0.3l0.1-1.4c0.5,0.3,1.1,0.4,1.7,0.4c0.4,0,1.1-0.2,1.1-0.8c0-1.3-3-0.4-3-2.8c0-1.4,1.3-2.1,2.6-2.1
			c0.8,0,1.4,0.1,1.9,0.2L89.5,141.3z"/>
		<path class="st276" d="M91.3,139.9h1.7v0.9h0c0.4-0.6,1.1-1.1,2.1-1.1c2.1,0,2.8,1.6,2.8,3.5c0,1.8-0.8,3.5-2.8,3.5
			c-0.7,0-1.4-0.2-2-0.9h0v3.5h-1.7V139.9z M93,143.2c0,0.9,0.4,2.2,1.5,2.2c1.1,0,1.5-1.2,1.5-2.2c0-0.9-0.3-2.1-1.4-2.1
			C93.5,141.1,93,142.3,93,143.2z"/>
		<path class="st276" d="M99.5,140.2c0.7-0.3,1.6-0.5,2.3-0.5c2,0,2.9,0.8,2.9,2.8v0.9c0,0.7,0,1.2,0,1.7c0,0.5,0,1,0.1,1.5h-1.5
			c-0.1-0.4-0.1-0.8-0.1-1h0c-0.4,0.7-1.3,1.2-2.1,1.2c-1.2,0-2.3-0.7-2.3-2c0-1,0.5-1.6,1.1-1.9s1.5-0.4,2.2-0.4h1
			c0-1.1-0.5-1.4-1.5-1.4c-0.7,0-1.5,0.3-2.1,0.7L99.5,140.2z M101.5,145.5c0.5,0,0.9-0.2,1.2-0.6c0.3-0.4,0.4-0.9,0.4-1.4h-0.8
			c-0.8,0-1.9,0.1-1.9,1.2C100.4,145.2,100.9,145.5,101.5,145.5z"/>
		<path class="st276" d="M110.4,141.3c-0.5-0.2-0.9-0.3-1.6-0.3c-0.5,0-1,0.2-1,0.7c0,1.1,3,0.4,3,2.8c0,1.6-1.4,2.2-2.8,2.2
			c-0.7,0-1.3-0.1-2-0.3l0.1-1.4c0.5,0.3,1.1,0.4,1.7,0.4c0.4,0,1.1-0.2,1.1-0.8c0-1.3-3-0.4-3-2.8c0-1.4,1.3-2.1,2.6-2.1
			c0.8,0,1.4,0.1,1.9,0.2L110.4,141.3z"/>
		<path class="st276" d="M112.2,139.9h1.6v0.9h0c0.5-0.8,1.3-1.1,2-1.1c0.9,0,1.6,0.4,2,1.2c0.4-0.8,1.3-1.2,2.1-1.2
			c1.7,0,2.1,1.1,2.1,2.6v4.2h-1.7v-4c0-0.6,0-1.5-1-1.5c-1.2,0-1.3,1.4-1.3,2.2v3.2h-1.7v-4c0-0.6,0-1.5-1-1.5
			c-1.2,0-1.3,1.4-1.3,2.2v3.2h-1.7V139.9z"/>
	</g>
</g>
<g id="Layer_2">
</g>
</svg>
