<?xml version="1.0" encoding="utf-8"?>
<!-- Generator: Adobe Illustrator 19.1.0, SVG Export Plug-In . SVG Version: 6.00 Build 0)  -->
<!DOCTYPE svg PUBLIC "-//W3C//DTD SVG 1.1//EN" "http://www.w3.org/Graphics/SVG/1.1/DTD/svg11.dtd">
<svg version="1.1" xmlns="http://www.w3.org/2000/svg" xmlns:xlink="http://www.w3.org/1999/xlink" x="0px" y="0px" width="153.5px"
	 height="138.1px" viewBox="0 0 153.5 138.1" style="enable-background:new 0 0 153.5 138.1;" xml:space="preserve">
<style type="text/css">
	.st0{clip-path:url(#SVGID_4_);}
	.st1{fill:url(#SVGID_5_);}
	.st2{fill:#231F20;}
	.st3{clip-path:url(#SVGID_7_);fill:#231F20;}
	.st4{clip-path:url(#SVGID_7_);fill:#6FA5D9;}
	.st5{clip-path:url(#SVGID_7_);fill:#007AC1;}
	.st6{fill:none;stroke:#58595B;stroke-width:0.1413;}
	.st7{clip-path:url(#SVGID_9_);fill:#F27021;}
	.st8{clip-path:url(#SVGID_11_);}
	.st9{clip-path:url(#SVGID_15_);}
	.st10{clip-path:url(#SVGID_19_);}
	.st11{clip-path:url(#SVGID_23_);}
	.st12{clip-path:url(#SVGID_27_);}
	.st13{clip-path:url(#SVGID_31_);}
	.st14{clip-path:url(#SVGID_35_);}
	.st15{clip-path:url(#SVGID_37_);}
	.st16{clip-path:url(#SVGID_41_);}
	.st17{clip-path:url(#SVGID_43_);}
	.st18{clip-path:url(#SVGID_47_);}
	.st19{clip-path:url(#SVGID_49_);}
	.st20{clip-path:url(#SVGID_53_);}
	.st21{clip-path:url(#SVGID_55_);}
	.st22{clip-path:url(#SVGID_59_);}
	.st23{clip-path:url(#SVGID_63_);}
	.st24{clip-path:url(#SVGID_67_);}
	.st25{clip-path:url(#SVGID_71_);}
	.st26{clip-path:url(#SVGID_75_);}
	.st27{clip-path:url(#SVGID_79_);}
	.st28{clip-path:url(#SVGID_83_);}
	.st29{clip-path:url(#SVGID_87_);}
	.st30{clip-path:url(#SVGID_91_);}
	.st31{clip-path:url(#SVGID_95_);}
	.st32{clip-path:url(#SVGID_99_);}
	.st33{clip-path:url(#SVGID_103_);}
	.st34{clip-path:url(#SVGID_107_);}
	.st35{clip-path:url(#SVGID_111_);}
	.st36{clip-path:url(#SVGID_115_);}
	.st37{clip-path:url(#SVGID_119_);}
	.st38{clip-path:url(#SVGID_123_);}
	.st39{clip-path:url(#SVGID_127_);}
	.st40{clip-path:url(#SVGID_131_);}
	.st41{clip-path:url(#SVGID_135_);}
	.st42{clip-path:url(#SVGID_139_);}
	.st43{clip-path:url(#SVGID_143_);}
	.st44{clip-path:url(#SVGID_147_);}
	.st45{clip-path:url(#SVGID_151_);}
	.st46{clip-path:url(#SVGID_155_);}
	.st47{clip-path:url(#SVGID_159_);}
	.st48{clip-path:url(#SVGID_161_);}
	.st49{clip-path:url(#SVGID_165_);}
	.st50{clip-path:url(#SVGID_169_);}
	.st51{clip-path:url(#SVGID_173_);}
	.st52{clip-path:url(#SVGID_177_);}
	.st53{clip-path:url(#SVGID_181_);}
	.st54{clip-path:url(#SVGID_185_);}
	.st55{clip-path:url(#SVGID_189_);}
	.st56{clip-path:url(#SVGID_193_);}
	.st57{clip-path:url(#SVGID_197_);}
	.st58{clip-path:url(#SVGID_201_);}
	.st59{clip-path:url(#SVGID_203_);}
	.st60{clip-path:url(#SVGID_207_);}
	.st61{clip-path:url(#SVGID_211_);}
	.st62{clip-path:url(#SVGID_215_);}
	.st63{clip-path:url(#SVGID_219_);}
	.st64{clip-path:url(#SVGID_223_);}
	.st65{clip-path:url(#SVGID_227_);}
	.st66{clip-path:url(#SVGID_231_);}
	.st67{clip-path:url(#SVGID_235_);}
	.st68{clip-path:url(#SVGID_239_);}
	.st69{clip-path:url(#SVGID_243_);}
	.st70{clip-path:url(#SVGID_247_);}
	.st71{clip-path:url(#SVGID_251_);}
	.st72{clip-path:url(#SVGID_255_);}
	.st73{clip-path:url(#SVGID_259_);}
	.st74{clip-path:url(#SVGID_263_);}
	.st75{clip-path:url(#SVGID_267_);}
	.st76{clip-path:url(#SVGID_271_);}
	.st77{clip-path:url(#SVGID_275_);}
	.st78{clip-path:url(#SVGID_279_);}
	.st79{clip-path:url(#SVGID_283_);}
	.st80{clip-path:url(#SVGID_287_);}
	.st81{clip-path:url(#SVGID_291_);}
	.st82{clip-path:url(#SVGID_295_);}
	.st83{clip-path:url(#SVGID_299_);}
	.st84{clip-path:url(#SVGID_303_);}
	.st85{clip-path:url(#SVGID_307_);}
	.st86{clip-path:url(#SVGID_311_);}
	.st87{clip-path:url(#SVGID_315_);}
	.st88{clip-path:url(#SVGID_319_);}
	.st89{clip-path:url(#SVGID_323_);}
	.st90{clip-path:url(#SVGID_327_);}
	.st91{clip-path:url(#SVGID_331_);}
	.st92{clip-path:url(#SVGID_335_);}
	.st93{clip-path:url(#SVGID_339_);}
	.st94{clip-path:url(#SVGID_343_);}
	.st95{clip-path:url(#SVGID_347_);}
	.st96{clip-path:url(#SVGID_351_);}
	.st97{clip-path:url(#SVGID_355_);}
	.st98{clip-path:url(#SVGID_359_);}
	.st99{clip-path:url(#SVGID_363_);}
	.st100{clip-path:url(#SVGID_367_);}
	.st101{clip-path:url(#SVGID_371_);}
	.st102{clip-path:url(#SVGID_375_);}
	.st103{clip-path:url(#SVGID_379_);}
	.st104{clip-path:url(#SVGID_383_);}
	.st105{clip-path:url(#SVGID_387_);}
	.st106{clip-path:url(#SVGID_391_);}
	.st107{clip-path:url(#SVGID_395_);}
	.st108{clip-path:url(#SVGID_399_);}
	.st109{clip-path:url(#SVGID_403_);}
	.st110{clip-path:url(#SVGID_407_);}
	.st111{clip-path:url(#SVGID_411_);}
	.st112{clip-path:url(#SVGID_415_);}
	.st113{clip-path:url(#SVGID_419_);}
	.st114{clip-path:url(#SVGID_423_);}
	.st115{clip-path:url(#SVGID_427_);}
	.st116{clip-path:url(#SVGID_431_);}
	.st117{clip-path:url(#SVGID_435_);}
	.st118{clip-path:url(#SVGID_439_);}
	.st119{clip-path:url(#SVGID_443_);}
	.st120{clip-path:url(#SVGID_447_);}
	.st121{clip-path:url(#SVGID_451_);}
	.st122{clip-path:url(#SVGID_455_);}
	.st123{clip-path:url(#SVGID_459_);}
	.st124{clip-path:url(#SVGID_461_);}
	.st125{clip-path:url(#SVGID_465_);}
	.st126{clip-path:url(#SVGID_469_);}
	.st127{clip-path:url(#SVGID_471_);}
	.st128{clip-path:url(#SVGID_475_);}
	.st129{clip-path:url(#SVGID_479_);}
	.st130{clip-path:url(#SVGID_481_);}
	.st131{clip-path:url(#SVGID_485_);}
	.st132{clip-path:url(#SVGID_487_);}
	.st133{clip-path:url(#SVGID_491_);}
	.st134{clip-path:url(#SVGID_493_);}
	.st135{clip-path:url(#SVGID_497_);}
	.st136{clip-path:url(#SVGID_499_);}
	.st137{clip-path:url(#SVGID_503_);}
	.st138{clip-path:url(#SVGID_505_);}
	.st139{clip-path:url(#SVGID_509_);}
	.st140{clip-path:url(#SVGID_513_);}
	.st141{clip-path:url(#SVGID_515_);}
	.st142{clip-path:url(#SVGID_519_);}
	.st143{clip-path:url(#SVGID_521_);}
	.st144{clip-path:url(#SVGID_525_);}
	.st145{clip-path:url(#SVGID_527_);}
	.st146{clip-path:url(#SVGID_531_);}
	.st147{clip-path:url(#SVGID_533_);}
	.st148{clip-path:url(#SVGID_537_);}
	.st149{clip-path:url(#SVGID_539_);}
	.st150{clip-path:url(#SVGID_543_);}
	.st151{clip-path:url(#SVGID_547_);}
	.st152{clip-path:url(#SVGID_551_);}
	.st153{clip-path:url(#SVGID_555_);}
	.st154{clip-path:url(#SVGID_559_);}
	.st155{clip-path:url(#SVGID_563_);}
	.st156{clip-path:url(#SVGID_567_);}
	.st157{clip-path:url(#SVGID_571_);}
	.st158{clip-path:url(#SVGID_575_);}
	.st159{clip-path:url(#SVGID_579_);}
	.st160{clip-path:url(#SVGID_583_);}
	.st161{clip-path:url(#SVGID_587_);}
	.st162{clip-path:url(#SVGID_591_);}
	.st163{clip-path:url(#SVGID_595_);}
	.st164{clip-path:url(#SVGID_599_);}
	.st165{clip-path:url(#SVGID_603_);}
	.st166{clip-path:url(#SVGID_607_);}
	.st167{clip-path:url(#SVGID_611_);}
	.st168{clip-path:url(#SVGID_615_);}
	.st169{clip-path:url(#SVGID_619_);}
	.st170{clip-path:url(#SVGID_623_);}
	.st171{clip-path:url(#SVGID_627_);}
	.st172{clip-path:url(#SVGID_631_);}
	.st173{clip-path:url(#SVGID_635_);}
	.st174{clip-path:url(#SVGID_639_);}
	.st175{clip-path:url(#SVGID_643_);}
	.st176{clip-path:url(#SVGID_647_);}
	.st177{clip-path:url(#SVGID_651_);}
	.st178{clip-path:url(#SVGID_655_);}
	.st179{clip-path:url(#SVGID_659_);}
	.st180{clip-path:url(#SVGID_663_);}
	.st181{clip-path:url(#SVGID_667_);}
	.st182{clip-path:url(#SVGID_671_);}
	.st183{clip-path:url(#SVGID_673_);}
	.st184{clip-path:url(#SVGID_677_);}
	.st185{clip-path:url(#SVGID_681_);}
	.st186{clip-path:url(#SVGID_683_);}
	.st187{clip-path:url(#SVGID_687_);}
	.st188{clip-path:url(#SVGID_691_);}
	.st189{clip-path:url(#SVGID_695_);}
	.st190{clip-path:url(#SVGID_699_);}
	.st191{clip-path:url(#SVGID_703_);}
	.st192{clip-path:url(#SVGID_707_);}
	.st193{clip-path:url(#SVGID_711_);}
	.st194{clip-path:url(#SVGID_715_);}
	.st195{clip-path:url(#SVGID_719_);}
	.st196{clip-path:url(#SVGID_723_);}
	.st197{clip-path:url(#SVGID_727_);}
	.st198{clip-path:url(#SVGID_731_);}
	.st199{clip-path:url(#SVGID_735_);}
	.st200{clip-path:url(#SVGID_739_);}
	.st201{clip-path:url(#SVGID_743_);}
	.st202{clip-path:url(#SVGID_747_);}
	.st203{clip-path:url(#SVGID_751_);}
	.st204{clip-path:url(#SVGID_755_);}
	.st205{clip-path:url(#SVGID_759_);}
	.st206{clip-path:url(#SVGID_763_);}
	.st207{clip-path:url(#SVGID_767_);}
	.st208{clip-path:url(#SVGID_771_);}
	.st209{clip-path:url(#SVGID_775_);}
	.st210{clip-path:url(#SVGID_779_);}
	.st211{clip-path:url(#SVGID_783_);}
	.st212{clip-path:url(#SVGID_787_);}
	.st213{clip-path:url(#SVGID_791_);}
	.st214{clip-path:url(#SVGID_795_);}
	.st215{clip-path:url(#SVGID_799_);}
	.st216{clip-path:url(#SVGID_803_);}
	.st217{clip-path:url(#SVGID_807_);}
	.st218{clip-path:url(#SVGID_811_);}
	.st219{clip-path:url(#SVGID_815_);}
	.st220{clip-path:url(#SVGID_819_);}
	.st221{clip-path:url(#SVGID_823_);}
	.st222{clip-path:url(#SVGID_827_);}
	.st223{clip-path:url(#SVGID_831_);}
	.st224{clip-path:url(#SVGID_835_);}
	.st225{clip-path:url(#SVGID_839_);}
	.st226{clip-path:url(#SVGID_843_);}
	.st227{clip-path:url(#SVGID_847_);}
	.st228{clip-path:url(#SVGID_851_);}
	.st229{clip-path:url(#SVGID_855_);}
	.st230{clip-path:url(#SVGID_859_);}
	.st231{clip-path:url(#SVGID_863_);}
	.st232{clip-path:url(#SVGID_867_);}
	.st233{clip-path:url(#SVGID_871_);}
	.st234{clip-path:url(#SVGID_875_);}
	.st235{clip-path:url(#SVGID_879_);}
	.st236{clip-path:url(#SVGID_883_);}
	.st237{clip-path:url(#SVGID_887_);}
	.st238{clip-path:url(#SVGID_891_);}
	.st239{clip-path:url(#SVGID_895_);}
	.st240{clip-path:url(#SVGID_899_);}
	.st241{clip-path:url(#SVGID_903_);}
	.st242{clip-path:url(#SVGID_905_);}
	.st243{clip-path:url(#SVGID_909_);}
	.st244{clip-path:url(#SVGID_913_);}
	.st245{clip-path:url(#SVGID_917_);}
	.st246{clip-path:url(#SVGID_921_);}
	.st247{clip-path:url(#SVGID_925_);}
	.st248{clip-path:url(#SVGID_929_);}
	.st249{clip-path:url(#SVGID_933_);}
	.st250{clip-path:url(#SVGID_937_);}
	.st251{clip-path:url(#SVGID_941_);}
	.st252{clip-path:url(#SVGID_945_);}
	.st253{clip-path:url(#SVGID_949_);}
	.st254{clip-path:url(#SVGID_953_);}
	.st255{clip-path:url(#SVGID_957_);}
	.st256{clip-path:url(#SVGID_959_);}
	.st257{clip-path:url(#SVGID_963_);}
	.st258{clip-path:url(#SVGID_965_);}
	.st259{clip-path:url(#SVGID_969_);}
	.st260{clip-path:url(#SVGID_973_);}
	.st261{clip-path:url(#SVGID_975_);}
	.st262{clip-path:url(#SVGID_979_);}
	.st263{clip-path:url(#SVGID_981_);}
	.st264{clip-path:url(#SVGID_985_);}
	.st265{clip-path:url(#SVGID_987_);}
	.st266{clip-path:url(#SVGID_991_);}
	.st267{clip-path:url(#SVGID_995_);}
	.st268{clip-path:url(#SVGID_999_);}
	.st269{clip-path:url(#SVGID_1003_);}
	.st270{clip-path:url(#SVGID_1007_);}
	.st271{clip-path:url(#SVGID_1011_);fill:#FFFFFF;}
	.st272{clip-path:url(#SVGID_1013_);}
	.st273{opacity:0.44;clip-path:url(#SVGID_1013_);fill:url(#SVGID_1014_);}
	.st274{opacity:0.74;clip-path:url(#SVGID_1013_);fill:url(#SVGID_1015_);}
	.st275{fill:none;}
	.st276{fill:#002D73;}
	.st277{fill:url(#SVGID_1016_);}
	.st278{opacity:0.66;clip-path:url(#SVGID_1018_);}
	.st279{opacity:0.66;}
	.st280{clip-path:url(#SVGID_1020_);fill:#FFFFFF;}
	.st281{clip-path:url(#SVGID_1018_);}
	.st282{clip-path:url(#SVGID_1022_);fill:url(#SVGID_1023_);}
	.st283{clip-path:url(#SVGID_1022_);fill:url(#SVGID_1024_);}
	.st284{clip-path:url(#SVGID_1026_);}
	.st285{clip-path:url(#SVGID_1030_);}
	.st286{clip-path:url(#SVGID_1032_);}
	.st287{opacity:0.65;fill:url(#SVGID_1033_);}
	.st288{opacity:0.89;fill:url(#SVGID_1034_);}
	.st289{fill:url(#SVGID_1035_);}
	.st290{opacity:0.66;clip-path:url(#SVGID_1037_);}
	.st291{clip-path:url(#SVGID_1039_);fill:#FFFFFF;}
	.st292{clip-path:url(#SVGID_1037_);}
	.st293{clip-path:url(#SVGID_1041_);fill:#FFFFFF;}
	.st294{clip-path:url(#SVGID_1041_);fill:url(#SVGID_1042_);}
	.st295{clip-path:url(#SVGID_1041_);fill:url(#SVGID_1043_);}
	.st296{fill:url(#SVGID_1044_);}
	.st297{opacity:0.66;clip-path:url(#SVGID_1046_);}
	.st298{clip-path:url(#SVGID_1048_);fill:#FFFFFF;}
	.st299{clip-path:url(#SVGID_1046_);}
	.st300{clip-path:url(#SVGID_1050_);fill:#FFFFFF;}
	.st301{clip-path:url(#SVGID_1050_);fill:url(#SVGID_1051_);}
	.st302{clip-path:url(#SVGID_1050_);fill:url(#SVGID_1052_);}
	.st303{opacity:0.44;clip-path:url(#SVGID_1050_);fill:url(#SVGID_1053_);}
	.st304{opacity:0.74;clip-path:url(#SVGID_1050_);fill:url(#SVGID_1054_);}
	.st305{opacity:0.89;clip-path:url(#SVGID_1046_);fill:url(#SVGID_1055_);}
	.st306{fill:url(#SVGID_1056_);}
	.st307{opacity:0.66;clip-path:url(#SVGID_1058_);}
	.st308{clip-path:url(#SVGID_1060_);fill:#FFFFFF;}
	.st309{clip-path:url(#SVGID_1058_);}
	.st310{clip-path:url(#SVGID_1062_);fill:url(#SVGID_1063_);}
	.st311{clip-path:url(#SVGID_1062_);fill:url(#SVGID_1064_);}
	.st312{clip-path:url(#SVGID_1066_);}
	.st313{opacity:0.5;fill:url(#SVGID_1069_);}
	.st314{fill:url(#SVGID_1070_);}
	.st315{clip-path:url(#SVGID_1071_);fill:none;stroke:#002D73;stroke-width:3.1257;stroke-linecap:round;stroke-miterlimit:10;}
	.st316{fill:url(#SVGID_1074_);stroke:#FFFFFF;stroke-width:1.8484;stroke-miterlimit:10;}
	.st317{fill:#FFFFFF;}
	.st318{fill:#FFE8BA;}
	.st319{fill:none;stroke:#002D73;stroke-miterlimit:10;}
	.st320{fill:url(#SVGID_1075_);}
	.st321{fill:none;stroke:#002D73;stroke-width:0.859;stroke-miterlimit:10;}
	.st322{clip-path:url(#SVGID_1077_);fill:#231F20;}
	.st323{clip-path:url(#SVGID_1077_);fill:#6FA5D9;}
	.st324{clip-path:url(#SVGID_1077_);fill:#007AC1;}
	.st325{clip-path:url(#SVGID_1079_);fill:#F27021;}
	.st326{clip-path:url(#SVGID_1081_);}
	.st327{clip-path:url(#SVGID_1085_);}
	.st328{clip-path:url(#SVGID_1089_);}
	.st329{clip-path:url(#SVGID_1093_);}
	.st330{clip-path:url(#SVGID_1097_);}
	.st331{clip-path:url(#SVGID_1101_);}
	.st332{clip-path:url(#SVGID_1105_);}
	.st333{clip-path:url(#SVGID_1107_);}
	.st334{clip-path:url(#SVGID_1111_);}
	.st335{clip-path:url(#SVGID_1113_);}
	.st336{clip-path:url(#SVGID_1117_);}
	.st337{clip-path:url(#SVGID_1119_);}
	.st338{clip-path:url(#SVGID_1123_);}
	.st339{clip-path:url(#SVGID_1125_);}
	.st340{clip-path:url(#SVGID_1129_);}
	.st341{clip-path:url(#SVGID_1133_);}
	.st342{clip-path:url(#SVGID_1137_);}
	.st343{clip-path:url(#SVGID_1141_);}
	.st344{clip-path:url(#SVGID_1145_);}
	.st345{clip-path:url(#SVGID_1149_);}
	.st346{clip-path:url(#SVGID_1153_);}
	.st347{clip-path:url(#SVGID_1157_);}
	.st348{clip-path:url(#SVGID_1161_);}
	.st349{clip-path:url(#SVGID_1165_);}
	.st350{clip-path:url(#SVGID_1169_);}
	.st351{clip-path:url(#SVGID_1173_);}
	.st352{clip-path:url(#SVGID_1177_);}
	.st353{clip-path:url(#SVGID_1181_);}
	.st354{clip-path:url(#SVGID_1185_);}
	.st355{clip-path:url(#SVGID_1189_);}
	.st356{clip-path:url(#SVGID_1193_);}
	.st357{clip-path:url(#SVGID_1197_);}
	.st358{clip-path:url(#SVGID_1201_);}
	.st359{clip-path:url(#SVGID_1205_);}
	.st360{clip-path:url(#SVGID_1209_);}
	.st361{clip-path:url(#SVGID_1213_);}
	.st362{clip-path:url(#SVGID_1217_);}
	.st363{clip-path:url(#SVGID_1221_);}
	.st364{clip-path:url(#SVGID_1225_);}
	.st365{clip-path:url(#SVGID_1229_);}
	.st366{clip-path:url(#SVGID_1231_);}
	.st367{clip-path:url(#SVGID_1235_);}
	.st368{clip-path:url(#SVGID_1239_);}
	.st369{clip-path:url(#SVGID_1243_);}
	.st370{clip-path:url(#SVGID_1247_);}
	.st371{clip-path:url(#SVGID_1251_);}
	.st372{clip-path:url(#SVGID_1255_);}
	.st373{clip-path:url(#SVGID_1259_);}
	.st374{clip-path:url(#SVGID_1263_);}
	.st375{clip-path:url(#SVGID_1267_);}
	.st376{clip-path:url(#SVGID_1271_);}
	.st377{clip-path:url(#SVGID_1273_);}
	.st378{clip-path:url(#SVGID_1277_);}
	.st379{clip-path:url(#SVGID_1281_);}
	.st380{clip-path:url(#SVGID_1285_);}
	.st381{clip-path:url(#SVGID_1289_);}
	.st382{clip-path:url(#SVGID_1293_);}
	.st383{clip-path:url(#SVGID_1297_);}
	.st384{clip-path:url(#SVGID_1301_);}
	.st385{clip-path:url(#SVGID_1305_);}
	.st386{clip-path:url(#SVGID_1309_);}
	.st387{clip-path:url(#SVGID_1313_);}
	.st388{clip-path:url(#SVGID_1317_);}
	.st389{clip-path:url(#SVGID_1321_);}
	.st390{clip-path:url(#SVGID_1325_);}
	.st391{clip-path:url(#SVGID_1329_);}
	.st392{clip-path:url(#SVGID_1333_);}
	.st393{clip-path:url(#SVGID_1337_);}
	.st394{clip-path:url(#SVGID_1341_);}
	.st395{clip-path:url(#SVGID_1345_);}
	.st396{clip-path:url(#SVGID_1349_);}
	.st397{clip-path:url(#SVGID_1353_);}
	.st398{clip-path:url(#SVGID_1357_);}
	.st399{clip-path:url(#SVGID_1361_);}
	.st400{clip-path:url(#SVGID_1365_);}
	.st401{clip-path:url(#SVGID_1369_);}
	.st402{clip-path:url(#SVGID_1373_);}
	.st403{clip-path:url(#SVGID_1377_);}
	.st404{clip-path:url(#SVGID_1381_);}
	.st405{clip-path:url(#SVGID_1385_);}
	.st406{clip-path:url(#SVGID_1389_);}
	.st407{clip-path:url(#SVGID_1393_);}
	.st408{clip-path:url(#SVGID_1397_);}
	.st409{clip-path:url(#SVGID_1401_);}
	.st410{clip-path:url(#SVGID_1405_);}
	.st411{clip-path:url(#SVGID_1409_);}
	.st412{clip-path:url(#SVGID_1413_);}
	.st413{clip-path:url(#SVGID_1417_);}
	.st414{clip-path:url(#SVGID_1421_);}
	.st415{clip-path:url(#SVGID_1425_);}
	.st416{clip-path:url(#SVGID_1429_);}
	.st417{clip-path:url(#SVGID_1433_);}
	.st418{clip-path:url(#SVGID_1437_);}
	.st419{clip-path:url(#SVGID_1441_);}
	.st420{clip-path:url(#SVGID_1445_);}
	.st421{clip-path:url(#SVGID_1449_);}
	.st422{clip-path:url(#SVGID_1453_);}
	.st423{clip-path:url(#SVGID_1457_);}
	.st424{clip-path:url(#SVGID_1461_);}
	.st425{clip-path:url(#SVGID_1465_);}
	.st426{clip-path:url(#SVGID_1469_);}
	.st427{clip-path:url(#SVGID_1473_);}
	.st428{clip-path:url(#SVGID_1477_);}
	.st429{clip-path:url(#SVGID_1481_);}
	.st430{clip-path:url(#SVGID_1485_);}
	.st431{clip-path:url(#SVGID_1489_);}
	.st432{clip-path:url(#SVGID_1493_);}
	.st433{clip-path:url(#SVGID_1497_);}
	.st434{clip-path:url(#SVGID_1501_);}
	.st435{clip-path:url(#SVGID_1505_);}
	.st436{clip-path:url(#SVGID_1509_);}
	.st437{clip-path:url(#SVGID_1513_);}
	.st438{clip-path:url(#SVGID_1517_);}
	.st439{clip-path:url(#SVGID_1521_);}
	.st440{clip-path:url(#SVGID_1525_);}
	.st441{clip-path:url(#SVGID_1529_);}
	.st442{clip-path:url(#SVGID_1531_);}
	.st443{clip-path:url(#SVGID_1535_);}
	.st444{clip-path:url(#SVGID_1539_);}
	.st445{clip-path:url(#SVGID_1541_);}
	.st446{clip-path:url(#SVGID_1545_);}
	.st447{clip-path:url(#SVGID_1549_);}
	.st448{clip-path:url(#SVGID_1551_);}
	.st449{clip-path:url(#SVGID_1555_);}
	.st450{clip-path:url(#SVGID_1557_);}
	.st451{clip-path:url(#SVGID_1561_);}
	.st452{clip-path:url(#SVGID_1563_);}
	.st453{clip-path:url(#SVGID_1567_);}
	.st454{clip-path:url(#SVGID_1569_);}
	.st455{clip-path:url(#SVGID_1573_);}
	.st456{clip-path:url(#SVGID_1575_);}
	.st457{clip-path:url(#SVGID_1579_);}
	.st458{clip-path:url(#SVGID_1583_);}
	.st459{clip-path:url(#SVGID_1585_);}
	.st460{clip-path:url(#SVGID_1589_);}
	.st461{clip-path:url(#SVGID_1591_);}
	.st462{clip-path:url(#SVGID_1595_);}
	.st463{clip-path:url(#SVGID_1597_);}
	.st464{clip-path:url(#SVGID_1601_);}
	.st465{clip-path:url(#SVGID_1603_);}
	.st466{clip-path:url(#SVGID_1607_);}
	.st467{clip-path:url(#SVGID_1609_);}
	.st468{clip-path:url(#SVGID_1613_);}
	.st469{clip-path:url(#SVGID_1617_);}
	.st470{clip-path:url(#SVGID_1621_);}
	.st471{clip-path:url(#SVGID_1625_);}
	.st472{clip-path:url(#SVGID_1629_);}
	.st473{clip-path:url(#SVGID_1633_);}
	.st474{clip-path:url(#SVGID_1637_);}
	.st475{clip-path:url(#SVGID_1641_);}
	.st476{clip-path:url(#SVGID_1645_);}
	.st477{clip-path:url(#SVGID_1649_);}
	.st478{clip-path:url(#SVGID_1653_);}
	.st479{clip-path:url(#SVGID_1657_);}
	.st480{clip-path:url(#SVGID_1661_);}
	.st481{clip-path:url(#SVGID_1665_);}
	.st482{clip-path:url(#SVGID_1669_);}
	.st483{clip-path:url(#SVGID_1673_);}
	.st484{clip-path:url(#SVGID_1677_);}
	.st485{clip-path:url(#SVGID_1681_);}
	.st486{clip-path:url(#SVGID_1685_);}
	.st487{clip-path:url(#SVGID_1689_);}
	.st488{clip-path:url(#SVGID_1693_);}
	.st489{clip-path:url(#SVGID_1697_);}
	.st490{clip-path:url(#SVGID_1701_);}
	.st491{clip-path:url(#SVGID_1705_);}
	.st492{clip-path:url(#SVGID_1709_);}
	.st493{clip-path:url(#SVGID_1713_);}
	.st494{clip-path:url(#SVGID_1717_);}
	.st495{clip-path:url(#SVGID_1721_);}
	.st496{clip-path:url(#SVGID_1725_);}
	.st497{clip-path:url(#SVGID_1729_);}
	.st498{clip-path:url(#SVGID_1733_);}
	.st499{clip-path:url(#SVGID_1737_);}
	.st500{clip-path:url(#SVGID_1741_);}
	.st501{clip-path:url(#SVGID_1743_);}
	.st502{clip-path:url(#SVGID_1747_);}
	.st503{clip-path:url(#SVGID_1751_);}
	.st504{clip-path:url(#SVGID_1753_);}
	.st505{clip-path:url(#SVGID_1757_);}
	.st506{clip-path:url(#SVGID_1761_);}
	.st507{clip-path:url(#SVGID_1765_);}
	.st508{clip-path:url(#SVGID_1769_);}
	.st509{clip-path:url(#SVGID_1773_);}
	.st510{clip-path:url(#SVGID_1777_);}
	.st511{clip-path:url(#SVGID_1781_);}
	.st512{clip-path:url(#SVGID_1785_);}
	.st513{clip-path:url(#SVGID_1789_);}
	.st514{clip-path:url(#SVGID_1793_);}
	.st515{clip-path:url(#SVGID_1797_);}
	.st516{clip-path:url(#SVGID_1801_);}
	.st517{clip-path:url(#SVGID_1805_);}
	.st518{clip-path:url(#SVGID_1809_);}
	.st519{clip-path:url(#SVGID_1813_);}
	.st520{clip-path:url(#SVGID_1817_);}
	.st521{clip-path:url(#SVGID_1821_);}
	.st522{clip-path:url(#SVGID_1825_);}
	.st523{clip-path:url(#SVGID_1829_);}
	.st524{clip-path:url(#SVGID_1833_);}
	.st525{clip-path:url(#SVGID_1837_);}
	.st526{clip-path:url(#SVGID_1841_);}
	.st527{clip-path:url(#SVGID_1845_);}
	.st528{clip-path:url(#SVGID_1849_);}
	.st529{clip-path:url(#SVGID_1853_);}
	.st530{clip-path:url(#SVGID_1857_);}
	.st531{clip-path:url(#SVGID_1861_);}
	.st532{clip-path:url(#SVGID_1865_);}
	.st533{clip-path:url(#SVGID_1869_);}
	.st534{clip-path:url(#SVGID_1873_);}
	.st535{clip-path:url(#SVGID_1877_);}
	.st536{clip-path:url(#SVGID_1881_);}
	.st537{clip-path:url(#SVGID_1885_);}
	.st538{clip-path:url(#SVGID_1889_);}
	.st539{clip-path:url(#SVGID_1893_);}
	.st540{clip-path:url(#SVGID_1897_);}
	.st541{clip-path:url(#SVGID_1901_);}
	.st542{clip-path:url(#SVGID_1905_);}
	.st543{clip-path:url(#SVGID_1909_);}
	.st544{clip-path:url(#SVGID_1913_);}
	.st545{clip-path:url(#SVGID_1917_);}
	.st546{clip-path:url(#SVGID_1921_);}
	.st547{clip-path:url(#SVGID_1925_);}
	.st548{clip-path:url(#SVGID_1929_);}
	.st549{clip-path:url(#SVGID_1933_);}
	.st550{clip-path:url(#SVGID_1937_);}
	.st551{clip-path:url(#SVGID_1941_);}
	.st552{clip-path:url(#SVGID_1945_);}
	.st553{clip-path:url(#SVGID_1949_);}
	.st554{clip-path:url(#SVGID_1953_);}
	.st555{clip-path:url(#SVGID_1957_);}
	.st556{clip-path:url(#SVGID_1961_);}
	.st557{clip-path:url(#SVGID_1965_);}
	.st558{clip-path:url(#SVGID_1969_);}
	.st559{clip-path:url(#SVGID_1973_);}
	.st560{clip-path:url(#SVGID_1975_);}
	.st561{clip-path:url(#SVGID_1979_);}
	.st562{clip-path:url(#SVGID_1983_);}
	.st563{clip-path:url(#SVGID_1987_);}
	.st564{clip-path:url(#SVGID_1991_);}
	.st565{clip-path:url(#SVGID_1995_);}
	.st566{clip-path:url(#SVGID_1999_);}
	.st567{clip-path:url(#SVGID_2003_);}
	.st568{clip-path:url(#SVGID_2007_);}
	.st569{clip-path:url(#SVGID_2011_);}
	.st570{clip-path:url(#SVGID_2015_);}
	.st571{clip-path:url(#SVGID_2019_);}
	.st572{clip-path:url(#SVGID_2023_);}
	.st573{clip-path:url(#SVGID_2027_);}
	.st574{clip-path:url(#SVGID_2029_);}
	.st575{clip-path:url(#SVGID_2033_);}
	.st576{clip-path:url(#SVGID_2035_);}
	.st577{clip-path:url(#SVGID_2039_);}
	.st578{clip-path:url(#SVGID_2043_);}
	.st579{clip-path:url(#SVGID_2045_);}
	.st580{clip-path:url(#SVGID_2049_);}
	.st581{clip-path:url(#SVGID_2051_);}
	.st582{clip-path:url(#SVGID_2055_);}
	.st583{clip-path:url(#SVGID_2057_);}
	.st584{clip-path:url(#SVGID_2061_);}
	.st585{clip-path:url(#SVGID_2065_);}
	.st586{clip-path:url(#SVGID_2069_);}
	.st587{clip-path:url(#SVGID_2073_);}
	.st588{clip-path:url(#SVGID_2077_);}
	.st589{clip-path:url(#SVGID_2081_);fill:#FFFFFF;}
	.st590{opacity:0.74;fill:url(#SVGID_2082_);}
	.st591{opacity:0.44;fill:url(#SVGID_2083_);}
	.st592{opacity:0.89;fill:url(#SVGID_2084_);}
	.st593{opacity:0.65;fill:url(#SVGID_2085_);}
	.st594{fill:url(#SVGID_2086_);}
	.st595{opacity:0.5;fill:url(#SVGID_2087_);}
	.st596{fill:url(#SVGID_2088_);}
	.st597{clip-path:url(#SVGID_2089_);fill:none;stroke:#002D73;stroke-width:3.1257;stroke-linecap:round;stroke-miterlimit:10;}
	.st598{fill:url(#SVGID_2092_);stroke:#FFFFFF;stroke-width:1.8484;stroke-miterlimit:10;}
	.st599{fill:url(#SVGID_2093_);}
	.st600{clip-path:url(#SVGID_2095_);fill:#FFFFFF;}
	.st601{clip-path:url(#SVGID_2097_);fill:url(#SVGID_2098_);}
	.st602{clip-path:url(#SVGID_2097_);fill:url(#SVGID_2099_);}
	.st603{fill:none;stroke:#002D73;stroke-linecap:round;stroke-miterlimit:10;}
	.st604{display:none;fill:none;}
</style>
<g id="Layer_1">
	<g>
		<rect y="1.1" class="st275" width="153.5" height="137"/>
		<path class="st276" d="M39.1,1.8h4.5c1.8,0,3.2,0.8,3.2,2.5c0,1.2-0.6,1.9-1.7,2.3v0c1.3,0.3,2,1,2,2.2c0,2.3-2.1,2.8-3.8,2.8
			h-4.1V1.8z M41.7,5.7h0.7c0.9,0,1.7-0.2,1.7-1c0-0.9-0.8-1-1.7-1h-0.8V5.7z M41.7,9.8h0.8c1,0,1.9-0.1,1.9-1.1
			c0-1.1-1-1.2-1.9-1.2h-0.8V9.8z"/>
		<path class="st276" d="M48.4,1.8h4.7c1.7,0,3.2,0.8,3.2,2.5c0,1.3-0.6,2.2-1.9,2.5v0c0.8,0.2,0.9,1,1.4,2.2l1,2.7H54l-0.6-1.8
			c-0.5-1.7-0.9-2.1-1.8-2.1H51v3.9h-2.6V1.8z M51,5.9h0.7c0.8,0,1.9,0,1.9-1.1c0-0.9-0.9-1.1-1.9-1.1H51V5.9z"/>
		<path class="st276" d="M57.8,1.8h6.9v1.8h-4.3v2h4v1.8h-4v2.2h4.4v1.8h-7V1.8z"/>
		<path class="st276" d="M70.9,1.7c3.2,0,4.9,1.9,4.9,5.1c0,3.1-1.7,5.1-4.9,5.1S66,9.8,66,6.7C66,3.6,67.7,1.7,70.9,1.7z M70.9,9.9
			c1.6,0,2.2-1.5,2.2-3.1c0-1.7-0.6-3.1-2.2-3.1S68.7,5,68.7,6.7C68.7,8.3,69.3,9.9,70.9,9.9z"/>
		<path class="st276" d="M82.9,2.9h-1.5V1.4h1.5V2.9z M81.5,4.5h1.3v7.1h-1.3V4.5z"/>
		<path class="st276" d="M84.7,10.2c0.5,0.3,1.3,0.5,1.6,0.5c0.6,0,1.3-0.3,1.3-1c0-1.3-3.1-1.2-3.1-3.2c0-1.5,1.1-2.2,2.5-2.2
			c0.6,0,1.1,0.1,1.6,0.3l-0.1,1.1c-0.3-0.2-1.1-0.4-1.4-0.4c-0.7,0-1.3,0.3-1.3,0.9c0,1.5,3.1,1,3.1,3.3c0,1.5-1.2,2.2-2.5,2.2
			c-0.7,0-1.4-0.1-2-0.4L84.7,10.2z"/>
		<path class="st276" d="M98.4,5.5h-1.9v3.9c0,0.8,0.5,1.3,1.1,1.3c0.4,0,0.7-0.1,0.9-0.3v1.1c-0.3,0.1-0.7,0.2-1.1,0.2
			c-1.4,0-2.2-0.6-2.2-2.1V5.5h-1.6V4.5h1.6V2.8l1.3-0.4v2.1h1.9V5.5z"/>
		<path class="st276" d="M100,1.1h1.3v4.4h0c0.5-0.8,1.3-1.2,2.3-1.2c1.8,0,2.7,1.1,2.7,3.1v4.2H105V7.9c0-1.7-0.4-2.5-1.5-2.5
			c-1.5,0-2.2,1.2-2.2,2.9v3.3H100V1.1z"/>
		<path class="st276" d="M114.1,11.3c-0.5,0.2-1.1,0.5-2.3,0.5c-2.5,0-3.7-1.5-3.7-3.9c0-2.1,1.3-3.6,3.3-3.6c2.4,0,3.2,1.7,3.2,4
			h-5.1c0,1.4,1.1,2.4,2.4,2.4c0.9,0,1.9-0.4,2.2-0.7V11.3z M113.2,7.4c0-1.1-0.6-2-1.8-2c-1.3,0-1.8,1.1-1.9,2H113.2z"/>
		<path class="st276" d="M35.5,21.3c2.2,0,3.6,1.6,3.6,3.7c0,2-1.5,3.7-3.6,3.7c-2.2,0-3.6-1.7-3.6-3.7
			C31.9,22.9,33.4,21.3,35.5,21.3z M35.5,27.7c1.5,0,2.2-1.4,2.2-2.7c0-1.4-0.8-2.7-2.2-2.7c-1.4,0-2.2,1.3-2.2,2.7
			C33.3,26.3,34,27.7,35.5,27.7z"/>
		<path class="st276" d="M40.9,21.5h1.3v1.1h0c0.4-0.8,1.3-1.3,2.3-1.3c1.8,0,2.7,1.1,2.7,3.1v4.2h-1.3v-3.7c0-1.7-0.4-2.5-1.5-2.5
			c-1.5,0-2.2,1.2-2.2,2.9v3.3h-1.3V21.5z"/>
		<path class="st276" d="M49.6,18.1H51v10.5h-1.3V18.1z"/>
		<path class="st276" d="M52.8,30.6c0.2,0.1,0.4,0.1,0.6,0.1c1.2,0,1.6-1.6,1.6-1.8c0-0.2-0.2-0.5-0.3-0.8l-2.4-6.7h1.4l1.9,5.9h0
			l2-5.9H59l-2.6,7.3c-0.5,1.4-1,3-2.7,3c-0.4,0-0.7-0.1-0.9-0.1L52.8,30.6z"/>
		<path class="st276" d="M64.4,18.8h1.4v9.8h-1.4V18.8z"/>
		<path class="st276" d="M75,20.5c-0.6-0.4-1.3-0.5-2-0.5c-2.3,0-3.8,1.6-3.8,3.8c0,2.3,1.7,3.8,3.7,3.8c0.7,0,1.6-0.2,2.1-0.5
			l0.1,1.4c-0.7,0.3-1.7,0.3-2.2,0.3c-3.1,0-5.2-2-5.2-5.1c0-3,2.2-5,5.2-5c0.8,0,1.5,0.1,2.2,0.4L75,20.5z"/>
		<path class="st276" d="M81.3,20.3c-0.7-0.3-1.1-0.4-1.8-0.4c-0.8,0-1.7,0.3-1.7,1.3c0,1.9,4.2,1.4,4.2,4.7c0,2.1-1.6,2.9-3.6,2.9
			c-0.7,0-1.4-0.2-2-0.4l0.1-1.3c0.5,0.2,1.3,0.5,2,0.5c0.8,0,1.9-0.4,1.9-1.6c0-2.2-4.2-1.6-4.2-4.6c0-1.7,1.4-2.7,3.1-2.7
			c0.6,0,1.4,0.1,2.1,0.3L81.3,20.3z"/>
		<path class="st276" d="M85.6,18.7h1.2l-3.4,10.1h-1.2L85.6,18.7z"/>
		<path class="st276" d="M87.7,18.8h1.4v8.5h4.1v1.2h-5.5V18.8z"/>
		<path class="st276" d="M97.8,18.8h1.5l4.1,9.8h-1.5l-1-2.5h-4.8l-1,2.5h-1.5L97.8,18.8z M98.5,20.2L96.6,25h3.9L98.5,20.2z"/>
		<path class="st276" d="M104.8,18.8h2.6c2,0,3.4,0.7,3.4,2.5c0,1.3-0.8,2-2,2.3v0c1.3,0.1,2.3,1,2.3,2.4c0,2.1-1.7,2.6-3.7,2.6
			h-2.6V18.8z M106.2,23h0.8c1.4,0,2.5-0.1,2.5-1.6c0-1.2-1-1.5-1.8-1.5h-1.5V23z M106.2,27.5h1.1c1.3,0,2.4-0.3,2.4-1.6
			c0-1.5-1.3-1.7-2.5-1.7h-0.9V27.5z"/>
		<path class="st276" d="M116.5,18.8h1.5l4.1,9.8h-1.5l-1-2.5h-4.8l-1,2.5h-1.5L116.5,18.8z M117.2,20.2l-1.9,4.8h3.9L117.2,20.2z"
			/>
		<path class="st276" d="M41.2,39.5h-1.9v3.9c0,0.8,0.5,1.3,1.1,1.3c0.4,0,0.7-0.1,0.9-0.3v1.1c-0.3,0.1-0.7,0.2-1.1,0.2
			c-1.4,0-2.2-0.6-2.2-2.1v-4.2h-1.6v-1.1H38v-1.7l1.3-0.4v2.1h1.9V39.5z"/>
		<path class="st276" d="M42.9,35.1h1.3v4.4h0c0.5-0.8,1.3-1.2,2.3-1.2c1.8,0,2.7,1.1,2.7,3.1v4.2h-1.3v-3.7c0-1.7-0.4-2.5-1.5-2.5
			c-1.5,0-2.2,1.2-2.2,2.9v3.3h-1.3V35.1z"/>
		<path class="st276" d="M51.7,39c0.7-0.4,1.4-0.7,2.4-0.7c2,0,2.9,1,2.9,3v3c0,0.8,0,1.2,0.1,1.4h-1.2v-0.9h0
			c-0.3,0.4-1,1.1-2.2,1.1c-1.5,0-2.6-0.7-2.6-2.2c0-1.8,2-2.4,3.3-2.4c0.5,0,0.9,0,1.4,0c0-1.2-0.4-1.9-1.8-1.9
			c-0.7,0-1.5,0.3-2.1,0.7L51.7,39z M55.7,42.2c-0.3,0-0.6,0-0.8,0c-0.7,0-2.5,0.1-2.5,1.4c0,0.8,0.7,1.2,1.3,1.2c1.3,0,2-0.8,2-1.9
			V42.2z"/>
		<path class="st276" d="M63,39.5h-1.9v3.9c0,0.8,0.5,1.3,1.1,1.3c0.4,0,0.7-0.1,0.9-0.3v1.1c-0.3,0.1-0.7,0.2-1.1,0.2
			c-1.4,0-2.2-0.6-2.2-2.1v-4.2h-1.6v-1.1h1.6v-1.7l1.3-0.4v2.1H63V39.5z"/>
		<path class="st276" d="M73.6,44.6L73.6,44.6c-0.4,0.5-1.2,1.2-2.5,1.2c-2.2,0-3.1-1.9-3.1-3.9c0-1.9,1-3.6,3.1-3.6
			c1.2,0,2,0.5,2.4,1.1h0v-4.3h1.3v10.5h-1.3V44.6z M71.4,44.7c1.5,0,2.1-1.5,2.1-2.7c0-1.3-0.7-2.7-2.1-2.7s-2,1.3-2,2.6
			C69.4,43.1,70,44.7,71.4,44.7z"/>
		<path class="st276" d="M82.6,45.3c-0.5,0.2-1.1,0.5-2.3,0.5c-2.5,0-3.7-1.5-3.7-3.9c0-2.1,1.3-3.6,3.3-3.6c2.4,0,3.2,1.7,3.2,4H78
			c0,1.4,1.1,2.4,2.4,2.4c0.9,0,1.9-0.4,2.2-0.7V45.3z M81.7,41.4c0-1.1-0.6-2-1.8-2c-1.3,0-1.8,1.1-1.9,2H81.7z"/>
		<path class="st276" d="M85,35.1h1.3v10.5H85V35.1z"/>
		<path class="st276" d="M90.3,36.9h-1.5v-1.5h1.5V36.9z M88.9,38.5h1.3v7.1h-1.3V38.5z"/>
		<path class="st276" d="M95.8,45.6h-1.6l-2.6-7.1h1.4l1.9,5.8h0l2-5.8h1.3L95.8,45.6z"/>
		<path class="st276" d="M105.1,45.3c-0.5,0.2-1.1,0.5-2.3,0.5c-2.5,0-3.7-1.5-3.7-3.9c0-2.1,1.3-3.6,3.3-3.6c2.4,0,3.2,1.7,3.2,4
			h-5.1c0,1.4,1.1,2.4,2.4,2.4c0.9,0,1.9-0.4,2.2-0.7V45.3z M104.3,41.4c0-1.1-0.6-2-1.8-2c-1.3,0-1.8,1.1-1.9,2H104.3z"/>
		<path class="st276" d="M107.4,38.5h1.2v1.1h0c0.3-0.7,1.1-1.3,1.9-1.3c0.4,0,0.6,0,0.9,0.1v1.2c-0.2-0.1-0.5-0.1-0.7-0.1
			c-1.2,0-1.9,1.1-1.9,2.9v3.2h-1.3V38.5z"/>
		<path class="st276" d="M112.4,44.2c0.5,0.3,1.3,0.5,1.6,0.5c0.6,0,1.3-0.3,1.3-1c0-1.3-3.1-1.2-3.1-3.2c0-1.5,1.1-2.2,2.5-2.2
			c0.6,0,1.1,0.1,1.6,0.3l-0.1,1.1c-0.3-0.2-1.1-0.4-1.4-0.4c-0.7,0-1.3,0.3-1.3,0.9c0,1.5,3.1,1,3.1,3.3c0,1.5-1.2,2.2-2.5,2.2
			c-0.7,0-1.4-0.1-2-0.4L112.4,44.2z"/>
		<path class="st276" d="M6.7,60.8c2-1.7,4.3-3.6,4.3-4.9c0-0.9-0.6-1.2-1.4-1.2c-0.8,0-2,0.3-2.6,0.7l-0.1-2
			c1.4-0.5,2.3-0.6,2.9-0.6c2.2,0,3.8,0.9,3.8,2.9c0,1.9-2.1,3.8-3,4.6l-0.7,0.6h3.9v1.8H6.7V60.8z"/>
		<path class="st276" d="M19.2,60.8h-4.4v-2.1l3.9-5.8h2.9V59H23v1.8h-1.4v1.9h-2.4V60.8z M19.3,54.9L19.3,54.9L16.6,59h2.7V54.9z"
			/>
		<path class="st276" d="M23.7,57.9h3.8v1.8h-3.8V57.9z"/>
		<path class="st276" d="M28.7,52.1h2.5v4.3h0c0.5-0.8,1.3-1.2,2.4-1.2c2,0,2.8,1.4,2.8,2.9v4.6h-2.5v-3.5c0-1.4-0.5-1.8-1.2-1.8
			c-1,0-1.6,0.7-1.6,2.3v3.1h-2.5V52.1z"/>
		<path class="st276" d="M37.7,59c0-2.4,1.8-3.8,4.2-3.8c2.4,0,4.2,1.4,4.2,3.8c0,2.4-1.8,3.8-4.2,3.8C39.5,62.8,37.7,61.4,37.7,59z
			 M43.6,59c0-1.1-0.5-2.1-1.6-2.1c-1.2,0-1.6,1-1.6,2.1c0,1.1,0.5,2,1.6,2C43.1,61,43.6,60.1,43.6,59z"/>
		<path class="st276" d="M55.2,62.6h-2.3v-1.3h0c-0.5,1.1-1.5,1.5-2.7,1.5c-2,0-2.8-1.4-2.8-2.9v-4.6h2.5v3.5c0,1.4,0.5,1.8,1.2,1.8
			c1,0,1.6-0.7,1.6-2.3v-3.1h2.5V62.6z"/>
		<path class="st276" d="M61.9,57.3c-0.3-0.1-0.6-0.1-0.9-0.1c-1.2,0-1.8,0.9-1.8,2.3v3.1h-2.5v-7.3H59v1.3h0
			c0.4-0.9,1.1-1.5,2.2-1.5c0.3,0,0.6,0,0.9,0.1L61.9,57.3z"/>
		<path class="st276" d="M72.9,57.4C72.5,57.1,72,57,71.4,57c-1.1,0-1.9,0.8-1.9,2c0,1.2,1,1.9,2.1,1.9c0.6,0,1.1-0.1,1.6-0.4
			l0.1,1.9c-0.6,0.2-1.4,0.3-2.1,0.3c-2.4,0-4.2-1.4-4.2-3.8c0-2.4,1.8-3.8,4.2-3.8c0.8,0,1.4,0.1,2,0.4L72.9,57.4z"/>
		<path class="st276" d="M73.9,59c0-2.4,1.8-3.8,4.2-3.8s4.2,1.4,4.2,3.8c0,2.4-1.8,3.8-4.2,3.8S73.9,61.4,73.9,59z M79.8,59
			c0-1.1-0.5-2.1-1.6-2.1c-1.2,0-1.6,1-1.6,2.1c0,1.1,0.5,2,1.6,2C79.3,61,79.8,60.1,79.8,59z"/>
		<path class="st276" d="M83.6,55.3h2.3v1.3h0c0.5-1.1,1.5-1.5,2.7-1.5c2,0,2.8,1.4,2.8,2.9v4.6h-2.5v-3.5c0-1.4-0.5-1.8-1.2-1.8
			c-1,0-1.6,0.7-1.6,2.3v3.1h-2.5V55.3z"/>
		<path class="st276" d="M92.3,55.3h1.5v-1.6l2.5-0.8v2.4H98v1.8h-1.8v2.7c0,0.9,0.2,1.3,1,1.3c0.3,0,0.5-0.1,0.8-0.1l0.1,1.6
			c-0.5,0.1-1,0.1-1.6,0.1c-2.3,0-2.8-1-2.8-2.7v-3h-1.4V55.3z"/>
		<path class="st276" d="M101.9,54.1h-2.5v-1.8h2.5V54.1z M99.4,55.3h2.5v7.3h-2.5V55.3z"/>
		<path class="st276" d="M103.8,55.3h2.3v1.3h0c0.5-1.1,1.5-1.5,2.7-1.5c2,0,2.8,1.4,2.8,2.9v4.6h-2.5v-3.5c0-1.4-0.5-1.8-1.2-1.8
			c-1,0-1.6,0.7-1.6,2.3v3.1h-2.5V55.3z"/>
		<path class="st276" d="M120.9,62.6h-2.3v-1.3h0c-0.5,1.1-1.5,1.5-2.7,1.5c-2,0-2.8-1.4-2.8-2.9v-4.6h2.5v3.5
			c0,1.4,0.5,1.8,1.2,1.8c1,0,1.6-0.7,1.6-2.3v-3.1h2.5V62.6z"/>
		<path class="st276" d="M122.1,59c0-2.4,1.8-3.8,4.2-3.8c2.4,0,4.2,1.4,4.2,3.8c0,2.4-1.8,3.8-4.2,3.8
			C124,62.8,122.1,61.4,122.1,59z M128,59c0-1.1-0.5-2.1-1.6-2.1c-1.2,0-1.6,1-1.6,2.1c0,1.1,0.5,2,1.6,2C127.5,61,128,60.1,128,59z
			"/>
		<path class="st276" d="M139.6,62.6h-2.3v-1.3h0c-0.5,1.1-1.5,1.5-2.7,1.5c-2,0-2.8-1.4-2.8-2.9v-4.6h2.5v3.5
			c0,1.4,0.5,1.8,1.2,1.8c1,0,1.6-0.7,1.6-2.3v-3.1h2.5V62.6z"/>
		<path class="st276" d="M141,60.6c0.6,0.3,1.5,0.5,2.4,0.5c0.5,0,1-0.1,1-0.6c0-1.2-3.6-0.4-3.6-3c0-1.7,1.7-2.4,3.1-2.4
			c0.9,0,1.8,0.1,2.6,0.4l-0.2,1.8c-0.5-0.3-1.3-0.5-2-0.5c-0.5,0-1.2,0.1-1.2,0.5c0,1.1,3.8,0.2,3.8,3c0,1.9-1.8,2.4-3.4,2.4
			c-1.1,0-1.9-0.1-2.6-0.3L141,60.6z"/>
		<path class="st276" d="M28.6,69.1h2.5v10.5h-2.5V69.1z"/>
		<path class="st276" d="M40.8,79.6h-2.3v-1.3h0c-0.5,1.1-1.5,1.5-2.7,1.5c-2,0-2.8-1.4-2.8-2.9v-4.6h2.5v3.5c0,1.4,0.5,1.8,1.2,1.8
			c1,0,1.6-0.7,1.6-2.3v-3.1h2.5V79.6z"/>
		<path class="st276" d="M42.3,72.3h2.3v1.3h0c0.5-1.1,1.5-1.5,2.7-1.5c2,0,2.8,1.4,2.8,2.9v4.6h-2.5v-3.5c0-1.4-0.5-1.8-1.2-1.8
			c-1,0-1.6,0.7-1.6,2.3v3.1h-2.5V72.3z"/>
		<path class="st276" d="M59.4,78.8c0,3-1.5,4-4.4,4c-1.2,0-2.2-0.3-2.8-0.5l0.1-2c0.8,0.4,1.4,0.6,2.5,0.6c1.5,0,2.2-0.7,2.2-2.1
			v-0.4h0c-0.6,0.9-1.4,1.2-2.5,1.2c-2,0-3.2-1.5-3.2-3.7c0-2.2,1-3.8,3.3-3.8c1.1,0,1.9,0.6,2.5,1.5h0v-1.3h2.3V78.8z M55.3,77.7
			c0.9,0,1.6-0.8,1.6-1.9c0-0.8-0.5-1.7-1.6-1.7c-0.9,0-1.4,0.8-1.4,1.8C53.9,77,54.6,77.7,55.3,77.7z"/>
		<path class="st276" d="M66.2,74.1h-1.5v-1.8h1.5v-0.4c0-2.2,1-2.9,3-2.9c0.5,0,1,0.1,1.3,0.1l-0.2,1.7c-0.2-0.1-0.4-0.1-0.8-0.1
			c-0.6,0-0.9,0.4-0.9,1.2v0.4h1.8v1.8h-1.8v5.5h-2.5V74.1z"/>
		<path class="st276" d="M79.3,79.6H77v-1.3h0c-0.5,1.1-1.5,1.5-2.7,1.5c-2,0-2.8-1.4-2.8-2.9v-4.6H74v3.5c0,1.4,0.5,1.8,1.2,1.8
			c1,0,1.6-0.7,1.6-2.3v-3.1h2.5V79.6z"/>
		<path class="st276" d="M80.8,72.3h2.3v1.3h0c0.5-1.1,1.5-1.5,2.7-1.5c2,0,2.8,1.4,2.8,2.9v4.6h-2.5v-3.5c0-1.4-0.5-1.8-1.2-1.8
			c-1,0-1.6,0.7-1.6,2.3v3.1h-2.5V72.3z"/>
		<path class="st276" d="M95.9,74.4C95.4,74.1,95,74,94.4,74c-1.1,0-1.9,0.8-1.9,2c0,1.2,1,1.9,2.1,1.9c0.6,0,1.1-0.1,1.6-0.4
			l0.1,1.9c-0.6,0.2-1.4,0.3-2.1,0.3c-2.4,0-4.2-1.4-4.2-3.8c0-2.4,1.8-3.8,4.2-3.8c0.8,0,1.4,0.1,2,0.4L95.9,74.4z"/>
		<path class="st276" d="M96.5,72.3H98v-1.6l2.5-0.8v2.4h1.8v1.8h-1.8v2.7c0,0.9,0.2,1.3,1,1.3c0.3,0,0.5-0.1,0.8-0.1l0.1,1.6
			c-0.5,0.1-1,0.1-1.6,0.1c-2.3,0-2.8-1-2.8-2.7v-3h-1.4V72.3z"/>
		<path class="st276" d="M106.2,71.1h-2.5v-1.8h2.5V71.1z M103.7,72.3h2.5v7.3h-2.5V72.3z"/>
		<path class="st276" d="M107.7,76c0-2.4,1.8-3.8,4.2-3.8c2.4,0,4.2,1.4,4.2,3.8c0,2.4-1.8,3.8-4.2,3.8
			C109.6,79.8,107.7,78.4,107.7,76z M113.6,76c0-1.1-0.5-2.1-1.6-2.1c-1.2,0-1.6,1-1.6,2.1c0,1.1,0.5,2,1.6,2
			C113.1,78,113.6,77.1,113.6,76z"/>
		<path class="st276" d="M117.4,72.3h2.3v1.3h0c0.5-1.1,1.5-1.5,2.7-1.5c2,0,2.8,1.4,2.8,2.9v4.6h-2.5v-3.5c0-1.4-0.5-1.8-1.2-1.8
			c-1,0-1.6,0.7-1.6,2.3v3.1h-2.5V72.3z"/>
		<path class="st276" d="M9.9,88.1H7.4v-1.8h2.5V88.1z M7.4,89.3h2.5v7.3H7.4V89.3z"/>
		<path class="st276" d="M11.8,89.3h2.3v1.3h0c0.5-1.1,1.5-1.5,2.7-1.5c1,0,1.9,0.4,2.3,1.4c0.6-1,1.6-1.4,2.6-1.4
			c2.1,0,2.6,1.2,2.6,3.2v4.3h-2.5v-3.9c0-0.8-0.3-1.4-1-1.4c-0.9,0-1.4,0.7-1.4,2.3v3.1h-2.5v-3.9c0-0.8-0.3-1.4-1-1.4
			c-0.9,0-1.4,0.7-1.4,2.3v3.1h-2.5V89.3z"/>
		<path class="st276" d="M25.7,89.3h2.3v1.3h0c0.5-1,1.6-1.5,2.7-1.5c2,0,3.1,1.9,3.1,3.7c0,2.2-1.2,4-3.3,4c-0.9,0-1.8-0.3-2.3-1.2
			h0v4h-2.5V89.3z M29.8,91.1c-0.9,0-1.5,0.8-1.5,1.9c0,1.1,0.7,1.9,1.5,1.9c1,0,1.5-0.8,1.5-2C31.3,91.9,30.8,91.1,29.8,91.1z"/>
		<path class="st276" d="M40.4,91.3c-0.3-0.1-0.6-0.1-0.9-0.1c-1.2,0-1.8,0.9-1.8,2.3v3.1h-2.5v-7.3h2.3v1.3h0
			c0.4-0.9,1.1-1.5,2.2-1.5c0.3,0,0.6,0,0.9,0.1L40.4,91.3z"/>
		<path class="st276" d="M41,93c0-2.4,1.8-3.8,4.2-3.8c2.4,0,4.2,1.4,4.2,3.8c0,2.4-1.8,3.8-4.2,3.8C42.9,96.8,41,95.4,41,93z
			 M46.9,93c0-1.1-0.5-2.1-1.6-2.1c-1.2,0-1.6,1-1.6,2.1c0,1.1,0.5,2,1.6,2C46.4,95,46.9,94.1,46.9,93z"/>
		<path class="st276" d="M50.1,89.3h2.7l1.5,5.2h0l1.5-5.2h2.5l-2.7,7.3h-2.9L50.1,89.3z"/>
		<path class="st276" d="M61.5,93.7c0.1,1,0.9,1.4,2.1,1.4c0.7,0,1.5-0.2,2.2-0.6v1.8c-0.8,0.3-1.7,0.5-2.7,0.5
			c-2.4,0-4.2-1.4-4.2-3.8c0-2.4,1.6-3.8,3.9-3.8c2.7,0,3.7,1.9,3.7,4.1v0.5H61.5z M64.3,92.3c0-0.8-0.4-1.5-1.4-1.5
			c-0.9,0-1.3,0.7-1.4,1.5H64.3z"/>
		<path class="st276" d="M67.8,89.3h2.3v1.3h0c0.5-1.1,1.5-1.5,2.7-1.5c1,0,1.9,0.4,2.3,1.4c0.6-1,1.6-1.4,2.6-1.4
			c2.1,0,2.6,1.2,2.6,3.2v4.3h-2.5v-3.9c0-0.8-0.3-1.4-1-1.4c-0.9,0-1.4,0.7-1.4,2.3v3.1h-2.5v-3.9c0-0.8-0.3-1.4-1-1.4
			c-0.9,0-1.4,0.7-1.4,2.3v3.1h-2.5V89.3z"/>
		<path class="st276" d="M84,93.7c0.1,1,0.9,1.4,2.1,1.4c0.7,0,1.5-0.2,2.2-0.6v1.8c-0.8,0.3-1.7,0.5-2.7,0.5
			c-2.4,0-4.2-1.4-4.2-3.8c0-2.4,1.6-3.8,3.9-3.8c2.7,0,3.7,1.9,3.7,4.1v0.5H84z M86.8,92.3c0-0.8-0.4-1.5-1.4-1.5
			c-0.9,0-1.3,0.7-1.4,1.5H86.8z"/>
		<path class="st276" d="M90.4,89.3h2.3v1.3h0c0.5-1.1,1.5-1.5,2.7-1.5c2,0,2.8,1.4,2.8,2.9v4.6h-2.5v-3.5c0-1.4-0.5-1.8-1.2-1.8
			c-1,0-1.6,0.7-1.6,2.3v3.1h-2.5V89.3z"/>
		<path class="st276" d="M99.1,89.3h1.5v-1.6l2.5-0.8v2.4h1.8v1.8H103v2.7c0,0.9,0.2,1.3,1,1.3c0.3,0,0.5-0.1,0.8-0.1l0.1,1.6
			c-0.5,0.1-1,0.1-1.6,0.1c-2.3,0-2.8-1-2.8-2.7v-3h-1.4V89.3z"/>
		<path class="st276" d="M108.5,90l-2-0.4L107,88l1.9,0.9l-0.3-2h1.7l-0.3,2l1.8-0.9l0.5,1.6l-2,0.3l1.4,1.4l-1.4,1l-0.9-1.8l-1,1.8
			l-1.4-1L108.5,90z"/>
		<path class="st276" d="M126.8,96.6h-1.5l-1.8-6h0l-1.8,6h-1.5l-2.3-7.1h1.4l1.6,5.9h0l1.8-5.9h1.6l1.8,5.9h0l1.7-5.9h1.3
			L126.8,96.6z"/>
		<path class="st276" d="M132,87.9h-1.5v-1.5h1.5V87.9z M130.6,89.5h1.3v7.1h-1.3V89.5z"/>
		<path class="st276" d="M138.1,90.5h-1.9v3.9c0,0.8,0.5,1.3,1.1,1.3c0.4,0,0.7-0.1,0.9-0.3v1.1c-0.3,0.1-0.7,0.2-1.1,0.2
			c-1.4,0-2.2-0.6-2.2-2.1v-4.2h-1.6v-1.1h1.6v-1.7l1.3-0.4v2.1h1.9V90.5z"/>
		<path class="st276" d="M139.7,86.1h1.3v4.4h0c0.5-0.8,1.3-1.2,2.3-1.2c1.8,0,2.7,1.1,2.7,3.1v4.2h-1.3v-3.7c0-1.7-0.4-2.5-1.5-2.5
			c-1.5,0-2.2,1.2-2.2,2.9v3.3h-1.3V86.1z"/>
		<path class="st276" d="M21.9,110c0-2.4,1.8-3.8,4.2-3.8s4.2,1.4,4.2,3.8c0,2.4-1.8,3.8-4.2,3.8S21.9,112.4,21.9,110z M27.8,110
			c0-1.1-0.5-2.1-1.6-2.1c-1.2,0-1.6,1-1.6,2.1c0,1.1,0.5,2,1.6,2C27.3,112,27.8,111.1,27.8,110z"/>
		<path class="st276" d="M31.6,106.3h2.3v1.3h0c0.5-1.1,1.5-1.5,2.7-1.5c2,0,2.8,1.4,2.8,2.9v4.6h-2.5v-3.5c0-1.4-0.5-1.8-1.2-1.8
			c-1,0-1.6,0.7-1.6,2.3v3.1h-2.5V106.3z"/>
		<path class="st276" d="M43.2,110.7c0.1,1,0.9,1.4,2.1,1.4c0.7,0,1.5-0.2,2.2-0.6v1.8c-0.8,0.3-1.7,0.5-2.7,0.5
			c-2.4,0-4.2-1.4-4.2-3.8c0-2.4,1.6-3.8,3.9-3.8c2.7,0,3.7,1.9,3.7,4.1v0.5H43.2z M45.9,109.3c0-0.8-0.4-1.5-1.4-1.5
			c-0.9,0-1.3,0.7-1.4,1.5H45.9z"/>
		<path class="st276" d="M56.6,105.1h-2.5v-1.8h2.5V105.1z M54.1,106.3h2.5v7.3h-2.5V106.3z"/>
		<path class="st276" d="M58.5,106.3h2.3v1.3h0c0.5-1.1,1.5-1.5,2.7-1.5c2,0,2.8,1.4,2.8,2.9v4.6h-2.5v-3.5c0-1.4-0.5-1.8-1.2-1.8
			c-1,0-1.6,0.7-1.6,2.3v3.1h-2.5V106.3z"/>
		<path class="st276" d="M67.8,103.1h2.5v4.3h0c0.5-0.8,1.3-1.2,2.4-1.2c2,0,2.8,1.4,2.8,2.9v4.6h-2.5v-3.5c0-1.4-0.5-1.8-1.2-1.8
			c-1,0-1.6,0.7-1.6,2.3v3.1h-2.5V103.1z"/>
		<path class="st276" d="M81.9,113.6c0-0.4-0.1-0.8-0.1-1.1h0c-0.6,0.9-1.3,1.3-2.3,1.3c-1.4,0-2.7-0.7-2.7-2.3
			c0-2.2,2.4-2.5,3.8-2.5c0.4,0,0.9,0,1.2,0.1c0-1-0.8-1.3-1.7-1.3c-0.8,0-1.6,0.2-2.3,0.5l0-1.7c0.9-0.4,1.8-0.5,2.9-0.5
			c1.9,0,3.5,0.8,3.5,3v2.7c0,0.6,0,1.1,0.1,1.7H81.9z M80.2,112.1c1,0,1.6-0.9,1.6-1.7c-0.3,0-0.7,0-1.1,0c-0.9,0-1.5,0.3-1.5,1
			C79.2,111.8,79.6,112.1,80.2,112.1z"/>
		<path class="st276" d="M86,103.1h2.5v10.5H86V103.1z"/>
		<path class="st276" d="M95.2,113.6c0-0.4-0.1-0.8-0.1-1.1h0c-0.6,0.9-1.3,1.3-2.3,1.3c-1.4,0-2.7-0.7-2.7-2.3
			c0-2.2,2.4-2.5,3.8-2.5c0.4,0,0.9,0,1.2,0.1c0-1-0.8-1.3-1.7-1.3c-0.8,0-1.6,0.2-2.3,0.5l0-1.7c0.9-0.4,1.8-0.5,2.9-0.5
			c1.9,0,3.5,0.8,3.5,3v2.7c0,0.6,0,1.1,0.1,1.7H95.2z M93.4,112.1c1,0,1.6-0.9,1.6-1.7c-0.3,0-0.7,0-1.1,0c-0.9,0-1.5,0.3-1.5,1
			C92.4,111.8,92.8,112.1,93.4,112.1z"/>
		<path class="st276" d="M98.3,106.3h1.5v-1.6l2.5-0.8v2.4h1.8v1.8h-1.8v2.7c0,0.9,0.2,1.3,1,1.3c0.3,0,0.5-0.1,0.8-0.1l0.1,1.6
			c-0.5,0.1-1,0.1-1.6,0.1c-2.3,0-2.8-1-2.8-2.7v-3h-1.4V106.3z"/>
		<path class="st276" d="M108,105.1h-2.5v-1.8h2.5V105.1z M105.4,106.3h2.5v7.3h-2.5V106.3z"/>
		<path class="st276" d="M109.5,110c0-2.4,1.8-3.8,4.2-3.8c2.4,0,4.2,1.4,4.2,3.8c0,2.4-1.8,3.8-4.2,3.8
			C111.3,113.8,109.5,112.4,109.5,110z M115.4,110c0-1.1-0.5-2.1-1.6-2.1c-1.2,0-1.6,1-1.6,2.1c0,1.1,0.5,2,1.6,2
			C114.9,112,115.4,111.1,115.4,110z"/>
		<path class="st276" d="M119.2,106.3h2.3v1.3h0c0.5-1.1,1.5-1.5,2.7-1.5c2,0,2.8,1.4,2.8,2.9v4.6h-2.5v-3.5c0-1.4-0.5-1.8-1.2-1.8
			c-1,0-1.6,0.7-1.6,2.3v3.1h-2.5V106.3z"/>
		<path class="st276" d="M128.7,111.4h2.4l-1.4,3.8h-1.9L128.7,111.4z"/>
		<path class="st276" d="M40,127c0-2.4,1.8-3.8,4.2-3.8s4.2,1.4,4.2,3.8c0,2.4-1.8,3.8-4.2,3.8S40,129.4,40,127z M45.9,127
			c0-1.1-0.5-2.1-1.6-2.1c-1.2,0-1.6,1-1.6,2.1c0,1.1,0.5,2,1.6,2C45.4,129,45.9,128.1,45.9,127z"/>
		<path class="st276" d="M49.7,123.3H52v1.3h0c0.5-1.1,1.5-1.5,2.7-1.5c2,0,2.8,1.4,2.8,2.9v4.6H55v-3.5c0-1.4-0.5-1.8-1.2-1.8
			c-1,0-1.6,0.7-1.6,2.3v3.1h-2.5V123.3z"/>
		<path class="st276" d="M64.8,125.4c-0.5-0.3-0.9-0.4-1.5-0.4c-1.1,0-1.9,0.8-1.9,2c0,1.2,1,1.9,2.1,1.9c0.6,0,1.1-0.1,1.6-0.4
			l0.1,1.9c-0.6,0.2-1.4,0.3-2.1,0.3c-2.4,0-4.2-1.4-4.2-3.8c0-2.4,1.8-3.8,4.2-3.8c0.8,0,1.4,0.1,2,0.4L64.8,125.4z"/>
		<path class="st276" d="M68.3,127.7c0.1,1,0.9,1.4,2.1,1.4c0.7,0,1.5-0.2,2.2-0.6v1.8c-0.8,0.3-1.7,0.5-2.7,0.5
			c-2.4,0-4.2-1.4-4.2-3.8c0-2.4,1.6-3.8,3.9-3.8c2.7,0,3.7,1.9,3.7,4.1v0.5H68.3z M71,126.3c0-0.8-0.4-1.5-1.4-1.5
			c-0.9,0-1.3,0.7-1.4,1.5H71z"/>
		<path class="st276" d="M86.7,130.6h-2.3v-1.3h0c-0.3,0.8-1.3,1.5-2.5,1.5c-2.2,0-3.3-1.8-3.3-4c0-1.8,1.1-3.7,3.1-3.7
			c1,0,1.9,0.3,2.5,1.1h0v-4.1h2.5V130.6z M82.7,128.9c0.8,0,1.5-0.8,1.5-1.9c0-1.1-0.6-1.9-1.5-1.9c-1,0-1.5,0.8-1.5,1.8
			C81.1,128.1,81.7,128.9,82.7,128.9z"/>
		<path class="st276" d="M93,130.6c0-0.4-0.1-0.8-0.1-1.1h0c-0.6,0.9-1.3,1.3-2.3,1.3c-1.4,0-2.7-0.7-2.7-2.3c0-2.2,2.4-2.5,3.8-2.5
			c0.4,0,0.9,0,1.2,0.1c0-1-0.8-1.3-1.7-1.3c-0.8,0-1.6,0.2-2.3,0.5l0-1.7c0.9-0.4,1.8-0.5,2.9-0.5c1.9,0,3.5,0.8,3.5,3v2.7
			c0,0.6,0,1.1,0.1,1.7H93z M91.3,129.1c1,0,1.6-0.9,1.6-1.7c-0.3,0-0.7,0-1.1,0c-0.9,0-1.5,0.3-1.5,1
			C90.2,128.8,90.7,129.1,91.3,129.1z"/>
		<path class="st276" d="M99.6,122.1h-2.5v-1.8h2.5V122.1z M97.1,123.3h2.5v7.3h-2.5V123.3z"/>
		<path class="st276" d="M101.8,120.1h2.5v10.5h-2.5V120.1z"/>
		<path class="st276" d="M106.2,131.6c0.3,0.1,0.6,0.2,1,0.2c0.6,0,1.1-0.4,1.3-1l-3-7.5h2.7l1.6,4.8h0l1.5-4.8h2.5l-2.7,6.8
			c-0.7,1.8-1.3,3.6-3.6,3.6c-0.5,0-1.1-0.1-1.6-0.2L106.2,131.6z"/>
	</g>
</g>
<g id="Layer_2">
</g>
</svg>
