<?xml version="1.0" encoding="iso-8859-1"?>
<!-- Generator: Adobe Illustrator 19.1.0, SVG Export Plug-In . SVG Version: 6.00 Build 0)  -->
<svg version="1.1" xmlns="http://www.w3.org/2000/svg" xmlns:xlink="http://www.w3.org/1999/xlink" x="0px" y="0px"
	 viewBox="0 0 165.481 178.559" style="enable-background:new 0 0 165.481 178.559;" xml:space="preserve">
<g id="Layer_1">
	<g>
		<g>
			<path style="fill:#002D73;" d="M89.281,178.559C40.051,178.559,0,138.509,0,89.281C0,40.051,40.051,0,89.281,0
				c7.608,0,15.187,0.967,22.526,2.874c2.383,0.619,3.813,3.053,3.193,5.435c-0.62,2.382-3.052,3.81-5.435,3.193
				c-6.608-1.717-13.432-2.587-20.284-2.587c-44.314,0-80.367,36.052-80.367,80.366c0,44.313,36.052,80.364,80.367,80.364
				c25.64,0,49.144-11.821,64.483-32.431c1.469-1.976,4.261-2.384,6.236-0.915c1.975,1.47,2.385,4.262,0.915,6.236
				C143.877,165.429,117.768,178.559,89.281,178.559z"/>
		</g>
		<g>
			<polygon style="fill:#002D73;" points="138.635,135.751 165.31,151.347 165.481,120.45 			"/>
		</g>
	</g>
</g>
<g id="Layer_2">
</g>
</svg>
