<?xml version="1.0" encoding="utf-8"?>
<!-- Generator: Adobe Illustrator 19.1.0, SVG Export Plug-In . SVG Version: 6.00 Build 0)  -->
<!DOCTYPE svg PUBLIC "-//W3C//DTD SVG 1.1//EN" "http://www.w3.org/Graphics/SVG/1.1/DTD/svg11.dtd">
<svg version="1.1" xmlns="http://www.w3.org/2000/svg" xmlns:xlink="http://www.w3.org/1999/xlink" x="0px" y="0px" width="210.7px"
	 height="141.5px" viewBox="0 0 210.7 141.5" style="enable-background:new 0 0 210.7 141.5;" xml:space="preserve">
<style type="text/css">
	.st0{clip-path:url(#SVGID_2_);fill:#FFFFFF;}
	.st1{fill:#002D73;}
	.st2{fill:#004B8C;}
	.st3{display:none;fill:none;}
	.st4{opacity:0.6;fill:url(#SVGID_1_);}
	.st5{opacity:0.6;fill:url(#SVGID_3_);}
	.st6{fill:none;}
	.st7{fill:#FFFFFF;}
	.st8{fill:url(#SVGID_5_);}
	.st9{clip-path:url(#SVGID_6_);fill:url(#SVGID_8_);}
	.st10{fill:#114B89;}
	.st11{opacity:0.5;}
	.st12{fill:url(#SVGID_9_);}
	.st13{fill-rule:evenodd;clip-rule:evenodd;fill:url(#SVGID_10_);}
	.st14{fill:url(#SVGID_11_);}
	.st15{fill-rule:evenodd;clip-rule:evenodd;fill:url(#SVGID_12_);}
	.st16{opacity:0.32;}
	.st17{clip-path:url(#SVGID_13_);fill:url(#SVGID_14_);}
	.st18{fill:url(#SVGID_16_);}
	.st19{fill-rule:evenodd;clip-rule:evenodd;fill:url(#SVGID_17_);}
	.st20{clip-path:url(#SVGID_18_);fill:url(#SVGID_19_);}
	.st21{clip-path:url(#SVGID_21_);fill:url(#SVGID_22_);}
	.st22{opacity:0.5;fill:url(#SVGID_24_);}
	.st23{fill:#231F20;}
	.st24{clip-path:url(#SVGID_25_);fill:#231F20;}
	.st25{clip-path:url(#SVGID_25_);fill:#6FA5D9;}
	.st26{clip-path:url(#SVGID_25_);fill:#007AC1;}
	.st27{fill:none;stroke:#58595B;stroke-width:0.1413;}
	.st28{clip-path:url(#SVGID_26_);fill:#F27021;}
	.st29{clip-path:url(#SVGID_28_);}
	.st30{clip-path:url(#SVGID_32_);}
	.st31{clip-path:url(#SVGID_36_);}
	.st32{clip-path:url(#SVGID_40_);}
	.st33{clip-path:url(#SVGID_44_);}
	.st34{clip-path:url(#SVGID_48_);}
	.st35{clip-path:url(#SVGID_52_);}
	.st36{clip-path:url(#SVGID_54_);}
	.st37{clip-path:url(#SVGID_58_);}
	.st38{clip-path:url(#SVGID_60_);}
	.st39{clip-path:url(#SVGID_64_);}
	.st40{clip-path:url(#SVGID_66_);}
	.st41{clip-path:url(#SVGID_70_);}
	.st42{clip-path:url(#SVGID_72_);}
	.st43{clip-path:url(#SVGID_76_);}
	.st44{clip-path:url(#SVGID_80_);}
	.st45{clip-path:url(#SVGID_84_);}
	.st46{clip-path:url(#SVGID_88_);}
	.st47{clip-path:url(#SVGID_92_);}
	.st48{clip-path:url(#SVGID_96_);}
	.st49{clip-path:url(#SVGID_100_);}
	.st50{clip-path:url(#SVGID_104_);}
	.st51{clip-path:url(#SVGID_108_);}
	.st52{clip-path:url(#SVGID_112_);}
	.st53{clip-path:url(#SVGID_116_);}
	.st54{clip-path:url(#SVGID_120_);}
	.st55{clip-path:url(#SVGID_124_);}
	.st56{clip-path:url(#SVGID_128_);}
	.st57{clip-path:url(#SVGID_132_);}
	.st58{clip-path:url(#SVGID_136_);}
	.st59{clip-path:url(#SVGID_140_);}
	.st60{clip-path:url(#SVGID_144_);}
	.st61{clip-path:url(#SVGID_148_);}
	.st62{clip-path:url(#SVGID_152_);}
	.st63{clip-path:url(#SVGID_156_);}
	.st64{clip-path:url(#SVGID_160_);}
	.st65{clip-path:url(#SVGID_164_);}
	.st66{clip-path:url(#SVGID_168_);}
	.st67{clip-path:url(#SVGID_172_);}
	.st68{clip-path:url(#SVGID_176_);}
	.st69{clip-path:url(#SVGID_178_);}
	.st70{clip-path:url(#SVGID_182_);}
	.st71{clip-path:url(#SVGID_186_);}
	.st72{clip-path:url(#SVGID_190_);}
	.st73{clip-path:url(#SVGID_194_);}
	.st74{clip-path:url(#SVGID_198_);}
	.st75{clip-path:url(#SVGID_202_);}
	.st76{clip-path:url(#SVGID_206_);}
	.st77{clip-path:url(#SVGID_210_);}
	.st78{clip-path:url(#SVGID_214_);}
	.st79{clip-path:url(#SVGID_218_);}
	.st80{clip-path:url(#SVGID_220_);}
	.st81{clip-path:url(#SVGID_224_);}
	.st82{clip-path:url(#SVGID_228_);}
	.st83{clip-path:url(#SVGID_232_);}
	.st84{clip-path:url(#SVGID_236_);}
	.st85{clip-path:url(#SVGID_240_);}
	.st86{clip-path:url(#SVGID_244_);}
	.st87{clip-path:url(#SVGID_248_);}
	.st88{clip-path:url(#SVGID_252_);}
	.st89{clip-path:url(#SVGID_256_);}
	.st90{clip-path:url(#SVGID_260_);}
	.st91{clip-path:url(#SVGID_264_);}
	.st92{clip-path:url(#SVGID_268_);}
	.st93{clip-path:url(#SVGID_272_);}
	.st94{clip-path:url(#SVGID_276_);}
	.st95{clip-path:url(#SVGID_280_);}
	.st96{clip-path:url(#SVGID_284_);}
	.st97{clip-path:url(#SVGID_288_);}
	.st98{clip-path:url(#SVGID_292_);}
	.st99{clip-path:url(#SVGID_296_);}
	.st100{clip-path:url(#SVGID_300_);}
	.st101{clip-path:url(#SVGID_304_);}
	.st102{clip-path:url(#SVGID_308_);}
	.st103{clip-path:url(#SVGID_312_);}
	.st104{clip-path:url(#SVGID_316_);}
	.st105{clip-path:url(#SVGID_320_);}
	.st106{clip-path:url(#SVGID_324_);}
	.st107{clip-path:url(#SVGID_328_);}
	.st108{clip-path:url(#SVGID_332_);}
	.st109{clip-path:url(#SVGID_336_);}
	.st110{clip-path:url(#SVGID_340_);}
	.st111{clip-path:url(#SVGID_344_);}
	.st112{clip-path:url(#SVGID_348_);}
	.st113{clip-path:url(#SVGID_352_);}
	.st114{clip-path:url(#SVGID_356_);}
	.st115{clip-path:url(#SVGID_360_);}
	.st116{clip-path:url(#SVGID_364_);}
	.st117{clip-path:url(#SVGID_368_);}
	.st118{clip-path:url(#SVGID_372_);}
	.st119{clip-path:url(#SVGID_376_);}
	.st120{clip-path:url(#SVGID_380_);}
	.st121{clip-path:url(#SVGID_384_);}
	.st122{clip-path:url(#SVGID_388_);}
	.st123{clip-path:url(#SVGID_392_);}
	.st124{clip-path:url(#SVGID_396_);}
	.st125{clip-path:url(#SVGID_400_);}
	.st126{clip-path:url(#SVGID_404_);}
	.st127{clip-path:url(#SVGID_408_);}
	.st128{clip-path:url(#SVGID_412_);}
	.st129{clip-path:url(#SVGID_416_);}
	.st130{clip-path:url(#SVGID_420_);}
	.st131{clip-path:url(#SVGID_424_);}
	.st132{clip-path:url(#SVGID_428_);}
	.st133{clip-path:url(#SVGID_432_);}
	.st134{clip-path:url(#SVGID_436_);}
	.st135{clip-path:url(#SVGID_440_);}
	.st136{clip-path:url(#SVGID_444_);}
	.st137{clip-path:url(#SVGID_448_);}
	.st138{clip-path:url(#SVGID_452_);}
	.st139{clip-path:url(#SVGID_456_);}
	.st140{clip-path:url(#SVGID_460_);}
	.st141{clip-path:url(#SVGID_464_);}
	.st142{clip-path:url(#SVGID_468_);}
	.st143{clip-path:url(#SVGID_472_);}
	.st144{clip-path:url(#SVGID_476_);}
	.st145{clip-path:url(#SVGID_478_);}
	.st146{clip-path:url(#SVGID_482_);}
	.st147{clip-path:url(#SVGID_486_);}
	.st148{clip-path:url(#SVGID_488_);}
	.st149{clip-path:url(#SVGID_492_);}
	.st150{clip-path:url(#SVGID_496_);}
	.st151{clip-path:url(#SVGID_498_);}
	.st152{clip-path:url(#SVGID_502_);}
	.st153{clip-path:url(#SVGID_504_);}
	.st154{clip-path:url(#SVGID_508_);}
	.st155{clip-path:url(#SVGID_510_);}
	.st156{clip-path:url(#SVGID_514_);}
	.st157{clip-path:url(#SVGID_516_);}
	.st158{clip-path:url(#SVGID_520_);}
	.st159{clip-path:url(#SVGID_522_);}
	.st160{clip-path:url(#SVGID_526_);}
	.st161{clip-path:url(#SVGID_530_);}
	.st162{clip-path:url(#SVGID_532_);}
	.st163{clip-path:url(#SVGID_536_);}
	.st164{clip-path:url(#SVGID_538_);}
	.st165{clip-path:url(#SVGID_542_);}
	.st166{clip-path:url(#SVGID_544_);}
	.st167{clip-path:url(#SVGID_548_);}
	.st168{clip-path:url(#SVGID_550_);}
	.st169{clip-path:url(#SVGID_554_);}
	.st170{clip-path:url(#SVGID_556_);}
	.st171{clip-path:url(#SVGID_560_);}
	.st172{clip-path:url(#SVGID_564_);}
	.st173{clip-path:url(#SVGID_568_);}
	.st174{clip-path:url(#SVGID_572_);}
	.st175{clip-path:url(#SVGID_576_);}
	.st176{clip-path:url(#SVGID_580_);}
	.st177{clip-path:url(#SVGID_584_);}
	.st178{clip-path:url(#SVGID_588_);}
	.st179{clip-path:url(#SVGID_592_);}
	.st180{clip-path:url(#SVGID_596_);}
	.st181{clip-path:url(#SVGID_600_);}
	.st182{clip-path:url(#SVGID_604_);}
	.st183{clip-path:url(#SVGID_608_);}
	.st184{clip-path:url(#SVGID_612_);}
	.st185{clip-path:url(#SVGID_616_);}
	.st186{clip-path:url(#SVGID_620_);}
	.st187{clip-path:url(#SVGID_624_);}
	.st188{clip-path:url(#SVGID_628_);}
	.st189{clip-path:url(#SVGID_632_);}
	.st190{clip-path:url(#SVGID_636_);}
	.st191{clip-path:url(#SVGID_640_);}
	.st192{clip-path:url(#SVGID_644_);}
	.st193{clip-path:url(#SVGID_648_);}
	.st194{clip-path:url(#SVGID_652_);}
	.st195{clip-path:url(#SVGID_656_);}
	.st196{clip-path:url(#SVGID_660_);}
	.st197{clip-path:url(#SVGID_664_);}
	.st198{clip-path:url(#SVGID_668_);}
	.st199{clip-path:url(#SVGID_672_);}
	.st200{clip-path:url(#SVGID_676_);}
	.st201{clip-path:url(#SVGID_680_);}
	.st202{clip-path:url(#SVGID_684_);}
	.st203{clip-path:url(#SVGID_688_);}
	.st204{clip-path:url(#SVGID_690_);}
	.st205{clip-path:url(#SVGID_694_);}
	.st206{clip-path:url(#SVGID_698_);}
	.st207{clip-path:url(#SVGID_700_);}
	.st208{clip-path:url(#SVGID_704_);}
	.st209{clip-path:url(#SVGID_708_);}
	.st210{clip-path:url(#SVGID_712_);}
	.st211{clip-path:url(#SVGID_716_);}
	.st212{clip-path:url(#SVGID_720_);}
	.st213{clip-path:url(#SVGID_724_);}
	.st214{clip-path:url(#SVGID_728_);}
	.st215{clip-path:url(#SVGID_732_);}
	.st216{clip-path:url(#SVGID_736_);}
	.st217{clip-path:url(#SVGID_740_);}
	.st218{clip-path:url(#SVGID_744_);}
	.st219{clip-path:url(#SVGID_748_);}
	.st220{clip-path:url(#SVGID_752_);}
	.st221{clip-path:url(#SVGID_756_);}
	.st222{clip-path:url(#SVGID_760_);}
	.st223{clip-path:url(#SVGID_764_);}
	.st224{clip-path:url(#SVGID_768_);}
	.st225{clip-path:url(#SVGID_772_);}
	.st226{clip-path:url(#SVGID_776_);}
	.st227{clip-path:url(#SVGID_780_);}
	.st228{clip-path:url(#SVGID_784_);}
	.st229{clip-path:url(#SVGID_788_);}
	.st230{clip-path:url(#SVGID_792_);}
	.st231{clip-path:url(#SVGID_796_);}
	.st232{clip-path:url(#SVGID_800_);}
	.st233{clip-path:url(#SVGID_804_);}
	.st234{clip-path:url(#SVGID_808_);}
	.st235{clip-path:url(#SVGID_812_);}
	.st236{clip-path:url(#SVGID_816_);}
	.st237{clip-path:url(#SVGID_820_);}
	.st238{clip-path:url(#SVGID_824_);}
	.st239{clip-path:url(#SVGID_828_);}
	.st240{clip-path:url(#SVGID_832_);}
	.st241{clip-path:url(#SVGID_836_);}
	.st242{clip-path:url(#SVGID_840_);}
	.st243{clip-path:url(#SVGID_844_);}
	.st244{clip-path:url(#SVGID_848_);}
	.st245{clip-path:url(#SVGID_852_);}
	.st246{clip-path:url(#SVGID_856_);}
	.st247{clip-path:url(#SVGID_860_);}
	.st248{clip-path:url(#SVGID_864_);}
	.st249{clip-path:url(#SVGID_868_);}
	.st250{clip-path:url(#SVGID_872_);}
	.st251{clip-path:url(#SVGID_876_);}
	.st252{clip-path:url(#SVGID_880_);}
	.st253{clip-path:url(#SVGID_884_);}
	.st254{clip-path:url(#SVGID_888_);}
	.st255{clip-path:url(#SVGID_892_);}
	.st256{clip-path:url(#SVGID_896_);}
	.st257{clip-path:url(#SVGID_900_);}
	.st258{clip-path:url(#SVGID_904_);}
	.st259{clip-path:url(#SVGID_908_);}
	.st260{clip-path:url(#SVGID_912_);}
	.st261{clip-path:url(#SVGID_916_);}
	.st262{clip-path:url(#SVGID_920_);}
	.st263{clip-path:url(#SVGID_922_);}
	.st264{clip-path:url(#SVGID_926_);}
	.st265{clip-path:url(#SVGID_930_);}
	.st266{clip-path:url(#SVGID_934_);}
	.st267{clip-path:url(#SVGID_938_);}
	.st268{clip-path:url(#SVGID_942_);}
	.st269{clip-path:url(#SVGID_946_);}
	.st270{clip-path:url(#SVGID_950_);}
	.st271{clip-path:url(#SVGID_954_);}
	.st272{clip-path:url(#SVGID_958_);}
	.st273{clip-path:url(#SVGID_962_);}
	.st274{clip-path:url(#SVGID_966_);}
	.st275{clip-path:url(#SVGID_970_);}
	.st276{clip-path:url(#SVGID_974_);}
	.st277{clip-path:url(#SVGID_976_);}
	.st278{clip-path:url(#SVGID_980_);}
	.st279{clip-path:url(#SVGID_982_);}
	.st280{clip-path:url(#SVGID_986_);}
	.st281{clip-path:url(#SVGID_990_);}
	.st282{clip-path:url(#SVGID_992_);}
	.st283{clip-path:url(#SVGID_996_);}
	.st284{clip-path:url(#SVGID_998_);}
	.st285{clip-path:url(#SVGID_1002_);}
	.st286{clip-path:url(#SVGID_1004_);}
	.st287{clip-path:url(#SVGID_1008_);}
	.st288{clip-path:url(#SVGID_1012_);}
	.st289{clip-path:url(#SVGID_1016_);}
	.st290{clip-path:url(#SVGID_1020_);}
	.st291{clip-path:url(#SVGID_1024_);}
	.st292{clip-path:url(#SVGID_1028_);fill:#FFFFFF;}
	.st293{fill:url(#SVGID_1030_);}
	.st294{fill:none;stroke:#002D73;stroke-width:0.859;stroke-miterlimit:10;}
	.st295{fill:#65797F;}
	.st296{fill:url(#SVGID_1032_);}
	.st297{fill-rule:evenodd;clip-rule:evenodd;fill:url(#SVGID_1033_);}
	.st298{fill:url(#SVGID_1034_);}
	.st299{fill:none;stroke:#002D73;stroke-linecap:round;stroke-miterlimit:10;}
	.st300{opacity:0.6;fill:url(#SVGID_1035_);}
	.st301{fill:url(#SVGID_1036_);}
	.st302{opacity:0.3;fill:#FFFFFF;}
	.st303{fill:none;stroke:#002D73;stroke-miterlimit:10;}
	.st304{opacity:0.6;fill:url(#SVGID_1037_);}
	.st305{fill:url(#SVGID_1038_);}
	.st306{fill:url(#SVGID_1039_);}
</style>
<symbol  id="New_Symbol" viewBox="-105.3 -71 210.7 141.5">
	<g>
		<defs>
			<polygon id="SVGID_4_" points="79,-71 -81,-71 -81,22 79,22 			"/>
		</defs>
		<clipPath id="SVGID_1_">
			<use xlink:href="#SVGID_4_"  style="overflow:visible;"/>
		</clipPath>
		<path style="clip-path:url(#SVGID_1_);fill:#FFFFFF;" d="M105.3,9c0-34-47.2-61.5-105.3-61.5S-105.3-25-105.3,9S-58.2,70.5,0,70.5
			S105.3,43,105.3,9z"/>
	</g>
	<g>
		<g>
			<g>
				<path class="st1" d="M-69.3-4.3c-0.1-0.5-0.3-1-0.3-1.5c-0.1-0.5-0.1-1-0.2-1.5c0-0.5,0-1.1,0-1.7c0-0.6,0-1.1,0-1.7
					c0-0.5,0.1-1,0.2-1.5c0.1-0.5,0.2-1,0.3-1.4c0.1-0.5,0.3-0.9,0.5-1.4l-0.2-0.3c-0.5,0.9-0.8,1.9-1.1,2.9
					c-0.2,1.1-0.4,2.2-0.4,3.4c0,0.6,0,1.1,0.1,1.7c0.1,0.6,0.2,1.1,0.3,1.7c0.1,0.5,0.3,1.1,0.5,1.6c0.2,0.5,0.4,1,0.6,1.4l0.2-0.3
					C-69-3.4-69.2-3.8-69.3-4.3z"/>
				<path class="st1" d="M-66.4-2.8c-0.1,0-0.2,0-0.3-0.1c-0.1-0.1-0.2-0.2-0.2-0.3C-67-3.4-67-3.6-67.1-3.8c0-0.2,0-0.4,0-0.6
					c0-0.2,0-0.4,0-0.8c0-0.3,0.1-0.7,0.1-1c0.2,0,0.3,0,0.5,0c0.2,0,0.3,0,0.5,0c0-0.1,0-0.1,0-0.2c0-0.1,0-0.1,0-0.2
					c0-0.1,0-0.1,0-0.2c0-0.1,0-0.1,0-0.2c-0.2,0-0.3,0-0.5,0c-0.2,0-0.3,0-0.5,0c0-1.1,0-2.2,0-3.3c0-1.1,0-2.2,0-3.3
					c-0.1,0-0.1,0-0.2,0c-0.1,0-0.1,0-0.2,0c-0.1,0-0.3,0-0.4,0c0,1.1,0.1,2.2,0.1,3.3c0,1.1,0,2.2,0,3.3c-0.1,0-0.2,0-0.3,0
					c-0.1,0-0.2,0-0.3,0c0,0.1,0,0.1,0,0.2c0,0.1,0,0.1,0,0.2c0,0.1,0,0.1,0,0.2c0,0.1,0,0.1,0,0.2c0.1,0,0.2,0,0.3,0
					c0.1,0,0.2,0,0.3,0c0,0.3,0,0.6,0.1,1c0,0.3,0.1,0.7,0.2,1c0.1,0.3,0.2,0.7,0.2,1c0.1,0.3,0.2,0.6,0.3,0.8
					c0.1,0.2,0.2,0.3,0.4,0.5c0.2,0.1,0.3,0.2,0.5,0.2c0.1,0,0.1,0,0.2,0c0-0.2,0-0.4,0-0.6c0-0.2,0-0.4,0-0.6l-0.1,0
					C-66-2.9-66.2-2.8-66.4-2.8z"/>
				<path class="st1" d="M-65.1-5c0,0.4,0,0.8,0,1.2c0,0.4,0,0.8,0,1.1c0,0.4,0,0.7,0,0.9c0.2-0.1,0.3-0.1,0.4-0.1
					c0.1,0,0.2,0,0.4,0.1c0-0.3,0-0.6,0-0.9c0-0.4,0-0.7,0-1.1c0-0.4,0-0.8,0-1.2c0-0.4,0-0.8,0-1.1v-2.8c0-0.3,0-0.7,0-1.1
					c0-0.4,0-0.8,0-1.2c0-0.4,0-0.8,0-1.1c0-0.4,0-0.7,0-0.9c-0.1,0-0.3,0-0.4,0c-0.1,0-0.3,0-0.4,0c0,0.2,0,0.5,0,0.9
					c0,0.4,0,0.7,0,1.1c0,0.4,0,0.8,0,1.2c0,0.4,0,0.8,0,1.1v2.8C-65.1-5.8-65.1-5.4-65.1-5z"/>
				<path class="st1" d="M-62.8-9.6c0,0.4,0,0.8,0,1.1c0,0.4,0,0.7,0,1.2c0,0.4,0,0.8,0,1.3c0.1-0.1,0.3-0.1,0.4-0.1
					c0.1,0,0.2,0,0.4,0.1c0-0.6-0.1-1.3-0.1-2c0-0.7,0-1.5,0-2.2c0-0.5,0-0.9,0.1-1.2c0.1-0.3,0.1-0.5,0.2-0.6
					c0.1-0.2,0.2-0.3,0.3-0.4c0.1-0.1,0.3-0.2,0.5-0.2c0.3,0,0.5,0.1,0.6,0.3c0.2,0.2,0.3,0.4,0.4,0.7c0,0.2,0.1,0.3,0.1,0.4
					c0,0.1,0,0.3,0.1,0.5c0,0.2,0,0.5,0,0.8c0,0.3,0,0.8,0,1.4v1.3c0,0.2,0,0.4,0,0.6c0,0.2,0,0.4,0,0.6c0.1,0,0.1,0,0.2-0.1
					c0.1,0,0.1,0,0.2,0c0.1,0,0.1,0,0.2,0c0.1,0,0.1,0,0.2,0.1c0-0.8,0-1.6-0.1-2.3c0-0.7,0-1.5,0-2.3c0-0.5,0-0.9,0-1.3
					c0-0.4,0-0.9,0-1.3c-0.1,0-0.2,0-0.4,0c-0.1,0-0.2,0-0.4,0c0,0.1,0,0.2,0,0.3c0,0.1,0,0.2,0,0.3v0.7h0c-0.2-0.5-0.4-0.8-0.6-1.1
					c-0.2-0.2-0.5-0.3-0.8-0.3c-0.5,0-0.8,0.2-1.1,0.6c-0.3,0.4-0.4,1-0.4,1.8C-62.8-10.4-62.8-10-62.8-9.6z"/>
				<path class="st1" d="M-57-4c0-0.4,0-0.8,0-1.1c0-0.4,0-0.7,0-1.1c0.1,0,0.2,0,0.4,0c0.2,0,0.4,0,0.6,0c0,0,0-0.1,0-0.2v-0.2
					v-0.2c0-0.1,0-0.1,0-0.2c-0.1,0-0.2,0-0.2,0c-0.1,0-0.2,0-0.3,0H-57c0,0,0-0.2,0-0.5c0-0.3,0-0.6,0-1c0-0.4,0-0.8,0-1.2
					c0-0.4,0-0.8,0-1.1c0-0.3,0-0.6,0-0.8c0-0.3,0-0.5,0.1-0.7c0-0.2,0.1-0.4,0.2-0.5c0.1-0.1,0.2-0.2,0.4-0.2c0,0,0.1,0,0.2,0
					c0.1,0,0.2,0,0.2,0.1v-0.4c-0.1,0-0.2-0.1-0.3-0.1c-0.1,0-0.2-0.1-0.4-0.1c-0.4,0-0.7,0.2-0.8,0.5c-0.2,0.3-0.3,0.8-0.3,1.4
					c0,0.3,0,0.6,0,0.9c0,0.3,0,0.7,0,1.1c0,0.4,0,0.8,0,1.3c0,0.5,0,1,0,1.5H-58c0,0-0.1,0-0.2,0c-0.1,0-0.1,0-0.2,0
					c0,0.1,0,0.1,0,0.2c0,0.1,0,0.1,0,0.2c0,0.1,0,0.1,0,0.2c0,0.1,0,0.1,0,0.2c0.3,0,0.5,0,0.6,0c0,0.2,0,0.5,0,0.8
					c0,0.3,0,0.6,0,0.9L-57-4L-57-4z"/>
				<path class="st1" d="M-55.1-2.8c0.1,0.2,0.2,0.2,0.3,0.2c0.1,0,0.2-0.1,0.3-0.2c0.1-0.2,0.1-0.3,0.1-0.5c0-0.2,0-0.4-0.1-0.5
					c-0.1-0.2-0.2-0.2-0.3-0.2c-0.1,0-0.2,0.1-0.3,0.2c-0.1,0.2-0.1,0.3-0.1,0.5C-55.2-3.2-55.1-3-55.1-2.8z M-55.1-7.4
					c0,0.5,0,1-0.1,1.4c0.2-0.1,0.3-0.1,0.4-0.1c0.1,0,0.2,0,0.4,0.1c0-0.4,0-0.9-0.1-1.4c0-0.5,0-1,0-1.4v-1.6c0-0.5,0-0.9,0-1.4
					c0-0.5,0-1,0.1-1.4c-0.1,0-0.3,0-0.4,0c-0.1,0-0.3,0-0.4,0c0,0.4,0,0.9,0.1,1.4c0,0.5,0,1,0,1.4v1.6
					C-55.1-8.4-55.1-7.9-55.1-7.4z"/>
				<path class="st1" d="M-52.9-8c0.1,0.5,0.3,0.9,0.5,1.2c0.2,0.3,0.5,0.5,0.7,0.7c0.3,0.1,0.6,0.2,0.8,0.2c0.3,0,0.6-0.1,0.9-0.2
					c0.3-0.1,0.4-0.3,0.6-0.5c0-0.2-0.1-0.3-0.1-0.5c0-0.2-0.1-0.3-0.1-0.5h-0.1c0,0.1-0.1,0.3-0.2,0.4C-49.9-7-50-6.9-50.1-6.8
					c-0.1,0.1-0.2,0.2-0.3,0.3c-0.1,0.1-0.3,0.1-0.4,0.1c-0.3,0-0.5-0.1-0.7-0.3C-51.7-6.8-51.8-7-52-7.3c-0.1-0.3-0.2-0.6-0.3-1
					c-0.1-0.4-0.1-0.8-0.1-1.3c0-1,0.1-1.8,0.4-2.4c0.3-0.5,0.7-0.8,1.2-0.8c0.1,0,0.2,0,0.4,0.1c0.1,0.1,0.2,0.1,0.4,0.2
					c0.1,0.1,0.2,0.2,0.3,0.3c0.1,0.1,0.2,0.3,0.3,0.4l0,0c0-0.2,0-0.5-0.1-0.7c-0.2-0.2-0.4-0.5-0.7-0.6c-0.3-0.2-0.5-0.3-0.8-0.3
					c-0.3,0-0.5,0.1-0.8,0.2c-0.3,0.1-0.5,0.3-0.7,0.6c-0.2,0.3-0.4,0.7-0.5,1.2c-0.1,0.5-0.2,1.1-0.2,1.8C-53.1-9-53-8.4-52.9-8z"
					/>
				<path class="st1" d="M-47.5-6.1c0.2,0.1,0.5,0.2,0.7,0.2c0.2,0,0.4-0.1,0.6-0.2c0.2-0.1,0.3-0.3,0.5-0.5
					c0.1-0.2,0.2-0.4,0.3-0.7c0.1-0.3,0.1-0.6,0.1-0.9c0-0.6,0-1.2,0-1.7c0-0.6,0-1.2,0-1.8c0-0.1,0-0.3,0-0.4c0-0.1,0-0.3,0-0.4
					c0-0.1,0.1-0.2,0.1-0.3c0-0.1,0.1-0.1,0.2-0.1c0,0,0.1,0,0.1,0c0,0,0.1,0,0.1,0.1v-0.3c-0.1-0.1-0.1-0.1-0.2-0.1
					c-0.1,0-0.2,0-0.3,0c-0.2,0-0.3,0.1-0.4,0.3c-0.1,0.2-0.2,0.4-0.2,0.6c-0.2-0.4-0.4-0.6-0.6-0.8c-0.2-0.2-0.5-0.3-0.8-0.3
					c-0.1,0-0.3,0-0.4,0.1c-0.1,0.1-0.3,0.2-0.4,0.4c-0.1,0.2-0.2,0.4-0.3,0.6c-0.1,0.2-0.1,0.5-0.1,0.8c0,0.6,0.1,1.1,0.3,1.4
					c0.2,0.3,0.5,0.6,0.9,0.7c0.3,0.1,0.6,0.2,0.8,0.2c0.2,0.1,0.3,0.1,0.4,0.2C-46.1-9-46-8.9-46-8.8c0,0.1,0,0.2,0,0.4
					c0,0.3,0,0.5-0.1,0.7c0,0.2-0.1,0.4-0.2,0.6c-0.1,0.2-0.2,0.3-0.3,0.4c-0.1,0.1-0.3,0.2-0.5,0.2c-0.2,0-0.5-0.1-0.7-0.3
					C-47.9-7-48-7.2-48.1-7.6h-0.1v0.8C-48-6.4-47.7-6.2-47.5-6.1z M-46.4-9.6c-0.1,0-0.3-0.1-0.4-0.1c-0.1,0-0.3-0.1-0.4-0.2
					c-0.1-0.1-0.3-0.2-0.4-0.3c-0.1-0.1-0.2-0.3-0.3-0.5c-0.1-0.2-0.1-0.4-0.1-0.7c0-0.5,0.1-0.8,0.2-1.1c0.2-0.2,0.3-0.4,0.5-0.4
					c0.2,0,0.4,0.1,0.6,0.3c0.2,0.2,0.3,0.5,0.4,0.7l0,2.3C-46.1-9.5-46.2-9.6-46.4-9.6z"/>
				<path class="st1" d="M-43.7-12.2c0.1-0.1,0.1-0.2,0.2-0.3c0.1-0.1,0.2-0.2,0.3-0.3c0.1-0.1,0.2-0.1,0.4-0.1c0.1,0,0.2,0,0.3,0.1
					c0.1,0.1,0.2,0.1,0.3,0.3c0.1,0.1,0.1,0.3,0.2,0.4c0,0.2,0.1,0.4,0.1,0.6c0,0.3-0.1,0.6-0.2,0.7c-0.1,0.2-0.2,0.3-0.4,0.4
					c-0.2,0.1-0.3,0.2-0.5,0.3c-0.2,0.1-0.4,0.2-0.5,0.3c-0.2,0.1-0.3,0.3-0.4,0.6c-0.1,0.2-0.2,0.6-0.2,1c0,0.3,0,0.6,0.1,0.9
					c0.1,0.3,0.2,0.5,0.3,0.7c0.1,0.2,0.3,0.4,0.5,0.5c0.2,0.1,0.4,0.2,0.6,0.2c0.2,0,0.4-0.1,0.6-0.2c0.2-0.1,0.3-0.2,0.4-0.3
					c0-0.2-0.1-0.3-0.1-0.6c0-0.2-0.1-0.4-0.1-0.5h-0.1c0,0.2-0.1,0.5-0.3,0.7c-0.1,0.2-0.3,0.3-0.5,0.3c-0.1,0-0.2,0-0.3-0.1
					c-0.1-0.1-0.2-0.1-0.2-0.2c-0.1-0.1-0.1-0.2-0.2-0.4c0-0.2-0.1-0.4-0.1-0.6c0-0.3,0.1-0.6,0.2-0.8c0.1-0.2,0.2-0.3,0.4-0.4
					c0.2-0.1,0.3-0.2,0.5-0.3c0.2-0.1,0.4-0.2,0.5-0.3c0.2-0.1,0.3-0.3,0.4-0.6c0.1-0.2,0.2-0.6,0.2-1c0-0.3,0-0.6-0.1-0.9
					c-0.1-0.3-0.2-0.5-0.3-0.8c-0.1-0.2-0.3-0.4-0.5-0.5c-0.2-0.1-0.4-0.2-0.7-0.2c-0.3,0-0.5,0-0.7,0.1c-0.2,0.1-0.3,0.2-0.5,0.3
					c0,0.1,0.1,0.3,0.1,0.5c0,0.2,0.1,0.4,0.1,0.6h0.1C-43.8-12-43.8-12.1-43.7-12.2z"/>
				<path class="st1" d="M-40.5-7.9c0.1,0.5,0.3,0.9,0.5,1.2c0.2,0.3,0.4,0.5,0.7,0.7c0.3,0.1,0.5,0.2,0.8,0.2
					c0.3,0,0.5-0.1,0.8-0.2c0.3-0.1,0.5-0.4,0.7-0.7c0.2-0.3,0.4-0.7,0.5-1.2c0.1-0.5,0.2-1.1,0.2-1.8c0-0.7-0.1-1.3-0.2-1.8
					c-0.1-0.5-0.3-0.9-0.5-1.2c-0.2-0.3-0.4-0.5-0.7-0.6c-0.3-0.1-0.5-0.2-0.8-0.2c-0.3,0-0.5,0.1-0.8,0.2c-0.3,0.1-0.5,0.3-0.7,0.6
					c-0.2,0.3-0.4,0.7-0.5,1.2c-0.1,0.5-0.2,1.1-0.2,1.8C-40.7-9-40.6-8.4-40.5-7.9z M-39.8-10.9c0-0.4,0.1-0.7,0.2-1.1
					c0.1-0.3,0.3-0.6,0.4-0.7c0.2-0.2,0.4-0.3,0.7-0.3c0.3,0,0.5,0.1,0.7,0.3c0.2,0.2,0.3,0.4,0.4,0.7c0.1,0.3,0.2,0.7,0.2,1.1
					c0,0.4,0.1,0.8,0.1,1.2c0,0.4,0,0.8-0.1,1.2c0,0.4-0.1,0.7-0.2,1.1c-0.1,0.3-0.3,0.6-0.4,0.7c-0.2,0.2-0.4,0.3-0.7,0.3
					c-0.3,0-0.5-0.1-0.7-0.3c-0.2-0.2-0.3-0.4-0.4-0.7c-0.1-0.3-0.2-0.7-0.2-1.1c0-0.4-0.1-0.8-0.1-1.2
					C-39.9-10.1-39.9-10.5-39.8-10.9z"/>
				<path class="st1" d="M-32.6-7.3c-0.2,0.4-0.4,0.6-0.7,0.6c-0.4,0-0.7-0.2-0.9-0.7c-0.2-0.4-0.3-1.1-0.3-1.8v-1.3
					c0-0.5,0-0.9,0-1.4c0-0.5,0-1,0.1-1.4c-0.1,0-0.3,0-0.4,0c-0.1,0-0.3,0-0.4,0c0,0.4,0,0.9,0.1,1.4c0,0.5,0,1,0,1.4v1.6
					c0,0.5,0,0.9,0,1.4c0,0.5,0,1-0.1,1.4c0.2-0.1,0.3-0.1,0.4-0.1c0,0,0.1,0,0.2,0c0.1,0,0.1,0,0.2,0.1c0-0.4,0-0.8,0-1.2h0
					c0.2,0.4,0.4,0.8,0.6,1c0.2,0.2,0.5,0.4,0.8,0.4c0.2,0,0.3,0,0.5-0.1c0.2-0.1,0.3-0.2,0.5-0.4c0.1-0.2,0.3-0.5,0.3-0.8
					c0.1-0.3,0.1-0.8,0.1-1.3c0-0.4,0-0.9,0-1.3c0-0.5,0-1,0-1.5v-1c0-0.2,0-0.3,0-0.5c0-0.2,0-0.3,0-0.4c-0.1,0-0.2,0-0.4,0
					c-0.1,0-0.3,0-0.4,0c0,0.5,0,1.1,0,1.6c0,0.6,0,1.1,0,1.7V-9C-32.4-8.2-32.5-7.6-32.6-7.3z"/>
				<path class="st1" d="M-30.2-6.9c0.4,0.7,0.9,1.1,1.5,1.1c0.3,0,0.6-0.1,0.8-0.3c0.2-0.2,0.4-0.4,0.6-0.7c0.2-0.3,0.3-0.6,0.3-1
					c0.1-0.4,0.1-0.8,0.1-1.2c0-0.1,0-0.2,0-0.3c0-0.1,0-0.2,0-0.3c-0.3,0-0.6,0-1,0c-0.3,0-0.6,0-1,0c-0.2,0-0.4,0-0.6,0
					c-0.2,0-0.4,0-0.6,0c0-0.1,0-0.1,0-0.2V-10c0-0.4,0-0.8,0.1-1.1c0.1-0.3,0.2-0.6,0.3-0.9c0.1-0.2,0.3-0.4,0.5-0.6
					c0.2-0.1,0.4-0.2,0.7-0.2c0.1,0,0.2,0,0.4,0.1c0.1,0.1,0.2,0.1,0.4,0.2c0.1,0.1,0.2,0.2,0.3,0.3c0.1,0.1,0.2,0.3,0.3,0.4l0,0
					l-0.1-0.7c-0.2-0.2-0.4-0.5-0.7-0.6c-0.3-0.2-0.5-0.3-0.8-0.3c-0.3,0-0.6,0.1-0.9,0.3c-0.3,0.2-0.5,0.4-0.7,0.7
					c-0.2,0.3-0.3,0.7-0.4,1.1c-0.1,0.4-0.2,0.9-0.2,1.4C-30.7-8.6-30.5-7.7-30.2-6.9z M-29.2-6.6c-0.2-0.2-0.3-0.4-0.4-0.6
					c-0.1-0.3-0.2-0.5-0.2-0.9c-0.1-0.3-0.1-0.6-0.1-0.9c0.2,0,0.4,0,0.6,0c0.2,0,0.4,0,0.6,0c0.2,0,0.4,0,0.6,0c0.2,0,0.4,0,0.6,0
					c0,0.3,0,0.6,0,0.9c0,0.3-0.1,0.6-0.2,0.9C-27.8-7-27.9-6.8-28-6.6c-0.1,0.2-0.3,0.3-0.6,0.3C-28.8-6.4-29-6.5-29.2-6.6z"/>
				<path class="st1" d="M-21.9-2.8c-0.1,0-0.2,0-0.3-0.1c-0.1-0.1-0.2-0.2-0.2-0.3c-0.1-0.1-0.1-0.3-0.1-0.5c0-0.2,0-0.4,0-0.6
					c0-0.2,0-0.4,0-0.8c0-0.3,0.1-0.7,0.1-1c0.2,0,0.3,0,0.5,0c0.2,0,0.3,0,0.5,0c0-0.1,0-0.1,0-0.2c0-0.1,0-0.1,0-0.2
					c0-0.1,0-0.1,0-0.2c0-0.1,0-0.1,0-0.2c-0.2,0-0.3,0-0.5,0c-0.2,0-0.3,0-0.5,0c0-1.1,0-2.2,0-3.3c0-1.1,0-2.2,0-3.3
					c-0.1,0-0.1,0-0.2,0c-0.1,0-0.1,0-0.2,0c-0.1,0-0.3,0-0.4,0c0,1.1,0.1,2.2,0.1,3.3c0,1.1,0,2.2,0,3.3c-0.1,0-0.2,0-0.3,0
					c-0.1,0-0.2,0-0.3,0c0,0.1,0,0.1,0,0.2c0,0.1,0,0.1,0,0.2c0,0.1,0,0.1,0,0.2c0,0.1,0,0.1,0,0.2c0.1,0,0.2,0,0.3,0
					c0.1,0,0.2,0,0.3,0c0,0.3,0,0.6,0.1,1c0,0.3,0.1,0.7,0.2,1c0.1,0.3,0.2,0.7,0.2,1c0.1,0.3,0.2,0.6,0.3,0.8
					c0.1,0.2,0.2,0.3,0.4,0.5c0.2,0.1,0.3,0.2,0.5,0.2c0.1,0,0.1,0,0.2,0c0-0.2,0-0.4,0-0.6c0-0.2,0-0.4,0-0.6l-0.1,0
					C-21.6-2.9-21.7-2.8-21.9-2.8z"/>
				<path class="st1" d="M-20.8-9.6c0,0.4,0,0.8,0,1.1c0,0.4,0,0.7,0,1.2c0,0.4,0,0.8,0,1.3c0.1-0.1,0.3-0.1,0.4-0.1
					c0.1,0,0.2,0,0.4,0.1c0-0.6-0.1-1.3-0.1-2c0-0.7,0-1.5,0-2.2c0-0.5,0-0.9,0.1-1.2c0.1-0.3,0.1-0.5,0.2-0.6
					c0.1-0.2,0.2-0.3,0.3-0.4c0.1-0.1,0.3-0.2,0.5-0.2c0.3,0,0.5,0.1,0.6,0.3c0.2,0.2,0.3,0.4,0.4,0.7c0,0.2,0.1,0.3,0.1,0.4
					c0,0.1,0,0.3,0.1,0.5c0,0.2,0,0.5,0,0.8c0,0.3,0,0.8,0,1.4v1.3c0,0.2,0,0.4,0,0.6c0,0.2,0,0.4,0,0.6c0.1,0,0.1,0,0.2-0.1
					c0.1,0,0.1,0,0.2,0c0.1,0,0.1,0,0.2,0c0.1,0,0.1,0,0.2,0.1c0-0.8,0-1.6-0.1-2.3c0-0.7,0-1.5,0-2.3c0-0.5,0-0.9,0-1.3
					c0-0.4,0-0.9,0-1.3c-0.1,0-0.2,0-0.4,0s-0.2,0-0.4,0c0,0.1,0,0.2,0,0.3c0,0.1,0,0.2,0,0.3v0.7h0c-0.2-0.5-0.4-0.8-0.6-1.1
					c-0.2-0.2-0.5-0.3-0.8-0.3c-0.5,0-0.8,0.2-1.1,0.6c-0.3,0.4-0.4,1-0.4,1.8C-20.8-10.4-20.8-10-20.8-9.6z"/>
				<path class="st1" d="M-13.9-7.1C-14-7.1-14.1-7-14.2-7c-0.1,0-0.3-0.1-0.4-0.2c-0.1-0.1-0.2-0.3-0.3-0.4
					C-15-7.8-15-8.1-15.1-8.3c0-0.3-0.1-0.5-0.1-0.8v-1.7c0-0.7,0-1.2,0-1.6c0-0.4,0-0.7,0-0.9c-0.1,0-0.2,0-0.4,0
					c-0.1,0-0.3,0-0.4,0c0,0.3,0,0.8,0,1.4c0,0.6,0,1.3,0,2.2v0.5c0,0.4,0,0.9,0,1.4c0,0.5,0,1.1,0,1.8c0.1,0,0.1,0,0.2-0.1
					c0.1,0,0.1,0,0.2,0c0.1,0,0.1,0,0.2,0c0.1,0,0.1,0,0.2,0.1c0-0.4,0-0.7,0-0.9c0-0.2,0-0.4,0-0.6l0,0c0.4,1.1,0.7,1.6,1.2,1.6
					c0.1,0,0.1,0,0.1,0c0,0,0.1,0,0.1-0.1c0-0.1,0-0.3-0.1-0.6c0-0.2,0-0.5,0-0.7l-0.1-0.1C-13.8-7.2-13.9-7.2-13.9-7.1z"/>
				<path class="st1" d="M-13-7.9c0.1,0.5,0.3,0.9,0.5,1.2c0.2,0.3,0.4,0.5,0.7,0.7c0.3,0.1,0.5,0.2,0.8,0.2c0.3,0,0.5-0.1,0.8-0.2
					c0.3-0.1,0.5-0.4,0.7-0.7C-9.3-7-9.2-7.4-9-7.9C-8.9-8.4-8.8-9-8.8-9.7c0-0.7-0.1-1.3-0.2-1.8c-0.1-0.5-0.3-0.9-0.5-1.2
					c-0.2-0.3-0.4-0.5-0.7-0.6c-0.3-0.1-0.5-0.2-0.8-0.2c-0.3,0-0.5,0.1-0.8,0.2c-0.3,0.1-0.5,0.3-0.7,0.6c-0.2,0.3-0.4,0.7-0.5,1.2
					c-0.1,0.5-0.2,1.1-0.2,1.8C-13.2-9-13.1-8.4-13-7.9z M-12.3-10.9c0-0.4,0.1-0.7,0.2-1.1c0.1-0.3,0.3-0.6,0.4-0.7
					c0.2-0.2,0.4-0.3,0.7-0.3c0.3,0,0.5,0.1,0.7,0.3c0.2,0.2,0.3,0.4,0.4,0.7c0.1,0.3,0.2,0.7,0.2,1.1c0,0.4,0.1,0.8,0.1,1.2
					c0,0.4,0,0.8-0.1,1.2c0,0.4-0.1,0.7-0.2,1.1c-0.1,0.3-0.3,0.6-0.4,0.7c-0.2,0.2-0.4,0.3-0.7,0.3c-0.3,0-0.5-0.1-0.7-0.3
					c-0.2-0.2-0.3-0.4-0.4-0.7c-0.1-0.3-0.2-0.7-0.2-1.1c0-0.4-0.1-0.8-0.1-1.2C-12.4-10.1-12.4-10.5-12.3-10.9z"/>
				<path class="st1" d="M-7-6.1c0.2,0.1,0.5,0.2,0.7,0.2c0.2,0,0.4-0.1,0.6-0.2c0.2-0.1,0.3-0.3,0.5-0.5C-5.1-6.7-5-6.9-4.9-7.2
					c0.1-0.3,0.1-0.6,0.1-0.9c0-0.6,0-1.2,0-1.7c0-0.6,0-1.2,0-1.8c0-0.1,0-0.3,0-0.4c0-0.1,0-0.3,0-0.4c0-0.1,0.1-0.2,0.1-0.3
					c0-0.1,0.1-0.1,0.2-0.1c0,0,0.1,0,0.1,0c0,0,0.1,0,0.1,0.1v-0.3c-0.1-0.1-0.1-0.1-0.2-0.1c-0.1,0-0.2,0-0.3,0
					c-0.2,0-0.3,0.1-0.4,0.3c-0.1,0.2-0.2,0.4-0.2,0.6C-5.8-12.7-6-13-6.2-13.2c-0.2-0.2-0.5-0.3-0.8-0.3c-0.1,0-0.3,0-0.4,0.1
					c-0.1,0.1-0.3,0.2-0.4,0.4C-7.9-12.8-8-12.6-8-12.4c-0.1,0.2-0.1,0.5-0.1,0.8c0,0.6,0.1,1.1,0.3,1.4c0.2,0.3,0.5,0.6,0.9,0.7
					c0.3,0.1,0.6,0.2,0.8,0.2c0.2,0.1,0.3,0.1,0.4,0.2C-5.6-9-5.6-8.9-5.6-8.8c0,0.1,0,0.2,0,0.4c0,0.3,0,0.5-0.1,0.7
					c0,0.2-0.1,0.4-0.2,0.6c-0.1,0.2-0.2,0.3-0.3,0.4c-0.1,0.1-0.3,0.2-0.5,0.2c-0.2,0-0.5-0.1-0.7-0.3C-7.4-7-7.6-7.2-7.7-7.6h-0.1
					v0.8C-7.5-6.4-7.2-6.2-7-6.1z M-5.9-9.6c-0.1,0-0.3-0.1-0.4-0.1c-0.1,0-0.3-0.1-0.4-0.2C-6.8-10-7-10.1-7.1-10.2
					c-0.1-0.1-0.2-0.3-0.3-0.5c-0.1-0.2-0.1-0.4-0.1-0.7c0-0.5,0.1-0.8,0.2-1.1c0.2-0.2,0.3-0.4,0.5-0.4c0.2,0,0.4,0.1,0.6,0.3
					c0.2,0.2,0.3,0.5,0.4,0.7l0,2.3C-5.6-9.5-5.7-9.6-5.9-9.6z"/>
				<path class="st1" d="M-2.5-4c0-0.4,0-0.8,0-1.1c0-0.4,0-0.7,0-1.1c0.1,0,0.2,0,0.4,0c0.2,0,0.4,0,0.6,0c0,0,0-0.1,0-0.2v-0.2
					v-0.2c0-0.1,0-0.1,0-0.2c-0.1,0-0.2,0-0.2,0c-0.1,0-0.2,0-0.3,0h-0.4c0,0,0-0.2,0-0.5c0-0.3,0-0.6,0-1c0-0.4,0-0.8,0-1.2
					c0-0.4,0-0.8,0-1.1c0-0.3,0-0.6,0-0.8c0-0.3,0-0.5,0.1-0.7c0-0.2,0.1-0.4,0.2-0.5c0.1-0.1,0.2-0.2,0.4-0.2c0,0,0.1,0,0.2,0
					c0.1,0,0.2,0,0.2,0.1v-0.4c-0.1,0-0.2-0.1-0.3-0.1c-0.1,0-0.2-0.1-0.4-0.1c-0.4,0-0.7,0.2-0.8,0.5c-0.2,0.3-0.3,0.8-0.3,1.4
					c0,0.3,0,0.6,0,0.9c0,0.3,0,0.7,0,1.1c0,0.4,0,0.8,0,1.3c0,0.5,0,1,0,1.5h-0.3c0,0-0.1,0-0.2,0c-0.1,0-0.1,0-0.2,0
					c0,0.1,0,0.1,0,0.2c0,0.1,0,0.1,0,0.2c0,0.1,0,0.1,0,0.2c0,0.1,0,0.1,0,0.2c0.3,0,0.5,0,0.6,0c0,0.2,0,0.5,0,0.8
					c0,0.3,0,0.6,0,0.9L-2.5-4L-2.5-4z"/>
				<path class="st1" d="M-0.7-6.9c0.4,0.7,0.9,1.1,1.5,1.1c0.3,0,0.6-0.1,0.8-0.3c0.2-0.2,0.4-0.4,0.6-0.7c0.2-0.3,0.3-0.6,0.3-1
					C2.7-8.2,2.7-8.6,2.7-9c0-0.1,0-0.2,0-0.3c0-0.1,0-0.2,0-0.3c-0.3,0-0.6,0-1,0c-0.3,0-0.6,0-1,0c-0.2,0-0.4,0-0.6,0
					c-0.2,0-0.4,0-0.6,0c0-0.1,0-0.1,0-0.2V-10c0-0.4,0-0.8,0.1-1.1c0.1-0.3,0.2-0.6,0.3-0.9c0.1-0.2,0.3-0.4,0.5-0.6
					c0.2-0.1,0.4-0.2,0.7-0.2c0.1,0,0.2,0,0.4,0.1c0.1,0.1,0.2,0.1,0.4,0.2c0.1,0.1,0.2,0.2,0.3,0.3c0.1,0.1,0.2,0.3,0.3,0.4l0,0
					l-0.1-0.7c-0.2-0.2-0.4-0.5-0.7-0.6c-0.3-0.2-0.5-0.3-0.8-0.3c-0.3,0-0.6,0.1-0.9,0.3c-0.3,0.2-0.5,0.4-0.7,0.7
					c-0.2,0.3-0.3,0.7-0.4,1.1c-0.1,0.4-0.2,0.9-0.2,1.4C-1.2-8.6-1-7.7-0.7-6.9z M0.3-6.6C0.2-6.8,0-7-0.1-7.3
					c-0.1-0.3-0.2-0.5-0.2-0.9C-0.3-8.4-0.4-8.7-0.4-9C-0.2-9,0-9,0.2-9c0.2,0,0.4,0,0.6,0C1-9,1.2-9,1.4-9C1.6-9,1.8-9,2-9
					c0,0.3,0,0.6,0,0.9c0,0.3-0.1,0.6-0.2,0.9C1.7-7,1.6-6.8,1.4-6.6C1.3-6.5,1.1-6.4,0.9-6.4C0.6-6.4,0.5-6.5,0.3-6.6z"/>
			</g>
			<g>
				<path class="st1" d="M5.5-5C5.4-4.8,5.4-4.6,5.2-4.5v0.1c0.3,0.2,0.7,0.5,1,0.8c0.4,0.3,0.7,0.6,1,0.8l0.1-0.1
					c0-0.7,0-1.3-0.1-2c0-0.7,0-1.3,0-2v-2.5c0-0.7,0-1.3,0-2c0-0.6,0-1.3,0.1-1.9c-0.1,0-0.1,0-0.2,0c-0.1,0-0.1,0-0.2,0
					c-0.1,0-0.1,0-0.2,0c-0.1,0-0.1,0-0.2,0c0,0.6,0,1.3,0.1,1.9c0,0.6,0,1.3,0,2V-4L5.5-5z"/>
			</g>
			<g>
				<path class="st1" d="M8.8-6.1C8.8-5.4,9-4.9,9.1-4.4c0.2,0.5,0.4,0.9,0.7,1.1c0.3,0.3,0.6,0.4,1,0.4c0.4,0,0.8-0.1,1.1-0.4
					c0.3-0.3,0.5-0.7,0.6-1.1c0.2-0.5,0.3-1,0.3-1.7c0.1-0.6,0.1-1.3,0.1-2.1c0-0.7,0-1.4-0.1-2c-0.1-0.6-0.2-1.2-0.4-1.7
					c-0.2-0.5-0.4-0.9-0.7-1.2c-0.3-0.3-0.6-0.4-0.9-0.4c-0.4,0-0.8,0.1-1.1,0.4c-0.3,0.3-0.5,0.6-0.6,1.1c-0.2,0.5-0.3,1-0.3,1.7
					C8.7-9.6,8.7-8.9,8.7-8.1C8.7-7.4,8.7-6.7,8.8-6.1z M9.5-10c0-0.6,0.1-1.1,0.2-1.5c0.1-0.4,0.2-0.8,0.4-1
					c0.2-0.2,0.4-0.4,0.6-0.4c0.3,0,0.5,0.1,0.6,0.4c0.2,0.2,0.3,0.6,0.4,1c0.1,0.4,0.2,0.9,0.2,1.5c0,0.6,0.1,1.2,0.1,1.9
					c0,0.7,0,1.3-0.1,1.9c0,0.6-0.1,1.1-0.2,1.5c-0.1,0.4-0.2,0.8-0.4,1c-0.2,0.2-0.4,0.4-0.6,0.4c-0.3,0-0.5-0.1-0.6-0.3
					c-0.2-0.2-0.3-0.6-0.4-1C9.6-5,9.5-5.5,9.5-6.1c0-0.6-0.1-1.3-0.1-2C9.4-8.8,9.4-9.5,9.5-10z"/>
			</g>
			<g>
				<path class="st1" d="M14.1-6.1c0.1,0.6,0.2,1.2,0.4,1.7c0.2,0.5,0.4,0.9,0.7,1.1c0.3,0.3,0.6,0.4,1,0.4c0.4,0,0.8-0.1,1.1-0.4
					c0.3-0.3,0.5-0.7,0.6-1.1c0.2-0.5,0.3-1,0.3-1.7c0.1-0.6,0.1-1.3,0.1-2.1c0-0.7,0-1.4-0.1-2c-0.1-0.6-0.2-1.2-0.4-1.7
					c-0.2-0.5-0.4-0.9-0.7-1.2c-0.3-0.3-0.6-0.4-0.9-0.4c-0.4,0-0.8,0.1-1.1,0.4c-0.3,0.3-0.5,0.6-0.6,1.1c-0.2,0.5-0.3,1-0.3,1.7
					C14.1-9.6,14-8.9,14-8.1C14-7.4,14.1-6.7,14.1-6.1z M14.8-10c0-0.6,0.1-1.1,0.2-1.5c0.1-0.4,0.2-0.8,0.4-1
					c0.2-0.2,0.4-0.4,0.6-0.4c0.3,0,0.5,0.1,0.6,0.4c0.2,0.2,0.3,0.6,0.4,1c0.1,0.4,0.2,0.9,0.2,1.5c0,0.6,0.1,1.2,0.1,1.9
					c0,0.7,0,1.3-0.1,1.9c0,0.6-0.1,1.1-0.2,1.5c-0.1,0.4-0.2,0.8-0.4,1c-0.2,0.2-0.4,0.4-0.6,0.4c-0.3,0-0.5-0.1-0.6-0.3
					c-0.2-0.2-0.3-0.6-0.4-1c-0.1-0.4-0.2-0.9-0.2-1.5c0-0.6-0.1-1.3-0.1-2C14.8-8.8,14.8-9.5,14.8-10z"/>
			</g>
			<g>
				<path class="st1" d="M21.3-7.4c0,0.5,0,1-0.1,1.4c0.2-0.1,0.3-0.1,0.4-0.1c0,0,0.1,0,0.2,0c0.1,0,0.1,0,0.2,0.1
					c0-0.4,0-0.8,0-1.2h0c0.3,0.9,0.8,1.4,1.3,1.4c0.1,0,0.3,0,0.4-0.1c0.1-0.1,0.3-0.2,0.4-0.3c0.1-0.1,0.2-0.3,0.3-0.5
					c0.1-0.2,0.1-0.4,0.2-0.6h0c0.1,0.5,0.3,0.9,0.6,1.1c0.2,0.3,0.5,0.4,0.9,0.4c0.2,0,0.4,0,0.6-0.1c0.2-0.1,0.3-0.2,0.4-0.4
					c0.1-0.2,0.2-0.4,0.3-0.7c0.1-0.3,0.1-0.7,0.1-1.1c0-0.2,0-0.4,0-0.6c0-0.2,0-0.4,0-0.7c0-0.3,0-0.6,0-0.9c0-0.3,0-0.7,0-1.2
					c0-0.3,0-0.5,0-0.8c0-0.3,0-0.5,0-0.8c-0.1,0-0.1,0-0.2,0c-0.1,0-0.1,0-0.2,0c-0.1,0-0.1,0-0.2,0c-0.1,0-0.1,0-0.2,0
					c0,0.3,0,0.8,0.1,1.5c0,0.8,0,1.8,0,3.2c0,0.3,0,0.5,0,0.7c0,0.2-0.1,0.4-0.2,0.6c-0.1,0.2-0.2,0.3-0.3,0.4
					c-0.1,0.1-0.3,0.1-0.5,0.1c-0.2,0-0.4-0.1-0.6-0.2C25.1-7,25-7.2,24.9-7.4c0-0.1-0.1-0.2-0.1-0.3c0-0.1,0-0.3-0.1-0.5
					c0-0.2,0-0.5,0-1c0-0.4,0-1,0-1.7c0-0.4,0-0.8,0-1.2c0-0.4,0-0.8,0-1.2c-0.1,0-0.3,0-0.4,0c-0.1,0-0.3,0-0.4,0
					c0,0.6,0,1.1,0.1,1.7c0,0.6,0,1.1,0,1.7c0,0.5,0,0.9,0,1.1c0,0.3,0,0.5,0,0.6c0,0.2,0,0.3,0,0.4c0,0.1,0,0.2-0.1,0.3
					c-0.1,0.2-0.2,0.4-0.3,0.5c-0.1,0.1-0.3,0.2-0.4,0.2c-0.4,0-0.7-0.2-0.9-0.7C22.1-7.8,22-8.4,22-9.2v-1.3c0-0.5,0-0.9,0-1.4
					c0-0.5,0-1,0.1-1.4c-0.1,0-0.3,0-0.4,0c-0.1,0-0.3,0-0.4,0c0,0.4,0,0.9,0.1,1.4c0,0.5,0,1,0,1.4v1.6C21.3-8.4,21.3-7.9,21.3-7.4
					z"/>
				<path class="st1" d="M28.7-8c0.1,0.5,0.3,0.9,0.5,1.2c0.2,0.3,0.5,0.5,0.7,0.7c0.3,0.1,0.6,0.2,0.8,0.2c0.3,0,0.6-0.1,0.9-0.2
					c0.3-0.1,0.4-0.3,0.6-0.5c0-0.2-0.1-0.3-0.1-0.5c0-0.2-0.1-0.3-0.1-0.5H32c0,0.1-0.1,0.3-0.2,0.4c-0.1,0.1-0.2,0.3-0.3,0.4
					c-0.1,0.1-0.2,0.2-0.3,0.3c-0.1,0.1-0.3,0.1-0.4,0.1c-0.3,0-0.5-0.1-0.7-0.3c-0.2-0.2-0.4-0.4-0.5-0.7c-0.1-0.3-0.2-0.6-0.3-1
					c-0.1-0.4-0.1-0.8-0.1-1.3c0-1,0.1-1.8,0.4-2.4c0.3-0.5,0.7-0.8,1.2-0.8c0.1,0,0.2,0,0.4,0.1c0.1,0.1,0.2,0.1,0.4,0.2
					c0.1,0.1,0.2,0.2,0.3,0.3c0.1,0.1,0.2,0.3,0.3,0.4l0,0c0-0.2,0-0.5-0.1-0.7c-0.2-0.2-0.4-0.5-0.7-0.6c-0.3-0.2-0.5-0.3-0.8-0.3
					c-0.3,0-0.5,0.1-0.8,0.2c-0.3,0.1-0.5,0.3-0.7,0.6c-0.2,0.3-0.4,0.7-0.5,1.2c-0.1,0.5-0.2,1.1-0.2,1.8C28.5-9,28.6-8.4,28.7-8z"
					/>
				<path class="st1" d="M33.2-7.3c0.1,0.3,0.2,0.6,0.4,0.8c0.2,0.2,0.3,0.4,0.5,0.5c0.2,0.1,0.4,0.2,0.7,0.2c0.1,0,0.2,0,0.3,0
					c0.1,0,0.2,0,0.4,0c0.1,0,0.3,0,0.4,0c0.1,0,0.2,0,0.3,0c0.3,0,0.6,0,0.7,0.1c0-0.1,0-0.1,0-0.2c0-0.1,0-0.1,0-0.2
					c0-0.1,0-0.1,0-0.2c0-0.1,0-0.1,0-0.2c-0.2,0-0.3,0-0.5,0.1c-0.2,0-0.3,0-0.5,0.1l0,0c0.2-0.2,0.3-0.4,0.4-0.8
					c0.1-0.4,0.2-0.7,0.2-1.1c0-0.8-0.2-1.4-0.5-1.8c-0.3-0.4-0.7-0.6-1.2-0.6c-0.1,0-0.2,0-0.2,0c-0.1,0-0.2,0-0.2,0
					c-0.1,0-0.2-0.1-0.3-0.2c-0.1-0.1-0.1-0.3-0.1-0.5c0-0.3,0-0.5,0.1-0.6c0.1-0.1,0.2-0.2,0.4-0.2c0.2,0,0.3,0,0.5,0
					c0.2,0,0.3,0,0.5,0c0.3,0,0.5-0.1,0.7-0.2c0.2-0.1,0.4-0.2,0.5-0.4c0.1-0.2,0.2-0.4,0.3-0.6c0.1-0.2,0.1-0.5,0.1-0.7
					c0-0.4,0-0.7-0.1-1.1c-0.1-0.4-0.2-0.7-0.4-1c-0.2-0.3-0.4-0.5-0.7-0.7c-0.3-0.2-0.6-0.3-1-0.3c-0.6,0-1,0.2-1.4,0.6
					c-0.3,0.4-0.5,0.9-0.5,1.6c0,0.3,0,0.5,0.1,0.7c0.1,0.2,0.1,0.4,0.2,0.6c0.1,0.2,0.2,0.3,0.3,0.4c0.1,0.1,0.2,0.2,0.4,0.2v0
					c-0.2,0.1-0.3,0.2-0.4,0.5c-0.1,0.2-0.1,0.5-0.1,0.8c0,0.2,0,0.3,0.1,0.5c0,0.1,0.1,0.3,0.1,0.4c0.1,0.1,0.1,0.2,0.2,0.3
					c0.1,0.1,0.2,0.1,0.2,0.1v0c-0.3,0.2-0.5,0.5-0.6,0.9c-0.2,0.4-0.2,0.8-0.2,1.4C33.1-7.9,33.1-7.6,33.2-7.3z M35.9-13.6
					c-0.2,0.2-0.6,0.4-1,0.4c-0.4,0-0.8-0.1-1-0.4c-0.2-0.2-0.4-0.7-0.4-1.3c0-0.3,0-0.6,0.1-0.9c0.1-0.2,0.2-0.4,0.3-0.6
					c0.1-0.2,0.3-0.3,0.4-0.3c0.2-0.1,0.3-0.1,0.5-0.1c0.2,0,0.4,0,0.5,0.1c0.2,0.1,0.3,0.2,0.5,0.4c0.1,0.2,0.2,0.4,0.3,0.6
					c0.1,0.2,0.1,0.5,0.1,0.9C36.3-14.3,36.1-13.8,35.9-13.6z M35.5-6.8c-0.2,0.3-0.4,0.5-0.7,0.5c-0.3,0-0.6-0.2-0.8-0.6
					c-0.2-0.4-0.3-0.9-0.3-1.5c0-0.6,0.1-1.1,0.2-1.5c0.2-0.4,0.4-0.6,0.8-0.6c0.2,0,0.3,0.1,0.4,0.2c0.1,0.1,0.2,0.3,0.3,0.5
					c0.1,0.2,0.1,0.4,0.2,0.7c0,0.3,0.1,0.5,0.1,0.8C35.8-7.6,35.7-7.2,35.5-6.8z"/>
			</g>
			<g>
				<path class="st1" d="M40.5-6.1c0.2,0.1,0.5,0.2,0.7,0.2c0.2,0,0.4-0.1,0.6-0.2c0.2-0.1,0.3-0.3,0.5-0.5c0.1-0.2,0.2-0.4,0.3-0.7
					c0.1-0.3,0.1-0.6,0.1-0.9c0-0.6,0-1.2,0-1.7c0-0.6,0-1.2,0-1.8c0-0.1,0-0.3,0-0.4c0-0.1,0-0.3,0-0.4c0-0.1,0.1-0.2,0.1-0.3
					c0-0.1,0.1-0.1,0.2-0.1c0,0,0.1,0,0.1,0c0,0,0.1,0,0.1,0.1v-0.3c-0.1-0.1-0.1-0.1-0.2-0.1c-0.1,0-0.2,0-0.3,0
					c-0.2,0-0.3,0.1-0.4,0.3c-0.1,0.2-0.2,0.4-0.2,0.6c-0.2-0.4-0.4-0.6-0.6-0.8c-0.2-0.2-0.5-0.3-0.8-0.3c-0.1,0-0.3,0-0.4,0.1
					c-0.1,0.1-0.3,0.2-0.4,0.4c-0.1,0.2-0.2,0.4-0.3,0.6c-0.1,0.2-0.1,0.5-0.1,0.8c0,0.6,0.1,1.1,0.3,1.4c0.2,0.3,0.5,0.6,0.9,0.7
					c0.3,0.1,0.6,0.2,0.8,0.2c0.2,0.1,0.3,0.1,0.4,0.2C41.9-9,42-8.9,42-8.8c0,0.1,0,0.2,0,0.4c0,0.3,0,0.5-0.1,0.7
					c0,0.2-0.1,0.4-0.2,0.6c-0.1,0.2-0.2,0.3-0.3,0.4c-0.1,0.1-0.3,0.2-0.5,0.2c-0.2,0-0.5-0.1-0.7-0.3C40.1-7,40-7.2,39.9-7.6h-0.1
					v0.8C40-6.4,40.3-6.2,40.5-6.1z M41.6-9.6c-0.1,0-0.3-0.1-0.4-0.1c-0.1,0-0.3-0.1-0.4-0.2c-0.1-0.1-0.3-0.2-0.4-0.3
					c-0.1-0.1-0.2-0.3-0.3-0.5c-0.1-0.2-0.1-0.4-0.1-0.7c0-0.5,0.1-0.8,0.2-1.1c0.2-0.2,0.3-0.4,0.5-0.4c0.2,0,0.4,0.1,0.6,0.3
					c0.2,0.2,0.3,0.5,0.4,0.7l0,2.3C41.9-9.5,41.8-9.6,41.6-9.6z"/>
			</g>
			<g>
				<path class="st1" d="M46.7-7.3c-0.2,0.4-0.4,0.6-0.7,0.6c-0.4,0-0.7-0.2-0.9-0.7c-0.2-0.4-0.3-1.1-0.3-1.8v-1.3
					c0-0.5,0-0.9,0-1.4c0-0.5,0-1,0.1-1.4c-0.1,0-0.3,0-0.4,0c-0.1,0-0.3,0-0.4,0c0,0.4,0,0.9,0.1,1.4c0,0.5,0,1,0,1.4v1.6
					c0,0.5,0,0.9,0,1.4c0,0.5,0,1-0.1,1.4c0.2-0.1,0.3-0.1,0.4-0.1c0,0,0.1,0,0.2,0c0.1,0,0.1,0,0.2,0.1c0-0.4,0-0.8,0-1.2h0
					c0.2,0.4,0.4,0.8,0.6,1c0.2,0.2,0.5,0.4,0.8,0.4c0.2,0,0.3,0,0.5-0.1c0.2-0.1,0.3-0.2,0.5-0.4c0.1-0.2,0.3-0.5,0.3-0.8
					c0.1-0.3,0.1-0.8,0.1-1.3c0-0.4,0-0.9,0-1.3c0-0.5,0-1,0-1.5v-1c0-0.2,0-0.3,0-0.5c0-0.2,0-0.3,0-0.4c-0.1,0-0.2,0-0.4,0
					c-0.1,0-0.3,0-0.4,0c0,0.5,0,1.1,0,1.6c0,0.6,0,1.1,0,1.7V-9C46.9-8.2,46.9-7.6,46.7-7.3z"/>
				<path class="st1" d="M52.1-11.8c0-0.2-0.1-0.3-0.2-0.5c-0.1-0.2-0.2-0.4-0.3-0.5c-0.1-0.2-0.3-0.3-0.4-0.4
					c-0.2-0.1-0.4-0.2-0.6-0.2c-0.2,0-0.5,0.1-0.7,0.2c-0.2,0.1-0.4,0.3-0.6,0.6c-0.2,0.3-0.3,0.7-0.4,1.2c-0.1,0.5-0.2,1-0.2,1.7
					c0,0.6,0.1,1.2,0.2,1.7c0.1,0.5,0.3,0.9,0.4,1.2c0.2,0.3,0.4,0.6,0.6,0.7c0.2,0.2,0.5,0.2,0.7,0.2c0.7,0,1.1-0.5,1.4-1.5h0v1.5
					c0,0.4,0,0.8,0,1.2c0,0.4,0,0.8,0,1.1c0,0.4,0,0.7,0,1c0,0.3,0,0.6,0,0.8c0.1,0,0.1,0,0.2-0.1c0.1,0,0.1,0,0.2,0
					c0.1,0,0.1,0,0.2,0c0.1,0,0.1,0,0.2,0.1c0-0.3,0-0.8,0-1.4c0-0.6,0-1.3,0-2c0-0.7,0-1.5,0-2.3c0-0.8,0-1.5,0-2.1
					c0-0.7,0-1.3,0-1.9c0-0.6,0-1.1,0-1.7c-0.1,0-0.2,0-0.4,0c-0.1,0-0.2,0-0.3,0L52.1-11.8L52.1-11.8z M49.6-11.3
					c0.1-0.4,0.2-0.7,0.3-1c0.1-0.2,0.3-0.4,0.4-0.5c0.1-0.1,0.3-0.1,0.4-0.1c0.2,0,0.4,0.1,0.6,0.3c0.2,0.2,0.3,0.5,0.4,0.8
					c0.1,0.3,0.2,0.7,0.2,1.1c0.1,0.4,0.1,0.8,0.1,1.2c0,1-0.1,1.7-0.3,2.2c-0.2,0.5-0.5,0.8-1,0.8c-0.2,0-0.4-0.1-0.6-0.3
					c-0.2-0.2-0.3-0.4-0.4-0.7c-0.1-0.3-0.2-0.7-0.2-1.1c-0.1-0.4-0.1-0.8-0.1-1.3C49.5-10.4,49.5-10.9,49.6-11.3z"/>
			</g>
		</g>
		<g>
			<g>
				<path class="st1" d="M-69.5-23.6c-0.3,1.2-0.6,2.4-0.9,3.6c0.1,0,0.2,0,0.2-0.1c0.1,0,0.1,0,0.2,0c0.1,0,0.1,0,0.2,0
					c0.1,0,0.1,0,0.2,0.1c0.2-1,0.4-2,0.6-3c0.2-1,0.5-2,0.7-3c0.1,0.4,0.2,0.9,0.4,1.3c0.1,0.5,0.2,1,0.4,1.5
					c0.1,0.5,0.2,1,0.3,1.6c0.1,0.5,0.2,1,0.3,1.5c0.1-0.1,0.2-0.1,0.3-0.1c0.1,0,0.2,0,0.3,0.1c-0.3-1.2-0.6-2.4-1-3.6
					c-0.3-1.2-0.6-2.4-0.9-3.6c-0.1,0-0.2,0-0.3,0c-0.1,0-0.2,0-0.3,0C-69-26-69.2-24.8-69.5-23.6z"/>
				<path class="st1" d="M-65.2-16.7c0.1,0.2,0.2,0.2,0.3,0.2c0.1,0,0.2-0.1,0.3-0.2c0.1-0.2,0.1-0.3,0.1-0.5c0-0.2,0-0.4-0.1-0.5
					c-0.1-0.2-0.2-0.2-0.3-0.2c-0.1,0-0.2,0.1-0.3,0.2c-0.1,0.2-0.1,0.3-0.1,0.5C-65.3-17.1-65.3-16.9-65.2-16.7z M-65.2-21.4
					c0,0.5,0,1-0.1,1.4C-65.1-20-65-20-64.9-20c0.1,0,0.2,0,0.4,0.1c0-0.4,0-0.9-0.1-1.4c0-0.5,0-1,0-1.4v-1.6c0-0.5,0-0.9,0-1.4
					c0-0.5,0-1,0.1-1.4c-0.1,0-0.3,0-0.4,0c-0.1,0-0.3,0-0.4,0c0,0.4,0,0.9,0.1,1.4c0,0.5,0,1,0,1.4v1.6
					C-65.2-22.3-65.2-21.9-65.2-21.4z"/>
				<path class="st1" d="M-62.7-19c0,0.4,0,0.8,0,1.2c0,0.4,0,0.8,0,1.1c0,0.4,0,0.7,0,0.9c0.2-0.1,0.3-0.1,0.4-0.1
					c0.1,0,0.2,0,0.4,0.1c0-0.3,0-0.6,0-0.9c0-0.4,0-0.7,0-1.1c0-0.4,0-0.8,0-1.2c0-0.4,0-0.8,0-1.1v-2.8c0-0.3,0-0.7,0-1.1
					c0-0.4,0-0.8,0-1.2c0-0.4,0-0.8,0-1.1c0-0.4,0-0.7,0-0.9c-0.1,0-0.3,0-0.4,0c-0.1,0-0.3,0-0.4,0c0,0.2,0,0.5,0,0.9
					c0,0.4,0,0.7,0,1.1c0,0.4,0,0.8,0,1.2c0,0.4,0,0.8,0,1.1v2.8C-62.7-19.7-62.7-19.4-62.7-19z"/>
				<path class="st1" d="M-59.6-20c0.2,0.1,0.5,0.2,0.7,0.2c0.2,0,0.4-0.1,0.6-0.2c0.2-0.1,0.3-0.3,0.5-0.5c0.1-0.2,0.2-0.4,0.3-0.7
					c0.1-0.3,0.1-0.6,0.1-0.9c0-0.6,0-1.2,0-1.7c0-0.6,0-1.2,0-1.8c0-0.1,0-0.3,0-0.4c0-0.1,0-0.3,0-0.4c0-0.1,0.1-0.2,0.1-0.3
					c0-0.1,0.1-0.1,0.2-0.1c0,0,0.1,0,0.1,0c0,0,0.1,0,0.1,0.1V-27c-0.1-0.1-0.1-0.1-0.2-0.1c-0.1,0-0.2,0-0.3,0
					c-0.2,0-0.3,0.1-0.4,0.3c-0.1,0.2-0.2,0.4-0.2,0.6c-0.2-0.4-0.4-0.6-0.6-0.8c-0.2-0.2-0.5-0.3-0.8-0.3c-0.1,0-0.3,0-0.4,0.1
					c-0.1,0.1-0.3,0.2-0.4,0.4c-0.1,0.2-0.2,0.4-0.3,0.6c-0.1,0.2-0.1,0.5-0.1,0.8c0,0.6,0.1,1.1,0.3,1.4c0.2,0.3,0.5,0.6,0.9,0.7
					c0.3,0.1,0.6,0.2,0.8,0.2c0.2,0.1,0.3,0.1,0.4,0.2c0.1,0.1,0.1,0.2,0.2,0.3c0,0.1,0,0.2,0,0.4c0,0.3,0,0.5-0.1,0.7
					c0,0.2-0.1,0.4-0.2,0.6c-0.1,0.2-0.2,0.3-0.3,0.4c-0.1,0.1-0.3,0.2-0.5,0.2c-0.2,0-0.5-0.1-0.7-0.3c-0.2-0.2-0.4-0.4-0.5-0.8
					h-0.1v0.8C-60.1-20.3-59.8-20.1-59.6-20z M-58.5-23.5c-0.1,0-0.3-0.1-0.4-0.1c-0.1,0-0.3-0.1-0.4-0.2c-0.1-0.1-0.3-0.2-0.4-0.3
					c-0.1-0.1-0.2-0.3-0.3-0.5C-60-24.8-60-25-60-25.3c0-0.5,0.1-0.8,0.2-1.1c0.2-0.2,0.3-0.4,0.5-0.4c0.2,0,0.4,0.1,0.6,0.3
					c0.2,0.2,0.3,0.5,0.4,0.7l0,2.3C-58.2-23.4-58.4-23.5-58.5-23.5z"/>
				<path class="st1" d="M-53.3-21.2c-0.2,0.4-0.4,0.6-0.7,0.6c-0.4,0-0.7-0.2-0.9-0.7c-0.2-0.4-0.3-1.1-0.3-1.8v-1.3
					c0-0.5,0-0.9,0-1.4c0-0.5,0-1,0.1-1.4c-0.1,0-0.3,0-0.4,0c-0.1,0-0.3,0-0.4,0c0,0.4,0,0.9,0.1,1.4c0,0.5,0,1,0,1.4v1.6
					c0,0.5,0,0.9,0,1.4c0,0.5,0,1-0.1,1.4c0.2-0.1,0.3-0.1,0.4-0.1c0,0,0.1,0,0.2,0c0.1,0,0.1,0,0.2,0.1c0-0.4,0-0.8,0-1.2h0
					c0.2,0.4,0.4,0.8,0.6,1c0.2,0.2,0.5,0.4,0.8,0.4c0.2,0,0.3,0,0.5-0.1c0.2-0.1,0.3-0.2,0.5-0.4c0.1-0.2,0.3-0.5,0.3-0.8
					c0.1-0.3,0.1-0.8,0.1-1.3c0-0.4,0-0.9,0-1.3c0-0.5,0-1,0-1.5v-1c0-0.2,0-0.3,0-0.5c0-0.2,0-0.3,0-0.4c-0.1,0-0.2,0-0.4,0
					c-0.1,0-0.3,0-0.4,0c0,0.5,0,1.1,0,1.6c0,0.6,0,1.1,0,1.7v0.9C-53-22.1-53.1-21.6-53.3-21.2z"/>
				<path class="st1" d="M-50.1-17.9c0-0.4,0-0.8,0-1.1c0-0.4,0-0.7,0-1.1c0.1,0,0.2,0,0.4,0c0.2,0,0.4,0,0.6,0c0,0,0-0.1,0-0.2
					v-0.2v-0.2c0-0.1,0-0.1,0-0.2c-0.1,0-0.2,0-0.2,0c-0.1,0-0.2,0-0.3,0h-0.4c0,0,0-0.2,0-0.5c0-0.3,0-0.6,0-1c0-0.4,0-0.8,0-1.2
					c0-0.4,0-0.8,0-1.1c0-0.3,0-0.6,0-0.8c0-0.3,0-0.5,0.1-0.7c0-0.2,0.1-0.4,0.2-0.5c0.1-0.1,0.2-0.2,0.4-0.2c0,0,0.1,0,0.2,0
					c0.1,0,0.2,0,0.2,0.1v-0.4c-0.1,0-0.2-0.1-0.3-0.1c-0.1,0-0.2-0.1-0.4-0.1c-0.4,0-0.7,0.2-0.8,0.5c-0.2,0.3-0.3,0.8-0.3,1.4
					c0,0.3,0,0.6,0,0.9c0,0.3,0,0.7,0,1.1c0,0.4,0,0.8,0,1.3c0,0.5,0,1,0,1.5h-0.3c0,0-0.1,0-0.2,0c-0.1,0-0.1,0-0.2,0
					c0,0.1,0,0.1,0,0.2c0,0.1,0,0.1,0,0.2c0,0.1,0,0.1,0,0.2c0,0.1,0,0.1,0,0.2c0.3,0,0.5,0,0.6,0c0,0.2,0,0.5,0,0.8
					c0,0.3,0,0.6,0,0.9L-50.1-17.9L-50.1-17.9z"/>
				<path class="st1" d="M-48.3-20.9c0.4,0.7,0.9,1.1,1.5,1.1c0.3,0,0.6-0.1,0.8-0.3c0.2-0.2,0.4-0.4,0.6-0.7c0.2-0.3,0.3-0.6,0.3-1
					c0.1-0.4,0.1-0.8,0.1-1.2c0-0.1,0-0.2,0-0.3c0-0.1,0-0.2,0-0.3c-0.3,0-0.6,0-1,0c-0.3,0-0.6,0-1,0c-0.2,0-0.4,0-0.6,0
					c-0.2,0-0.4,0-0.6,0c0-0.1,0-0.1,0-0.2v-0.2c0-0.4,0-0.8,0.1-1.1c0.1-0.3,0.2-0.6,0.3-0.9c0.1-0.2,0.3-0.4,0.5-0.6
					c0.2-0.1,0.4-0.2,0.7-0.2c0.1,0,0.2,0,0.4,0.1c0.1,0.1,0.2,0.1,0.4,0.2c0.1,0.1,0.2,0.2,0.3,0.3c0.1,0.1,0.2,0.3,0.3,0.4l0,0
					l-0.1-0.7c-0.2-0.2-0.4-0.5-0.7-0.6c-0.3-0.2-0.5-0.3-0.8-0.3c-0.3,0-0.6,0.1-0.9,0.3c-0.3,0.2-0.5,0.4-0.7,0.7
					c-0.2,0.3-0.3,0.7-0.4,1.1c-0.1,0.4-0.2,0.9-0.2,1.4C-48.8-22.6-48.6-21.6-48.3-20.9z M-47.3-20.5c-0.2-0.2-0.3-0.4-0.4-0.6
					c-0.1-0.3-0.2-0.5-0.2-0.9c-0.1-0.3-0.1-0.6-0.1-0.9c0.2,0,0.4,0,0.6,0c0.2,0,0.4,0,0.6,0c0.2,0,0.4,0,0.6,0c0.2,0,0.4,0,0.6,0
					c0,0.3,0,0.6,0,0.9c0,0.3-0.1,0.6-0.2,0.9c-0.1,0.3-0.2,0.5-0.3,0.7c-0.1,0.2-0.3,0.3-0.6,0.3C-47-20.3-47.2-20.4-47.3-20.5z"/>
			</g>
			<g>
				<path class="st1" d="M-42.1-21c-0.1,0.1-0.2,0.1-0.3,0.1c-0.1,0-0.3-0.1-0.4-0.2c-0.1-0.1-0.2-0.3-0.3-0.4
					c-0.1-0.2-0.1-0.4-0.2-0.7c0-0.3-0.1-0.5-0.1-0.8v-1.7c0-0.7,0-1.2,0-1.6c0-0.4,0-0.7,0-0.9c-0.1,0-0.2,0-0.4,0
					c-0.1,0-0.3,0-0.4,0c0,0.3,0,0.8,0,1.4c0,0.6,0,1.3,0,2.2v0.5c0,0.4,0,0.9,0,1.4c0,0.5,0,1.1,0,1.8c0.1,0,0.1,0,0.2-0.1
					c0.1,0,0.1,0,0.2,0c0.1,0,0.1,0,0.2,0c0.1,0,0.1,0,0.2,0.1c0-0.4,0-0.7,0-0.9c0-0.2,0-0.4,0-0.6l0,0c0.4,1.1,0.7,1.6,1.2,1.6
					c0.1,0,0.1,0,0.1,0c0,0,0.1,0,0.1-0.1c0-0.1,0-0.3-0.1-0.6c0-0.2,0-0.5,0-0.7l-0.1-0.1C-41.9-21.1-42-21.1-42.1-21z"/>
			</g>
			<g>
				<path class="st1" d="M-41.3-21.8c0.1,0.5,0.3,0.9,0.5,1.2c0.2,0.3,0.4,0.5,0.7,0.7c0.3,0.1,0.5,0.2,0.8,0.2
					c0.3,0,0.5-0.1,0.8-0.2c0.3-0.1,0.5-0.4,0.7-0.7c0.2-0.3,0.4-0.7,0.5-1.2c0.1-0.5,0.2-1.1,0.2-1.8c0-0.7-0.1-1.3-0.2-1.8
					c-0.1-0.5-0.3-0.9-0.5-1.2c-0.2-0.3-0.4-0.5-0.7-0.6c-0.3-0.1-0.5-0.2-0.8-0.2c-0.3,0-0.5,0.1-0.8,0.2s-0.5,0.3-0.7,0.6
					c-0.2,0.3-0.4,0.7-0.5,1.2c-0.1,0.5-0.2,1.1-0.2,1.8C-41.5-22.9-41.4-22.3-41.3-21.8z M-40.7-24.8c0-0.4,0.1-0.7,0.2-1.1
					c0.1-0.3,0.3-0.6,0.4-0.7c0.2-0.2,0.4-0.3,0.7-0.3c0.3,0,0.5,0.1,0.7,0.3c0.2,0.2,0.3,0.4,0.4,0.7c0.1,0.3,0.2,0.7,0.2,1.1
					c0,0.4,0.1,0.8,0.1,1.2c0,0.4,0,0.8-0.1,1.2c0,0.4-0.1,0.7-0.2,1.1c-0.1,0.3-0.3,0.6-0.4,0.7c-0.2,0.2-0.4,0.3-0.7,0.3
					c-0.3,0-0.5-0.1-0.7-0.3c-0.2-0.2-0.3-0.4-0.4-0.7c-0.1-0.3-0.2-0.7-0.2-1.1c0-0.4-0.1-0.8-0.1-1.2
					C-40.7-24-40.7-24.4-40.7-24.8z"/>
			</g>
			<g>
				<path class="st1" d="M-36.1-19c0,0.4,0,0.8,0,1.2c0,0.4,0,0.8,0,1.1c0,0.4,0,0.7,0,0.9c0.2-0.1,0.3-0.1,0.4-0.1
					c0.1,0,0.2,0,0.4,0.1c0-0.3,0-0.6,0-0.9c0-0.4,0-0.7,0-1.1c0-0.4,0-0.8,0-1.2c0-0.4,0-0.8,0-1.1v-2.8c0-0.3,0-0.7,0-1.1
					c0-0.4,0-0.8,0-1.2c0-0.4,0-0.8,0-1.1c0-0.4,0-0.7,0-0.9c-0.1,0-0.3,0-0.4,0c-0.1,0-0.3,0-0.4,0c0,0.2,0,0.5,0,0.9
					c0,0.4,0,0.7,0,1.1c0,0.4,0,0.8,0,1.2c0,0.4,0,0.8,0,1.1v2.8C-36.1-19.7-36.1-19.4-36.1-19z"/>
			</g>
			<g>
				<path class="st1" d="M-30.9-17.3c0.3,0.2,0.6,0.4,1,0.4c0.2,0,0.5-0.1,0.7-0.2c0.2-0.1,0.4-0.3,0.5-0.5c0.2-0.2,0.3-0.5,0.4-0.8
					c0.1-0.3,0.1-0.7,0.1-1.2c0-0.3,0-0.7-0.1-1c0-0.3-0.1-0.6-0.2-0.9c-0.1-0.3-0.2-0.6-0.4-0.9c-0.1-0.3-0.3-0.6-0.5-0.9
					c-0.1-0.2-0.2-0.4-0.4-0.7c-0.1-0.3-0.3-0.5-0.5-0.8c-0.2-0.3-0.3-0.5-0.4-0.8c-0.1-0.3-0.3-0.5-0.4-0.7h0.9c0.4,0,0.8,0,1.1,0
					c0.3,0,0.6,0.1,0.9,0.1c0-0.2,0-0.4,0-0.6c0-0.1,0-0.3,0-0.5c-0.3,0-0.6,0-1,0c-0.3,0-0.6,0-1,0c-0.3,0-0.6,0-1,0
					c-0.3,0-0.6,0-1,0v0.2c0.4,0.7,0.8,1.3,1.1,1.9c0.3,0.5,0.6,1,0.8,1.4c0.2,0.4,0.4,0.8,0.5,1.2c0.1,0.3,0.2,0.7,0.3,1
					c0.1,0.3,0.1,0.6,0.2,0.9c0,0.3,0,0.6,0,1c0,0.8-0.1,1.3-0.3,1.7c-0.2,0.4-0.4,0.5-0.7,0.5c-0.2,0-0.4-0.1-0.5-0.2
					c-0.1-0.1-0.3-0.3-0.3-0.4c-0.1-0.2-0.2-0.3-0.2-0.5c0-0.2-0.1-0.4-0.1-0.5l-0.1,0l-0.3,0.7C-31.4-17.9-31.2-17.5-30.9-17.3z"/>
			</g>
			<g>
				<path class="st1" d="M-26-21.2c0.1,0.1,0.3,0.1,0.6,0.1c0.3,0,0.5-0.1,0.7-0.2c0.2-0.2,0.4-0.4,0.5-0.6c0.1-0.3,0.3-0.6,0.3-0.9
					c0.1-0.3,0.1-0.7,0.1-1.1c0-0.5-0.1-0.9-0.2-1.3c-0.1-0.4-0.3-0.8-0.5-1.1c-0.2-0.3-0.4-0.6-0.7-0.7c-0.3-0.2-0.6-0.3-0.9-0.3
					c-0.3,0-0.5,0-0.8,0.1c-0.2,0.1-0.5,0.2-0.7,0.4v0.1c0,0.1,0.1,0.3,0.1,0.4c0,0.2,0,0.3,0.1,0.4h0.1c0.1-0.2,0.1-0.3,0.2-0.5
					c0.1-0.1,0.2-0.3,0.3-0.4c0.1-0.1,0.2-0.2,0.4-0.2c0.1,0,0.3-0.1,0.4-0.1c0.2,0,0.4,0.1,0.5,0.2c0.2,0.1,0.3,0.3,0.4,0.5
					c0.1,0.2,0.2,0.5,0.3,0.9c0.1,0.4,0.1,0.8,0.1,1.2c0,0.4,0,0.8-0.1,1.1c-0.1,0.3-0.2,0.6-0.3,0.7c-0.1,0.2-0.3,0.3-0.4,0.4
					c-0.1,0.1-0.3,0.1-0.5,0.1c-0.3,0-0.5-0.1-0.6-0.2c-0.2-0.1-0.3-0.2-0.3-0.3l-0.1,0.1c0,0.4,0.1,0.8,0.1,1.3c0,0.4,0,0.9,0,1.3
					c0,0.4,0,0.9,0,1.3c0,0.5,0,0.9-0.1,1.2l0.1,0.1c0.1,0,0.3-0.1,0.5-0.1c0.3,0,0.6,0,1.1,0c0.3,0,0.5,0,0.8,0c0.2,0,0.4,0,0.5,0
					l0-0.1c0-0.1,0-0.3,0-0.4c0-0.1,0-0.3,0-0.4c0-0.1,0-0.2,0-0.3c-0.1,0-0.3,0.1-0.5,0.1c-0.2,0-0.4,0-0.7,0.1c-0.2,0-0.5,0-0.7,0
					c-0.2,0-0.4,0-0.5,0l-0.1-3.5C-26.2-21.3-26.1-21.2-26-21.2z"/>
			</g>
			<g>
				<path class="st1" d="M-20.9-21.4c0,0.5,0,1-0.1,1.4c0.2-0.1,0.3-0.1,0.4-0.1c0,0,0.1,0,0.2,0c0.1,0,0.1,0,0.2,0.1
					c0-0.4,0-0.8,0-1.2h0c0.3,0.9,0.8,1.4,1.3,1.4c0.1,0,0.3,0,0.4-0.1c0.1-0.1,0.3-0.2,0.4-0.3c0.1-0.1,0.2-0.3,0.3-0.5
					c0.1-0.2,0.1-0.4,0.2-0.6h0c0.1,0.5,0.3,0.9,0.6,1.1c0.2,0.3,0.5,0.4,0.9,0.4c0.2,0,0.4,0,0.6-0.1c0.2-0.1,0.3-0.2,0.4-0.4
					c0.1-0.2,0.2-0.4,0.3-0.7c0.1-0.3,0.1-0.7,0.1-1.1c0-0.2,0-0.4,0-0.6c0-0.2,0-0.4,0-0.7c0-0.3,0-0.6,0-0.9c0-0.3,0-0.7,0-1.2
					c0-0.3,0-0.5,0-0.8c0-0.3,0-0.5,0-0.8c-0.1,0-0.1,0-0.2,0c-0.1,0-0.1,0-0.2,0c-0.1,0-0.1,0-0.2,0c-0.1,0-0.1,0-0.2,0
					c0,0.3,0,0.8,0.1,1.5c0,0.8,0,1.8,0,3.2c0,0.3,0,0.5,0,0.7c0,0.2-0.1,0.4-0.2,0.6c-0.1,0.2-0.2,0.3-0.3,0.4
					c-0.1,0.1-0.3,0.1-0.5,0.1c-0.2,0-0.4-0.1-0.6-0.2c-0.2-0.1-0.3-0.3-0.4-0.5c0-0.1-0.1-0.2-0.1-0.3c0-0.1,0-0.3-0.1-0.5
					c0-0.2,0-0.5,0-1c0-0.4,0-1,0-1.7c0-0.4,0-0.8,0-1.2c0-0.4,0-0.8,0-1.2c-0.1,0-0.3,0-0.4,0c-0.1,0-0.3,0-0.4,0
					c0,0.6,0,1.1,0.1,1.7c0,0.6,0,1.1,0,1.7c0,0.5,0,0.9,0,1.1c0,0.3,0,0.5,0,0.6c0,0.2,0,0.3,0,0.4c0,0.1,0,0.2-0.1,0.3
					c-0.1,0.2-0.2,0.4-0.3,0.5c-0.1,0.1-0.3,0.2-0.4,0.2c-0.4,0-0.7-0.2-0.9-0.7c-0.2-0.4-0.3-1.1-0.3-1.8v-1.3c0-0.5,0-0.9,0-1.4
					c0-0.5,0-1,0.1-1.4c-0.1,0-0.3,0-0.4,0c-0.1,0-0.3,0-0.4,0c0,0.4,0,0.9,0.1,1.4c0,0.5,0,1,0,1.4v1.6
					C-20.8-22.3-20.8-21.9-20.9-21.4z"/>
				<path class="st1" d="M-13.5-21.9c0.1,0.5,0.3,0.9,0.5,1.2c0.2,0.3,0.5,0.5,0.7,0.7c0.3,0.1,0.6,0.2,0.8,0.2
					c0.3,0,0.6-0.1,0.9-0.2c0.3-0.1,0.4-0.3,0.6-0.5c0-0.2-0.1-0.3-0.1-0.5c0-0.2-0.1-0.3-0.1-0.5h-0.1c0,0.1-0.1,0.3-0.2,0.4
					c-0.1,0.1-0.2,0.3-0.3,0.4c-0.1,0.1-0.2,0.2-0.3,0.3c-0.1,0.1-0.3,0.1-0.4,0.1c-0.3,0-0.5-0.1-0.7-0.3c-0.2-0.2-0.4-0.4-0.5-0.7
					c-0.1-0.3-0.2-0.6-0.3-1c-0.1-0.4-0.1-0.8-0.1-1.3c0-1,0.1-1.8,0.4-2.4c0.3-0.5,0.7-0.8,1.2-0.8c0.1,0,0.2,0,0.4,0.1
					c0.1,0.1,0.2,0.1,0.4,0.2c0.1,0.1,0.2,0.2,0.3,0.3c0.1,0.1,0.2,0.3,0.3,0.4l0,0c0-0.2,0-0.5-0.1-0.7c-0.2-0.2-0.4-0.5-0.7-0.6
					c-0.3-0.2-0.5-0.3-0.8-0.3c-0.3,0-0.5,0.1-0.8,0.2c-0.3,0.1-0.5,0.3-0.7,0.6c-0.2,0.3-0.4,0.7-0.5,1.2c-0.1,0.5-0.2,1.1-0.2,1.8
					C-13.7-22.9-13.6-22.4-13.5-21.9z"/>
				<path class="st1" d="M-9-21.2c0.1,0.3,0.2,0.6,0.4,0.8c0.2,0.2,0.3,0.4,0.5,0.5c0.2,0.1,0.4,0.2,0.7,0.2c0.1,0,0.2,0,0.3,0
					c0.1,0,0.2,0,0.4,0c0.1,0,0.3,0,0.4,0c0.1,0,0.2,0,0.3,0c0.3,0,0.6,0,0.7,0.1c0-0.1,0-0.1,0-0.2c0-0.1,0-0.1,0-0.2
					c0-0.1,0-0.1,0-0.2c0-0.1,0-0.1,0-0.2c-0.2,0-0.3,0-0.5,0.1c-0.2,0-0.3,0-0.5,0.1l0,0c0.2-0.2,0.3-0.4,0.4-0.8
					c0.1-0.4,0.2-0.7,0.2-1.1c0-0.8-0.2-1.4-0.5-1.8c-0.3-0.4-0.7-0.6-1.2-0.6c-0.1,0-0.2,0-0.2,0c-0.1,0-0.2,0-0.2,0
					c-0.1,0-0.2-0.1-0.3-0.2c-0.1-0.1-0.1-0.3-0.1-0.5c0-0.3,0-0.5,0.1-0.6c0.1-0.1,0.2-0.2,0.4-0.2c0.2,0,0.3,0,0.5,0
					c0.2,0,0.3,0,0.5,0c0.3,0,0.5-0.1,0.7-0.2c0.2-0.1,0.4-0.2,0.5-0.4c0.1-0.2,0.2-0.4,0.3-0.6c0.1-0.2,0.1-0.5,0.1-0.7
					c0-0.4,0-0.7-0.1-1.1c-0.1-0.4-0.2-0.7-0.4-1c-0.2-0.3-0.4-0.5-0.7-0.7c-0.3-0.2-0.6-0.3-1-0.3c-0.6,0-1,0.2-1.4,0.6
					c-0.3,0.4-0.5,0.9-0.5,1.6c0,0.3,0,0.5,0.1,0.7c0.1,0.2,0.1,0.4,0.2,0.6c0.1,0.2,0.2,0.3,0.3,0.4c0.1,0.1,0.2,0.2,0.4,0.2v0
					c-0.2,0.1-0.3,0.2-0.4,0.5c-0.1,0.2-0.1,0.5-0.1,0.8c0,0.2,0,0.3,0.1,0.5c0,0.1,0.1,0.3,0.1,0.4c0.1,0.1,0.1,0.2,0.2,0.3
					c0.1,0.1,0.2,0.1,0.2,0.1v0c-0.3,0.2-0.5,0.5-0.6,0.9c-0.2,0.4-0.2,0.8-0.2,1.4C-9.1-21.8-9.1-21.5-9-21.2z M-6.2-27.5
					c-0.2,0.2-0.6,0.4-1,0.4c-0.4,0-0.8-0.1-1-0.4c-0.2-0.2-0.4-0.7-0.4-1.3c0-0.3,0-0.6,0.1-0.9c0.1-0.2,0.2-0.4,0.3-0.6
					c0.1-0.2,0.3-0.3,0.4-0.3c0.2-0.1,0.3-0.1,0.5-0.1c0.2,0,0.4,0,0.5,0.1c0.2,0.1,0.3,0.2,0.5,0.4c0.1,0.2,0.2,0.4,0.3,0.6
					c0.1,0.2,0.1,0.5,0.1,0.9C-5.9-28.2-6-27.8-6.2-27.5z M-6.7-20.7c-0.2,0.3-0.4,0.5-0.7,0.5c-0.3,0-0.6-0.2-0.8-0.6
					c-0.2-0.4-0.3-0.9-0.3-1.5c0-0.6,0.1-1.1,0.2-1.5c0.2-0.4,0.4-0.6,0.8-0.6c0.2,0,0.3,0.1,0.4,0.2c0.1,0.1,0.2,0.3,0.3,0.5
					c0.1,0.2,0.1,0.4,0.2,0.7c0,0.3,0.1,0.5,0.1,0.8C-6.4-21.6-6.5-21.1-6.7-20.7z"/>
			</g>
			<g>
				<path class="st1" d="M-1.8-16.7c0.1,0.2,0.2,0.2,0.3,0.2s0.2-0.1,0.3-0.2c0.1-0.2,0.1-0.3,0.1-0.5c0-0.2,0-0.4-0.1-0.5
					c-0.1-0.2-0.2-0.2-0.3-0.2s-0.2,0.1-0.3,0.2C-1.9-17.7-2-17.5-2-17.3C-2-17.1-1.9-16.9-1.8-16.7z M-1.8-21.4c0,0.5,0,1-0.1,1.4
					C-1.7-20-1.6-20-1.5-20c0.1,0,0.2,0,0.4,0.1c0-0.4,0-0.9-0.1-1.4c0-0.5,0-1,0-1.4v-1.6c0-0.5,0-0.9,0-1.4c0-0.5,0-1,0.1-1.4
					c-0.1,0-0.3,0-0.4,0c-0.1,0-0.3,0-0.4,0c0,0.4,0,0.9,0.1,1.4c0,0.5,0,1,0,1.4v1.6C-1.8-22.3-1.8-21.9-1.8-21.4z"/>
				<path class="st1" d="M3.1-21.2c-0.2,0.4-0.4,0.6-0.7,0.6c-0.4,0-0.7-0.2-0.9-0.7c-0.2-0.4-0.3-1.1-0.3-1.8v-1.3
					c0-0.5,0-0.9,0-1.4c0-0.5,0-1,0.1-1.4c-0.1,0-0.3,0-0.4,0c-0.1,0-0.3,0-0.4,0c0,0.4,0,0.9,0.1,1.4c0,0.5,0,1,0,1.4v1.6
					c0,0.5,0,0.9,0,1.4c0,0.5,0,1-0.1,1.4C0.6-20,0.7-20,0.8-20c0,0,0.1,0,0.2,0c0.1,0,0.1,0,0.2,0.1c0-0.4,0-0.8,0-1.2h0
					c0.2,0.4,0.4,0.8,0.6,1c0.2,0.2,0.5,0.4,0.8,0.4c0.2,0,0.3,0,0.5-0.1c0.2-0.1,0.3-0.2,0.5-0.4c0.1-0.2,0.3-0.5,0.3-0.8
					c0.1-0.3,0.1-0.8,0.1-1.3c0-0.4,0-0.9,0-1.3c0-0.5,0-1,0-1.5v-1c0-0.2,0-0.3,0-0.5c0-0.2,0-0.3,0-0.4c-0.1,0-0.2,0-0.4,0
					c-0.1,0-0.3,0-0.4,0c0,0.5,0,1.1,0,1.6c0,0.6,0,1.1,0,1.7v0.9C3.4-22.1,3.3-21.6,3.1-21.2z"/>
				<path class="st1" d="M5.5-19c0,0.4,0,0.8,0,1.2c0,0.4,0,0.8,0,1.1c0,0.4,0,0.7,0,0.9c0.2-0.1,0.3-0.1,0.4-0.1
					c0.1,0,0.2,0,0.4,0.1c0-0.3,0-0.6,0-0.9c0-0.4,0-0.7,0-1.1c0-0.4,0-0.8,0-1.2c0-0.4,0-0.8,0-1.1v-1.2h0c0.2,0.4,0.4,0.8,0.6,1
					c0.2,0.2,0.5,0.4,0.8,0.4c0.2,0,0.3,0,0.5-0.1c0.2-0.1,0.3-0.2,0.5-0.4c0.1-0.2,0.3-0.5,0.3-0.8c0.1-0.3,0.1-0.8,0.1-1.3
					c0-0.4,0-0.9,0-1.3c0-0.5,0-1,0-1.5v-1c0-0.2,0-0.3,0-0.5c0-0.2,0-0.3,0-0.4c-0.1,0-0.2,0-0.4,0c-0.1,0-0.3,0-0.4,0
					c0,0.5,0,1.1,0,1.6c0,0.6,0,1.1,0,1.7v0.9c0,0.8-0.1,1.3-0.3,1.7c-0.2,0.4-0.4,0.6-0.7,0.6c-0.4,0-0.7-0.2-0.9-0.7
					c-0.2-0.4-0.3-1.1-0.3-1.8c0-0.3,0-0.6,0-1c0-0.4,0-0.8,0-1.1c0-0.4,0-0.7,0-1.1c0-0.4,0-0.6,0-0.9c-0.1,0-0.3,0-0.4,0
					c-0.1,0-0.3,0-0.4,0c0,0.2,0,0.5,0,0.9c0,0.4,0,0.7,0,1.1c0,0.4,0,0.8,0,1.2c0,0.4,0,0.8,0,1.1v2.8C5.5-19.7,5.5-19.4,5.5-19z"
					/>
				<path class="st1" d="M11.3-20c0.2,0.1,0.5,0.2,0.7,0.2c0.2,0,0.4-0.1,0.6-0.2c0.2-0.1,0.3-0.3,0.5-0.5c0.1-0.2,0.2-0.4,0.3-0.7
					c0.1-0.3,0.1-0.6,0.1-0.9c0-0.6,0-1.2,0-1.7c0-0.6,0-1.2,0-1.8c0-0.1,0-0.3,0-0.4c0-0.1,0-0.3,0-0.4c0-0.1,0.1-0.2,0.1-0.3
					c0-0.1,0.1-0.1,0.2-0.1c0,0,0.1,0,0.1,0c0,0,0.1,0,0.1,0.1V-27c-0.1-0.1-0.1-0.1-0.2-0.1c-0.1,0-0.2,0-0.3,0
					c-0.2,0-0.3,0.1-0.4,0.3c-0.1,0.2-0.2,0.4-0.2,0.6c-0.2-0.4-0.4-0.6-0.6-0.8c-0.2-0.2-0.5-0.3-0.8-0.3c-0.1,0-0.3,0-0.4,0.1
					c-0.1,0.1-0.3,0.2-0.4,0.4c-0.1,0.2-0.2,0.4-0.3,0.6c-0.1,0.2-0.1,0.5-0.1,0.8c0,0.6,0.1,1.1,0.3,1.4c0.2,0.3,0.5,0.6,0.9,0.7
					c0.3,0.1,0.6,0.2,0.8,0.2c0.2,0.1,0.3,0.1,0.4,0.2c0.1,0.1,0.1,0.2,0.2,0.3c0,0.1,0,0.2,0,0.4c0,0.3,0,0.5-0.1,0.7
					c0,0.2-0.1,0.4-0.2,0.6c-0.1,0.2-0.2,0.3-0.3,0.4c-0.1,0.1-0.3,0.2-0.5,0.2c-0.2,0-0.5-0.1-0.7-0.3c-0.2-0.2-0.4-0.4-0.5-0.8
					h-0.1v0.8C10.8-20.3,11-20.1,11.3-20z M12.4-23.5c-0.1,0-0.3-0.1-0.4-0.1c-0.1,0-0.3-0.1-0.4-0.2c-0.1-0.1-0.3-0.2-0.4-0.3
					c-0.1-0.1-0.2-0.3-0.3-0.5c-0.1-0.2-0.1-0.4-0.1-0.7c0-0.5,0.1-0.8,0.2-1.1c0.2-0.2,0.3-0.4,0.5-0.4c0.2,0,0.4,0.1,0.6,0.3
					c0.2,0.2,0.3,0.5,0.4,0.7l0,2.3C12.6-23.4,12.5-23.5,12.4-23.5z"/>
				<path class="st1" d="M15.2-19c0,0.4,0,0.8,0,1.2c0,0.4,0,0.8,0,1.1c0,0.4,0,0.7,0,0.9c0.2-0.1,0.3-0.1,0.4-0.1
					c0.1,0,0.2,0,0.4,0.1c0-0.3,0-0.6,0-0.9c0-0.4,0-0.7,0-1.1c0-0.4,0-0.8,0-1.2c0-0.4,0-0.8,0-1.1v-2.8c0-0.3,0-0.7,0-1.1
					c0-0.4,0-0.8,0-1.2c0-0.4,0-0.8,0-1.1c0-0.4,0-0.7,0-0.9c-0.1,0-0.3,0-0.4,0c-0.1,0-0.3,0-0.4,0c0,0.2,0,0.5,0,0.9
					c0,0.4,0,0.7,0,1.1c0,0.4,0,0.8,0,1.2c0,0.4,0,0.8,0,1.1v2.8C15.2-19.7,15.2-19.4,15.2-19z"/>
				<path class="st1" d="M18.3-20c0.2,0.1,0.5,0.2,0.7,0.2c0.2,0,0.4-0.1,0.6-0.2c0.2-0.1,0.3-0.3,0.5-0.5c0.1-0.2,0.2-0.4,0.3-0.7
					c0.1-0.3,0.1-0.6,0.1-0.9c0-0.6,0-1.2,0-1.7c0-0.6,0-1.2,0-1.8c0-0.1,0-0.3,0-0.4c0-0.1,0-0.3,0-0.4c0-0.1,0.1-0.2,0.1-0.3
					c0-0.1,0.1-0.1,0.2-0.1c0,0,0.1,0,0.1,0c0,0,0.1,0,0.1,0.1V-27c-0.1-0.1-0.1-0.1-0.2-0.1c-0.1,0-0.2,0-0.3,0
					c-0.2,0-0.3,0.1-0.4,0.3c-0.1,0.2-0.2,0.4-0.2,0.6c-0.2-0.4-0.4-0.6-0.6-0.8c-0.2-0.2-0.5-0.3-0.8-0.3c-0.1,0-0.3,0-0.4,0.1
					c-0.1,0.1-0.3,0.2-0.4,0.4c-0.1,0.2-0.2,0.4-0.3,0.6c-0.1,0.2-0.1,0.5-0.1,0.8c0,0.6,0.1,1.1,0.3,1.4c0.2,0.3,0.5,0.6,0.9,0.7
					c0.3,0.1,0.6,0.2,0.8,0.2c0.2,0.1,0.3,0.1,0.4,0.2c0.1,0.1,0.1,0.2,0.2,0.3c0,0.1,0,0.2,0,0.4c0,0.3,0,0.5-0.1,0.7
					c0,0.2-0.1,0.4-0.2,0.6c-0.1,0.2-0.2,0.3-0.3,0.4c-0.1,0.1-0.3,0.2-0.5,0.2c-0.2,0-0.5-0.1-0.7-0.3c-0.2-0.2-0.4-0.4-0.5-0.8
					h-0.1v0.8C17.8-20.3,18-20.1,18.3-20z M19.4-23.5c-0.1,0-0.3-0.1-0.4-0.1c-0.1,0-0.3-0.1-0.4-0.2c-0.1-0.1-0.3-0.2-0.4-0.3
					c-0.1-0.1-0.2-0.3-0.3-0.5c-0.1-0.2-0.1-0.4-0.1-0.7c0-0.5,0.1-0.8,0.2-1.1c0.2-0.2,0.3-0.4,0.5-0.4c0.2,0,0.4,0.1,0.6,0.3
					c0.2,0.2,0.3,0.5,0.4,0.7l0,2.3C19.6-23.4,19.5-23.5,19.4-23.5z"/>
				<path class="st1" d="M22.7-17.9c0-0.4,0-0.8,0-1.1c0-0.4,0-0.7,0-1.1c0.1,0,0.2,0,0.4,0c0.2,0,0.4,0,0.6,0c0,0,0-0.1,0-0.2v-0.2
					v-0.2c0-0.1,0-0.1,0-0.2c-0.1,0-0.2,0-0.2,0c-0.1,0-0.2,0-0.3,0h-0.4c0,0,0-0.2,0-0.5c0-0.3,0-0.6,0-1c0-0.4,0-0.8,0-1.2
					c0-0.4,0-0.8,0-1.1c0-0.3,0-0.6,0-0.8c0-0.3,0-0.5,0.1-0.7c0-0.2,0.1-0.4,0.2-0.5c0.1-0.1,0.2-0.2,0.4-0.2c0,0,0.1,0,0.2,0
					c0.1,0,0.2,0,0.2,0.1v-0.4c-0.1,0-0.2-0.1-0.3-0.1c-0.1,0-0.2-0.1-0.4-0.1c-0.4,0-0.7,0.2-0.8,0.5c-0.2,0.3-0.3,0.8-0.3,1.4
					c0,0.3,0,0.6,0,0.9c0,0.3,0,0.7,0,1.1c0,0.4,0,0.8,0,1.3c0,0.5,0,1,0,1.5h-0.3c0,0-0.1,0-0.2,0c-0.1,0-0.1,0-0.2,0
					c0,0.1,0,0.1,0,0.2c0,0.1,0,0.1,0,0.2c0,0.1,0,0.1,0,0.2c0,0.1,0,0.1,0,0.2c0.3,0,0.5,0,0.6,0c0,0.2,0,0.5,0,0.8
					c0,0.3,0,0.6,0,0.9L22.7-17.9L22.7-17.9z"/>
				<path class="st1" d="M24.7-16.7c0.1,0.2,0.2,0.2,0.3,0.2c0.1,0,0.2-0.1,0.3-0.2c0.1-0.2,0.1-0.3,0.1-0.5c0-0.2,0-0.4-0.1-0.5
					c-0.1-0.2-0.2-0.2-0.3-0.2c-0.1,0-0.2,0.1-0.3,0.2c-0.1,0.2-0.1,0.3-0.1,0.5C24.5-17.1,24.6-16.9,24.7-16.7z M24.6-21.4
					c0,0.5,0,1-0.1,1.4C24.8-20,24.9-20,25-20c0.1,0,0.2,0,0.4,0.1c0-0.4,0-0.9-0.1-1.4c0-0.5,0-1,0-1.4v-1.6c0-0.5,0-0.9,0-1.4
					c0-0.5,0-1,0.1-1.4c-0.1,0-0.3,0-0.4,0c-0.1,0-0.3,0-0.4,0c0,0.4,0,0.9,0.1,1.4c0,0.5,0,1,0,1.4v1.6
					C24.7-22.3,24.7-21.9,24.6-21.4z"/>
				<path class="st1" d="M26.7-21.8c0.1,0.5,0.3,0.9,0.5,1.2c0.2,0.3,0.4,0.5,0.7,0.7c0.3,0.1,0.5,0.2,0.8,0.2
					c0.3,0,0.5-0.1,0.8-0.2c0.3-0.1,0.5-0.4,0.7-0.7c0.2-0.3,0.4-0.7,0.5-1.2c0.1-0.5,0.2-1.1,0.2-1.8c0-0.7-0.1-1.3-0.2-1.8
					c-0.1-0.5-0.3-0.9-0.5-1.2c-0.2-0.3-0.4-0.5-0.7-0.6s-0.5-0.2-0.8-0.2c-0.3,0-0.5,0.1-0.8,0.2s-0.5,0.3-0.7,0.6
					c-0.2,0.3-0.4,0.7-0.5,1.2c-0.1,0.5-0.2,1.1-0.2,1.8C26.6-22.9,26.6-22.3,26.7-21.8z M27.4-24.8c0-0.4,0.1-0.7,0.2-1.1
					c0.1-0.3,0.3-0.6,0.4-0.7c0.2-0.2,0.4-0.3,0.7-0.3c0.3,0,0.5,0.1,0.7,0.3c0.2,0.2,0.3,0.4,0.4,0.7c0.1,0.3,0.2,0.7,0.2,1.1
					c0,0.4,0.1,0.8,0.1,1.2c0,0.4,0,0.8-0.1,1.2c0,0.4-0.1,0.7-0.2,1.1c-0.1,0.3-0.3,0.6-0.4,0.7c-0.2,0.2-0.4,0.3-0.7,0.3
					c-0.3,0-0.5-0.1-0.7-0.3c-0.2-0.2-0.3-0.4-0.4-0.7c-0.1-0.3-0.2-0.7-0.2-1.1c0-0.4-0.1-0.8-0.1-1.2C27.3-24,27.4-24.4,27.4-24.8
					z"/>
				<path class="st1" d="M34.6-21.2c-0.2,0.4-0.4,0.6-0.7,0.6c-0.4,0-0.7-0.2-0.9-0.7c-0.2-0.4-0.3-1.1-0.3-1.8v-1.3
					c0-0.5,0-0.9,0-1.4c0-0.5,0-1,0.1-1.4c-0.1,0-0.3,0-0.4,0c-0.1,0-0.3,0-0.4,0c0,0.4,0,0.9,0.1,1.4c0,0.5,0,1,0,1.4v1.6
					c0,0.5,0,0.9,0,1.4c0,0.5,0,1-0.1,1.4c0.2-0.1,0.3-0.1,0.4-0.1c0,0,0.1,0,0.2,0c0.1,0,0.1,0,0.2,0.1c0-0.4,0-0.8,0-1.2h0
					c0.2,0.4,0.4,0.8,0.6,1c0.2,0.2,0.5,0.4,0.8,0.4c0.2,0,0.3,0,0.5-0.1c0.2-0.1,0.3-0.2,0.5-0.4c0.1-0.2,0.3-0.5,0.3-0.8
					c0.1-0.3,0.1-0.8,0.1-1.3c0-0.4,0-0.9,0-1.3c0-0.5,0-1,0-1.5v-1c0-0.2,0-0.3,0-0.5c0-0.2,0-0.3,0-0.4c-0.1,0-0.2,0-0.4,0
					c-0.1,0-0.3,0-0.4,0c0,0.5,0,1.1,0,1.6c0,0.6,0,1.1,0,1.7v0.9C34.9-22.1,34.8-21.6,34.6-21.2z"/>
				<path class="st1" d="M39.3-23.3c0,0.4,0,0.8,0,1.2c0,0.4,0,0.8,0,1.2c0,0.4,0,0.7,0,0.9c0.2-0.1,0.3-0.1,0.4-0.1s0.2,0,0.4,0.1
					c0-0.3,0-0.5-0.1-0.8c0-0.2,0-0.5,0-0.7h0c0,0.2,0.1,0.3,0.2,0.5c0.1,0.2,0.2,0.4,0.3,0.5c0.1,0.2,0.3,0.3,0.4,0.4
					c0.2,0.1,0.4,0.2,0.6,0.2c0.2,0,0.5-0.1,0.7-0.2c0.2-0.1,0.4-0.4,0.6-0.7c0.2-0.3,0.3-0.7,0.4-1.2c0.1-0.5,0.2-1,0.2-1.7
					c0-0.7-0.1-1.2-0.2-1.7c-0.1-0.5-0.3-0.9-0.4-1.2c-0.2-0.3-0.4-0.5-0.6-0.7c-0.2-0.1-0.5-0.2-0.7-0.2c-0.7,0-1.1,0.5-1.4,1.4h0
					v-1c0-0.3,0-0.7,0-1.1c0-0.4,0-0.8,0-1.2c0-0.4,0-0.8,0-1.1c0-0.4,0-0.7,0-0.9c-0.2,0.1-0.3,0.1-0.4,0.1s-0.2,0-0.4-0.1
					c0,0.3,0,0.6,0,0.9c0,0.4,0,0.7,0,1.1c0,0.4,0,0.8,0,1.2c0,0.4,0,0.8,0,1.1v2.5C39.3-24,39.3-23.7,39.3-23.3z M42.5-22
					c-0.1,0.4-0.2,0.7-0.3,1c-0.1,0.2-0.3,0.4-0.4,0.5c-0.2,0.1-0.3,0.1-0.4,0.1c-0.2,0-0.4-0.1-0.6-0.3c-0.2-0.2-0.3-0.4-0.4-0.7
					c-0.1-0.3-0.2-0.6-0.2-1c0-0.4-0.1-0.8-0.1-1.2c0-2.1,0.4-3.2,1.3-3.2c0.2,0,0.4,0.1,0.6,0.3c0.2,0.2,0.3,0.4,0.4,0.7
					c0.1,0.3,0.2,0.6,0.2,1.1c0.1,0.4,0.1,0.8,0.1,1.3C42.6-22.9,42.5-22.4,42.5-22z"/>
				<path class="st1" d="M44.2-21.8c0.1,0.5,0.3,0.9,0.5,1.2c0.2,0.3,0.4,0.5,0.7,0.7c0.3,0.1,0.5,0.2,0.8,0.2
					c0.3,0,0.5-0.1,0.8-0.2c0.3-0.1,0.5-0.4,0.7-0.7c0.2-0.3,0.4-0.7,0.5-1.2c0.1-0.5,0.2-1.1,0.2-1.8c0-0.7-0.1-1.3-0.2-1.8
					c-0.1-0.5-0.3-0.9-0.5-1.2c-0.2-0.3-0.4-0.5-0.7-0.6c-0.3-0.1-0.5-0.2-0.8-0.2c-0.3,0-0.5,0.1-0.8,0.2c-0.3,0.1-0.5,0.3-0.7,0.6
					c-0.2,0.3-0.4,0.7-0.5,1.2c-0.1,0.5-0.2,1.1-0.2,1.8C44-22.9,44.1-22.3,44.2-21.8z M44.9-24.8c0-0.4,0.1-0.7,0.2-1.1
					c0.1-0.3,0.3-0.6,0.4-0.7c0.2-0.2,0.4-0.3,0.7-0.3s0.5,0.1,0.7,0.3c0.2,0.2,0.3,0.4,0.4,0.7c0.1,0.3,0.2,0.7,0.2,1.1
					c0,0.4,0.1,0.8,0.1,1.2c0,0.4,0,0.8-0.1,1.2c0,0.4-0.1,0.7-0.2,1.1c-0.1,0.3-0.3,0.6-0.4,0.7c-0.2,0.2-0.4,0.3-0.7,0.3
					s-0.5-0.1-0.7-0.3c-0.2-0.2-0.3-0.4-0.4-0.7C45-21.6,45-22,44.9-22.4c0-0.4-0.1-0.8-0.1-1.2C44.8-24,44.9-24.4,44.9-24.8z"/>
				<path class="st1" d="M50.1-25.7c-0.1,0.6-0.3,1.2-0.4,1.9c-0.1,0.7-0.3,1.3-0.4,2c-0.2,0.7-0.3,1.3-0.5,1.9c0.1,0,0.1,0,0.2-0.1
					c0.1,0,0.1,0,0.2,0c0.1,0,0.1,0,0.2,0c0.1,0,0.1,0,0.2,0.1c0.2-1,0.3-1.9,0.5-2.9c0.2-1,0.4-1.9,0.6-3c0.1,0.3,0.2,0.7,0.3,1.1
					c0.1,0.5,0.2,1,0.3,1.5c0.1,0.5,0.2,1.1,0.3,1.6c0.1,0.6,0.2,1.1,0.3,1.6c0.1-0.1,0.2-0.1,0.3-0.1c0,0,0.1,0,0.1,0
					c0,0,0.1,0,0.1,0.1c0.1-1,0.3-1.9,0.5-2.9c0.2-0.9,0.4-1.9,0.6-2.9c0.1,0.3,0.2,0.7,0.3,1.2c0.1,0.5,0.2,1,0.3,1.5
					c0.1,0.5,0.2,1.1,0.3,1.6c0.1,0.5,0.2,1.1,0.3,1.5C55-20,55.1-20,55.2-20c0.1,0,0.2,0,0.3,0.1c-0.3-1.2-0.7-2.4-1-3.6
					c-0.3-1.2-0.6-2.4-0.8-3.6c-0.1,0-0.1,0-0.2,0c0,0-0.1,0-0.1,0c0,0-0.1,0-0.1,0c-0.2,0.9-0.3,1.8-0.5,2.7
					c-0.2,0.9-0.4,1.9-0.6,2.9c-0.1-0.3-0.2-0.7-0.3-1.1c-0.1-0.5-0.2-0.9-0.3-1.5c-0.1-0.5-0.2-1-0.3-1.6c-0.1-0.5-0.2-1-0.3-1.4
					c-0.1,0-0.2,0-0.3,0c-0.1,0-0.2,0-0.3,0C50.3-26.8,50.2-26.3,50.1-25.7z"/>
				<path class="st1" d="M59.3-25.7c0-0.2-0.1-0.3-0.2-0.5c-0.1-0.2-0.2-0.4-0.3-0.5c-0.1-0.2-0.3-0.3-0.4-0.4
					c-0.2-0.1-0.4-0.2-0.6-0.2c-0.2,0-0.5,0.1-0.7,0.2c-0.2,0.1-0.4,0.3-0.6,0.6c-0.2,0.3-0.3,0.7-0.4,1.2c-0.1,0.5-0.2,1-0.2,1.7
					c0,0.6,0.1,1.2,0.2,1.7c0.1,0.5,0.3,0.9,0.4,1.2c0.2,0.3,0.4,0.6,0.6,0.7c0.2,0.2,0.5,0.2,0.7,0.2c0.7,0,1.1-0.5,1.4-1.5h0v1.5
					c0,0.4,0,0.8,0,1.2c0,0.4,0,0.8,0,1.1c0,0.4,0,0.7,0,1c0,0.3,0,0.6,0,0.8c0.1,0,0.1,0,0.2-0.1c0.1,0,0.1,0,0.2,0s0.1,0,0.2,0
					c0.1,0,0.1,0,0.2,0.1c0-0.3,0-0.8,0-1.4c0-0.6,0-1.3,0-2c0-0.7,0-1.5,0-2.3c0-0.8,0-1.5,0-2.1c0-0.7,0-1.3,0-1.9
					c0-0.6,0-1.1,0-1.7c-0.1,0-0.2,0-0.4,0c-0.1,0-0.2,0-0.3,0L59.3-25.7L59.3-25.7z M56.9-25.2c0.1-0.4,0.2-0.7,0.3-1
					c0.1-0.2,0.2-0.4,0.4-0.5c0.2-0.1,0.3-0.1,0.4-0.1c0.2,0,0.4,0.1,0.6,0.3c0.2,0.2,0.3,0.5,0.4,0.8c0.1,0.3,0.2,0.7,0.2,1.1
					c0.1,0.4,0.1,0.8,0.1,1.2c0,1-0.1,1.7-0.3,2.2c-0.2,0.5-0.5,0.8-1,0.8c-0.2,0-0.4-0.1-0.6-0.3c-0.2-0.2-0.3-0.4-0.4-0.7
					c-0.1-0.3-0.2-0.7-0.2-1.1c-0.1-0.4-0.1-0.8-0.1-1.3C56.8-24.3,56.8-24.8,56.9-25.2z"/>
				<path class="st1" d="M61.5-20.9c0.4,0.7,0.9,1.1,1.5,1.1c0.3,0,0.6-0.1,0.8-0.3c0.2-0.2,0.4-0.4,0.6-0.7c0.2-0.3,0.3-0.6,0.3-1
					c0.1-0.4,0.1-0.8,0.1-1.2c0-0.1,0-0.2,0-0.3c0-0.1,0-0.2,0-0.3c-0.3,0-0.6,0-1,0c-0.3,0-0.6,0-1,0c-0.2,0-0.4,0-0.6,0
					c-0.2,0-0.4,0-0.6,0c0-0.1,0-0.1,0-0.2v-0.2c0-0.4,0-0.8,0.1-1.1c0.1-0.3,0.2-0.6,0.3-0.9c0.1-0.2,0.3-0.4,0.5-0.6
					c0.2-0.1,0.4-0.2,0.7-0.2c0.1,0,0.2,0,0.4,0.1c0.1,0.1,0.2,0.1,0.4,0.2c0.1,0.1,0.2,0.2,0.3,0.3c0.1,0.1,0.2,0.3,0.3,0.4l0,0
					l-0.1-0.7c-0.2-0.2-0.4-0.5-0.7-0.6c-0.3-0.2-0.5-0.3-0.8-0.3c-0.3,0-0.6,0.1-0.9,0.3c-0.3,0.2-0.5,0.4-0.7,0.7
					c-0.2,0.3-0.3,0.7-0.4,1.1c-0.1,0.4-0.2,0.9-0.2,1.4C60.9-22.6,61.1-21.6,61.5-20.9z M62.4-20.5c-0.2-0.2-0.3-0.4-0.4-0.6
					c-0.1-0.3-0.2-0.5-0.2-0.9c-0.1-0.3-0.1-0.6-0.1-0.9c0.2,0,0.4,0,0.6,0c0.2,0,0.4,0,0.6,0c0.2,0,0.4,0,0.6,0c0.2,0,0.4,0,0.6,0
					c0,0.3,0,0.6,0,0.9c0,0.3-0.1,0.6-0.2,0.9c-0.1,0.3-0.2,0.5-0.3,0.7c-0.1,0.2-0.3,0.3-0.6,0.3C62.8-20.3,62.6-20.4,62.4-20.5z"
					/>
				<path class="st1" d="M67.7-21C67.6-21,67.5-21,67.4-21c-0.1,0-0.3-0.1-0.4-0.2c-0.1-0.1-0.2-0.3-0.3-0.4
					c-0.1-0.2-0.1-0.4-0.2-0.7c0-0.3-0.1-0.5-0.1-0.8v-1.7c0-0.7,0-1.2,0-1.6c0-0.4,0-0.7,0-0.9c-0.1,0-0.2,0-0.4,0
					c-0.1,0-0.3,0-0.4,0c0,0.3,0,0.8,0,1.4c0,0.6,0,1.3,0,2.2v0.5c0,0.4,0,0.9,0,1.4c0,0.5,0,1.1,0,1.8c0.1,0,0.1,0,0.2-0.1
					c0.1,0,0.1,0,0.2,0c0.1,0,0.1,0,0.2,0c0.1,0,0.1,0,0.2,0.1c0-0.4,0-0.7,0-0.9c0-0.2,0-0.4,0-0.6l0,0c0.4,1.1,0.7,1.6,1.2,1.6
					c0.1,0,0.1,0,0.1,0c0,0,0.1,0,0.1-0.1c0-0.1,0-0.3-0.1-0.6c0-0.2,0-0.5,0-0.7l-0.1-0.1C67.8-21.1,67.8-21.1,67.7-21z"/>
				<path class="st1" d="M69-27.5c0.1,0.5,0.3,0.9,0.3,1.4c0.1,0.5,0.1,1,0.2,1.5c0,0.5,0,1.1,0,1.7c0,0.6,0,1.1,0,1.7
					c0,0.5-0.1,1-0.2,1.5c-0.1,0.5-0.2,1-0.3,1.5c-0.1,0.5-0.3,1-0.5,1.4l0.2,0.3c0.5-0.9,0.8-1.9,1.1-3c0.2-1.1,0.4-2.2,0.4-3.4
					c0-1.1-0.1-2.2-0.4-3.3c-0.2-1.1-0.6-2.1-1.1-3l-0.2,0.3C68.6-28.4,68.8-27.9,69-27.5z"/>
			</g>
		</g>
		<path class="st1" d="M-57.3,8.4c0,2.5,0,3,0,3.5c0,0.5-0.2,0.8-0.7,0.9c-0.1,0-0.4,0.1-0.5,0.1c-0.1,0-0.1,0-0.1,0.1
			c0,0.1,0.1,0.1,0.3,0.1c0.7,0,1.7,0,1.8,0c0.2,0,1.4,0,1.9,0c1,0,2.1-0.1,2.9-0.7c0.4-0.3,1.1-1.1,1.1-2.2c0-1.2-0.5-2.4-1.9-3.7
			c1.3-1.7,2.4-3.1,3.4-4.1c6.5-7.3,17.9-2.7,17.9-2.7c0-0.1-13.2-6.3-20.6,3.9c-0.7,0.9-1.4,2-1.8,2.4C-53.8,6-53.8,6-53.9,6l-2,0
			C-56,6.1-56,6-56,5.9V5.5c0-1.5,0-2.8,0.1-3.5c0-0.5,0.1-0.8,0.6-0.9c0.2,0,0.6-0.1,0.7-0.1c0.1,0,0.1,0,0.1-0.1
			c0-0.1-0.1-0.1-0.3-0.1c-0.9,0-1.9,0.1-2,0.1c0,0-1-0.1-1.5-0.1c-0.2,0-0.3,0-0.3,0.1c0,0,0,0.1,0.1,0.1c0.1,0,0.3,0,0.5,0.1
			c0.3,0.1,0.4,0.4,0.5,0.9c0.1,0.7,0.1,1.9,0.1,3.5V8.4z M-56,7c0-0.1,0-0.1,0.1-0.2c0.2-0.1,1-0.3,1.7-0.3c0.4,0,0.8,0,1.2,0.3
			c0.6,0.4,1,1.3,1,2.5c0,2-1.1,3.2-2.8,3.2c-0.5,0-0.9-0.1-1.1-0.1c-0.1,0-0.1-0.1-0.1-0.2V7z"/>
		<path class="st1" d="M-69.8,9.5c0,2.9,0,3.5,0,4.1c0,0.6-0.2,0.9-0.8,1.1c-0.1,0-0.5,0.1-0.6,0.1c-0.1,0-0.2,0-0.2,0.1
			c0,0.1,0.1,0.1,0.3,0.1c0.8,0,2-0.1,2.1-0.1c0.5,0,1.2,0.1,2,0.1c3.1,0,3.8-1.9,3.8-2.8c0-1.5-0.9-2.5-1.8-3.4
			c1.4-0.4,3.3-1.8,3.3-4c0-2-1.6-4.1-4.8-4.1c-0.4,0-2.4,0.1-2.5,0.1c-0.1,0-1.3-0.1-1.8-0.1c-0.2,0-0.3,0-0.3,0.1
			c0,0.1,0,0.1,0.1,0.1c0.2,0,0.4,0,0.6,0.1c0.4,0.1,0.5,0.5,0.5,1c0.1,0.8,0.1,2.3,0.1,4.1V9.5z M-68.3,9.1c0-0.1,0-0.2,0.1-0.2
			c0.1,0,0.5-0.1,1.1-0.1c1.1,0,1.3,0,1.7,0.5c0.4,0.5,0.7,1.1,0.7,1.9c0,1.6-0.7,3.2-2.5,3.2c-0.2,0-0.6,0-0.9-0.1
			c-0.2,0-0.2-0.1-0.2-0.2V9.1z M-68.3,7.1c0-1.5,0-3.8,0-4.1c0.1-0.9,0.1-1.2,0.6-1.5c0.5-0.2,1.3-0.3,1.7-0.3c1,0,2.7,0.5,2.7,2.7
			c0,1.1-0.4,2.8-1.8,3.8c-0.6,0.4-1.1,0.5-1.6,0.5c-0.2,0-1.2,0-1.5,0c-0.1,0-0.1,0-0.1-0.1V7.1z"/>
		<path class="st1" d="M-44.4,8.3c0,2.5,0,3,0,3.5c0,0.6-0.2,0.8-0.7,0.9c-0.1,0-0.4,0.1-0.6,0.1c-0.1,0-0.1,0-0.1,0.1
			c0,0.1,0.1,0.1,0.3,0.1c0.7,0,1.8,0,1.8,0c0.1,0,3.4,0,3.7,0c0.3,0,0.6,0.1,0.7,0.1c0.1,0,0.2,0.1,0.2,0.1c0,0,0.1-0.1,0.1-0.2
			c0-0.1-0.1-0.3-0.1-0.8c0-0.2,0-0.9-0.1-1.1c0-0.1,0-0.2-0.1-0.2c-0.1,0-0.1,0.1-0.1,0.2c0,0.1,0,0.4-0.1,0.6
			c-0.1,0.3-0.3,0.5-1.2,0.6c-0.3,0-2.1,0.1-2.2,0.1c-0.1,0-0.1-0.1-0.1-0.2V7.8c0-0.1,0-0.2,0.1-0.2c0.2,0,2.2,0,2.6,0
			c0.4,0,0.6,0.1,0.8,0.2c0.1,0.1,0.2,0.2,0.2,0.2c0,0,0.1,0,0.1-0.1c0-0.1-0.1-0.4-0.1-0.9c0-0.3-0.1-0.9-0.1-1
			c0-0.1,0-0.3-0.1-0.3c-0.1,0-0.1,0.1-0.1,0.1c0,0.2,0,0.3-0.1,0.5c-0.1,0.2-0.2,0.5-0.8,0.6C-41,7-42.6,7-42.9,7
			C-43,7-43,7-43,6.9V5.5c0-0.6,0-2.4,0-2.8c0-1.1,0.3-1.3,1.9-1.3c0.4,0,1.1,0,1.6,0.2c0.4,0.2,0.6,0.5,0.7,1.2
			c0,0.2,0.1,0.2,0.1,0.2c0.1,0,0.1-0.1,0.1-0.2c0-0.1-0.1-1.2-0.2-1.6c-0.1-0.4-0.2-0.4-0.9-0.4c-2.5,0-3.5,0.1-4,0.1
			c-0.1,0-1.1,0-1.6,0c-0.2,0-0.3,0-0.3,0.1c0,0.1,0,0.1,0.1,0.1c0.1,0,0.3,0,0.5,0.1c0.3,0.1,0.4,0.4,0.5,0.9
			c0.1,0.7,0.1,2,0.1,3.5V8.3z"/>
		<path class="st1" d="M-28.5,13.3c3.8,0,6.6-2.3,6.6-6.1c0-3.6-2.7-6.6-6.7-6.6c-4.6,0-6.5,3.4-6.5,6.4
			C-35.2,9.6-33.2,13.3-28.5,13.3 M-28.2,1.3c1.5,0,4.5,0.8,4.5,5.5c0,3.9-2.4,5.9-5,5.9c-2.8,0-4.8-1.7-4.8-5.3
			C-33.5,3.7-31.2,1.3-28.2,1.3"/>
		<path class="st1" d="M-15,5.6c0,1.6,0,1.9,0,2.2c0,0.3-0.1,0.5-0.4,0.6c-0.1,0-0.3,0-0.4,0c0,0-0.1,0-0.1,0.1
			c0,0.1,0.1,0.1,0.2,0.1c0.5,0,1.2,0,1.2,0c0.1,0,2.3,0,2.5,0c0.2,0,0.4,0,0.5,0.1c0,0,0.1,0,0.1,0c0,0,0,0,0-0.1
			c0-0.1-0.1-0.2-0.1-0.5c0-0.1,0-0.5-0.1-0.7c0,0,0-0.1-0.1-0.1c-0.1,0-0.1,0-0.1,0.1c0,0.1,0,0.2-0.1,0.4C-11.8,7.9-11.9,8-12.4,8
			c-0.2,0-1.4,0-1.5,0c0,0-0.1,0-0.1-0.1V5.2c0-0.1,0-0.1,0.1-0.1c0.1,0,1.5,0,1.8,0c0.2,0,0.4,0,0.5,0.1c0.1,0.1,0.1,0.1,0.2,0.1
			c0,0,0.1,0,0.1-0.1c0-0.1-0.1-0.2-0.1-0.6c0-0.2,0-0.6,0-0.7c0-0.1,0-0.2-0.1-0.2c0,0-0.1,0-0.1,0.1c0,0.1,0,0.2,0,0.3
			c0,0.1-0.1,0.3-0.5,0.3c-0.3,0-1.4,0-1.6,0c-0.1,0-0.1,0-0.1-0.1V3.8c0-0.3,0-1.5,0-1.7c0-0.7,0.2-0.8,1.3-0.8c0.3,0,0.8,0,1,0.1
			c0.3,0.1,0.4,0.3,0.5,0.7c0,0.1,0,0.2,0.1,0.2c0.1,0,0.1-0.1,0.1-0.2c0-0.1-0.1-0.8-0.1-1c-0.1-0.3-0.2-0.3-0.6-0.3
			c-0.8,0-1.4,0-1.8,0c-0.4,0-0.7,0-0.9,0c0,0-0.2,0-0.5,0c-0.2,0-0.4,0-0.6,0c-0.1,0-0.2,0-0.2,0.1c0,0,0,0.1,0.1,0.1
			c0.1,0,0.2,0,0.3,0.1c0.2,0,0.2,0.2,0.3,0.5C-15,2-15,2.8-15,3.8V5.6z"/>
		<path class="st1" d="M-7.3,3.7c0-1.5,0-2.1,0.2-2.3C-7,1.3-6.5,1.2-5.7,1.2c0.5,0,1,0,1.3,0.3c0.1,0.2,0.2,0.4,0.2,0.6
			c0,0.1,0,0.1,0.1,0.1c0,0,0.1-0.1,0.1-0.2c0-0.1-0.1-0.7-0.2-1c-0.1-0.2-0.1-0.3-0.7-0.3c-0.8,0-1.3,0-1.8,0c-0.5,0-0.8,0-1.1,0
			c0,0-0.2,0-0.4,0c-0.2,0-0.4,0-0.6,0C-9,0.8-9,0.9-9,0.9C-9,0.9-9,1-8.9,1c0.1,0,0.2,0,0.3,0.1c0.2,0,0.2,0.2,0.3,0.5
			C-8.3,2-8.3,2.8-8.3,3.8v1.8c0,1.6,0,1.9,0,2.2c0,0.3-0.1,0.5-0.4,0.6c-0.1,0-0.3,0-0.4,0c0,0-0.1,0-0.1,0.1c0,0.1,0,0.1,0.2,0.1
			c0.5,0,1.1,0,1.2,0c0,0,0.8,0,1.2,0c0.1,0,0.2,0,0.2-0.1c0,0,0-0.1-0.1-0.1c-0.1,0-0.2,0-0.3,0c-0.3-0.1-0.4-0.2-0.4-0.6
			c0-0.3,0-0.6,0-2.2V3.7z"/>
		<path class="st1" d="M-1,3.7c0-1.5,0-2.1,0.2-2.3c0.2-0.2,0.6-0.2,1.4-0.2c0.6,0,1,0,1.3,0.3C2,1.7,2,1.9,2.1,2.1
			c0,0.1,0,0.1,0.1,0.1c0,0,0.1-0.1,0.1-0.2c0-0.1-0.1-0.7-0.2-1C2,0.8,2,0.8,1.4,0.8c-0.8,0-1.3,0-1.8,0c-0.5,0-0.8,0-1.1,0
			c-0.1,0-0.2,0-0.4,0c-0.2,0-0.4,0-0.6,0c-0.1,0-0.2,0-0.2,0.1c0,0,0,0.1,0.1,0.1c0.1,0,0.2,0,0.3,0.1c0.2,0,0.2,0.2,0.3,0.5
			C-2,2-2,2.8-2,3.8v1.8c0,1.6,0,1.9,0,2.2c0,0.3-0.1,0.5-0.4,0.6c-0.1,0-0.3,0-0.4,0c0,0-0.1,0-0.1,0.1c0,0.1,0,0.1,0.2,0.1
			c0.5,0,1.1,0,1.2,0c0,0,0.8,0,1.2,0c0.1,0,0.2,0,0.2-0.1c0,0,0-0.1-0.1-0.1c-0.1,0-0.2,0-0.3,0C-0.9,8.3-1,8.1-1,7.7
			c0-0.3,0-0.6,0-2.2V3.7z"/>
		<path class="st1" d="M5.3,3.8c0-1,0-1.8,0-2.2c0-0.3,0.1-0.5,0.4-0.5C5.9,1,6.1,1,6.2,1c0.1,0,0.1,0,0.1-0.1c0,0-0.1-0.1-0.2-0.1
			c-0.6,0-1.3,0-1.3,0c-0.1,0-0.7,0-1,0c-0.1,0-0.2,0-0.2,0.1c0,0,0,0.1,0.1,0.1C3.8,1,4,1,4,1.1c0.2,0,0.2,0.2,0.3,0.5
			C4.4,2,4.4,2.8,4.4,3.8v1.8c0,1.6,0,1.9,0,2.2c0,0.3-0.1,0.5-0.3,0.5c-0.1,0-0.2,0-0.3,0c0,0-0.1,0-0.1,0.1c0,0.1,0,0.1,0.2,0.1
			c0.3,0,1,0,1.1,0c0,0,0.7,0,1,0c0.1,0,0.2,0,0.2-0.1c0,0,0-0.1-0.1-0.1c-0.1,0-0.1,0-0.3,0C5.4,8.2,5.4,8.1,5.3,7.7
			c0-0.3,0-0.6,0-2.2V3.8z"/>
		<path class="st1" d="M9.2,5.6c0,1.6,0,1.9,0,2.2c0,0.3-0.1,0.5-0.4,0.6c-0.1,0-0.3,0-0.4,0c0,0-0.1,0-0.1,0.1c0,0.1,0,0.1,0.2,0.1
			c0.5,0,1.1,0,1.2,0c0.2,0,1,0,1.5,0c1.3,0,1.8-0.4,2-0.6c0.2-0.2,0.5-0.7,0.5-1.2c0-1.5-1.1-2.4-2.7-2.4c-0.1,0-0.2,0-0.3,0
			c0,0-0.1,0.1-0.1,0.1c0,0.1,0.1,0.1,0.3,0.1c1.1,0,1.9,0.7,1.9,1.6c0,0.3,0,1-0.6,1.5c-0.5,0.6-1.2,0.5-1.4,0.5
			c-0.2,0-0.5,0-0.6-0.1c-0.1,0-0.1-0.1-0.1-0.2V3.8c0-1,0-1.8,0-2.2c0-0.3,0.1-0.5,0.4-0.5C10.7,1,11,1,11.1,1c0.1,0,0.1,0,0.1-0.1
			c0,0,0-0.1-0.2-0.1c-0.6,0-1.3,0-1.3,0c0,0-0.7,0-1,0c-0.1,0-0.2,0-0.2,0.1c0,0,0,0.1,0.1,0.1c0.1,0,0.2,0,0.3,0.1
			c0.2,0,0.2,0.2,0.3,0.5C9.2,2,9.2,2.8,9.2,3.8V5.6z"/>
		<path class="st1" d="M18.4,3.7c0-1,0-1.8,0-2.2c0-0.3,0.1-0.5,0.4-0.5C19,1,19.2,1,19.3,1c0.1,0,0.1,0,0.1-0.1c0,0,0-0.1-0.2-0.1
			c-0.6,0-1.2,0-1.3,0c0,0-0.8,0-1.1,0c-0.1,0-0.2,0-0.2,0.1c0,0,0,0.1,0.1,0.1c0.1,0,0.2,0,0.3,0c0.2,0,0.3,0.2,0.3,0.5
			c0.1,0.4,0.1,1.2,0.1,2.2V8l-1.5,0c-0.7,0-0.9-0.1-1.1-0.3c-0.1-0.2-0.1-0.3-0.2-0.3c0-0.1-0.1-0.1-0.1-0.1c0,0-0.1,0-0.1,0.1
			c0,0.1,0.2,1,0.2,1.1c0,0.1,0.1,0.2,0.1,0.2c0.1,0,0.2-0.1,0.5-0.1c0.3,0,0.7,0,0.8,0h3.8c0.3,0,0.6,0,0.8,0c0.2,0,0.3,0,0.3,0
			c0,0,0-0.1,0-0.1c0-0.3,0-1,0-1.2c0-0.1,0-0.1-0.1-0.1c0,0-0.1,0-0.1,0.2l0,0.1c0,0.3-0.3,0.5-1.3,0.6l-1.1,0V3.7z"/>
		<path class="st1" d="M24.2,8.3c0.1,0.3,0.2,0.4,0.2,0.4c0.1,0,0.1-0.1,0.3-0.4c0.2-0.4,1.9-4.6,2.5-6.1c0.4-0.9,0.7-1,0.9-1.1
			C28.2,1,28.4,1,28.5,1c0.1,0,0.1,0,0.1-0.1c0-0.1-0.1-0.1-0.2-0.1c-0.2,0-0.9,0-1.7,0c-0.2,0-0.4,0-0.4,0.1c0,0,0,0,0.1,0.1
			c0.1,0,0.2,0.1,0.1,0.3l-0.9,2.3c0,0.1,0,0.1-0.1,0.1h-2.4c0,0-0.1,0-0.1-0.1l-0.6-1.6c-0.1-0.2-0.2-0.5-0.2-0.7
			C22.2,1,22.4,1,22.6,1h0.1c0.1,0,0.1,0,0.1-0.1c0-0.1-0.1-0.1-0.2-0.1c-0.3,0-0.8,0-0.9,0c-0.1,0-0.6,0-1.1,0
			c-0.1,0-0.2,0-0.2,0.1c0,0,0,0.1,0.1,0.1c0.1,0,0.2,0,0.3,0c0.5,0.1,0.7,0.4,0.9,0.9L24.2,8.3z M25.4,4C25.4,4,25.4,4.1,25.4,4
			l-1,2.8c-0.1,0.2-0.1,0.2-0.2,0l-1-2.8c0,0,0-0.1,0-0.1H25.4z"/>
		<g>
			<path class="st1" d="M29.1,8.8c1,0,1.8-0.8,1.8-1.8c0-1-0.8-1.8-1.8-1.8c-1,0-1.8,0.8-1.8,1.8C27.3,8,28.1,8.8,29.1,8.8z
				 M29.1,5.5c0.8,0,1.5,0.7,1.5,1.6c0,0.9-0.6,1.5-1.5,1.5c-0.8,0-1.5-0.7-1.5-1.5C27.6,6.1,28.3,5.5,29.1,5.5z M28.4,8.1h0.8
				c0.5,0,0.7-0.2,0.7-0.6c0-0.4-0.2-0.5-0.6-0.6L30,6h-0.4l-0.6,0.9h-0.3V6h-0.3V8.1z M28.8,7.1h0.3c0.3,0,0.6,0,0.6,0.3
				c0,0.3-0.2,0.3-0.5,0.3h-0.4V7.1z"/>
		</g>
		<g>
			<path class="st1" d="M-19.5,12.8c1,0,1.8-0.8,1.8-1.8c0-1-0.8-1.8-1.8-1.8c-1,0-1.8,0.8-1.8,1.8C-21.4,12-20.5,12.8-19.5,12.8z
				 M-19.5,9.4c0.8,0,1.5,0.7,1.5,1.6c0,0.9-0.6,1.5-1.5,1.5c-0.8,0-1.5-0.7-1.5-1.5C-21,10.1-20.4,9.4-19.5,9.4z M-20.3,12h0.8
				c0.5,0,0.7-0.2,0.7-0.6c0-0.4-0.2-0.5-0.6-0.6l0.6-0.9H-19l-0.6,0.9h-0.3V9.9h-0.3V12z M-19.9,11.1h0.3c0.3,0,0.6,0,0.6,0.3
				c0,0.3-0.2,0.3-0.5,0.3h-0.4V11.1z"/>
		</g>
	</g>
</symbol>
<g id="Layer_1">
	
		<use xlink:href="#New_Symbol"  width="210.7" height="141.5" x="-105.3" y="-71" transform="matrix(1 0 0 -1 105.3471 70.5)" style="overflow:visible;"/>
</g>
<g id="Border">
</g>
</svg>
