<?xml version="1.0" encoding="iso-8859-1"?>
<!-- Generator: Adobe Illustrator 19.1.0, SVG Export Plug-In . SVG Version: 6.00 Build 0)  -->
<svg version="1.1" xmlns="http://www.w3.org/2000/svg" xmlns:xlink="http://www.w3.org/1999/xlink" x="0px" y="0px"
	 viewBox="0 0 269.437 82.636" style="enable-background:new 0 0 269.437 82.636;" xml:space="preserve">
<g id="Layer_1">
	<g>
		<path style="fill:#114B8A;" d="M0.052,8.515C0.52,8.099,1.104,7.592,1.677,7.059C2.678,6.123,4.29,4.654,4.29,3.185
			c0-0.845-0.754-1.443-1.742-1.443c-0.806,0-1.586,0.312-2.08,0.585l-0.13-1.118c0.754-0.325,1.56-0.533,2.379-0.533
			c1.638,0,2.951,0.884,2.951,2.587c0,1.508-1.625,3.12-2.626,4.121c-0.507,0.507-1.157,1.053-1.6,1.456h4.355v1.066H0.052V8.515z"
			/>
		<path style="fill:#114B8A;" d="M11.102,7.839H6.877V6.773l3.666-5.941h1.859v5.941h1.144v1.066h-1.144v2.067h-1.301V7.839z
			 M11.102,1.898h-0.025L8.242,6.773h2.859V1.898z"/>
		<path style="fill:#114B8A;" d="M14.352,5.915h3.341v0.988h-3.341V5.915z"/>
		<path style="fill:#114B8A;" d="M19.227,0.156h1.223v4.069h0.025c0.442-0.702,1.209-1.105,2.133-1.105
			c1.716,0,2.482,1.066,2.482,2.847v3.939h-1.222V6.474c0-1.547-0.338-2.301-1.404-2.366c-1.391,0-2.015,1.118-2.015,2.73v3.068
			h-1.223V0.156z"/>
		<path style="fill:#114B8A;" d="M30.107,3.12c2.016,0,3.367,1.456,3.367,3.471c0,1.898-1.378,3.471-3.367,3.471
			c-2.002,0-3.38-1.573-3.38-3.471C26.728,4.576,28.08,3.12,30.107,3.12z M30.107,9.074c1.431,0,2.067-1.3,2.067-2.483
			c0-1.261-0.767-2.483-2.067-2.483c-1.312,0-2.08,1.222-2.08,2.483C28.027,7.774,28.665,9.074,30.107,9.074z"/>
		<path style="fill:#114B8A;" d="M40.976,9.906h-1.183V8.853h-0.026c-0.364,0.754-1.248,1.209-2.171,1.209
			c-1.716,0-2.483-1.066-2.483-2.847V3.276h1.223v3.432c0,1.547,0.338,2.301,1.403,2.366c1.392,0,2.016-1.118,2.016-2.73V3.276
			h1.222V9.906z"/>
		<path style="fill:#114B8A;" d="M43.056,3.276h1.144v1.027h0.026c0.325-0.689,1.027-1.183,1.729-1.183
			c0.364,0,0.547,0.039,0.807,0.091v1.092c-0.221-0.091-0.468-0.117-0.676-0.117c-1.093,0-1.808,1.04-1.808,2.704v3.016h-1.222
			V3.276z"/>
		<path style="fill:#114B8A;" d="M51.766,0.832h2.457c1.885,0,3.185,0.611,3.185,2.288c0,1.248-0.728,1.872-1.872,2.158v0.026
			c1.235,0.104,2.106,0.91,2.106,2.184c0,1.95-1.612,2.418-3.458,2.418h-2.418V0.832z M53.065,4.706h0.715
			c1.261,0,2.327-0.117,2.327-1.456c0-1.079-0.923-1.352-1.677-1.352h-1.365V4.706z M53.065,8.84h0.975
			c1.171,0,2.224-0.247,2.224-1.469c0-1.404-1.235-1.599-2.354-1.599h-0.845V8.84z"/>
		<path style="fill:#114B8A;" d="M59.708,0.832h2.224c1.794,0,3.522,0.286,3.522,2.457c0,1.105-0.818,1.885-1.872,2.067v0.026
			c0.403,0.156,0.599,0.351,0.885,0.91l1.716,3.614H64.7L63.31,6.76c-0.403-0.884-0.832-0.884-1.521-0.884h-0.78v4.03h-1.3V0.832z
			 M61.008,4.732h1.105c1.235,0,1.963-0.546,1.963-1.417c0-0.819-0.624-1.339-1.82-1.339h-1.248V4.732z"/>
		<path style="fill:#114B8A;" d="M67.794,0.832h5.083v1.144h-3.783v2.652h3.445v1.144h-3.445v2.99h3.783v1.144h-5.083V0.832z"/>
		<path style="fill:#114B8A;" d="M78.857,0.676c2.756,0,4.368,2.002,4.368,4.693c0,2.756-1.599,4.693-4.368,4.693
			s-4.368-1.937-4.368-4.693C74.489,2.678,76.102,0.676,78.857,0.676z M78.857,8.918c2.093,0,2.99-1.742,2.99-3.549
			c0-1.846-0.988-3.562-2.99-3.549c-2.002-0.013-2.99,1.703-2.99,3.549C75.867,7.176,76.765,8.918,78.857,8.918z"/>
		<path style="fill:#114B8A;" d="M90.024,1.794h-1.378V0.416h1.378V1.794z M88.725,3.276h1.222v6.63h-1.222V3.276z"/>
		<path style="fill:#114B8A;" d="M91.688,8.606c0.481,0.312,1.17,0.468,1.521,0.468c0.559,0,1.248-0.234,1.248-0.949
			c0-1.209-2.873-1.105-2.873-2.964c0-1.378,1.026-2.041,2.34-2.041c0.572,0,1.04,0.117,1.521,0.26l-0.104,1.066
			c-0.273-0.169-1.001-0.338-1.287-0.338c-0.624,0-1.17,0.26-1.17,0.806c0,1.352,2.873,0.962,2.873,3.081
			c0,1.417-1.131,2.067-2.314,2.067c-0.624,0-1.261-0.065-1.819-0.364L91.688,8.606z"/>
		<path style="fill:#114B8A;" d="M101.646,4.264h-1.56V3.276h1.56V2.665c0-1.612,0.416-2.665,2.224-2.665
			c0.312,0,0.571,0.039,0.818,0.078l-0.052,0.988c-0.144-0.052-0.377-0.078-0.585-0.078c-1.053,0-1.184,0.676-1.184,1.573v0.715
			h1.756v0.988h-1.756v5.642h-1.222V4.264z"/>
		<path style="fill:#114B8A;" d="M108.849,3.12c2.015,0,3.367,1.456,3.367,3.471c0,1.898-1.379,3.471-3.367,3.471
			c-2.002,0-3.381-1.573-3.381-3.471C105.468,4.576,106.82,3.12,108.849,3.12z M108.849,9.074c1.43,0,2.066-1.3,2.066-2.483
			c0-1.261-0.767-2.483-2.066-2.483c-1.313,0-2.08,1.222-2.08,2.483C106.769,7.774,107.405,9.074,108.849,9.074z"/>
		<path style="fill:#114B8A;" d="M113.854,3.276h1.144v1.027h0.026c0.325-0.689,1.027-1.183,1.729-1.183
			c0.363,0,0.546,0.039,0.806,0.091v1.092c-0.221-0.091-0.468-0.117-0.676-0.117c-1.092,0-1.808,1.04-1.808,2.704v3.016h-1.222
			V3.276z"/>
		<path style="fill:#114B8A;" d="M122.837,3.744c0.61-0.364,1.339-0.624,2.184-0.624c1.898,0,2.665,0.936,2.665,2.743v2.743
			c0,0.754,0.026,1.105,0.052,1.3h-1.144V9.048h-0.026c-0.286,0.403-0.936,1.014-2.054,1.014c-1.431,0-2.432-0.624-2.432-2.067
			c0-1.664,1.82-2.184,3.081-2.184c0.481,0,0.819,0,1.301,0.026c0-1.144-0.416-1.729-1.639-1.729c-0.688,0-1.43,0.26-1.924,0.676
			L122.837,3.744z M126.464,6.747c-0.261,0-0.521-0.026-0.78-0.026c-0.663,0-2.301,0.104-2.301,1.274
			c0,0.702,0.676,1.079,1.234,1.079c1.209,0,1.847-0.754,1.847-1.742V6.747z"/>
		<path style="fill:#114B8A;" d="M134.445,8.97h-0.026c-0.325,0.494-1.079,1.092-2.262,1.092c-2.002,0-2.848-1.781-2.848-3.588
			c0-1.781,0.937-3.354,2.86-3.354c1.157,0,1.82,0.455,2.197,1.066h0.026v-4.03h1.222v9.75h-1.17V8.97z M132.443,9.074
			c1.378,0,1.95-1.365,1.95-2.47c0-1.235-0.638-2.496-1.964-2.496c-1.325,0-1.846,1.248-1.819,2.457
			C130.584,7.605,131.13,9.074,132.443,9.074z"/>
		<path style="fill:#114B8A;" d="M143.559,9.906h-1.183V8.853h-0.026c-0.364,0.754-1.248,1.209-2.171,1.209
			c-1.717,0-2.483-1.066-2.483-2.847V3.276h1.222v3.432c0,1.547,0.338,2.301,1.404,2.366c1.392,0,2.016-1.118,2.016-2.73V3.276
			h1.222V9.906z"/>
		<path style="fill:#114B8A;" d="M145.795,0.156h1.222v9.75h-1.222V0.156z"/>
		<path style="fill:#114B8A;" d="M152.776,4.264h-1.756v3.627c0,0.767,0.469,1.183,1.027,1.183c0.377,0,0.65-0.117,0.832-0.234v1.04
			c-0.272,0.078-0.649,0.182-1.04,0.182c-1.261,0-2.041-0.598-2.041-1.924V4.264h-1.495V3.276h1.495V1.742l1.222-0.39v1.924h1.756
			V4.264z"/>
		<path style="fill:#114B8A;" d="M157.924,3.276h1.17v0.936h0.026c0.325-0.494,1.079-1.092,2.249-1.092
			c1.924,0,2.86,1.573,2.86,3.354c0,1.82-0.846,3.588-2.848,3.588c-1.17,0-1.833-0.455-2.21-1.066h-0.026v3.64h-1.222V3.276z
			 M161.109,4.108c-1.326,0-1.964,1.261-1.964,2.496c0,1.105,0.572,2.47,1.95,2.47c1.313,0,1.859-1.469,1.833-2.509
			C162.955,5.369,162.435,4.108,161.109,4.108z"/>
		<path style="fill:#114B8A;" d="M166.179,3.744c0.611-0.364,1.34-0.624,2.185-0.624c1.898,0,2.665,0.936,2.665,2.743v2.743
			c0,0.754,0.026,1.105,0.052,1.3h-1.144V9.048h-0.026c-0.286,0.403-0.936,1.014-2.054,1.014c-1.431,0-2.432-0.624-2.432-2.067
			c0-1.664,1.82-2.184,3.081-2.184c0.481,0,0.819,0,1.301,0.026c0-1.144-0.416-1.729-1.639-1.729c-0.688,0-1.43,0.26-1.924,0.676
			L166.179,3.744z M169.807,6.747c-0.261,0-0.521-0.026-0.78-0.026c-0.663,0-2.301,0.104-2.301,1.274
			c0,0.702,0.676,1.079,1.234,1.079c1.209,0,1.847-0.754,1.847-1.742V6.747z"/>
		<path style="fill:#114B8A;" d="M176.618,4.264h-1.756v3.627c0,0.767,0.469,1.183,1.027,1.183c0.377,0,0.65-0.117,0.832-0.234v1.04
			c-0.272,0.078-0.649,0.182-1.04,0.182c-1.261,0-2.041-0.598-2.041-1.924V4.264h-1.495V3.276h1.495V1.742l1.222-0.39v1.924h1.756
			V4.264z"/>
		<path style="fill:#114B8A;" d="M179.607,1.794h-1.378V0.416h1.378V1.794z M178.308,3.276h1.222v6.63h-1.222V3.276z"/>
		<path style="fill:#114B8A;" d="M186.849,9.633c-0.468,0.169-1.001,0.429-2.093,0.429c-2.354,0-3.433-1.43-3.433-3.588
			c0-1.963,1.235-3.354,3.107-3.354c2.21,0,2.925,1.612,2.925,3.744h-4.731c0,1.313,1.026,2.21,2.184,2.21
			c0.807,0,1.742-0.416,2.041-0.663V9.633z M186.056,5.954c0-1.014-0.598-1.846-1.651-1.846c-1.195,0-1.689,0.988-1.78,1.846
			H186.056z"/>
		<path style="fill:#114B8A;" d="M188.993,3.276h1.183v1.053h0.026c0.364-0.754,1.248-1.209,2.171-1.209
			c1.716,0,2.483,1.066,2.483,2.847v3.939h-1.222V6.474c0-1.547-0.339-2.301-1.404-2.366c-1.392,0-2.016,1.118-2.016,2.73v3.068
			h-1.222V3.276z"/>
		<path style="fill:#114B8A;" d="M200.46,4.264h-1.756v3.627c0,0.767,0.469,1.183,1.027,1.183c0.377,0,0.65-0.117,0.832-0.234v1.04
			c-0.272,0.078-0.649,0.182-1.04,0.182c-1.261,0-2.041-0.598-2.041-1.924V4.264h-1.495V3.276h1.495V1.742l1.222-0.39v1.924h1.756
			V4.264z"/>
		<path style="fill:#114B8A;" d="M201.499,8.606c0.481,0.312,1.17,0.468,1.521,0.468c0.559,0,1.248-0.234,1.248-0.949
			c0-1.209-2.873-1.105-2.873-2.964c0-1.378,1.026-2.041,2.34-2.041c0.572,0,1.04,0.117,1.521,0.26l-0.104,1.066
			c-0.273-0.169-1.001-0.338-1.287-0.338c-0.624,0-1.17,0.26-1.17,0.806c0,1.352,2.873,0.962,2.873,3.081
			c0,1.417-1.131,2.067-2.314,2.067c-0.624,0-1.261-0.065-1.819-0.364L201.499,8.606z"/>
		<path style="fill:#114B8A;" d="M218.165,9.906h-1.417l-1.716-5.564h-0.026l-1.677,5.564h-1.417l-2.132-6.63h1.339l1.521,5.486
			h0.026l1.69-5.486h1.442l1.664,5.486h0.026l1.612-5.486h1.196L218.165,9.906z"/>
		<path style="fill:#114B8A;" d="M222.949,1.794h-1.378V0.416h1.378V1.794z M221.649,3.276h1.222v6.63h-1.222V3.276z"/>
		<path style="fill:#114B8A;" d="M228.631,4.264h-1.755v3.627c0,0.767,0.468,1.183,1.026,1.183c0.377,0,0.65-0.117,0.832-0.234v1.04
			c-0.272,0.078-0.649,0.182-1.04,0.182c-1.261,0-2.041-0.598-2.041-1.924V4.264h-1.495V3.276h1.495V1.742l1.223-0.39v1.924h1.755
			V4.264z"/>
		<path style="fill:#114B8A;" d="M230.164,0.156h1.222v4.069h0.026c0.442-0.702,1.209-1.105,2.132-1.105
			c1.717,0,2.483,1.066,2.483,2.847v3.939h-1.222V6.474c0-1.547-0.339-2.301-1.404-2.366c-1.392,0-2.016,1.118-2.016,2.73v3.068
			h-1.222V0.156z"/>
		<path style="fill:#114B8A;" d="M0.754,17.744c0.61-0.364,1.339-0.624,2.184-0.624c1.898,0,2.665,0.936,2.665,2.743v2.743
			c0,0.754,0.026,1.105,0.053,1.3H4.511v-0.858H4.484c-0.285,0.403-0.936,1.014-2.054,1.014C1.001,24.062,0,23.438,0,21.995
			c0-1.664,1.819-2.184,3.081-2.184c0.48,0,0.818,0,1.3,0.026c0-1.144-0.416-1.729-1.638-1.729c-0.689,0-1.431,0.26-1.925,0.676
			L0.754,17.744z M4.381,20.747c-0.26,0-0.521-0.026-0.78-0.026c-0.663,0-2.301,0.104-2.301,1.274c0,0.702,0.676,1.079,1.235,1.079
			c1.209,0,1.846-0.754,1.846-1.742V20.747z"/>
		<path style="fill:#114B8A;" d="M7.176,22.606c0.48,0.312,1.17,0.468,1.521,0.468c0.56,0,1.248-0.234,1.248-0.949
			c0-1.209-2.873-1.105-2.873-2.964c0-1.378,1.027-2.041,2.341-2.041c0.571,0,1.04,0.117,1.521,0.26l-0.104,1.066
			c-0.273-0.169-1.001-0.338-1.287-0.338c-0.624,0-1.17,0.26-1.17,0.806c0,1.352,2.873,0.962,2.873,3.081
			c0,1.417-1.131,2.067-2.314,2.067c-0.624,0-1.261-0.065-1.82-0.364L7.176,22.606z"/>
		<path style="fill:#114B8A;" d="M16.25,18.264h-1.755v3.627c0,0.767,0.468,1.183,1.026,1.183c0.378,0,0.65-0.117,0.832-0.234v1.04
			c-0.272,0.078-0.649,0.182-1.04,0.182c-1.261,0-2.041-0.598-2.041-1.924v-3.874h-1.495v-0.988h1.495v-1.534l1.223-0.39v1.924
			h1.755V18.264z"/>
		<path style="fill:#114B8A;" d="M17.784,14.156h1.222v4.069h0.026c0.441-0.702,1.209-1.105,2.132-1.105
			c1.716,0,2.483,1.066,2.483,2.847v3.939h-1.223v-3.432c0-1.547-0.338-2.301-1.403-2.366c-1.392,0-2.016,1.118-2.016,2.73v3.068
			h-1.222V14.156z"/>
		<path style="fill:#114B8A;" d="M25.714,17.276h1.144v0.962h0.026c0.468-0.767,1.131-1.118,2.106-1.118
			c0.767,0,1.534,0.39,1.885,1.287c0.455-0.949,1.456-1.287,2.054-1.287c1.69,0,2.302,1.092,2.302,2.535v4.251h-1.223v-3.952
			c0-0.819-0.194-1.846-1.183-1.846c-1.248,0-1.742,1.222-1.742,2.457v3.341h-1.222v-3.952c0-0.819-0.195-1.846-1.184-1.846
			c-1.248,0-1.742,1.222-1.742,2.457v3.341h-1.222V17.276z"/>
		<path style="fill:#114B8A;" d="M37.596,17.744c0.611-0.364,1.339-0.624,2.185-0.624c1.897,0,2.665,0.936,2.665,2.743v2.743
			c0,0.754,0.025,1.105,0.052,1.3h-1.144v-0.858h-0.026c-0.286,0.403-0.937,1.014-2.054,1.014c-1.431,0-2.432-0.624-2.432-2.067
			c0-1.664,1.82-2.184,3.081-2.184c0.481,0,0.819,0,1.3,0.026c0-1.144-0.416-1.729-1.638-1.729c-0.688,0-1.43,0.26-1.924,0.676
			L37.596,17.744z M41.223,20.747c-0.26,0-0.52-0.026-0.779-0.026c-0.663,0-2.302,0.104-2.302,1.274
			c0,0.702,0.677,1.079,1.235,1.079c1.209,0,1.846-0.754,1.846-1.742V20.747z"/>
		<path style="fill:#114B8A;" d="M53.989,23.906h-1.184v-1.053H52.78c-0.364,0.754-1.248,1.209-2.172,1.209
			c-1.716,0-2.482-1.066-2.482-2.847v-3.939h1.222v3.432c0,1.547,0.338,2.301,1.404,2.366c1.391,0,2.015-1.118,2.015-2.73v-3.068
			h1.223V23.906z"/>
		<path style="fill:#114B8A;" d="M56.068,17.276h1.184v1.053h0.025c0.364-0.754,1.248-1.209,2.172-1.209
			c1.716,0,2.482,1.066,2.482,2.847v3.939H60.71v-3.432c0-1.547-0.338-2.301-1.404-2.366c-1.391,0-2.015,1.118-2.015,2.73v3.068
			h-1.223V17.276z"/>
		<path style="fill:#114B8A;" d="M68.224,18.394c-0.468-0.195-0.936-0.286-1.326-0.286c-1.365,0-2.132,1.222-2.132,2.483
			c0,1.183,0.637,2.483,2.21,2.483c0.416,0,0.937-0.13,1.313-0.377l0.091,1.092c-0.507,0.234-1.092,0.273-1.534,0.273
			c-2.002,0-3.38-1.573-3.38-3.471c0-2.015,1.352-3.471,3.38-3.471c0.494,0,1.131,0.117,1.482,0.26L68.224,18.394z"/>
		<path style="fill:#114B8A;" d="M72.722,17.12c2.015,0,3.367,1.456,3.367,3.471c0,1.898-1.378,3.471-3.367,3.471
			c-2.002,0-3.38-1.573-3.38-3.471C69.342,18.576,70.693,17.12,72.722,17.12z M72.722,23.074c1.43,0,2.067-1.3,2.067-2.483
			c0-1.261-0.768-2.483-2.067-2.483c-1.313,0-2.08,1.222-2.08,2.483C70.642,21.774,71.278,23.074,72.722,23.074z"/>
		<path style="fill:#114B8A;" d="M77.727,17.276h1.183v1.053h0.026c0.364-0.754,1.248-1.209,2.171-1.209
			c1.717,0,2.483,1.066,2.483,2.847v3.939h-1.222v-3.432c0-1.547-0.339-2.301-1.404-2.366c-1.392,0-2.016,1.118-2.016,2.73v3.068
			h-1.222V17.276z"/>
		<path style="fill:#114B8A;" d="M89.193,18.264h-1.755v3.627c0,0.767,0.468,1.183,1.026,1.183c0.377,0,0.65-0.117,0.832-0.234v1.04
			c-0.272,0.078-0.649,0.182-1.04,0.182c-1.261,0-2.041-0.598-2.041-1.924v-3.874h-1.495v-0.988h1.495v-1.534l1.223-0.39v1.924
			h1.755V18.264z"/>
		<path style="fill:#114B8A;" d="M90.727,17.276h1.144v1.027h0.026c0.325-0.689,1.027-1.183,1.729-1.183
			c0.363,0,0.546,0.039,0.806,0.091v1.092c-0.221-0.091-0.468-0.117-0.676-0.117c-1.092,0-1.808,1.04-1.808,2.704v3.016h-1.222
			V17.276z"/>
		<path style="fill:#114B8A;" d="M98.722,17.12c2.015,0,3.367,1.456,3.367,3.471c0,1.898-1.379,3.471-3.367,3.471
			c-2.002,0-3.381-1.573-3.381-3.471C95.341,18.576,96.693,17.12,98.722,17.12z M98.722,23.074c1.43,0,2.066-1.3,2.066-2.483
			c0-1.261-0.767-2.483-2.066-2.483c-1.313,0-2.08,1.222-2.08,2.483C96.642,21.774,97.278,23.074,98.722,23.074z"/>
		<path style="fill:#114B8A;" d="M103.883,14.156h1.222v9.75h-1.222V14.156z"/>
		<path style="fill:#114B8A;" d="M107.497,14.156h1.222v9.75h-1.222V14.156z"/>
		<path style="fill:#114B8A;" d="M116.038,23.633c-0.468,0.169-1.001,0.429-2.093,0.429c-2.354,0-3.433-1.43-3.433-3.588
			c0-1.963,1.235-3.354,3.107-3.354c2.21,0,2.925,1.612,2.925,3.744h-4.731c0,1.313,1.026,2.21,2.184,2.21
			c0.807,0,1.742-0.416,2.041-0.663V23.633z M115.245,19.954c0-1.014-0.598-1.846-1.651-1.846c-1.195,0-1.689,0.988-1.78,1.846
			H115.245z"/>
		<path style="fill:#114B8A;" d="M122.876,22.97h-0.026c-0.325,0.494-1.079,1.092-2.262,1.092c-2.002,0-2.848-1.781-2.848-3.588
			c0-1.781,0.937-3.354,2.86-3.354c1.157,0,1.82,0.455,2.197,1.066h0.026v-4.03h1.222v9.75h-1.17V22.97z M120.874,23.074
			c1.378,0,1.95-1.365,1.95-2.47c0-1.235-0.638-2.496-1.964-2.496s-1.846,1.248-1.819,2.457
			C119.015,21.605,119.561,23.074,120.874,23.074z"/>
		<path style="fill:#114B8A;" d="M132.679,17.12c2.015,0,3.367,1.456,3.367,3.471c0,1.898-1.379,3.471-3.367,3.471
			c-2.002,0-3.381-1.573-3.381-3.471C129.298,18.576,130.65,17.12,132.679,17.12z M132.679,23.074c1.43,0,2.066-1.3,2.066-2.483
			c0-1.261-0.767-2.483-2.066-2.483c-1.313,0-2.08,1.222-2.08,2.483C130.599,21.774,131.235,23.074,132.679,23.074z"/>
		<path style="fill:#114B8A;" d="M137.684,17.276h1.183v1.053h0.026c0.364-0.754,1.248-1.209,2.171-1.209
			c1.717,0,2.483,1.066,2.483,2.847v3.939h-1.222v-3.432c0-1.547-0.339-2.301-1.404-2.366c-1.392,0-2.016,1.118-2.016,2.73v3.068
			h-1.222V17.276z"/>
		<path style="fill:#114B8A;" d="M149.554,17.744c0.61-0.364,1.339-0.624,2.184-0.624c1.898,0,2.665,0.936,2.665,2.743v2.743
			c0,0.754,0.026,1.105,0.052,1.3h-1.144v-0.858h-0.026c-0.286,0.403-0.936,1.014-2.054,1.014c-1.431,0-2.432-0.624-2.432-2.067
			c0-1.664,1.82-2.184,3.081-2.184c0.481,0,0.819,0,1.301,0.026c0-1.144-0.416-1.729-1.639-1.729c-0.688,0-1.43,0.26-1.924,0.676
			L149.554,17.744z M153.181,20.747c-0.261,0-0.521-0.026-0.78-0.026c-0.663,0-2.301,0.104-2.301,1.274
			c0,0.702,0.676,1.079,1.234,1.079c1.209,0,1.847-0.754,1.847-1.742V20.747z"/>
		<path style="fill:#114B8A;" d="M156.469,17.276h1.183v1.053h0.026c0.364-0.754,1.248-1.209,2.171-1.209
			c1.717,0,2.483,1.066,2.483,2.847v3.939h-1.222v-3.432c0-1.547-0.339-2.301-1.404-2.366c-1.392,0-2.016,1.118-2.016,2.73v3.068
			h-1.222V17.276z"/>
		<path style="fill:#114B8A;" d="M168.144,14.832h1.3v9.074h-1.3V14.832z"/>
		<path style="fill:#114B8A;" d="M178.023,16.327c-0.571-0.338-1.209-0.507-1.872-0.507c-2.093,0-3.483,1.508-3.483,3.549
			c0,2.132,1.534,3.549,3.419,3.549c0.65,0,1.521-0.169,1.976-0.442l0.078,1.261c-0.688,0.286-1.534,0.325-2.066,0.325
			c-2.874,0-4.784-1.846-4.784-4.732c0-2.795,2.027-4.654,4.797-4.654c0.702,0,1.391,0.104,2.041,0.39L178.023,16.327z"/>
		<path style="fill:#114B8A;" d="M183.822,16.197c-0.663-0.26-1.027-0.377-1.703-0.377c-0.729,0-1.586,0.26-1.586,1.209
			c0,1.742,3.9,1.339,3.9,4.329c0,1.938-1.495,2.704-3.315,2.704c-0.637,0-1.261-0.182-1.859-0.377l0.13-1.209
			c0.442,0.182,1.223,0.442,1.886,0.442c0.74,0,1.78-0.416,1.78-1.482c0-2.028-3.899-1.469-3.899-4.29
			c0-1.612,1.273-2.47,2.912-2.47c0.598,0,1.312,0.104,1.937,0.325L183.822,16.197z"/>
		<path style="fill:#114B8A;" d="M192.637,17.12c2.015,0,3.367,1.456,3.367,3.471c0,1.898-1.379,3.471-3.367,3.471
			c-2.003,0-3.381-1.573-3.381-3.471C189.256,18.576,190.608,17.12,192.637,17.12z M192.637,23.074c1.43,0,2.066-1.3,2.066-2.483
			c0-1.261-0.767-2.483-2.066-2.483c-1.313,0-2.08,1.222-2.08,2.483C190.557,21.774,191.193,23.074,192.637,23.074z"/>
		<path style="fill:#114B8A;" d="M197.642,17.276h1.145v1.027h0.025c0.325-0.689,1.027-1.183,1.729-1.183
			c0.363,0,0.546,0.039,0.806,0.091v1.092c-0.221-0.091-0.468-0.117-0.676-0.117c-1.092,0-1.808,1.04-1.808,2.704v3.016h-1.222
			V17.276z"/>
		<path style="fill:#114B8A;" d="M213.813,23.906h-1.417l-1.716-5.564h-0.026l-1.677,5.564h-1.417l-2.132-6.63h1.339l1.521,5.486
			h0.026l1.69-5.486h1.442l1.664,5.486h0.026l1.612-5.486h1.196L213.813,23.906z"/>
		<path style="fill:#114B8A;" d="M217.142,14.156h1.222v4.069h0.026c0.442-0.702,1.209-1.105,2.132-1.105
			c1.716,0,2.483,1.066,2.483,2.847v3.939h-1.222v-3.432c0-1.547-0.339-2.301-1.404-2.366c-1.392,0-2.016,1.118-2.016,2.73v3.068
			h-1.222V14.156z"/>
		<path style="fill:#114B8A;" d="M228.023,17.12c2.015,0,3.367,1.456,3.367,3.471c0,1.898-1.379,3.471-3.367,3.471
			c-2.003,0-3.381-1.573-3.381-3.471C224.643,18.576,225.995,17.12,228.023,17.12z M228.023,23.074c1.43,0,2.066-1.3,2.066-2.483
			c0-1.261-0.767-2.483-2.066-2.483c-1.313,0-2.08,1.222-2.08,2.483C225.943,21.774,226.58,23.074,228.023,23.074z"/>
		<path style="fill:#114B8A;" d="M232.534,22.606c0.481,0.312,1.17,0.468,1.521,0.468c0.559,0,1.248-0.234,1.248-0.949
			c0-1.209-2.873-1.105-2.873-2.964c0-1.378,1.026-2.041,2.34-2.041c0.572,0,1.04,0.117,1.521,0.26l-0.104,1.066
			c-0.273-0.169-1.001-0.338-1.287-0.338c-0.624,0-1.17,0.26-1.17,0.806c0,1.352,2.873,0.962,2.873,3.081
			c0,1.417-1.131,2.067-2.314,2.067c-0.624,0-1.261-0.065-1.819-0.364L232.534,22.606z"/>
		<path style="fill:#114B8A;" d="M243.168,23.633c-0.468,0.169-1.001,0.429-2.093,0.429c-2.354,0-3.433-1.43-3.433-3.588
			c0-1.963,1.235-3.354,3.107-3.354c2.21,0,2.925,1.612,2.925,3.744h-4.731c0,1.313,1.026,2.21,2.184,2.21
			c0.806,0,1.742-0.416,2.041-0.663V23.633z M242.375,19.954c0-1.014-0.598-1.846-1.651-1.846c-1.195,0-1.689,0.988-1.78,1.846
			H242.375z"/>
		<path style="fill:#114B8A;" d="M5.135,36.97H5.108c-0.324,0.494-1.078,1.092-2.262,1.092C0.845,38.062,0,36.281,0,34.474
			c0-1.781,0.936-3.354,2.859-3.354c1.157,0,1.82,0.455,2.197,1.066h0.026v-4.03h1.222v9.75h-1.17V36.97z M3.133,37.074
			c1.378,0,1.95-1.365,1.95-2.47c0-1.235-0.637-2.496-1.963-2.496s-1.847,1.248-1.82,2.457C1.273,35.605,1.819,37.074,3.133,37.074z
			"/>
		<path style="fill:#114B8A;" d="M9.841,29.794H8.463v-1.378h1.378V29.794z M8.541,31.276h1.222v6.63H8.541V31.276z"/>
		<path style="fill:#114B8A;" d="M11.504,36.606c0.481,0.312,1.171,0.468,1.521,0.468c0.559,0,1.248-0.234,1.248-0.949
			c0-1.209-2.873-1.105-2.873-2.964c0-1.378,1.027-2.041,2.34-2.041c0.572,0,1.04,0.117,1.521,0.26l-0.104,1.066
			c-0.272-0.169-1.001-0.338-1.287-0.338c-0.624,0-1.17,0.26-1.17,0.806c0,1.352,2.873,0.962,2.873,3.081
			c0,1.417-1.131,2.067-2.313,2.067c-0.624,0-1.262-0.065-1.82-0.364L11.504,36.606z"/>
		<path style="fill:#114B8A;" d="M22.139,37.633c-0.468,0.169-1.001,0.429-2.093,0.429c-2.354,0-3.433-1.43-3.433-3.588
			c0-1.963,1.235-3.354,3.107-3.354c2.21,0,2.925,1.612,2.925,3.744h-4.732c0,1.313,1.027,2.21,2.185,2.21
			c0.806,0,1.742-0.416,2.041-0.663V37.633z M21.346,33.954c0-1.014-0.598-1.846-1.651-1.846c-1.196,0-1.689,0.988-1.781,1.846
			H21.346z"/>
		<path style="fill:#114B8A;" d="M24.596,31.744c0.61-0.364,1.339-0.624,2.184-0.624c1.898,0,2.665,0.936,2.665,2.743v2.743
			c0,0.754,0.026,1.105,0.053,1.3h-1.145v-0.858h-0.026c-0.285,0.403-0.936,1.014-2.054,1.014c-1.43,0-2.431-0.624-2.431-2.067
			c0-1.664,1.819-2.184,3.081-2.184c0.48,0,0.818,0,1.3,0.026c0-1.144-0.416-1.729-1.638-1.729c-0.689,0-1.431,0.26-1.925,0.676
			L24.596,31.744z M28.223,34.747c-0.26,0-0.521-0.026-0.78-0.026c-0.663,0-2.301,0.104-2.301,1.274
			c0,0.702,0.676,1.079,1.235,1.079c1.209,0,1.846-0.754,1.846-1.742V34.747z"/>
		<path style="fill:#114B8A;" d="M31.018,36.606c0.48,0.312,1.17,0.468,1.521,0.468c0.56,0,1.248-0.234,1.248-0.949
			c0-1.209-2.873-1.105-2.873-2.964c0-1.378,1.027-2.041,2.341-2.041c0.571,0,1.04,0.117,1.521,0.26l-0.104,1.066
			c-0.273-0.169-1.001-0.338-1.287-0.338c-0.624,0-1.17,0.26-1.17,0.806c0,1.352,2.873,0.962,2.873,3.081
			c0,1.417-1.131,2.067-2.314,2.067c-0.624,0-1.261-0.065-1.82-0.364L31.018,36.606z"/>
		<path style="fill:#114B8A;" d="M41.651,37.633c-0.468,0.169-1.001,0.429-2.093,0.429c-2.353,0-3.432-1.43-3.432-3.588
			c0-1.963,1.234-3.354,3.106-3.354c2.21,0,2.926,1.612,2.926,3.744h-4.732c0,1.313,1.027,2.21,2.184,2.21
			c0.807,0,1.742-0.416,2.041-0.663V37.633z M40.858,33.954c0-1.014-0.598-1.846-1.65-1.846c-1.196,0-1.69,0.988-1.781,1.846H40.858
			z"/>
		<path style="fill:#114B8A;" d="M46.916,36.606c0.481,0.312,1.171,0.468,1.521,0.468c0.559,0,1.248-0.234,1.248-0.949
			c0-1.209-2.873-1.105-2.873-2.964c0-1.378,1.027-2.041,2.34-2.041c0.572,0,1.04,0.117,1.521,0.26l-0.104,1.066
			c-0.272-0.169-1.001-0.338-1.287-0.338c-0.624,0-1.17,0.26-1.17,0.806c0,1.352,2.873,0.962,2.873,3.081
			c0,1.417-1.131,2.067-2.313,2.067c-0.624,0-1.262-0.065-1.82-0.364L46.916,36.606z"/>
		<path style="fill:#114B8A;" d="M57.551,37.633c-0.468,0.169-1.001,0.429-2.093,0.429c-2.354,0-3.433-1.43-3.433-3.588
			c0-1.963,1.235-3.354,3.107-3.354c2.21,0,2.925,1.612,2.925,3.744h-4.732c0,1.313,1.027,2.21,2.185,2.21
			c0.806,0,1.742-0.416,2.041-0.663V37.633z M56.758,33.954c0-1.014-0.598-1.846-1.651-1.846c-1.196,0-1.689,0.988-1.781,1.846
			H56.758z"/>
		<path style="fill:#114B8A;" d="M62.634,37.906h-1.456l-2.379-6.63h1.339l1.794,5.408h0.026l1.833-5.408h1.222L62.634,37.906z"/>
		<path style="fill:#114B8A;" d="M71.278,37.633c-0.468,0.169-1.001,0.429-2.093,0.429c-2.353,0-3.432-1.43-3.432-3.588
			c0-1.963,1.234-3.354,3.106-3.354c2.21,0,2.926,1.612,2.926,3.744h-4.732c0,1.313,1.027,2.21,2.184,2.21
			c0.807,0,1.742-0.416,2.041-0.663V37.633z M70.485,33.954c0-1.014-0.598-1.846-1.65-1.846c-1.196,0-1.69,0.988-1.781,1.846H70.485
			z"/>
		<path style="fill:#114B8A;" d="M73.424,31.276h1.144v1.027h0.026c0.325-0.689,1.027-1.183,1.729-1.183
			c0.364,0,0.547,0.039,0.807,0.091v1.092c-0.221-0.091-0.468-0.117-0.676-0.117c-1.093,0-1.808,1.04-1.808,2.704v3.016h-1.222
			V31.276z"/>
		<path style="fill:#114B8A;" d="M79.937,29.794h-1.378v-1.378h1.378V29.794z M78.637,31.276h1.223v6.63h-1.223V31.276z"/>
		<path style="fill:#114B8A;" d="M85.618,32.264h-1.756v3.627c0,0.767,0.469,1.183,1.027,1.183c0.377,0,0.65-0.117,0.832-0.234v1.04
			c-0.272,0.078-0.649,0.182-1.04,0.182c-1.261,0-2.041-0.598-2.041-1.924v-3.874h-1.495v-0.988h1.495v-1.534l1.222-0.39v1.924
			h1.756V32.264z"/>
		<path style="fill:#114B8A;" d="M86.657,39.7c0.156,0.052,0.364,0.104,0.572,0.104c1.092,0,1.456-1.508,1.456-1.638
			c0-0.143-0.156-0.481-0.234-0.702l-2.249-6.188h1.339l1.781,5.486h0.026l1.82-5.486h1.234l-2.443,6.773
			c-0.455,1.274-0.937,2.743-2.549,2.743c-0.39,0-0.61-0.052-0.832-0.091L86.657,39.7z"/>
		<path style="fill:#114B8A;" d="M101.478,32.394c-0.468-0.195-0.936-0.286-1.326-0.286c-1.364,0-2.132,1.222-2.132,2.483
			c0,1.183,0.637,2.483,2.21,2.483c0.416,0,0.937-0.13,1.313-0.377l0.091,1.092c-0.507,0.234-1.092,0.273-1.534,0.273
			c-2.002,0-3.38-1.573-3.38-3.471c0-2.015,1.352-3.471,3.38-3.471c0.494,0,1.131,0.117,1.482,0.26L101.478,32.394z"/>
		<path style="fill:#114B8A;" d="M103.193,28.156h1.222v9.75h-1.222V28.156z"/>
		<path style="fill:#114B8A;" d="M111.734,37.633c-0.468,0.169-1.001,0.429-2.093,0.429c-2.354,0-3.433-1.43-3.433-3.588
			c0-1.963,1.235-3.354,3.107-3.354c2.21,0,2.925,1.612,2.925,3.744h-4.731c0,1.313,1.026,2.21,2.184,2.21
			c0.806,0,1.742-0.416,2.041-0.663V37.633z M110.941,33.954c0-1.014-0.598-1.846-1.651-1.846c-1.195,0-1.689,0.988-1.78,1.846
			H110.941z"/>
		<path style="fill:#114B8A;" d="M114.19,31.744c0.611-0.364,1.34-0.624,2.185-0.624c1.898,0,2.665,0.936,2.665,2.743v2.743
			c0,0.754,0.026,1.105,0.052,1.3h-1.144v-0.858h-0.026c-0.286,0.403-0.936,1.014-2.054,1.014c-1.431,0-2.432-0.624-2.432-2.067
			c0-1.664,1.82-2.184,3.081-2.184c0.481,0,0.819,0,1.301,0.026c0-1.144-0.416-1.729-1.639-1.729c-0.688,0-1.43,0.26-1.924,0.676
			L114.19,31.744z M117.818,34.747c-0.261,0-0.521-0.026-0.78-0.026c-0.663,0-2.301,0.104-2.301,1.274
			c0,0.702,0.676,1.079,1.234,1.079c1.209,0,1.847-0.754,1.847-1.742V34.747z"/>
		<path style="fill:#114B8A;" d="M121.106,31.276h1.145v1.027h0.025c0.325-0.689,1.027-1.183,1.729-1.183
			c0.363,0,0.546,0.039,0.806,0.091v1.092c-0.221-0.091-0.468-0.117-0.676-0.117c-1.092,0-1.808,1.04-1.808,2.704v3.016h-1.222
			V31.276z"/>
		<path style="fill:#114B8A;" d="M126.319,28.156h1.222v9.75h-1.222V28.156z"/>
		<path style="fill:#114B8A;" d="M129.283,39.7c0.156,0.052,0.364,0.104,0.572,0.104c1.092,0,1.456-1.508,1.456-1.638
			c0-0.143-0.156-0.481-0.234-0.702l-2.249-6.188h1.339l1.781,5.486h0.026l1.82-5.486h1.234l-2.444,6.773
			c-0.454,1.274-0.936,2.743-2.548,2.743c-0.39,0-0.61-0.052-0.832-0.091L129.283,39.7z"/>
		<path style="fill:#114B8A;" d="M147.393,37.906h-1.417l-1.716-5.564h-0.026l-1.677,5.564h-1.417l-2.132-6.63h1.339l1.521,5.486
			h0.025l1.69-5.486h1.442l1.664,5.486h0.026l1.612-5.486h1.196L147.393,37.906z"/>
		<path style="fill:#114B8A;" d="M151.032,31.744c0.611-0.364,1.34-0.624,2.185-0.624c1.898,0,2.665,0.936,2.665,2.743v2.743
			c0,0.754,0.026,1.105,0.052,1.3h-1.144v-0.858h-0.026c-0.286,0.403-0.936,1.014-2.054,1.014c-1.431,0-2.432-0.624-2.432-2.067
			c0-1.664,1.82-2.184,3.081-2.184c0.481,0,0.819,0,1.301,0.026c0-1.144-0.416-1.729-1.639-1.729c-0.688,0-1.43,0.26-1.924,0.676
			L151.032,31.744z M154.66,34.747c-0.261,0-0.521-0.026-0.78-0.026c-0.663,0-2.301,0.104-2.301,1.274
			c0,0.702,0.676,1.079,1.234,1.079c1.209,0,1.847-0.754,1.847-1.742V34.747z"/>
		<path style="fill:#114B8A;" d="M157.948,31.276h1.145v1.027h0.025c0.325-0.689,1.027-1.183,1.729-1.183
			c0.363,0,0.546,0.039,0.806,0.091v1.092c-0.221-0.091-0.468-0.117-0.676-0.117c-1.092,0-1.808,1.04-1.808,2.704v3.016h-1.222
			V31.276z"/>
		<path style="fill:#114B8A;" d="M163.005,31.276h1.145v1.027h0.025c0.325-0.689,1.027-1.183,1.729-1.183
			c0.363,0,0.546,0.039,0.806,0.091v1.092c-0.221-0.091-0.468-0.117-0.676-0.117c-1.092,0-1.808,1.04-1.808,2.704v3.016h-1.222
			V31.276z"/>
		<path style="fill:#114B8A;" d="M168.374,31.744c0.61-0.364,1.339-0.624,2.184-0.624c1.898,0,2.665,0.936,2.665,2.743v2.743
			c0,0.754,0.026,1.105,0.052,1.3h-1.144v-0.858h-0.026c-0.286,0.403-0.936,1.014-2.054,1.014c-1.431,0-2.432-0.624-2.432-2.067
			c0-1.664,1.82-2.184,3.081-2.184c0.481,0,0.819,0,1.301,0.026c0-1.144-0.416-1.729-1.639-1.729c-0.688,0-1.43,0.26-1.924,0.676
			L168.374,31.744z M172.001,34.747c-0.261,0-0.521-0.026-0.78-0.026c-0.663,0-2.301,0.104-2.301,1.274
			c0,0.702,0.676,1.079,1.234,1.079c1.209,0,1.847-0.754,1.847-1.742V34.747z"/>
		<path style="fill:#114B8A;" d="M175.289,31.276h1.183v1.053h0.026c0.364-0.754,1.248-1.209,2.171-1.209
			c1.717,0,2.483,1.066,2.483,2.847v3.939h-1.222v-3.432c0-1.547-0.339-2.301-1.404-2.366c-1.392,0-2.016,1.118-2.016,2.73v3.068
			h-1.222V31.276z"/>
		<path style="fill:#114B8A;" d="M186.756,32.264h-1.755v3.627c0,0.767,0.468,1.183,1.026,1.183c0.377,0,0.65-0.117,0.832-0.234
			v1.04c-0.272,0.078-0.649,0.182-1.04,0.182c-1.261,0-2.041-0.598-2.041-1.924v-3.874h-1.495v-0.988h1.495v-1.534l1.223-0.39v1.924
			h1.755V32.264z"/>
		<path style="fill:#114B8A;" d="M187.795,36.606c0.481,0.312,1.17,0.468,1.521,0.468c0.559,0,1.248-0.234,1.248-0.949
			c0-1.209-2.873-1.105-2.873-2.964c0-1.378,1.026-2.041,2.34-2.041c0.572,0,1.04,0.117,1.521,0.26l-0.104,1.066
			c-0.273-0.169-1.001-0.338-1.287-0.338c-0.624,0-1.17,0.26-1.17,0.806c0,1.352,2.873,0.962,2.873,3.081
			c0,1.417-1.131,2.067-2.314,2.067c-0.624,0-1.261-0.065-1.819-0.364L187.795,36.606z"/>
		<path style="fill:#114B8A;" d="M197.272,31.744c0.61-0.364,1.339-0.624,2.184-0.624c1.898,0,2.665,0.936,2.665,2.743v2.743
			c0,0.754,0.026,1.105,0.052,1.3h-1.144v-0.858h-0.026c-0.286,0.403-0.936,1.014-2.054,1.014c-1.431,0-2.432-0.624-2.432-2.067
			c0-1.664,1.82-2.184,3.081-2.184c0.481,0,0.819,0,1.301,0.026c0-1.144-0.416-1.729-1.639-1.729c-0.688,0-1.43,0.26-1.924,0.676
			L197.272,31.744z M200.899,34.747c-0.261,0-0.521-0.026-0.78-0.026c-0.663,0-2.301,0.104-2.301,1.274
			c0,0.702,0.676,1.079,1.234,1.079c1.209,0,1.847-0.754,1.847-1.742V34.747z"/>
		<path style="fill:#114B8A;" d="M204.188,31.276h1.183v1.053h0.026c0.364-0.754,1.248-1.209,2.171-1.209
			c1.717,0,2.483,1.066,2.483,2.847v3.939h-1.222v-3.432c0-1.547-0.339-2.301-1.404-2.366c-1.392,0-2.016,1.118-2.016,2.73v3.068
			h-1.222V31.276z"/>
		<path style="fill:#114B8A;" d="M215.862,28.832h1.3v9.074h-1.3V28.832z"/>
		<path style="fill:#114B8A;" d="M225.742,30.327c-0.571-0.338-1.209-0.507-1.872-0.507c-2.093,0-3.483,1.508-3.483,3.549
			c0,2.132,1.534,3.549,3.419,3.549c0.65,0,1.521-0.169,1.976-0.442l0.078,1.261c-0.688,0.286-1.534,0.325-2.066,0.325
			c-2.874,0-4.784-1.846-4.784-4.732c0-2.795,2.027-4.654,4.797-4.654c0.702,0,1.391,0.104,2.041,0.39L225.742,30.327z"/>
		<path style="fill:#114B8A;" d="M231.541,30.197c-0.663-0.26-1.027-0.377-1.703-0.377c-0.729,0-1.586,0.26-1.586,1.209
			c0,1.742,3.9,1.339,3.9,4.329c0,1.938-1.495,2.704-3.315,2.704c-0.637,0-1.261-0.182-1.859-0.377l0.13-1.209
			c0.442,0.182,1.223,0.442,1.886,0.442c0.74,0,1.78-0.416,1.78-1.482c0-2.028-3.899-1.469-3.899-4.29
			c0-1.612,1.273-2.47,2.912-2.47c0.598,0,1.312,0.104,1.937,0.325L231.541,30.197z"/>
		<path style="fill:#114B8A;" d="M235.558,28.676h1.145l-3.12,9.386h-1.145L235.558,28.676z"/>
		<path style="fill:#114B8A;" d="M237.521,28.832h1.301v7.93h3.796v1.144h-5.097V28.832z"/>
		<path style="fill:#114B8A;" d="M246.907,28.832h1.365l3.835,9.074h-1.417l-0.923-2.288h-4.446l-0.923,2.288h-1.365L246.907,28.832
			z M247.544,30.054l-1.807,4.498h3.614L247.544,30.054z"/>
		<path style="fill:#114B8A;" d="M253.342,28.832h2.457c1.885,0,3.186,0.611,3.186,2.288c0,1.248-0.729,1.872-1.872,2.158v0.026
			c1.234,0.104,2.105,0.91,2.105,2.184c0,1.95-1.612,2.418-3.458,2.418h-2.418V28.832z M254.642,32.706h0.715
			c1.262,0,2.327-0.117,2.327-1.456c0-1.079-0.923-1.352-1.677-1.352h-1.365V32.706z M254.642,36.84h0.976
			c1.17,0,2.223-0.247,2.223-1.469c0-1.404-1.235-1.599-2.353-1.599h-0.846V36.84z"/>
		<path style="fill:#114B8A;" d="M264.236,28.832h1.365l3.835,9.074h-1.417l-0.923-2.288h-4.446l-0.923,2.288h-1.365L264.236,28.832
			z M264.873,30.054l-1.807,4.498h3.614L264.873,30.054z"/>
		<path style="fill:#114B8A;" d="M0.48,56.832h2.457c1.886,0,3.186,0.611,3.186,2.288c0,1.248-0.729,1.872-1.872,2.158v0.026
			c1.235,0.104,2.105,0.91,2.105,2.184c0,1.95-1.611,2.418-3.458,2.418H0.48V56.832z M1.78,60.706h0.716
			c1.261,0,2.327-0.117,2.327-1.456c0-1.079-0.924-1.352-1.678-1.352H1.78V60.706z M1.78,64.84h0.976
			c1.17,0,2.223-0.247,2.223-1.469c0-1.404-1.234-1.599-2.353-1.599H1.78V64.84z"/>
		<path style="fill:#114B8A;" d="M8.424,56.832h2.223c1.794,0,3.523,0.286,3.523,2.457c0,1.105-0.819,1.885-1.872,2.067v0.026
			c0.403,0.156,0.598,0.351,0.884,0.91l1.716,3.614h-1.481l-1.392-3.146c-0.402-0.884-0.832-0.884-1.521-0.884h-0.78v4.03h-1.3
			V56.832z M9.724,60.732h1.105c1.234,0,1.963-0.546,1.963-1.417c0-0.819-0.624-1.339-1.82-1.339H9.724V60.732z"/>
		<path style="fill:#114B8A;" d="M16.51,56.832h5.083v1.144H17.81v2.652h3.445v1.144H17.81v2.99h3.783v1.144H16.51V56.832z"/>
		<path style="fill:#114B8A;" d="M27.572,56.676c2.757,0,4.368,2.002,4.368,4.693c0,2.756-1.599,4.693-4.368,4.693
			c-2.769,0-4.368-1.937-4.368-4.693C23.204,58.678,24.816,56.676,27.572,56.676z M27.572,64.918c2.094,0,2.99-1.742,2.99-3.549
			c0-1.846-0.988-3.562-2.99-3.549c-2.002-0.013-2.99,1.703-2.99,3.549C24.582,63.176,25.479,64.918,27.572,64.918z"/>
		<path style="fill:#114B8A;" d="M38.739,57.794h-1.378v-1.378h1.378V57.794z M37.439,59.276h1.222v6.63h-1.222V59.276z"/>
		<path style="fill:#114B8A;" d="M40.402,64.606c0.481,0.312,1.171,0.468,1.521,0.468c0.559,0,1.248-0.234,1.248-0.949
			c0-1.209-2.873-1.105-2.873-2.964c0-1.378,1.027-2.041,2.34-2.041c0.572,0,1.04,0.117,1.521,0.26l-0.104,1.066
			c-0.272-0.169-1.001-0.338-1.287-0.338c-0.624,0-1.17,0.26-1.17,0.806c0,1.352,2.873,0.962,2.873,3.081
			c0,1.417-1.131,2.067-2.313,2.067c-0.624,0-1.262-0.065-1.82-0.364L40.402,64.606z"/>
		<path style="fill:#114B8A;" d="M49.672,56.832h1.768l4.005,7.306h0.025v-7.306h1.3v9.074h-1.664l-4.107-7.462h-0.026v7.462h-1.3
			V56.832z"/>
		<path style="fill:#114B8A;" d="M62.971,56.676c2.756,0,4.368,2.002,4.368,4.693c0,2.756-1.6,4.693-4.368,4.693
			c-2.77,0-4.368-1.937-4.368-4.693C58.603,58.678,60.215,56.676,62.971,56.676z M62.971,64.918c2.093,0,2.99-1.742,2.99-3.549
			c0-1.846-0.988-3.562-2.99-3.549c-2.002-0.013-2.99,1.703-2.99,3.549C59.98,63.176,60.878,64.918,62.971,64.918z"/>
		<path style="fill:#114B8A;" d="M70.991,57.976H68.17v-1.144h6.942v1.144h-2.821v7.93h-1.3V57.976z"/>
		<path style="fill:#114B8A;" d="M81.365,57.794h-1.378v-1.378h1.378V57.794z M80.065,59.276h1.222v6.63h-1.222V59.276z"/>
		<path style="fill:#114B8A;" d="M83.523,59.276h1.183v1.053h0.026c0.364-0.754,1.248-1.209,2.171-1.209
			c1.717,0,2.483,1.066,2.483,2.847v3.939h-1.222v-3.432c0-1.547-0.339-2.301-1.404-2.366c-1.392,0-2.016,1.118-2.016,2.73v3.068
			h-1.222V59.276z"/>
		<path style="fill:#114B8A;" d="M96.16,64.97h-0.026c-0.325,0.494-1.079,1.092-2.262,1.092c-2.002,0-2.848-1.781-2.848-3.588
			c0-1.781,0.937-3.354,2.86-3.354c1.157,0,1.82,0.455,2.197,1.066h0.026v-4.03h1.222v9.75h-1.17V64.97z M94.158,65.074
			c1.378,0,1.95-1.365,1.95-2.47c0-1.235-0.638-2.496-1.964-2.496c-1.325,0-1.846,1.248-1.819,2.457
			C92.299,63.605,92.845,65.074,94.158,65.074z"/>
		<path style="fill:#114B8A;" d="M100.866,57.794h-1.378v-1.378h1.378V57.794z M99.566,59.276h1.222v6.63h-1.222V59.276z"/>
		<path style="fill:#114B8A;" d="M107.236,60.394c-0.468-0.195-0.936-0.286-1.326-0.286c-1.364,0-2.132,1.222-2.132,2.483
			c0,1.183,0.637,2.483,2.21,2.483c0.416,0,0.937-0.13,1.313-0.377l0.091,1.092c-0.507,0.234-1.092,0.273-1.534,0.273
			c-2.002,0-3.38-1.573-3.38-3.471c0-2.015,1.352-3.471,3.38-3.471c0.494,0,1.131,0.117,1.482,0.26L107.236,60.394z"/>
		<path style="fill:#114B8A;" d="M109.108,59.744c0.61-0.364,1.339-0.624,2.184-0.624c1.898,0,2.665,0.936,2.665,2.743v2.743
			c0,0.754,0.026,1.105,0.052,1.3h-1.144v-0.858h-0.026c-0.286,0.403-0.936,1.014-2.054,1.014c-1.431,0-2.432-0.624-2.432-2.067
			c0-1.664,1.82-2.184,3.081-2.184c0.481,0,0.819,0,1.301,0.026c0-1.144-0.416-1.729-1.639-1.729c-0.688,0-1.43,0.26-1.924,0.676
			L109.108,59.744z M112.735,62.747c-0.261,0-0.521-0.026-0.78-0.026c-0.663,0-2.301,0.104-2.301,1.274
			c0,0.702,0.676,1.079,1.234,1.079c1.209,0,1.847-0.754,1.847-1.742V62.747z"/>
		<path style="fill:#114B8A;" d="M119.547,60.264h-1.755v3.627c0,0.767,0.468,1.183,1.026,1.183c0.377,0,0.65-0.117,0.832-0.234
			v1.04c-0.272,0.078-0.649,0.182-1.04,0.182c-1.261,0-2.041-0.598-2.041-1.924v-3.874h-1.495v-0.988h1.495v-1.534l1.223-0.39v1.924
			h1.755V60.264z"/>
		<path style="fill:#114B8A;" d="M126.163,65.633c-0.468,0.169-1.001,0.429-2.093,0.429c-2.354,0-3.433-1.43-3.433-3.588
			c0-1.963,1.235-3.354,3.107-3.354c2.21,0,2.925,1.612,2.925,3.744h-4.731c0,1.313,1.026,2.21,2.184,2.21
			c0.807,0,1.742-0.416,2.041-0.663V65.633z M125.37,61.954c0-1.014-0.598-1.846-1.651-1.846c-1.195,0-1.689,0.988-1.78,1.846
			H125.37z"/>
		<path style="fill:#114B8A;" d="M133.001,64.97h-0.026c-0.325,0.494-1.079,1.092-2.262,1.092c-2.002,0-2.848-1.781-2.848-3.588
			c0-1.781,0.937-3.354,2.86-3.354c1.157,0,1.82,0.455,2.197,1.066h0.026v-4.03h1.222v9.75h-1.17V64.97z M130.999,65.074
			c1.378,0,1.95-1.365,1.95-2.47c0-1.235-0.638-2.496-1.964-2.496s-1.846,1.248-1.819,2.457
			C129.14,63.605,129.686,65.074,130.999,65.074z"/>
		<path style="fill:#114B8A;" d="M140.658,60.264h-1.56v-0.988h1.56v-0.611c0-1.612,0.416-2.665,2.224-2.665
			c0.312,0,0.571,0.039,0.818,0.078l-0.052,0.988c-0.144-0.052-0.377-0.078-0.585-0.078c-1.053,0-1.184,0.676-1.184,1.573v0.715
			h1.756v0.988h-1.756v5.642h-1.222V60.264z"/>
		<path style="fill:#114B8A;" d="M147.86,59.12c2.015,0,3.367,1.456,3.367,3.471c0,1.898-1.379,3.471-3.367,3.471
			c-2.002,0-3.381-1.573-3.381-3.471C144.479,60.576,145.832,59.12,147.86,59.12z M147.86,65.074c1.43,0,2.066-1.3,2.066-2.483
			c0-1.261-0.767-2.483-2.066-2.483c-1.313,0-2.08,1.222-2.08,2.483C145.78,63.774,146.417,65.074,147.86,65.074z"/>
		<path style="fill:#114B8A;" d="M152.865,59.276h1.144v1.027h0.026c0.325-0.689,1.027-1.183,1.729-1.183
			c0.363,0,0.546,0.039,0.806,0.091v1.092c-0.221-0.091-0.468-0.117-0.676-0.117c-1.092,0-1.808,1.04-1.808,2.704v3.016h-1.222
			V59.276z"/>
		<path style="fill:#114B8A;" d="M165.06,60.264h-1.756v3.627c0,0.767,0.469,1.183,1.027,1.183c0.377,0,0.65-0.117,0.832-0.234v1.04
			c-0.272,0.078-0.649,0.182-1.04,0.182c-1.261,0-2.041-0.598-2.041-1.924v-3.874h-1.495v-0.988h1.495v-1.534l1.222-0.39v1.924
			h1.756V60.264z"/>
		<path style="fill:#114B8A;" d="M166.593,56.156h1.222v4.069h0.026c0.442-0.702,1.209-1.105,2.132-1.105
			c1.716,0,2.483,1.066,2.483,2.847v3.939h-1.222v-3.432c0-1.547-0.339-2.301-1.404-2.366c-1.392,0-2.016,1.118-2.016,2.73v3.068
			h-1.222V56.156z"/>
		<path style="fill:#114B8A;" d="M179.619,65.633c-0.468,0.169-1.001,0.429-2.093,0.429c-2.354,0-3.433-1.43-3.433-3.588
			c0-1.963,1.235-3.354,3.107-3.354c2.21,0,2.925,1.612,2.925,3.744h-4.731c0,1.313,1.026,2.21,2.184,2.21
			c0.806,0,1.742-0.416,2.041-0.663V65.633z M178.826,61.954c0-1.014-0.598-1.846-1.651-1.846c-1.195,0-1.689,0.988-1.78,1.846
			H178.826z"/>
		<path style="fill:#114B8A;" d="M185.378,59.276h1.145v1.027h0.025c0.325-0.689,1.027-1.183,1.729-1.183
			c0.363,0,0.546,0.039,0.806,0.091v1.092c-0.221-0.091-0.468-0.117-0.676-0.117c-1.092,0-1.808,1.04-1.808,2.704v3.016h-1.222
			V59.276z"/>
		<path style="fill:#114B8A;" d="M195.518,65.633c-0.468,0.169-1.001,0.429-2.093,0.429c-2.354,0-3.433-1.43-3.433-3.588
			c0-1.963,1.235-3.354,3.107-3.354c2.21,0,2.925,1.612,2.925,3.744h-4.731c0,1.313,1.026,2.21,2.184,2.21
			c0.806,0,1.742-0.416,2.041-0.663V65.633z M194.725,61.954c0-1.014-0.598-1.846-1.651-1.846c-1.195,0-1.689,0.988-1.78,1.846
			H194.725z"/>
		<path style="fill:#114B8A;" d="M197.818,56.156h1.222v9.75h-1.222V56.156z"/>
		<path style="fill:#114B8A;" d="M202.732,57.794h-1.378v-1.378h1.378V57.794z M201.433,59.276h1.222v6.63h-1.222V59.276z"/>
		<path style="fill:#114B8A;" d="M209.974,65.633c-0.468,0.169-1.001,0.429-2.093,0.429c-2.354,0-3.433-1.43-3.433-3.588
			c0-1.963,1.235-3.354,3.107-3.354c2.21,0,2.925,1.612,2.925,3.744h-4.731c0,1.313,1.026,2.21,2.184,2.21
			c0.807,0,1.742-0.416,2.041-0.663V65.633z M209.181,61.954c0-1.014-0.598-1.846-1.651-1.846c-1.195,0-1.689,0.988-1.78,1.846
			H209.181z"/>
		<path style="fill:#114B8A;" d="M212.911,60.264h-1.56v-0.988h1.56v-0.611c0-1.612,0.416-2.665,2.223-2.665
			c0.312,0,0.572,0.039,0.819,0.078l-0.052,0.988c-0.143-0.052-0.377-0.078-0.585-0.078c-1.053,0-1.184,0.676-1.184,1.573v0.715
			h1.756v0.988h-1.756v5.642h-1.222V60.264z"/>
		<path style="fill:#114B8A;" d="M223.728,59.12c2.015,0,3.367,1.456,3.367,3.471c0,1.898-1.379,3.471-3.367,3.471
			c-2.002,0-3.381-1.573-3.381-3.471C220.347,60.576,221.699,59.12,223.728,59.12z M223.728,65.074c1.43,0,2.066-1.3,2.066-2.483
			c0-1.261-0.767-2.483-2.066-2.483c-1.313,0-2.08,1.222-2.08,2.483C221.647,63.774,222.284,65.074,223.728,65.074z"/>
		<path style="fill:#114B8A;" d="M229.525,60.264h-1.56v-0.988h1.56v-0.611c0-1.612,0.416-2.665,2.224-2.665
			c0.312,0,0.571,0.039,0.818,0.078l-0.052,0.988c-0.144-0.052-0.377-0.078-0.585-0.078c-1.053,0-1.184,0.676-1.184,1.573v0.715
			h1.756v0.988h-1.756v5.642h-1.222V60.264z"/>
		<path style="fill:#114B8A;" d="M237.716,59.744c0.61-0.364,1.339-0.624,2.184-0.624c1.898,0,2.665,0.936,2.665,2.743v2.743
			c0,0.754,0.026,1.105,0.052,1.3h-1.144v-0.858h-0.026c-0.286,0.403-0.936,1.014-2.054,1.014c-1.431,0-2.432-0.624-2.432-2.067
			c0-1.664,1.82-2.184,3.081-2.184c0.481,0,0.819,0,1.301,0.026c0-1.144-0.416-1.729-1.639-1.729c-0.688,0-1.43,0.26-1.924,0.676
			L237.716,59.744z M241.343,62.747c-0.261,0-0.521-0.026-0.78-0.026c-0.663,0-2.301,0.104-2.301,1.274
			c0,0.702,0.676,1.079,1.234,1.079c1.209,0,1.847-0.754,1.847-1.742V62.747z"/>
		<path style="fill:#114B8A;" d="M248.843,60.394c-0.468-0.195-0.936-0.286-1.326-0.286c-1.364,0-2.132,1.222-2.132,2.483
			c0,1.183,0.637,2.483,2.21,2.483c0.416,0,0.937-0.13,1.313-0.377l0.091,1.092c-0.507,0.234-1.092,0.273-1.534,0.273
			c-2.002,0-3.38-1.573-3.38-3.471c0-2.015,1.352-3.471,3.38-3.471c0.494,0,1.131,0.117,1.482,0.26L248.843,60.394z"/>
		<path style="fill:#114B8A;" d="M256.266,65.906h-1.183v-1.053h-0.026c-0.364,0.754-1.248,1.209-2.171,1.209
			c-1.717,0-2.483-1.066-2.483-2.847v-3.939h1.222v3.432c0,1.547,0.338,2.301,1.404,2.366c1.392,0,2.016-1.118,2.016-2.73v-3.068
			h1.222V65.906z"/>
		<path style="fill:#114B8A;" d="M261.869,60.264h-1.755v3.627c0,0.767,0.468,1.183,1.026,1.183c0.377,0,0.65-0.117,0.832-0.234
			v1.04c-0.272,0.078-0.649,0.182-1.04,0.182c-1.261,0-2.041-0.598-2.041-1.924v-3.874h-1.495v-0.988h1.495v-1.534l1.223-0.39v1.924
			h1.755V60.264z"/>
		<path style="fill:#114B8A;" d="M268.485,65.633c-0.468,0.169-1.001,0.429-2.093,0.429c-2.354,0-3.433-1.43-3.433-3.588
			c0-1.963,1.235-3.354,3.107-3.354c2.21,0,2.925,1.612,2.925,3.744h-4.731c0,1.313,1.026,2.21,2.184,2.21
			c0.807,0,1.742-0.416,2.041-0.663V65.633z M267.692,61.954c0-1.014-0.598-1.846-1.651-1.846c-1.195,0-1.689,0.988-1.78,1.846
			H267.692z"/>
		<path style="fill:#114B8A;" d="M0.441,70.156h1.223v4.03h0.025c0.377-0.611,1.04-1.066,2.197-1.066c1.924,0,2.86,1.573,2.86,3.354
			c0,1.82-0.845,3.588-2.848,3.588c-1.183,0-1.937-0.598-2.262-1.092H1.611v0.936h-1.17V70.156z M3.627,74.108
			c-1.326,0-1.963,1.261-1.963,2.496c0,1.105,0.571,2.47,1.95,2.47c1.312,0,1.858-1.469,1.833-2.509
			C5.473,75.369,4.953,74.108,3.627,74.108z"/>
		<path style="fill:#114B8A;" d="M8.385,73.276h1.144v1.027h0.026c0.325-0.689,1.027-1.183,1.729-1.183
			c0.364,0,0.547,0.039,0.807,0.091v1.092c-0.221-0.091-0.468-0.117-0.676-0.117c-1.093,0-1.808,1.04-1.808,2.704v3.016H8.385
			V73.276z"/>
		<path style="fill:#114B8A;" d="M16.38,73.12c2.015,0,3.367,1.456,3.367,3.471c0,1.898-1.378,3.471-3.367,3.471
			c-2.002,0-3.38-1.573-3.38-3.471C13,74.576,14.352,73.12,16.38,73.12z M16.38,79.074c1.43,0,2.067-1.3,2.067-2.483
			c0-1.261-0.768-2.483-2.067-2.483c-1.313,0-2.08,1.222-2.08,2.483C14.3,77.774,14.937,79.074,16.38,79.074z"/>
		<path style="fill:#114B8A;" d="M21.385,73.276h1.183v1.053h0.026c0.364-0.754,1.248-1.209,2.171-1.209
			c1.716,0,2.483,1.066,2.483,2.847v3.939h-1.223v-3.432c0-1.547-0.338-2.301-1.403-2.366c-1.392,0-2.016,1.118-2.016,2.73v3.068
			h-1.222V73.276z"/>
		<path style="fill:#114B8A;" d="M33.54,74.394c-0.469-0.195-0.937-0.286-1.326-0.286c-1.365,0-2.133,1.222-2.133,2.483
			c0,1.183,0.638,2.483,2.211,2.483c0.416,0,0.936-0.13,1.312-0.377l0.091,1.092c-0.507,0.234-1.092,0.273-1.534,0.273
			c-2.002,0-3.38-1.573-3.38-3.471c0-2.015,1.353-3.471,3.38-3.471c0.494,0,1.132,0.117,1.482,0.26L33.54,74.394z"/>
		<path style="fill:#114B8A;" d="M35.1,70.156h1.222v4.069h0.026c0.441-0.702,1.209-1.105,2.132-1.105
			c1.716,0,2.483,1.066,2.483,2.847v3.939H39.74v-3.432c0-1.547-0.338-2.301-1.403-2.366c-1.392,0-2.016,1.118-2.016,2.73v3.068
			H35.1V70.156z"/>
		<path style="fill:#114B8A;" d="M45.98,73.12c2.015,0,3.367,1.456,3.367,3.471c0,1.898-1.378,3.471-3.367,3.471
			c-2.002,0-3.38-1.573-3.38-3.471C42.601,74.576,43.952,73.12,45.98,73.12z M45.98,79.074c1.43,0,2.067-1.3,2.067-2.483
			c0-1.261-0.768-2.483-2.067-2.483c-1.313,0-2.08,1.222-2.08,2.483C43.9,77.774,44.537,79.074,45.98,79.074z"/>
		<path style="fill:#114B8A;" d="M50.491,78.606c0.48,0.312,1.17,0.468,1.521,0.468c0.56,0,1.248-0.234,1.248-0.949
			c0-1.209-2.873-1.105-2.873-2.964c0-1.378,1.027-2.041,2.341-2.041c0.571,0,1.04,0.117,1.521,0.26l-0.104,1.066
			c-0.273-0.169-1.001-0.338-1.287-0.338c-0.624,0-1.17,0.26-1.17,0.806c0,1.352,2.873,0.962,2.873,3.081
			c0,1.417-1.131,2.067-2.314,2.067c-0.624,0-1.261-0.065-1.82-0.364L50.491,78.606z"/>
		<path style="fill:#114B8A;" d="M56.042,73.276h1.17v0.936h0.026c0.325-0.494,1.079-1.092,2.249-1.092
			c1.924,0,2.86,1.573,2.86,3.354c0,1.82-0.845,3.588-2.848,3.588c-1.17,0-1.833-0.455-2.21-1.066h-0.025v3.64h-1.223V73.276z
			 M59.228,74.108c-1.326,0-1.963,1.261-1.963,2.496c0,1.105,0.571,2.47,1.95,2.47c1.312,0,1.858-1.469,1.833-2.509
			C61.073,75.369,60.554,74.108,59.228,74.108z"/>
		<path style="fill:#114B8A;" d="M64.297,73.744c0.611-0.364,1.339-0.624,2.185-0.624c1.897,0,2.665,0.936,2.665,2.743v2.743
			c0,0.754,0.025,1.105,0.052,1.3h-1.144v-0.858h-0.026c-0.286,0.403-0.937,1.014-2.054,1.014c-1.431,0-2.432-0.624-2.432-2.067
			c0-1.664,1.82-2.184,3.081-2.184c0.481,0,0.819,0,1.3,0.026c0-1.144-0.416-1.729-1.638-1.729c-0.688,0-1.43,0.26-1.924,0.676
			L64.297,73.744z M67.924,76.747c-0.26,0-0.52-0.026-0.779-0.026c-0.663,0-2.302,0.104-2.302,1.274
			c0,0.702,0.677,1.079,1.235,1.079c1.209,0,1.846-0.754,1.846-1.742V76.747z"/>
		<path style="fill:#114B8A;" d="M70.719,78.606c0.481,0.312,1.171,0.468,1.521,0.468c0.559,0,1.248-0.234,1.248-0.949
			c0-1.209-2.873-1.105-2.873-2.964c0-1.378,1.027-2.041,2.34-2.041c0.572,0,1.04,0.117,1.521,0.26l-0.104,1.066
			c-0.272-0.169-1.001-0.338-1.287-0.338c-0.624,0-1.17,0.26-1.17,0.806c0,1.352,2.873,0.962,2.873,3.081
			c0,1.417-1.131,2.067-2.313,2.067c-0.624,0-1.262-0.065-1.82-0.364L70.719,78.606z"/>
		<path style="fill:#114B8A;" d="M76.257,73.276h1.145v0.962h0.026c0.468-0.767,1.131-1.118,2.105-1.118
			c0.768,0,1.534,0.39,1.886,1.287c0.455-0.949,1.456-1.287,2.054-1.287c1.69,0,2.301,1.092,2.301,2.535v4.251h-1.222v-3.952
			c0-0.819-0.195-1.846-1.183-1.846c-1.248,0-1.742,1.222-1.742,2.457v3.341h-1.223v-3.952c0-0.819-0.194-1.846-1.183-1.846
			c-1.248,0-1.742,1.222-1.742,2.457v3.341h-1.223V73.276z"/>
	</g>
	<g>
		<rect x="-1.366" y="-161.596" style="fill:none;" width="145.658" height="190.805"/>
	</g>
</g>
<g id="Layer_2">
</g>
</svg>
