<?xml version="1.0" encoding="iso-8859-1"?>
<!-- Generator: Adobe Illustrator 19.1.0, SVG Export Plug-In . SVG Version: 6.00 Build 0)  -->
<svg version="1.1" xmlns="http://www.w3.org/2000/svg" xmlns:xlink="http://www.w3.org/1999/xlink" x="0px" y="0px"
	 viewBox="0 0 145.658 78.521" style="enable-background:new 0 0 145.658 78.521;" xml:space="preserve">
<g id="Layer_1">
	<g>
		<rect y="1.521" style="fill:none;" width="145.658" height="190.805"/>
		<path style="fill:#002D73;" d="M13.925,15.77h-1.558L9.005,3.992H8.967L5.547,15.77H3.971l-3.8-13.26H1.52l3.268,11.778h0.038
			l3.4-11.778h1.577l3.344,11.778h0.037L16.509,2.51h1.253L13.925,15.77z"/>
		<path style="fill:#002D73;" d="M19.437,1.522h1.196v6.193h0.039c0.512-1.064,1.596-1.862,3.02-1.862
			c2.604,0,3.306,1.729,3.306,4.123v5.794h-1.196V9.995c0-1.671-0.323-3.115-2.299-3.115c-2.128,0-2.869,2.014-2.869,3.705v5.186
			h-1.196V1.522z"/>
		<path style="fill:#002D73;" d="M36.498,15.466c-0.836,0.342-1.92,0.532-2.812,0.532c-3.211,0-4.407-2.166-4.407-5.072
			c0-2.963,1.634-5.072,4.085-5.072c2.734,0,3.855,2.204,3.855,4.806v0.608H30.59c0,2.052,1.102,3.705,3.191,3.705
			c0.873,0,2.146-0.361,2.717-0.722V15.466z M35.908,10.242c0-1.69-0.684-3.362-2.469-3.362c-1.768,0-2.85,1.767-2.85,3.362H35.908z
			"/>
		<path style="fill:#002D73;" d="M39.5,8.361c0-0.741,0-1.501-0.076-2.28h1.159V7.81h0.038c0.398-0.874,1.121-1.957,3.135-1.957
			c2.394,0,3.305,1.596,3.305,3.724v6.193h-1.196V9.881c0-1.824-0.646-3.001-2.298-3.001c-2.186,0-2.869,1.918-2.869,3.533v5.357
			H39.5V8.361z"/>
		<path style="fill:#002D73;" d="M56.543,3.498h-1.196V1.902h1.196V3.498z M55.347,6.082h1.196v9.688h-1.196V6.082z"/>
		<path style="fill:#002D73;" d="M63.744,7.107H61.54v6.269c0,0.874,0.323,1.596,1.292,1.596c0.455,0,0.76-0.095,1.102-0.228
			l0.076,0.988c-0.285,0.114-0.874,0.266-1.463,0.266c-2.128,0-2.203-1.463-2.203-3.229V7.107h-1.9V6.082h1.9V3.745l1.196-0.418
			v2.755h2.204V7.107z"/>
		<path style="fill:#002D73;" d="M66.879,2.51h1.425l-1.463,4.142h-1.083L66.879,2.51z"/>
		<path style="fill:#002D73;" d="M68.323,14.364c0.722,0.361,1.596,0.608,2.526,0.608c1.141,0,2.146-0.627,2.146-1.729
			c0-2.298-4.654-1.938-4.654-4.749c0-1.919,1.559-2.641,3.154-2.641c0.513,0,1.539,0.114,2.394,0.437l-0.114,1.045
			c-0.627-0.285-1.481-0.456-2.146-0.456c-1.234,0-2.09,0.38-2.09,1.615c0,1.805,4.769,1.577,4.769,4.749
			c0,2.052-1.919,2.755-3.382,2.755c-0.931,0-1.861-0.114-2.717-0.456L68.323,14.364z"/>
		<path style="fill:#002D73;" d="M85.916,7.107h-2.203v6.269c0,0.874,0.324,1.596,1.293,1.596c0.455,0,0.76-0.095,1.102-0.228
			l0.076,0.988c-0.285,0.114-0.875,0.266-1.463,0.266c-2.129,0-2.205-1.463-2.205-3.229V7.107h-1.898V6.082h1.898V3.745l1.197-0.418
			v2.755h2.203V7.107z"/>
		<path style="fill:#002D73;" d="M89.262,3.498h-1.197V1.902h1.197V3.498z M88.064,6.082h1.197v9.688h-1.197V6.082z"/>
		<path style="fill:#002D73;" d="M103.984,15.77V9.33c0-1.368-0.512-2.451-2.051-2.451c-1.311,0-2.604,1.121-2.604,3.533v5.357
			h-1.197V9.33c0-1.368-0.512-2.451-2.051-2.451c-1.311,0-2.604,1.121-2.604,3.533v5.357h-1.195V8.361c0-0.741,0-1.501-0.076-2.28
			h1.158v1.634l0.039,0.019c0.379-0.665,0.949-1.881,3.02-1.881c0.855,0,2.262,0.361,2.564,2.052h0.039
			c0.436-1.14,1.576-2.052,3.096-2.052c1.957,0,3.059,1.368,3.059,3.249v6.668H103.984z"/>
		<path style="fill:#002D73;" d="M114.607,15.466c-0.836,0.342-1.92,0.532-2.812,0.532c-3.211,0-4.406-2.166-4.406-5.072
			c0-2.963,1.633-5.072,4.084-5.072c2.734,0,3.855,2.204,3.855,4.806v0.608h-6.629c0,2.052,1.102,3.705,3.191,3.705
			c0.873,0,2.146-0.361,2.717-0.722V15.466z M114.018,10.242c0-1.69-0.684-3.362-2.469-3.362c-1.768,0-2.85,1.767-2.85,3.362
			H114.018z"/>
		<path style="fill:#002D73;" d="M5.68,26.107H3.477v6.269c0,0.874,0.322,1.596,1.291,1.596c0.457,0,0.761-0.095,1.103-0.228
			l0.076,0.988c-0.285,0.114-0.874,0.266-1.463,0.266c-2.128,0-2.204-1.463-2.204-3.229v-5.661H0.38v-1.026h1.899v-2.337
			l1.197-0.418v2.755H5.68V26.107z"/>
		<path style="fill:#002D73;" d="M11.607,24.854c3.135,0,4.521,2.432,4.521,5.072s-1.387,5.072-4.521,5.072
			s-4.521-2.432-4.521-5.072S8.473,24.854,11.607,24.854z M11.607,33.972c2.09,0,3.211-1.805,3.211-4.046s-1.121-4.046-3.211-4.046
			s-3.21,1.805-3.21,4.046S9.518,33.972,11.607,33.972z"/>
		<path style="fill:#002D73;" d="M24.871,22.498h-1.197v-1.596h1.197V22.498z M23.674,25.082h1.197v9.688h-1.197V25.082z"/>
		<path style="fill:#002D73;" d="M39.594,34.77v-6.44c0-1.368-0.514-2.451-2.052-2.451c-1.312,0-2.603,1.121-2.603,3.533v5.357
			h-1.197v-6.44c0-1.368-0.513-2.451-2.051-2.451c-1.312,0-2.604,1.121-2.604,3.533v5.357h-1.196v-7.409c0-0.741,0-1.501-0.076-2.28
			h1.159v1.634l0.037,0.019c0.381-0.665,0.95-1.881,3.021-1.881c0.854,0,2.26,0.361,2.564,2.052h0.037
			c0.438-1.14,1.578-2.052,3.098-2.052c1.956,0,3.059,1.368,3.059,3.249v6.668H39.594z"/>
		<path style="fill:#002D73;" d="M43.604,25.082h1.197l-0.076,1.767h0.038c0.304-0.532,1.045-1.995,3.097-1.995
			c2.85,0,3.989,2.127,3.989,5.072c0,2.869-1.329,5.072-3.989,5.072c-1.52,0-2.432-0.627-3.021-1.881h-0.038v5.642h-1.197V25.082z
			 M47.67,25.879c-2.128,0-2.869,2.28-2.869,4.046s0.741,4.046,2.869,4.046c2.279,0,2.868-2.166,2.868-4.046
			S49.949,25.879,47.67,25.879z"/>
		<path style="fill:#002D73;" d="M54.282,27.247c0-1.064,0-1.463-0.076-2.166h1.196v1.862h0.039c0.437-1.083,1.254-2.09,2.488-2.09
			c0.285,0,0.627,0.057,0.836,0.114v1.254c-0.247-0.076-0.57-0.114-0.874-0.114c-1.899,0-2.413,2.127-2.413,3.875v4.787h-1.196
			V27.247z"/>
		<path style="fill:#002D73;" d="M64.047,24.854c3.135,0,4.521,2.432,4.521,5.072s-1.387,5.072-4.521,5.072
			s-4.521-2.432-4.521-5.072S60.912,24.854,64.047,24.854z M64.047,33.972c2.09,0,3.211-1.805,3.211-4.046s-1.121-4.046-3.211-4.046
			s-3.21,1.805-3.21,4.046S61.957,33.972,64.047,33.972z"/>
		<path style="fill:#002D73;" d="M74.193,34.77h-1.406l-3.286-9.688h1.312l2.678,8.377h0.038l2.812-8.377h1.254L74.193,34.77z"/>
		<path style="fill:#002D73;" d="M85.764,34.466c-0.836,0.342-1.918,0.532-2.811,0.532c-3.211,0-4.408-2.166-4.408-5.072
			c0-2.963,1.635-5.072,4.084-5.072c2.736,0,3.857,2.204,3.857,4.806v0.608h-6.631c0,2.052,1.102,3.705,3.191,3.705
			c0.875,0,2.146-0.361,2.717-0.722V34.466z M85.176,29.242c0-1.69-0.686-3.362-2.471-3.362c-1.766,0-2.85,1.767-2.85,3.362H85.176z
			"/>
		<path style="fill:#002D73;" d="M7.066,52.212H7.029c-0.532,1.159-1.881,1.786-3.078,1.786c-2.754,0-3.191-1.862-3.191-2.736
			c0-3.249,3.457-3.4,5.965-3.4h0.229v-0.494c0-1.653-0.589-2.489-2.203-2.489c-1.008,0-1.957,0.228-2.85,0.798v-1.159
			c0.74-0.361,1.994-0.665,2.85-0.665c2.393,0,3.4,1.083,3.4,3.609v4.274c0,0.779,0,1.368,0.094,2.033H7.066V52.212z M6.953,48.888
			H6.611c-2.07,0-4.541,0.209-4.541,2.337c0,1.272,0.912,1.748,2.014,1.748c2.812,0,2.869-2.451,2.869-3.496V48.888z"/>
		<path style="fill:#002D73;" d="M10.26,52.364c0.723,0.361,1.596,0.608,2.527,0.608c1.139,0,2.146-0.627,2.146-1.729
			c0-2.298-4.654-1.938-4.654-4.749c0-1.919,1.557-2.641,3.153-2.641c0.513,0,1.538,0.114,2.394,0.437l-0.114,1.045
			c-0.627-0.285-1.481-0.456-2.146-0.456c-1.235,0-2.09,0.38-2.09,1.615c0,1.805,4.769,1.577,4.769,4.749
			c0,2.052-1.919,2.755-3.382,2.755c-0.931,0-1.861-0.114-2.716-0.456L10.26,52.364z"/>
		<path style="fill:#002D73;" d="M22.57,45.107h-2.203v6.269c0,0.874,0.322,1.596,1.291,1.596c0.457,0,0.761-0.095,1.103-0.228
			l0.076,0.988c-0.285,0.114-0.874,0.266-1.463,0.266c-2.128,0-2.204-1.463-2.204-3.229v-5.661h-1.899v-1.026h1.899v-2.337
			l1.197-0.418v2.755h2.203V45.107z"/>
		<path style="fill:#002D73;" d="M24.719,39.522h1.196v6.193h0.038c0.513-1.064,1.596-1.862,3.021-1.862
			c2.603,0,3.306,1.729,3.306,4.123v5.794h-1.197v-5.775c0-1.671-0.322-3.115-2.299-3.115c-2.127,0-2.868,2.014-2.868,3.705v5.186
			h-1.196V39.522z"/>
		<path style="fill:#002D73;" d="M46.984,53.77v-6.44c0-1.368-0.514-2.451-2.052-2.451c-1.312,0-2.603,1.121-2.603,3.533v5.357
			h-1.197v-6.44c0-1.368-0.513-2.451-2.051-2.451c-1.312,0-2.604,1.121-2.604,3.533v5.357h-1.196v-7.409c0-0.741,0-1.501-0.076-2.28
			h1.159v1.634l0.037,0.019c0.381-0.665,0.95-1.881,3.021-1.881c0.854,0,2.26,0.361,2.564,2.052h0.037
			c0.438-1.14,1.578-2.052,3.098-2.052c1.956,0,3.059,1.368,3.059,3.249v6.668H46.984z"/>
		<path style="fill:#002D73;" d="M56.675,52.212h-0.038c-0.531,1.159-1.881,1.786-3.078,1.786c-2.754,0-3.191-1.862-3.191-2.736
			c0-3.249,3.458-3.4,5.966-3.4h0.228v-0.494c0-1.653-0.588-2.489-2.203-2.489c-1.007,0-1.957,0.228-2.85,0.798v-1.159
			c0.74-0.361,1.994-0.665,2.85-0.665c2.394,0,3.4,1.083,3.4,3.609v4.274c0,0.779,0,1.368,0.095,2.033h-1.178V52.212z
			 M56.561,48.888h-0.342c-2.07,0-4.54,0.209-4.54,2.337c0,1.272,0.911,1.748,2.014,1.748c2.812,0,2.868-2.451,2.868-3.496V48.888z"
			/>
		<path style="fill:#002D73;" d="M59.887,47.995h4.769v1.311h-4.769V47.995z"/>
		<path style="fill:#002D73;" d="M66.194,52.364c0.722,0.361,1.596,0.608,2.526,0.608c1.141,0,2.146-0.627,2.146-1.729
			c0-2.298-4.654-1.938-4.654-4.749c0-1.919,1.559-2.641,3.154-2.641c0.513,0,1.539,0.114,2.394,0.437l-0.114,1.045
			c-0.627-0.285-1.481-0.456-2.146-0.456c-1.234,0-2.09,0.38-2.09,1.615c0,1.805,4.769,1.577,4.769,4.749
			c0,2.052-1.919,2.755-3.382,2.755c-0.931,0-1.861-0.114-2.717-0.456L66.194,52.364z"/>
		<path style="fill:#002D73;" d="M77.023,52.155h0.02l2.793-8.074h1.254l-3.877,11.132c-0.455,1.33-1.139,2.66-2.488,2.66
			c-0.437,0-0.893-0.057-1.291-0.152l0.113-1.025c0.229,0.076,0.456,0.152,0.893,0.152c1.025,0,1.369-0.855,1.748-2.109l0.248-0.855
			l-3.439-9.802h1.311L77.023,52.155z"/>
		<path style="fill:#002D73;" d="M94.465,53.77v-6.44c0-1.368-0.514-2.451-2.053-2.451c-1.311,0-2.602,1.121-2.602,3.533v5.357
			h-1.197v-6.44c0-1.368-0.514-2.451-2.053-2.451c-1.311,0-2.602,1.121-2.602,3.533v5.357h-1.197v-7.409c0-0.741,0-1.501-0.076-2.28
			h1.16v1.634l0.037,0.019c0.381-0.665,0.949-1.881,3.021-1.881c0.854,0,2.26,0.361,2.564,2.052h0.037
			c0.438-1.14,1.576-2.052,3.098-2.052c1.955,0,3.057,1.368,3.057,3.249v6.668H94.465z"/>
		<path style="fill:#002D73;" d="M98.475,44.082h1.197l-0.076,1.767h0.039c0.303-0.532,1.045-1.995,3.096-1.995
			c2.85,0,3.99,2.127,3.99,5.072c0,2.869-1.33,5.072-3.99,5.072c-1.52,0-2.432-0.627-3.02-1.881h-0.039v5.642h-1.197V44.082z
			 M102.541,44.879c-2.129,0-2.869,2.28-2.869,4.046s0.74,4.046,2.869,4.046c2.279,0,2.867-2.166,2.867-4.046
			S104.82,44.879,102.541,44.879z"/>
		<path style="fill:#002D73;" d="M113.332,45.107h-2.203v6.269c0,0.874,0.324,1.596,1.293,1.596c0.455,0,0.76-0.095,1.102-0.228
			l0.076,0.988c-0.285,0.114-0.875,0.266-1.463,0.266c-2.129,0-2.205-1.463-2.205-3.229v-5.661h-1.898v-1.026h1.898v-2.337
			l1.197-0.418v2.755h2.203V45.107z"/>
		<path style="fill:#002D73;" d="M119.262,43.854c3.135,0,4.521,2.432,4.521,5.072s-1.387,5.072-4.521,5.072
			s-4.521-2.432-4.521-5.072S116.127,43.854,119.262,43.854z M119.262,52.972c2.09,0,3.211-1.805,3.211-4.046
			s-1.121-4.046-3.211-4.046s-3.211,1.805-3.211,4.046S117.172,52.972,119.262,52.972z"/>
		<path style="fill:#002D73;" d="M137.748,53.77v-6.44c0-1.368-0.514-2.451-2.053-2.451c-1.311,0-2.602,1.121-2.602,3.533v5.357
			h-1.197v-6.44c0-1.368-0.514-2.451-2.053-2.451c-1.311,0-2.602,1.121-2.602,3.533v5.357h-1.197v-7.409c0-0.741,0-1.501-0.076-2.28
			h1.16v1.634l0.037,0.019c0.381-0.665,0.949-1.881,3.021-1.881c0.854,0,2.26,0.361,2.564,2.052h0.037
			c0.438-1.14,1.576-2.052,3.098-2.052c1.955,0,3.057,1.368,3.057,3.249v6.668H137.748z"/>
		<path style="fill:#002D73;" d="M7.808,64.373c-0.646-0.285-1.425-0.494-2.07-0.494c-2.337,0-3.647,1.691-3.647,4.046
			c0,2.204,1.33,4.046,3.514,4.046c0.761,0,1.463-0.171,2.186-0.437l0.113,1.121c-0.816,0.285-1.576,0.342-2.488,0.342
			c-3.115,0-4.635-2.375-4.635-5.072c0-2.982,1.918-5.072,4.787-5.072c1.158,0,1.994,0.266,2.336,0.38L7.808,64.373z"/>
		<path style="fill:#002D73;" d="M13.717,62.854c3.135,0,4.521,2.432,4.521,5.072s-1.387,5.072-4.521,5.072
			s-4.521-2.432-4.521-5.072S10.582,62.854,13.717,62.854z M13.717,71.972c2.09,0,3.211-1.805,3.211-4.046s-1.121-4.046-3.211-4.046
			s-3.211,1.805-3.211,4.046S11.627,71.972,13.717,71.972z"/>
		<path style="fill:#002D73;" d="M20.5,65.361c0-0.741,0-1.501-0.076-2.28h1.159v1.729h0.038c0.398-0.874,1.121-1.957,3.135-1.957
			c2.394,0,3.305,1.596,3.305,3.724v6.193h-1.196v-5.889c0-1.824-0.646-3.001-2.298-3.001c-2.186,0-2.869,1.918-2.869,3.533v5.357
			H20.5V65.361z"/>
		<path style="fill:#002D73;" d="M35.244,64.107H33.04v6.269c0,0.874,0.323,1.596,1.292,1.596c0.455,0,0.76-0.095,1.102-0.228
			l0.076,0.988c-0.285,0.114-0.874,0.266-1.463,0.266c-2.128,0-2.203-1.463-2.203-3.229v-5.661h-1.9v-1.026h1.9v-2.337l1.196-0.418
			v2.755h2.204V64.107z"/>
		<path style="fill:#002D73;" d="M37.391,65.247c0-1.064,0-1.463-0.076-2.166h1.197v1.862h0.038c0.437-1.083,1.254-2.09,2.489-2.09
			c0.284,0,0.627,0.057,0.835,0.114v1.254c-0.247-0.076-0.569-0.114-0.874-0.114c-1.899,0-2.412,2.127-2.412,3.875v4.787h-1.197
			V65.247z"/>
		<path style="fill:#002D73;" d="M47.156,62.854c3.135,0,4.521,2.432,4.521,5.072s-1.387,5.072-4.521,5.072
			s-4.521-2.432-4.521-5.072S44.022,62.854,47.156,62.854z M47.156,71.972c2.09,0,3.211-1.805,3.211-4.046s-1.121-4.046-3.211-4.046
			s-3.211,1.805-3.211,4.046S45.066,71.972,47.156,71.972z"/>
		<path style="fill:#002D73;" d="M53.939,58.522h1.197V72.77h-1.197V58.522z"/>
	</g>
</g>
<g id="Layer_2">
</g>
</svg>
