<?xml version="1.0" encoding="iso-8859-1"?>
<!-- Generator: Adobe Illustrator 19.1.0, SVG Export Plug-In . SVG Version: 6.00 Build 0)  -->
<svg version="1.1" xmlns="http://www.w3.org/2000/svg" xmlns:xlink="http://www.w3.org/1999/xlink" x="0px" y="0px"
	 viewBox="0 0 209.929 52.522" style="enable-background:new 0 0 209.929 52.522;" xml:space="preserve">
<g id="Layer_1">
	<g>
		<path style="fill:#114B8A;" d="M0,0.884h2.38v9.995h4.606v1.87H0V0.884z"/>
		<path style="fill:#114B8A;" d="M15.316,12.255c-0.833,0.459-1.785,0.697-3.009,0.697c-2.89,0-4.573-1.666-4.573-4.539
			c0-2.533,1.343-4.624,4.062-4.624c3.247,0,4.165,2.227,4.165,5.287H9.91c0.103,1.411,1.088,2.209,2.499,2.209
			c1.104,0,2.057-0.408,2.907-0.884V12.255z M13.786,7.513c-0.068-1.105-0.578-2.057-1.853-2.057c-1.275,0-1.921,0.884-2.023,2.057
			H13.786z"/>
		<path style="fill:#114B8A;" d="M18.139,4.453c0.884-0.408,2.074-0.663,3.043-0.663c2.669,0,3.773,1.105,3.773,3.688v1.122
			c0,0.884,0.017,1.547,0.034,2.193c0.017,0.663,0.051,1.274,0.102,1.955h-2.006C23,12.29,23,11.711,22.983,11.439h-0.034
			c-0.527,0.969-1.666,1.513-2.703,1.513c-1.546,0-3.06-0.935-3.06-2.601c0-1.309,0.629-2.074,1.496-2.499s1.989-0.51,2.94-0.51
			h1.258c0-1.411-0.629-1.887-1.972-1.887c-0.969,0-1.938,0.374-2.702,0.952L18.139,4.453z M20.808,11.287
			c0.697,0,1.241-0.306,1.598-0.782c0.374-0.493,0.476-1.122,0.476-1.802h-0.985c-1.02,0-2.533,0.17-2.533,1.513
			C19.362,10.964,19.991,11.287,20.808,11.287z"/>
		<path style="fill:#114B8A;" d="M27.251,3.995h2.022v1.989h0.034c0.103-0.816,1.037-2.193,2.396-2.193c0.222,0,0.459,0,0.697,0.068
			v2.295c-0.204-0.119-0.612-0.187-1.02-0.187c-1.854,0-1.854,2.312-1.854,3.569v3.213h-2.277V3.995z"/>
		<path style="fill:#114B8A;" d="M34.118,3.995h2.159v1.189h0.034c0.714-1.002,1.683-1.394,2.872-1.394
			c2.074,0,2.975,1.462,2.975,3.434v5.524h-2.277V8.074c0-1.071-0.017-2.516-1.479-2.516c-1.649,0-2.006,1.785-2.006,2.907v4.284
			h-2.278V3.995z"/>
		<path style="fill:#114B8A;" d="M49.231,0h2.277v5.184h0.034c0.578-0.85,1.563-1.394,2.754-1.394c2.073,0,2.975,1.462,2.975,3.434
			v5.524h-2.278V8.074c0-1.071-0.017-2.516-1.479-2.516c-1.648,0-2.006,1.785-2.006,2.907v4.284h-2.277V0z"/>
		<path style="fill:#114B8A;" d="M63.63,3.791c2.601,0,4.589,1.75,4.589,4.641c0,2.516-1.683,4.521-4.589,4.521
			c-2.89,0-4.573-2.006-4.573-4.521C59.057,5.541,61.046,3.791,63.63,3.791z M63.63,11.185c1.75,0,2.209-1.563,2.209-3.025
			c0-1.343-0.714-2.601-2.209-2.601c-1.479,0-2.193,1.292-2.193,2.601C61.437,9.604,61.895,11.185,63.63,11.185z"/>
		<path style="fill:#114B8A;" d="M69.019,3.995h2.414l1.938,6.476h0.034l1.768-6.476h2.652l1.903,6.476h0.034l1.818-6.476h2.176
			l-2.686,8.754h-2.686l-1.903-6.68h-0.034l-1.87,6.68h-2.601L69.019,3.995z"/>
		<path style="fill:#114B8A;" d="M90.047,0.884h4.147c1.53,0,3.824,0.442,3.824,3.042c0,1.411-0.951,2.397-2.362,2.652v0.034
			c1.615,0.153,2.72,1.241,2.72,2.703c0,2.992-2.686,3.434-4.182,3.434h-4.147V0.884z M92.427,5.677h0.969
			c1.003,0,2.244-0.221,2.244-1.445c0-1.377-1.207-1.479-2.295-1.479h-0.918V5.677z M92.427,10.879h1.122
			c1.104,0,2.447-0.272,2.447-1.649c0-1.547-1.258-1.785-2.447-1.785h-1.122V10.879z"/>
		<path style="fill:#114B8A;" d="M100.229,0.884h2.566c2.55,0,5.593-0.085,5.593,3.212c0,1.394-0.935,2.55-2.447,2.754v0.034
			c0.646,0.051,1.02,0.697,1.258,1.224l1.903,4.641h-2.651l-1.428-3.706c-0.341-0.884-0.646-1.224-1.649-1.224h-0.765v4.93h-2.38
			V0.884z M102.609,5.949h0.782c1.173,0,2.516-0.17,2.516-1.649c0-1.428-1.326-1.547-2.516-1.547h-0.782V5.949z"/>
		<path style="fill:#114B8A;" d="M110.82,0.884h7.003v1.87H113.2v2.924h4.232v1.87H113.2v3.332h4.657v1.87h-7.037V0.884z"/>
		<path style="fill:#114B8A;" d="M125.508,0.68c3.723,0,5.813,2.516,5.813,6.103c0,3.586-2.057,6.17-5.813,6.17
			c-3.808,0-5.813-2.533-5.813-6.17S121.734,0.68,125.508,0.68z M125.508,11.083c2.431,0,3.332-2.159,3.332-4.3
			c0-2.091-0.969-4.232-3.332-4.232c-2.362,0-3.332,2.142-3.332,4.232C122.176,8.924,123.077,11.083,125.508,11.083z"/>
		<path style="fill:#114B8A;" d="M137.985,3.995h2.125v1.224h0.034c0.714-1.071,1.751-1.428,2.601-1.428
			c1.224,0,2.091,0.459,2.584,1.547c0.526-1.054,1.666-1.547,2.736-1.547c2.159,0,2.771,1.479,2.771,3.434v5.524h-2.277V7.53
			c0-0.816,0-1.972-1.309-1.972c-1.514,0-1.7,1.802-1.7,2.941v4.25h-2.277V7.53c0-0.816,0-1.972-1.31-1.972
			c-1.513,0-1.699,1.802-1.699,2.941v4.25h-2.278V3.995z"/>
		<path style="fill:#114B8A;" d="M153.523,4.453c0.885-0.408,2.074-0.663,3.043-0.663c2.669,0,3.773,1.105,3.773,3.688v1.122
			c0,0.884,0.018,1.547,0.034,2.193c0.017,0.663,0.051,1.274,0.103,1.955h-2.006c-0.085-0.459-0.085-1.037-0.103-1.309h-0.034
			c-0.526,0.969-1.665,1.513-2.702,1.513c-1.547,0-3.06-0.935-3.06-2.601c0-1.309,0.629-2.074,1.495-2.499
			c0.867-0.425,1.989-0.51,2.941-0.51h1.258c0-1.411-0.629-1.887-1.972-1.887c-0.97,0-1.938,0.374-2.703,0.952L153.523,4.453z
			 M156.192,11.287c0.697,0,1.241-0.306,1.598-0.782c0.374-0.493,0.477-1.122,0.477-1.802h-0.986c-1.02,0-2.532,0.17-2.532,1.513
			C154.748,10.964,155.377,11.287,156.192,11.287z"/>
		<path style="fill:#114B8A;" d="M166.223,10.386h0.034l2.107-6.391h2.312l-3.28,8.686c-0.73,1.938-1.258,3.841-3.638,3.841
			c-0.544,0-1.088-0.085-1.615-0.238l0.153-1.683c0.289,0.102,0.612,0.153,1.173,0.153c0.918,0,1.479-0.629,1.479-1.564
			l-3.349-9.196h2.517L166.223,10.386z"/>
		<path style="fill:#114B8A;" d="M176.763,0h2.277v5.184h0.034c0.578-0.85,1.564-1.394,2.754-1.394c2.074,0,2.975,1.462,2.975,3.434
			v5.524h-2.277V8.074c0-1.071-0.018-2.516-1.479-2.516c-1.648,0-2.006,1.785-2.006,2.907v4.284h-2.277V0z"/>
		<path style="fill:#114B8A;" d="M194.17,12.255c-0.833,0.459-1.785,0.697-3.009,0.697c-2.89,0-4.572-1.666-4.572-4.539
			c0-2.533,1.343-4.624,4.062-4.624c3.246,0,4.164,2.227,4.164,5.287h-6.051c0.102,1.411,1.088,2.209,2.498,2.209
			c1.105,0,2.058-0.408,2.907-0.884V12.255z M192.64,7.513c-0.067-1.105-0.578-2.057-1.853-2.057c-1.275,0-1.921,0.884-2.022,2.057
			H192.64z"/>
		<path style="fill:#114B8A;" d="M196.652,0h2.278v12.749h-2.278V0z"/>
		<path style="fill:#114B8A;" d="M201.327,3.995h2.176v1.241h0.034c0.51-0.85,1.377-1.445,2.72-1.445
			c2.686,0,3.672,2.142,3.672,4.556c0,2.396-0.986,4.606-3.723,4.606c-0.97,0-1.769-0.238-2.567-1.207h-0.034v4.573h-2.277V3.995z
			 M203.622,8.346c0,1.241,0.493,2.838,2.006,2.838c1.496,0,1.921-1.632,1.921-2.838c0-1.173-0.408-2.788-1.887-2.788
			C204.2,5.558,203.622,7.122,203.622,8.346z"/>
		<path style="fill:#114B8A;" d="M20.748,28.386h0.034l2.107-6.391h2.312l-3.281,8.686c-0.73,1.938-1.258,3.841-3.638,3.841
			c-0.544,0-1.088-0.085-1.614-0.238l0.152-1.683c0.289,0.102,0.612,0.153,1.173,0.153c0.918,0,1.479-0.629,1.479-1.564
			l-3.349-9.196h2.516L20.748,28.386z"/>
		<path style="fill:#114B8A;" d="M30.574,21.791c2.601,0,4.59,1.75,4.59,4.641c0,2.516-1.683,4.521-4.59,4.521
			c-2.89,0-4.572-2.006-4.572-4.521C26.002,23.541,27.99,21.791,30.574,21.791z M30.574,29.185c1.751,0,2.21-1.563,2.21-3.025
			c0-1.343-0.714-2.601-2.21-2.601c-1.479,0-2.192,1.292-2.192,2.601C28.382,27.604,28.841,29.185,30.574,29.185z"/>
		<path style="fill:#114B8A;" d="M44.989,30.749h-2.158v-1.19h-0.034c-0.697,0.85-1.683,1.394-2.873,1.394
			c-2.073,0-2.975-1.462-2.975-3.434v-5.524h2.278v4.674c0,1.071,0.017,2.516,1.479,2.516c1.648,0,2.006-1.785,2.006-2.907v-4.283
			h2.277V30.749z"/>
		<path style="fill:#114B8A;" d="M47.387,21.995h2.023v1.989h0.034c0.102-0.816,1.036-2.193,2.396-2.193
			c0.221,0,0.459,0,0.697,0.068v2.295c-0.204-0.119-0.612-0.187-1.021-0.187c-1.853,0-1.853,2.312-1.853,3.569v3.213h-2.278V21.995z
			"/>
		<path style="fill:#114B8A;" d="M58.675,21.995h2.176v1.241h0.034c0.51-0.85,1.377-1.445,2.72-1.445
			c2.686,0,3.672,2.142,3.672,4.556c0,2.396-0.986,4.606-3.723,4.606c-0.969,0-1.768-0.238-2.566-1.207h-0.034v4.573h-2.278V21.995z
			 M60.97,26.346c0,1.241,0.493,2.838,2.006,2.838c1.496,0,1.921-1.632,1.921-2.838c0-1.173-0.408-2.788-1.887-2.788
			C61.548,23.558,60.97,25.122,60.97,26.346z"/>
		<path style="fill:#114B8A;" d="M69.453,22.453c0.884-0.408,2.073-0.663,3.042-0.663c2.669,0,3.774,1.105,3.774,3.688v1.122
			c0,0.884,0.017,1.547,0.033,2.193c0.018,0.663,0.052,1.274,0.103,1.955h-2.006c-0.085-0.459-0.085-1.037-0.103-1.309h-0.033
			c-0.527,0.969-1.666,1.513-2.703,1.513c-1.547,0-3.06-0.935-3.06-2.601c0-1.309,0.629-2.074,1.496-2.499
			c0.866-0.425,1.988-0.51,2.94-0.51h1.258c0-1.411-0.629-1.887-1.972-1.887c-0.969,0-1.938,0.374-2.703,0.952L69.453,22.453z
			 M72.121,29.287c0.697,0,1.241-0.306,1.599-0.782c0.374-0.493,0.476-1.122,0.476-1.802h-0.986c-1.02,0-2.532,0.17-2.532,1.513
			C70.677,28.964,71.306,29.287,72.121,29.287z"/>
		<path style="fill:#114B8A;" d="M79.262,23.66h-1.683v-1.666h1.683v-1.751l2.277-0.731v2.482h2.023v1.666h-2.023v4.08
			c0,0.748,0.204,1.445,1.071,1.445c0.408,0,0.799-0.085,1.037-0.238l0.067,1.802c-0.476,0.136-1.003,0.204-1.683,0.204
			c-1.785,0-2.771-1.105-2.771-2.839V23.66z"/>
		<path style="fill:#114B8A;" d="M85.178,18.221h2.278v2.176h-2.278V18.221z M85.178,21.995h2.278v8.754h-2.278V21.995z"/>
		<path style="fill:#114B8A;" d="M96.873,30.255c-0.833,0.459-1.785,0.697-3.009,0.697c-2.89,0-4.572-1.666-4.572-4.539
			c0-2.533,1.343-4.624,4.062-4.624c3.246,0,4.164,2.227,4.164,5.287h-6.051c0.102,1.411,1.088,2.209,2.498,2.209
			c1.105,0,2.058-0.408,2.907-0.884V30.255z M95.343,25.513c-0.067-1.105-0.578-2.057-1.853-2.057c-1.275,0-1.921,0.884-2.022,2.057
			H95.343z"/>
		<path style="fill:#114B8A;" d="M99.305,21.995h2.159v1.189h0.033c0.714-1.002,1.684-1.394,2.873-1.394
			c2.074,0,2.975,1.462,2.975,3.434v5.524h-2.277v-4.674c0-1.071-0.018-2.516-1.479-2.516c-1.648,0-2.006,1.785-2.006,2.907v4.284
			h-2.277V21.995z"/>
		<path style="fill:#114B8A;" d="M110.439,23.66h-1.683v-1.666h1.683v-1.751l2.277-0.731v2.482h2.023v1.666h-2.023v4.08
			c0,0.748,0.204,1.445,1.071,1.445c0.408,0,0.799-0.085,1.037-0.238l0.067,1.802c-0.476,0.136-1.003,0.204-1.683,0.204
			c-1.785,0-2.771-1.105-2.771-2.839V23.66z"/>
		<path style="fill:#114B8A;" d="M121.506,23.83c-0.696-0.238-1.207-0.374-2.039-0.374c-0.612,0-1.344,0.221-1.344,0.969
			c0,1.394,3.961,0.51,3.961,3.671c0,2.04-1.818,2.856-3.672,2.856c-0.866,0-1.75-0.153-2.583-0.374l0.136-1.87
			c0.714,0.357,1.462,0.578,2.244,0.578c0.577,0,1.495-0.221,1.495-1.071c0-1.717-3.96-0.544-3.96-3.706
			c0-1.887,1.648-2.72,3.434-2.72c1.07,0,1.768,0.17,2.481,0.323L121.506,23.83z"/>
		<path style="fill:#114B8A;" d="M128.629,18.221h2.278v2.176h-2.278V18.221z M128.629,21.995h2.278v8.754h-2.278V21.995z"/>
		<path style="fill:#114B8A;" d="M133.27,21.995h2.125v1.224h0.034c0.714-1.071,1.751-1.428,2.601-1.428
			c1.224,0,2.091,0.459,2.584,1.547c0.526-1.054,1.666-1.547,2.736-1.547c2.159,0,2.771,1.479,2.771,3.434v5.524h-2.277V25.53
			c0-0.816,0-1.972-1.309-1.972c-1.514,0-1.7,1.802-1.7,2.941v4.25h-2.277V25.53c0-0.816,0-1.972-1.31-1.972
			c-1.513,0-1.699,1.802-1.699,2.941v4.25h-2.278V21.995z"/>
		<path style="fill:#114B8A;" d="M148.417,21.995h2.176v1.241h0.034c0.51-0.85,1.377-1.445,2.72-1.445
			c2.686,0,3.672,2.142,3.672,4.556c0,2.396-0.986,4.606-3.723,4.606c-0.97,0-1.769-0.238-2.567-1.207h-0.034v4.573h-2.277V21.995z
			 M150.712,26.346c0,1.241,0.493,2.838,2.006,2.838c1.496,0,1.921-1.632,1.921-2.838c0-1.173-0.408-2.788-1.887-2.788
			C151.29,23.558,150.712,25.122,150.712,26.346z"/>
		<path style="fill:#114B8A;" d="M158.854,21.995h2.023v1.989h0.033c0.103-0.816,1.037-2.193,2.397-2.193
			c0.221,0,0.459,0,0.696,0.068v2.295c-0.204-0.119-0.611-0.187-1.02-0.187c-1.853,0-1.853,2.312-1.853,3.569v3.213h-2.278V21.995z"
			/>
		<path style="fill:#114B8A;" d="M169.123,21.791c2.601,0,4.59,1.75,4.59,4.641c0,2.516-1.684,4.521-4.59,4.521
			c-2.89,0-4.572-2.006-4.572-4.521C164.551,23.541,166.539,21.791,169.123,21.791z M169.123,29.185c1.751,0,2.21-1.563,2.21-3.025
			c0-1.343-0.714-2.601-2.21-2.601c-1.479,0-2.193,1.292-2.193,2.601C166.93,27.604,167.389,29.185,169.123,29.185z"/>
		<path style="fill:#114B8A;" d="M174.529,21.995h2.447l2.176,6.374h0.034l2.108-6.374h2.277l-3.229,8.754h-2.567L174.529,21.995z"
			/>
		<path style="fill:#114B8A;" d="M191.971,30.255c-0.833,0.459-1.785,0.697-3.009,0.697c-2.89,0-4.572-1.666-4.572-4.539
			c0-2.533,1.343-4.624,4.062-4.624c3.246,0,4.164,2.227,4.164,5.287h-6.051c0.102,1.411,1.088,2.209,2.498,2.209
			c1.105,0,2.058-0.408,2.907-0.884V30.255z M190.44,25.513c-0.067-1.105-0.578-2.057-1.853-2.057c-1.275,0-1.921,0.884-2.022,2.057
			H190.44z"/>
		<path style="fill:#114B8A;" d="M6.188,40.453c0.884-0.408,2.073-0.663,3.042-0.663c2.669,0,3.774,1.105,3.774,3.688v1.122
			c0,0.884,0.017,1.547,0.033,2.193c0.018,0.663,0.052,1.274,0.103,1.955h-2.006c-0.085-0.459-0.085-1.037-0.103-1.309h-0.033
			c-0.527,0.969-1.666,1.513-2.703,1.513c-1.547,0-3.06-0.935-3.06-2.601c0-1.309,0.629-2.074,1.496-2.499
			c0.866-0.425,1.988-0.51,2.94-0.51h1.258c0-1.411-0.629-1.887-1.972-1.887c-0.969,0-1.938,0.374-2.703,0.952L6.188,40.453z
			 M8.856,47.287c0.697,0,1.241-0.306,1.599-0.782c0.374-0.493,0.476-1.122,0.476-1.802H9.944c-1.02,0-2.532,0.17-2.532,1.513
			C7.412,46.964,8.041,47.287,8.856,47.287z"/>
		<path style="fill:#114B8A;" d="M20.451,41.83c-0.697-0.238-1.207-0.374-2.04-0.374c-0.612,0-1.343,0.221-1.343,0.969
			c0,1.394,3.96,0.51,3.96,3.671c0,2.04-1.818,2.856-3.671,2.856c-0.867,0-1.751-0.153-2.584-0.374l0.136-1.87
			c0.714,0.357,1.462,0.578,2.244,0.578c0.578,0,1.496-0.221,1.496-1.071c0-1.717-3.961-0.544-3.961-3.706
			c0-1.887,1.648-2.72,3.434-2.72c1.071,0,1.768,0.17,2.481,0.323L20.451,41.83z"/>
		<path style="fill:#114B8A;" d="M23.545,41.66h-1.683v-1.666h1.683v-1.751l2.278-0.731v2.482h2.022v1.666h-2.022v4.08
			c0,0.748,0.203,1.445,1.07,1.445c0.408,0,0.799-0.085,1.037-0.238l0.068,1.802c-0.477,0.136-1.003,0.204-1.684,0.204
			c-1.784,0-2.771-1.105-2.771-2.839V41.66z"/>
		<path style="fill:#114B8A;" d="M29.41,36h2.277v5.184h0.034c0.578-0.85,1.563-1.394,2.754-1.394c2.073,0,2.975,1.462,2.975,3.434
			v5.524h-2.278v-4.674c0-1.071-0.017-2.516-1.479-2.516c-1.648,0-2.006,1.785-2.006,2.907v4.284H29.41V36z"/>
		<path style="fill:#114B8A;" d="M39.763,39.995h2.125v1.224h0.034c0.714-1.071,1.75-1.428,2.601-1.428
			c1.224,0,2.091,0.459,2.583,1.547c0.527-1.054,1.666-1.547,2.737-1.547c2.158,0,2.771,1.479,2.771,3.434v5.524h-2.277V43.53
			c0-0.816,0-1.972-1.31-1.972c-1.513,0-1.699,1.802-1.699,2.941v4.25h-2.278V43.53c0-0.816,0-1.972-1.309-1.972
			c-1.513,0-1.7,1.802-1.7,2.941v4.25h-2.277V39.995z"/>
		<path style="fill:#114B8A;" d="M55.301,40.453c0.884-0.408,2.073-0.663,3.042-0.663c2.669,0,3.774,1.105,3.774,3.688v1.122
			c0,0.884,0.017,1.547,0.033,2.193c0.018,0.663,0.052,1.274,0.103,1.955h-2.006c-0.085-0.459-0.085-1.037-0.103-1.309h-0.033
			c-0.527,0.969-1.666,1.513-2.703,1.513c-1.547,0-3.06-0.935-3.06-2.601c0-1.309,0.629-2.074,1.496-2.499
			c0.866-0.425,1.988-0.51,2.94-0.51h1.258c0-1.411-0.629-1.887-1.972-1.887c-0.969,0-1.938,0.374-2.703,0.952L55.301,40.453z
			 M57.969,47.287c0.697,0,1.241-0.306,1.599-0.782c0.374-0.493,0.476-1.122,0.476-1.802h-0.986c-1.02,0-2.532,0.17-2.532,1.513
			C56.524,46.964,57.153,47.287,57.969,47.287z"/>
		<path style="fill:#114B8A;" d="M63.783,45.111v-1.87h4.471v1.87H63.783z"/>
		<path style="fill:#114B8A;" d="M75.224,41.83c-0.697-0.238-1.207-0.374-2.04-0.374c-0.611,0-1.343,0.221-1.343,0.969
			c0,1.394,3.961,0.51,3.961,3.671c0,2.04-1.819,2.856-3.672,2.856c-0.867,0-1.751-0.153-2.584-0.374l0.137-1.87
			c0.714,0.357,1.462,0.578,2.243,0.578c0.578,0,1.496-0.221,1.496-1.071c0-1.717-3.961-0.544-3.961-3.706
			c0-1.887,1.649-2.72,3.434-2.72c1.071,0,1.769,0.17,2.482,0.323L75.224,41.83z"/>
		<path style="fill:#114B8A;" d="M81.207,46.386h0.034l2.108-6.391h2.312l-3.28,8.686c-0.731,1.938-1.259,3.841-3.638,3.841
			c-0.544,0-1.088-0.085-1.615-0.238l0.153-1.683c0.289,0.102,0.611,0.153,1.173,0.153c0.918,0,1.479-0.629,1.479-1.564
			l-3.349-9.196H79.1L81.207,46.386z"/>
		<path style="fill:#114B8A;" d="M86.987,39.995h2.125v1.224h0.034c0.714-1.071,1.751-1.428,2.601-1.428
			c1.224,0,2.091,0.459,2.584,1.547c0.526-1.054,1.666-1.547,2.736-1.547c2.159,0,2.771,1.479,2.771,3.434v5.524h-2.277V43.53
			c0-0.816,0-1.972-1.309-1.972c-1.514,0-1.7,1.802-1.7,2.941v4.25h-2.277V43.53c0-0.816,0-1.972-1.31-1.972
			c-1.513,0-1.699,1.802-1.699,2.941v4.25h-2.278V39.995z"/>
		<path style="fill:#114B8A;" d="M102.135,39.995h2.176v1.241h0.034c0.51-0.85,1.377-1.445,2.72-1.445
			c2.686,0,3.672,2.142,3.672,4.556c0,2.396-0.986,4.606-3.723,4.606c-0.97,0-1.769-0.238-2.567-1.207h-0.034v4.573h-2.277V39.995z
			 M104.43,44.346c0,1.241,0.493,2.838,2.006,2.838c1.496,0,1.921-1.632,1.921-2.838c0-1.173-0.408-2.788-1.887-2.788
			C105.008,41.558,104.43,43.122,104.43,44.346z"/>
		<path style="fill:#114B8A;" d="M113.27,41.66h-1.683v-1.666h1.683v-1.751l2.277-0.731v2.482h2.023v1.666h-2.023v4.08
			c0,0.748,0.204,1.445,1.071,1.445c0.408,0,0.799-0.085,1.037-0.238l0.067,1.802c-0.476,0.136-1.003,0.204-1.683,0.204
			c-1.785,0-2.771-1.105-2.771-2.839V41.66z"/>
		<path style="fill:#114B8A;" d="M123.146,39.791c2.601,0,4.59,1.75,4.59,4.641c0,2.516-1.684,4.521-4.59,4.521
			c-2.89,0-4.572-2.006-4.572-4.521C118.574,41.541,120.562,39.791,123.146,39.791z M123.146,47.185c1.751,0,2.21-1.563,2.21-3.025
			c0-1.343-0.714-2.601-2.21-2.601c-1.479,0-2.193,1.292-2.193,2.601C120.953,45.604,121.412,47.185,123.146,47.185z"/>
		<path style="fill:#114B8A;" d="M129.487,39.995h2.125v1.224h0.034c0.714-1.071,1.751-1.428,2.601-1.428
			c1.224,0,2.091,0.459,2.584,1.547c0.526-1.054,1.666-1.547,2.736-1.547c2.159,0,2.771,1.479,2.771,3.434v5.524h-2.277V43.53
			c0-0.816,0-1.972-1.309-1.972c-1.514,0-1.7,1.802-1.7,2.941v4.25h-2.277V43.53c0-0.816,0-1.972-1.31-1.972
			c-1.513,0-1.699,1.802-1.699,2.941v4.25h-2.278V39.995z"/>
		<path style="fill:#114B8A;" d="M155.038,41.881c-0.408-0.187-0.851-0.323-1.547-0.323c-1.411,0-2.312,1.122-2.312,2.771
			c0,1.615,0.765,2.855,2.362,2.855c0.646,0,1.359-0.238,1.751-0.408l0.102,1.887c-0.663,0.204-1.343,0.289-2.277,0.289
			c-2.873,0-4.317-1.955-4.317-4.624c0-2.533,1.495-4.539,4.232-4.539c0.918,0,1.581,0.102,2.21,0.289L155.038,41.881z"/>
		<path style="fill:#114B8A;" d="M160.92,39.791c2.601,0,4.59,1.75,4.59,4.641c0,2.516-1.684,4.521-4.59,4.521
			c-2.89,0-4.572-2.006-4.572-4.521C156.348,41.541,158.336,39.791,160.92,39.791z M160.92,47.185c1.751,0,2.21-1.563,2.21-3.025
			c0-1.343-0.714-2.601-2.21-2.601c-1.479,0-2.193,1.292-2.193,2.601C158.727,45.604,159.186,47.185,160.92,47.185z"/>
		<path style="fill:#114B8A;" d="M167.295,39.995h2.159v1.189h0.033c0.714-1.002,1.684-1.394,2.873-1.394
			c2.074,0,2.975,1.462,2.975,3.434v5.524h-2.277v-4.674c0-1.071-0.018-2.516-1.479-2.516c-1.648,0-2.006,1.785-2.006,2.907v4.284
			h-2.277V39.995z"/>
		<path style="fill:#114B8A;" d="M178.43,41.66h-1.683v-1.666h1.683v-1.751l2.277-0.731v2.482h2.023v1.666h-2.023v4.08
			c0,0.748,0.204,1.445,1.071,1.445c0.408,0,0.799-0.085,1.037-0.238l0.067,1.802c-0.476,0.136-1.003,0.204-1.683,0.204
			c-1.785,0-2.771-1.105-2.771-2.839V41.66z"/>
		<path style="fill:#114B8A;" d="M184.346,39.995h2.023v1.989h0.033c0.103-0.816,1.037-2.193,2.397-2.193
			c0.221,0,0.459,0,0.696,0.068v2.295c-0.204-0.119-0.611-0.187-1.02-0.187c-1.853,0-1.853,2.312-1.853,3.569v3.213h-2.278V39.995z"
			/>
		<path style="fill:#114B8A;" d="M194.614,39.791c2.601,0,4.59,1.75,4.59,4.641c0,2.516-1.684,4.521-4.59,4.521
			c-2.89,0-4.572-2.006-4.572-4.521C190.042,41.541,192.03,39.791,194.614,39.791z M194.614,47.185c1.751,0,2.21-1.563,2.21-3.025
			c0-1.343-0.714-2.601-2.21-2.601c-1.479,0-2.192,1.292-2.192,2.601C192.422,45.604,192.88,47.185,194.614,47.185z"/>
		<path style="fill:#114B8A;" d="M201.04,36h2.278v12.749h-2.278V36z"/>
	</g>
</g>
<g id="Layer_2">
</g>
</svg>
