<?xml version="1.0" encoding="iso-8859-1"?>
<!-- Generator: Adobe Illustrator 19.1.0, SVG Export Plug-In . SVG Version: 6.00 Build 0)  -->
<svg version="1.1" xmlns="http://www.w3.org/2000/svg" xmlns:xlink="http://www.w3.org/1999/xlink" x="0px" y="0px"
	 viewBox="0 0 169.981 183.415" style="enable-background:new 0 0 169.981 183.415;" xml:space="preserve">
<g id="art">
	<g id="New_Symbol">
	</g>
</g>
<g id="isi">
</g>
<g id="frame">
	<g>
		<g>
			<path style="fill:#002D73;" d="M91.709,183.415C41.141,183.415,0,142.276,0,91.708C0,41.14,41.141,0,91.709,0
				c7.814,0,15.6,0.993,23.139,2.952c2.448,0.636,3.916,3.136,3.28,5.583c-0.637,2.447-3.135,3.914-5.583,3.28
				c-6.788-1.764-13.797-2.658-20.836-2.658c-45.519,0-82.552,37.032-82.552,82.551c0,45.518,37.033,82.55,82.552,82.55
				c26.337,0,50.48-12.142,66.237-33.313c1.509-2.03,4.377-2.449,6.406-0.94c2.029,1.51,2.449,4.378,0.94,6.406
				C147.79,169.928,120.97,183.415,91.709,183.415z"/>
		</g>
		<g>
			<polygon style="fill:#002D73;" points="142.405,139.443 169.806,155.462 169.981,123.725 			"/>
		</g>
	</g>
</g>
</svg>
