<?xml version="1.0" encoding="iso-8859-1"?>
<!-- Generator: Adobe Illustrator 19.1.0, SVG Export Plug-In . SVG Version: 6.00 Build 0)  -->
<svg version="1.1" xmlns="http://www.w3.org/2000/svg" xmlns:xlink="http://www.w3.org/1999/xlink" x="0px" y="0px"
	 viewBox="0 0 242.671 259.14" style="enable-background:new 0 0 242.671 259.14;" xml:space="preserve">
<g id="art">
	<g id="New_Symbol">
	</g>
	<g style="opacity:0.25;">
		<g>
			<path style="fill:#114B8A;" d="M129.573,259.14C58.126,259.14,0,201.017,0,129.572C0,58.126,58.126,0,129.573,0
				c11.041,0,22.041,1.404,32.692,4.171c3.458,0.898,5.533,4.43,4.635,7.888c-0.9,3.458-4.429,5.53-7.888,4.634
				c-9.59-2.492-19.494-3.755-29.438-3.755c-64.313,0-116.635,52.322-116.635,116.634c0,64.31,52.322,116.632,116.635,116.632
				c37.211,0,71.322-17.155,93.583-47.066c2.132-2.868,6.184-3.459,9.051-1.327c2.867,2.133,3.461,6.185,1.327,9.051
				C208.807,240.086,170.915,259.14,129.573,259.14z"/>
		</g>
		<g>
			<polygon style="fill:#114B8A;" points="203.71,199.525 242.424,222.158 242.671,177.318 			"/>
		</g>
	</g>
</g>
<g id="isi">
</g>
<g id="frame">
</g>
</svg>
