<?xml version="1.0" encoding="iso-8859-1"?>
<!-- Generator: Adobe Illustrator 19.1.0, SVG Export Plug-In . SVG Version: 6.00 Build 0)  -->
<svg version="1.1" xmlns="http://www.w3.org/2000/svg" xmlns:xlink="http://www.w3.org/1999/xlink" x="0px" y="0px"
	 viewBox="0 0 128.262 36.483" style="enable-background:new 0 0 128.262 36.483;" xml:space="preserve">
<g id="art">
	<g id="New_Symbol">
	</g>
	<g>
		<path style="fill:#002D73;" d="M0.62,4.94H3v2.341h0.041C3.16,6.321,4.261,4.7,5.861,4.7c0.26,0,0.54,0,0.82,0.08v2.701
			C6.441,7.341,5.961,7.261,5.48,7.261c-2.18,0-2.18,2.721-2.18,4.201v3.781H0.62V4.94z"/>
		<path style="fill:#002D73;" d="M16.242,14.663c-0.98,0.54-2.102,0.82-3.541,0.82c-3.4,0-5.381-1.961-5.381-5.342
			c0-2.98,1.58-5.441,4.78-5.441c3.821,0,4.901,2.621,4.901,6.222H9.881c0.119,1.66,1.279,2.601,2.939,2.601
			c1.301,0,2.422-0.48,3.422-1.04V14.663z M14.441,9.082c-0.08-1.301-0.68-2.421-2.181-2.421S10,7.701,9.881,9.082H14.441z"/>
		<path style="fill:#002D73;" d="M19.561,5.48C20.6,5.001,22,4.7,23.141,4.7c3.141,0,4.441,1.301,4.441,4.342v1.32
			c0,1.04,0.02,1.82,0.04,2.58c0.021,0.78,0.06,1.5,0.12,2.301h-2.361c-0.1-0.54-0.1-1.221-0.119-1.541h-0.041
			c-0.619,1.141-1.96,1.781-3.18,1.781c-1.82,0-3.602-1.101-3.602-3.062c0-1.54,0.74-2.44,1.761-2.94s2.341-0.6,3.461-0.6h1.479
			c0-1.66-0.739-2.221-2.32-2.221c-1.14,0-2.279,0.44-3.18,1.12L19.561,5.48z M22.701,13.522c0.82,0,1.46-0.36,1.88-0.92
			c0.44-0.58,0.56-1.32,0.56-2.121h-1.16c-1.199,0-2.98,0.2-2.98,1.781C21,13.143,21.74,13.522,22.701,13.522z"/>
		<path style="fill:#002D73;" d="M36.901,7.161c-0.479-0.22-1-0.38-1.82-0.38c-1.66,0-2.72,1.32-2.72,3.261
			c0,1.9,0.899,3.36,2.779,3.36c0.761,0,1.602-0.28,2.061-0.479l0.121,2.22c-0.781,0.24-1.581,0.341-2.682,0.341
			c-3.381,0-5.08-2.301-5.08-5.441c0-2.98,1.76-5.342,4.98-5.342c1.08,0,1.86,0.12,2.601,0.341L36.901,7.161z"/>
		<path style="fill:#002D73;" d="M39.1,0.239h2.682v6.102h0.039c0.681-1,1.841-1.641,3.241-1.641c2.44,0,3.501,1.721,3.501,4.041
			v6.502h-2.682V9.742c0-1.261-0.02-2.961-1.74-2.961c-1.939,0-2.359,2.101-2.359,3.421v5.041H39.1V0.239z"/>
		<path style="fill:#002D73;" d="M57.859,6.901h-1.98V4.94h1.98V3.5c0-2.06,1.16-3.5,3.281-3.5c0.68,0,1.44,0.1,1.961,0.22
			L62.881,2.44c-0.24-0.141-0.58-0.36-1.16-0.36c-0.9,0-1.18,0.78-1.18,1.58v1.28h2.34v1.961h-2.34v8.342h-2.682V6.901z"/>
		<path style="fill:#002D73;" d="M69.381,4.7c3.061,0,5.4,2.061,5.4,5.462c0,2.96-1.98,5.321-5.4,5.321
			c-3.4,0-5.381-2.361-5.381-5.321C64,6.761,66.34,4.7,69.381,4.7z M69.381,13.402c2.061,0,2.6-1.84,2.6-3.561
			c0-1.58-0.84-3.061-2.6-3.061c-1.74,0-2.58,1.521-2.58,3.061C66.801,11.542,67.34,13.402,69.381,13.402z"/>
		<path style="fill:#002D73;" d="M76.939,4.94h2.381v2.341h0.039C79.48,6.321,80.58,4.7,82.182,4.7c0.26,0,0.539,0,0.82,0.08v2.701
			c-0.24-0.141-0.721-0.221-1.201-0.221c-2.18,0-2.18,2.721-2.18,4.201v3.781h-2.682V4.94z"/>
		<path style="fill:#002D73;" d="M0,36.243v-2.341c1.301-1.26,6.041-5.221,6.041-7.781c0-1.28-1.141-1.881-2.28-1.881
			c-1.181,0-2.301,0.521-3.221,1.12l-0.22-2.32c1.26-0.64,2.721-1,4.141-1c2.66,0,4.381,1.34,4.381,4.081
			c0,2.96-2.98,5.681-5.262,7.921h5.701v2.201H0z"/>
		<path style="fill:#002D73;" d="M10.619,31.082l5.222-8.802h3.481v8.981h1.779v2.081h-1.779v2.9h-2.682v-2.9h-6.021V31.082z
			 M16.641,31.262V25.2h-0.039l-3.461,6.062H16.641z"/>
		<path style="fill:#002D73;" d="M22.12,31.962v-2.2h5.261v2.2H22.12z"/>
		<path style="fill:#002D73;" d="M29.46,21.239h2.681v6.102h0.04c0.681-1,1.841-1.641,3.241-1.641c2.439,0,3.5,1.721,3.5,4.041
			v6.502h-2.681v-5.501c0-1.261-0.021-2.961-1.74-2.961c-1.94,0-2.36,2.101-2.36,3.421v5.041H29.46V21.239z"/>
		<path style="fill:#002D73;" d="M46.4,25.7c3.061,0,5.401,2.061,5.401,5.462c0,2.96-1.98,5.321-5.401,5.321
			c-3.4,0-5.381-2.361-5.381-5.321C41.02,27.761,43.359,25.7,46.4,25.7z M46.4,34.402c2.061,0,2.601-1.84,2.601-3.561
			c0-1.58-0.84-3.061-2.601-3.061c-1.74,0-2.58,1.521-2.58,3.061C43.82,32.542,44.36,34.402,46.4,34.402z"/>
		<path style="fill:#002D73;" d="M63.361,36.243H60.82v-1.4h-0.039c-0.82,1-1.98,1.641-3.381,1.641
			c-2.441,0-3.501-1.721-3.501-4.041V25.94h2.681v5.502c0,1.26,0.02,2.96,1.74,2.96c1.94,0,2.36-2.101,2.36-3.421V25.94h2.681
			V36.243z"/>
		<path style="fill:#002D73;" d="M66.18,25.94h2.38v2.341h0.04c0.12-0.96,1.221-2.581,2.82-2.581c0.26,0,0.541,0,0.82,0.08v2.701
			c-0.24-0.141-0.721-0.221-1.2-0.221c-2.181,0-2.181,2.721-2.181,4.201v3.781h-2.68V25.94z"/>
		<path style="fill:#002D73;" d="M79.699,22.28h4.881c1.801,0,4.5,0.52,4.5,3.58c0,1.661-1.119,2.821-2.779,3.121v0.04
			c1.9,0.18,3.201,1.46,3.201,3.181c0,3.521-3.162,4.041-4.922,4.041h-4.881V22.28z M82.5,27.921h1.141c1.18,0,2.641-0.26,2.641-1.7
			c0-1.62-1.422-1.74-2.701-1.74H82.5V27.921z M82.5,34.042h1.32c1.301,0,2.881-0.319,2.881-1.94c0-1.82-1.48-2.1-2.881-2.1H82.5
			V34.042z"/>
		<path style="fill:#002D73;" d="M91.678,22.28h3.021c3,0,6.582-0.101,6.582,3.78c0,1.641-1.102,3.001-2.881,3.241v0.04
			c0.76,0.06,1.199,0.82,1.48,1.44l2.24,5.461H99l-1.68-4.361c-0.4-1.04-0.76-1.44-1.941-1.44h-0.9v5.802h-2.801V22.28z
			 M94.479,28.241H95.4c1.379,0,2.959-0.2,2.959-1.94c0-1.681-1.561-1.82-2.959-1.82h-0.922V28.241z"/>
		<path style="fill:#002D73;" d="M104.139,22.28h8.242v2.2h-5.441v3.44h4.98v2.201h-4.98v3.92h5.48v2.201h-8.281V22.28z"/>
		<path style="fill:#002D73;" d="M121.42,22.04c4.381,0,6.842,2.961,6.842,7.182s-2.422,7.262-6.842,7.262
			c-4.48,0-6.842-2.981-6.842-7.262C114.578,24.94,116.979,22.04,121.42,22.04z M121.42,34.282c2.861,0,3.92-2.54,3.92-5.061
			c0-2.461-1.139-4.981-3.92-4.981s-3.922,2.521-3.922,4.981C117.498,31.742,118.559,34.282,121.42,34.282z"/>
	</g>
</g>
<g id="isi">
</g>
<g id="frame">
</g>
</svg>
