<?xml version="1.0" encoding="utf-8"?>
<!-- Generator: Adobe Illustrator 19.1.0, SVG Export Plug-In . SVG Version: 6.00 Build 0)  -->
<!DOCTYPE svg PUBLIC "-//W3C//DTD SVG 1.1//EN" "http://www.w3.org/Graphics/SVG/1.1/DTD/svg11.dtd">
<svg version="1.1" xmlns="http://www.w3.org/2000/svg" xmlns:xlink="http://www.w3.org/1999/xlink" x="0px" y="0px" width="141.2px"
	 height="96.2px" viewBox="0 0 141.2 96.2" style="enable-background:new 0 0 141.2 96.2;" xml:space="preserve">
<style type="text/css">
	.st0{fill:#004B8C;}
	.st1{display:none;fill:none;}
	.st2{opacity:0.6;fill:url(#SVGID_1_);}
	.st3{opacity:0.6;fill:url(#SVGID_2_);}
	.st4{fill:none;}
	.st5{fill:#FFFFFF;}
	.st6{fill:url(#SVGID_3_);}
	.st7{clip-path:url(#SVGID_5_);fill:#FFFFFF;}
	.st8{fill:#002D73;}
	.st9{clip-path:url(#SVGID_6_);fill:#FFFFFF;}
	.st10{clip-path:url(#SVGID_8_);fill:url(#SVGID_9_);}
	.st11{fill:#114B89;}
	.st12{clip-path:url(#SVGID_10_);fill:#FFFFFF;}
	.st13{opacity:0.5;}
	.st14{fill:url(#SVGID_11_);}
	.st15{fill-rule:evenodd;clip-rule:evenodd;fill:url(#SVGID_12_);}
	.st16{fill:url(#SVGID_13_);}
	.st17{fill-rule:evenodd;clip-rule:evenodd;fill:url(#SVGID_14_);}
	.st18{opacity:0.32;}
	.st19{clip-path:url(#SVGID_16_);fill:url(#SVGID_17_);}
	.st20{fill:url(#SVGID_18_);}
	.st21{fill-rule:evenodd;clip-rule:evenodd;fill:url(#SVGID_19_);}
	.st22{clip-path:url(#SVGID_21_);fill:url(#SVGID_22_);}
	.st23{clip-path:url(#SVGID_24_);fill:url(#SVGID_25_);}
	.st24{opacity:0.5;fill:url(#SVGID_26_);}
	.st25{fill:#231F20;}
	.st26{clip-path:url(#SVGID_28_);fill:#231F20;}
	.st27{clip-path:url(#SVGID_28_);fill:#6FA5D9;}
	.st28{clip-path:url(#SVGID_28_);fill:#007AC1;}
	.st29{fill:none;stroke:#58595B;stroke-width:0.1413;}
	.st30{clip-path:url(#SVGID_30_);fill:#F27021;}
	.st31{clip-path:url(#SVGID_32_);}
	.st32{clip-path:url(#SVGID_36_);}
	.st33{clip-path:url(#SVGID_40_);}
	.st34{clip-path:url(#SVGID_44_);}
	.st35{clip-path:url(#SVGID_48_);}
	.st36{clip-path:url(#SVGID_52_);}
	.st37{clip-path:url(#SVGID_56_);}
	.st38{clip-path:url(#SVGID_58_);}
	.st39{clip-path:url(#SVGID_62_);}
	.st40{clip-path:url(#SVGID_64_);}
	.st41{clip-path:url(#SVGID_68_);}
	.st42{clip-path:url(#SVGID_70_);}
	.st43{clip-path:url(#SVGID_74_);}
	.st44{clip-path:url(#SVGID_76_);}
	.st45{clip-path:url(#SVGID_80_);}
	.st46{clip-path:url(#SVGID_84_);}
	.st47{clip-path:url(#SVGID_88_);}
	.st48{clip-path:url(#SVGID_92_);}
	.st49{clip-path:url(#SVGID_96_);}
	.st50{clip-path:url(#SVGID_100_);}
	.st51{clip-path:url(#SVGID_104_);}
	.st52{clip-path:url(#SVGID_108_);}
	.st53{clip-path:url(#SVGID_112_);}
	.st54{clip-path:url(#SVGID_116_);}
	.st55{clip-path:url(#SVGID_120_);}
	.st56{clip-path:url(#SVGID_124_);}
	.st57{clip-path:url(#SVGID_128_);}
	.st58{clip-path:url(#SVGID_132_);}
	.st59{clip-path:url(#SVGID_136_);}
	.st60{clip-path:url(#SVGID_140_);}
	.st61{clip-path:url(#SVGID_144_);}
	.st62{clip-path:url(#SVGID_148_);}
	.st63{clip-path:url(#SVGID_152_);}
	.st64{clip-path:url(#SVGID_156_);}
	.st65{clip-path:url(#SVGID_160_);}
	.st66{clip-path:url(#SVGID_164_);}
	.st67{clip-path:url(#SVGID_168_);}
	.st68{clip-path:url(#SVGID_172_);}
	.st69{clip-path:url(#SVGID_176_);}
	.st70{clip-path:url(#SVGID_180_);}
	.st71{clip-path:url(#SVGID_182_);}
	.st72{clip-path:url(#SVGID_186_);}
	.st73{clip-path:url(#SVGID_190_);}
	.st74{clip-path:url(#SVGID_194_);}
	.st75{clip-path:url(#SVGID_198_);}
	.st76{clip-path:url(#SVGID_202_);}
	.st77{clip-path:url(#SVGID_206_);}
	.st78{clip-path:url(#SVGID_210_);}
	.st79{clip-path:url(#SVGID_214_);}
	.st80{clip-path:url(#SVGID_218_);}
	.st81{clip-path:url(#SVGID_222_);}
	.st82{clip-path:url(#SVGID_224_);}
	.st83{clip-path:url(#SVGID_228_);}
	.st84{clip-path:url(#SVGID_232_);}
	.st85{clip-path:url(#SVGID_236_);}
	.st86{clip-path:url(#SVGID_240_);}
	.st87{clip-path:url(#SVGID_244_);}
	.st88{clip-path:url(#SVGID_248_);}
	.st89{clip-path:url(#SVGID_252_);}
	.st90{clip-path:url(#SVGID_256_);}
	.st91{clip-path:url(#SVGID_260_);}
	.st92{clip-path:url(#SVGID_264_);}
	.st93{clip-path:url(#SVGID_268_);}
	.st94{clip-path:url(#SVGID_272_);}
	.st95{clip-path:url(#SVGID_276_);}
	.st96{clip-path:url(#SVGID_280_);}
	.st97{clip-path:url(#SVGID_284_);}
	.st98{clip-path:url(#SVGID_288_);}
	.st99{clip-path:url(#SVGID_292_);}
	.st100{clip-path:url(#SVGID_296_);}
	.st101{clip-path:url(#SVGID_300_);}
	.st102{clip-path:url(#SVGID_304_);}
	.st103{clip-path:url(#SVGID_308_);}
	.st104{clip-path:url(#SVGID_312_);}
	.st105{clip-path:url(#SVGID_316_);}
	.st106{clip-path:url(#SVGID_320_);}
	.st107{clip-path:url(#SVGID_324_);}
	.st108{clip-path:url(#SVGID_328_);}
	.st109{clip-path:url(#SVGID_332_);}
	.st110{clip-path:url(#SVGID_336_);}
	.st111{clip-path:url(#SVGID_340_);}
	.st112{clip-path:url(#SVGID_344_);}
	.st113{clip-path:url(#SVGID_348_);}
	.st114{clip-path:url(#SVGID_352_);}
	.st115{clip-path:url(#SVGID_356_);}
	.st116{clip-path:url(#SVGID_360_);}
	.st117{clip-path:url(#SVGID_364_);}
	.st118{clip-path:url(#SVGID_368_);}
	.st119{clip-path:url(#SVGID_372_);}
	.st120{clip-path:url(#SVGID_376_);}
	.st121{clip-path:url(#SVGID_380_);}
	.st122{clip-path:url(#SVGID_384_);}
	.st123{clip-path:url(#SVGID_388_);}
	.st124{clip-path:url(#SVGID_392_);}
	.st125{clip-path:url(#SVGID_396_);}
	.st126{clip-path:url(#SVGID_400_);}
	.st127{clip-path:url(#SVGID_404_);}
	.st128{clip-path:url(#SVGID_408_);}
	.st129{clip-path:url(#SVGID_412_);}
	.st130{clip-path:url(#SVGID_416_);}
	.st131{clip-path:url(#SVGID_420_);}
	.st132{clip-path:url(#SVGID_424_);}
	.st133{clip-path:url(#SVGID_428_);}
	.st134{clip-path:url(#SVGID_432_);}
	.st135{clip-path:url(#SVGID_436_);}
	.st136{clip-path:url(#SVGID_440_);}
	.st137{clip-path:url(#SVGID_444_);}
	.st138{clip-path:url(#SVGID_448_);}
	.st139{clip-path:url(#SVGID_452_);}
	.st140{clip-path:url(#SVGID_456_);}
	.st141{clip-path:url(#SVGID_460_);}
	.st142{clip-path:url(#SVGID_464_);}
	.st143{clip-path:url(#SVGID_468_);}
	.st144{clip-path:url(#SVGID_472_);}
	.st145{clip-path:url(#SVGID_476_);}
	.st146{clip-path:url(#SVGID_480_);}
	.st147{clip-path:url(#SVGID_482_);}
	.st148{clip-path:url(#SVGID_486_);}
	.st149{clip-path:url(#SVGID_490_);}
	.st150{clip-path:url(#SVGID_492_);}
	.st151{clip-path:url(#SVGID_496_);}
	.st152{clip-path:url(#SVGID_500_);}
	.st153{clip-path:url(#SVGID_502_);}
	.st154{clip-path:url(#SVGID_506_);}
	.st155{clip-path:url(#SVGID_508_);}
	.st156{clip-path:url(#SVGID_512_);}
	.st157{clip-path:url(#SVGID_514_);}
	.st158{clip-path:url(#SVGID_518_);}
	.st159{clip-path:url(#SVGID_520_);}
	.st160{clip-path:url(#SVGID_524_);}
	.st161{clip-path:url(#SVGID_526_);}
	.st162{clip-path:url(#SVGID_530_);}
	.st163{clip-path:url(#SVGID_534_);}
	.st164{clip-path:url(#SVGID_536_);}
	.st165{clip-path:url(#SVGID_540_);}
	.st166{clip-path:url(#SVGID_542_);}
	.st167{clip-path:url(#SVGID_546_);}
	.st168{clip-path:url(#SVGID_548_);}
	.st169{clip-path:url(#SVGID_552_);}
	.st170{clip-path:url(#SVGID_554_);}
	.st171{clip-path:url(#SVGID_558_);}
	.st172{clip-path:url(#SVGID_560_);}
	.st173{clip-path:url(#SVGID_564_);}
	.st174{clip-path:url(#SVGID_568_);}
	.st175{clip-path:url(#SVGID_572_);}
	.st176{clip-path:url(#SVGID_576_);}
	.st177{clip-path:url(#SVGID_580_);}
	.st178{clip-path:url(#SVGID_584_);}
	.st179{clip-path:url(#SVGID_588_);}
	.st180{clip-path:url(#SVGID_592_);}
	.st181{clip-path:url(#SVGID_596_);}
	.st182{clip-path:url(#SVGID_600_);}
	.st183{clip-path:url(#SVGID_604_);}
	.st184{clip-path:url(#SVGID_608_);}
	.st185{clip-path:url(#SVGID_612_);}
	.st186{clip-path:url(#SVGID_616_);}
	.st187{clip-path:url(#SVGID_620_);}
	.st188{clip-path:url(#SVGID_624_);}
	.st189{clip-path:url(#SVGID_628_);}
	.st190{clip-path:url(#SVGID_632_);}
	.st191{clip-path:url(#SVGID_636_);}
	.st192{clip-path:url(#SVGID_640_);}
	.st193{clip-path:url(#SVGID_644_);}
	.st194{clip-path:url(#SVGID_648_);}
	.st195{clip-path:url(#SVGID_652_);}
	.st196{clip-path:url(#SVGID_656_);}
	.st197{clip-path:url(#SVGID_660_);}
	.st198{clip-path:url(#SVGID_664_);}
	.st199{clip-path:url(#SVGID_668_);}
	.st200{clip-path:url(#SVGID_672_);}
	.st201{clip-path:url(#SVGID_676_);}
	.st202{clip-path:url(#SVGID_680_);}
	.st203{clip-path:url(#SVGID_684_);}
	.st204{clip-path:url(#SVGID_688_);}
	.st205{clip-path:url(#SVGID_692_);}
	.st206{clip-path:url(#SVGID_694_);}
	.st207{clip-path:url(#SVGID_698_);}
	.st208{clip-path:url(#SVGID_702_);}
	.st209{clip-path:url(#SVGID_704_);}
	.st210{clip-path:url(#SVGID_708_);}
	.st211{clip-path:url(#SVGID_712_);}
	.st212{clip-path:url(#SVGID_716_);}
	.st213{clip-path:url(#SVGID_720_);}
	.st214{clip-path:url(#SVGID_724_);}
	.st215{clip-path:url(#SVGID_728_);}
	.st216{clip-path:url(#SVGID_732_);}
	.st217{clip-path:url(#SVGID_736_);}
	.st218{clip-path:url(#SVGID_740_);}
	.st219{clip-path:url(#SVGID_744_);}
	.st220{clip-path:url(#SVGID_748_);}
	.st221{clip-path:url(#SVGID_752_);}
	.st222{clip-path:url(#SVGID_756_);}
	.st223{clip-path:url(#SVGID_760_);}
	.st224{clip-path:url(#SVGID_764_);}
	.st225{clip-path:url(#SVGID_768_);}
	.st226{clip-path:url(#SVGID_772_);}
	.st227{clip-path:url(#SVGID_776_);}
	.st228{clip-path:url(#SVGID_780_);}
	.st229{clip-path:url(#SVGID_784_);}
	.st230{clip-path:url(#SVGID_788_);}
	.st231{clip-path:url(#SVGID_792_);}
	.st232{clip-path:url(#SVGID_796_);}
	.st233{clip-path:url(#SVGID_800_);}
	.st234{clip-path:url(#SVGID_804_);}
	.st235{clip-path:url(#SVGID_808_);}
	.st236{clip-path:url(#SVGID_812_);}
	.st237{clip-path:url(#SVGID_816_);}
	.st238{clip-path:url(#SVGID_820_);}
	.st239{clip-path:url(#SVGID_824_);}
	.st240{clip-path:url(#SVGID_828_);}
	.st241{clip-path:url(#SVGID_832_);}
	.st242{clip-path:url(#SVGID_836_);}
	.st243{clip-path:url(#SVGID_840_);}
	.st244{clip-path:url(#SVGID_844_);}
	.st245{clip-path:url(#SVGID_848_);}
	.st246{clip-path:url(#SVGID_852_);}
	.st247{clip-path:url(#SVGID_856_);}
	.st248{clip-path:url(#SVGID_860_);}
	.st249{clip-path:url(#SVGID_864_);}
	.st250{clip-path:url(#SVGID_868_);}
	.st251{clip-path:url(#SVGID_872_);}
	.st252{clip-path:url(#SVGID_876_);}
	.st253{clip-path:url(#SVGID_880_);}
	.st254{clip-path:url(#SVGID_884_);}
	.st255{clip-path:url(#SVGID_888_);}
	.st256{clip-path:url(#SVGID_892_);}
	.st257{clip-path:url(#SVGID_896_);}
	.st258{clip-path:url(#SVGID_900_);}
	.st259{clip-path:url(#SVGID_904_);}
	.st260{clip-path:url(#SVGID_908_);}
	.st261{clip-path:url(#SVGID_912_);}
	.st262{clip-path:url(#SVGID_916_);}
	.st263{clip-path:url(#SVGID_920_);}
	.st264{clip-path:url(#SVGID_924_);}
	.st265{clip-path:url(#SVGID_926_);}
	.st266{clip-path:url(#SVGID_930_);}
	.st267{clip-path:url(#SVGID_934_);}
	.st268{clip-path:url(#SVGID_938_);}
	.st269{clip-path:url(#SVGID_942_);}
	.st270{clip-path:url(#SVGID_946_);}
	.st271{clip-path:url(#SVGID_950_);}
	.st272{clip-path:url(#SVGID_954_);}
	.st273{clip-path:url(#SVGID_958_);}
	.st274{clip-path:url(#SVGID_962_);}
	.st275{clip-path:url(#SVGID_966_);}
	.st276{clip-path:url(#SVGID_970_);}
	.st277{clip-path:url(#SVGID_974_);}
	.st278{clip-path:url(#SVGID_978_);}
	.st279{clip-path:url(#SVGID_980_);}
	.st280{clip-path:url(#SVGID_984_);}
	.st281{clip-path:url(#SVGID_986_);}
	.st282{clip-path:url(#SVGID_990_);}
	.st283{clip-path:url(#SVGID_994_);}
	.st284{clip-path:url(#SVGID_996_);}
	.st285{clip-path:url(#SVGID_1000_);}
	.st286{clip-path:url(#SVGID_1002_);}
	.st287{clip-path:url(#SVGID_1006_);}
	.st288{clip-path:url(#SVGID_1008_);}
	.st289{clip-path:url(#SVGID_1012_);}
	.st290{clip-path:url(#SVGID_1016_);}
	.st291{clip-path:url(#SVGID_1020_);}
	.st292{clip-path:url(#SVGID_1024_);}
	.st293{clip-path:url(#SVGID_1028_);}
	.st294{clip-path:url(#SVGID_1032_);fill:#FFFFFF;}
	.st295{fill:url(#SVGID_1033_);}
	.st296{fill:none;stroke:#002D73;stroke-width:0.859;stroke-miterlimit:10;}
	.st297{fill:#65797F;}
	.st298{fill:url(#SVGID_1034_);}
	.st299{fill-rule:evenodd;clip-rule:evenodd;fill:url(#SVGID_1035_);}
	.st300{clip-path:url(#SVGID_1036_);fill:#FFFFFF;}
	.st301{fill:url(#SVGID_1037_);}
	.st302{fill:none;stroke:#002D73;stroke-linecap:round;stroke-miterlimit:10;}
	.st303{opacity:0.6;fill:url(#SVGID_1038_);}
	.st304{fill:url(#SVGID_1039_);}
	.st305{opacity:0.3;fill:#FFFFFF;}
	.st306{clip-path:url(#SVGID_1040_);fill:#FFFFFF;}
	.st307{fill:none;stroke:#002D73;stroke-miterlimit:10;}
	.st308{opacity:0.6;fill:url(#SVGID_1041_);}
	.st309{fill:url(#SVGID_1042_);}
	.st310{clip-path:url(#SVGID_1043_);fill:#FFFFFF;}
	.st311{fill:url(#SVGID_1044_);}
</style>
<g id="Layer_1">
	<g>
		<rect y="1.2" class="st4" width="139.9" height="94.5"/>
		<path class="st11" d="M28.5,11c0.6,0.4,1.4,0.5,1.8,0.5c0.6,0,1.4-0.3,1.4-1.1c0-1.4-3.3-1.3-3.3-3.4c0-1.6,1.2-2.4,2.7-2.4
			c0.7,0,1.2,0.1,1.8,0.3l-0.1,1.2c-0.3-0.2-1.2-0.4-1.5-0.4c-0.7,0-1.4,0.3-1.4,0.9c0,1.6,3.3,1.1,3.3,3.6c0,1.6-1.3,2.4-2.7,2.4
			c-0.7,0-1.5-0.1-2.1-0.4L28.5,11z"/>
		<path class="st11" d="M36.6,3.1H35V1.5h1.6V3.1z M35.1,4.8h1.4v7.6h-1.4V4.8z"/>
		<path class="st11" d="M45.8,12.1c0,2.3-1.2,3.7-3.9,3.7c-0.8,0-1.5-0.1-2.7-0.5l0.1-1.3c1.1,0.5,1.7,0.7,2.8,0.7
			c1.5,0,2.4-1,2.4-2.6v-0.8h0c-0.6,0.8-1.6,1.2-2.6,1.2c-2.2,0-3.3-1.8-3.3-3.8c0-2,1.1-4.1,3.4-4.1c1.3,0,2.1,0.5,2.5,1.3h0V4.8
			h1.3V12.1z M44.4,8.7c0-1.6-0.7-3-2.2-3c-1.4,0-2.1,1.5-2.1,2.8c0,1.4,0.8,2.7,2.1,2.7C43.5,11.3,44.4,10.1,44.4,8.7z"/>
		<path class="st11" d="M48.2,4.8h1.4V6h0c0.4-0.9,1.4-1.4,2.5-1.4c2,0,2.9,1.2,2.9,3.3v4.5h-1.4v-4c0-1.8-0.4-2.7-1.6-2.7
			c-1.6,0-2.3,1.3-2.3,3.1v3.5h-1.4V4.8z"/>
		<path class="st11" d="M59.1,3.1h-1.6V1.5h1.6V3.1z M57.6,4.8H59v7.6h-1.4V4.8z"/>
		<path class="st11" d="M62.5,5.9h-1.8V4.8h1.8V4.1C62.5,2.2,63,1,65,1c0.4,0,0.7,0,0.9,0.1l-0.1,1.1c-0.2-0.1-0.4-0.1-0.7-0.1
			c-1.2,0-1.4,0.8-1.4,1.8v0.8h2v1.1h-2v6.5h-1.4V5.9z M69.1,3.1h-1.6V1.5h1.6V3.1z M67.6,4.8H69v7.6h-1.4V4.8z"/>
		<path class="st11" d="M76.4,6.1c-0.5-0.2-1.1-0.3-1.5-0.3c-1.6,0-2.5,1.4-2.5,2.9c0,1.4,0.7,2.9,2.5,2.9c0.5,0,1.1-0.1,1.5-0.4
			l0.1,1.3c-0.6,0.3-1.3,0.3-1.8,0.3c-2.3,0-3.9-1.8-3.9-4c0-2.3,1.6-4,3.9-4c0.6,0,1.3,0.1,1.7,0.3L76.4,6.1z"/>
		<path class="st11" d="M78.6,5.3c0.7-0.4,1.5-0.7,2.5-0.7c2.2,0,3.1,1.1,3.1,3.2V11c0,0.9,0,1.3,0.1,1.5h-1.3v-1h0
			c-0.3,0.5-1.1,1.2-2.4,1.2c-1.7,0-2.8-0.7-2.8-2.4c0-1.9,2.1-2.5,3.6-2.5c0.6,0,0.9,0,1.5,0c0-1.3-0.5-2-1.9-2
			c-0.8,0-1.6,0.3-2.2,0.8L78.6,5.3z M82.8,8.8c-0.3,0-0.6,0-0.9,0c-0.8,0-2.7,0.1-2.7,1.5c0,0.8,0.8,1.2,1.4,1.2
			c1.4,0,2.1-0.9,2.1-2V8.8z"/>
		<path class="st11" d="M86.6,4.8h1.4V6h0c0.4-0.9,1.4-1.4,2.5-1.4c2,0,2.9,1.2,2.9,3.3v4.5h-1.4v-4c0-1.8-0.4-2.7-1.6-2.7
			c-1.6,0-2.3,1.3-2.3,3.1v3.5h-1.4V4.8z"/>
		<path class="st11" d="M99.8,5.9h-2v4.2c0,0.9,0.5,1.4,1.2,1.4c0.4,0,0.8-0.1,1-0.3v1.2c-0.3,0.1-0.8,0.2-1.2,0.2
			c-1.5,0-2.4-0.7-2.4-2.2V5.9h-1.7V4.8h1.7V3l1.4-0.5v2.2h2V5.9z"/>
		<path class="st11" d="M101.7,1.2h1.4v11.2h-1.4V1.2z"/>
		<path class="st11" d="M105.2,14.5c0.2,0.1,0.4,0.1,0.7,0.1c1.3,0,1.7-1.7,1.7-1.9c0-0.2-0.2-0.6-0.3-0.8l-2.6-7.1h1.5l2.1,6.3h0
			l2.1-6.3h1.4l-2.8,7.8c-0.5,1.5-1.1,3.2-2.9,3.2c-0.5,0-0.7-0.1-1-0.1L105.2,14.5z"/>
		<path class="st11" d="M15.3,20.8h1.3V22h0c0.4-0.8,1.2-1.4,2-1.4c0.4,0,0.6,0,0.9,0.1V22c-0.3-0.1-0.5-0.1-0.8-0.1
			c-1.3,0-2.1,1.2-2.1,3.1v3.5h-1.4V20.8z"/>
		<path class="st11" d="M27,28.1c-0.5,0.2-1.2,0.5-2.4,0.5c-2.7,0-4-1.7-4-4.1c0-2.3,1.4-3.9,3.6-3.9c2.5,0,3.4,1.9,3.4,4.3h-5.5
			c0,1.5,1.2,2.5,2.5,2.5c0.9,0,2-0.5,2.4-0.8V28.1z M26.1,23.9c0-1.2-0.7-2.1-1.9-2.1c-1.4,0-2,1.1-2.1,2.1H26.1z"/>
		<path class="st11" d="M34.9,27.4L34.9,27.4c-0.4,0.6-1.3,1.3-2.6,1.3c-2.3,0-3.3-2.1-3.3-4.1c0-2.1,1.1-3.9,3.3-3.9
			c1.3,0,2.1,0.5,2.5,1.2h0v-4.6h1.4v11.2h-1.3V27.4z M32.6,27.5c1.6,0,2.2-1.6,2.2-2.8c0-1.4-0.7-2.9-2.3-2.9
			c-1.5,0-2.1,1.4-2.1,2.8C30.4,25.8,31.1,27.5,32.6,27.5z"/>
		<path class="st11" d="M45.4,28.5H44v-1.2h0c-0.4,0.9-1.4,1.4-2.5,1.4c-2,0-2.9-1.2-2.9-3.3v-4.5h1.4v4c0,1.8,0.4,2.7,1.6,2.7
			c1.6,0,2.3-1.3,2.3-3.1v-3.5h1.4V28.5z"/>
		<path class="st11" d="M52.7,22.1c-0.5-0.2-1.1-0.3-1.5-0.3c-1.6,0-2.5,1.4-2.5,2.9c0,1.4,0.7,2.9,2.5,2.9c0.5,0,1.1-0.1,1.5-0.4
			l0.1,1.3c-0.6,0.3-1.3,0.3-1.8,0.3c-2.3,0-3.9-1.8-3.9-4c0-2.3,1.6-4,3.9-4c0.6,0,1.3,0.1,1.7,0.3L52.7,22.1z"/>
		<path class="st11" d="M60.3,28.1c-0.5,0.2-1.2,0.5-2.4,0.5c-2.7,0-4-1.7-4-4.1c0-2.3,1.4-3.9,3.6-3.9c2.5,0,3.4,1.9,3.4,4.3h-5.5
			c0,1.5,1.2,2.5,2.5,2.5c0.9,0,2-0.5,2.4-0.8V28.1z M59.4,23.9c0-1.2-0.7-2.1-1.9-2.1c-1.4,0-1.9,1.1-2.1,2.1H59.4z"/>
		<path class="st11" d="M68.2,27.4L68.2,27.4c-0.4,0.6-1.3,1.3-2.6,1.3c-2.3,0-3.3-2.1-3.3-4.1c0-2.1,1.1-3.9,3.3-3.9
			c1.3,0,2.1,0.5,2.5,1.2h0v-4.6h1.4v11.2h-1.4V27.4z M65.9,27.5c1.6,0,2.2-1.6,2.2-2.8c0-1.4-0.7-2.9-2.3-2.9
			c-1.5,0-2.1,1.4-2.1,2.8C63.8,25.8,64.4,27.5,65.9,27.5z"/>
		<path class="st11" d="M76.5,21.3c0.7-0.4,1.5-0.7,2.5-0.7c2.2,0,3.1,1.1,3.1,3.2V27c0,0.9,0,1.3,0.1,1.5h-1.3v-1h0
			c-0.3,0.5-1.1,1.2-2.4,1.2c-1.6,0-2.8-0.7-2.8-2.4c0-1.9,2.1-2.5,3.6-2.5c0.6,0,0.9,0,1.5,0c0-1.3-0.5-2-1.9-2
			c-0.8,0-1.6,0.3-2.2,0.8L76.5,21.3z M80.7,24.8c-0.3,0-0.6,0-0.9,0c-0.8,0-2.7,0.1-2.7,1.5c0,0.8,0.8,1.2,1.4,1.2
			c1.4,0,2.1-0.9,2.1-2V24.8z"/>
		<path class="st11" d="M83.9,27c0.6,0.4,1.3,0.5,1.8,0.5c0.6,0,1.4-0.3,1.4-1.1c0-1.4-3.3-1.3-3.3-3.4c0-1.6,1.2-2.4,2.7-2.4
			c0.7,0,1.2,0.1,1.8,0.3l-0.1,1.2c-0.3-0.2-1.2-0.4-1.5-0.4c-0.7,0-1.4,0.3-1.4,0.9c0,1.6,3.3,1.1,3.3,3.6c0,1.6-1.3,2.4-2.7,2.4
			c-0.7,0-1.5-0.1-2.1-0.4L83.9,27z"/>
		<path class="st11" d="M94.4,21.9h-2v4.2c0,0.9,0.5,1.4,1.2,1.4c0.4,0,0.8-0.1,1-0.3v1.2c-0.3,0.1-0.8,0.2-1.2,0.2
			c-1.5,0-2.4-0.7-2.4-2.2v-4.5h-1.7v-1.1h1.7V19l1.4-0.5v2.2h2V21.9z"/>
		<path class="st11" d="M96.2,17.2h1.4v4.7h0c0.5-0.8,1.4-1.3,2.5-1.3c2,0,2.9,1.2,2.9,3.3v4.5h-1.4v-4c0-1.8-0.4-2.7-1.6-2.7
			c-1.6,0-2.3,1.3-2.3,3.1v3.5h-1.4V17.2z"/>
		<path class="st11" d="M105.3,20.8h1.3v1.1h0c0.5-0.9,1.3-1.3,2.4-1.3c0.9,0,1.8,0.4,2.2,1.5c0.5-1.1,1.7-1.5,2.4-1.5
			c2,0,2.7,1.3,2.7,2.9v4.9h-1.4v-4.6c0-0.9-0.2-2.1-1.4-2.1c-1.4,0-2,1.4-2,2.8v3.9h-1.4v-4.6c0-0.9-0.2-2.1-1.4-2.1
			c-1.4,0-2,1.4-2,2.8v3.9h-1.4V20.8z"/>
		<path class="st11" d="M119,21.3c0.7-0.4,1.5-0.7,2.5-0.7c2.2,0,3.1,1.1,3.1,3.2V27c0,0.9,0,1.3,0.1,1.5h-1.3v-1h0
			c-0.3,0.5-1.1,1.2-2.4,1.2c-1.7,0-2.8-0.7-2.8-2.4c0-1.9,2.1-2.5,3.6-2.5c0.6,0,0.9,0,1.5,0c0-1.3-0.5-2-1.9-2
			c-0.8,0-1.6,0.3-2.2,0.8L119,21.3z M123.2,24.8c-0.3,0-0.6,0-0.9,0c-0.8,0-2.7,0.1-2.7,1.5c0,0.8,0.8,1.2,1.4,1.2
			c1.4,0,2.1-0.9,2.1-2V24.8z"/>
		<path class="st11" d="M19.9,44.1c-0.5,0.2-1.2,0.5-2.4,0.5c-2.7,0-4-1.7-4-4.1c0-2.3,1.4-3.9,3.6-3.9c2.5,0,3.4,1.9,3.4,4.3H15
			c0,1.5,1.2,2.5,2.5,2.5c0.9,0,2-0.5,2.4-0.8V44.1z M19,39.9c0-1.2-0.7-2.1-1.9-2.1c-1.4,0-2,1.1-2.1,2.1H19z"/>
		<path class="st11" d="M24.1,40.4l-2.5-3.6h1.8l1.7,2.7l1.7-2.7h1.6l-2.5,3.6l2.7,4h-1.7l-1.9-3l-1.9,3h-1.7L24.1,40.4z"/>
		<path class="st11" d="M30.2,37.3c0.7-0.4,1.5-0.7,2.5-0.7c2.2,0,3.1,1.1,3.1,3.2V43c0,0.9,0,1.3,0.1,1.5h-1.3v-1h0
			c-0.3,0.5-1.1,1.2-2.4,1.2c-1.7,0-2.8-0.7-2.8-2.4c0-1.9,2.1-2.5,3.6-2.5c0.6,0,0.9,0,1.5,0c0-1.3-0.5-2-1.9-2
			c-0.8,0-1.7,0.3-2.2,0.8L30.2,37.3z M34.4,40.8c-0.3,0-0.6,0-0.9,0c-0.8,0-2.7,0.1-2.7,1.5c0,0.8,0.8,1.2,1.4,1.2
			c1.4,0,2.1-0.9,2.1-2V40.8z"/>
		<path class="st11" d="M43.1,38.1c-0.5-0.2-1.1-0.3-1.5-0.3c-1.6,0-2.5,1.4-2.5,2.9c0,1.4,0.7,2.9,2.5,2.9c0.5,0,1.1-0.1,1.5-0.4
			l0.1,1.3c-0.6,0.3-1.3,0.3-1.8,0.3c-2.3,0-3.9-1.8-3.9-4c0-2.3,1.6-4,3.9-4c0.6,0,1.3,0.1,1.7,0.3L43.1,38.1z"/>
		<path class="st11" d="M50.8,44.1c-0.5,0.2-1.2,0.5-2.4,0.5c-2.7,0-4-1.7-4-4.1c0-2.3,1.4-3.9,3.6-3.9c2.5,0,3.4,1.9,3.4,4.3h-5.5
			c0,1.5,1.2,2.5,2.5,2.5c0.9,0,2-0.5,2.4-0.8V44.1z M49.8,39.9c0-1.2-0.7-2.1-1.9-2.1c-1.4,0-1.9,1.1-2.1,2.1H49.8z"/>
		<path class="st11" d="M53.2,36.8h1.3V38h0c0.4-0.8,1.2-1.4,2-1.4c0.4,0,0.6,0,0.9,0.1V38c-0.3-0.1-0.5-0.1-0.8-0.1
			c-1.3,0-2.1,1.2-2.1,3.1v3.5h-1.4V36.8z"/>
		<path class="st11" d="M59.1,33.2h1.4v4.6h0c0.4-0.7,1.2-1.2,2.5-1.2c2.2,0,3.3,1.8,3.3,3.9c0,2.1-1,4.1-3.3,4.1
			c-1.4,0-2.2-0.7-2.6-1.3h0v1.1h-1.3V33.2z M62.7,37.8c-1.5,0-2.3,1.5-2.3,2.9c0,1.3,0.7,2.8,2.2,2.8c1.5,0,2.1-1.7,2.1-2.9
			C64.9,39.2,64.3,37.8,62.7,37.8z"/>
		<path class="st11" d="M68.6,37.3c0.7-0.4,1.5-0.7,2.5-0.7c2.2,0,3.1,1.1,3.1,3.2V43c0,0.9,0,1.3,0.1,1.5h-1.3v-1h0
			c-0.3,0.5-1.1,1.2-2.4,1.2c-1.6,0-2.8-0.7-2.8-2.4c0-1.9,2.1-2.5,3.6-2.5c0.6,0,0.9,0,1.5,0c0-1.3-0.5-2-1.9-2
			c-0.8,0-1.6,0.3-2.2,0.8L68.6,37.3z M72.8,40.8c-0.3,0-0.6,0-0.9,0c-0.8,0-2.7,0.1-2.7,1.5c0,0.8,0.8,1.2,1.4,1.2
			c1.4,0,2.1-0.9,2.1-2V40.8z"/>
		<path class="st11" d="M80.6,37.9h-2v4.2c0,0.9,0.5,1.4,1.2,1.4c0.4,0,0.8-0.1,1-0.3v1.2c-0.3,0.1-0.8,0.2-1.2,0.2
			c-1.5,0-2.4-0.7-2.4-2.2v-4.5h-1.7v-1.1h1.7V35l1.4-0.5v2.2h2V37.9z"/>
		<path class="st11" d="M84.1,35.1h-1.6v-1.6h1.6V35.1z M82.6,36.8H84v7.6h-1.4V36.8z"/>
		<path class="st11" d="M90,36.6c2.3,0,3.9,1.7,3.9,4c0,2.2-1.6,4-3.9,4c-2.3,0-3.9-1.8-3.9-4C86.1,38.3,87.6,36.6,90,36.6z
			 M90,43.5c1.6,0,2.4-1.5,2.4-2.9c0-1.5-0.9-2.9-2.4-2.9c-1.5,0-2.4,1.4-2.4,2.9C87.6,42,88.3,43.5,90,43.5z"/>
		<path class="st11" d="M95.7,36.8h1.4V38h0c0.4-0.9,1.4-1.4,2.5-1.4c2,0,2.9,1.2,2.9,3.3v4.5h-1.4v-4c0-1.8-0.4-2.7-1.6-2.7
			c-1.6,0-2.3,1.3-2.3,3.1v3.5h-1.4V36.8z"/>
		<path class="st11" d="M104.3,43c0.6,0.4,1.3,0.5,1.8,0.5c0.6,0,1.4-0.3,1.4-1.1c0-1.4-3.3-1.3-3.3-3.4c0-1.6,1.2-2.4,2.7-2.4
			c0.7,0,1.2,0.1,1.8,0.3l-0.1,1.2c-0.3-0.2-1.2-0.4-1.5-0.4c-0.7,0-1.4,0.3-1.4,0.9c0,1.6,3.3,1.1,3.3,3.6c0,1.6-1.3,2.4-2.7,2.4
			c-0.7,0-1.5-0.1-2.1-0.4L104.3,43z"/>
		<path class="st11" d="M116.6,35.1H115v-1.6h1.6V35.1z M115.1,36.8h1.4v7.6h-1.4V36.8z"/>
		<path class="st11" d="M119.1,36.8h1.4V38h0c0.4-0.9,1.4-1.4,2.5-1.4c2,0,2.9,1.2,2.9,3.3v4.5h-1.4v-4c0-1.8-0.4-2.7-1.6-2.7
			c-1.6,0-2.3,1.3-2.3,3.1v3.5h-1.4V36.8z"/>
		<path class="st11" d="M4.8,53.3c0.7-0.4,1.5-0.7,2.5-0.7c2.2,0,3.1,1.1,3.1,3.2V59c0,0.9,0,1.3,0.1,1.5H9.2v-1h0
			c-0.3,0.5-1.1,1.2-2.4,1.2c-1.6,0-2.8-0.7-2.8-2.4c0-1.9,2.1-2.5,3.6-2.5c0.6,0,0.9,0,1.5,0c0-1.3-0.5-2-1.9-2
			c-0.8,0-1.6,0.3-2.2,0.8L4.8,53.3z M9,56.8c-0.3,0-0.6,0-0.9,0c-0.8,0-2.7,0.1-2.7,1.5c0,0.8,0.8,1.2,1.4,1.2c1.4,0,2.1-0.9,2.1-2
			V56.8z"/>
		<path class="st11" d="M18.2,59.4L18.2,59.4c-0.4,0.6-1.3,1.3-2.6,1.3c-2.3,0-3.3-2.1-3.3-4.1c0-2.1,1.1-3.9,3.3-3.9
			c1.3,0,2.1,0.5,2.5,1.2h0v-4.6h1.4v11.2h-1.4V59.4z M15.9,59.5c1.6,0,2.2-1.6,2.2-2.8c0-1.4-0.7-2.9-2.3-2.9
			c-1.5,0-2.1,1.4-2.1,2.8C13.8,57.8,14.4,59.5,15.9,59.5z"/>
		<path class="st11" d="M28.7,60.5h-1.4v-1.2h0c-0.4,0.9-1.4,1.4-2.5,1.4c-2,0-2.9-1.2-2.9-3.3v-4.5h1.4v4c0,1.8,0.4,2.7,1.6,2.7
			c1.6,0,2.3-1.3,2.3-3.1v-3.5h1.4V60.5z"/>
		<path class="st11" d="M31.3,49.2h1.4v11.2h-1.4V49.2z"/>
		<path class="st11" d="M39.4,53.9h-2v4.2c0,0.9,0.5,1.4,1.2,1.4c0.4,0,0.8-0.1,1-0.3v1.2c-0.3,0.1-0.8,0.2-1.2,0.2
			c-1.5,0-2.4-0.7-2.4-2.2v-4.5h-1.7v-1.1h1.7V51l1.4-0.5v2.2h2V53.9z"/>
		<path class="st11" d="M45.3,52.8h1.3v1.1h0c0.4-0.6,1.2-1.3,2.6-1.3c2.2,0,3.3,1.8,3.3,3.9c0,2.1-1,4.1-3.3,4.1
			c-1.3,0-2.1-0.5-2.5-1.2h0v4.2h-1.4V52.8z M49,53.8c-1.5,0-2.3,1.5-2.3,2.9c0,1.3,0.7,2.8,2.2,2.8c1.5,0,2.1-1.7,2.1-2.9
			C51.1,55.2,50.5,53.8,49,53.8z"/>
		<path class="st11" d="M54.8,53.3c0.7-0.4,1.5-0.7,2.5-0.7c2.2,0,3.1,1.1,3.1,3.2V59c0,0.9,0,1.3,0.1,1.5h-1.3v-1h0
			c-0.3,0.5-1.1,1.2-2.4,1.2c-1.6,0-2.8-0.7-2.8-2.4c0-1.9,2.1-2.5,3.6-2.5c0.6,0,0.9,0,1.5,0c0-1.3-0.5-2-1.9-2
			c-0.8,0-1.6,0.3-2.2,0.8L54.8,53.3z M59,56.8c-0.3,0-0.6,0-0.9,0c-0.8,0-2.7,0.1-2.7,1.5c0,0.8,0.8,1.2,1.4,1.2
			c1.4,0,2.1-0.9,2.1-2V56.8z"/>
		<path class="st11" d="M66.9,53.9h-2v4.2c0,0.9,0.5,1.4,1.2,1.4c0.4,0,0.8-0.1,1-0.3v1.2c-0.3,0.1-0.8,0.2-1.2,0.2
			c-1.5,0-2.4-0.7-2.4-2.2v-4.5h-1.7v-1.1h1.7V51l1.4-0.5v2.2h2V53.9z"/>
		<path class="st11" d="M70.3,51.1h-1.6v-1.6h1.6V51.1z M68.8,52.8h1.4v7.6h-1.4V52.8z"/>
		<path class="st11" d="M78.7,60.1c-0.5,0.2-1.2,0.5-2.4,0.5c-2.7,0-4-1.7-4-4.1c0-2.3,1.4-3.9,3.6-3.9c2.5,0,3.4,1.9,3.4,4.3h-5.5
			c0,1.5,1.2,2.5,2.5,2.5c0.9,0,2-0.5,2.4-0.8V60.1z M77.8,55.9c0-1.2-0.7-2.1-1.9-2.1c-1.4,0-1.9,1.1-2.1,2.1H77.8z"/>
		<path class="st11" d="M81.2,52.8h1.4V54h0c0.4-0.9,1.4-1.4,2.5-1.4c2,0,2.9,1.2,2.9,3.3v4.5h-1.4v-4c0-1.8-0.4-2.7-1.6-2.7
			c-1.6,0-2.3,1.3-2.3,3.1v3.5h-1.4V52.8z"/>
		<path class="st11" d="M94.4,53.9h-2v4.2c0,0.9,0.5,1.4,1.2,1.4c0.4,0,0.8-0.1,1-0.3v1.2c-0.3,0.1-0.8,0.2-1.2,0.2
			c-1.5,0-2.4-0.7-2.4-2.2v-4.5h-1.7v-1.1H91V51l1.4-0.5v2.2h2V53.9z"/>
		<path class="st11" d="M95.6,59c0.6,0.4,1.3,0.5,1.8,0.5c0.6,0,1.4-0.3,1.4-1.1c0-1.4-3.3-1.3-3.3-3.4c0-1.6,1.2-2.4,2.7-2.4
			c0.7,0,1.2,0.1,1.8,0.3l-0.1,1.2c-0.3-0.2-1.2-0.4-1.5-0.4c-0.7,0-1.4,0.3-1.4,0.9c0,1.6,3.3,1.1,3.3,3.6c0,1.6-1.3,2.4-2.7,2.4
			c-0.7,0-1.5-0.1-2.1-0.4L95.6,59z"/>
		<path class="st11" d="M114.8,60.5h-1.6l-2-6.4h0l-1.9,6.4h-1.6l-2.5-7.6h1.5l1.8,6.3h0l2-6.3h1.7l1.9,6.3h0l1.9-6.3h1.4
			L114.8,60.5z"/>
		<path class="st11" d="M120.3,51.1h-1.6v-1.6h1.6V51.1z M118.8,52.8h1.4v7.6h-1.4V52.8z"/>
		<path class="st11" d="M126.9,53.9h-2v4.2c0,0.9,0.5,1.4,1.2,1.4c0.4,0,0.8-0.1,1-0.3v1.2c-0.3,0.1-0.8,0.2-1.2,0.2
			c-1.5,0-2.4-0.7-2.4-2.2v-4.5h-1.7v-1.1h1.7V51l1.4-0.5v2.2h2V53.9z"/>
		<path class="st11" d="M128.7,49.2h1.4v4.7h0c0.5-0.8,1.4-1.3,2.5-1.3c2,0,2.9,1.2,2.9,3.3v4.5H134v-4c0-1.8-0.4-2.7-1.6-2.7
			c-1.6,0-2.3,1.3-2.3,3.1v3.5h-1.4V49.2z"/>
		<path class="st11" d="M4.4,69.3c0.7-0.4,1.5-0.7,2.5-0.7c2.2,0,3.1,1.1,3.1,3.2V75c0,0.9,0,1.3,0.1,1.5H8.7v-1h0
			c-0.3,0.5-1.1,1.2-2.4,1.2c-1.7,0-2.8-0.7-2.8-2.4c0-1.9,2.1-2.5,3.6-2.5c0.6,0,0.9,0,1.5,0c0-1.3-0.5-2-1.9-2
			c-0.8,0-1.7,0.3-2.2,0.8L4.4,69.3z M8.6,72.8c-0.3,0-0.6,0-0.9,0c-0.8,0-2.7,0.1-2.7,1.5c0,0.8,0.8,1.2,1.4,1.2
			c1.4,0,2.1-0.9,2.1-2V72.8z"/>
		<path class="st11" d="M16.6,65.2H18v4.7h0c0.5-0.8,1.4-1.3,2.5-1.3c2,0,2.9,1.2,2.9,3.3v4.5h-1.4v-4c0-1.8-0.4-2.7-1.6-2.7
			c-1.6,0-2.3,1.3-2.3,3.1v3.5h-1.4V65.2z"/>
		<path class="st11" d="M27.4,67.1h-1.6v-1.6h1.6V67.1z M25.9,68.8h1.4v7.6h-1.4V68.8z"/>
		<path class="st11" d="M29.3,75c0.6,0.4,1.4,0.5,1.8,0.5c0.6,0,1.4-0.3,1.4-1.1c0-1.4-3.3-1.3-3.3-3.4c0-1.6,1.2-2.4,2.7-2.4
			c0.7,0,1.2,0.1,1.8,0.3l-0.1,1.2c-0.3-0.2-1.2-0.4-1.5-0.4c-0.7,0-1.4,0.3-1.4,0.9c0,1.6,3.3,1.1,3.3,3.6c0,1.6-1.3,2.4-2.7,2.4
			c-0.7,0-1.5-0.1-2.1-0.4L29.3,75z"/>
		<path class="st11" d="M39.8,69.9h-2v4.2c0,0.9,0.5,1.4,1.2,1.4c0.4,0,0.8-0.1,1-0.3v1.2c-0.3,0.1-0.8,0.2-1.2,0.2
			c-1.5,0-2.4-0.7-2.4-2.2v-4.5h-1.7v-1.1h1.7V67l1.4-0.5v2.2h2V69.9z"/>
		<path class="st11" d="M44.9,68.6c2.3,0,3.9,1.7,3.9,4c0,2.2-1.6,4-3.9,4c-2.3,0-3.9-1.8-3.9-4C41,70.3,42.6,68.6,44.9,68.6z
			 M44.9,75.5c1.7,0,2.4-1.5,2.4-2.9c0-1.5-0.9-2.9-2.4-2.9c-1.5,0-2.4,1.4-2.4,2.9C42.5,74,43.3,75.5,44.9,75.5z"/>
		<path class="st11" d="M50.7,68.8H52V70h0c0.4-0.8,1.2-1.4,2-1.4c0.4,0,0.6,0,0.9,0.1V70c-0.3-0.1-0.5-0.1-0.8-0.1
			c-1.3,0-2.1,1.2-2.1,3.1v3.5h-1.4V68.8z"/>
		<path class="st11" d="M56,78.5c0.2,0.1,0.4,0.1,0.7,0.1c1.3,0,1.7-1.7,1.7-1.9c0-0.2-0.2-0.6-0.3-0.8l-2.6-7.1H57l2.1,6.3h0
			l2.1-6.3h1.4l-2.8,7.8c-0.5,1.5-1.1,3.2-2.9,3.2c-0.5,0-0.7-0.1-1-0.1L56,78.5z"/>
		<path class="st11" d="M71.6,68.6c2.3,0,3.9,1.7,3.9,4c0,2.2-1.6,4-3.9,4c-2.3,0-3.9-1.8-3.9-4C67.7,70.3,69.3,68.6,71.6,68.6z
			 M71.6,75.5c1.7,0,2.4-1.5,2.4-2.9c0-1.5-0.9-2.9-2.4-2.9c-1.5,0-2.4,1.4-2.4,2.9C69.2,74,70,75.5,71.6,75.5z"/>
		<path class="st11" d="M78.3,69.9h-1.8v-1.1h1.8v-0.7c0-1.9,0.5-3.1,2.6-3.1c0.4,0,0.7,0,0.9,0.1l-0.1,1.1
			c-0.2-0.1-0.4-0.1-0.7-0.1c-1.2,0-1.4,0.8-1.4,1.8v0.8h2v1.1h-2v6.5h-1.4V69.9z"/>
		<path class="st11" d="M87.8,69.3c0.7-0.4,1.5-0.7,2.5-0.7c2.2,0,3.1,1.1,3.1,3.2V75c0,0.9,0,1.3,0.1,1.5h-1.3v-1h0
			c-0.3,0.5-1.1,1.2-2.4,1.2c-1.7,0-2.8-0.7-2.8-2.4c0-1.9,2.1-2.5,3.6-2.5c0.6,0,0.9,0,1.5,0c0-1.3-0.5-2-1.9-2
			c-0.8,0-1.6,0.3-2.2,0.8L87.8,69.3z M91.9,72.8c-0.3,0-0.6,0-0.9,0c-0.8,0-2.7,0.1-2.7,1.5c0,0.8,0.8,1.2,1.4,1.2
			c1.4,0,2.1-0.9,2.1-2V72.8z"/>
		<path class="st11" d="M95.2,75c0.6,0.4,1.3,0.5,1.8,0.5c0.6,0,1.4-0.3,1.4-1.1c0-1.4-3.3-1.3-3.3-3.4c0-1.6,1.2-2.4,2.7-2.4
			c0.7,0,1.2,0.1,1.8,0.3l-0.1,1.2c-0.3-0.2-1.2-0.4-1.5-0.4c-0.7,0-1.3,0.3-1.3,0.9c0,1.6,3.3,1.1,3.3,3.6c0,1.6-1.3,2.4-2.7,2.4
			c-0.7,0-1.5-0.1-2.1-0.4L95.2,75z"/>
		<path class="st11" d="M105.6,69.9h-2v4.2c0,0.9,0.5,1.4,1.2,1.4c0.4,0,0.8-0.1,1-0.3v1.2c-0.3,0.1-0.8,0.2-1.2,0.2
			c-1.5,0-2.4-0.7-2.4-2.2v-4.5h-1.7v-1.1h1.7V67l1.4-0.5v2.2h2V69.9z"/>
		<path class="st11" d="M107.4,65.2h1.4v4.7h0c0.5-0.8,1.4-1.3,2.5-1.3c2,0,2.9,1.2,2.9,3.3v4.5h-1.4v-4c0-1.8-0.4-2.7-1.6-2.7
			c-1.6,0-2.3,1.3-2.3,3.1v3.5h-1.4V65.2z"/>
		<path class="st11" d="M116.6,68.8h1.3v1.1h0c0.5-0.9,1.3-1.3,2.4-1.3c0.9,0,1.8,0.4,2.2,1.5c0.5-1.1,1.7-1.5,2.4-1.5
			c2,0,2.7,1.3,2.7,2.9v4.9h-1.4v-4.6c0-0.9-0.2-2.1-1.4-2.1c-1.4,0-2,1.4-2,2.8v3.9h-1.4v-4.6c0-0.9-0.2-2.1-1.4-2.1
			c-1.4,0-2,1.4-2,2.8v3.9h-1.4V68.8z"/>
		<path class="st11" d="M130.3,69.3c0.7-0.4,1.5-0.7,2.5-0.7c2.2,0,3.1,1.1,3.1,3.2V75c0,0.9,0,1.3,0.1,1.5h-1.3v-1h0
			c-0.3,0.5-1.1,1.2-2.4,1.2c-1.7,0-2.8-0.7-2.8-2.4c0-1.9,2.1-2.5,3.6-2.5c0.6,0,0.9,0,1.5,0c0-1.3-0.5-2-1.9-2
			c-0.8,0-1.6,0.3-2.2,0.8L130.3,69.3z M134.5,72.8c-0.3,0-0.6,0-0.9,0c-0.8,0-2.7,0.1-2.7,1.5c0,0.8,0.8,1.2,1.4,1.2
			c1.4,0,2.1-0.9,2.1-2V72.8z"/>
		<path class="st11" d="M28.7,92.1c-0.5,0.2-1.2,0.5-2.4,0.5c-2.7,0-4-1.7-4-4.1c0-2.3,1.4-3.9,3.6-3.9c2.5,0,3.4,1.9,3.4,4.3h-5.5
			c0,1.5,1.2,2.5,2.5,2.5c0.9,0,2-0.5,2.4-0.8V92.1z M27.7,87.9c0-1.2-0.7-2.1-1.9-2.1c-1.4,0-1.9,1.1-2.1,2.1H27.7z"/>
		<path class="st11" d="M32.8,88.4l-2.5-3.6h1.8l1.7,2.7l1.7-2.7H37l-2.5,3.6l2.7,4h-1.7l-1.9-3l-1.9,3h-1.7L32.8,88.4z"/>
		<path class="st11" d="M39,85.3c0.7-0.4,1.5-0.7,2.5-0.7c2.2,0,3.1,1.1,3.1,3.2V91c0,0.9,0,1.3,0.1,1.5h-1.3v-1h0
			c-0.3,0.5-1.1,1.2-2.4,1.2c-1.6,0-2.8-0.7-2.8-2.4c0-1.9,2.1-2.5,3.6-2.5c0.6,0,0.9,0,1.5,0c0-1.3-0.5-2-1.9-2
			c-0.8,0-1.6,0.3-2.2,0.8L39,85.3z M43.2,88.8c-0.3,0-0.6,0-0.9,0c-0.8,0-2.7,0.1-2.7,1.5c0,0.8,0.8,1.2,1.4,1.2
			c1.4,0,2.1-0.9,2.1-2V88.8z"/>
		<path class="st11" d="M51.8,86.1c-0.5-0.2-1.1-0.3-1.5-0.3c-1.6,0-2.5,1.4-2.5,2.9c0,1.4,0.7,2.9,2.5,2.9c0.5,0,1.1-0.1,1.5-0.4
			l0.1,1.3c-0.6,0.3-1.3,0.3-1.8,0.3c-2.3,0-3.9-1.8-3.9-4c0-2.3,1.6-4,3.9-4c0.6,0,1.3,0.1,1.7,0.3L51.8,86.1z"/>
		<path class="st11" d="M59.5,92.1c-0.5,0.2-1.2,0.5-2.4,0.5c-2.7,0-4-1.7-4-4.1c0-2.3,1.4-3.9,3.6-3.9c2.5,0,3.4,1.9,3.4,4.3h-5.5
			c0,1.5,1.2,2.5,2.5,2.5c0.9,0,2-0.5,2.4-0.8V92.1z M58.6,87.9c0-1.2-0.7-2.1-1.9-2.1c-1.4,0-2,1.1-2.1,2.1H58.6z"/>
		<path class="st11" d="M62,84.8h1.3V86h0c0.4-0.8,1.2-1.4,2-1.4c0.4,0,0.6,0,0.9,0.1V86c-0.3-0.1-0.5-0.1-0.8-0.1
			c-1.3,0-2.1,1.2-2.1,3.1v3.5H62V84.8z"/>
		<path class="st11" d="M67.8,81.2h1.4v4.6h0c0.4-0.7,1.2-1.2,2.5-1.2c2.2,0,3.3,1.8,3.3,3.9c0,2.1-1,4.1-3.3,4.1
			c-1.4,0-2.2-0.7-2.6-1.3h0v1.1h-1.3V81.2z M71.5,85.8c-1.5,0-2.3,1.5-2.3,2.9c0,1.3,0.7,2.8,2.2,2.8c1.5,0,2.1-1.7,2.1-2.9
			C73.6,87.2,73,85.8,71.5,85.8z"/>
		<path class="st11" d="M77.3,85.3c0.7-0.4,1.5-0.7,2.5-0.7c2.2,0,3.1,1.1,3.1,3.2V91c0,0.9,0,1.3,0.1,1.5h-1.3v-1h0
			c-0.3,0.5-1.1,1.2-2.4,1.2c-1.7,0-2.8-0.7-2.8-2.4c0-1.9,2.1-2.5,3.6-2.5c0.6,0,0.9,0,1.5,0c0-1.3-0.5-2-1.9-2
			c-0.8,0-1.7,0.3-2.2,0.8L77.3,85.3z M81.5,88.8c-0.3,0-0.6,0-0.9,0c-0.8,0-2.7,0.1-2.7,1.5c0,0.8,0.8,1.2,1.4,1.2
			c1.4,0,2.1-0.9,2.1-2V88.8z"/>
		<path class="st11" d="M89.4,85.9h-2v4.2c0,0.9,0.5,1.4,1.2,1.4c0.4,0,0.8-0.1,1-0.3v1.2c-0.3,0.1-0.8,0.2-1.2,0.2
			c-1.5,0-2.4-0.7-2.4-2.2v-4.5h-1.7v-1.1h1.7V83l1.4-0.5v2.2h2V85.9z"/>
		<path class="st11" d="M92.8,83.1h-1.6v-1.6h1.6V83.1z M91.3,84.8h1.4v7.6h-1.4V84.8z"/>
		<path class="st11" d="M98.7,84.6c2.3,0,3.9,1.7,3.9,4c0,2.2-1.6,4-3.9,4c-2.3,0-3.9-1.8-3.9-4C94.8,86.3,96.4,84.6,98.7,84.6z
			 M98.7,91.5c1.7,0,2.4-1.5,2.4-2.9c0-1.5-0.9-2.9-2.4-2.9c-1.5,0-2.4,1.4-2.4,2.9C96.3,90,97,91.5,98.7,91.5z"/>
		<path class="st11" d="M104.5,84.8h1.4V86h0c0.4-0.9,1.4-1.4,2.5-1.4c2,0,2.9,1.2,2.9,3.3v4.5h-1.4v-4c0-1.8-0.4-2.7-1.6-2.7
			c-1.6,0-2.3,1.3-2.3,3.1v3.5h-1.4V84.8z"/>
		<path class="st11" d="M113.1,91c0.6,0.4,1.3,0.5,1.8,0.5c0.6,0,1.4-0.3,1.4-1.1c0-1.4-3.3-1.3-3.3-3.4c0-1.6,1.2-2.4,2.7-2.4
			c0.7,0,1.2,0.1,1.8,0.3l-0.1,1.2c-0.3-0.2-1.2-0.4-1.5-0.4c-0.7,0-1.3,0.3-1.3,0.9c0,1.6,3.3,1.1,3.3,3.6c0,1.6-1.3,2.4-2.7,2.4
			c-0.7,0-1.5-0.1-2.1-0.4L113.1,91z"/>
	</g>
</g>
<g id="Border">
</g>
</svg>
