<?xml version="1.0" encoding="iso-8859-1"?>
<!-- Generator: Adobe Illustrator 19.1.0, SVG Export Plug-In . SVG Version: 6.00 Build 0)  -->
<svg version="1.1" xmlns="http://www.w3.org/2000/svg" xmlns:xlink="http://www.w3.org/1999/xlink" x="0px" y="0px"
	 viewBox="0 0 143.525 76.806" style="enable-background:new 0 0 143.525 76.806;" xml:space="preserve">
<g id="art">
	<g id="New_Symbol">
	</g>
</g>
<g id="isi">
</g>
<g id="frame">
	<g>
		<path style="fill:#002D73;" d="M16.45,17.056h-1.558L11.53,5.277h-0.038l-3.42,11.778H6.496l-3.8-13.261h1.349l3.268,11.778h0.038
			l3.4-11.778h1.577l3.344,11.778h0.037l3.325-11.778h1.253L16.45,17.056z"/>
		<path style="fill:#002D73;" d="M21.962,2.808h1.196v6.193h0.039c0.512-1.064,1.596-1.862,3.02-1.862
			c2.604,0,3.306,1.729,3.306,4.123v5.794h-1.196V11.28c0-1.672-0.323-3.115-2.299-3.115c-2.128,0-2.869,2.014-2.869,3.704v5.187
			h-1.196V2.808z"/>
		<path style="fill:#002D73;" d="M39.023,16.752c-0.836,0.342-1.92,0.531-2.812,0.531c-3.211,0-4.407-2.165-4.407-5.072
			c0-2.963,1.634-5.072,4.085-5.072c2.734,0,3.855,2.204,3.855,4.807v0.607h-6.629c0,2.052,1.102,3.705,3.191,3.705
			c0.873,0,2.146-0.361,2.717-0.722V16.752z M38.434,11.527c0-1.69-0.684-3.362-2.469-3.362c-1.768,0-2.85,1.767-2.85,3.362H38.434z
			"/>
		<path style="fill:#002D73;" d="M42.025,9.646c0-0.741,0-1.501-0.076-2.279h1.159v1.729h0.038c0.398-0.874,1.121-1.957,3.135-1.957
			c2.394,0,3.305,1.596,3.305,3.724v6.193H48.39v-5.89c0-1.823-0.646-3.001-2.298-3.001c-2.186,0-2.869,1.918-2.869,3.533v5.357
			h-1.197V9.646z"/>
		<path style="fill:#002D73;" d="M59.068,4.783h-1.196V3.188h1.196V4.783z M57.872,7.367h1.196v9.688h-1.196V7.367z"/>
		<path style="fill:#002D73;" d="M66.27,8.393h-2.204v6.27c0,0.874,0.323,1.596,1.292,1.596c0.455,0,0.76-0.096,1.102-0.229
			l0.076,0.988c-0.285,0.114-0.874,0.266-1.463,0.266c-2.128,0-2.203-1.463-2.203-3.229V8.393h-1.9V7.367h1.9V5.03l1.196-0.418
			v2.755h2.204V8.393z"/>
		<path style="fill:#002D73;" d="M69.404,3.795h1.425l-1.463,4.142h-1.083L69.404,3.795z"/>
		<path style="fill:#002D73;" d="M70.849,15.649c0.722,0.361,1.596,0.608,2.526,0.608c1.141,0,2.146-0.627,2.146-1.729
			c0-2.298-4.654-1.938-4.654-4.749c0-1.919,1.559-2.641,3.154-2.641c0.513,0,1.539,0.114,2.394,0.438l-0.114,1.045
			c-0.627-0.285-1.481-0.456-2.146-0.456c-1.234,0-2.09,0.38-2.09,1.614c0,1.805,4.769,1.577,4.769,4.749
			c0,2.052-1.919,2.755-3.382,2.755c-0.931,0-1.861-0.114-2.717-0.456L70.849,15.649z"/>
		<path style="fill:#002D73;" d="M8.205,27.393H6.002v6.27c0,0.874,0.322,1.596,1.291,1.596c0.457,0,0.761-0.096,1.103-0.229
			l0.076,0.988c-0.285,0.114-0.874,0.266-1.463,0.266c-2.128,0-2.204-1.463-2.204-3.229v-5.661H2.905v-1.025h1.899V24.03
			l1.197-0.418v2.755h2.203V27.393z"/>
		<path style="fill:#002D73;" d="M11.55,23.783h-1.196v-1.596h1.196V23.783z M10.354,26.367h1.196v9.688h-1.196V26.367z"/>
		<path style="fill:#002D73;" d="M26.273,36.056v-6.44c0-1.367-0.514-2.45-2.053-2.45c-1.311,0-2.602,1.12-2.602,3.533v5.357h-1.197
			v-6.44c0-1.367-0.514-2.45-2.052-2.45c-1.312,0-2.603,1.12-2.603,3.533v5.357H14.57v-7.409c0-0.741,0-1.501-0.076-2.279h1.159
			v1.634l0.038,0.019c0.38-0.665,0.949-1.881,3.021-1.881c0.854,0,2.261,0.361,2.565,2.052h0.037
			c0.438-1.14,1.577-2.052,3.097-2.052c1.956,0,3.059,1.368,3.059,3.249v6.668H26.273z"/>
		<path style="fill:#002D73;" d="M36.895,35.752c-0.836,0.342-1.919,0.531-2.812,0.531c-3.21,0-4.406-2.165-4.406-5.072
			c0-2.963,1.633-5.072,4.084-5.072c2.736,0,3.856,2.204,3.856,4.807v0.607h-6.63c0,2.052,1.102,3.705,3.191,3.705
			c0.874,0,2.146-0.361,2.717-0.722V35.752z M36.305,30.527c0-1.69-0.684-3.362-2.469-3.362c-1.768,0-2.85,1.767-2.85,3.362H36.305z
			"/>
		<path style="fill:#002D73;" d="M49.359,27.393h-2.204v6.27c0,0.874,0.323,1.596,1.292,1.596c0.455,0,0.76-0.096,1.102-0.229
			l0.076,0.988c-0.285,0.114-0.874,0.266-1.463,0.266c-2.128,0-2.203-1.463-2.203-3.229v-5.661h-1.9v-1.025h1.9V24.03l1.196-0.418
			v2.755h2.204V27.393z"/>
		<path style="fill:#002D73;" d="M55.287,26.139c3.134,0,4.521,2.432,4.521,5.072s-1.388,5.072-4.521,5.072
			c-3.135,0-4.521-2.432-4.521-5.072S52.152,26.139,55.287,26.139z M55.287,35.258c2.09,0,3.21-1.805,3.21-4.047
			c0-2.241-1.12-4.046-3.21-4.046s-3.211,1.805-3.211,4.046C52.076,33.453,53.197,35.258,55.287,35.258z"/>
		<path style="fill:#002D73;" d="M68.549,23.783h-1.196v-1.596h1.196V23.783z M67.353,26.367h1.196v9.688h-1.196V26.367z"/>
		<path style="fill:#002D73;" d="M83.271,36.056v-6.44c0-1.367-0.512-2.45-2.051-2.45c-1.311,0-2.604,1.12-2.604,3.533v5.357h-1.195
			v-6.44c0-1.367-0.514-2.45-2.053-2.45c-1.311,0-2.602,1.12-2.602,3.533v5.357H71.57v-7.409c0-0.741,0-1.501-0.076-2.279h1.158
			v1.634l0.039,0.019c0.379-0.665,0.949-1.881,3.02-1.881c0.855,0,2.262,0.361,2.564,2.052h0.039
			c0.438-1.14,1.576-2.052,3.096-2.052c1.957,0,3.059,1.368,3.059,3.249v6.668H83.271z"/>
		<path style="fill:#002D73;" d="M87.283,26.367h1.197l-0.076,1.767h0.037c0.305-0.532,1.045-1.995,3.098-1.995
			c2.85,0,3.988,2.128,3.988,5.072c0,2.869-1.33,5.072-3.988,5.072c-1.521,0-2.432-0.627-3.021-1.881H88.48v5.643h-1.197V26.367z
			 M91.348,27.165c-2.127,0-2.867,2.279-2.867,4.046s0.74,4.047,2.867,4.047c2.279,0,2.869-2.166,2.869-4.047
			S93.627,27.165,91.348,27.165z"/>
		<path style="fill:#002D73;" d="M97.961,28.532c0-1.063,0-1.463-0.076-2.165h1.197v1.861h0.037c0.438-1.083,1.254-2.09,2.49-2.09
			c0.285,0,0.627,0.058,0.836,0.114v1.254c-0.248-0.076-0.57-0.114-0.875-0.114c-1.898,0-2.412,2.128-2.412,3.876v4.787h-1.197
			V28.532z"/>
		<path style="fill:#002D73;" d="M107.727,26.139c3.135,0,4.521,2.432,4.521,5.072s-1.387,5.072-4.521,5.072
			s-4.521-2.432-4.521-5.072S104.592,26.139,107.727,26.139z M107.727,35.258c2.09,0,3.211-1.805,3.211-4.047
			c0-2.241-1.121-4.046-3.211-4.046s-3.211,1.805-3.211,4.046C104.516,33.453,105.637,35.258,107.727,35.258z"/>
		<path style="fill:#002D73;" d="M117.873,36.056h-1.406l-3.285-9.688h1.311l2.678,8.377h0.039l2.811-8.377h1.254L117.873,36.056z"
			/>
		<path style="fill:#002D73;" d="M129.443,35.752c-0.836,0.342-1.918,0.531-2.811,0.531c-3.211,0-4.408-2.165-4.408-5.072
			c0-2.963,1.635-5.072,4.084-5.072c2.736,0,3.857,2.204,3.857,4.807v0.607h-6.631c0,2.052,1.102,3.705,3.191,3.705
			c0.875,0,2.146-0.361,2.717-0.722V35.752z M128.855,30.527c0-1.69-0.686-3.362-2.471-3.362c-1.766,0-2.85,1.767-2.85,3.362
			H128.855z"/>
		<path style="fill:#002D73;" d="M9.592,53.498H9.555c-0.532,1.158-1.881,1.785-3.078,1.785c-2.754,0-3.191-1.861-3.191-2.735
			c0-3.249,3.457-3.4,5.965-3.4h0.229v-0.494c0-1.652-0.589-2.488-2.203-2.488c-1.008,0-1.957,0.228-2.85,0.798v-1.159
			c0.74-0.361,1.994-0.665,2.85-0.665c2.393,0,3.4,1.083,3.4,3.609v4.274c0,0.779,0,1.368,0.094,2.033H9.592V53.498z M9.479,50.173
			H9.137c-2.07,0-4.541,0.209-4.541,2.337c0,1.272,0.912,1.748,2.014,1.748c2.812,0,2.869-2.451,2.869-3.496V50.173z"/>
		<path style="fill:#002D73;" d="M12.785,53.649c0.723,0.361,1.596,0.608,2.527,0.608c1.139,0,2.146-0.627,2.146-1.729
			c0-2.298-4.654-1.938-4.654-4.749c0-1.919,1.557-2.641,3.153-2.641c0.513,0,1.538,0.114,2.394,0.438l-0.114,1.045
			c-0.627-0.285-1.481-0.456-2.146-0.456c-1.235,0-2.09,0.38-2.09,1.614c0,1.805,4.769,1.577,4.769,4.749
			c0,2.052-1.919,2.755-3.382,2.755c-0.931,0-1.861-0.114-2.716-0.456L12.785,53.649z"/>
		<path style="fill:#002D73;" d="M25.096,46.393h-2.203v6.27c0,0.874,0.322,1.596,1.291,1.596c0.457,0,0.761-0.096,1.103-0.229
			l0.076,0.988c-0.285,0.114-0.874,0.266-1.463,0.266c-2.128,0-2.204-1.463-2.204-3.229v-5.661h-1.899v-1.025h1.899V43.03
			l1.197-0.418v2.755h2.203V46.393z"/>
		<path style="fill:#002D73;" d="M27.244,40.808h1.196v6.193h0.038c0.513-1.064,1.596-1.862,3.021-1.862
			c2.603,0,3.306,1.729,3.306,4.123v5.794h-1.197V49.28c0-1.672-0.322-3.115-2.299-3.115c-2.127,0-2.868,2.014-2.868,3.704v5.187
			h-1.196V40.808z"/>
		<path style="fill:#002D73;" d="M49.51,55.056v-6.44c0-1.367-0.514-2.45-2.052-2.45c-1.312,0-2.603,1.12-2.603,3.533v5.357h-1.197
			v-6.44c0-1.367-0.513-2.45-2.051-2.45c-1.312,0-2.604,1.12-2.604,3.533v5.357h-1.196v-7.409c0-0.741,0-1.501-0.076-2.279h1.159
			v1.634l0.037,0.019c0.381-0.665,0.95-1.881,3.021-1.881c0.854,0,2.26,0.361,2.564,2.052h0.037c0.438-1.14,1.578-2.052,3.098-2.052
			c1.956,0,3.059,1.368,3.059,3.249v6.668H49.51z"/>
		<path style="fill:#002D73;" d="M59.2,53.498h-0.038c-0.531,1.158-1.881,1.785-3.078,1.785c-2.754,0-3.191-1.861-3.191-2.735
			c0-3.249,3.458-3.4,5.966-3.4h0.228v-0.494c0-1.652-0.588-2.488-2.203-2.488c-1.007,0-1.957,0.228-2.85,0.798v-1.159
			c0.74-0.361,1.994-0.665,2.85-0.665c2.394,0,3.4,1.083,3.4,3.609v4.274c0,0.779,0,1.368,0.095,2.033H59.2V53.498z M59.086,50.173
			h-0.342c-2.07,0-4.54,0.209-4.54,2.337c0,1.272,0.911,1.748,2.014,1.748c2.812,0,2.868-2.451,2.868-3.496V50.173z"/>
		<path style="fill:#002D73;" d="M62.412,49.28h4.769v1.311h-4.769V49.28z"/>
		<path style="fill:#002D73;" d="M68.72,53.649c0.722,0.361,1.596,0.608,2.526,0.608c1.141,0,2.146-0.627,2.146-1.729
			c0-2.298-4.654-1.938-4.654-4.749c0-1.919,1.559-2.641,3.154-2.641c0.513,0,1.539,0.114,2.394,0.438l-0.114,1.045
			c-0.627-0.285-1.481-0.456-2.146-0.456c-1.234,0-2.09,0.38-2.09,1.614c0,1.805,4.769,1.577,4.769,4.749
			c0,2.052-1.919,2.755-3.382,2.755c-0.931,0-1.861-0.114-2.717-0.456L68.72,53.649z"/>
		<path style="fill:#002D73;" d="M79.549,53.44h0.02l2.793-8.073h1.254l-3.877,11.132c-0.455,1.33-1.139,2.66-2.488,2.66
			c-0.437,0-0.893-0.058-1.291-0.152l0.113-1.025c0.229,0.075,0.456,0.151,0.893,0.151c1.025,0,1.369-0.854,1.748-2.108l0.248-0.855
			l-3.439-9.802h1.311L79.549,53.44z"/>
		<path style="fill:#002D73;" d="M96.99,55.056v-6.44c0-1.367-0.514-2.45-2.053-2.45c-1.311,0-2.602,1.12-2.602,3.533v5.357h-1.197
			v-6.44c0-1.367-0.514-2.45-2.053-2.45c-1.311,0-2.602,1.12-2.602,3.533v5.357h-1.197v-7.409c0-0.741,0-1.501-0.076-2.279h1.16
			v1.634l0.037,0.019c0.381-0.665,0.949-1.881,3.021-1.881c0.854,0,2.26,0.361,2.564,2.052h0.037
			c0.438-1.14,1.576-2.052,3.098-2.052c1.955,0,3.057,1.368,3.057,3.249v6.668H96.99z"/>
		<path style="fill:#002D73;" d="M101,45.367h1.197l-0.076,1.767h0.039c0.303-0.532,1.045-1.995,3.096-1.995
			c2.85,0,3.99,2.128,3.99,5.072c0,2.869-1.33,5.072-3.99,5.072c-1.52,0-2.432-0.627-3.02-1.881h-0.039v5.643H101V45.367z
			 M105.066,46.165c-2.129,0-2.869,2.279-2.869,4.046s0.74,4.047,2.869,4.047c2.279,0,2.867-2.166,2.867-4.047
			S107.346,46.165,105.066,46.165z"/>
		<path style="fill:#002D73;" d="M115.857,46.393h-2.203v6.27c0,0.874,0.324,1.596,1.293,1.596c0.455,0,0.76-0.096,1.102-0.229
			l0.076,0.988c-0.285,0.114-0.875,0.266-1.463,0.266c-2.129,0-2.205-1.463-2.205-3.229v-5.661h-1.898v-1.025h1.898V43.03
			l1.197-0.418v2.755h2.203V46.393z"/>
		<path style="fill:#002D73;" d="M121.787,45.139c3.135,0,4.521,2.432,4.521,5.072s-1.387,5.072-4.521,5.072
			s-4.521-2.432-4.521-5.072S118.652,45.139,121.787,45.139z M121.787,54.258c2.09,0,3.211-1.805,3.211-4.047
			c0-2.241-1.121-4.046-3.211-4.046s-3.211,1.805-3.211,4.046C118.576,52.453,119.697,54.258,121.787,54.258z"/>
		<path style="fill:#002D73;" d="M140.273,55.056v-6.44c0-1.367-0.514-2.45-2.053-2.45c-1.311,0-2.602,1.12-2.602,3.533v5.357
			h-1.197v-6.44c0-1.367-0.514-2.45-2.053-2.45c-1.311,0-2.602,1.12-2.602,3.533v5.357h-1.197v-7.409c0-0.741,0-1.501-0.076-2.279
			h1.16v1.634l0.037,0.019c0.381-0.665,0.949-1.881,3.021-1.881c0.854,0,2.26,0.361,2.564,2.052h0.037
			c0.438-1.14,1.576-2.052,3.098-2.052c1.955,0,3.057,1.368,3.057,3.249v6.668H140.273z"/>
		<path style="fill:#002D73;" d="M10.333,65.658c-0.646-0.284-1.425-0.493-2.07-0.493c-2.337,0-3.647,1.69-3.647,4.046
			c0,2.204,1.33,4.047,3.514,4.047c0.761,0,1.463-0.171,2.186-0.438l0.113,1.121c-0.816,0.285-1.576,0.342-2.488,0.342
			c-3.115,0-4.635-2.374-4.635-5.072c0-2.982,1.918-5.072,4.787-5.072c1.158,0,1.994,0.267,2.336,0.38L10.333,65.658z"/>
		<path style="fill:#002D73;" d="M16.242,64.139c3.135,0,4.521,2.432,4.521,5.072s-1.387,5.072-4.521,5.072
			s-4.521-2.432-4.521-5.072S13.107,64.139,16.242,64.139z M16.242,73.258c2.09,0,3.211-1.805,3.211-4.047
			c0-2.241-1.121-4.046-3.211-4.046s-3.211,1.805-3.211,4.046C13.031,71.453,14.152,73.258,16.242,73.258z"/>
		<path style="fill:#002D73;" d="M23.025,66.646c0-0.741,0-1.501-0.076-2.279h1.159v1.729h0.038
			c0.398-0.874,1.121-1.957,3.135-1.957c2.394,0,3.305,1.596,3.305,3.724v6.193H29.39v-5.89c0-1.823-0.646-3.001-2.298-3.001
			c-2.186,0-2.869,1.918-2.869,3.533v5.357h-1.197V66.646z"/>
		<path style="fill:#002D73;" d="M37.77,65.393h-2.204v6.27c0,0.874,0.323,1.596,1.292,1.596c0.455,0,0.76-0.096,1.102-0.229
			l0.076,0.988c-0.285,0.114-0.874,0.266-1.463,0.266c-2.128,0-2.203-1.463-2.203-3.229v-5.661h-1.9v-1.025h1.9V62.03l1.196-0.418
			v2.755h2.204V65.393z"/>
		<path style="fill:#002D73;" d="M39.916,66.532c0-1.063,0-1.463-0.076-2.165h1.197v1.861h0.038c0.437-1.083,1.254-2.09,2.489-2.09
			c0.284,0,0.627,0.058,0.835,0.114v1.254c-0.247-0.076-0.569-0.114-0.874-0.114c-1.899,0-2.412,2.128-2.412,3.876v4.787h-1.197
			V66.532z"/>
		<path style="fill:#002D73;" d="M49.682,64.139c3.135,0,4.521,2.432,4.521,5.072s-1.387,5.072-4.521,5.072
			s-4.521-2.432-4.521-5.072S46.547,64.139,49.682,64.139z M49.682,73.258c2.09,0,3.211-1.805,3.211-4.047
			c0-2.241-1.121-4.046-3.211-4.046s-3.211,1.805-3.211,4.046C46.471,71.453,47.592,73.258,49.682,73.258z"/>
		<path style="fill:#002D73;" d="M56.465,59.808h1.197v14.248h-1.197V59.808z"/>
	</g>
</g>
</svg>
