<?xml version="1.0" encoding="iso-8859-1"?>
<!-- Generator: Adobe Illustrator 19.1.0, SVG Export Plug-In . SVG Version: 6.00 Build 0)  -->
<svg version="1.1" xmlns="http://www.w3.org/2000/svg" xmlns:xlink="http://www.w3.org/1999/xlink" x="0px" y="0px"
	 viewBox="0 0 154.427 125.004" style="enable-background:new 0 0 154.427 125.004;" xml:space="preserve">
<g id="art">
	<g id="New_Symbol">
	</g>
	<g>
		<path style="fill:#114B8A;" d="M34.143,1.964h2.521v10.587h4.879v1.98h-7.399V1.964z"/>
		<path style="fill:#114B8A;" d="M50.362,14.01c-0.882,0.485-1.891,0.738-3.187,0.738c-3.062,0-4.844-1.765-4.844-4.808
			c0-2.683,1.423-4.897,4.304-4.897c3.438,0,4.411,2.358,4.411,5.6h-6.41c0.108,1.494,1.152,2.341,2.646,2.341
			c1.171,0,2.179-0.433,3.079-0.937V14.01z M48.742,8.986c-0.072-1.171-0.612-2.179-1.963-2.179s-2.034,0.936-2.143,2.179H48.742z"
			/>
		<path style="fill:#114B8A;" d="M53.348,5.745c0.937-0.433,2.197-0.702,3.224-0.702c2.826,0,3.997,1.17,3.997,3.907v1.188
			c0,0.936,0.018,1.638,0.036,2.322c0.018,0.702,0.054,1.351,0.107,2.07h-2.124c-0.09-0.486-0.09-1.098-0.108-1.386h-0.036
			c-0.558,1.026-1.765,1.603-2.862,1.603c-1.639,0-3.241-0.991-3.241-2.755c0-1.387,0.666-2.197,1.584-2.647
			c0.919-0.45,2.107-0.54,3.115-0.54h1.333c0-1.494-0.667-1.998-2.089-1.998c-1.026,0-2.053,0.396-2.863,1.008L53.348,5.745z
			 M56.175,12.983c0.738,0,1.314-0.324,1.692-0.828c0.396-0.522,0.505-1.188,0.505-1.909h-1.045c-1.08,0-2.683,0.181-2.683,1.603
			C54.645,12.641,55.311,12.983,56.175,12.983z"/>
		<path style="fill:#114B8A;" d="M62.996,5.259h2.143v2.106h0.036c0.107-0.864,1.098-2.322,2.538-2.322c0.234,0,0.486,0,0.738,0.071
			v2.432c-0.216-0.127-0.647-0.198-1.08-0.198c-1.963,0-1.963,2.448-1.963,3.781v3.402h-2.412V5.259z"/>
		<path style="fill:#114B8A;" d="M70.268,5.259h2.286V6.52h0.036c0.757-1.062,1.783-1.477,3.043-1.477
			c2.197,0,3.151,1.548,3.151,3.637v5.852h-2.413V9.58c0-1.135-0.018-2.665-1.566-2.665c-1.746,0-2.124,1.891-2.124,3.079v4.537
			h-2.413V5.259z"/>
		<path style="fill:#114B8A;" d="M86.27,1.027h2.413V6.52h0.035c0.612-0.9,1.657-1.477,2.917-1.477c2.196,0,3.151,1.548,3.151,3.637
			v5.852h-2.413V9.58c0-1.135-0.018-2.665-1.566-2.665c-1.746,0-2.124,1.891-2.124,3.079v4.537H86.27V1.027z"/>
		<path style="fill:#114B8A;" d="M101.517,5.043c2.755,0,4.862,1.854,4.862,4.915c0,2.665-1.783,4.79-4.862,4.79
			c-3.061,0-4.843-2.125-4.843-4.79C96.674,6.897,98.78,5.043,101.517,5.043z M101.517,12.875c1.854,0,2.341-1.656,2.341-3.205
			c0-1.422-0.756-2.755-2.341-2.755c-1.566,0-2.322,1.368-2.322,2.755C99.194,11.2,99.681,12.875,101.517,12.875z"/>
		<path style="fill:#114B8A;" d="M107.222,5.259h2.557l2.053,6.86h0.036l1.872-6.86h2.809l2.017,6.86h0.036l1.927-6.86h2.305
			l-2.845,9.272h-2.845l-2.017-7.076h-0.036l-1.98,7.076h-2.755L107.222,5.259z"/>
		<path style="fill:#114B8A;" d="M35.798,22.964h4.394c1.62,0,4.051,0.468,4.051,3.223c0,1.495-1.008,2.539-2.502,2.809v0.036
			c1.71,0.162,2.881,1.314,2.881,2.863c0,3.169-2.846,3.637-4.43,3.637h-4.394V22.964z M38.318,28.041h1.026
			c1.062,0,2.377-0.233,2.377-1.53c0-1.458-1.278-1.566-2.431-1.566h-0.973V28.041z M38.318,33.551h1.188
			c1.171,0,2.593-0.288,2.593-1.746c0-1.639-1.332-1.891-2.593-1.891h-1.188V33.551z"/>
		<path style="fill:#114B8A;" d="M46.58,22.964h2.719c2.701,0,5.924-0.09,5.924,3.403c0,1.476-0.99,2.7-2.593,2.916v0.036
			c0.685,0.055,1.08,0.738,1.332,1.297l2.017,4.915H53.17l-1.513-3.925c-0.359-0.937-0.684-1.297-1.746-1.297h-0.811v5.222H46.58
			V22.964z M49.101,28.329h0.828c1.242,0,2.665-0.18,2.665-1.746c0-1.513-1.404-1.639-2.665-1.639h-0.828V28.329z"/>
		<path style="fill:#114B8A;" d="M57.794,22.964h7.418v1.98h-4.897v3.097h4.483v1.98h-4.483v3.529h4.934v1.98h-7.454V22.964z"/>
		<path style="fill:#114B8A;" d="M73.348,22.748c3.943,0,6.158,2.664,6.158,6.464c0,3.799-2.179,6.536-6.158,6.536
			c-4.033,0-6.158-2.684-6.158-6.536C67.189,25.358,69.351,22.748,73.348,22.748z M73.348,33.767c2.574,0,3.529-2.286,3.529-4.555
			c0-2.215-1.026-4.483-3.529-4.483s-3.529,2.269-3.529,4.483C69.818,31.48,70.772,33.767,73.348,33.767z"/>
		<path style="fill:#114B8A;" d="M86.558,26.259h2.251v1.296h0.036c0.756-1.134,1.854-1.512,2.754-1.512
			c1.297,0,2.215,0.486,2.737,1.639c0.558-1.117,1.765-1.639,2.898-1.639c2.287,0,2.936,1.566,2.936,3.637v5.852h-2.413v-5.527
			c0-0.864,0-2.089-1.387-2.089c-1.603,0-1.8,1.909-1.8,3.115v4.501h-2.413v-5.527c0-0.864,0-2.089-1.387-2.089
			c-1.603,0-1.8,1.909-1.8,3.115v4.501h-2.413V26.259z"/>
		<path style="fill:#114B8A;" d="M103.009,26.745c0.937-0.433,2.197-0.702,3.224-0.702c2.826,0,3.997,1.17,3.997,3.907v1.188
			c0,0.936,0.018,1.638,0.036,2.322c0.018,0.702,0.054,1.351,0.107,2.07h-2.124c-0.091-0.486-0.091-1.098-0.108-1.386h-0.036
			c-0.558,1.026-1.765,1.603-2.862,1.603c-1.639,0-3.241-0.991-3.241-2.755c0-1.387,0.666-2.197,1.584-2.647
			c0.919-0.45,2.106-0.54,3.115-0.54h1.332c0-1.494-0.666-1.998-2.088-1.998c-1.026,0-2.053,0.396-2.863,1.008L103.009,26.745z
			 M105.836,33.983c0.738,0,1.314-0.324,1.692-0.828c0.396-0.522,0.504-1.188,0.504-1.909h-1.044c-1.08,0-2.683,0.181-2.683,1.603
			C104.306,33.641,104.972,33.983,105.836,33.983z"/>
		<path style="fill:#114B8A;" d="M116.456,33.028h0.036l2.232-6.77h2.448l-3.475,9.201c-0.774,2.052-1.332,4.068-3.854,4.068
			c-0.576,0-1.152-0.09-1.71-0.252l0.162-1.782c0.306,0.108,0.648,0.162,1.242,0.162c0.973,0,1.566-0.666,1.566-1.656l-3.547-9.741
			h2.665L116.456,33.028z"/>
		<path style="fill:#114B8A;" d="M38.588,43.027h2.413v5.492h0.035c0.612-0.9,1.657-1.477,2.917-1.477
			c2.197,0,3.151,1.548,3.151,3.637v5.852h-2.413V51.58c0-1.135-0.018-2.665-1.566-2.665c-1.746,0-2.124,1.891-2.124,3.079v4.537
			h-2.413V43.027z"/>
		<path style="fill:#114B8A;" d="M57.022,56.01c-0.883,0.485-1.891,0.738-3.188,0.738c-3.061,0-4.844-1.765-4.844-4.808
			c0-2.683,1.423-4.897,4.304-4.897c3.439,0,4.411,2.358,4.411,5.6h-6.41c0.108,1.494,1.152,2.341,2.647,2.341
			c1.17,0,2.179-0.433,3.079-0.937V56.01z M55.401,50.986c-0.072-1.171-0.612-2.179-1.962-2.179c-1.351,0-2.035,0.936-2.144,2.179
			H55.401z"/>
		<path style="fill:#114B8A;" d="M59.647,43.027h2.413v13.504h-2.413V43.027z"/>
		<path style="fill:#114B8A;" d="M64.598,47.259h2.305v1.314h0.036c0.54-0.9,1.458-1.53,2.881-1.53c2.845,0,3.889,2.269,3.889,4.825
			c0,2.539-1.044,4.88-3.943,4.88c-1.025,0-1.872-0.253-2.719-1.279h-0.035v4.844h-2.413V47.259z M67.028,51.868
			c0,1.314,0.522,3.007,2.125,3.007c1.584,0,2.034-1.729,2.034-3.007c0-1.242-0.432-2.953-1.999-2.953
			C67.641,48.915,67.028,50.571,67.028,51.868z"/>
		<path style="fill:#114B8A;" d="M84.453,54.028h0.035l2.233-6.77h2.448l-3.475,9.201c-0.774,2.052-1.333,4.068-3.854,4.068
			c-0.576,0-1.152-0.09-1.71-0.252l0.161-1.782c0.307,0.108,0.648,0.162,1.243,0.162c0.972,0,1.566-0.666,1.566-1.656l-3.547-9.741
			h2.664L84.453,54.028z"/>
		<path style="fill:#114B8A;" d="M94.856,47.043c2.755,0,4.861,1.854,4.861,4.915c0,2.665-1.782,4.79-4.861,4.79
			c-3.061,0-4.844-2.125-4.844-4.79C90.013,48.897,92.119,47.043,94.856,47.043z M94.856,54.875c1.854,0,2.341-1.656,2.341-3.205
			c0-1.422-0.757-2.755-2.341-2.755c-1.566,0-2.323,1.368-2.323,2.755C92.533,53.2,93.02,54.875,94.856,54.875z"/>
		<path style="fill:#114B8A;" d="M110.121,56.531h-2.286v-1.26h-0.036c-0.738,0.9-1.783,1.477-3.043,1.477
			c-2.197,0-3.151-1.549-3.151-3.638v-5.852h2.413v4.951c0,1.135,0.018,2.665,1.566,2.665c1.746,0,2.125-1.891,2.125-3.079v-4.537
			h2.412V56.531z"/>
		<path style="fill:#114B8A;" d="M112.656,47.259h2.144v2.106h0.035c0.108-0.864,1.099-2.322,2.539-2.322
			c0.234,0,0.486,0,0.738,0.071v2.432c-0.216-0.127-0.648-0.198-1.08-0.198c-1.963,0-1.963,2.448-1.963,3.781v3.402h-2.413V47.259z"
			/>
		<path style="fill:#114B8A;" d="M7.241,68.259h2.305v1.314h0.036c0.54-0.9,1.458-1.53,2.881-1.53c2.845,0,3.889,2.269,3.889,4.825
			c0,2.539-1.044,4.88-3.943,4.88c-1.025,0-1.872-0.253-2.719-1.279H9.654v4.844H7.241V68.259z M9.672,72.868
			c0,1.314,0.522,3.007,2.125,3.007c1.584,0,2.034-1.729,2.034-3.007c0-1.242-0.432-2.953-1.999-2.953
			C10.284,69.915,9.672,71.571,9.672,72.868z"/>
		<path style="fill:#114B8A;" d="M18.653,68.745c0.937-0.433,2.196-0.702,3.223-0.702c2.827,0,3.997,1.17,3.997,3.907v1.188
			c0,0.936,0.019,1.638,0.036,2.322c0.019,0.702,0.055,1.351,0.108,2.07h-2.125c-0.09-0.486-0.09-1.098-0.107-1.386h-0.036
			c-0.559,1.026-1.765,1.603-2.863,1.603c-1.639,0-3.241-0.991-3.241-2.755c0-1.387,0.667-2.197,1.585-2.647s2.106-0.54,3.115-0.54
			h1.332c0-1.494-0.666-1.998-2.089-1.998c-1.026,0-2.053,0.396-2.862,1.008L18.653,68.745z M21.48,75.983
			c0.738,0,1.314-0.324,1.692-0.828c0.396-0.522,0.504-1.188,0.504-1.909h-1.044c-1.081,0-2.684,0.181-2.684,1.603
			C19.949,75.641,20.616,75.983,21.48,75.983z"/>
		<path style="fill:#114B8A;" d="M29.039,70.023h-1.782v-1.765h1.782v-1.854l2.413-0.774v2.629h2.143v1.765h-2.143v4.321
			c0,0.792,0.216,1.53,1.134,1.53c0.433,0,0.847-0.09,1.099-0.252l0.072,1.908c-0.504,0.145-1.062,0.217-1.783,0.217
			c-1.89,0-2.935-1.171-2.935-3.008V70.023z"/>
		<path style="fill:#114B8A;" d="M35.303,64.262h2.413v2.305h-2.413V64.262z M35.303,68.259h2.413v9.272h-2.413V68.259z"/>
		<path style="fill:#114B8A;" d="M47.689,77.01c-0.883,0.485-1.891,0.738-3.188,0.738c-3.061,0-4.844-1.765-4.844-4.808
			c0-2.683,1.423-4.897,4.304-4.897c3.439,0,4.411,2.358,4.411,5.6h-6.41c0.108,1.494,1.152,2.341,2.647,2.341
			c1.17,0,2.179-0.433,3.079-0.937V77.01z M46.068,71.986c-0.072-1.171-0.612-2.179-1.962-2.179c-1.351,0-2.035,0.936-2.144,2.179
			H46.068z"/>
		<path style="fill:#114B8A;" d="M50.261,68.259h2.286v1.261h0.036c0.757-1.062,1.783-1.477,3.043-1.477
			c2.197,0,3.151,1.548,3.151,3.637v5.852h-2.413V72.58c0-1.135-0.018-2.665-1.566-2.665c-1.746,0-2.124,1.891-2.124,3.079v4.537
			h-2.413V68.259z"/>
		<path style="fill:#114B8A;" d="M62.051,70.023h-1.782v-1.765h1.782v-1.854l2.413-0.774v2.629h2.143v1.765h-2.143v4.321
			c0,0.792,0.216,1.53,1.134,1.53c0.433,0,0.847-0.09,1.099-0.252l0.072,1.908c-0.504,0.145-1.062,0.217-1.783,0.217
			c-1.89,0-2.935-1.171-2.935-3.008V70.023z"/>
		<path style="fill:#114B8A;" d="M73.771,70.203c-0.738-0.252-1.278-0.396-2.161-0.396c-0.647,0-1.422,0.233-1.422,1.026
			c0,1.476,4.195,0.54,4.195,3.889c0,2.161-1.927,3.025-3.89,3.025c-0.918,0-1.854-0.162-2.736-0.396l0.144-1.98
			c0.757,0.378,1.549,0.612,2.377,0.612c0.612,0,1.584-0.234,1.584-1.135c0-1.818-4.195-0.576-4.195-3.925
			c0-1.999,1.747-2.881,3.638-2.881c1.134,0,1.872,0.18,2.629,0.342L73.771,70.203z"/>
		<path style="fill:#114B8A;" d="M81.311,64.262h2.412v2.305h-2.412V64.262z M81.311,68.259h2.412v9.272h-2.412V68.259z"/>
		<path style="fill:#114B8A;" d="M86.225,68.259h2.25v1.296h0.036c0.756-1.134,1.854-1.512,2.755-1.512
			c1.296,0,2.215,0.486,2.736,1.639c0.559-1.117,1.765-1.639,2.899-1.639c2.286,0,2.935,1.566,2.935,3.637v5.852h-2.413v-5.527
			c0-0.864,0-2.089-1.386-2.089c-1.603,0-1.801,1.909-1.801,3.115v4.501h-2.413v-5.527c0-0.864,0-2.089-1.386-2.089
			c-1.603,0-1.801,1.909-1.801,3.115v4.501h-2.412V68.259z"/>
		<path style="fill:#114B8A;" d="M102.262,68.259h2.305v1.314h0.036c0.54-0.9,1.458-1.53,2.881-1.53c2.845,0,3.89,2.269,3.89,4.825
			c0,2.539-1.045,4.88-3.943,4.88c-1.026,0-1.873-0.253-2.719-1.279h-0.036v4.844h-2.413V68.259z M104.692,72.868
			c0,1.314,0.522,3.007,2.125,3.007c1.584,0,2.034-1.729,2.034-3.007c0-1.242-0.432-2.953-1.998-2.953
			C105.305,69.915,104.692,71.571,104.692,72.868z"/>
		<path style="fill:#114B8A;" d="M113.314,68.259h2.143v2.106h0.035c0.108-0.864,1.099-2.322,2.539-2.322
			c0.234,0,0.486,0,0.738,0.071v2.432c-0.216-0.127-0.648-0.198-1.08-0.198c-1.963,0-1.963,2.448-1.963,3.781v3.402h-2.412V68.259z"
			/>
		<path style="fill:#114B8A;" d="M124.187,68.043c2.755,0,4.862,1.854,4.862,4.915c0,2.665-1.783,4.79-4.862,4.79
			c-3.061,0-4.843-2.125-4.843-4.79C119.344,69.897,121.45,68.043,124.187,68.043z M124.187,75.875c1.854,0,2.341-1.656,2.341-3.205
			c0-1.422-0.756-2.755-2.341-2.755c-1.566,0-2.322,1.368-2.322,2.755C121.864,74.2,122.351,75.875,124.187,75.875z"/>
		<path style="fill:#114B8A;" d="M129.909,68.259h2.593l2.305,6.752h0.036l2.232-6.752h2.413l-3.421,9.272h-2.719L129.909,68.259z"
			/>
		<path style="fill:#114B8A;" d="M148.38,77.01c-0.883,0.485-1.891,0.738-3.188,0.738c-3.061,0-4.843-1.765-4.843-4.808
			c0-2.683,1.422-4.897,4.303-4.897c3.439,0,4.412,2.358,4.412,5.6h-6.41c0.107,1.494,1.152,2.341,2.646,2.341
			c1.17,0,2.179-0.433,3.079-0.937V77.01z M146.76,71.986c-0.072-1.171-0.612-2.179-1.963-2.179s-2.035,0.936-2.143,2.179H146.76z"
			/>
		<path style="fill:#114B8A;" d="M6.009,89.745c0.937-0.433,2.196-0.702,3.223-0.702c2.827,0,3.997,1.17,3.997,3.907v1.188
			c0,0.936,0.019,1.638,0.036,2.322c0.019,0.702,0.055,1.351,0.108,2.07h-2.125c-0.09-0.486-0.09-1.098-0.107-1.386h-0.036
			c-0.559,1.026-1.765,1.603-2.863,1.603C6.603,98.748,5,97.757,5,95.993c0-1.387,0.667-2.197,1.585-2.647s2.106-0.54,3.115-0.54
			h1.332c0-1.494-0.666-1.998-2.089-1.998c-1.026,0-2.053,0.396-2.862,1.008L6.009,89.745z M8.836,96.983
			c0.738,0,1.314-0.324,1.692-0.828c0.396-0.522,0.504-1.188,0.504-1.909H9.988c-1.081,0-2.684,0.181-2.684,1.603
			C7.305,96.641,7.972,96.983,8.836,96.983z"/>
		<path style="fill:#114B8A;" d="M21.112,91.203c-0.738-0.252-1.278-0.396-2.161-0.396c-0.647,0-1.422,0.233-1.422,1.026
			c0,1.476,4.195,0.54,4.195,3.889c0,2.161-1.927,3.025-3.89,3.025c-0.918,0-1.854-0.162-2.736-0.396l0.144-1.98
			c0.757,0.378,1.549,0.612,2.377,0.612c0.612,0,1.584-0.234,1.584-1.135c0-1.818-4.195-0.576-4.195-3.925
			c0-1.999,1.747-2.881,3.638-2.881c1.134,0,1.872,0.18,2.629,0.342L21.112,91.203z"/>
		<path style="fill:#114B8A;" d="M24.387,91.023h-1.783v-1.765h1.783v-1.854l2.412-0.774v2.629h2.143v1.765h-2.143v4.321
			c0,0.792,0.217,1.53,1.135,1.53c0.432,0,0.846-0.09,1.099-0.252l0.071,1.908c-0.504,0.145-1.062,0.217-1.782,0.217
			c-1.891,0-2.935-1.171-2.935-3.008V91.023z"/>
		<path style="fill:#114B8A;" d="M30.596,85.027h2.413v5.492h0.036c0.612-0.9,1.656-1.477,2.917-1.477
			c2.196,0,3.15,1.548,3.15,3.637v5.852H36.7V93.58c0-1.135-0.019-2.665-1.566-2.665c-1.747,0-2.125,1.891-2.125,3.079v4.537h-2.413
			V85.027z"/>
		<path style="fill:#114B8A;" d="M41.559,89.259h2.25v1.296h0.036c0.756-1.134,1.854-1.512,2.755-1.512
			c1.297,0,2.215,0.486,2.737,1.639c0.558-1.117,1.764-1.639,2.898-1.639c2.287,0,2.935,1.566,2.935,3.637v5.852h-2.412v-5.527
			c0-0.864,0-2.089-1.387-2.089c-1.603,0-1.801,1.909-1.801,3.115v4.501h-2.412v-5.527c0-0.864,0-2.089-1.387-2.089
			c-1.603,0-1.801,1.909-1.801,3.115v4.501h-2.412V89.259z"/>
		<path style="fill:#114B8A;" d="M58.01,89.745c0.937-0.433,2.197-0.702,3.224-0.702c2.826,0,3.997,1.17,3.997,3.907v1.188
			c0,0.936,0.018,1.638,0.036,2.322c0.018,0.702,0.054,1.351,0.107,2.07H63.25c-0.09-0.486-0.09-1.098-0.108-1.386h-0.036
			c-0.558,1.026-1.765,1.603-2.862,1.603c-1.639,0-3.241-0.991-3.241-2.755c0-1.387,0.666-2.197,1.584-2.647
			c0.919-0.45,2.107-0.54,3.115-0.54h1.333c0-1.494-0.667-1.998-2.089-1.998c-1.026,0-2.053,0.396-2.863,1.008L58.01,89.745z
			 M60.837,96.983c0.738,0,1.314-0.324,1.692-0.828c0.396-0.522,0.505-1.188,0.505-1.909h-1.045c-1.08,0-2.683,0.181-2.683,1.603
			C59.307,96.641,59.973,96.983,60.837,96.983z"/>
		<path style="fill:#114B8A;" d="M66.992,94.679v-1.98h4.735v1.98H66.992z"/>
		<path style="fill:#114B8A;" d="M79.107,91.203c-0.738-0.252-1.278-0.396-2.161-0.396c-0.647,0-1.422,0.233-1.422,1.026
			c0,1.476,4.195,0.54,4.195,3.889c0,2.161-1.927,3.025-3.89,3.025c-0.918,0-1.854-0.162-2.736-0.396l0.144-1.98
			c0.757,0.378,1.549,0.612,2.377,0.612c0.612,0,1.584-0.234,1.584-1.135c0-1.818-4.195-0.576-4.195-3.925
			c0-1.999,1.747-2.881,3.638-2.881c1.134,0,1.872,0.18,2.629,0.342L79.107,91.203z"/>
		<path style="fill:#114B8A;" d="M85.442,96.028h0.036l2.232-6.77h2.449l-3.476,9.201c-0.774,2.052-1.332,4.068-3.853,4.068
			c-0.576,0-1.152-0.09-1.711-0.252l0.162-1.782c0.306,0.108,0.648,0.162,1.242,0.162c0.973,0,1.566-0.666,1.566-1.656l-3.547-9.741
			h2.665L85.442,96.028z"/>
		<path style="fill:#114B8A;" d="M91.561,89.259h2.251v1.296h0.036c0.756-1.134,1.854-1.512,2.755-1.512
			c1.296,0,2.215,0.486,2.736,1.639c0.559-1.117,1.765-1.639,2.899-1.639c2.286,0,2.935,1.566,2.935,3.637v5.852h-2.413v-5.527
			c0-0.864,0-2.089-1.386-2.089c-1.603,0-1.801,1.909-1.801,3.115v4.501H97.16v-5.527c0-0.864,0-2.089-1.386-2.089
			c-1.603,0-1.801,1.909-1.801,3.115v4.501h-2.413V89.259z"/>
		<path style="fill:#114B8A;" d="M107.599,89.259h2.305v1.314h0.036c0.54-0.9,1.459-1.53,2.881-1.53c2.845,0,3.89,2.269,3.89,4.825
			c0,2.539-1.045,4.88-3.943,4.88c-1.026,0-1.873-0.253-2.719-1.279h-0.036v4.844h-2.413V89.259z M110.029,93.868
			c0,1.314,0.522,3.007,2.125,3.007c1.584,0,2.034-1.729,2.034-3.007c0-1.242-0.432-2.953-1.998-2.953
			C110.642,90.915,110.029,92.571,110.029,93.868z"/>
		<path style="fill:#114B8A;" d="M119.389,91.023h-1.782v-1.765h1.782v-1.854l2.413-0.774v2.629h2.143v1.765h-2.143v4.321
			c0,0.792,0.216,1.53,1.135,1.53c0.432,0,0.846-0.09,1.098-0.252l0.072,1.908c-0.504,0.145-1.062,0.217-1.782,0.217
			c-1.891,0-2.936-1.171-2.936-3.008V91.023z"/>
		<path style="fill:#114B8A;" d="M129.848,89.043c2.755,0,4.862,1.854,4.862,4.915c0,2.665-1.783,4.79-4.862,4.79
			c-3.061,0-4.843-2.125-4.843-4.79C125.005,90.897,127.111,89.043,129.848,89.043z M129.848,96.875
			c1.855,0,2.341-1.656,2.341-3.205c0-1.422-0.756-2.755-2.341-2.755c-1.566,0-2.322,1.368-2.322,2.755
			C127.525,95.2,128.012,96.875,129.848,96.875z"/>
		<path style="fill:#114B8A;" d="M136.561,89.259h2.251v1.296h0.036c0.756-1.134,1.854-1.512,2.755-1.512
			c1.296,0,2.215,0.486,2.736,1.639c0.559-1.117,1.765-1.639,2.899-1.639c2.286,0,2.935,1.566,2.935,3.637v5.852h-2.413v-5.527
			c0-0.864,0-2.089-1.386-2.089c-1.603,0-1.801,1.909-1.801,3.115v4.501h-2.413v-5.527c0-0.864,0-2.089-1.386-2.089
			c-1.603,0-1.801,1.909-1.801,3.115v4.501h-2.413V89.259z"/>
		<path style="fill:#114B8A;" d="M55.276,112.258c-0.433-0.198-0.9-0.343-1.639-0.343c-1.495,0-2.449,1.188-2.449,2.936
			c0,1.71,0.811,3.024,2.503,3.024c0.685,0,1.44-0.252,1.854-0.432l0.108,1.998c-0.702,0.216-1.423,0.307-2.413,0.307
			c-3.043,0-4.573-2.071-4.573-4.897c0-2.684,1.584-4.808,4.483-4.808c0.973,0,1.675,0.107,2.341,0.306L55.276,112.258z"/>
		<path style="fill:#114B8A;" d="M61.503,110.043c2.755,0,4.861,1.854,4.861,4.915c0,2.665-1.782,4.79-4.861,4.79
			c-3.061,0-4.844-2.125-4.844-4.79C56.659,111.897,58.767,110.043,61.503,110.043z M61.503,117.875
			c1.854,0,2.341-1.656,2.341-3.205c0-1.422-0.756-2.755-2.341-2.755c-1.566,0-2.322,1.368-2.322,2.755
			C59.181,116.2,59.667,117.875,61.503,117.875z"/>
		<path style="fill:#114B8A;" d="M68.252,110.259h2.286v1.261h0.036c0.757-1.062,1.783-1.477,3.043-1.477
			c2.197,0,3.151,1.548,3.151,3.637v5.852h-2.413v-4.951c0-1.135-0.018-2.665-1.566-2.665c-1.746,0-2.124,1.891-2.124,3.079v4.537
			h-2.413V110.259z"/>
		<path style="fill:#114B8A;" d="M80.042,112.023H78.26v-1.765h1.782v-1.854l2.413-0.774v2.629h2.143v1.765h-2.143v4.321
			c0,0.792,0.216,1.53,1.134,1.53c0.433,0,0.847-0.09,1.099-0.252l0.072,1.908c-0.504,0.145-1.062,0.217-1.783,0.217
			c-1.89,0-2.935-1.171-2.935-3.008V112.023z"/>
		<path style="fill:#114B8A;" d="M86.306,110.259h2.143v2.106h0.036c0.108-0.864,1.099-2.322,2.539-2.322
			c0.233,0,0.485,0,0.738,0.071v2.432c-0.217-0.127-0.648-0.198-1.08-0.198c-1.963,0-1.963,2.448-1.963,3.781v3.402h-2.413V110.259z
			"/>
		<path style="fill:#114B8A;" d="M97.178,110.043c2.755,0,4.862,1.854,4.862,4.915c0,2.665-1.783,4.79-4.862,4.79
			c-3.061,0-4.843-2.125-4.843-4.79C92.335,111.897,94.441,110.043,97.178,110.043z M97.178,117.875
			c1.855,0,2.341-1.656,2.341-3.205c0-1.422-0.756-2.755-2.341-2.755c-1.566,0-2.322,1.368-2.322,2.755
			C94.855,116.2,95.342,117.875,97.178,117.875z"/>
		<path style="fill:#114B8A;" d="M103.98,106.027h2.413v13.504h-2.413V106.027z"/>
	</g>
</g>
<g id="isi">
</g>
<g id="frame">
</g>
</svg>
