<?xml version="1.0" encoding="iso-8859-1"?>
<!-- Generator: Adobe Illustrator 19.1.0, SVG Export Plug-In . SVG Version: 6.00 Build 0)  -->
<svg version="1.1" xmlns="http://www.w3.org/2000/svg" xmlns:xlink="http://www.w3.org/1999/xlink" x="0px" y="0px"
	 viewBox="0 0 133.702 200.615" style="enable-background:new 0 0 133.702 200.615;" xml:space="preserve">
<g id="art">
	<g id="New_Symbol">
	</g>
	<g>
		<path style="fill:#114B8A;" d="M0.168,9.175c0.505-0.448,1.135-0.994,1.751-1.568c1.078-1.009,2.815-2.592,2.815-4.174
			c0-0.911-0.812-1.556-1.877-1.556c-0.868,0-1.709,0.337-2.241,0.631l-0.14-1.205c0.812-0.35,1.681-0.574,2.563-0.574
			c1.765,0,3.18,0.953,3.18,2.788c0,1.624-1.752,3.361-2.83,4.44C2.844,8.503,2.144,9.091,1.667,9.525h4.692v1.148H0.168V9.175z"/>
		<path style="fill:#114B8A;" d="M12.07,8.447H7.519V7.298l3.949-6.401h2.004v6.401h1.232v1.149h-1.232v2.227H12.07V8.447z
			 M12.07,2.046h-0.028L8.989,7.298h3.081V2.046z"/>
		<path style="fill:#114B8A;" d="M15.568,6.374h3.601v1.064h-3.601V6.374z"/>
		<path style="fill:#114B8A;" d="M20.819,0.168h1.316v4.385h0.027c0.477-0.757,1.303-1.19,2.298-1.19
			c1.849,0,2.675,1.148,2.675,3.067v4.244h-1.316V6.977c0-1.667-0.363-2.479-1.513-2.55c-1.499,0-2.171,1.205-2.171,2.941v3.306
			h-1.316V0.168z"/>
		<path style="fill:#114B8A;" d="M32.538,3.362c2.172,0,3.628,1.568,3.628,3.74c0,2.045-1.484,3.739-3.628,3.739
			c-2.157,0-3.642-1.694-3.642-3.739C28.896,4.931,30.353,3.362,32.538,3.362z M32.538,9.777c1.541,0,2.228-1.4,2.228-2.675
			c0-1.359-0.827-2.676-2.228-2.676c-1.414,0-2.241,1.316-2.241,2.676C30.297,8.377,30.983,9.777,32.538,9.777z"/>
		<path style="fill:#114B8A;" d="M44.243,10.674h-1.274V9.539H42.94c-0.392,0.812-1.344,1.303-2.339,1.303
			c-1.849,0-2.675-1.148-2.675-3.067V3.53h1.316v3.698c0,1.667,0.364,2.479,1.513,2.549c1.499,0,2.171-1.204,2.171-2.941V3.53h1.316
			V10.674z"/>
		<path style="fill:#114B8A;" d="M46.479,3.53h1.233v1.106h0.028c0.35-0.742,1.105-1.274,1.862-1.274
			c0.393,0,0.589,0.042,0.868,0.098v1.177c-0.238-0.098-0.504-0.126-0.729-0.126c-1.176,0-1.946,1.121-1.946,2.914v3.249h-1.317
			V3.53z"/>
		<path style="fill:#114B8A;" d="M55.86,0.896h2.646c2.031,0,3.432,0.658,3.432,2.466c0,1.345-0.783,2.017-2.017,2.325v0.028
			c1.331,0.111,2.27,0.98,2.27,2.353c0,2.102-1.737,2.605-3.726,2.605H55.86V0.896z M57.261,5.071h0.771
			c1.358,0,2.507-0.126,2.507-1.569c0-1.162-0.994-1.456-1.807-1.456h-1.471V5.071z M57.261,9.525h1.051
			c1.26,0,2.395-0.266,2.395-1.583c0-1.513-1.33-1.723-2.535-1.723h-0.91V9.525z"/>
		<path style="fill:#114B8A;" d="M64.413,0.896h2.396c1.933,0,3.795,0.309,3.795,2.647c0,1.191-0.882,2.031-2.017,2.228V5.8
			c0.435,0.168,0.645,0.378,0.952,0.98l1.85,3.894h-1.598l-1.498-3.39c-0.435-0.952-0.896-0.952-1.639-0.952h-0.841v4.342h-1.401
			V0.896z M65.814,5.099h1.19c1.331,0,2.115-0.588,2.115-1.526c0-0.883-0.672-1.442-1.961-1.442h-1.345V5.099z"/>
		<path style="fill:#114B8A;" d="M73.122,0.896h5.477V2.13h-4.076v2.857h3.712V6.22h-3.712v3.222h4.076v1.232h-5.477V0.896z"/>
		<path style="fill:#114B8A;" d="M85.038,0.729c2.97,0,4.706,2.157,4.706,5.057c0,2.97-1.723,5.057-4.706,5.057
			c-2.984,0-4.707-2.087-4.707-5.057C80.331,2.886,82.068,0.729,85.038,0.729z M85.038,9.609c2.255,0,3.222-1.877,3.222-3.824
			c0-1.989-1.064-3.838-3.222-3.824c-2.157-0.014-3.222,1.835-3.222,3.824C81.816,7.732,82.782,9.609,85.038,9.609z"/>
		<path style="fill:#114B8A;" d="M97.062,1.934h-1.484V0.448h1.484V1.934z M95.661,3.53h1.316v7.144h-1.316V3.53z"/>
		<path style="fill:#114B8A;" d="M98.852,9.273c0.519,0.336,1.261,0.504,1.64,0.504c0.602,0,1.345-0.252,1.345-1.022
			c0-1.303-3.096-1.19-3.096-3.193c0-1.485,1.106-2.199,2.521-2.199c0.616,0,1.12,0.126,1.639,0.28l-0.112,1.148
			c-0.294-0.183-1.078-0.364-1.387-0.364c-0.672,0-1.261,0.28-1.261,0.868c0,1.457,3.096,1.037,3.096,3.32
			c0,1.526-1.219,2.227-2.493,2.227c-0.673,0-1.359-0.069-1.961-0.392L98.852,9.273z"/>
		<path style="fill:#114B8A;" d="M109.576,4.595h-1.681V3.53h1.681V2.872c0-1.737,0.448-2.872,2.396-2.872
			c0.336,0,0.616,0.042,0.883,0.084l-0.056,1.065c-0.154-0.057-0.406-0.085-0.631-0.085c-1.135,0-1.274,0.729-1.274,1.695V3.53
			h1.891v1.064h-1.891v6.079h-1.317V4.595z"/>
		<path style="fill:#114B8A;" d="M117.334,3.362c2.171,0,3.628,1.568,3.628,3.74c0,2.045-1.484,3.739-3.628,3.739
			c-2.157,0-3.642-1.694-3.642-3.739C113.692,4.931,115.149,3.362,117.334,3.362z M117.334,9.777c1.541,0,2.228-1.4,2.228-2.675
			c0-1.359-0.826-2.676-2.228-2.676c-1.415,0-2.241,1.316-2.241,2.676C115.093,8.377,115.779,9.777,117.334,9.777z"/>
		<path style="fill:#114B8A;" d="M122.722,3.53h1.233v1.106h0.027c0.351-0.742,1.107-1.274,1.863-1.274
			c0.393,0,0.589,0.042,0.868,0.098v1.177c-0.237-0.098-0.504-0.126-0.728-0.126c-1.177,0-1.947,1.121-1.947,2.914v3.249h-1.317
			V3.53z"/>
		<path style="fill:#114B8A;" d="M0.925,21.034c0.658-0.392,1.442-0.672,2.354-0.672c2.045,0,2.871,1.009,2.871,2.955v2.956
			c0,0.812,0.027,1.19,0.057,1.4H4.973V26.75H4.944c-0.308,0.434-1.008,1.092-2.213,1.092c-1.541,0-2.619-0.672-2.619-2.227
			c0-1.793,1.961-2.354,3.32-2.354c0.518,0,0.882,0,1.4,0.028c0-1.233-0.449-1.863-1.766-1.863c-0.742,0-1.541,0.28-2.072,0.729
			L0.925,21.034z M4.833,24.271c-0.28,0-0.561-0.028-0.841-0.028c-0.714,0-2.479,0.112-2.479,1.373c0,0.756,0.729,1.162,1.331,1.162
			c1.303,0,1.989-0.812,1.989-1.877V24.271z"/>
		<path style="fill:#114B8A;" d="M13.429,26.666h-0.027c-0.35,0.532-1.162,1.176-2.438,1.176c-2.157,0-3.067-1.919-3.067-3.865
			c0-1.92,1.009-3.614,3.081-3.614c1.247,0,1.961,0.49,2.367,1.148h0.028v-4.343h1.317v10.506h-1.262V26.666z M11.272,26.777
			c1.484,0,2.101-1.471,2.101-2.661c0-1.331-0.687-2.689-2.114-2.689c-1.43,0-1.99,1.345-1.962,2.647
			C9.269,25.194,9.857,26.777,11.272,26.777z"/>
		<path style="fill:#114B8A;" d="M23.243,27.674h-1.274v-1.135H21.94c-0.392,0.812-1.344,1.303-2.339,1.303
			c-1.849,0-2.675-1.148-2.675-3.067V20.53h1.316v3.698c0,1.667,0.364,2.479,1.513,2.549c1.499,0,2.171-1.204,2.171-2.941V20.53
			h1.316V27.674z"/>
		<path style="fill:#114B8A;" d="M25.647,17.168h1.317v10.506h-1.317V17.168z"/>
		<path style="fill:#114B8A;" d="M33.168,21.595h-1.891v3.908c0,0.826,0.504,1.274,1.106,1.274c0.406,0,0.7-0.126,0.896-0.252v1.121
			c-0.295,0.084-0.701,0.195-1.121,0.195c-1.358,0-2.199-0.644-2.199-2.072v-4.175h-1.61V20.53h1.61v-1.653l1.317-0.42v2.073h1.891
			V21.595z"/>
		<path style="fill:#114B8A;" d="M38.71,20.53h1.261v1.009h0.028c0.35-0.532,1.162-1.177,2.423-1.177
			c2.073,0,3.081,1.694,3.081,3.614c0,1.961-0.91,3.865-3.066,3.865c-1.262,0-1.976-0.49-2.382-1.148h-0.028v3.922H38.71V20.53z
			 M42.142,21.427c-1.429,0-2.115,1.358-2.115,2.689c0,1.19,0.617,2.661,2.102,2.661c1.414,0,2.003-1.583,1.975-2.703
			C44.131,22.785,43.571,21.427,42.142,21.427z"/>
		<path style="fill:#114B8A;" d="M47.6,21.034c0.659-0.392,1.442-0.672,2.354-0.672c2.045,0,2.872,1.009,2.872,2.955v2.956
			c0,0.812,0.027,1.19,0.056,1.4h-1.233V26.75H51.62c-0.309,0.434-1.009,1.092-2.213,1.092c-1.541,0-2.619-0.672-2.619-2.227
			c0-1.793,1.961-2.354,3.319-2.354c0.519,0,0.882,0,1.4,0.028c0-1.233-0.448-1.863-1.765-1.863c-0.742,0-1.541,0.28-2.073,0.729
			L47.6,21.034z M51.508,24.271c-0.28,0-0.56-0.028-0.841-0.028c-0.714,0-2.479,0.112-2.479,1.373c0,0.756,0.729,1.162,1.33,1.162
			c1.303,0,1.989-0.812,1.989-1.877V24.271z"/>
		<path style="fill:#114B8A;" d="M58.844,21.595h-1.891v3.908c0,0.826,0.504,1.274,1.106,1.274c0.406,0,0.7-0.126,0.896-0.252v1.121
			c-0.295,0.084-0.701,0.195-1.121,0.195c-1.358,0-2.199-0.644-2.199-2.072v-4.175h-1.61V20.53h1.61v-1.653l1.317-0.42v2.073h1.891
			V21.595z"/>
		<path style="fill:#114B8A;" d="M62.062,18.934h-1.485v-1.485h1.485V18.934z M60.661,20.53h1.317v7.144h-1.317V20.53z"/>
		<path style="fill:#114B8A;" d="M69.862,27.38c-0.504,0.183-1.078,0.462-2.255,0.462c-2.535,0-3.698-1.54-3.698-3.865
			c0-2.115,1.331-3.614,3.348-3.614c2.382,0,3.152,1.736,3.152,4.034h-5.1c0,1.415,1.107,2.381,2.354,2.381
			c0.869,0,1.877-0.448,2.199-0.714V27.38z M69.009,23.416c0-1.093-0.645-1.989-1.779-1.989c-1.289,0-1.821,1.064-1.92,1.989H69.009
			z"/>
		<path style="fill:#114B8A;" d="M72.17,20.53h1.274v1.135h0.028c0.392-0.812,1.345-1.303,2.339-1.303
			c1.85,0,2.676,1.148,2.676,3.067v4.244h-1.316v-3.697c0-1.667-0.364-2.479-1.514-2.55c-1.498,0-2.17,1.205-2.17,2.941v3.306H72.17
			V20.53z"/>
		<path style="fill:#114B8A;" d="M84.521,21.595h-1.892v3.908c0,0.826,0.505,1.274,1.106,1.274c0.406,0,0.701-0.126,0.896-0.252
			v1.121c-0.294,0.084-0.7,0.195-1.12,0.195c-1.358,0-2.199-0.644-2.199-2.072v-4.175h-1.611V20.53h1.611v-1.653l1.316-0.42v2.073
			h1.892V21.595z"/>
		<path style="fill:#114B8A;" d="M85.638,26.273c0.519,0.336,1.261,0.504,1.64,0.504c0.602,0,1.345-0.252,1.345-1.022
			c0-1.303-3.096-1.19-3.096-3.193c0-1.485,1.106-2.199,2.521-2.199c0.616,0,1.12,0.126,1.639,0.28l-0.112,1.148
			c-0.294-0.183-1.078-0.364-1.387-0.364c-0.673,0-1.261,0.28-1.261,0.868c0,1.457,3.096,1.037,3.096,3.32
			c0,1.526-1.219,2.227-2.493,2.227c-0.673,0-1.358-0.069-1.961-0.392L85.638,26.273z"/>
		<path style="fill:#114B8A;" d="M103.591,27.674h-1.527l-1.849-5.995h-0.028l-1.807,5.995h-1.527l-2.297-7.144h1.443l1.639,5.911
			h0.027l1.821-5.911h1.555l1.793,5.911h0.028l1.737-5.911h1.288L103.591,27.674z"/>
		<path style="fill:#114B8A;" d="M108.739,18.934h-1.484v-1.485h1.484V18.934z M107.339,20.53h1.316v7.144h-1.316V20.53z"/>
		<path style="fill:#114B8A;" d="M114.858,21.595h-1.892v3.908c0,0.826,0.505,1.274,1.106,1.274c0.406,0,0.701-0.126,0.896-0.252
			v1.121c-0.294,0.084-0.7,0.195-1.12,0.195c-1.358,0-2.199-0.644-2.199-2.072v-4.175h-1.611V20.53h1.611v-1.653l1.316-0.42v2.073
			h1.892V21.595z"/>
		<path style="fill:#114B8A;" d="M116.509,17.168h1.316v4.385h0.027c0.477-0.757,1.303-1.19,2.298-1.19
			c1.849,0,2.676,1.148,2.676,3.067v4.244h-1.317v-3.697c0-1.667-0.364-2.479-1.513-2.55c-1.499,0-2.171,1.205-2.171,2.941v3.306
			h-1.316V17.168z"/>
		<path style="fill:#114B8A;" d="M0.925,38.034c0.658-0.392,1.442-0.672,2.354-0.672c2.045,0,2.871,1.009,2.871,2.955v2.956
			c0,0.812,0.027,1.19,0.057,1.4H4.973V43.75H4.944c-0.308,0.434-1.008,1.092-2.213,1.092c-1.541,0-2.619-0.672-2.619-2.227
			c0-1.793,1.961-2.354,3.32-2.354c0.518,0,0.882,0,1.4,0.028c0-1.233-0.449-1.863-1.766-1.863c-0.742,0-1.541,0.28-2.072,0.729
			L0.925,38.034z M4.833,41.271c-0.28,0-0.561-0.028-0.841-0.028c-0.714,0-2.479,0.112-2.479,1.373c0,0.756,0.729,1.162,1.331,1.162
			c1.303,0,1.989-0.812,1.989-1.877V41.271z"/>
		<path style="fill:#114B8A;" d="M7.841,43.273c0.518,0.336,1.26,0.504,1.639,0.504c0.602,0,1.344-0.252,1.344-1.022
			c0-1.303-3.096-1.19-3.096-3.193c0-1.485,1.107-2.199,2.521-2.199c0.617,0,1.121,0.126,1.64,0.28l-0.112,1.148
			c-0.294-0.183-1.078-0.364-1.387-0.364c-0.672,0-1.261,0.28-1.261,0.868c0,1.457,3.096,1.037,3.096,3.32
			c0,1.526-1.219,2.227-2.493,2.227c-0.672,0-1.359-0.069-1.961-0.392L7.841,43.273z"/>
		<path style="fill:#114B8A;" d="M17.614,38.595h-1.891v3.908c0,0.826,0.504,1.274,1.106,1.274c0.406,0,0.7-0.126,0.896-0.252v1.121
			c-0.294,0.084-0.7,0.195-1.12,0.195c-1.359,0-2.199-0.644-2.199-2.072v-4.175h-1.611V37.53h1.611v-1.653l1.316-0.42v2.073h1.891
			V38.595z"/>
		<path style="fill:#114B8A;" d="M19.265,34.168h1.316v4.385h0.027c0.477-0.757,1.303-1.19,2.298-1.19
			c1.849,0,2.675,1.148,2.675,3.067v4.244h-1.316v-3.697c0-1.667-0.363-2.479-1.513-2.55c-1.499,0-2.171,1.205-2.171,2.941v3.306
			h-1.316V34.168z"/>
		<path style="fill:#114B8A;" d="M27.804,37.53h1.232v1.036h0.028c0.505-0.826,1.219-1.204,2.27-1.204
			c0.826,0,1.653,0.42,2.03,1.387c0.49-1.022,1.569-1.387,2.214-1.387c1.821,0,2.479,1.177,2.479,2.731v4.58h-1.316v-4.258
			c0-0.883-0.211-1.989-1.275-1.989c-1.345,0-1.877,1.316-1.877,2.647v3.6h-1.316v-4.258c0-0.883-0.211-1.989-1.275-1.989
			c-1.344,0-1.877,1.316-1.877,2.647v3.6h-1.316V37.53z"/>
		<path style="fill:#114B8A;" d="M40.6,38.034c0.659-0.392,1.442-0.672,2.354-0.672c2.045,0,2.872,1.009,2.872,2.955v2.956
			c0,0.812,0.027,1.19,0.056,1.4h-1.233V43.75H44.62c-0.309,0.434-1.009,1.092-2.213,1.092c-1.541,0-2.619-0.672-2.619-2.227
			c0-1.793,1.961-2.354,3.319-2.354c0.519,0,0.882,0,1.4,0.028c0-1.233-0.448-1.863-1.765-1.863c-0.742,0-1.541,0.28-2.073,0.729
			L40.6,38.034z M44.508,41.271c-0.28,0-0.56-0.028-0.841-0.028c-0.714,0-2.479,0.112-2.479,1.373c0,0.756,0.729,1.162,1.33,1.162
			c1.303,0,1.989-0.812,1.989-1.877V41.271z"/>
		<path style="fill:#114B8A;" d="M58.257,44.674h-1.274v-1.135h-0.028c-0.392,0.812-1.344,1.303-2.339,1.303
			c-1.849,0-2.675-1.148-2.675-3.067V37.53h1.316v3.698c0,1.667,0.364,2.479,1.513,2.549c1.499,0,2.171-1.204,2.171-2.941V37.53
			h1.316V44.674z"/>
		<path style="fill:#114B8A;" d="M60.493,37.53h1.275v1.135h0.027c0.393-0.812,1.346-1.303,2.34-1.303
			c1.849,0,2.676,1.148,2.676,3.067v4.244h-1.317v-3.697c0-1.667-0.364-2.479-1.513-2.55c-1.498,0-2.171,1.205-2.171,2.941v3.306
			h-1.317V37.53z"/>
		<path style="fill:#114B8A;" d="M73.586,38.735c-0.505-0.211-1.009-0.309-1.429-0.309c-1.471,0-2.297,1.316-2.297,2.676
			c0,1.274,0.686,2.675,2.381,2.675c0.448,0,1.008-0.14,1.414-0.406l0.099,1.177c-0.546,0.252-1.177,0.294-1.653,0.294
			c-2.156,0-3.642-1.694-3.642-3.739c0-2.172,1.457-3.74,3.642-3.74c0.533,0,1.219,0.126,1.598,0.28L73.586,38.735z"/>
		<path style="fill:#114B8A;" d="M78.429,37.362c2.171,0,3.628,1.568,3.628,3.74c0,2.045-1.484,3.739-3.628,3.739
			c-2.157,0-3.642-1.694-3.642-3.739C74.787,38.931,76.243,37.362,78.429,37.362z M78.429,43.777c1.541,0,2.228-1.4,2.228-2.675
			c0-1.359-0.826-2.676-2.228-2.676c-1.414,0-2.241,1.316-2.241,2.676C76.188,42.377,76.874,43.777,78.429,43.777z"/>
		<path style="fill:#114B8A;" d="M83.817,37.53h1.274v1.135h0.027c0.393-0.812,1.345-1.303,2.34-1.303
			c1.849,0,2.676,1.148,2.676,3.067v4.244h-1.317v-3.697c0-1.667-0.364-2.479-1.513-2.55c-1.499,0-2.171,1.205-2.171,2.941v3.306
			h-1.316V37.53z"/>
		<path style="fill:#114B8A;" d="M96.167,38.595h-1.892v3.908c0,0.826,0.505,1.274,1.106,1.274c0.406,0,0.701-0.126,0.896-0.252
			v1.121c-0.294,0.084-0.7,0.195-1.12,0.195c-1.358,0-2.199-0.644-2.199-2.072v-4.175h-1.611V37.53h1.611v-1.653l1.316-0.42v2.073
			h1.892V38.595z"/>
		<path style="fill:#114B8A;" d="M97.817,37.53h1.232v1.106h0.027c0.351-0.742,1.107-1.274,1.863-1.274
			c0.393,0,0.589,0.042,0.868,0.098v1.177c-0.237-0.098-0.504-0.126-0.728-0.126c-1.177,0-1.947,1.121-1.947,2.914v3.249h-1.316
			V37.53z"/>
		<path style="fill:#114B8A;" d="M106.429,37.362c2.171,0,3.628,1.568,3.628,3.74c0,2.045-1.484,3.739-3.628,3.739
			c-2.157,0-3.642-1.694-3.642-3.739C102.787,38.931,104.244,37.362,106.429,37.362z M106.429,43.777c1.541,0,2.228-1.4,2.228-2.675
			c0-1.359-0.826-2.676-2.228-2.676c-1.415,0-2.241,1.316-2.241,2.676C104.188,42.377,104.874,43.777,106.429,43.777z"/>
		<path style="fill:#114B8A;" d="M111.985,34.168h1.316v10.506h-1.316V34.168z"/>
		<path style="fill:#114B8A;" d="M115.877,34.168h1.316v10.506h-1.316V34.168z"/>
		<path style="fill:#114B8A;" d="M125.077,44.38c-0.504,0.183-1.079,0.462-2.255,0.462c-2.536,0-3.698-1.54-3.698-3.865
			c0-2.115,1.33-3.614,3.348-3.614c2.381,0,3.151,1.736,3.151,4.034h-5.099c0,1.415,1.106,2.381,2.354,2.381
			c0.868,0,1.877-0.448,2.199-0.714V44.38z M124.223,40.416c0-1.093-0.645-1.989-1.779-1.989c-1.288,0-1.82,1.064-1.919,1.989
			H124.223z"/>
		<path style="fill:#114B8A;" d="M132.441,43.666h-0.028c-0.351,0.532-1.163,1.176-2.438,1.176c-2.157,0-3.067-1.919-3.067-3.865
			c0-1.92,1.009-3.614,3.081-3.614c1.247,0,1.962,0.49,2.368,1.148h0.027v-4.343h1.317v10.506h-1.261V43.666z M130.284,43.777
			c1.484,0,2.101-1.471,2.101-2.661c0-1.331-0.687-2.689-2.115-2.689s-1.989,1.345-1.961,2.647
			C128.28,42.194,128.869,43.777,130.284,43.777z"/>
		<path style="fill:#114B8A;" d="M3.754,54.362c2.171,0,3.628,1.568,3.628,3.74c0,2.045-1.484,3.739-3.628,3.739
			c-2.157,0-3.642-1.694-3.642-3.739C0.112,55.931,1.569,54.362,3.754,54.362z M3.754,60.777c1.541,0,2.228-1.4,2.228-2.675
			c0-1.359-0.826-2.676-2.228-2.676c-1.415,0-2.241,1.316-2.241,2.676C1.513,59.377,2.199,60.777,3.754,60.777z"/>
		<path style="fill:#114B8A;" d="M9.142,54.53h1.275v1.135h0.027c0.393-0.812,1.346-1.303,2.34-1.303
			c1.849,0,2.676,1.148,2.676,3.067v4.244h-1.317v-3.697c0-1.667-0.364-2.479-1.513-2.55c-1.498,0-2.171,1.205-2.171,2.941v3.306
			H9.142V54.53z"/>
		<path style="fill:#114B8A;" d="M21.924,55.034c0.659-0.392,1.442-0.672,2.354-0.672c2.045,0,2.872,1.009,2.872,2.955v2.956
			c0,0.812,0.027,1.19,0.056,1.4h-1.233V60.75h-0.027c-0.309,0.434-1.009,1.092-2.213,1.092c-1.541,0-2.619-0.672-2.619-2.227
			c0-1.793,1.961-2.354,3.319-2.354c0.519,0,0.882,0,1.4,0.028c0-1.233-0.448-1.863-1.765-1.863c-0.742,0-1.541,0.28-2.073,0.729
			L21.924,55.034z M25.832,58.271c-0.28,0-0.56-0.028-0.841-0.028c-0.714,0-2.479,0.112-2.479,1.373c0,0.756,0.729,1.162,1.33,1.162
			c1.303,0,1.989-0.812,1.989-1.877V58.271z"/>
		<path style="fill:#114B8A;" d="M29.372,54.53h1.275v1.135h0.027c0.393-0.812,1.345-1.303,2.34-1.303
			c1.849,0,2.675,1.148,2.675,3.067v4.244h-1.317v-3.697c0-1.667-0.363-2.479-1.512-2.55c-1.499,0-2.172,1.205-2.172,2.941v3.306
			h-1.316V54.53z"/>
		<path style="fill:#114B8A;" d="M41.944,51.896h1.4v9.777h-1.4V51.896z"/>
		<path style="fill:#114B8A;" d="M52.588,53.508c-0.616-0.364-1.303-0.547-2.017-0.547c-2.256,0-3.755,1.625-3.755,3.824
			c0,2.298,1.653,3.824,3.685,3.824c0.7,0,1.639-0.182,2.129-0.477l0.084,1.359c-0.742,0.308-1.652,0.35-2.228,0.35
			c-3.096,0-5.155-1.988-5.155-5.099c0-3.012,2.186-5.015,5.17-5.015c0.756,0,1.498,0.112,2.199,0.421L52.588,53.508z"/>
		<path style="fill:#114B8A;" d="M58.83,53.367c-0.714-0.279-1.106-0.406-1.835-0.406c-0.784,0-1.709,0.28-1.709,1.303
			c0,1.877,4.202,1.443,4.202,4.665c0,2.087-1.61,2.913-3.571,2.913c-0.688,0-1.359-0.195-2.004-0.406l0.141-1.303
			c0.477,0.196,1.316,0.477,2.031,0.477c0.799,0,1.919-0.448,1.919-1.597c0-2.186-4.202-1.583-4.202-4.622
			c0-1.737,1.373-2.662,3.137-2.662c0.645,0,1.416,0.112,2.088,0.351L58.83,53.367z"/>
		<path style="fill:#114B8A;" d="M68.321,54.362c2.172,0,3.628,1.568,3.628,3.74c0,2.045-1.484,3.739-3.628,3.739
			c-2.157,0-3.642-1.694-3.642-3.739C64.68,55.931,66.136,54.362,68.321,54.362z M68.321,60.777c1.541,0,2.228-1.4,2.228-2.675
			c0-1.359-0.827-2.676-2.228-2.676c-1.414,0-2.241,1.316-2.241,2.676C66.08,59.377,66.767,60.777,68.321,60.777z"/>
		<path style="fill:#114B8A;" d="M73.71,54.53h1.232v1.106h0.027c0.351-0.742,1.107-1.274,1.863-1.274
			c0.393,0,0.588,0.042,0.869,0.098v1.177c-0.238-0.098-0.505-0.126-0.729-0.126c-1.178,0-1.947,1.121-1.947,2.914v3.249H73.71
			V54.53z"/>
		<path style="fill:#114B8A;" d="M91.13,61.674h-1.527l-1.849-5.995h-0.028l-1.807,5.995h-1.527l-2.297-7.144h1.443l1.639,5.911
			h0.027l1.821-5.911h1.555l1.793,5.911h0.028l1.737-5.911h1.288L91.13,61.674z"/>
		<path style="fill:#114B8A;" d="M94.71,51.168h1.316v4.385h0.027c0.477-0.757,1.303-1.19,2.298-1.19
			c1.849,0,2.676,1.148,2.676,3.067v4.244H99.71v-3.697c0-1.667-0.364-2.479-1.513-2.55c-1.499,0-2.171,1.205-2.171,2.941v3.306
			H94.71V51.168z"/>
		<path style="fill:#114B8A;" d="M106.429,54.362c2.171,0,3.628,1.568,3.628,3.74c0,2.045-1.484,3.739-3.628,3.739
			c-2.157,0-3.642-1.694-3.642-3.739C102.787,55.931,104.244,54.362,106.429,54.362z M106.429,60.777c1.541,0,2.228-1.4,2.228-2.675
			c0-1.359-0.826-2.676-2.228-2.676c-1.415,0-2.241,1.316-2.241,2.676C104.188,59.377,104.874,60.777,106.429,60.777z"/>
		<path style="fill:#114B8A;" d="M111.284,60.273c0.519,0.336,1.261,0.504,1.64,0.504c0.602,0,1.345-0.252,1.345-1.022
			c0-1.303-3.096-1.19-3.096-3.193c0-1.485,1.106-2.199,2.521-2.199c0.616,0,1.12,0.126,1.639,0.28l-0.112,1.148
			c-0.294-0.183-1.078-0.364-1.387-0.364c-0.673,0-1.261,0.28-1.261,0.868c0,1.457,3.096,1.037,3.096,3.32
			c0,1.526-1.219,2.227-2.493,2.227c-0.673,0-1.358-0.069-1.961-0.392L111.284,60.273z"/>
		<path style="fill:#114B8A;" d="M122.74,61.38c-0.504,0.183-1.079,0.462-2.255,0.462c-2.536,0-3.698-1.54-3.698-3.865
			c0-2.115,1.33-3.614,3.348-3.614c2.381,0,3.151,1.736,3.151,4.034h-5.099c0,1.415,1.106,2.381,2.354,2.381
			c0.868,0,1.877-0.448,2.199-0.714V61.38z M121.886,57.416c0-1.093-0.645-1.989-1.779-1.989c-1.288,0-1.82,1.064-1.919,1.989
			H121.886z"/>
		<path style="fill:#114B8A;" d="M5.646,77.666H5.617c-0.351,0.532-1.163,1.176-2.438,1.176c-2.157,0-3.067-1.919-3.067-3.865
			c0-1.92,1.008-3.614,3.082-3.614c1.246,0,1.961,0.49,2.367,1.148h0.027v-4.343h1.316v10.506h-1.26V77.666z M3.487,77.777
			c1.485,0,2.102-1.471,2.102-2.661c0-1.331-0.686-2.689-2.115-2.689c-1.429,0-1.988,1.345-1.961,2.647
			C1.485,76.194,2.073,77.777,3.487,77.777z"/>
		<path style="fill:#114B8A;" d="M10.711,69.934H9.226v-1.485h1.485V69.934z M9.31,71.53h1.317v7.144H9.31V71.53z"/>
		<path style="fill:#114B8A;" d="M12.502,77.273c0.519,0.336,1.261,0.504,1.639,0.504c0.603,0,1.345-0.252,1.345-1.022
			c0-1.303-3.096-1.19-3.096-3.193c0-1.485,1.107-2.199,2.521-2.199c0.616,0,1.121,0.126,1.639,0.28l-0.111,1.148
			c-0.295-0.183-1.079-0.364-1.387-0.364c-0.673,0-1.262,0.28-1.262,0.868c0,1.457,3.096,1.037,3.096,3.32
			c0,1.526-1.219,2.227-2.492,2.227c-0.673,0-1.359-0.069-1.962-0.392L12.502,77.273z"/>
		<path style="fill:#114B8A;" d="M23.957,78.38c-0.505,0.183-1.079,0.462-2.255,0.462c-2.535,0-3.698-1.54-3.698-3.865
			c0-2.115,1.331-3.614,3.348-3.614c2.382,0,3.151,1.736,3.151,4.034h-5.099c0,1.415,1.106,2.381,2.354,2.381
			c0.868,0,1.877-0.448,2.199-0.714V78.38z M23.103,74.416c0-1.093-0.645-1.989-1.779-1.989c-1.289,0-1.82,1.064-1.919,1.989H23.103
			z"/>
		<path style="fill:#114B8A;" d="M26.601,72.034c0.658-0.392,1.442-0.672,2.354-0.672c2.045,0,2.871,1.009,2.871,2.955v2.956
			c0,0.812,0.027,1.19,0.057,1.4h-1.233V77.75H30.62c-0.308,0.434-1.008,1.092-2.213,1.092c-1.541,0-2.619-0.672-2.619-2.227
			c0-1.793,1.961-2.354,3.32-2.354c0.518,0,0.882,0,1.4,0.028c0-1.233-0.449-1.863-1.766-1.863c-0.742,0-1.541,0.28-2.072,0.729
			L26.601,72.034z M30.509,75.271c-0.28,0-0.561-0.028-0.841-0.028c-0.714,0-2.479,0.112-2.479,1.373
			c0,0.756,0.729,1.162,1.331,1.162c1.303,0,1.989-0.812,1.989-1.877V75.271z"/>
		<path style="fill:#114B8A;" d="M33.517,77.273c0.518,0.336,1.26,0.504,1.639,0.504c0.602,0,1.344-0.252,1.344-1.022
			c0-1.303-3.096-1.19-3.096-3.193c0-1.485,1.107-2.199,2.521-2.199c0.617,0,1.121,0.126,1.64,0.28l-0.112,1.148
			c-0.294-0.183-1.078-0.364-1.387-0.364c-0.672,0-1.261,0.28-1.261,0.868c0,1.457,3.096,1.037,3.096,3.32
			c0,1.526-1.219,2.227-2.493,2.227c-0.672,0-1.359-0.069-1.961-0.392L33.517,77.273z"/>
		<path style="fill:#114B8A;" d="M44.972,78.38c-0.505,0.183-1.079,0.462-2.256,0.462c-2.535,0-3.697-1.54-3.697-3.865
			c0-2.115,1.33-3.614,3.348-3.614c2.381,0,3.151,1.736,3.151,4.034h-5.099c0,1.415,1.106,2.381,2.354,2.381
			c0.868,0,1.877-0.448,2.199-0.714V78.38z M44.116,74.416c0-1.093-0.645-1.989-1.778-1.989c-1.289,0-1.821,1.064-1.919,1.989
			H44.116z"/>
		<path style="fill:#114B8A;" d="M50.638,77.273c0.519,0.336,1.262,0.504,1.639,0.504c0.604,0,1.346-0.252,1.346-1.022
			c0-1.303-3.096-1.19-3.096-3.193c0-1.485,1.106-2.199,2.521-2.199c0.615,0,1.12,0.126,1.639,0.28l-0.112,1.148
			c-0.294-0.183-1.079-0.364-1.387-0.364c-0.673,0-1.261,0.28-1.261,0.868c0,1.457,3.096,1.037,3.096,3.32
			c0,1.526-1.219,2.227-2.493,2.227c-0.673,0-1.358-0.069-1.962-0.392L50.638,77.273z"/>
		<path style="fill:#114B8A;" d="M62.093,78.38c-0.504,0.183-1.078,0.462-2.255,0.462c-2.535,0-3.698-1.54-3.698-3.865
			c0-2.115,1.331-3.614,3.348-3.614c2.382,0,3.152,1.736,3.152,4.034h-5.1c0,1.415,1.107,2.381,2.354,2.381
			c0.869,0,1.877-0.448,2.199-0.714V78.38z M61.239,74.416c0-1.093-0.645-1.989-1.779-1.989c-1.289,0-1.821,1.064-1.92,1.989H61.239
			z"/>
		<path style="fill:#114B8A;" d="M67.565,78.674h-1.568l-2.562-7.144h1.441l1.934,5.827h0.028l1.976-5.827h1.316L67.565,78.674z"/>
		<path style="fill:#114B8A;" d="M76.878,78.38c-0.505,0.183-1.079,0.462-2.256,0.462c-2.535,0-3.697-1.54-3.697-3.865
			c0-2.115,1.33-3.614,3.348-3.614c2.381,0,3.151,1.736,3.151,4.034h-5.099c0,1.415,1.106,2.381,2.354,2.381
			c0.868,0,1.877-0.448,2.199-0.714V78.38z M76.022,74.416c0-1.093-0.645-1.989-1.778-1.989c-1.289,0-1.821,1.064-1.919,1.989
			H76.022z"/>
		<path style="fill:#114B8A;" d="M79.185,71.53h1.232v1.106h0.027c0.351-0.742,1.107-1.274,1.863-1.274
			c0.393,0,0.589,0.042,0.868,0.098v1.177c-0.237-0.098-0.504-0.126-0.728-0.126c-1.177,0-1.947,1.121-1.947,2.914v3.249h-1.316
			V71.53z"/>
		<path style="fill:#114B8A;" d="M86.199,69.934h-1.484v-1.485h1.484V69.934z M84.799,71.53h1.316v7.144h-1.316V71.53z"/>
		<path style="fill:#114B8A;" d="M92.318,72.595h-1.892v3.908c0,0.826,0.505,1.274,1.106,1.274c0.406,0,0.701-0.126,0.896-0.252
			v1.121c-0.294,0.084-0.7,0.195-1.12,0.195c-1.358,0-2.199-0.644-2.199-2.072v-4.175h-1.611V71.53h1.611v-1.653l1.316-0.42v2.073
			h1.892V72.595z"/>
		<path style="fill:#114B8A;" d="M93.436,80.607c0.169,0.056,0.393,0.111,0.617,0.111c1.176,0,1.568-1.624,1.568-1.765
			c0-0.154-0.168-0.519-0.252-0.756l-2.424-6.668h1.443l1.919,5.911h0.028l1.961-5.911h1.33l-2.633,7.298
			c-0.49,1.373-1.009,2.956-2.746,2.956c-0.42,0-0.658-0.057-0.896-0.099L93.436,80.607z"/>
		<path style="fill:#114B8A;" d="M5.127,89.735c-0.505-0.211-1.009-0.309-1.429-0.309c-1.471,0-2.297,1.316-2.297,2.676
			c0,1.274,0.686,2.675,2.381,2.675c0.448,0,1.008-0.14,1.414-0.406l0.099,1.177c-0.546,0.252-1.177,0.294-1.653,0.294
			C1.485,95.842,0,94.147,0,92.103c0-2.172,1.457-3.74,3.642-3.74c0.533,0,1.219,0.126,1.598,0.28L5.127,89.735z"/>
		<path style="fill:#114B8A;" d="M6.972,85.168h1.317v10.506H6.972V85.168z"/>
		<path style="fill:#114B8A;" d="M16.173,95.38c-0.504,0.183-1.078,0.462-2.255,0.462c-2.535,0-3.698-1.54-3.698-3.865
			c0-2.115,1.331-3.614,3.348-3.614c2.382,0,3.152,1.736,3.152,4.034h-5.1c0,1.415,1.107,2.381,2.354,2.381
			c0.869,0,1.877-0.448,2.199-0.714V95.38z M15.319,91.416c0-1.093-0.645-1.989-1.779-1.989c-1.289,0-1.821,1.064-1.92,1.989H15.319
			z"/>
		<path style="fill:#114B8A;" d="M18.816,89.034c0.659-0.392,1.442-0.672,2.354-0.672c2.045,0,2.872,1.009,2.872,2.955v2.956
			c0,0.812,0.027,1.19,0.056,1.4h-1.233V94.75h-0.027c-0.309,0.434-1.009,1.092-2.213,1.092c-1.541,0-2.619-0.672-2.619-2.227
			c0-1.793,1.961-2.354,3.319-2.354c0.519,0,0.882,0,1.4,0.028c0-1.233-0.448-1.863-1.765-1.863c-0.742,0-1.541,0.28-2.073,0.729
			L18.816,89.034z M22.725,92.271c-0.28,0-0.56-0.028-0.841-0.028c-0.714,0-2.479,0.112-2.479,1.373c0,0.756,0.729,1.162,1.33,1.162
			c1.303,0,1.989-0.812,1.989-1.877V92.271z"/>
		<path style="fill:#114B8A;" d="M26.265,88.53h1.232v1.106h0.028c0.351-0.742,1.106-1.274,1.862-1.274
			c0.393,0,0.589,0.042,0.869,0.098v1.177c-0.238-0.098-0.504-0.126-0.729-0.126c-1.177,0-1.947,1.121-1.947,2.914v3.249h-1.316
			V88.53z"/>
		<path style="fill:#114B8A;" d="M31.878,85.168h1.317v10.506h-1.317V85.168z"/>
		<path style="fill:#114B8A;" d="M35.07,97.607c0.168,0.056,0.392,0.111,0.616,0.111c1.177,0,1.568-1.624,1.568-1.765
			c0-0.154-0.168-0.519-0.252-0.756L34.58,88.53h1.442l1.92,5.911h0.027l1.961-5.911h1.331l-2.634,7.298
			c-0.49,1.373-1.008,2.956-2.745,2.956c-0.421,0-0.659-0.057-0.896-0.099L35.07,97.607z"/>
		<path style="fill:#114B8A;" d="M54.577,95.674H53.05l-1.849-5.995h-0.028l-1.807,5.995h-1.527l-2.297-7.144h1.443l1.639,5.911
			h0.027l1.821-5.911h1.556l1.793,5.911h0.027l1.736-5.911h1.289L54.577,95.674z"/>
		<path style="fill:#114B8A;" d="M58.493,89.034c0.658-0.392,1.442-0.672,2.354-0.672c2.045,0,2.871,1.009,2.871,2.955v2.956
			c0,0.812,0.027,1.19,0.057,1.4h-1.233V94.75h-0.028c-0.308,0.434-1.008,1.092-2.213,1.092c-1.541,0-2.619-0.672-2.619-2.227
			c0-1.793,1.961-2.354,3.32-2.354c0.518,0,0.882,0,1.4,0.028c0-1.233-0.449-1.863-1.766-1.863c-0.742,0-1.541,0.28-2.072,0.729
			L58.493,89.034z M62.401,92.271c-0.28,0-0.561-0.028-0.841-0.028c-0.714,0-2.479,0.112-2.479,1.373
			c0,0.756,0.729,1.162,1.331,1.162c1.303,0,1.989-0.812,1.989-1.877V92.271z"/>
		<path style="fill:#114B8A;" d="M65.94,88.53h1.233v1.106h0.028c0.35-0.742,1.105-1.274,1.862-1.274
			c0.393,0,0.589,0.042,0.868,0.098v1.177c-0.238-0.098-0.504-0.126-0.729-0.126c-1.176,0-1.946,1.121-1.946,2.914v3.249H65.94
			V88.53z"/>
		<path style="fill:#114B8A;" d="M71.387,88.53h1.232v1.106h0.028c0.35-0.742,1.106-1.274,1.863-1.274
			c0.393,0,0.588,0.042,0.868,0.098v1.177c-0.238-0.098-0.505-0.126-0.729-0.126c-1.177,0-1.946,1.121-1.946,2.914v3.249h-1.317
			V88.53z"/>
		<path style="fill:#114B8A;" d="M77.169,89.034c0.658-0.392,1.442-0.672,2.354-0.672c2.045,0,2.871,1.009,2.871,2.955v2.956
			c0,0.812,0.028,1.19,0.056,1.4h-1.232V94.75h-0.028c-0.308,0.434-1.008,1.092-2.213,1.092c-1.541,0-2.619-0.672-2.619-2.227
			c0-1.793,1.961-2.354,3.319-2.354c0.519,0,0.883,0,1.401,0.028c0-1.233-0.448-1.863-1.766-1.863c-0.742,0-1.541,0.28-2.072,0.729
			L77.169,89.034z M81.077,92.271c-0.28,0-0.561-0.028-0.841-0.028c-0.714,0-2.479,0.112-2.479,1.373
			c0,0.756,0.729,1.162,1.331,1.162c1.303,0,1.989-0.812,1.989-1.877V92.271z"/>
		<path style="fill:#114B8A;" d="M84.616,88.53h1.275v1.135h0.027c0.393-0.812,1.345-1.303,2.34-1.303
			c1.849,0,2.676,1.148,2.676,3.067v4.244h-1.317v-3.697c0-1.667-0.364-2.479-1.513-2.55c-1.499,0-2.171,1.205-2.171,2.941v3.306
			h-1.317V88.53z"/>
		<path style="fill:#114B8A;" d="M96.967,89.595h-1.892v3.908c0,0.826,0.505,1.274,1.106,1.274c0.406,0,0.701-0.126,0.896-0.252
			v1.121c-0.294,0.084-0.7,0.195-1.12,0.195c-1.358,0-2.199-0.644-2.199-2.072v-4.175h-1.611V88.53h1.611v-1.653l1.316-0.42v2.073
			h1.892V89.595z"/>
		<path style="fill:#114B8A;" d="M98.084,94.273c0.519,0.336,1.261,0.504,1.64,0.504c0.602,0,1.345-0.252,1.345-1.022
			c0-1.303-3.096-1.19-3.096-3.193c0-1.485,1.106-2.199,2.521-2.199c0.616,0,1.12,0.126,1.639,0.28l-0.112,1.148
			c-0.294-0.183-1.078-0.364-1.387-0.364c-0.672,0-1.261,0.28-1.261,0.868c0,1.457,3.096,1.037,3.096,3.32
			c0,1.526-1.219,2.227-2.493,2.227c-0.673,0-1.359-0.069-1.961-0.392L98.084,94.273z"/>
		<path style="fill:#114B8A;" d="M108.291,89.034c0.658-0.392,1.442-0.672,2.353-0.672c2.046,0,2.872,1.009,2.872,2.955v2.956
			c0,0.812,0.028,1.19,0.056,1.4h-1.232V94.75h-0.028c-0.308,0.434-1.008,1.092-2.213,1.092c-1.541,0-2.619-0.672-2.619-2.227
			c0-1.793,1.961-2.354,3.319-2.354c0.519,0,0.883,0,1.401,0.028c0-1.233-0.448-1.863-1.766-1.863c-0.742,0-1.54,0.28-2.073,0.729
			L108.291,89.034z M112.199,92.271c-0.28,0-0.561-0.028-0.841-0.028c-0.715,0-2.479,0.112-2.479,1.373
			c0,0.756,0.729,1.162,1.331,1.162c1.303,0,1.989-0.812,1.989-1.877V92.271z"/>
		<path style="fill:#114B8A;" d="M115.739,88.53h1.274v1.135h0.027c0.393-0.812,1.345-1.303,2.34-1.303
			c1.849,0,2.676,1.148,2.676,3.067v4.244h-1.317v-3.697c0-1.667-0.364-2.479-1.513-2.55c-1.499,0-2.171,1.205-2.171,2.941v3.306
			h-1.316V88.53z"/>
		<path style="fill:#114B8A;" d="M0.714,102.896h1.401v9.777H0.714V102.896z"/>
		<path style="fill:#114B8A;" d="M11.358,104.508c-0.617-0.364-1.303-0.547-2.018-0.547c-2.255,0-3.754,1.625-3.754,3.824
			c0,2.298,1.652,3.824,3.684,3.824c0.701,0,1.64-0.182,2.13-0.477l0.084,1.359c-0.743,0.308-1.653,0.35-2.228,0.35
			c-3.096,0-5.154-1.988-5.154-5.099c0-3.012,2.186-5.015,5.168-5.015c0.757,0,1.5,0.112,2.199,0.421L11.358,104.508z"/>
		<path style="fill:#114B8A;" d="M17.601,104.367c-0.715-0.279-1.106-0.406-1.835-0.406c-0.784,0-1.709,0.28-1.709,1.303
			c0,1.877,4.202,1.443,4.202,4.665c0,2.087-1.611,2.913-3.572,2.913c-0.686,0-1.358-0.195-2.002-0.406l0.14-1.303
			c0.476,0.196,1.316,0.477,2.03,0.477c0.799,0,1.92-0.448,1.92-1.597c0-2.186-4.203-1.583-4.203-4.622
			c0-1.737,1.373-2.662,3.139-2.662c0.645,0,1.414,0.112,2.087,0.351L17.601,104.367z"/>
		<path style="fill:#114B8A;" d="M21.925,102.729h1.232l-3.361,10.113h-1.232L21.925,102.729z"/>
		<path style="fill:#114B8A;" d="M24.038,102.896h1.4v8.545h4.091v1.232h-5.491V102.896z"/>
		<path style="fill:#114B8A;" d="M34.147,102.896h1.471l4.133,9.777h-1.527l-0.994-2.465h-4.791l-0.994,2.465h-1.471L34.147,102.896
			z M34.835,104.214l-1.947,4.847h3.894L34.835,104.214z"/>
		<path style="fill:#114B8A;" d="M41.076,102.896h2.647c2.031,0,3.432,0.658,3.432,2.466c0,1.345-0.784,2.017-2.018,2.325v0.028
			c1.332,0.111,2.27,0.98,2.27,2.353c0,2.102-1.736,2.605-3.726,2.605h-2.605V102.896z M42.478,107.071h0.77
			c1.359,0,2.508-0.126,2.508-1.569c0-1.162-0.994-1.456-1.807-1.456h-1.471V107.071z M42.478,111.525h1.05
			c1.261,0,2.396-0.266,2.396-1.583c0-1.513-1.33-1.723-2.535-1.723h-0.91V111.525z"/>
		<path style="fill:#114B8A;" d="M52.81,102.896h1.471l4.133,9.777h-1.527l-0.994-2.465h-4.791l-0.994,2.465h-1.471L52.81,102.896z
			 M53.496,104.214l-1.947,4.847h3.894L53.496,104.214z"/>
		<path style="fill:#114B8A;" d="M0.63,136.896h2.648c2.031,0,3.432,0.658,3.432,2.466c0,1.345-0.785,2.017-2.018,2.325v0.028
			c1.331,0.111,2.27,0.98,2.27,2.353c0,2.102-1.736,2.605-3.727,2.605H0.63V136.896z M2.031,141.071h0.771
			c1.358,0,2.508-0.126,2.508-1.569c0-1.162-0.995-1.456-1.808-1.456H2.031V141.071z M2.031,145.525h1.05
			c1.262,0,2.396-0.266,2.396-1.583c0-1.513-1.331-1.723-2.536-1.723h-0.91V145.525z"/>
		<path style="fill:#114B8A;" d="M9.185,136.896h2.395c1.934,0,3.797,0.309,3.797,2.647c0,1.191-0.883,2.031-2.018,2.228v0.028
			c0.434,0.168,0.645,0.378,0.953,0.98l1.848,3.894h-1.596l-1.499-3.39c-0.435-0.952-0.896-0.952-1.64-0.952h-0.84v4.342h-1.4
			V136.896z M10.585,141.099h1.19c1.331,0,2.115-0.588,2.115-1.526c0-0.883-0.673-1.442-1.961-1.442h-1.345V141.099z"/>
		<path style="fill:#114B8A;" d="M17.892,136.896h5.477v1.233h-4.076v2.857h3.713v1.232h-3.713v3.222h4.076v1.232h-5.477V136.896z"
			/>
		<path style="fill:#114B8A;" d="M29.808,136.729c2.971,0,4.707,2.157,4.707,5.057c0,2.97-1.723,5.057-4.707,5.057
			c-2.982,0-4.706-2.087-4.706-5.057C25.102,138.886,26.839,136.729,29.808,136.729z M29.808,145.609
			c2.256,0,3.223-1.877,3.223-3.824c0-1.989-1.064-3.838-3.223-3.824c-2.156-0.014-3.221,1.835-3.221,3.824
			C26.587,143.732,27.554,145.609,29.808,145.609z"/>
		<path style="fill:#114B8A;" d="M41.833,137.934h-1.484v-1.485h1.484V137.934z M40.433,139.53h1.316v7.144h-1.316V139.53z"/>
		<path style="fill:#114B8A;" d="M43.624,145.273c0.518,0.336,1.261,0.504,1.639,0.504c0.603,0,1.345-0.252,1.345-1.022
			c0-1.303-3.096-1.19-3.096-3.193c0-1.485,1.106-2.199,2.521-2.199c0.616,0,1.12,0.126,1.64,0.28l-0.113,1.148
			c-0.293-0.183-1.078-0.364-1.387-0.364c-0.672,0-1.26,0.28-1.26,0.868c0,1.457,3.096,1.037,3.096,3.32
			c0,1.526-1.219,2.227-2.494,2.227c-0.672,0-1.358-0.069-1.961-0.392L43.624,145.273z"/>
		<path style="fill:#114B8A;" d="M53.606,136.896h1.904l4.314,7.873h0.028v-7.873h1.401v9.777h-1.793l-4.427-8.04h-0.028v8.04h-1.4
			V136.896z"/>
		<path style="fill:#114B8A;" d="M67.931,136.729c2.969,0,4.706,2.157,4.706,5.057c0,2.97-1.723,5.057-4.706,5.057
			c-2.984,0-4.707-2.087-4.707-5.057C63.224,138.886,64.961,136.729,67.931,136.729z M67.931,145.609
			c2.255,0,3.222-1.877,3.222-3.824c0-1.989-1.065-3.838-3.222-3.824c-2.157-0.014-3.223,1.835-3.223,3.824
			C64.708,143.732,65.675,145.609,67.931,145.609z"/>
		<path style="fill:#114B8A;" d="M76.567,138.13h-3.039v-1.233h7.479v1.233h-3.04v8.544h-1.4V138.13z"/>
		<path style="fill:#114B8A;" d="M2.157,154.934H0.673v-1.485h1.484V154.934z M0.757,156.53h1.316v7.144H0.757V156.53z"/>
		<path style="fill:#114B8A;" d="M4.48,156.53h1.274v1.135h0.028c0.392-0.812,1.345-1.303,2.339-1.303
			c1.85,0,2.676,1.148,2.676,3.067v4.244H9.481v-3.697c0-1.667-0.364-2.479-1.514-2.55c-1.498,0-2.17,1.205-2.17,2.941v3.306H4.48
			V156.53z"/>
		<path style="fill:#114B8A;" d="M18.091,162.666h-0.027c-0.351,0.532-1.163,1.176-2.438,1.176c-2.158,0-3.068-1.919-3.068-3.865
			c0-1.92,1.009-3.614,3.082-3.614c1.246,0,1.961,0.49,2.367,1.148h0.027v-4.343h1.317v10.506h-1.261V162.666z M15.934,162.777
			c1.485,0,2.101-1.471,2.101-2.661c0-1.331-0.686-2.689-2.114-2.689s-1.989,1.345-1.962,2.647
			C13.931,161.194,14.519,162.777,15.934,162.777z"/>
		<path style="fill:#114B8A;" d="M23.157,154.934h-1.485v-1.485h1.485V154.934z M21.756,156.53h1.317v7.144h-1.317V156.53z"/>
		<path style="fill:#114B8A;" d="M30.019,157.735c-0.504-0.211-1.009-0.309-1.429-0.309c-1.472,0-2.298,1.316-2.298,2.676
			c0,1.274,0.688,2.675,2.382,2.675c0.448,0,1.009-0.14,1.415-0.406l0.098,1.177c-0.547,0.252-1.177,0.294-1.652,0.294
			c-2.158,0-3.643-1.694-3.643-3.739c0-2.172,1.457-3.74,3.643-3.74c0.531,0,1.219,0.126,1.596,0.28L30.019,157.735z"/>
		<path style="fill:#114B8A;" d="M32.032,157.034c0.658-0.392,1.442-0.672,2.354-0.672c2.045,0,2.871,1.009,2.871,2.955v2.956
			c0,0.812,0.027,1.19,0.057,1.4H36.08v-0.924h-0.028c-0.308,0.434-1.008,1.092-2.213,1.092c-1.541,0-2.619-0.672-2.619-2.227
			c0-1.793,1.961-2.354,3.32-2.354c0.518,0,0.882,0,1.4,0.028c0-1.233-0.449-1.863-1.766-1.863c-0.742,0-1.541,0.28-2.072,0.729
			L32.032,157.034z M35.94,160.271c-0.28,0-0.561-0.028-0.841-0.028c-0.714,0-2.479,0.112-2.479,1.373
			c0,0.756,0.729,1.162,1.331,1.162c1.303,0,1.989-0.812,1.989-1.877V160.271z"/>
		<path style="fill:#114B8A;" d="M43.276,157.595h-1.892v3.908c0,0.826,0.505,1.274,1.106,1.274c0.406,0,0.701-0.126,0.896-0.252
			v1.121c-0.294,0.084-0.7,0.195-1.12,0.195c-1.358,0-2.199-0.644-2.199-2.072v-4.175h-1.61v-1.064h1.61v-1.653l1.316-0.42v2.073
			h1.892V157.595z"/>
		<path style="fill:#114B8A;" d="M50.403,163.38c-0.505,0.183-1.079,0.462-2.256,0.462c-2.535,0-3.697-1.54-3.697-3.865
			c0-2.115,1.33-3.614,3.348-3.614c2.381,0,3.151,1.736,3.151,4.034h-5.099c0,1.415,1.106,2.381,2.354,2.381
			c0.868,0,1.877-0.448,2.199-0.714V163.38z M49.548,159.416c0-1.093-0.645-1.989-1.778-1.989c-1.289,0-1.821,1.064-1.919,1.989
			H49.548z"/>
		<path style="fill:#114B8A;" d="M57.767,162.666h-0.027c-0.351,0.532-1.163,1.176-2.438,1.176c-2.158,0-3.068-1.919-3.068-3.865
			c0-1.92,1.009-3.614,3.082-3.614c1.246,0,1.961,0.49,2.367,1.148h0.027v-4.343h1.317v10.506h-1.261V162.666z M55.609,162.777
			c1.485,0,2.101-1.471,2.101-2.661c0-1.331-0.686-2.689-2.114-2.689s-1.989,1.345-1.962,2.647
			C53.606,161.194,54.194,162.777,55.609,162.777z"/>
		<path style="fill:#114B8A;" d="M66.011,157.595h-1.682v-1.064h1.682v-0.658c0-1.737,0.447-2.872,2.395-2.872
			c0.336,0,0.617,0.042,0.883,0.084l-0.057,1.065c-0.153-0.057-0.406-0.085-0.63-0.085c-1.135,0-1.274,0.729-1.274,1.695v0.771
			h1.891v1.064h-1.891v6.079h-1.316V157.595z"/>
		<path style="fill:#114B8A;" d="M73.767,156.362c2.172,0,3.629,1.568,3.629,3.74c0,2.045-1.484,3.739-3.629,3.739
			c-2.156,0-3.641-1.694-3.641-3.739C70.126,157.931,71.582,156.362,73.767,156.362z M73.767,162.777c1.541,0,2.229-1.4,2.229-2.675
			c0-1.359-0.827-2.676-2.229-2.676c-1.414,0-2.24,1.316-2.24,2.676C71.526,161.377,72.212,162.777,73.767,162.777z"/>
		<path style="fill:#114B8A;" d="M79.155,156.53h1.233v1.106h0.027c0.351-0.742,1.107-1.274,1.863-1.274
			c0.393,0,0.589,0.042,0.868,0.098v1.177c-0.237-0.098-0.504-0.126-0.728-0.126c-1.177,0-1.947,1.121-1.947,2.914v3.249h-1.317
			V156.53z"/>
		<path style="fill:#114B8A;" d="M92.29,157.595h-1.892v3.908c0,0.826,0.505,1.274,1.106,1.274c0.406,0,0.701-0.126,0.896-0.252
			v1.121c-0.294,0.084-0.7,0.195-1.12,0.195c-1.358,0-2.199-0.644-2.199-2.072v-4.175h-1.611v-1.064h1.611v-1.653l1.316-0.42v2.073
			h1.892V157.595z"/>
		<path style="fill:#114B8A;" d="M93.94,153.168h1.316v4.385h0.027c0.477-0.757,1.303-1.19,2.298-1.19
			c1.849,0,2.676,1.148,2.676,3.067v4.244H98.94v-3.697c0-1.667-0.364-2.479-1.513-2.55c-1.499,0-2.171,1.205-2.171,2.941v3.306
			H93.94V153.168z"/>
		<path style="fill:#114B8A;" d="M107.971,163.38c-0.504,0.183-1.079,0.462-2.255,0.462c-2.536,0-3.698-1.54-3.698-3.865
			c0-2.115,1.33-3.614,3.348-3.614c2.381,0,3.151,1.736,3.151,4.034h-5.099c0,1.415,1.106,2.381,2.354,2.381
			c0.868,0,1.877-0.448,2.199-0.714V163.38z M107.116,159.416c0-1.093-0.645-1.989-1.779-1.989c-1.288,0-1.82,1.064-1.919,1.989
			H107.116z"/>
		<path style="fill:#114B8A;" d="M0.589,173.53h1.232v1.106h0.027c0.351-0.742,1.107-1.274,1.863-1.274
			c0.393,0,0.588,0.042,0.869,0.098v1.177c-0.238-0.098-0.505-0.126-0.729-0.126c-1.178,0-1.947,1.121-1.947,2.914v3.249H0.589
			V173.53z"/>
		<path style="fill:#114B8A;" d="M11.511,180.38c-0.504,0.183-1.078,0.462-2.255,0.462c-2.535,0-3.698-1.54-3.698-3.865
			c0-2.115,1.331-3.614,3.348-3.614c2.382,0,3.152,1.736,3.152,4.034h-5.1c0,1.415,1.107,2.381,2.354,2.381
			c0.869,0,1.877-0.448,2.199-0.714V180.38z M10.657,176.416c0-1.093-0.645-1.989-1.779-1.989c-1.289,0-1.821,1.064-1.92,1.989
			H10.657z"/>
		<path style="fill:#114B8A;" d="M13.986,170.168h1.317v10.506h-1.317V170.168z"/>
		<path style="fill:#114B8A;" d="M19.279,171.934h-1.485v-1.485h1.485V171.934z M17.878,173.53h1.317v7.144h-1.317V173.53z"/>
		<path style="fill:#114B8A;" d="M27.079,180.38c-0.504,0.183-1.078,0.462-2.255,0.462c-2.535,0-3.698-1.54-3.698-3.865
			c0-2.115,1.331-3.614,3.348-3.614c2.382,0,3.152,1.736,3.152,4.034h-5.1c0,1.415,1.107,2.381,2.354,2.381
			c0.869,0,1.877-0.448,2.199-0.714V180.38z M26.226,176.416c0-1.093-0.645-1.989-1.779-1.989c-1.289,0-1.821,1.064-1.92,1.989
			H26.226z"/>
		<path style="fill:#114B8A;" d="M30.241,174.595H28.56v-1.064h1.682v-0.658c0-1.737,0.448-2.872,2.396-2.872
			c0.336,0,0.616,0.042,0.882,0.084l-0.056,1.065c-0.154-0.057-0.406-0.085-0.63-0.085c-1.135,0-1.275,0.729-1.275,1.695v0.771
			h1.891v1.064h-1.891v6.079h-1.316V174.595z"/>
		<path style="fill:#114B8A;" d="M41.89,173.362c2.172,0,3.629,1.568,3.629,3.74c0,2.045-1.484,3.739-3.629,3.739
			c-2.156,0-3.641-1.694-3.641-3.739C38.249,174.931,39.705,173.362,41.89,173.362z M41.89,179.777c1.541,0,2.229-1.4,2.229-2.675
			c0-1.359-0.827-2.676-2.229-2.676c-1.414,0-2.24,1.316-2.24,2.676C39.649,178.377,40.335,179.777,41.89,179.777z"/>
		<path style="fill:#114B8A;" d="M48.133,174.595h-1.681v-1.064h1.681v-0.658c0-1.737,0.448-2.872,2.396-2.872
			c0.336,0,0.616,0.042,0.883,0.084l-0.057,1.065c-0.154-0.057-0.406-0.085-0.631-0.085c-1.135,0-1.273,0.729-1.273,1.695v0.771
			h1.891v1.064H49.45v6.079h-1.317V174.595z"/>
		<path style="fill:#114B8A;" d="M56.952,174.034c0.658-0.392,1.443-0.672,2.354-0.672c2.045,0,2.871,1.009,2.871,2.955v2.956
			c0,0.812,0.028,1.19,0.057,1.4h-1.232v-0.924h-0.028c-0.308,0.434-1.009,1.092-2.214,1.092c-1.54,0-2.619-0.672-2.619-2.227
			c0-1.793,1.961-2.354,3.32-2.354c0.518,0,0.883,0,1.4,0.028c0-1.233-0.448-1.863-1.765-1.863c-0.743,0-1.541,0.28-2.073,0.729
			L56.952,174.034z M60.86,177.271c-0.279,0-0.561-0.028-0.84-0.028c-0.715,0-2.48,0.112-2.48,1.373
			c0,0.756,0.729,1.162,1.332,1.162c1.303,0,1.988-0.812,1.988-1.877V177.271z"/>
		<path style="fill:#114B8A;" d="M68.938,174.735c-0.504-0.211-1.008-0.309-1.428-0.309c-1.472,0-2.298,1.316-2.298,2.676
			c0,1.274,0.687,2.675,2.382,2.675c0.447,0,1.008-0.14,1.414-0.406l0.098,1.177c-0.546,0.252-1.176,0.294-1.652,0.294
			c-2.157,0-3.643-1.694-3.643-3.739c0-2.172,1.457-3.74,3.643-3.74c0.532,0,1.219,0.126,1.597,0.28L68.938,174.735z"/>
		<path style="fill:#114B8A;" d="M76.934,180.674h-1.274v-1.135h-0.028c-0.392,0.812-1.345,1.303-2.339,1.303
			c-1.85,0-2.676-1.148-2.676-3.067v-4.244h1.316v3.698c0,1.667,0.364,2.479,1.514,2.549c1.498,0,2.17-1.204,2.17-2.941v-3.306
			h1.317V180.674z"/>
		<path style="fill:#114B8A;" d="M82.967,174.595h-1.892v3.908c0,0.826,0.505,1.274,1.106,1.274c0.406,0,0.701-0.126,0.896-0.252
			v1.121c-0.294,0.084-0.7,0.195-1.12,0.195c-1.358,0-2.199-0.644-2.199-2.072v-4.175h-1.611v-1.064h1.611v-1.653l1.316-0.42v2.073
			h1.892V174.595z"/>
		<path style="fill:#114B8A;" d="M90.094,180.38c-0.504,0.183-1.079,0.462-2.255,0.462c-2.536,0-3.698-1.54-3.698-3.865
			c0-2.115,1.33-3.614,3.348-3.614c2.381,0,3.151,1.736,3.151,4.034h-5.099c0,1.415,1.106,2.381,2.354,2.381
			c0.868,0,1.877-0.448,2.199-0.714V180.38z M89.239,176.416c0-1.093-0.645-1.989-1.779-1.989c-1.288,0-1.82,1.064-1.919,1.989
			H89.239z"/>
		<path style="fill:#114B8A;" d="M0.589,187.168h1.316v4.343h0.027c0.406-0.658,1.121-1.148,2.367-1.148
			c2.074,0,3.082,1.694,3.082,3.614c0,1.961-0.91,3.865-3.067,3.865c-1.274,0-2.087-0.644-2.438-1.176H1.849v1.008h-1.26V187.168z
			 M4.021,191.427c-1.43,0-2.115,1.358-2.115,2.689c0,1.19,0.616,2.661,2.102,2.661c1.414,0,2.002-1.583,1.975-2.703
			C6.009,192.785,5.449,191.427,4.021,191.427z"/>
		<path style="fill:#114B8A;" d="M9.142,190.53h1.233v1.106h0.028c0.35-0.742,1.105-1.274,1.862-1.274
			c0.393,0,0.589,0.042,0.868,0.098v1.177c-0.238-0.098-0.504-0.126-0.729-0.126c-1.176,0-1.946,1.121-1.946,2.914v3.249H9.142
			V190.53z"/>
		<path style="fill:#114B8A;" d="M17.753,190.362c2.172,0,3.629,1.568,3.629,3.74c0,2.045-1.484,3.739-3.629,3.739
			c-2.156,0-3.641-1.694-3.641-3.739C14.112,191.931,15.568,190.362,17.753,190.362z M17.753,196.777c1.541,0,2.229-1.4,2.229-2.675
			c0-1.359-0.827-2.676-2.229-2.676c-1.414,0-2.24,1.316-2.24,2.676C15.513,195.377,16.198,196.777,17.753,196.777z"/>
		<path style="fill:#114B8A;" d="M23.142,190.53h1.275v1.135h0.027c0.393-0.812,1.345-1.303,2.34-1.303
			c1.849,0,2.675,1.148,2.675,3.067v4.244h-1.317v-3.697c0-1.667-0.363-2.479-1.512-2.55c-1.499,0-2.172,1.205-2.172,2.941v3.306
			h-1.316V190.53z"/>
		<path style="fill:#114B8A;" d="M36.233,191.735c-0.504-0.211-1.008-0.309-1.428-0.309c-1.472,0-2.298,1.316-2.298,2.676
			c0,1.274,0.687,2.675,2.382,2.675c0.447,0,1.008-0.14,1.414-0.406l0.098,1.177c-0.546,0.252-1.176,0.294-1.652,0.294
			c-2.157,0-3.643-1.694-3.643-3.739c0-2.172,1.457-3.74,3.643-3.74c0.532,0,1.219,0.126,1.597,0.28L36.233,191.735z"/>
		<path style="fill:#114B8A;" d="M37.911,187.168h1.316v4.385h0.028c0.476-0.757,1.303-1.19,2.298-1.19
			c1.849,0,2.675,1.148,2.675,3.067v4.244h-1.317v-3.697c0-1.667-0.363-2.479-1.512-2.55c-1.499,0-2.172,1.205-2.172,2.941v3.306
			h-1.316V187.168z"/>
		<path style="fill:#114B8A;" d="M49.63,190.362c2.172,0,3.629,1.568,3.629,3.74c0,2.045-1.484,3.739-3.629,3.739
			c-2.156,0-3.641-1.694-3.641-3.739C45.989,191.931,47.445,190.362,49.63,190.362z M49.63,196.777c1.541,0,2.229-1.4,2.229-2.675
			c0-1.359-0.827-2.676-2.229-2.676c-1.414,0-2.24,1.316-2.24,2.676C47.39,195.377,48.075,196.777,49.63,196.777z"/>
		<path style="fill:#114B8A;" d="M54.486,196.273c0.519,0.336,1.261,0.504,1.639,0.504c0.603,0,1.345-0.252,1.345-1.022
			c0-1.303-3.096-1.19-3.096-3.193c0-1.485,1.107-2.199,2.521-2.199c0.616,0,1.121,0.126,1.639,0.28l-0.111,1.148
			c-0.295-0.183-1.079-0.364-1.387-0.364c-0.673,0-1.262,0.28-1.262,0.868c0,1.457,3.096,1.037,3.096,3.32
			c0,1.526-1.219,2.227-2.492,2.227c-0.673,0-1.359-0.069-1.962-0.392L54.486,196.273z"/>
		<path style="fill:#114B8A;" d="M60.464,190.53h1.262v1.009h0.027c0.35-0.532,1.162-1.177,2.424-1.177
			c2.072,0,3.081,1.694,3.081,3.614c0,1.961-0.91,3.865-3.067,3.865c-1.261,0-1.975-0.49-2.381-1.148h-0.028v3.922h-1.317V190.53z
			 M63.896,191.427c-1.428,0-2.114,1.358-2.114,2.689c0,1.19,0.616,2.661,2.101,2.661c1.415,0,2.004-1.583,1.976-2.703
			C65.886,192.785,65.325,191.427,63.896,191.427z"/>
		<path style="fill:#114B8A;" d="M69.354,191.034c0.658-0.392,1.442-0.672,2.354-0.672c2.045,0,2.871,1.009,2.871,2.955v2.956
			c0,0.812,0.027,1.19,0.057,1.4h-1.233v-0.924h-0.028c-0.308,0.434-1.008,1.092-2.213,1.092c-1.541,0-2.619-0.672-2.619-2.227
			c0-1.793,1.961-2.354,3.32-2.354c0.518,0,0.882,0,1.4,0.028c0-1.233-0.449-1.863-1.766-1.863c-0.742,0-1.541,0.28-2.072,0.729
			L69.354,191.034z M73.263,194.271c-0.28,0-0.561-0.028-0.841-0.028c-0.714,0-2.479,0.112-2.479,1.373
			c0,0.756,0.729,1.162,1.331,1.162c1.303,0,1.989-0.812,1.989-1.877V194.271z"/>
		<path style="fill:#114B8A;" d="M76.271,196.273c0.518,0.336,1.26,0.504,1.639,0.504c0.602,0,1.345-0.252,1.345-1.022
			c0-1.303-3.097-1.19-3.097-3.193c0-1.485,1.107-2.199,2.522-2.199c0.616,0,1.12,0.126,1.639,0.28l-0.112,1.148
			c-0.294-0.183-1.078-0.364-1.387-0.364c-0.672,0-1.261,0.28-1.261,0.868c0,1.457,3.096,1.037,3.096,3.32
			c0,1.526-1.219,2.227-2.493,2.227c-0.672,0-1.359-0.069-1.961-0.392L76.271,196.273z"/>
		<path style="fill:#114B8A;" d="M82.234,190.53h1.232v1.036h0.028c0.504-0.826,1.219-1.204,2.27-1.204
			c0.826,0,1.652,0.42,2.031,1.387c0.49-1.022,1.568-1.387,2.213-1.387c1.821,0,2.479,1.177,2.479,2.731v4.58h-1.317v-4.258
			c0-0.883-0.21-1.989-1.274-1.989c-1.345,0-1.877,1.316-1.877,2.647v3.6h-1.316v-4.258c0-0.883-0.21-1.989-1.274-1.989
			c-1.345,0-1.878,1.316-1.878,2.647v3.6h-1.316V190.53z"/>
	</g>
</g>
<g id="isi">
</g>
<g id="frame">
</g>
</svg>
