<?xml version="1.0" encoding="utf-8"?>
<!-- Generator: Adobe Illustrator 19.1.0, SVG Export Plug-In . SVG Version: 6.00 Build 0)  -->
<!DOCTYPE svg PUBLIC "-//W3C//DTD SVG 1.1//EN" "http://www.w3.org/Graphics/SVG/1.1/DTD/svg11.dtd">
<svg version="1.1" xmlns="http://www.w3.org/2000/svg" xmlns:xlink="http://www.w3.org/1999/xlink" x="0px" y="0px" width="138.5px"
	 height="77.3px" viewBox="0 0 138.5 77.3" style="enable-background:new 0 0 138.5 77.3;" xml:space="preserve">
<style type="text/css">
	.st0{fill:#004B8C;}
	.st1{display:none;fill:none;}
	.st2{opacity:0.6;fill:url(#SVGID_1_);}
	.st3{opacity:0.6;fill:url(#SVGID_2_);}
	.st4{fill:none;}
	.st5{fill:#FFFFFF;}
	.st6{fill:url(#SVGID_3_);}
	.st7{clip-path:url(#SVGID_5_);fill:#FFFFFF;}
	.st8{fill:#002D73;}
	.st9{clip-path:url(#SVGID_6_);fill:#FFFFFF;}
	.st10{clip-path:url(#SVGID_8_);fill:url(#SVGID_9_);}
	.st11{fill:#114B89;}
	.st12{clip-path:url(#SVGID_10_);fill:#FFFFFF;}
	.st13{opacity:0.5;}
	.st14{fill:url(#SVGID_11_);}
	.st15{fill-rule:evenodd;clip-rule:evenodd;fill:url(#SVGID_12_);}
	.st16{fill:url(#SVGID_13_);}
	.st17{fill-rule:evenodd;clip-rule:evenodd;fill:url(#SVGID_14_);}
	.st18{opacity:0.32;}
	.st19{clip-path:url(#SVGID_16_);fill:url(#SVGID_17_);}
	.st20{fill:url(#SVGID_18_);}
	.st21{fill-rule:evenodd;clip-rule:evenodd;fill:url(#SVGID_19_);}
	.st22{clip-path:url(#SVGID_21_);fill:url(#SVGID_22_);}
	.st23{clip-path:url(#SVGID_24_);fill:url(#SVGID_25_);}
	.st24{opacity:0.5;fill:url(#SVGID_26_);}
	.st25{fill:#231F20;}
	.st26{clip-path:url(#SVGID_28_);fill:#231F20;}
	.st27{clip-path:url(#SVGID_28_);fill:#6FA5D9;}
	.st28{clip-path:url(#SVGID_28_);fill:#007AC1;}
	.st29{fill:none;stroke:#58595B;stroke-width:0.1413;}
	.st30{clip-path:url(#SVGID_30_);fill:#F27021;}
	.st31{clip-path:url(#SVGID_32_);}
	.st32{clip-path:url(#SVGID_36_);}
	.st33{clip-path:url(#SVGID_40_);}
	.st34{clip-path:url(#SVGID_44_);}
	.st35{clip-path:url(#SVGID_48_);}
	.st36{clip-path:url(#SVGID_52_);}
	.st37{clip-path:url(#SVGID_56_);}
	.st38{clip-path:url(#SVGID_58_);}
	.st39{clip-path:url(#SVGID_62_);}
	.st40{clip-path:url(#SVGID_64_);}
	.st41{clip-path:url(#SVGID_68_);}
	.st42{clip-path:url(#SVGID_70_);}
	.st43{clip-path:url(#SVGID_74_);}
	.st44{clip-path:url(#SVGID_76_);}
	.st45{clip-path:url(#SVGID_80_);}
	.st46{clip-path:url(#SVGID_84_);}
	.st47{clip-path:url(#SVGID_88_);}
	.st48{clip-path:url(#SVGID_92_);}
	.st49{clip-path:url(#SVGID_96_);}
	.st50{clip-path:url(#SVGID_100_);}
	.st51{clip-path:url(#SVGID_104_);}
	.st52{clip-path:url(#SVGID_108_);}
	.st53{clip-path:url(#SVGID_112_);}
	.st54{clip-path:url(#SVGID_116_);}
	.st55{clip-path:url(#SVGID_120_);}
	.st56{clip-path:url(#SVGID_124_);}
	.st57{clip-path:url(#SVGID_128_);}
	.st58{clip-path:url(#SVGID_132_);}
	.st59{clip-path:url(#SVGID_136_);}
	.st60{clip-path:url(#SVGID_140_);}
	.st61{clip-path:url(#SVGID_144_);}
	.st62{clip-path:url(#SVGID_148_);}
	.st63{clip-path:url(#SVGID_152_);}
	.st64{clip-path:url(#SVGID_156_);}
	.st65{clip-path:url(#SVGID_160_);}
	.st66{clip-path:url(#SVGID_164_);}
	.st67{clip-path:url(#SVGID_168_);}
	.st68{clip-path:url(#SVGID_172_);}
	.st69{clip-path:url(#SVGID_176_);}
	.st70{clip-path:url(#SVGID_180_);}
	.st71{clip-path:url(#SVGID_182_);}
	.st72{clip-path:url(#SVGID_186_);}
	.st73{clip-path:url(#SVGID_190_);}
	.st74{clip-path:url(#SVGID_194_);}
	.st75{clip-path:url(#SVGID_198_);}
	.st76{clip-path:url(#SVGID_202_);}
	.st77{clip-path:url(#SVGID_206_);}
	.st78{clip-path:url(#SVGID_210_);}
	.st79{clip-path:url(#SVGID_214_);}
	.st80{clip-path:url(#SVGID_218_);}
	.st81{clip-path:url(#SVGID_222_);}
	.st82{clip-path:url(#SVGID_224_);}
	.st83{clip-path:url(#SVGID_228_);}
	.st84{clip-path:url(#SVGID_232_);}
	.st85{clip-path:url(#SVGID_236_);}
	.st86{clip-path:url(#SVGID_240_);}
	.st87{clip-path:url(#SVGID_244_);}
	.st88{clip-path:url(#SVGID_248_);}
	.st89{clip-path:url(#SVGID_252_);}
	.st90{clip-path:url(#SVGID_256_);}
	.st91{clip-path:url(#SVGID_260_);}
	.st92{clip-path:url(#SVGID_264_);}
	.st93{clip-path:url(#SVGID_268_);}
	.st94{clip-path:url(#SVGID_272_);}
	.st95{clip-path:url(#SVGID_276_);}
	.st96{clip-path:url(#SVGID_280_);}
	.st97{clip-path:url(#SVGID_284_);}
	.st98{clip-path:url(#SVGID_288_);}
	.st99{clip-path:url(#SVGID_292_);}
	.st100{clip-path:url(#SVGID_296_);}
	.st101{clip-path:url(#SVGID_300_);}
	.st102{clip-path:url(#SVGID_304_);}
	.st103{clip-path:url(#SVGID_308_);}
	.st104{clip-path:url(#SVGID_312_);}
	.st105{clip-path:url(#SVGID_316_);}
	.st106{clip-path:url(#SVGID_320_);}
	.st107{clip-path:url(#SVGID_324_);}
	.st108{clip-path:url(#SVGID_328_);}
	.st109{clip-path:url(#SVGID_332_);}
	.st110{clip-path:url(#SVGID_336_);}
	.st111{clip-path:url(#SVGID_340_);}
	.st112{clip-path:url(#SVGID_344_);}
	.st113{clip-path:url(#SVGID_348_);}
	.st114{clip-path:url(#SVGID_352_);}
	.st115{clip-path:url(#SVGID_356_);}
	.st116{clip-path:url(#SVGID_360_);}
	.st117{clip-path:url(#SVGID_364_);}
	.st118{clip-path:url(#SVGID_368_);}
	.st119{clip-path:url(#SVGID_372_);}
	.st120{clip-path:url(#SVGID_376_);}
	.st121{clip-path:url(#SVGID_380_);}
	.st122{clip-path:url(#SVGID_384_);}
	.st123{clip-path:url(#SVGID_388_);}
	.st124{clip-path:url(#SVGID_392_);}
	.st125{clip-path:url(#SVGID_396_);}
	.st126{clip-path:url(#SVGID_400_);}
	.st127{clip-path:url(#SVGID_404_);}
	.st128{clip-path:url(#SVGID_408_);}
	.st129{clip-path:url(#SVGID_412_);}
	.st130{clip-path:url(#SVGID_416_);}
	.st131{clip-path:url(#SVGID_420_);}
	.st132{clip-path:url(#SVGID_424_);}
	.st133{clip-path:url(#SVGID_428_);}
	.st134{clip-path:url(#SVGID_432_);}
	.st135{clip-path:url(#SVGID_436_);}
	.st136{clip-path:url(#SVGID_440_);}
	.st137{clip-path:url(#SVGID_444_);}
	.st138{clip-path:url(#SVGID_448_);}
	.st139{clip-path:url(#SVGID_452_);}
	.st140{clip-path:url(#SVGID_456_);}
	.st141{clip-path:url(#SVGID_460_);}
	.st142{clip-path:url(#SVGID_464_);}
	.st143{clip-path:url(#SVGID_468_);}
	.st144{clip-path:url(#SVGID_472_);}
	.st145{clip-path:url(#SVGID_476_);}
	.st146{clip-path:url(#SVGID_480_);}
	.st147{clip-path:url(#SVGID_482_);}
	.st148{clip-path:url(#SVGID_486_);}
	.st149{clip-path:url(#SVGID_490_);}
	.st150{clip-path:url(#SVGID_492_);}
	.st151{clip-path:url(#SVGID_496_);}
	.st152{clip-path:url(#SVGID_500_);}
	.st153{clip-path:url(#SVGID_502_);}
	.st154{clip-path:url(#SVGID_506_);}
	.st155{clip-path:url(#SVGID_508_);}
	.st156{clip-path:url(#SVGID_512_);}
	.st157{clip-path:url(#SVGID_514_);}
	.st158{clip-path:url(#SVGID_518_);}
	.st159{clip-path:url(#SVGID_520_);}
	.st160{clip-path:url(#SVGID_524_);}
	.st161{clip-path:url(#SVGID_526_);}
	.st162{clip-path:url(#SVGID_530_);}
	.st163{clip-path:url(#SVGID_534_);}
	.st164{clip-path:url(#SVGID_536_);}
	.st165{clip-path:url(#SVGID_540_);}
	.st166{clip-path:url(#SVGID_542_);}
	.st167{clip-path:url(#SVGID_546_);}
	.st168{clip-path:url(#SVGID_548_);}
	.st169{clip-path:url(#SVGID_552_);}
	.st170{clip-path:url(#SVGID_554_);}
	.st171{clip-path:url(#SVGID_558_);}
	.st172{clip-path:url(#SVGID_560_);}
	.st173{clip-path:url(#SVGID_564_);}
	.st174{clip-path:url(#SVGID_568_);}
	.st175{clip-path:url(#SVGID_572_);}
	.st176{clip-path:url(#SVGID_576_);}
	.st177{clip-path:url(#SVGID_580_);}
	.st178{clip-path:url(#SVGID_584_);}
	.st179{clip-path:url(#SVGID_588_);}
	.st180{clip-path:url(#SVGID_592_);}
	.st181{clip-path:url(#SVGID_596_);}
	.st182{clip-path:url(#SVGID_600_);}
	.st183{clip-path:url(#SVGID_604_);}
	.st184{clip-path:url(#SVGID_608_);}
	.st185{clip-path:url(#SVGID_612_);}
	.st186{clip-path:url(#SVGID_616_);}
	.st187{clip-path:url(#SVGID_620_);}
	.st188{clip-path:url(#SVGID_624_);}
	.st189{clip-path:url(#SVGID_628_);}
	.st190{clip-path:url(#SVGID_632_);}
	.st191{clip-path:url(#SVGID_636_);}
	.st192{clip-path:url(#SVGID_640_);}
	.st193{clip-path:url(#SVGID_644_);}
	.st194{clip-path:url(#SVGID_648_);}
	.st195{clip-path:url(#SVGID_652_);}
	.st196{clip-path:url(#SVGID_656_);}
	.st197{clip-path:url(#SVGID_660_);}
	.st198{clip-path:url(#SVGID_664_);}
	.st199{clip-path:url(#SVGID_668_);}
	.st200{clip-path:url(#SVGID_672_);}
	.st201{clip-path:url(#SVGID_676_);}
	.st202{clip-path:url(#SVGID_680_);}
	.st203{clip-path:url(#SVGID_684_);}
	.st204{clip-path:url(#SVGID_688_);}
	.st205{clip-path:url(#SVGID_692_);}
	.st206{clip-path:url(#SVGID_694_);}
	.st207{clip-path:url(#SVGID_698_);}
	.st208{clip-path:url(#SVGID_702_);}
	.st209{clip-path:url(#SVGID_704_);}
	.st210{clip-path:url(#SVGID_708_);}
	.st211{clip-path:url(#SVGID_712_);}
	.st212{clip-path:url(#SVGID_716_);}
	.st213{clip-path:url(#SVGID_720_);}
	.st214{clip-path:url(#SVGID_724_);}
	.st215{clip-path:url(#SVGID_728_);}
	.st216{clip-path:url(#SVGID_732_);}
	.st217{clip-path:url(#SVGID_736_);}
	.st218{clip-path:url(#SVGID_740_);}
	.st219{clip-path:url(#SVGID_744_);}
	.st220{clip-path:url(#SVGID_748_);}
	.st221{clip-path:url(#SVGID_752_);}
	.st222{clip-path:url(#SVGID_756_);}
	.st223{clip-path:url(#SVGID_760_);}
	.st224{clip-path:url(#SVGID_764_);}
	.st225{clip-path:url(#SVGID_768_);}
	.st226{clip-path:url(#SVGID_772_);}
	.st227{clip-path:url(#SVGID_776_);}
	.st228{clip-path:url(#SVGID_780_);}
	.st229{clip-path:url(#SVGID_784_);}
	.st230{clip-path:url(#SVGID_788_);}
	.st231{clip-path:url(#SVGID_792_);}
	.st232{clip-path:url(#SVGID_796_);}
	.st233{clip-path:url(#SVGID_800_);}
	.st234{clip-path:url(#SVGID_804_);}
	.st235{clip-path:url(#SVGID_808_);}
	.st236{clip-path:url(#SVGID_812_);}
	.st237{clip-path:url(#SVGID_816_);}
	.st238{clip-path:url(#SVGID_820_);}
	.st239{clip-path:url(#SVGID_824_);}
	.st240{clip-path:url(#SVGID_828_);}
	.st241{clip-path:url(#SVGID_832_);}
	.st242{clip-path:url(#SVGID_836_);}
	.st243{clip-path:url(#SVGID_840_);}
	.st244{clip-path:url(#SVGID_844_);}
	.st245{clip-path:url(#SVGID_848_);}
	.st246{clip-path:url(#SVGID_852_);}
	.st247{clip-path:url(#SVGID_856_);}
	.st248{clip-path:url(#SVGID_860_);}
	.st249{clip-path:url(#SVGID_864_);}
	.st250{clip-path:url(#SVGID_868_);}
	.st251{clip-path:url(#SVGID_872_);}
	.st252{clip-path:url(#SVGID_876_);}
	.st253{clip-path:url(#SVGID_880_);}
	.st254{clip-path:url(#SVGID_884_);}
	.st255{clip-path:url(#SVGID_888_);}
	.st256{clip-path:url(#SVGID_892_);}
	.st257{clip-path:url(#SVGID_896_);}
	.st258{clip-path:url(#SVGID_900_);}
	.st259{clip-path:url(#SVGID_904_);}
	.st260{clip-path:url(#SVGID_908_);}
	.st261{clip-path:url(#SVGID_912_);}
	.st262{clip-path:url(#SVGID_916_);}
	.st263{clip-path:url(#SVGID_920_);}
	.st264{clip-path:url(#SVGID_924_);}
	.st265{clip-path:url(#SVGID_926_);}
	.st266{clip-path:url(#SVGID_930_);}
	.st267{clip-path:url(#SVGID_934_);}
	.st268{clip-path:url(#SVGID_938_);}
	.st269{clip-path:url(#SVGID_942_);}
	.st270{clip-path:url(#SVGID_946_);}
	.st271{clip-path:url(#SVGID_950_);}
	.st272{clip-path:url(#SVGID_954_);}
	.st273{clip-path:url(#SVGID_958_);}
	.st274{clip-path:url(#SVGID_962_);}
	.st275{clip-path:url(#SVGID_966_);}
	.st276{clip-path:url(#SVGID_970_);}
	.st277{clip-path:url(#SVGID_974_);}
	.st278{clip-path:url(#SVGID_978_);}
	.st279{clip-path:url(#SVGID_980_);}
	.st280{clip-path:url(#SVGID_984_);}
	.st281{clip-path:url(#SVGID_986_);}
	.st282{clip-path:url(#SVGID_990_);}
	.st283{clip-path:url(#SVGID_994_);}
	.st284{clip-path:url(#SVGID_996_);}
	.st285{clip-path:url(#SVGID_1000_);}
	.st286{clip-path:url(#SVGID_1002_);}
	.st287{clip-path:url(#SVGID_1006_);}
	.st288{clip-path:url(#SVGID_1008_);}
	.st289{clip-path:url(#SVGID_1012_);}
	.st290{clip-path:url(#SVGID_1016_);}
	.st291{clip-path:url(#SVGID_1020_);}
	.st292{clip-path:url(#SVGID_1024_);}
	.st293{clip-path:url(#SVGID_1028_);}
	.st294{clip-path:url(#SVGID_1032_);fill:#FFFFFF;}
	.st295{fill:url(#SVGID_1033_);}
	.st296{fill:none;stroke:#002D73;stroke-width:0.859;stroke-miterlimit:10;}
	.st297{fill:#65797F;}
	.st298{fill:url(#SVGID_1034_);}
	.st299{fill-rule:evenodd;clip-rule:evenodd;fill:url(#SVGID_1035_);}
	.st300{clip-path:url(#SVGID_1036_);fill:#FFFFFF;}
	.st301{fill:url(#SVGID_1037_);}
	.st302{fill:none;stroke:#002D73;stroke-linecap:round;stroke-miterlimit:10;}
	.st303{opacity:0.6;fill:url(#SVGID_1038_);}
	.st304{fill:url(#SVGID_1039_);}
	.st305{opacity:0.3;fill:#FFFFFF;}
	.st306{clip-path:url(#SVGID_1040_);fill:#FFFFFF;}
	.st307{fill:none;stroke:#002D73;stroke-miterlimit:10;}
	.st308{opacity:0.6;fill:url(#SVGID_1041_);}
	.st309{fill:url(#SVGID_1042_);}
	.st310{clip-path:url(#SVGID_1043_);fill:#FFFFFF;}
	.st311{fill:url(#SVGID_1044_);}
</style>
<g id="Layer_1">
	<g>
		<rect y="1.3" class="st4" width="138.5" height="74.8"/>
		<path class="st5" d="M23.4,2.1h3.9c1.4,0,3.6,0.4,3.6,2.9c0,1.3-0.9,2.3-2.2,2.5v0c1.5,0.1,2.6,1.2,2.6,2.5c0,2.8-2.5,3.2-3.9,3.2
			h-3.9V2.1z M25.7,6.6h0.9c0.9,0,2.1-0.2,2.1-1.4c0-1.3-1.1-1.4-2.2-1.4h-0.9V6.6z M25.7,11.5h1.1c1,0,2.3-0.3,2.3-1.6
			c0-1.5-1.2-1.7-2.3-1.7h-1.1V11.5z"/>
		<path class="st5" d="M33,2.1h2.4c2.4,0,5.3-0.1,5.3,3c0,1.3-0.9,2.4-2.3,2.6v0c0.6,0,1,0.7,1.2,1.2l1.8,4.4h-2.5l-1.3-3.5
			C37.2,9,36.9,8.6,36,8.6h-0.7v4.6H33V2.1z M35.3,6.9H36c1.1,0,2.4-0.2,2.4-1.6c0-1.3-1.2-1.5-2.4-1.5h-0.7V6.9z"/>
		<path class="st5" d="M43,2.1h6.6v1.8h-4.4v2.8h4v1.8h-4v3.1h4.4v1.8H43V2.1z"/>
		<path class="st5" d="M56.8,1.9c3.5,0,5.5,2.4,5.5,5.7c0,3.4-1.9,5.8-5.5,5.8c-3.6,0-5.5-2.4-5.5-5.8C51.3,4.2,53.3,1.9,56.8,1.9z
			 M56.8,11.7c2.3,0,3.1-2,3.1-4c0-2-0.9-4-3.1-4s-3.1,2-3.1,4C53.7,9.7,54.5,11.7,56.8,11.7z"/>
		<path class="st5" d="M68.6,1.5h2.1v2h-2.1V1.5z M68.6,5h2.1v8.2h-2.1V5z"/>
		<path class="st5" d="M77.9,6.8c-0.7-0.2-1.1-0.4-1.9-0.4c-0.6,0-1.3,0.2-1.3,0.9c0,1.3,3.7,0.5,3.7,3.5c0,1.9-1.7,2.7-3.5,2.7
			c-0.8,0-1.6-0.1-2.4-0.4l0.1-1.8c0.7,0.3,1.4,0.5,2.1,0.5c0.5,0,1.4-0.2,1.4-1c0-1.6-3.7-0.5-3.7-3.5c0-1.8,1.6-2.6,3.2-2.6
			c1,0,1.7,0.2,2.3,0.3L77.9,6.8z"/>
		<path class="st5" d="M84.7,2.1h2.8l4.3,8.4h0V2.1h2.1v11.2h-2.7l-4.3-8.4h0v8.4h-2.1V2.1z"/>
		<path class="st5" d="M101.3,1.9c3.5,0,5.5,2.4,5.5,5.7c0,3.4-1.9,5.8-5.5,5.8c-3.6,0-5.5-2.4-5.5-5.8C95.8,4.2,97.7,1.9,101.3,1.9
			z M101.3,11.7c2.3,0,3.1-2,3.1-4c0-2-0.9-4-3.1-4c-2.2,0-3.1,2-3.1,4C98.1,9.7,99,11.7,101.3,11.7z"/>
		<path class="st5" d="M110.8,3.9h-3.2V2.1h8.6v1.8H113v9.4h-2.2V3.9z"/>
		<path class="st5" d="M7.7,21.5h2.1v2H7.7V21.5z M7.7,25h2.1v8.2H7.7V25z"/>
		<path class="st5" d="M12.1,25h2v1.1h0c0.7-0.9,1.6-1.3,2.7-1.3c2,0,2.8,1.4,2.8,3.2v5.2h-2.1v-4.4c0-1,0-2.4-1.4-2.4
			c-1.6,0-1.9,1.7-1.9,2.7v4h-2.1V25z"/>
		<path class="st5" d="M27.4,32.4L27.4,32.4c-0.7,0.8-1.6,1.1-2.6,1.1c-2.5,0-3.5-2.1-3.5-4.3c0-2.3,0.9-4.3,3.5-4.3
			c1.1,0,1.8,0.4,2.5,1.2h0v-4.7h2.1v12h-2.1V32.4z M25.4,31.8c1.4,0,1.9-1.5,1.9-2.7c0-1.2-0.5-2.6-1.9-2.6c-1.4,0-1.8,1.5-1.8,2.6
			C23.6,30.3,24,31.8,25.4,31.8z"/>
		<path class="st5" d="M31.7,21.5h2.1v2h-2.1V21.5z M31.7,25h2.1v8.2h-2.1V25z"/>
		<path class="st5" d="M41.5,26.8c-0.4-0.2-0.8-0.3-1.5-0.3c-1.3,0-2.2,1.1-2.2,2.6c0,1.5,0.7,2.7,2.2,2.7c0.6,0,1.3-0.2,1.6-0.4
			l0.1,1.8c-0.6,0.2-1.3,0.3-2.1,0.3c-2.7,0-4.1-1.8-4.1-4.4c0-2.4,1.4-4.3,4-4.3c0.9,0,1.5,0.1,2.1,0.3L41.5,26.8z"/>
		<path class="st5" d="M43.6,25.5c0.8-0.4,2-0.6,2.9-0.6c2.5,0,3.6,1,3.6,3.5v1.1c0,0.8,0,1.5,0,2.1c0,0.6,0,1.2,0.1,1.8h-1.9
			c-0.1-0.4-0.1-1-0.1-1.2h0c-0.5,0.9-1.6,1.4-2.5,1.4c-1.5,0-2.9-0.9-2.9-2.4c0-1.2,0.6-2,1.4-2.4s1.9-0.5,2.8-0.5h1.2
			c0-1.3-0.6-1.8-1.9-1.8c-0.9,0-1.8,0.4-2.5,0.9L43.6,25.5z M46.1,31.9c0.7,0,1.2-0.3,1.5-0.7c0.4-0.5,0.4-1.1,0.4-1.7h-0.9
			c-1,0-2.4,0.2-2.4,1.4C44.7,31.6,45.3,31.9,46.1,31.9z"/>
		<path class="st5" d="M52.8,26.6h-1.6V25h1.6v-1.6l2.1-0.7V25h1.9v1.6H55v3.8c0,0.7,0.2,1.4,1,1.4c0.4,0,0.8-0.1,1-0.2l0.1,1.7
			c-0.4,0.1-0.9,0.2-1.6,0.2c-1.7,0-2.6-1-2.6-2.7V26.6z"/>
		<path class="st5" d="M65,32.8c-0.8,0.4-1.7,0.7-2.8,0.7c-2.7,0-4.3-1.6-4.3-4.3c0-2.4,1.3-4.4,3.8-4.4c3.1,0,3.9,2.1,3.9,5h-5.7
			c0.1,1.3,1,2.1,2.4,2.1c1,0,1.9-0.4,2.7-0.8V32.8z M63.5,28.3c-0.1-1-0.5-1.9-1.7-1.9s-1.8,0.8-1.9,1.9H63.5z"/>
		<path class="st5" d="M72.7,32.4L72.7,32.4c-0.7,0.8-1.6,1.1-2.6,1.1c-2.5,0-3.5-2.1-3.5-4.3c0-2.3,0.9-4.3,3.5-4.3
			c1.1,0,1.8,0.4,2.5,1.2h0v-4.7h2.1v12h-2.1V32.4z M70.8,31.8c1.4,0,1.9-1.5,1.9-2.7c0-1.2-0.5-2.6-1.9-2.6c-1.4,0-1.8,1.5-1.8,2.6
			C69,30.3,69.4,31.8,70.8,31.8z"/>
		<path class="st5" d="M82.3,26.6h-1.6V25h1.6v-1.2c0-1.6,0.9-2.8,2.6-2.8c0.5,0,1.2,0.1,1.6,0.2L86.3,23c-0.2-0.1-0.5-0.3-0.9-0.3
			c-0.7,0-0.9,0.6-0.9,1.3v1h1.9v1.6h-1.9v6.7h-2.1V26.6z"/>
		<path class="st5" d="M91.5,24.8c2.4,0,4.3,1.6,4.3,4.4c0,2.4-1.6,4.3-4.3,4.3c-2.7,0-4.3-1.9-4.3-4.3C87.2,26.5,89,24.8,91.5,24.8
			z M91.5,31.8c1.6,0,2.1-1.5,2.1-2.8c0-1.3-0.7-2.4-2.1-2.4c-1.4,0-2.1,1.2-2.1,2.4C89.4,30.3,89.8,31.8,91.5,31.8z"/>
		<path class="st5" d="M97.5,25h1.9v1.9h0c0.1-0.8,1-2.1,2.3-2.1c0.2,0,0.4,0,0.7,0.1v2.2c-0.2-0.1-0.6-0.2-1-0.2
			c-1.7,0-1.7,2.2-1.7,3.4v3h-2.1V25z"/>
		<path class="st5" d="M108.8,26.6h-1.6V25h1.6v-1.6l2.1-0.7V25h1.9v1.6H111v3.8c0,0.7,0.2,1.4,1,1.4c0.4,0,0.8-0.1,1-0.2l0.1,1.7
			c-0.4,0.1-0.9,0.2-1.6,0.2c-1.7,0-2.6-1-2.6-2.7V26.6z"/>
		<path class="st5" d="M114.4,21.3h2.1v4.9h0c0.5-0.8,1.5-1.3,2.6-1.3c2,0,2.8,1.4,2.8,3.2v5.2h-2.1v-4.4c0-1,0-2.4-1.4-2.4
			c-1.6,0-1.9,1.7-1.9,2.7v4h-2.1V21.3z"/>
		<path class="st5" d="M130.7,32.8c-0.8,0.4-1.7,0.7-2.8,0.7c-2.7,0-4.3-1.6-4.3-4.3c0-2.4,1.3-4.4,3.8-4.4c3.1,0,3.9,2.1,3.9,5
			h-5.7c0.1,1.3,1,2.1,2.4,2.1c1,0,1.9-0.4,2.7-0.8V32.8z M129.3,28.3c-0.1-1-0.5-1.9-1.7-1.9c-1.2,0-1.8,0.8-1.9,1.9H129.3z"/>
		<path class="st5" d="M18.1,45H20v1.9h0c0.1-0.8,1-2.1,2.3-2.1c0.2,0,0.4,0,0.7,0.1v2.2c-0.2-0.1-0.6-0.2-1-0.2
			c-1.7,0-1.7,2.2-1.7,3.4v3h-2.1V45z"/>
		<path class="st5" d="M30.6,52.8c-0.8,0.4-1.7,0.7-2.8,0.7c-2.7,0-4.3-1.6-4.3-4.3c0-2.4,1.3-4.4,3.8-4.4c3.1,0,3.9,2.1,3.9,5h-5.7
			c0.1,1.3,1,2.1,2.4,2.1c1,0,1.9-0.4,2.7-0.8V52.8z M29.1,48.3c-0.1-1-0.5-1.9-1.7-1.9s-1.8,0.8-1.9,1.9H29.1z"/>
		<path class="st5" d="M32.9,41.3h2.1v12h-2.1V41.3z"/>
		<path class="st5" d="M37.4,41.5h2.1v2h-2.1V41.5z M37.4,45h2.1v8.2h-2.1V45z"/>
		<path class="st5" d="M48.4,52.8c-0.8,0.4-1.7,0.7-2.8,0.7c-2.7,0-4.3-1.6-4.3-4.3c0-2.4,1.3-4.4,3.8-4.4c3.1,0,3.9,2.1,3.9,5h-5.7
			c0.1,1.3,1,2.1,2.4,2.1c1,0,1.9-0.4,2.7-0.8V52.8z M46.9,48.3c-0.1-1-0.5-1.9-1.7-1.9s-1.8,0.8-1.9,1.9H46.9z"/>
		<path class="st5" d="M51.4,46.6h-1.6V45h1.6v-1.2c0-1.6,0.9-2.8,2.6-2.8c0.5,0,1.2,0.1,1.6,0.2L55.5,43c-0.2-0.1-0.5-0.3-0.9-0.3
			c-0.7,0-0.9,0.6-0.9,1.3v1h1.9v1.6h-1.9v6.7h-2.1V46.6z"/>
		<path class="st5" d="M65.1,44.8c2.4,0,4.3,1.6,4.3,4.4c0,2.4-1.6,4.3-4.3,4.3c-2.7,0-4.3-1.9-4.3-4.3
			C60.8,46.5,62.7,44.8,65.1,44.8z M65.1,51.8c1.6,0,2.1-1.5,2.1-2.8c0-1.3-0.7-2.4-2.1-2.4c-1.4,0-2.1,1.2-2.1,2.4
			C63,50.3,63.5,51.8,65.1,51.8z"/>
		<path class="st5" d="M71.9,46.6h-1.6V45h1.6v-1.2c0-1.6,0.9-2.8,2.6-2.8c0.5,0,1.2,0.1,1.6,0.2L75.9,43c-0.2-0.1-0.5-0.3-0.9-0.3
			c-0.7,0-0.9,0.6-0.9,1.3v1h1.9v1.6H74v6.7h-2.1V46.6z"/>
		<path class="st5" d="M82.1,45.5c0.8-0.4,2-0.6,2.9-0.6c2.5,0,3.6,1,3.6,3.5v1.1c0,0.8,0,1.5,0,2.1c0,0.6,0,1.2,0.1,1.8h-1.9
			c-0.1-0.4-0.1-1-0.1-1.2h0c-0.5,0.9-1.6,1.4-2.5,1.4c-1.5,0-2.9-0.9-2.9-2.4c0-1.2,0.6-2,1.4-2.4s1.9-0.5,2.8-0.5h1.2
			c0-1.3-0.6-1.8-1.9-1.8c-0.9,0-1.8,0.4-2.5,0.9L82.1,45.5z M84.7,51.9c0.7,0,1.2-0.3,1.5-0.7c0.4-0.5,0.4-1.1,0.4-1.7h-0.9
			c-1,0-2.4,0.2-2.4,1.4C83.3,51.6,83.9,51.9,84.7,51.9z"/>
		<path class="st5" d="M96,46.8c-0.4-0.2-0.8-0.3-1.5-0.3c-1.3,0-2.2,1.1-2.2,2.6c0,1.5,0.7,2.7,2.2,2.7c0.6,0,1.3-0.2,1.6-0.4
			l0.1,1.8c-0.6,0.2-1.3,0.3-2.1,0.3c-2.7,0-4.1-1.8-4.1-4.4c0-2.4,1.4-4.3,4-4.3c0.9,0,1.5,0.1,2.1,0.3L96,46.8z"/>
		<path class="st5" d="M105.3,53.3h-2v-1.1h0c-0.7,0.8-1.6,1.3-2.7,1.3c-2,0-2.8-1.4-2.8-3.2V45h2.1v4.4c0,1,0,2.4,1.4,2.4
			c1.6,0,1.9-1.7,1.9-2.7v-4h2.1V53.3z"/>
		<path class="st5" d="M108.3,46.6h-1.6V45h1.6v-1.6l2.1-0.7V45h1.9v1.6h-1.9v3.8c0,0.7,0.2,1.4,1,1.4c0.4,0,0.8-0.1,1-0.2l0.1,1.7
			c-0.4,0.1-0.9,0.2-1.6,0.2c-1.7,0-2.6-1-2.6-2.7V46.6z"/>
		<path class="st5" d="M120.4,52.8c-0.8,0.4-1.7,0.7-2.8,0.7c-2.7,0-4.3-1.6-4.3-4.3c0-2.4,1.3-4.4,3.8-4.4c3.1,0,3.9,2.1,3.9,5
			h-5.7c0.1,1.3,1,2.1,2.4,2.1c1,0,1.9-0.4,2.7-0.8V52.8z M118.9,48.3c-0.1-1-0.5-1.9-1.7-1.9s-1.8,0.8-1.9,1.9H118.9z"/>
		<path class="st5" d="M15.8,61.3H18v4.8h0c0.6-0.8,1.3-1.2,2.5-1.2c2.5,0,3.5,2,3.5,4.3c0,2.3-0.9,4.3-3.5,4.3
			c-0.9,0-1.9-0.3-2.5-1.2h0v1h-2.1V61.3z M19.9,71.8c1.4,0,1.8-1.5,1.8-2.7c0-1.1-0.4-2.6-1.8-2.6c-1.4,0-1.9,1.5-1.9,2.6
			C18,70.3,18.5,71.8,19.9,71.8z"/>
		<path class="st5" d="M25.7,65h1.9v1.9h0c0.1-0.8,1-2.1,2.3-2.1c0.2,0,0.4,0,0.7,0.1v2.2c-0.2-0.1-0.6-0.2-1-0.2
			c-1.7,0-1.7,2.2-1.7,3.4v3h-2.1V65z"/>
		<path class="st5" d="M35.3,64.8c2.4,0,4.3,1.6,4.3,4.4c0,2.4-1.6,4.3-4.3,4.3c-2.7,0-4.3-1.9-4.3-4.3C31,66.5,32.9,64.8,35.3,64.8
			z M35.3,71.8c1.6,0,2.1-1.5,2.1-2.8c0-1.3-0.7-2.4-2.1-2.4c-1.4,0-2.1,1.2-2.1,2.4C33.3,70.3,33.7,71.8,35.3,71.8z"/>
		<path class="st5" d="M41.3,65h2v1.1h0c0.7-0.9,1.6-1.3,2.7-1.3c2,0,2.8,1.4,2.8,3.2v5.2h-2.1v-4.4c0-1,0-2.4-1.4-2.4
			c-1.6,0-1.9,1.7-1.9,2.7v4h-2.1V65z"/>
		<path class="st5" d="M56.5,66.8c-0.4-0.2-0.8-0.3-1.5-0.3c-1.3,0-2.2,1.1-2.2,2.6c0,1.5,0.7,2.7,2.2,2.7c0.6,0,1.3-0.2,1.6-0.4
			l0.1,1.8c-0.6,0.2-1.3,0.3-2.1,0.3c-2.7,0-4.1-1.8-4.1-4.4c0-2.4,1.4-4.3,4-4.3c0.9,0,1.5,0.1,2.1,0.3L56.5,66.8z"/>
		<path class="st5" d="M58.2,61.3h2.1v4.9h0c0.5-0.8,1.5-1.3,2.6-1.3c2,0,2.8,1.4,2.8,3.2v5.2h-2.1v-4.4c0-1,0-2.4-1.4-2.4
			c-1.6,0-1.9,1.7-1.9,2.7v4h-2.1V61.3z"/>
		<path class="st5" d="M71.8,64.8c2.4,0,4.3,1.6,4.3,4.4c0,2.4-1.6,4.3-4.3,4.3c-2.7,0-4.3-1.9-4.3-4.3
			C67.5,66.5,69.3,64.8,71.8,64.8z M71.8,71.8c1.6,0,2.1-1.5,2.1-2.8c0-1.3-0.7-2.4-2.1-2.4c-1.4,0-2.1,1.2-2.1,2.4
			C69.7,70.3,70.1,71.8,71.8,71.8z"/>
		<path class="st5" d="M82.7,66.8c-0.7-0.2-1.1-0.4-1.9-0.4c-0.6,0-1.3,0.2-1.3,0.9c0,1.3,3.7,0.5,3.7,3.5c0,1.9-1.7,2.7-3.5,2.7
			c-0.8,0-1.6-0.1-2.4-0.4l0.1-1.8c0.7,0.3,1.4,0.5,2.1,0.5c0.5,0,1.4-0.2,1.4-1c0-1.6-3.7-0.5-3.7-3.5c0-1.8,1.6-2.6,3.2-2.6
			c1,0,1.7,0.2,2.3,0.3L82.7,66.8z"/>
		<path class="st5" d="M84.9,65h2v1.2h0c0.5-0.8,1.3-1.4,2.6-1.4c2.5,0,3.5,2,3.5,4.3c0,2.3-0.9,4.3-3.5,4.3c-0.9,0-1.7-0.2-2.4-1.1
			h0v4.3h-2.1V65z M87,69.1c0,1.2,0.5,2.7,1.9,2.7c1.4,0,1.8-1.5,1.8-2.7c0-1.1-0.4-2.6-1.8-2.6C87.6,66.5,87,68,87,69.1z"/>
		<path class="st5" d="M95,65.5c0.8-0.4,2-0.6,2.9-0.6c2.5,0,3.6,1,3.6,3.5v1.1c0,0.8,0,1.5,0,2.1c0,0.6,0,1.2,0.1,1.8h-1.9
			c-0.1-0.4-0.1-1-0.1-1.2h0C99,73,98,73.5,97,73.5c-1.5,0-2.9-0.9-2.9-2.4c0-1.2,0.6-2,1.4-2.4s1.9-0.5,2.8-0.5h1.2
			c0-1.3-0.6-1.8-1.9-1.8c-0.9,0-1.8,0.4-2.5,0.9L95,65.5z M97.5,71.9c0.7,0,1.2-0.3,1.5-0.7c0.4-0.5,0.4-1.1,0.4-1.7h-0.9
			c-1,0-2.4,0.2-2.4,1.4C96.2,71.6,96.8,71.9,97.5,71.9z"/>
		<path class="st5" d="M108.4,66.8c-0.7-0.2-1.1-0.4-1.9-0.4c-0.6,0-1.3,0.2-1.3,0.9c0,1.3,3.7,0.5,3.7,3.5c0,1.9-1.7,2.7-3.5,2.7
			c-0.8,0-1.6-0.1-2.4-0.4l0.1-1.8c0.7,0.3,1.4,0.5,2.1,0.5c0.5,0,1.4-0.2,1.4-1c0-1.6-3.7-0.5-3.7-3.5c0-1.8,1.6-2.6,3.2-2.6
			c1,0,1.7,0.2,2.3,0.3L108.4,66.8z"/>
		<path class="st5" d="M110.6,65h2v1.2h0c0.7-1,1.6-1.3,2.4-1.3c1.2,0,2,0.4,2.4,1.5c0.5-1,1.6-1.5,2.6-1.5c2,0,2.6,1.4,2.6,3.2v5.2
			h-2.1v-4.9c0-0.8,0-1.9-1.2-1.9c-1.4,0-1.6,1.7-1.6,2.8v4h-2.1v-4.9c0-0.8,0-1.9-1.2-1.9c-1.4,0-1.6,1.7-1.6,2.8v4h-2.1V65z"/>
	</g>
</g>
<g id="Border">
</g>
</svg>
