<?xml version="1.0" encoding="iso-8859-1"?>
<!-- Generator: Adobe Illustrator 19.1.0, SVG Export Plug-In . SVG Version: 6.00 Build 0)  -->
<svg version="1.1" xmlns="http://www.w3.org/2000/svg" xmlns:xlink="http://www.w3.org/1999/xlink" x="0px" y="0px"
	 viewBox="0 0 211.593 117.131" style="enable-background:new 0 0 211.593 117.131;" xml:space="preserve">
<g id="Layer_1">
	<g>
		<defs>
			<rect id="SVGID_37_" x="-691.626" y="628.288" width="224" height="71"/>
		</defs>
		<clipPath id="SVGID_2_">
			<use xlink:href="#SVGID_37_"  style="overflow:visible;"/>
		</clipPath>
	</g>
	<g>
		<defs>
			<rect id="SVGID_1067_" x="-691.626" y="770.288" width="224" height="71"/>
		</defs>
		<clipPath id="SVGID_4_">
			<use xlink:href="#SVGID_1067_"  style="overflow:visible;"/>
		</clipPath>
	</g>
	<g>
		<path style="fill:#FFFFFF;" d="M10.272,9.96V8.557c0.779-0.755,3.622-3.13,3.622-4.666c0-0.768-0.684-1.127-1.367-1.127
			c-0.708,0-1.38,0.312-1.932,0.672l-0.132-1.391c0.756-0.384,1.632-0.6,2.482-0.6c1.596,0,2.627,0.803,2.627,2.446
			c0,1.775-1.787,3.406-3.154,4.75h3.418V9.96H10.272z"/>
		<path style="fill:#FFFFFF;" d="M16.644,6.866l3.13-5.277h2.087v5.385h1.067v1.247h-1.067V9.96h-1.607V8.221h-3.609V6.866z
			 M20.253,6.974V3.34H20.23l-2.075,3.634H20.253z"/>
		<path style="fill:#FFFFFF;" d="M23.543,7.394V6.074h3.154v1.319H23.543z"/>
		<path style="fill:#FFFFFF;" d="M27.948,0.965h1.606v3.658h0.024c0.407-0.6,1.104-0.983,1.942-0.983c1.464,0,2.1,1.031,2.1,2.422
			V9.96h-1.607V6.662c0-0.755-0.012-1.775-1.043-1.775c-1.164,0-1.416,1.259-1.416,2.051V9.96h-1.606V0.965z"/>
		<path style="fill:#FFFFFF;" d="M38.11,3.64c1.835,0,3.238,1.235,3.238,3.274c0,1.775-1.188,3.19-3.238,3.19
			c-2.039,0-3.227-1.416-3.227-3.19C34.883,4.875,36.286,3.64,38.11,3.64z M38.11,8.856c1.235,0,1.56-1.104,1.56-2.135
			c0-0.947-0.504-1.835-1.56-1.835c-1.043,0-1.547,0.912-1.547,1.835C36.563,7.741,36.886,8.856,38.11,8.856z"/>
		<path style="fill:#FFFFFF;" d="M48.285,9.96h-1.523V9.121h-0.024c-0.491,0.6-1.187,0.983-2.026,0.983
			c-1.463,0-2.099-1.032-2.099-2.423V3.783h1.606v3.298c0,0.755,0.013,1.775,1.044,1.775c1.163,0,1.415-1.259,1.415-2.051V3.783
			h1.607V9.96z"/>
		<path style="fill:#FFFFFF;" d="M49.979,3.783h1.428v1.403h0.024c0.071-0.576,0.731-1.547,1.69-1.547c0.156,0,0.324,0,0.492,0.048
			v1.619c-0.145-0.084-0.432-0.132-0.72-0.132c-1.308,0-1.308,1.631-1.308,2.519V9.96h-1.607V3.783z"/>
		<path style="fill:#FFFFFF;" d="M58.091,1.588h2.927c1.079,0,2.698,0.312,2.698,2.147c0,0.996-0.672,1.691-1.667,1.871V5.63
			c1.14,0.108,1.919,0.875,1.919,1.907c0,2.111-1.896,2.423-2.95,2.423h-2.927V1.588z M59.77,4.971h0.684
			c0.708,0,1.584-0.156,1.584-1.02c0-0.971-0.852-1.043-1.619-1.043H59.77V4.971z M59.77,8.641h0.792
			c0.779,0,1.727-0.192,1.727-1.163c0-1.092-0.887-1.26-1.727-1.26H59.77V8.641z"/>
		<path style="fill:#FFFFFF;" d="M65.28,1.588h1.811c1.799,0,3.946-0.06,3.946,2.267c0,0.983-0.66,1.799-1.728,1.943v0.024
			c0.456,0.036,0.72,0.492,0.888,0.863l1.343,3.274h-1.87l-1.008-2.615c-0.24-0.624-0.456-0.863-1.163-0.863h-0.54V9.96H65.28V1.588
			z M66.958,5.163h0.552c0.827,0,1.775-0.12,1.775-1.164c0-1.007-0.936-1.091-1.775-1.091h-0.552V5.163z"/>
		<path style="fill:#FFFFFF;" d="M72.755,1.588h4.941v1.319h-3.263v2.063h2.986V6.29h-2.986v2.351h3.286V9.96h-4.965V1.588z"/>
		<path style="fill:#FFFFFF;" d="M83.121,1.445c2.626,0,4.102,1.775,4.102,4.306c0,2.53-1.451,4.354-4.102,4.354
			c-2.687,0-4.103-1.787-4.103-4.354C79.019,3.184,80.458,1.445,83.121,1.445z M83.121,8.785c1.715,0,2.351-1.523,2.351-3.034
			c0-1.476-0.684-2.987-2.351-2.987s-2.351,1.511-2.351,2.987C80.771,7.261,81.406,8.785,83.121,8.785z"/>
		<path style="fill:#FFFFFF;" d="M91.991,1.121h1.607v1.535h-1.607V1.121z M91.991,3.783h1.607V9.96h-1.607V3.783z"/>
		<path style="fill:#FFFFFF;" d="M98.961,5.079c-0.492-0.168-0.852-0.264-1.439-0.264c-0.432,0-0.947,0.156-0.947,0.684
			c0,0.983,2.794,0.36,2.794,2.59c0,1.439-1.283,2.015-2.59,2.015c-0.612,0-1.235-0.108-1.823-0.264l0.096-1.319
			c0.504,0.252,1.031,0.408,1.583,0.408c0.408,0,1.056-0.156,1.056-0.756c0-1.211-2.795-0.384-2.795-2.614
			c0-1.332,1.164-1.919,2.423-1.919c0.756,0,1.247,0.12,1.751,0.228L98.961,5.079z"/>
		<path style="fill:#FFFFFF;" d="M104.542,4.958h-1.188V3.783h1.188V2.92c0-1.235,0.695-2.099,1.967-2.099
			c0.408,0,0.863,0.06,1.176,0.132l-0.132,1.331c-0.145-0.084-0.349-0.216-0.696-0.216c-0.539,0-0.707,0.468-0.707,0.947v0.768
			h1.403v1.175h-1.403V9.96h-1.607V4.958z"/>
		<path style="fill:#FFFFFF;" d="M111.453,3.64c1.835,0,3.237,1.235,3.237,3.274c0,1.775-1.187,3.19-3.237,3.19
			c-2.039,0-3.227-1.416-3.227-3.19C108.227,4.875,109.63,3.64,111.453,3.64z M111.453,8.856c1.234,0,1.559-1.104,1.559-2.135
			c0-0.947-0.504-1.835-1.559-1.835c-1.044,0-1.548,0.912-1.548,1.835C109.906,7.741,110.23,8.856,111.453,8.856z"/>
		<path style="fill:#FFFFFF;" d="M115.991,3.783h1.427v1.403h0.024c0.072-0.576,0.731-1.547,1.691-1.547
			c0.155,0,0.323,0,0.491,0.048v1.619c-0.144-0.084-0.432-0.132-0.72-0.132c-1.307,0-1.307,1.631-1.307,2.519V9.96h-1.607V3.783z"/>
		<path style="fill:#FFFFFF;" d="M124.235,4.107c0.623-0.288,1.463-0.468,2.146-0.468c1.883,0,2.662,0.779,2.662,2.603v0.792
			c0,0.624,0.013,1.091,0.024,1.547c0.012,0.468,0.036,0.9,0.072,1.379h-1.416c-0.06-0.324-0.06-0.731-0.071-0.923h-0.024
			c-0.372,0.684-1.175,1.067-1.907,1.067c-1.091,0-2.158-0.66-2.158-1.835c0-0.924,0.443-1.463,1.056-1.763
			c0.611-0.3,1.403-0.36,2.074-0.36h0.888c0-0.996-0.443-1.331-1.392-1.331c-0.684,0-1.367,0.264-1.906,0.671L124.235,4.107z
			 M126.118,8.929c0.491,0,0.875-0.216,1.127-0.552c0.264-0.348,0.336-0.792,0.336-1.271h-0.695c-0.72,0-1.787,0.12-1.787,1.067
			C125.098,8.701,125.541,8.929,126.118,8.929z"/>
		<path style="fill:#FFFFFF;" d="M134.744,9.264h-0.024c-0.479,0.6-1.14,0.84-1.895,0.84c-1.896,0-2.591-1.559-2.591-3.25
			c0-1.703,0.695-3.214,2.591-3.214c0.803,0,1.367,0.275,1.847,0.863h0.023V0.965h1.607V9.96h-1.559V9.264z M133.269,8.856
			c1.067,0,1.415-1.127,1.415-2.003c0-0.863-0.407-1.967-1.439-1.967c-1.043,0-1.331,1.14-1.331,1.967
			C131.913,7.705,132.213,8.856,133.269,8.856z"/>
		<path style="fill:#FFFFFF;" d="M143.635,9.96h-1.523V9.121h-0.023c-0.492,0.6-1.188,0.983-2.027,0.983
			c-1.463,0-2.099-1.032-2.099-2.423V3.783h1.607v3.298c0,0.755,0.012,1.775,1.043,1.775c1.164,0,1.415-1.259,1.415-2.051V3.783
			h1.607V9.96z"/>
		<path style="fill:#FFFFFF;" d="M145.33,0.965h1.607V9.96h-1.607V0.965z"/>
		<path style="fill:#FFFFFF;" d="M149.159,4.958h-1.188V3.783h1.188V2.548l1.606-0.516v1.751h1.428v1.175h-1.428v2.878
			c0,0.528,0.145,1.02,0.756,1.02c0.288,0,0.563-0.06,0.731-0.168L152.3,9.96c-0.336,0.096-0.707,0.144-1.188,0.144
			c-1.259,0-1.954-0.78-1.954-2.003V4.958z"/>
		<path style="fill:#FFFFFF;" d="M156.634,3.783h1.535v0.875h0.024c0.359-0.6,0.971-1.019,1.919-1.019
			c1.895,0,2.59,1.511,2.59,3.214c0,1.691-0.695,3.25-2.626,3.25c-0.684,0-1.247-0.168-1.812-0.852h-0.023v3.226h-1.607V3.783z
			 M158.253,6.854c0,0.875,0.348,2.003,1.415,2.003c1.056,0,1.355-1.151,1.355-2.003c0-0.827-0.288-1.967-1.331-1.967
			C158.661,4.887,158.253,5.99,158.253,6.854z"/>
		<path style="fill:#FFFFFF;" d="M164.243,4.107c0.623-0.288,1.463-0.468,2.146-0.468c1.883,0,2.662,0.779,2.662,2.603v0.792
			c0,0.624,0.013,1.091,0.024,1.547c0.012,0.468,0.036,0.9,0.072,1.379h-1.416c-0.06-0.324-0.06-0.731-0.071-0.923h-0.024
			c-0.372,0.684-1.175,1.067-1.907,1.067c-1.091,0-2.158-0.66-2.158-1.835c0-0.924,0.443-1.463,1.056-1.763
			c0.611-0.3,1.403-0.36,2.074-0.36h0.888c0-0.996-0.443-1.331-1.392-1.331c-0.684,0-1.367,0.264-1.906,0.671L164.243,4.107z
			 M166.125,8.929c0.491,0,0.875-0.216,1.127-0.552c0.264-0.348,0.336-0.792,0.336-1.271h-0.695c-0.72,0-1.787,0.12-1.787,1.067
			C165.106,8.701,165.549,8.929,166.125,8.929z"/>
		<path style="fill:#FFFFFF;" d="M171.166,4.958h-1.188V3.783h1.188V2.548l1.606-0.516v1.751h1.428v1.175h-1.428v2.878
			c0,0.528,0.145,1.02,0.756,1.02c0.288,0,0.563-0.06,0.731-0.168l0.048,1.271c-0.336,0.096-0.707,0.144-1.188,0.144
			c-1.259,0-1.954-0.78-1.954-2.003V4.958z"/>
		<path style="fill:#FFFFFF;" d="M175.342,1.121h1.607v1.535h-1.607V1.121z M175.342,3.783h1.607V9.96h-1.607V3.783z"/>
		<path style="fill:#FFFFFF;" d="M183.595,9.612c-0.587,0.324-1.259,0.492-2.122,0.492c-2.039,0-3.227-1.175-3.227-3.202
			c0-1.787,0.947-3.262,2.866-3.262c2.291,0,2.938,1.571,2.938,3.729h-4.27c0.072,0.996,0.768,1.56,1.763,1.56
			c0.779,0,1.451-0.288,2.051-0.624V9.612z M182.516,6.266c-0.048-0.78-0.408-1.451-1.308-1.451s-1.354,0.624-1.427,1.451H182.516z"
			/>
		<path style="fill:#FFFFFF;" d="M185.314,3.783h1.523v0.84h0.023c0.504-0.708,1.188-0.983,2.027-0.983
			c1.463,0,2.099,1.031,2.099,2.422V9.96h-1.607V6.662c0-0.755-0.012-1.775-1.043-1.775c-1.163,0-1.415,1.259-1.415,2.051V9.96
			h-1.607V3.783z"/>
		<path style="fill:#FFFFFF;" d="M193.174,4.958h-1.188V3.783h1.188V2.548l1.606-0.516v1.751h1.428v1.175h-1.428v2.878
			c0,0.528,0.145,1.02,0.756,1.02c0.288,0,0.563-0.06,0.731-0.168l0.048,1.271c-0.336,0.096-0.707,0.144-1.188,0.144
			c-1.259,0-1.954-0.78-1.954-2.003V4.958z"/>
		<path style="fill:#FFFFFF;" d="M200.984,5.079c-0.491-0.168-0.852-0.264-1.439-0.264c-0.432,0-0.947,0.156-0.947,0.684
			c0,0.983,2.795,0.36,2.795,2.59c0,1.439-1.283,2.015-2.591,2.015c-0.611,0-1.235-0.108-1.823-0.264l0.097-1.319
			c0.503,0.252,1.031,0.408,1.583,0.408c0.407,0,1.055-0.156,1.055-0.756c0-1.211-2.794-0.384-2.794-2.614
			c0-1.332,1.163-1.919,2.423-1.919c0.755,0,1.247,0.12,1.751,0.228L200.984,5.079z"/>
		<path style="fill:#FFFFFF;" d="M5.022,16.783h1.703l1.367,4.57h0.023l1.248-4.57h1.871l1.343,4.57h0.024l1.283-4.57h1.535
			l-1.896,6.177H11.63l-1.344-4.713h-0.023L8.944,22.96H7.109L5.022,16.783z"/>
		<path style="fill:#FFFFFF;" d="M16.421,14.121h1.607v1.535h-1.607V14.121z M16.421,16.783h1.607v6.177h-1.607V16.783z"/>
		<path style="fill:#FFFFFF;" d="M20.249,17.958h-1.188v-1.175h1.188v-1.235l1.606-0.516v1.751h1.428v1.175h-1.428v2.878
			c0,0.528,0.145,1.02,0.756,1.02c0.288,0,0.563-0.06,0.731-0.168l0.048,1.271c-0.336,0.096-0.707,0.144-1.188,0.144
			c-1.259,0-1.954-0.78-1.954-2.003V17.958z"/>
		<path style="fill:#FFFFFF;" d="M24.389,13.965h1.607v3.658h0.023c0.408-0.6,1.104-0.983,1.943-0.983
			c1.463,0,2.099,1.031,2.099,2.422v3.898h-1.607v-3.298c0-0.755-0.012-1.775-1.043-1.775c-1.163,0-1.415,1.259-1.415,2.051v3.022
			h-1.607V13.965z"/>
		<path style="fill:#FFFFFF;" d="M35.333,17.107c0.623-0.288,1.463-0.468,2.146-0.468c1.883,0,2.662,0.779,2.662,2.603v0.792
			c0,0.624,0.013,1.091,0.024,1.547c0.012,0.468,0.036,0.9,0.072,1.379h-1.416c-0.06-0.324-0.06-0.731-0.071-0.923h-0.024
			c-0.372,0.684-1.175,1.067-1.907,1.067c-1.091,0-2.158-0.66-2.158-1.835c0-0.924,0.443-1.463,1.056-1.763
			c0.611-0.3,1.403-0.36,2.074-0.36h0.888c0-0.996-0.443-1.331-1.392-1.331c-0.684,0-1.367,0.264-1.906,0.671L35.333,17.107z
			 M37.216,21.929c0.491,0,0.875-0.216,1.127-0.552c0.264-0.348,0.336-0.792,0.336-1.271h-0.695c-0.72,0-1.787,0.12-1.787,1.067
			C36.197,21.701,36.64,21.929,37.216,21.929z"/>
		<path style="fill:#FFFFFF;" d="M45.399,18.079c-0.491-0.168-0.852-0.264-1.439-0.264c-0.432,0-0.947,0.156-0.947,0.684
			c0,0.983,2.795,0.36,2.795,2.59c0,1.439-1.283,2.015-2.591,2.015c-0.611,0-1.235-0.108-1.823-0.264l0.097-1.319
			c0.503,0.252,1.031,0.408,1.583,0.408c0.407,0,1.055-0.156,1.055-0.756c0-1.211-2.794-0.384-2.794-2.614
			c0-1.332,1.163-1.919,2.423-1.919c0.755,0,1.247,0.12,1.751,0.228L45.399,18.079z"/>
		<path style="fill:#FFFFFF;" d="M47.584,17.958h-1.188v-1.175h1.188v-1.235l1.607-0.516v1.751h1.427v1.175h-1.427v2.878
			c0,0.528,0.144,1.02,0.755,1.02c0.288,0,0.564-0.06,0.732-0.168l0.048,1.271c-0.336,0.096-0.708,0.144-1.188,0.144
			c-1.26,0-1.955-0.78-1.955-2.003V17.958z"/>
		<path style="fill:#FFFFFF;" d="M51.725,13.965h1.606v3.658h0.024c0.407-0.6,1.104-0.983,1.942-0.983c1.464,0,2.1,1.031,2.1,2.422
			v3.898H55.79v-3.298c0-0.755-0.012-1.775-1.043-1.775c-1.164,0-1.416,1.259-1.416,2.051v3.022h-1.606V13.965z"/>
		<path style="fill:#FFFFFF;" d="M59.033,16.783h1.499v0.864h0.024c0.504-0.756,1.235-1.007,1.835-1.007
			c0.863,0,1.475,0.324,1.823,1.091c0.371-0.744,1.175-1.091,1.931-1.091c1.523,0,1.955,1.043,1.955,2.422v3.898h-1.607v-3.682
			c0-0.576,0-1.391-0.924-1.391c-1.067,0-1.199,1.271-1.199,2.075v2.999h-1.606v-3.682c0-0.576,0-1.391-0.924-1.391
			c-1.067,0-1.199,1.271-1.199,2.075v2.999h-1.607V16.783z"/>
		<path style="fill:#FFFFFF;" d="M70,17.107c0.624-0.288,1.463-0.468,2.146-0.468c1.884,0,2.663,0.779,2.663,2.603v0.792
			c0,0.624,0.012,1.091,0.023,1.547c0.013,0.468,0.036,0.9,0.072,1.379h-1.415c-0.06-0.324-0.06-0.731-0.072-0.923h-0.023
			c-0.372,0.684-1.176,1.067-1.907,1.067c-1.092,0-2.159-0.66-2.159-1.835c0-0.924,0.444-1.463,1.056-1.763s1.403-0.36,2.075-0.36
			h0.888c0-0.996-0.444-1.331-1.392-1.331c-0.684,0-1.367,0.264-1.907,0.671L70,17.107z M71.883,21.929
			c0.492,0,0.876-0.216,1.128-0.552c0.264-0.348,0.336-0.792,0.336-1.271h-0.696c-0.72,0-1.787,0.12-1.787,1.067
			C70.864,21.701,71.308,21.929,71.883,21.929z"/>
		<path style="fill:#FFFFFF;" d="M85.406,22.96h-1.523v-0.839h-0.024c-0.491,0.6-1.187,0.983-2.026,0.983
			c-1.463,0-2.099-1.032-2.099-2.423v-3.898h1.606v3.298c0,0.755,0.013,1.775,1.044,1.775c1.163,0,1.415-1.259,1.415-2.051v-3.022
			h1.607V22.96z"/>
		<path style="fill:#FFFFFF;" d="M87.065,16.783h1.522v0.84h0.024c0.504-0.708,1.188-0.983,2.026-0.983c1.464,0,2.1,1.031,2.1,2.422
			v3.898H91.13v-3.298c0-0.755-0.012-1.775-1.043-1.775c-1.164,0-1.416,1.259-1.416,2.051v3.022h-1.606V16.783z"/>
		<path style="fill:#FFFFFF;" d="M98.403,18.115c-0.288-0.132-0.6-0.228-1.092-0.228c-0.995,0-1.631,0.792-1.631,1.955
			c0,1.139,0.539,2.015,1.667,2.015c0.456,0,0.959-0.168,1.235-0.288l0.071,1.331c-0.467,0.144-0.947,0.204-1.606,0.204
			c-2.027,0-3.047-1.379-3.047-3.262c0-1.787,1.056-3.202,2.986-3.202c0.648,0,1.116,0.072,1.56,0.204L98.403,18.115z"/>
		<path style="fill:#FFFFFF;" d="M102.555,16.64c1.835,0,3.237,1.235,3.237,3.274c0,1.775-1.187,3.19-3.237,3.19
			c-2.039,0-3.227-1.416-3.227-3.19C99.328,17.875,100.732,16.64,102.555,16.64z M102.555,21.856c1.234,0,1.559-1.104,1.559-2.135
			c0-0.947-0.504-1.835-1.559-1.835c-1.044,0-1.548,0.912-1.548,1.835C101.007,20.741,101.331,21.856,102.555,21.856z"/>
		<path style="fill:#FFFFFF;" d="M107.056,16.783h1.523v0.84h0.023c0.504-0.708,1.188-0.983,2.027-0.983
			c1.463,0,2.099,1.031,2.099,2.422v3.898h-1.607v-3.298c0-0.755-0.012-1.775-1.043-1.775c-1.163,0-1.415,1.259-1.415,2.051v3.022
			h-1.607V16.783z"/>
		<path style="fill:#FFFFFF;" d="M114.916,17.958h-1.188v-1.175h1.188v-1.235l1.606-0.516v1.751h1.428v1.175h-1.428v2.878
			c0,0.528,0.145,1.02,0.756,1.02c0.288,0,0.563-0.06,0.731-0.168l0.048,1.271c-0.336,0.096-0.707,0.144-1.188,0.144
			c-1.259,0-1.954-0.78-1.954-2.003V17.958z"/>
		<path style="fill:#FFFFFF;" d="M119.092,16.783h1.427v1.403h0.024c0.072-0.576,0.731-1.547,1.691-1.547
			c0.155,0,0.323,0,0.491,0.048v1.619c-0.144-0.084-0.432-0.132-0.72-0.132c-1.307,0-1.307,1.631-1.307,2.519v2.267h-1.607V16.783z"
			/>
		<path style="fill:#FFFFFF;" d="M126.339,16.64c1.835,0,3.237,1.235,3.237,3.274c0,1.775-1.187,3.19-3.237,3.19
			c-2.039,0-3.227-1.416-3.227-3.19C123.113,17.875,124.516,16.64,126.339,16.64z M126.339,21.856c1.234,0,1.559-1.104,1.559-2.135
			c0-0.947-0.504-1.835-1.559-1.835c-1.044,0-1.548,0.912-1.548,1.835C124.791,20.741,125.116,21.856,126.339,21.856z"/>
		<path style="fill:#FFFFFF;" d="M130.876,13.965h1.607v8.995h-1.607V13.965z"/>
		<path style="fill:#FFFFFF;" d="M134.212,13.965h1.607v8.995h-1.607V13.965z"/>
		<path style="fill:#FFFFFF;" d="M142.465,22.612c-0.587,0.324-1.259,0.492-2.122,0.492c-2.039,0-3.227-1.175-3.227-3.202
			c0-1.787,0.947-3.262,2.866-3.262c2.291,0,2.938,1.571,2.938,3.729h-4.27c0.072,0.996,0.768,1.56,1.763,1.56
			c0.779,0,1.451-0.288,2.051-0.624V22.612z M141.386,19.266c-0.048-0.78-0.408-1.451-1.308-1.451s-1.354,0.624-1.427,1.451H141.386
			z"/>
		<path style="fill:#FFFFFF;" d="M148.298,22.264h-0.024c-0.479,0.6-1.14,0.84-1.895,0.84c-1.896,0-2.591-1.559-2.591-3.25
			c0-1.703,0.695-3.214,2.591-3.214c0.803,0,1.367,0.275,1.847,0.863h0.023v-3.538h1.607v8.995h-1.559V22.264z M146.823,21.856
			c1.067,0,1.415-1.127,1.415-2.003c0-0.863-0.407-1.967-1.439-1.967c-1.043,0-1.331,1.14-1.331,1.967
			C145.467,20.705,145.767,21.856,146.823,21.856z"/>
		<path style="fill:#FFFFFF;" d="M157.683,16.64c1.835,0,3.237,1.235,3.237,3.274c0,1.775-1.187,3.19-3.237,3.19
			c-2.039,0-3.227-1.416-3.227-3.19C154.456,17.875,155.86,16.64,157.683,16.64z M157.683,21.856c1.234,0,1.559-1.104,1.559-2.135
			c0-0.947-0.504-1.835-1.559-1.835c-1.044,0-1.548,0.912-1.548,1.835C156.135,20.741,156.459,21.856,157.683,21.856z"/>
		<path style="fill:#FFFFFF;" d="M162.184,16.783h1.523v0.84h0.023c0.504-0.708,1.188-0.983,2.027-0.983
			c1.463,0,2.099,1.031,2.099,2.422v3.898h-1.607v-3.298c0-0.755-0.012-1.775-1.043-1.775c-1.163,0-1.415,1.259-1.415,2.051v3.022
			h-1.607V16.783z"/>
		<path style="fill:#FFFFFF;" d="M173.128,17.107c0.623-0.288,1.463-0.468,2.146-0.468c1.883,0,2.662,0.779,2.662,2.603v0.792
			c0,0.624,0.013,1.091,0.024,1.547c0.012,0.468,0.036,0.9,0.072,1.379h-1.416c-0.06-0.324-0.06-0.731-0.071-0.923h-0.024
			c-0.372,0.684-1.175,1.067-1.907,1.067c-1.091,0-2.158-0.66-2.158-1.835c0-0.924,0.443-1.463,1.056-1.763
			c0.611-0.3,1.403-0.36,2.074-0.36h0.888c0-0.996-0.443-1.331-1.392-1.331c-0.684,0-1.367,0.264-1.906,0.671L173.128,17.107z
			 M175.011,21.929c0.491,0,0.875-0.216,1.127-0.552c0.264-0.348,0.336-0.792,0.336-1.271h-0.695c-0.72,0-1.787,0.12-1.787,1.067
			C173.992,21.701,174.435,21.929,175.011,21.929z"/>
		<path style="fill:#FFFFFF;" d="M179.524,16.783h1.523v0.84h0.023c0.504-0.708,1.188-0.983,2.027-0.983
			c1.463,0,2.099,1.031,2.099,2.422v3.898h-1.607v-3.298c0-0.755-0.012-1.775-1.043-1.775c-1.163,0-1.415,1.259-1.415,2.051v3.022
			h-1.607V16.783z"/>
		<path style="fill:#FFFFFF;" d="M190.192,14.588h1.68v8.372h-1.68V14.588z"/>
		<path style="fill:#FFFFFF;" d="M199.764,22.84c-0.611,0.144-1.271,0.264-1.906,0.264c-2.711,0-4.594-1.355-4.594-4.186
			c0-2.866,1.751-4.473,4.594-4.473c0.552,0,1.283,0.108,1.895,0.348l-0.12,1.415c-0.636-0.36-1.211-0.444-1.811-0.444
			c-1.728,0-2.807,1.319-2.807,3.035c0,1.703,1.056,2.986,2.843,2.986c0.659,0,1.438-0.144,1.835-0.348L199.764,22.84z"/>
		<path style="fill:#FFFFFF;" d="M205.501,16.124c-0.527-0.228-1.115-0.36-1.703-0.36c-0.575,0-1.319,0.252-1.319,1.164
			c0,1.451,3.67,0.839,3.67,3.646c0,1.835-1.451,2.531-3.143,2.531c-0.911,0-1.318-0.12-2.146-0.324l0.156-1.511
			c0.575,0.312,1.235,0.516,1.895,0.516c0.636,0,1.487-0.324,1.487-1.08c0-1.595-3.67-0.936-3.67-3.706
			c0-1.871,1.451-2.554,2.927-2.554c0.72,0,1.391,0.096,2.003,0.3L205.501,16.124z"/>
		<path style="fill:#FFFFFF;" d="M16.762,29.64c1.835,0,3.237,1.235,3.237,3.274c0,1.775-1.187,3.19-3.237,3.19
			c-2.039,0-3.227-1.416-3.227-3.19C13.535,30.875,14.939,29.64,16.762,29.64z M16.762,34.856c1.234,0,1.559-1.104,1.559-2.135
			c0-0.947-0.504-1.835-1.559-1.835c-1.044,0-1.548,0.912-1.548,1.835C15.214,33.741,15.538,34.856,16.762,34.856z"/>
		<path style="fill:#FFFFFF;" d="M21.299,29.783h1.427v1.403h0.024c0.072-0.576,0.731-1.547,1.691-1.547
			c0.155,0,0.323,0,0.491,0.048v1.619c-0.144-0.084-0.432-0.132-0.72-0.132c-1.307,0-1.307,1.631-1.307,2.519v2.267h-1.607V29.783z"
			/>
		<path style="fill:#FFFFFF;" d="M28.572,29.783h1.703l1.367,4.57h0.023l1.248-4.57h1.871l1.343,4.57h0.024l1.283-4.57h1.535
			l-1.896,6.177H35.18l-1.344-4.713h-0.023l-1.319,4.713h-1.835L28.572,29.783z"/>
		<path style="fill:#FFFFFF;" d="M39.935,26.965h1.607v3.658h0.023c0.408-0.6,1.104-0.983,1.943-0.983
			c1.463,0,2.099,1.031,2.099,2.422v3.898H44v-3.298c0-0.755-0.012-1.775-1.043-1.775c-1.163,0-1.415,1.259-1.415,2.051v3.022
			h-1.607V26.965z"/>
		<path style="fill:#FFFFFF;" d="M50.098,29.64c1.835,0,3.237,1.235,3.237,3.274c0,1.775-1.187,3.19-3.237,3.19
			c-2.039,0-3.227-1.416-3.227-3.19C46.871,30.875,48.275,29.64,50.098,29.64z M50.098,34.856c1.234,0,1.559-1.104,1.559-2.135
			c0-0.947-0.504-1.835-1.559-1.835c-1.044,0-1.548,0.912-1.548,1.835C48.55,33.741,48.874,34.856,50.098,34.856z"/>
		<path style="fill:#FFFFFF;" d="M58.269,31.079c-0.491-0.168-0.852-0.264-1.439-0.264c-0.432,0-0.947,0.156-0.947,0.684
			c0,0.983,2.795,0.36,2.795,2.59c0,1.439-1.283,2.015-2.591,2.015c-0.611,0-1.235-0.108-1.823-0.264l0.097-1.319
			c0.503,0.252,1.031,0.408,1.583,0.408c0.407,0,1.055-0.156,1.055-0.756c0-1.211-2.794-0.384-2.794-2.614
			c0-1.332,1.163-1.919,2.423-1.919c0.755,0,1.247,0.12,1.751,0.228L58.269,31.079z"/>
		<path style="fill:#FFFFFF;" d="M64.88,35.612c-0.588,0.324-1.26,0.492-2.123,0.492c-2.039,0-3.227-1.175-3.227-3.202
			c0-1.787,0.948-3.262,2.867-3.262c2.29,0,2.938,1.571,2.938,3.729h-4.27c0.072,0.996,0.768,1.56,1.764,1.56
			c0.779,0,1.451-0.288,2.051-0.624V35.612z M63.8,32.266c-0.048-0.78-0.407-1.451-1.307-1.451s-1.355,0.624-1.428,1.451H63.8z"/>
		<path style="fill:#FFFFFF;" d="M74.048,35.264h-0.023c-0.48,0.6-1.14,0.84-1.896,0.84c-1.895,0-2.591-1.559-2.591-3.25
			c0-1.703,0.696-3.214,2.591-3.214c0.804,0,1.367,0.275,1.847,0.863H74v-3.538h1.607v8.995h-1.56V35.264z M72.574,34.856
			c1.067,0,1.415-1.127,1.415-2.003c0-0.863-0.408-1.967-1.439-1.967c-1.044,0-1.331,1.14-1.331,1.967
			C71.218,33.705,71.518,34.856,72.574,34.856z"/>
		<path style="fill:#FFFFFF;" d="M77.302,27.121h1.607v1.535h-1.607V27.121z M77.302,29.783h1.607v6.177h-1.607V29.783z"/>
		<path style="fill:#FFFFFF;" d="M84.273,31.079c-0.492-0.168-0.852-0.264-1.439-0.264c-0.432,0-0.947,0.156-0.947,0.684
			c0,0.983,2.794,0.36,2.794,2.59c0,1.439-1.283,2.015-2.59,2.015c-0.612,0-1.235-0.108-1.823-0.264l0.096-1.319
			c0.504,0.252,1.031,0.408,1.583,0.408c0.408,0,1.056-0.156,1.056-0.756c0-1.211-2.795-0.384-2.795-2.614
			c0-1.332,1.164-1.919,2.423-1.919c0.756,0,1.247,0.12,1.751,0.228L84.273,31.079z"/>
		<path style="fill:#FFFFFF;" d="M90.883,35.612c-0.587,0.324-1.259,0.492-2.122,0.492c-2.039,0-3.227-1.175-3.227-3.202
			c0-1.787,0.947-3.262,2.866-3.262c2.291,0,2.938,1.571,2.938,3.729h-4.27c0.072,0.996,0.768,1.56,1.763,1.56
			c0.779,0,1.451-0.288,2.051-0.624V35.612z M89.804,32.266c-0.048-0.78-0.408-1.451-1.308-1.451s-1.354,0.624-1.427,1.451H89.804z"
			/>
		<path style="fill:#FFFFFF;" d="M92.878,30.107c0.623-0.288,1.463-0.468,2.146-0.468c1.883,0,2.662,0.779,2.662,2.603v0.792
			c0,0.624,0.013,1.091,0.024,1.547c0.012,0.468,0.036,0.9,0.072,1.379h-1.416c-0.06-0.324-0.06-0.731-0.071-0.923h-0.024
			c-0.372,0.684-1.175,1.067-1.907,1.067c-1.091,0-2.158-0.66-2.158-1.835c0-0.924,0.443-1.463,1.056-1.763
			c0.611-0.3,1.403-0.36,2.074-0.36h0.888c0-0.996-0.443-1.331-1.392-1.331c-0.684,0-1.367,0.264-1.906,0.671L92.878,30.107z
			 M94.761,34.929c0.491,0,0.875-0.216,1.127-0.552c0.264-0.348,0.336-0.792,0.336-1.271h-0.695c-0.72,0-1.787,0.12-1.787,1.067
			C93.742,34.701,94.185,34.929,94.761,34.929z"/>
		<path style="fill:#FFFFFF;" d="M102.944,31.079c-0.491-0.168-0.852-0.264-1.439-0.264c-0.432,0-0.947,0.156-0.947,0.684
			c0,0.983,2.795,0.36,2.795,2.59c0,1.439-1.283,2.015-2.591,2.015c-0.611,0-1.235-0.108-1.823-0.264l0.097-1.319
			c0.503,0.252,1.031,0.408,1.583,0.408c0.407,0,1.055-0.156,1.055-0.756c0-1.211-2.794-0.384-2.794-2.614
			c0-1.332,1.163-1.919,2.423-1.919c0.755,0,1.247,0.12,1.751,0.228L102.944,31.079z"/>
		<path style="fill:#FFFFFF;" d="M109.555,35.612c-0.588,0.324-1.26,0.492-2.123,0.492c-2.039,0-3.227-1.175-3.227-3.202
			c0-1.787,0.948-3.262,2.867-3.262c2.29,0,2.938,1.571,2.938,3.729h-4.27c0.072,0.996,0.768,1.56,1.764,1.56
			c0.779,0,1.451-0.288,2.051-0.624V35.612z M108.475,32.266c-0.048-0.78-0.407-1.451-1.307-1.451s-1.355,0.624-1.428,1.451H108.475
			z"/>
		<path style="fill:#FFFFFF;" d="M118.28,31.079c-0.492-0.168-0.852-0.264-1.439-0.264c-0.432,0-0.947,0.156-0.947,0.684
			c0,0.983,2.794,0.36,2.794,2.59c0,1.439-1.283,2.015-2.59,2.015c-0.612,0-1.235-0.108-1.823-0.264l0.096-1.319
			c0.504,0.252,1.031,0.408,1.583,0.408c0.408,0,1.056-0.156,1.056-0.756c0-1.211-2.795-0.384-2.795-2.614
			c0-1.332,1.164-1.919,2.423-1.919c0.756,0,1.247,0.12,1.751,0.228L118.28,31.079z"/>
		<path style="fill:#FFFFFF;" d="M124.89,35.612c-0.587,0.324-1.259,0.492-2.122,0.492c-2.039,0-3.227-1.175-3.227-3.202
			c0-1.787,0.947-3.262,2.866-3.262c2.291,0,2.938,1.571,2.938,3.729h-4.27c0.072,0.996,0.768,1.56,1.763,1.56
			c0.779,0,1.451-0.288,2.051-0.624V35.612z M123.811,32.266c-0.048-0.78-0.408-1.451-1.308-1.451s-1.354,0.624-1.427,1.451H123.811
			z"/>
		<path style="fill:#FFFFFF;" d="M125.925,29.783h1.728l1.535,4.498h0.023l1.487-4.498h1.607l-2.279,6.177h-1.811L125.925,29.783z"
			/>
		<path style="fill:#FFFFFF;" d="M138.234,35.612c-0.587,0.324-1.259,0.492-2.122,0.492c-2.039,0-3.227-1.175-3.227-3.202
			c0-1.787,0.947-3.262,2.866-3.262c2.291,0,2.938,1.571,2.938,3.729h-4.27c0.072,0.996,0.768,1.56,1.763,1.56
			c0.779,0,1.451-0.288,2.051-0.624V35.612z M137.155,32.266c-0.048-0.78-0.408-1.451-1.308-1.451s-1.354,0.624-1.427,1.451H137.155
			z"/>
		<path style="fill:#FFFFFF;" d="M139.989,29.783h1.427v1.403h0.024c0.072-0.576,0.731-1.547,1.691-1.547
			c0.155,0,0.323,0,0.491,0.048v1.619c-0.144-0.084-0.432-0.132-0.72-0.132c-1.307,0-1.307,1.631-1.307,2.519v2.267h-1.607V29.783z"
			/>
		<path style="fill:#FFFFFF;" d="M144.657,27.121h1.607v1.535h-1.607V27.121z M144.657,29.783h1.607v6.177h-1.607V29.783z"/>
		<path style="fill:#FFFFFF;" d="M148.485,30.958h-1.188v-1.175h1.188v-1.235l1.606-0.516v1.751h1.428v1.175h-1.428v2.878
			c0,0.528,0.145,1.02,0.756,1.02c0.288,0,0.563-0.06,0.731-0.168l0.048,1.271c-0.336,0.096-0.707,0.144-1.188,0.144
			c-1.259,0-1.954-0.78-1.954-2.003V30.958z"/>
		<path style="fill:#FFFFFF;" d="M155.191,34.293h0.024l1.487-4.51h1.631l-2.314,6.129c-0.516,1.367-0.888,2.71-2.566,2.71
			c-0.384,0-0.768-0.06-1.14-0.168l0.107-1.188c0.204,0.072,0.432,0.108,0.828,0.108c0.647,0,1.043-0.443,1.043-1.103l-2.362-6.489
			h1.774L155.191,34.293z"/>
		<path style="fill:#FFFFFF;" d="M166.638,31.115c-0.288-0.132-0.6-0.228-1.092-0.228c-0.995,0-1.631,0.792-1.631,1.955
			c0,1.139,0.54,2.015,1.667,2.015c0.456,0,0.96-0.168,1.235-0.288l0.072,1.331c-0.468,0.144-0.947,0.204-1.607,0.204
			c-2.026,0-3.046-1.379-3.046-3.262c0-1.787,1.056-3.202,2.986-3.202c0.647,0,1.115,0.072,1.559,0.204L166.638,31.115z"/>
		<path style="fill:#FFFFFF;" d="M167.995,26.965h1.607v8.995h-1.607V26.965z"/>
		<path style="fill:#FFFFFF;" d="M176.249,35.612c-0.588,0.324-1.26,0.492-2.123,0.492c-2.039,0-3.227-1.175-3.227-3.202
			c0-1.787,0.948-3.262,2.867-3.262c2.29,0,2.938,1.571,2.938,3.729h-4.27c0.072,0.996,0.768,1.56,1.764,1.56
			c0.779,0,1.451-0.288,2.051-0.624V35.612z M175.169,32.266c-0.048-0.78-0.407-1.451-1.307-1.451s-1.355,0.624-1.428,1.451H175.169
			z"/>
		<path style="fill:#FFFFFF;" d="M178.243,30.107c0.624-0.288,1.463-0.468,2.146-0.468c1.884,0,2.663,0.779,2.663,2.603v0.792
			c0,0.624,0.012,1.091,0.023,1.547c0.013,0.468,0.036,0.9,0.072,1.379h-1.415c-0.06-0.324-0.06-0.731-0.072-0.923h-0.023
			c-0.372,0.684-1.176,1.067-1.907,1.067c-1.092,0-2.159-0.66-2.159-1.835c0-0.924,0.444-1.463,1.056-1.763s1.403-0.36,2.075-0.36
			h0.888c0-0.996-0.444-1.331-1.392-1.331c-0.684,0-1.367,0.264-1.907,0.671L178.243,30.107z M180.126,34.929
			c0.492,0,0.876-0.216,1.128-0.552c0.264-0.348,0.336-0.792,0.336-1.271h-0.696c-0.72,0-1.787,0.12-1.787,1.067
			C179.107,34.701,179.551,34.929,180.126,34.929z"/>
		<path style="fill:#FFFFFF;" d="M184.675,29.783h1.428v1.403h0.024c0.071-0.576,0.731-1.547,1.69-1.547
			c0.156,0,0.324,0,0.492,0.048v1.619c-0.145-0.084-0.432-0.132-0.72-0.132c-1.308,0-1.308,1.631-1.308,2.519v2.267h-1.607V29.783z"
			/>
		<path style="fill:#FFFFFF;" d="M189.343,26.965h1.607v8.995h-1.607V26.965z"/>
		<path style="fill:#FFFFFF;" d="M195.21,34.293h0.023l1.487-4.51h1.632l-2.315,6.129c-0.516,1.367-0.888,2.71-2.566,2.71
			c-0.384,0-0.768-0.06-1.14-0.168l0.108-1.188c0.204,0.072,0.432,0.108,0.827,0.108c0.647,0,1.044-0.443,1.044-1.103l-2.363-6.489
			h1.775L195.21,34.293z"/>
		<path style="fill:#FFFFFF;" d="M43.919,42.783h1.703l1.367,4.57h0.023l1.248-4.57h1.871l1.343,4.57h0.024l1.283-4.57h1.535
			l-1.896,6.177h-1.895l-1.344-4.713H49.16l-1.319,4.713h-1.835L43.919,42.783z"/>
		<path style="fill:#FFFFFF;" d="M55.559,43.107c0.623-0.288,1.463-0.468,2.146-0.468c1.883,0,2.662,0.779,2.662,2.603v0.792
			c0,0.624,0.013,1.091,0.024,1.547c0.012,0.468,0.036,0.9,0.072,1.379h-1.416c-0.06-0.324-0.06-0.731-0.071-0.923h-0.024
			c-0.372,0.684-1.175,1.067-1.907,1.067c-1.091,0-2.158-0.66-2.158-1.835c0-0.924,0.443-1.463,1.056-1.763
			c0.611-0.3,1.403-0.36,2.074-0.36h0.888c0-0.996-0.443-1.331-1.392-1.331c-0.684,0-1.367,0.264-1.906,0.671L55.559,43.107z
			 M57.442,47.929c0.491,0,0.875-0.216,1.127-0.552c0.264-0.348,0.336-0.792,0.336-1.271h-0.695c-0.72,0-1.787,0.12-1.787,1.067
			C56.422,47.701,56.866,47.929,57.442,47.929z"/>
		<path style="fill:#FFFFFF;" d="M61.991,42.783h1.427v1.403h0.024c0.072-0.576,0.731-1.547,1.691-1.547
			c0.155,0,0.323,0,0.491,0.048v1.619c-0.144-0.084-0.432-0.132-0.72-0.132c-1.307,0-1.307,1.631-1.307,2.519v2.267h-1.607V42.783z"
			/>
		<path style="fill:#FFFFFF;" d="M66.659,42.783h1.427v1.403h0.024c0.072-0.576,0.731-1.547,1.691-1.547
			c0.155,0,0.323,0,0.491,0.048v1.619c-0.144-0.084-0.432-0.132-0.72-0.132c-1.307,0-1.307,1.631-1.307,2.519v2.267h-1.607V42.783z"
			/>
		<path style="fill:#FFFFFF;" d="M71.567,43.107c0.623-0.288,1.463-0.468,2.146-0.468c1.883,0,2.662,0.779,2.662,2.603v0.792
			c0,0.624,0.013,1.091,0.024,1.547c0.012,0.468,0.036,0.9,0.072,1.379h-1.416c-0.06-0.324-0.06-0.731-0.071-0.923H74.96
			c-0.372,0.684-1.175,1.067-1.907,1.067c-1.091,0-2.158-0.66-2.158-1.835c0-0.924,0.443-1.463,1.056-1.763
			c0.611-0.3,1.403-0.36,2.074-0.36h0.888c0-0.996-0.443-1.331-1.392-1.331c-0.684,0-1.367,0.264-1.906,0.671L71.567,43.107z
			 M73.45,47.929c0.491,0,0.875-0.216,1.127-0.552c0.264-0.348,0.336-0.792,0.336-1.271h-0.695c-0.72,0-1.787,0.12-1.787,1.067
			C72.43,47.701,72.873,47.929,73.45,47.929z"/>
		<path style="fill:#FFFFFF;" d="M77.962,42.783h1.523v0.84h0.023c0.504-0.708,1.188-0.983,2.027-0.983
			c1.463,0,2.099,1.031,2.099,2.422v3.898h-1.607v-3.298c0-0.755-0.012-1.775-1.043-1.775c-1.163,0-1.415,1.259-1.415,2.051v3.022
			h-1.607V42.783z"/>
		<path style="fill:#FFFFFF;" d="M85.823,43.958h-1.188v-1.175h1.188v-1.235l1.606-0.516v1.751h1.428v1.175h-1.428v2.878
			c0,0.528,0.145,1.02,0.756,1.02c0.288,0,0.563-0.06,0.731-0.168l0.048,1.271c-0.336,0.096-0.707,0.144-1.188,0.144
			c-1.259,0-1.954-0.78-1.954-2.003V43.958z"/>
		<path style="fill:#FFFFFF;" d="M93.632,44.079c-0.491-0.168-0.852-0.264-1.439-0.264c-0.432,0-0.947,0.156-0.947,0.684
			c0,0.983,2.795,0.36,2.795,2.59c0,1.439-1.283,2.015-2.591,2.015c-0.611,0-1.235-0.108-1.823-0.264l0.097-1.319
			c0.503,0.252,1.031,0.408,1.583,0.408c0.407,0,1.055-0.156,1.055-0.756c0-1.211-2.794-0.384-2.794-2.614
			c0-1.332,1.163-1.919,2.423-1.919c0.755,0,1.247,0.12,1.751,0.228L93.632,44.079z"/>
		<path style="fill:#FFFFFF;" d="M98.902,43.107c0.624-0.288,1.463-0.468,2.146-0.468c1.884,0,2.663,0.779,2.663,2.603v0.792
			c0,0.624,0.012,1.091,0.023,1.547c0.013,0.468,0.036,0.9,0.072,1.379h-1.415c-0.06-0.324-0.06-0.731-0.072-0.923h-0.023
			c-0.372,0.684-1.176,1.067-1.907,1.067c-1.092,0-2.159-0.66-2.159-1.835c0-0.924,0.444-1.463,1.056-1.763s1.403-0.36,2.075-0.36
			h0.888c0-0.996-0.444-1.331-1.392-1.331c-0.684,0-1.367,0.264-1.907,0.671L98.902,43.107z M100.785,47.929
			c0.492,0,0.876-0.216,1.128-0.552c0.264-0.348,0.336-0.792,0.336-1.271h-0.696c-0.72,0-1.787,0.12-1.787,1.067
			C99.765,47.701,100.209,47.929,100.785,47.929z"/>
		<path style="fill:#FFFFFF;" d="M105.298,42.783h1.522v0.84h0.024c0.504-0.708,1.188-0.983,2.026-0.983
			c1.464,0,2.1,1.031,2.1,2.422v3.898h-1.607v-3.298c0-0.755-0.012-1.775-1.043-1.775c-1.164,0-1.416,1.259-1.416,2.051v3.022
			h-1.606V42.783z"/>
		<path style="fill:#FFFFFF;" d="M115.966,40.588h1.679v8.372h-1.679V40.588z"/>
		<path style="fill:#FFFFFF;" d="M125.538,48.84c-0.611,0.144-1.271,0.264-1.907,0.264c-2.71,0-4.594-1.355-4.594-4.186
			c0-2.866,1.752-4.473,4.594-4.473c0.552,0,1.283,0.108,1.896,0.348l-0.12,1.415c-0.636-0.36-1.212-0.444-1.812-0.444
			c-1.727,0-2.806,1.319-2.806,3.035c0,1.703,1.055,2.986,2.842,2.986c0.66,0,1.439-0.144,1.835-0.348L125.538,48.84z"/>
		<path style="fill:#FFFFFF;" d="M131.275,42.124c-0.527-0.228-1.115-0.36-1.702-0.36c-0.576,0-1.319,0.252-1.319,1.164
			c0,1.451,3.67,0.839,3.67,3.646c0,1.835-1.451,2.531-3.143,2.531c-0.911,0-1.319-0.12-2.146-0.324l0.155-1.511
			c0.576,0.312,1.235,0.516,1.896,0.516c0.636,0,1.487-0.324,1.487-1.08c0-1.595-3.67-0.936-3.67-3.706
			c0-1.871,1.451-2.554,2.926-2.554c0.72,0,1.392,0.096,2.003,0.3L131.275,42.124z"/>
		<path style="fill:#FFFFFF;" d="M135.657,40.445h1.247l-2.927,8.659h-1.247L135.657,40.445z"/>
		<path style="fill:#FFFFFF;" d="M138.118,40.588h1.679v7.052h3.251v1.319h-4.93V40.588z"/>
		<path style="fill:#FFFFFF;" d="M146.516,40.588h1.896l3.286,8.372h-1.859l-0.72-1.919h-3.394l-0.731,1.919h-1.739L146.516,40.588z
			 M147.44,42.268h-0.024l-1.211,3.454h2.446L147.44,42.268z"/>
		<path style="fill:#FFFFFF;" d="M152.782,40.588h2.927c1.079,0,2.698,0.312,2.698,2.147c0,0.996-0.672,1.691-1.667,1.871v0.024
			c1.14,0.108,1.919,0.875,1.919,1.907c0,2.111-1.896,2.423-2.95,2.423h-2.927V40.588z M154.46,43.971h0.684
			c0.708,0,1.584-0.156,1.584-1.02c0-0.971-0.852-1.043-1.619-1.043h-0.648V43.971z M154.46,47.641h0.792
			c0.779,0,1.727-0.192,1.727-1.163c0-1.092-0.887-1.26-1.727-1.26h-0.792V47.641z"/>
		<path style="fill:#FFFFFF;" d="M162.512,40.588h1.896l3.286,8.372h-1.859l-0.72-1.919h-3.394l-0.731,1.919h-1.739L162.512,40.588z
			 M163.436,42.268h-0.024l-1.211,3.454h2.446L163.436,42.268z"/>
		<path style="fill:#FFFFFF;" d="M22.751,59.588h2.926c1.079,0,2.698,0.312,2.698,2.147c0,0.996-0.671,1.691-1.667,1.871v0.024
			c1.14,0.108,1.919,0.875,1.919,1.907c0,2.111-1.895,2.423-2.95,2.423h-2.926V59.588z M24.43,62.971h0.684
			c0.708,0,1.583-0.156,1.583-1.02c0-0.971-0.852-1.043-1.619-1.043H24.43V62.971z M24.43,66.641h0.791
			c0.78,0,1.728-0.192,1.728-1.163c0-1.092-0.888-1.26-1.728-1.26H24.43V66.641z"/>
		<path style="fill:#FFFFFF;" d="M29.939,59.588h1.812c1.799,0,3.945-0.06,3.945,2.267c0,0.983-0.659,1.799-1.727,1.943v0.024
			c0.455,0.036,0.72,0.492,0.887,0.863L36.2,67.96h-1.871l-1.008-2.615c-0.239-0.624-0.455-0.863-1.163-0.863h-0.539v3.478h-1.68
			V59.588z M31.619,63.163h0.551c0.828,0,1.775-0.12,1.775-1.164c0-1.007-0.936-1.091-1.775-1.091h-0.551V63.163z"/>
		<path style="fill:#FFFFFF;" d="M37.415,59.588h4.94v1.319h-3.262v2.063h2.986v1.319h-2.986v2.351h3.286v1.319h-4.965V59.588z"/>
		<path style="fill:#FFFFFF;" d="M47.781,59.445c2.627,0,4.102,1.775,4.102,4.306c0,2.53-1.451,4.354-4.102,4.354
			c-2.687,0-4.102-1.787-4.102-4.354C43.679,61.184,45.119,59.445,47.781,59.445z M47.781,66.785c1.715,0,2.351-1.523,2.351-3.034
			c0-1.476-0.684-2.987-2.351-2.987s-2.351,1.511-2.351,2.987C45.43,65.261,46.066,66.785,47.781,66.785z"/>
		<path style="fill:#FFFFFF;" d="M56.651,59.121h1.607v1.535h-1.607V59.121z M56.651,61.783h1.607v6.177h-1.607V61.783z"/>
		<path style="fill:#FFFFFF;" d="M63.62,63.079c-0.491-0.168-0.852-0.264-1.439-0.264c-0.432,0-0.947,0.156-0.947,0.684
			c0,0.983,2.795,0.36,2.795,2.59c0,1.439-1.283,2.015-2.591,2.015c-0.611,0-1.235-0.108-1.823-0.264l0.097-1.319
			c0.503,0.252,1.031,0.408,1.583,0.408c0.407,0,1.055-0.156,1.055-0.756c0-1.211-2.794-0.384-2.794-2.614
			c0-1.332,1.163-1.919,2.423-1.919c0.755,0,1.247,0.12,1.751,0.228L63.62,63.079z"/>
		<path style="fill:#FFFFFF;" d="M68.674,59.588h2.062l3.19,6.261h0.024v-6.261h1.606v8.372h-2.051l-3.202-6.261h-0.023v6.261
			h-1.607V59.588z"/>
		<path style="fill:#FFFFFF;" d="M81.117,59.445c2.626,0,4.102,1.775,4.102,4.306c0,2.53-1.451,4.354-4.102,4.354
			c-2.687,0-4.103-1.787-4.103-4.354C77.014,61.184,78.453,59.445,81.117,59.445z M81.117,66.785c1.715,0,2.351-1.523,2.351-3.034
			c0-1.476-0.684-2.987-2.351-2.987s-2.351,1.511-2.351,2.987C78.766,65.261,79.401,66.785,81.117,66.785z"/>
		<path style="fill:#FFFFFF;" d="M88.282,60.908h-2.399v-1.319h6.477v1.319H89.96v7.052h-1.679V60.908z"/>
		<path style="fill:#FFFFFF;" d="M96.658,59.121h1.607v1.535h-1.607V59.121z M96.658,61.783h1.607v6.177h-1.607V61.783z"/>
		<path style="fill:#FFFFFF;" d="M99.958,61.783h1.522v0.84h0.024c0.504-0.708,1.188-0.983,2.026-0.983c1.464,0,2.1,1.031,2.1,2.422
			v3.898h-1.607v-3.298c0-0.755-0.012-1.775-1.043-1.775c-1.164,0-1.416,1.259-1.416,2.051v3.022h-1.606V61.783z"/>
		<path style="fill:#FFFFFF;" d="M111.404,67.264h-0.023c-0.48,0.6-1.14,0.84-1.896,0.84c-1.895,0-2.591-1.559-2.591-3.25
			c0-1.703,0.696-3.214,2.591-3.214c0.804,0,1.367,0.275,1.847,0.863h0.024v-3.538h1.607v8.995h-1.56V67.264z M109.929,66.856
			c1.067,0,1.415-1.127,1.415-2.003c0-0.863-0.408-1.967-1.439-1.967c-1.044,0-1.331,1.14-1.331,1.967
			C108.574,65.705,108.873,66.856,109.929,66.856z"/>
		<path style="fill:#FFFFFF;" d="M114.658,59.121h1.607v1.535h-1.607V59.121z M114.658,61.783h1.607v6.177h-1.607V61.783z"/>
		<path style="fill:#FFFFFF;" d="M121.964,63.115c-0.288-0.132-0.6-0.228-1.092-0.228c-0.995,0-1.631,0.792-1.631,1.955
			c0,1.139,0.539,2.015,1.667,2.015c0.456,0,0.959-0.168,1.235-0.288l0.071,1.331c-0.467,0.144-0.947,0.204-1.606,0.204
			c-2.027,0-3.047-1.379-3.047-3.262c0-1.787,1.056-3.202,2.986-3.202c0.648,0,1.116,0.072,1.56,0.204L121.964,63.115z"/>
		<path style="fill:#FFFFFF;" d="M123.562,62.107c0.623-0.288,1.463-0.468,2.147-0.468c1.883,0,2.662,0.779,2.662,2.603v0.792
			c0,0.624,0.013,1.091,0.024,1.547c0.012,0.468,0.036,0.9,0.072,1.379h-1.416c-0.06-0.324-0.06-0.731-0.071-0.923h-0.024
			c-0.372,0.684-1.175,1.067-1.907,1.067c-1.091,0-2.158-0.66-2.158-1.835c0-0.924,0.443-1.463,1.056-1.763
			c0.611-0.3,1.403-0.36,2.074-0.36h0.888c0-0.996-0.443-1.331-1.392-1.331c-0.684,0-1.367,0.264-1.906,0.671L123.562,62.107z
			 M125.445,66.929c0.491,0,0.875-0.216,1.127-0.552c0.264-0.348,0.336-0.792,0.336-1.271h-0.695c-0.72,0-1.787,0.12-1.787,1.067
			C124.425,66.701,124.869,66.929,125.445,66.929z"/>
		<path style="fill:#FFFFFF;" d="M130.486,62.958h-1.188v-1.175h1.188v-1.235l1.606-0.516v1.751h1.428v1.175h-1.428v2.878
			c0,0.528,0.145,1.02,0.756,1.02c0.288,0,0.563-0.06,0.731-0.168l0.048,1.271c-0.336,0.096-0.707,0.144-1.188,0.144
			c-1.259,0-1.954-0.78-1.954-2.003V62.958z"/>
		<path style="fill:#FFFFFF;" d="M139.578,67.612c-0.587,0.324-1.259,0.492-2.122,0.492c-2.039,0-3.227-1.175-3.227-3.202
			c0-1.787,0.947-3.262,2.866-3.262c2.291,0,2.938,1.571,2.938,3.729h-4.27c0.072,0.996,0.768,1.56,1.763,1.56
			c0.779,0,1.451-0.288,2.051-0.624V67.612z M138.499,64.266c-0.048-0.78-0.408-1.451-1.308-1.451s-1.354,0.624-1.427,1.451H138.499
			z"/>
		<path style="fill:#FFFFFF;" d="M145.411,67.264h-0.024c-0.479,0.6-1.14,0.84-1.895,0.84c-1.896,0-2.591-1.559-2.591-3.25
			c0-1.703,0.695-3.214,2.591-3.214c0.803,0,1.367,0.275,1.847,0.863h0.023v-3.538h1.607v8.995h-1.559V67.264z M143.936,66.856
			c1.067,0,1.415-1.127,1.415-2.003c0-0.863-0.407-1.967-1.439-1.967c-1.043,0-1.331,1.14-1.331,1.967
			C142.58,65.705,142.88,66.856,143.936,66.856z"/>
		<path style="fill:#FFFFFF;" d="M152.553,62.958h-1.188v-1.175h1.188V60.92c0-1.235,0.695-2.099,1.967-2.099
			c0.408,0,0.863,0.06,1.176,0.132l-0.132,1.331c-0.145-0.084-0.349-0.216-0.696-0.216c-0.539,0-0.707,0.468-0.707,0.947v0.768
			h1.403v1.175h-1.403v5.001h-1.607V62.958z"/>
		<path style="fill:#FFFFFF;" d="M159.464,61.64c1.835,0,3.237,1.235,3.237,3.274c0,1.775-1.187,3.19-3.237,3.19
			c-2.039,0-3.227-1.416-3.227-3.19C156.238,62.875,157.641,61.64,159.464,61.64z M159.464,66.856c1.234,0,1.559-1.104,1.559-2.135
			c0-0.947-0.504-1.835-1.559-1.835c-1.044,0-1.548,0.912-1.548,1.835C157.916,65.741,158.241,66.856,159.464,66.856z"/>
		<path style="fill:#FFFFFF;" d="M164.001,61.783h1.427v1.403h0.024c0.072-0.576,0.731-1.547,1.691-1.547
			c0.155,0,0.323,0,0.491,0.048v1.619c-0.144-0.084-0.432-0.132-0.72-0.132c-1.307,0-1.307,1.631-1.307,2.519v2.267h-1.607V61.783z"
			/>
		<path style="fill:#FFFFFF;" d="M172.497,62.958h-1.188v-1.175h1.188v-1.235l1.606-0.516v1.751h1.428v1.175h-1.428v2.878
			c0,0.528,0.145,1.02,0.756,1.02c0.288,0,0.563-0.06,0.731-0.168l0.048,1.271c-0.336,0.096-0.707,0.144-1.188,0.144
			c-1.259,0-1.954-0.78-1.954-2.003V62.958z"/>
		<path style="fill:#FFFFFF;" d="M176.637,58.965h1.607v3.658h0.023c0.408-0.6,1.104-0.983,1.943-0.983
			c1.463,0,2.099,1.031,2.099,2.422v3.898h-1.607v-3.298c0-0.755-0.012-1.775-1.043-1.775c-1.163,0-1.415,1.259-1.415,2.051v3.022
			h-1.607V58.965z"/>
		<path style="fill:#FFFFFF;" d="M188.922,67.612c-0.587,0.324-1.259,0.492-2.122,0.492c-2.039,0-3.227-1.175-3.227-3.202
			c0-1.787,0.947-3.262,2.866-3.262c2.291,0,2.938,1.571,2.938,3.729h-4.27c0.072,0.996,0.768,1.56,1.763,1.56
			c0.779,0,1.451-0.288,2.051-0.624V67.612z M187.843,64.266c-0.048-0.78-0.408-1.451-1.308-1.451s-1.354,0.624-1.427,1.451H187.843
			z"/>
		<path style="fill:#FFFFFF;" d="M24.869,74.783h1.428v1.403h0.024c0.071-0.576,0.731-1.547,1.69-1.547c0.156,0,0.324,0,0.492,0.048
			v1.619c-0.145-0.084-0.432-0.132-0.72-0.132c-1.308,0-1.308,1.631-1.308,2.519v2.267h-1.607V74.783z"/>
		<path style="fill:#FFFFFF;" d="M34.239,80.612c-0.588,0.324-1.26,0.492-2.123,0.492c-2.039,0-3.227-1.175-3.227-3.202
			c0-1.787,0.948-3.262,2.867-3.262c2.29,0,2.937,1.571,2.937,3.729h-4.27c0.072,0.996,0.768,1.56,1.764,1.56
			c0.779,0,1.451-0.288,2.051-0.624V80.612z M33.159,77.266c-0.048-0.78-0.407-1.451-1.307-1.451c-0.899,0-1.355,0.624-1.428,1.451
			H33.159z"/>
		<path style="fill:#FFFFFF;" d="M35.993,71.965H37.6v8.995h-1.607V71.965z"/>
		<path style="fill:#FFFFFF;" d="M39.328,72.121h1.607v1.535h-1.607V72.121z M39.328,74.783h1.607v6.177h-1.607V74.783z"/>
		<path style="fill:#FFFFFF;" d="M47.582,80.612c-0.588,0.324-1.26,0.492-2.123,0.492c-2.039,0-3.227-1.175-3.227-3.202
			c0-1.787,0.948-3.262,2.867-3.262c2.29,0,2.938,1.571,2.938,3.729h-4.27c0.072,0.996,0.768,1.56,1.764,1.56
			c0.779,0,1.451-0.288,2.051-0.624V80.612z M46.502,77.266c-0.048-0.78-0.407-1.451-1.307-1.451s-1.355,0.624-1.428,1.451H46.502z"
			/>
		<path style="fill:#FFFFFF;" d="M49.888,75.958h-1.187v-1.175h1.187V73.92c0-1.235,0.696-2.099,1.968-2.099
			c0.407,0,0.863,0.06,1.175,0.132l-0.132,1.331c-0.144-0.084-0.348-0.216-0.695-0.216c-0.54,0-0.708,0.468-0.708,0.947v0.768h1.403
			v1.175h-1.403v5.001h-1.607V75.958z"/>
		<path style="fill:#FFFFFF;" d="M60.135,74.64c1.835,0,3.238,1.235,3.238,3.274c0,1.775-1.188,3.19-3.238,3.19
			c-2.039,0-3.227-1.416-3.227-3.19C56.909,75.875,58.312,74.64,60.135,74.64z M60.135,79.856c1.235,0,1.56-1.104,1.56-2.135
			c0-0.947-0.504-1.835-1.56-1.835c-1.043,0-1.547,0.912-1.547,1.835C58.588,78.741,58.911,79.856,60.135,79.856z"/>
		<path style="fill:#FFFFFF;" d="M65.224,75.958h-1.187v-1.175h1.187V73.92c0-1.235,0.696-2.099,1.968-2.099
			c0.407,0,0.863,0.06,1.175,0.132l-0.132,1.331c-0.144-0.084-0.348-0.216-0.695-0.216c-0.54,0-0.708,0.468-0.708,0.947v0.768h1.403
			v1.175h-1.403v5.001h-1.607V75.958z"/>
		<path style="fill:#FFFFFF;" d="M72.916,75.107c0.624-0.288,1.463-0.468,2.146-0.468c1.884,0,2.663,0.779,2.663,2.603v0.792
			c0,0.624,0.012,1.091,0.023,1.547c0.013,0.468,0.036,0.9,0.072,1.379h-1.415c-0.06-0.324-0.06-0.731-0.072-0.923h-0.023
			c-0.372,0.684-1.176,1.067-1.907,1.067c-1.092,0-2.159-0.66-2.159-1.835c0-0.924,0.444-1.463,1.056-1.763s1.403-0.36,2.075-0.36
			h0.888c0-0.996-0.444-1.331-1.392-1.331c-0.684,0-1.367,0.264-1.907,0.671L72.916,75.107z M74.799,79.929
			c0.492,0,0.876-0.216,1.128-0.552c0.264-0.348,0.336-0.792,0.336-1.271h-0.696c-0.72,0-1.787,0.12-1.787,1.067
			C73.78,79.701,74.224,79.929,74.799,79.929z"/>
		<path style="fill:#FFFFFF;" d="M83.319,76.115c-0.288-0.132-0.6-0.228-1.092-0.228c-0.995,0-1.631,0.792-1.631,1.955
			c0,1.139,0.539,2.015,1.667,2.015c0.456,0,0.959-0.168,1.235-0.288L83.57,80.9c-0.467,0.144-0.947,0.204-1.606,0.204
			c-2.027,0-3.047-1.379-3.047-3.262c0-1.787,1.056-3.202,2.986-3.202c0.648,0,1.116,0.072,1.56,0.204L83.319,76.115z"/>
		<path style="fill:#FFFFFF;" d="M90.313,80.96h-1.523v-0.839h-0.023c-0.492,0.6-1.188,0.983-2.027,0.983
			c-1.463,0-2.099-1.032-2.099-2.423v-3.898h1.607v3.298c0,0.755,0.012,1.775,1.043,1.775c1.164,0,1.415-1.259,1.415-2.051v-3.022
			h1.607V80.96z"/>
		<path style="fill:#FFFFFF;" d="M92.5,75.958h-1.188v-1.175H92.5v-1.235l1.606-0.516v1.751h1.428v1.175h-1.428v2.878
			c0,0.528,0.145,1.02,0.756,1.02c0.288,0,0.563-0.06,0.731-0.168l0.048,1.271c-0.336,0.096-0.707,0.144-1.188,0.144
			c-1.259,0-1.954-0.78-1.954-2.003V75.958z"/>
		<path style="fill:#FFFFFF;" d="M101.593,80.612c-0.587,0.324-1.259,0.492-2.122,0.492c-2.039,0-3.227-1.175-3.227-3.202
			c0-1.787,0.947-3.262,2.866-3.262c2.291,0,2.938,1.571,2.938,3.729h-4.27c0.072,0.996,0.768,1.56,1.763,1.56
			c0.779,0,1.451-0.288,2.051-0.624V80.612z M100.514,77.266c-0.048-0.78-0.408-1.451-1.308-1.451s-1.354,0.624-1.427,1.451H100.514
			z"/>
		<path style="fill:#FFFFFF;" d="M106.648,71.965h1.607v3.61h0.023c0.444-0.587,1.008-0.935,1.848-0.935
			c1.895,0,2.59,1.511,2.59,3.214c0,1.691-0.695,3.25-2.59,3.25c-0.684,0-1.428-0.24-1.896-0.899h-0.023v0.755h-1.56V71.965z
			 M109.682,79.856c1.056,0,1.355-1.151,1.355-2.003c0-0.827-0.288-1.967-1.331-1.967c-1.031,0-1.439,1.104-1.439,1.967
			C108.267,78.729,108.615,79.856,109.682,79.856z"/>
		<path style="fill:#FFFFFF;" d="M114.016,74.783h1.427v1.403h0.024c0.072-0.576,0.731-1.547,1.691-1.547
			c0.155,0,0.323,0,0.491,0.048v1.619c-0.144-0.084-0.432-0.132-0.72-0.132c-1.307,0-1.307,1.631-1.307,2.519v2.267h-1.607V74.783z"
			/>
		<path style="fill:#FFFFFF;" d="M121.263,74.64c1.835,0,3.237,1.235,3.237,3.274c0,1.775-1.187,3.19-3.237,3.19
			c-2.039,0-3.227-1.416-3.227-3.19C118.036,75.875,119.44,74.64,121.263,74.64z M121.263,79.856c1.234,0,1.559-1.104,1.559-2.135
			c0-0.947-0.504-1.835-1.559-1.835c-1.044,0-1.548,0.912-1.548,1.835C119.715,78.741,120.039,79.856,121.263,79.856z"/>
		<path style="fill:#FFFFFF;" d="M125.764,74.783h1.523v0.84h0.023c0.504-0.708,1.187-0.983,2.027-0.983
			c1.463,0,2.099,1.031,2.099,2.422v3.898h-1.607v-3.298c0-0.755-0.012-1.775-1.043-1.775c-1.163,0-1.415,1.259-1.415,2.051v3.022
			h-1.607V74.783z"/>
		<path style="fill:#FFFFFF;" d="M137.102,76.115c-0.288-0.132-0.6-0.228-1.092-0.228c-0.995,0-1.631,0.792-1.631,1.955
			c0,1.139,0.54,2.015,1.667,2.015c0.456,0,0.96-0.168,1.235-0.288l0.072,1.331c-0.468,0.144-0.947,0.204-1.607,0.204
			c-2.026,0-3.046-1.379-3.046-3.262c0-1.787,1.056-3.202,2.986-3.202c0.647,0,1.115,0.072,1.559,0.204L137.102,76.115z"/>
		<path style="fill:#FFFFFF;" d="M138.424,71.965h1.606v3.658h0.024c0.407-0.6,1.104-0.983,1.942-0.983c1.464,0,2.1,1.031,2.1,2.422
			v3.898h-1.607v-3.298c0-0.755-0.012-1.775-1.043-1.775c-1.164,0-1.416,1.259-1.416,2.051v3.022h-1.606V71.965z"/>
		<path style="fill:#FFFFFF;" d="M148.586,74.64c1.835,0,3.238,1.235,3.238,3.274c0,1.775-1.188,3.19-3.238,3.19
			c-2.039,0-3.227-1.416-3.227-3.19C145.36,75.875,146.763,74.64,148.586,74.64z M148.586,79.856c1.235,0,1.56-1.104,1.56-2.135
			c0-0.947-0.504-1.835-1.56-1.835c-1.043,0-1.547,0.912-1.547,1.835C147.039,78.741,147.363,79.856,148.586,79.856z"/>
		<path style="fill:#FFFFFF;" d="M156.758,76.079c-0.492-0.168-0.852-0.264-1.439-0.264c-0.432,0-0.947,0.156-0.947,0.684
			c0,0.983,2.794,0.36,2.794,2.59c0,1.439-1.283,2.015-2.59,2.015c-0.612,0-1.235-0.108-1.823-0.264l0.096-1.319
			c0.504,0.252,1.031,0.408,1.583,0.408c0.408,0,1.056-0.156,1.056-0.756c0-1.211-2.795-0.384-2.795-2.614
			c0-1.332,1.164-1.919,2.423-1.919c0.756,0,1.247,0.12,1.751,0.228L156.758,76.079z"/>
		<path style="fill:#FFFFFF;" d="M158.415,74.783h1.535v0.875h0.024c0.359-0.6,0.971-1.019,1.919-1.019
			c1.895,0,2.59,1.511,2.59,3.214c0,1.691-0.695,3.25-2.626,3.25c-0.684,0-1.247-0.168-1.812-0.852h-0.023v3.226h-1.607V74.783z
			 M160.035,77.854c0,0.875,0.348,2.003,1.415,2.003c1.056,0,1.355-1.151,1.355-2.003c0-0.827-0.288-1.967-1.331-1.967
			C160.443,75.887,160.035,76.99,160.035,77.854z"/>
		<path style="fill:#FFFFFF;" d="M166.024,75.107c0.623-0.288,1.463-0.468,2.146-0.468c1.883,0,2.662,0.779,2.662,2.603v0.792
			c0,0.624,0.013,1.091,0.024,1.547c0.012,0.468,0.036,0.9,0.072,1.379h-1.416c-0.06-0.324-0.06-0.731-0.071-0.923h-0.024
			c-0.372,0.684-1.175,1.067-1.907,1.067c-1.091,0-2.158-0.66-2.158-1.835c0-0.924,0.443-1.463,1.056-1.763
			c0.611-0.3,1.403-0.36,2.074-0.36h0.888c0-0.996-0.443-1.331-1.392-1.331c-0.684,0-1.367,0.264-1.906,0.671L166.024,75.107z
			 M167.907,79.929c0.491,0,0.875-0.216,1.127-0.552c0.264-0.348,0.336-0.792,0.336-1.271h-0.695c-0.72,0-1.787,0.12-1.787,1.067
			C166.887,79.701,167.33,79.929,167.907,79.929z"/>
		<path style="fill:#FFFFFF;" d="M176.089,76.079c-0.491-0.168-0.852-0.264-1.439-0.264c-0.432,0-0.947,0.156-0.947,0.684
			c0,0.983,2.795,0.36,2.795,2.59c0,1.439-1.283,2.015-2.591,2.015c-0.611,0-1.235-0.108-1.823-0.264l0.097-1.319
			c0.503,0.252,1.031,0.408,1.583,0.408c0.407,0,1.055-0.156,1.055-0.756c0-1.211-2.794-0.384-2.794-2.614
			c0-1.332,1.163-1.919,2.423-1.919c0.755,0,1.247,0.12,1.751,0.228L176.089,76.079z"/>
		<path style="fill:#FFFFFF;" d="M177.723,74.783h1.499v0.864h0.024c0.504-0.756,1.235-1.007,1.835-1.007
			c0.863,0,1.475,0.324,1.823,1.091c0.371-0.744,1.175-1.091,1.931-1.091c1.523,0,1.955,1.043,1.955,2.422v3.898h-1.607v-3.682
			c0-0.576,0-1.391-0.924-1.391c-1.067,0-1.199,1.271-1.199,2.075v2.999h-1.606v-3.682c0-0.576,0-1.391-0.924-1.391
			c-1.067,0-1.199,1.271-1.199,2.075v2.999h-1.607V74.783z"/>
	</g>
</g>
<g id="Layer_2">
</g>
</svg>
