<?xml version="1.0" encoding="utf-8"?>
<!-- Generator: Adobe Illustrator 19.1.0, SVG Export Plug-In . SVG Version: 6.00 Build 0)  -->
<!DOCTYPE svg PUBLIC "-//W3C//DTD SVG 1.1//EN" "http://www.w3.org/Graphics/SVG/1.1/DTD/svg11.dtd">
<svg version="1.1" xmlns="http://www.w3.org/2000/svg" xmlns:xlink="http://www.w3.org/1999/xlink" x="0px" y="0px" width="139.5px"
	 height="156.4px" viewBox="0 0 139.5 156.4" style="enable-background:new 0 0 139.5 156.4;" xml:space="preserve">
<style type="text/css">
	.st0{fill:#004B8C;}
	.st1{display:none;fill:none;}
	.st2{opacity:0.6;fill:url(#SVGID_1_);}
	.st3{opacity:0.6;fill:url(#SVGID_2_);}
	.st4{fill:none;}
	.st5{fill:#FFFFFF;}
	.st6{fill:url(#SVGID_3_);}
	.st7{clip-path:url(#SVGID_5_);fill:#FFFFFF;}
	.st8{fill:#002D73;}
	.st9{clip-path:url(#SVGID_6_);fill:#FFFFFF;}
	.st10{clip-path:url(#SVGID_8_);fill:url(#SVGID_9_);}
	.st11{fill:#114B89;}
	.st12{clip-path:url(#SVGID_10_);fill:#FFFFFF;}
	.st13{opacity:0.5;}
	.st14{fill:url(#SVGID_11_);}
	.st15{fill-rule:evenodd;clip-rule:evenodd;fill:url(#SVGID_12_);}
	.st16{fill:url(#SVGID_13_);}
	.st17{fill-rule:evenodd;clip-rule:evenodd;fill:url(#SVGID_14_);}
	.st18{opacity:0.32;}
	.st19{clip-path:url(#SVGID_16_);fill:url(#SVGID_17_);}
	.st20{fill:url(#SVGID_18_);}
	.st21{fill-rule:evenodd;clip-rule:evenodd;fill:url(#SVGID_19_);}
	.st22{clip-path:url(#SVGID_21_);fill:url(#SVGID_22_);}
	.st23{clip-path:url(#SVGID_24_);fill:url(#SVGID_25_);}
	.st24{opacity:0.5;fill:url(#SVGID_26_);}
	.st25{fill:#231F20;}
	.st26{clip-path:url(#SVGID_28_);fill:#231F20;}
	.st27{clip-path:url(#SVGID_28_);fill:#6FA5D9;}
	.st28{clip-path:url(#SVGID_28_);fill:#007AC1;}
	.st29{fill:none;stroke:#58595B;stroke-width:0.1413;}
	.st30{clip-path:url(#SVGID_30_);fill:#F27021;}
	.st31{clip-path:url(#SVGID_32_);}
	.st32{clip-path:url(#SVGID_36_);}
	.st33{clip-path:url(#SVGID_40_);}
	.st34{clip-path:url(#SVGID_44_);}
	.st35{clip-path:url(#SVGID_48_);}
	.st36{clip-path:url(#SVGID_52_);}
	.st37{clip-path:url(#SVGID_56_);}
	.st38{clip-path:url(#SVGID_58_);}
	.st39{clip-path:url(#SVGID_62_);}
	.st40{clip-path:url(#SVGID_64_);}
	.st41{clip-path:url(#SVGID_68_);}
	.st42{clip-path:url(#SVGID_70_);}
	.st43{clip-path:url(#SVGID_74_);}
	.st44{clip-path:url(#SVGID_76_);}
	.st45{clip-path:url(#SVGID_80_);}
	.st46{clip-path:url(#SVGID_84_);}
	.st47{clip-path:url(#SVGID_88_);}
	.st48{clip-path:url(#SVGID_92_);}
	.st49{clip-path:url(#SVGID_96_);}
	.st50{clip-path:url(#SVGID_100_);}
	.st51{clip-path:url(#SVGID_104_);}
	.st52{clip-path:url(#SVGID_108_);}
	.st53{clip-path:url(#SVGID_112_);}
	.st54{clip-path:url(#SVGID_116_);}
	.st55{clip-path:url(#SVGID_120_);}
	.st56{clip-path:url(#SVGID_124_);}
	.st57{clip-path:url(#SVGID_128_);}
	.st58{clip-path:url(#SVGID_132_);}
	.st59{clip-path:url(#SVGID_136_);}
	.st60{clip-path:url(#SVGID_140_);}
	.st61{clip-path:url(#SVGID_144_);}
	.st62{clip-path:url(#SVGID_148_);}
	.st63{clip-path:url(#SVGID_152_);}
	.st64{clip-path:url(#SVGID_156_);}
	.st65{clip-path:url(#SVGID_160_);}
	.st66{clip-path:url(#SVGID_164_);}
	.st67{clip-path:url(#SVGID_168_);}
	.st68{clip-path:url(#SVGID_172_);}
	.st69{clip-path:url(#SVGID_176_);}
	.st70{clip-path:url(#SVGID_180_);}
	.st71{clip-path:url(#SVGID_182_);}
	.st72{clip-path:url(#SVGID_186_);}
	.st73{clip-path:url(#SVGID_190_);}
	.st74{clip-path:url(#SVGID_194_);}
	.st75{clip-path:url(#SVGID_198_);}
	.st76{clip-path:url(#SVGID_202_);}
	.st77{clip-path:url(#SVGID_206_);}
	.st78{clip-path:url(#SVGID_210_);}
	.st79{clip-path:url(#SVGID_214_);}
	.st80{clip-path:url(#SVGID_218_);}
	.st81{clip-path:url(#SVGID_222_);}
	.st82{clip-path:url(#SVGID_224_);}
	.st83{clip-path:url(#SVGID_228_);}
	.st84{clip-path:url(#SVGID_232_);}
	.st85{clip-path:url(#SVGID_236_);}
	.st86{clip-path:url(#SVGID_240_);}
	.st87{clip-path:url(#SVGID_244_);}
	.st88{clip-path:url(#SVGID_248_);}
	.st89{clip-path:url(#SVGID_252_);}
	.st90{clip-path:url(#SVGID_256_);}
	.st91{clip-path:url(#SVGID_260_);}
	.st92{clip-path:url(#SVGID_264_);}
	.st93{clip-path:url(#SVGID_268_);}
	.st94{clip-path:url(#SVGID_272_);}
	.st95{clip-path:url(#SVGID_276_);}
	.st96{clip-path:url(#SVGID_280_);}
	.st97{clip-path:url(#SVGID_284_);}
	.st98{clip-path:url(#SVGID_288_);}
	.st99{clip-path:url(#SVGID_292_);}
	.st100{clip-path:url(#SVGID_296_);}
	.st101{clip-path:url(#SVGID_300_);}
	.st102{clip-path:url(#SVGID_304_);}
	.st103{clip-path:url(#SVGID_308_);}
	.st104{clip-path:url(#SVGID_312_);}
	.st105{clip-path:url(#SVGID_316_);}
	.st106{clip-path:url(#SVGID_320_);}
	.st107{clip-path:url(#SVGID_324_);}
	.st108{clip-path:url(#SVGID_328_);}
	.st109{clip-path:url(#SVGID_332_);}
	.st110{clip-path:url(#SVGID_336_);}
	.st111{clip-path:url(#SVGID_340_);}
	.st112{clip-path:url(#SVGID_344_);}
	.st113{clip-path:url(#SVGID_348_);}
	.st114{clip-path:url(#SVGID_352_);}
	.st115{clip-path:url(#SVGID_356_);}
	.st116{clip-path:url(#SVGID_360_);}
	.st117{clip-path:url(#SVGID_364_);}
	.st118{clip-path:url(#SVGID_368_);}
	.st119{clip-path:url(#SVGID_372_);}
	.st120{clip-path:url(#SVGID_376_);}
	.st121{clip-path:url(#SVGID_380_);}
	.st122{clip-path:url(#SVGID_384_);}
	.st123{clip-path:url(#SVGID_388_);}
	.st124{clip-path:url(#SVGID_392_);}
	.st125{clip-path:url(#SVGID_396_);}
	.st126{clip-path:url(#SVGID_400_);}
	.st127{clip-path:url(#SVGID_404_);}
	.st128{clip-path:url(#SVGID_408_);}
	.st129{clip-path:url(#SVGID_412_);}
	.st130{clip-path:url(#SVGID_416_);}
	.st131{clip-path:url(#SVGID_420_);}
	.st132{clip-path:url(#SVGID_424_);}
	.st133{clip-path:url(#SVGID_428_);}
	.st134{clip-path:url(#SVGID_432_);}
	.st135{clip-path:url(#SVGID_436_);}
	.st136{clip-path:url(#SVGID_440_);}
	.st137{clip-path:url(#SVGID_444_);}
	.st138{clip-path:url(#SVGID_448_);}
	.st139{clip-path:url(#SVGID_452_);}
	.st140{clip-path:url(#SVGID_456_);}
	.st141{clip-path:url(#SVGID_460_);}
	.st142{clip-path:url(#SVGID_464_);}
	.st143{clip-path:url(#SVGID_468_);}
	.st144{clip-path:url(#SVGID_472_);}
	.st145{clip-path:url(#SVGID_476_);}
	.st146{clip-path:url(#SVGID_480_);}
	.st147{clip-path:url(#SVGID_482_);}
	.st148{clip-path:url(#SVGID_486_);}
	.st149{clip-path:url(#SVGID_490_);}
	.st150{clip-path:url(#SVGID_492_);}
	.st151{clip-path:url(#SVGID_496_);}
	.st152{clip-path:url(#SVGID_500_);}
	.st153{clip-path:url(#SVGID_502_);}
	.st154{clip-path:url(#SVGID_506_);}
	.st155{clip-path:url(#SVGID_508_);}
	.st156{clip-path:url(#SVGID_512_);}
	.st157{clip-path:url(#SVGID_514_);}
	.st158{clip-path:url(#SVGID_518_);}
	.st159{clip-path:url(#SVGID_520_);}
	.st160{clip-path:url(#SVGID_524_);}
	.st161{clip-path:url(#SVGID_526_);}
	.st162{clip-path:url(#SVGID_530_);}
	.st163{clip-path:url(#SVGID_534_);}
	.st164{clip-path:url(#SVGID_536_);}
	.st165{clip-path:url(#SVGID_540_);}
	.st166{clip-path:url(#SVGID_542_);}
	.st167{clip-path:url(#SVGID_546_);}
	.st168{clip-path:url(#SVGID_548_);}
	.st169{clip-path:url(#SVGID_552_);}
	.st170{clip-path:url(#SVGID_554_);}
	.st171{clip-path:url(#SVGID_558_);}
	.st172{clip-path:url(#SVGID_560_);}
	.st173{clip-path:url(#SVGID_564_);}
	.st174{clip-path:url(#SVGID_568_);}
	.st175{clip-path:url(#SVGID_572_);}
	.st176{clip-path:url(#SVGID_576_);}
	.st177{clip-path:url(#SVGID_580_);}
	.st178{clip-path:url(#SVGID_584_);}
	.st179{clip-path:url(#SVGID_588_);}
	.st180{clip-path:url(#SVGID_592_);}
	.st181{clip-path:url(#SVGID_596_);}
	.st182{clip-path:url(#SVGID_600_);}
	.st183{clip-path:url(#SVGID_604_);}
	.st184{clip-path:url(#SVGID_608_);}
	.st185{clip-path:url(#SVGID_612_);}
	.st186{clip-path:url(#SVGID_616_);}
	.st187{clip-path:url(#SVGID_620_);}
	.st188{clip-path:url(#SVGID_624_);}
	.st189{clip-path:url(#SVGID_628_);}
	.st190{clip-path:url(#SVGID_632_);}
	.st191{clip-path:url(#SVGID_636_);}
	.st192{clip-path:url(#SVGID_640_);}
	.st193{clip-path:url(#SVGID_644_);}
	.st194{clip-path:url(#SVGID_648_);}
	.st195{clip-path:url(#SVGID_652_);}
	.st196{clip-path:url(#SVGID_656_);}
	.st197{clip-path:url(#SVGID_660_);}
	.st198{clip-path:url(#SVGID_664_);}
	.st199{clip-path:url(#SVGID_668_);}
	.st200{clip-path:url(#SVGID_672_);}
	.st201{clip-path:url(#SVGID_676_);}
	.st202{clip-path:url(#SVGID_680_);}
	.st203{clip-path:url(#SVGID_684_);}
	.st204{clip-path:url(#SVGID_688_);}
	.st205{clip-path:url(#SVGID_692_);}
	.st206{clip-path:url(#SVGID_694_);}
	.st207{clip-path:url(#SVGID_698_);}
	.st208{clip-path:url(#SVGID_702_);}
	.st209{clip-path:url(#SVGID_704_);}
	.st210{clip-path:url(#SVGID_708_);}
	.st211{clip-path:url(#SVGID_712_);}
	.st212{clip-path:url(#SVGID_716_);}
	.st213{clip-path:url(#SVGID_720_);}
	.st214{clip-path:url(#SVGID_724_);}
	.st215{clip-path:url(#SVGID_728_);}
	.st216{clip-path:url(#SVGID_732_);}
	.st217{clip-path:url(#SVGID_736_);}
	.st218{clip-path:url(#SVGID_740_);}
	.st219{clip-path:url(#SVGID_744_);}
	.st220{clip-path:url(#SVGID_748_);}
	.st221{clip-path:url(#SVGID_752_);}
	.st222{clip-path:url(#SVGID_756_);}
	.st223{clip-path:url(#SVGID_760_);}
	.st224{clip-path:url(#SVGID_764_);}
	.st225{clip-path:url(#SVGID_768_);}
	.st226{clip-path:url(#SVGID_772_);}
	.st227{clip-path:url(#SVGID_776_);}
	.st228{clip-path:url(#SVGID_780_);}
	.st229{clip-path:url(#SVGID_784_);}
	.st230{clip-path:url(#SVGID_788_);}
	.st231{clip-path:url(#SVGID_792_);}
	.st232{clip-path:url(#SVGID_796_);}
	.st233{clip-path:url(#SVGID_800_);}
	.st234{clip-path:url(#SVGID_804_);}
	.st235{clip-path:url(#SVGID_808_);}
	.st236{clip-path:url(#SVGID_812_);}
	.st237{clip-path:url(#SVGID_816_);}
	.st238{clip-path:url(#SVGID_820_);}
	.st239{clip-path:url(#SVGID_824_);}
	.st240{clip-path:url(#SVGID_828_);}
	.st241{clip-path:url(#SVGID_832_);}
	.st242{clip-path:url(#SVGID_836_);}
	.st243{clip-path:url(#SVGID_840_);}
	.st244{clip-path:url(#SVGID_844_);}
	.st245{clip-path:url(#SVGID_848_);}
	.st246{clip-path:url(#SVGID_852_);}
	.st247{clip-path:url(#SVGID_856_);}
	.st248{clip-path:url(#SVGID_860_);}
	.st249{clip-path:url(#SVGID_864_);}
	.st250{clip-path:url(#SVGID_868_);}
	.st251{clip-path:url(#SVGID_872_);}
	.st252{clip-path:url(#SVGID_876_);}
	.st253{clip-path:url(#SVGID_880_);}
	.st254{clip-path:url(#SVGID_884_);}
	.st255{clip-path:url(#SVGID_888_);}
	.st256{clip-path:url(#SVGID_892_);}
	.st257{clip-path:url(#SVGID_896_);}
	.st258{clip-path:url(#SVGID_900_);}
	.st259{clip-path:url(#SVGID_904_);}
	.st260{clip-path:url(#SVGID_908_);}
	.st261{clip-path:url(#SVGID_912_);}
	.st262{clip-path:url(#SVGID_916_);}
	.st263{clip-path:url(#SVGID_920_);}
	.st264{clip-path:url(#SVGID_924_);}
	.st265{clip-path:url(#SVGID_926_);}
	.st266{clip-path:url(#SVGID_930_);}
	.st267{clip-path:url(#SVGID_934_);}
	.st268{clip-path:url(#SVGID_938_);}
	.st269{clip-path:url(#SVGID_942_);}
	.st270{clip-path:url(#SVGID_946_);}
	.st271{clip-path:url(#SVGID_950_);}
	.st272{clip-path:url(#SVGID_954_);}
	.st273{clip-path:url(#SVGID_958_);}
	.st274{clip-path:url(#SVGID_962_);}
	.st275{clip-path:url(#SVGID_966_);}
	.st276{clip-path:url(#SVGID_970_);}
	.st277{clip-path:url(#SVGID_974_);}
	.st278{clip-path:url(#SVGID_978_);}
	.st279{clip-path:url(#SVGID_980_);}
	.st280{clip-path:url(#SVGID_984_);}
	.st281{clip-path:url(#SVGID_986_);}
	.st282{clip-path:url(#SVGID_990_);}
	.st283{clip-path:url(#SVGID_994_);}
	.st284{clip-path:url(#SVGID_996_);}
	.st285{clip-path:url(#SVGID_1000_);}
	.st286{clip-path:url(#SVGID_1002_);}
	.st287{clip-path:url(#SVGID_1006_);}
	.st288{clip-path:url(#SVGID_1008_);}
	.st289{clip-path:url(#SVGID_1012_);}
	.st290{clip-path:url(#SVGID_1016_);}
	.st291{clip-path:url(#SVGID_1020_);}
	.st292{clip-path:url(#SVGID_1024_);}
	.st293{clip-path:url(#SVGID_1028_);}
	.st294{clip-path:url(#SVGID_1032_);fill:#FFFFFF;}
	.st295{fill:url(#SVGID_1033_);}
	.st296{fill:none;stroke:#002D73;stroke-width:0.859;stroke-miterlimit:10;}
	.st297{fill:#65797F;}
	.st298{fill:url(#SVGID_1034_);}
	.st299{fill-rule:evenodd;clip-rule:evenodd;fill:url(#SVGID_1035_);}
	.st300{clip-path:url(#SVGID_1036_);fill:#FFFFFF;}
	.st301{fill:url(#SVGID_1037_);}
	.st302{fill:none;stroke:#002D73;stroke-linecap:round;stroke-miterlimit:10;}
	.st303{opacity:0.6;fill:url(#SVGID_1038_);}
	.st304{fill:url(#SVGID_1039_);}
	.st305{opacity:0.3;fill:#FFFFFF;}
	.st306{clip-path:url(#SVGID_1040_);fill:#FFFFFF;}
	.st307{fill:none;stroke:#002D73;stroke-miterlimit:10;}
	.st308{opacity:0.6;fill:url(#SVGID_1041_);}
	.st309{fill:url(#SVGID_1042_);}
	.st310{clip-path:url(#SVGID_1043_);fill:#FFFFFF;}
	.st311{fill:url(#SVGID_1044_);}
</style>
<g id="Layer_1">
	<g>
		<rect y="1.3" class="st4" width="138.5" height="185.2"/>
		<path class="st5" d="M9.9,13.3v-1.9c1-1,4.8-4.2,4.8-6.2c0-1-0.9-1.5-1.8-1.5c-0.9,0-1.8,0.4-2.6,0.9l-0.2-1.9
			c1-0.5,2.2-0.8,3.3-0.8C15.6,1.9,17,3,17,5.2c0,2.4-2.4,4.5-4.2,6.3h4.6v1.8H9.9z"/>
		<path class="st5" d="M18.4,9.2l4.2-7h2.8v7.2h1.4V11h-1.4v2.3h-2.1V11h-4.8V9.2z M23.2,9.3V4.4h0l-2.8,4.8H23.2z"/>
		<path class="st5" d="M27.6,9.9V8.1h4.2v1.8H27.6z"/>
		<path class="st5" d="M33.5,1.3h2.1v4.9h0c0.5-0.8,1.5-1.3,2.6-1.3c2,0,2.8,1.4,2.8,3.2v5.2h-2.1V8.9c0-1,0-2.4-1.4-2.4
			c-1.6,0-1.9,1.7-1.9,2.7v4h-2.1V1.3z"/>
		<path class="st5" d="M47,4.8c2.4,0,4.3,1.6,4.3,4.4c0,2.4-1.6,4.3-4.3,4.3c-2.7,0-4.3-1.9-4.3-4.3C42.7,6.5,44.6,4.8,47,4.8z
			 M47,11.8c1.6,0,2.1-1.5,2.1-2.8c0-1.3-0.7-2.4-2.1-2.4C45.6,6.5,45,7.7,45,9C45,10.3,45.4,11.8,47,11.8z"/>
		<path class="st5" d="M60.6,13.3h-2v-1.1h0c-0.7,0.8-1.6,1.3-2.7,1.3c-2,0-2.8-1.4-2.8-3.2V5h2.1v4.4c0,1,0,2.4,1.4,2.4
			c1.6,0,1.9-1.7,1.9-2.7V5h2.1V13.3z"/>
		<path class="st5" d="M62.8,5h1.9v1.9h0c0.1-0.8,1-2.1,2.3-2.1c0.2,0,0.4,0,0.7,0.1v2.2c-0.2-0.1-0.6-0.2-1-0.2
			C65,6.9,65,9.1,65,10.3v3h-2.1V5z"/>
		<path class="st5" d="M73.7,2.1h3.9c1.4,0,3.6,0.4,3.6,2.9c0,1.3-0.9,2.3-2.2,2.5v0c1.5,0.1,2.6,1.2,2.6,2.5c0,2.8-2.5,3.2-3.9,3.2
			h-3.9V2.1z M75.9,6.6h0.9c0.9,0,2.1-0.2,2.1-1.4c0-1.3-1.1-1.4-2.2-1.4h-0.9V6.6z M75.9,11.5H77c1,0,2.3-0.3,2.3-1.6
			c0-1.5-1.2-1.7-2.3-1.7h-1.1V11.5z"/>
		<path class="st5" d="M83.2,2.1h2.4c2.4,0,5.3-0.1,5.3,3c0,1.3-0.9,2.4-2.3,2.6v0c0.6,0,1,0.7,1.2,1.2l1.8,4.4h-2.5l-1.3-3.5
			c-0.3-0.8-0.6-1.2-1.6-1.2h-0.7v4.6h-2.2V2.1z M85.5,6.9h0.7c1.1,0,2.4-0.2,2.4-1.6c0-1.3-1.2-1.5-2.4-1.5h-0.7V6.9z"/>
		<path class="st5" d="M93.2,2.1h6.6v1.8h-4.4v2.8h4v1.8h-4v3.1h4.4v1.8h-6.6V2.1z"/>
		<path class="st5" d="M107,1.9c3.5,0,5.5,2.4,5.5,5.7c0,3.4-1.9,5.8-5.5,5.8c-3.6,0-5.5-2.4-5.5-5.8C101.6,4.2,103.5,1.9,107,1.9z
			 M107,11.7c2.3,0,3.1-2,3.1-4c0-2-0.9-4-3.1-4s-3.1,2-3.1,4C103.9,9.7,104.7,11.7,107,11.7z"/>
		<path class="st5" d="M118.9,1.5h2.1v2h-2.1V1.5z M118.9,5h2.1v8.2h-2.1V5z"/>
		<path class="st5" d="M128.2,6.8c-0.7-0.2-1.1-0.4-1.9-0.4c-0.6,0-1.3,0.2-1.3,0.9c0,1.3,3.7,0.5,3.7,3.5c0,1.9-1.7,2.7-3.5,2.7
			c-0.8,0-1.6-0.1-2.4-0.4l0.1-1.8c0.7,0.3,1.4,0.5,2.1,0.5c0.5,0,1.4-0.2,1.4-1c0-1.6-3.7-0.5-3.7-3.5c0-1.8,1.6-2.6,3.2-2.6
			c1,0,1.7,0.2,2.3,0.3L128.2,6.8z"/>
		<path class="st5" d="M5.3,26.6H3.8V25h1.6v-1.2c0-1.6,0.9-2.8,2.6-2.8c0.5,0,1.2,0.1,1.6,0.2L9.4,23c-0.2-0.1-0.5-0.3-0.9-0.3
			c-0.7,0-0.9,0.6-0.9,1.3v1h1.9v1.6H7.5v6.7H5.3V26.6z"/>
		<path class="st5" d="M14.6,24.8c2.4,0,4.3,1.6,4.3,4.4c0,2.4-1.6,4.3-4.3,4.3c-2.7,0-4.3-1.9-4.3-4.3
			C10.3,26.5,12.1,24.8,14.6,24.8z M14.6,31.8c1.6,0,2.1-1.5,2.1-2.8c0-1.3-0.7-2.4-2.1-2.4c-1.4,0-2.1,1.2-2.1,2.4
			C12.5,30.3,12.9,31.8,14.6,31.8z"/>
		<path class="st5" d="M20.6,25h1.9v1.9h0c0.1-0.8,1-2.1,2.3-2.1c0.2,0,0.4,0,0.7,0.1v2.2c-0.2-0.1-0.6-0.2-1-0.2
			c-1.7,0-1.7,2.2-1.7,3.4v3h-2.1V25z"/>
		<path class="st5" d="M31.6,25.5c0.8-0.4,2-0.6,2.9-0.6c2.5,0,3.6,1,3.6,3.5v1.1c0,0.8,0,1.5,0,2.1c0,0.6,0,1.2,0.1,1.8h-1.9
			c-0.1-0.4-0.1-1-0.1-1.2h0c-0.5,0.9-1.6,1.4-2.5,1.4c-1.5,0-2.9-0.9-2.9-2.4c0-1.2,0.6-2,1.4-2.4c0.8-0.4,1.9-0.5,2.8-0.5h1.2
			c0-1.3-0.6-1.8-1.9-1.8c-0.9,0-1.8,0.4-2.5,0.9L31.6,25.5z M34.1,31.9c0.7,0,1.2-0.3,1.5-0.7c0.4-0.5,0.4-1.1,0.4-1.7h-0.9
			c-1,0-2.4,0.2-2.4,1.4C32.8,31.6,33.3,31.9,34.1,31.9z"/>
		<path class="st5" d="M45.6,32.4L45.6,32.4c-0.7,0.8-1.6,1.1-2.6,1.1c-2.5,0-3.5-2.1-3.5-4.3c0-2.3,0.9-4.3,3.5-4.3
			c1.1,0,1.8,0.4,2.5,1.2h0v-4.7h2.1v12h-2.1V32.4z M43.7,31.8c1.4,0,1.9-1.5,1.9-2.7c0-1.2-0.5-2.6-1.9-2.6c-1.4,0-1.8,1.5-1.8,2.6
			C41.8,30.3,42.2,31.8,43.7,31.8z"/>
		<path class="st5" d="M57.5,33.3h-2v-1.1h0c-0.7,0.8-1.6,1.3-2.7,1.3c-2,0-2.8-1.4-2.8-3.2V25h2.1v4.4c0,1,0,2.4,1.4,2.4
			c1.6,0,1.9-1.7,1.9-2.7v-4h2.1V33.3z"/>
		<path class="st5" d="M59.7,21.3h2.1v12h-2.1V21.3z"/>
		<path class="st5" d="M64.8,26.6h-1.6V25h1.6v-1.6l2.1-0.7V25h1.9v1.6H67v3.8c0,0.7,0.2,1.4,1,1.4c0.4,0,0.8-0.1,1-0.2l0.1,1.7
			c-0.4,0.1-0.9,0.2-1.6,0.2c-1.7,0-2.6-1-2.6-2.7V26.6z"/>
		<path class="st5" d="M74.8,25h2v1.2h0c0.5-0.8,1.3-1.4,2.6-1.4c2.5,0,3.5,2,3.5,4.3c0,2.3-0.9,4.3-3.5,4.3c-0.9,0-1.7-0.2-2.4-1.1
			h0v4.3h-2.1V25z M77,29.1c0,1.2,0.5,2.7,1.9,2.7c1.4,0,1.8-1.5,1.8-2.7c0-1.1-0.4-2.6-1.8-2.6C77.5,26.5,77,28,77,29.1z"/>
		<path class="st5" d="M84.9,25.5c0.8-0.4,2-0.6,2.9-0.6c2.5,0,3.6,1,3.6,3.5v1.1c0,0.8,0,1.5,0,2.1c0,0.6,0,1.2,0.1,1.8h-1.9
			c-0.1-0.4-0.1-1-0.1-1.2h0c-0.5,0.9-1.6,1.4-2.5,1.4c-1.5,0-2.9-0.9-2.9-2.4c0-1.2,0.6-2,1.4-2.4s1.9-0.5,2.8-0.5h1.2
			c0-1.3-0.6-1.8-1.9-1.8c-0.9,0-1.8,0.4-2.5,0.9L84.9,25.5z M87.5,31.9c0.7,0,1.2-0.3,1.5-0.7c0.4-0.5,0.4-1.1,0.4-1.7h-0.9
			c-1,0-2.4,0.2-2.4,1.4C86.1,31.6,86.7,31.9,87.5,31.9z"/>
		<path class="st5" d="M94.2,26.6h-1.6V25h1.6v-1.6l2.1-0.7V25h1.9v1.6h-1.9v3.8c0,0.7,0.2,1.4,1,1.4c0.4,0,0.8-0.1,1-0.2l0.1,1.7
			c-0.4,0.1-0.9,0.2-1.6,0.2c-1.7,0-2.6-1-2.6-2.7V26.6z"/>
		<path class="st5" d="M99.7,21.5h2.1v2h-2.1V21.5z M99.7,25h2.1v8.2h-2.1V25z"/>
		<path class="st5" d="M110.8,32.8c-0.8,0.4-1.7,0.7-2.8,0.7c-2.7,0-4.3-1.6-4.3-4.3c0-2.4,1.3-4.4,3.8-4.4c3.1,0,3.9,2.1,3.9,5
			h-5.7c0.1,1.3,1,2.1,2.4,2.1c1,0,1.9-0.4,2.7-0.8V32.8z M109.3,28.4c-0.1-1-0.5-1.9-1.7-1.9s-1.8,0.8-1.9,1.9H109.3z"/>
		<path class="st5" d="M113,25h2v1.1h0c0.7-0.9,1.6-1.3,2.7-1.3c2,0,2.8,1.4,2.8,3.2v5.2h-2.1v-4.4c0-1,0-2.4-1.4-2.4
			c-1.6,0-1.9,1.7-1.9,2.7v4H113V25z"/>
		<path class="st5" d="M123.5,26.6h-1.6V25h1.6v-1.6l2.1-0.7V25h1.9v1.6h-1.9v3.8c0,0.7,0.2,1.4,1,1.4c0.4,0,0.8-0.1,1-0.2l0.1,1.7
			c-0.4,0.1-0.9,0.2-1.6,0.2c-1.7,0-2.6-1-2.6-2.7V26.6z"/>
		<path class="st5" d="M133.9,26.8c-0.7-0.2-1.1-0.4-1.9-0.4c-0.6,0-1.3,0.2-1.3,0.9c0,1.3,3.7,0.5,3.7,3.5c0,1.9-1.7,2.7-3.5,2.7
			c-0.8,0-1.6-0.1-2.4-0.4l0.1-1.8c0.7,0.3,1.4,0.5,2.1,0.5c0.5,0,1.4-0.2,1.4-1c0-1.6-3.7-0.5-3.7-3.5c0-1.8,1.6-2.6,3.2-2.6
			c1,0,1.7,0.2,2.3,0.3L133.9,26.8z"/>
		<path class="st5" d="M22.3,45h2.3l1.8,6.1h0l1.7-6.1h2.5l1.8,6.1h0l1.7-6.1h2l-2.5,8.2h-2.5L29.3,47h0l-1.8,6.3h-2.4L22.3,45z"/>
		<path class="st5" d="M37.5,41.5h2.1v2h-2.1V41.5z M37.5,45h2.1v8.2h-2.1V45z"/>
		<path class="st5" d="M42.6,46.6H41V45h1.6v-1.6l2.1-0.7V45h1.9v1.6h-1.9v3.8c0,0.7,0.2,1.4,1,1.4c0.4,0,0.8-0.1,1-0.2l0.1,1.7
			c-0.4,0.1-0.9,0.2-1.6,0.2c-1.7,0-2.6-1-2.6-2.7V46.6z"/>
		<path class="st5" d="M48.1,41.3h2.1v4.9h0c0.5-0.8,1.5-1.3,2.6-1.3c2,0,2.8,1.4,2.8,3.2v5.2h-2.1v-4.4c0-1,0-2.4-1.4-2.4
			c-1.6,0-1.9,1.7-1.9,2.7v4h-2.1V41.3z"/>
		<path class="st5" d="M62.7,45.5c0.8-0.4,2-0.6,2.9-0.6c2.5,0,3.6,1,3.6,3.5v1.1c0,0.8,0,1.5,0,2.1c0,0.6,0,1.2,0.1,1.8h-1.9
			c-0.1-0.4-0.1-1-0.1-1.2h0c-0.5,0.9-1.6,1.4-2.5,1.4c-1.5,0-2.9-0.9-2.9-2.4c0-1.2,0.6-2,1.4-2.4s1.9-0.5,2.8-0.5h1.2
			c0-1.3-0.6-1.8-1.9-1.8c-0.9,0-1.8,0.4-2.5,0.9L62.7,45.5z M65.2,51.9c0.7,0,1.2-0.3,1.5-0.7c0.4-0.5,0.4-1.1,0.4-1.7h-0.9
			c-1,0-2.4,0.2-2.4,1.4C63.9,51.6,64.5,51.9,65.2,51.9z"/>
		<path class="st5" d="M76.1,46.8c-0.7-0.2-1.1-0.4-1.9-0.4c-0.6,0-1.3,0.2-1.3,0.9c0,1.3,3.7,0.5,3.7,3.5c0,1.9-1.7,2.7-3.5,2.7
			c-0.8,0-1.6-0.1-2.4-0.4l0.1-1.8c0.7,0.3,1.4,0.5,2.1,0.5c0.5,0,1.4-0.2,1.4-1c0-1.6-3.7-0.5-3.7-3.5c0-1.8,1.6-2.6,3.2-2.6
			c1,0,1.7,0.2,2.3,0.3L76.1,46.8z"/>
		<path class="st5" d="M79.1,46.6h-1.6V45h1.6v-1.6l2.1-0.7V45h1.9v1.6h-1.9v3.8c0,0.7,0.2,1.4,1,1.4c0.4,0,0.8-0.1,1-0.2l0.1,1.7
			c-0.4,0.1-0.9,0.2-1.6,0.2c-1.7,0-2.6-1-2.6-2.7V46.6z"/>
		<path class="st5" d="M84.6,41.3h2.1v4.9h0c0.5-0.8,1.5-1.3,2.6-1.3c2,0,2.8,1.4,2.8,3.2v5.2H90v-4.4c0-1,0-2.4-1.4-2.4
			c-1.6,0-1.9,1.7-1.9,2.7v4h-2.1V41.3z"/>
		<path class="st5" d="M94.3,45h2v1.2h0c0.7-1,1.6-1.3,2.4-1.3c1.2,0,2,0.4,2.4,1.5c0.5-1,1.6-1.5,2.6-1.5c2,0,2.6,1.4,2.6,3.2v5.2
			h-2.1v-4.9c0-0.8,0-1.9-1.2-1.9c-1.4,0-1.6,1.7-1.6,2.8v4h-2.1v-4.9c0-0.8,0-1.9-1.2-1.9c-1.4,0-1.6,1.7-1.6,2.8v4h-2.1V45z"/>
		<path class="st5" d="M108.9,45.5c0.8-0.4,2-0.6,2.9-0.6c2.5,0,3.6,1,3.6,3.5v1.1c0,0.8,0,1.5,0,2.1c0,0.6,0,1.2,0.1,1.8h-1.9
			c-0.1-0.4-0.1-1-0.1-1.2h0c-0.5,0.9-1.6,1.4-2.5,1.4c-1.5,0-2.9-0.9-2.9-2.4c0-1.2,0.6-2,1.4-2.4s1.9-0.5,2.8-0.5h1.2
			c0-1.3-0.6-1.8-1.9-1.8c-0.9,0-1.8,0.4-2.5,0.9L108.9,45.5z M111.5,51.9c0.7,0,1.2-0.3,1.5-0.7c0.4-0.5,0.4-1.1,0.4-1.7h-0.9
			c-1,0-2.4,0.2-2.4,1.4C110.1,51.6,110.7,51.9,111.5,51.9z"/>
		<path class="st5" d="M18.1,73.3h-2v-1.1h0c-0.7,0.8-1.6,1.3-2.7,1.3c-2,0-2.8-1.4-2.8-3.2V65h2.1v4.4c0,1,0,2.4,1.4,2.4
			c1.6,0,1.9-1.7,1.9-2.7v-4h2.1V73.3z"/>
		<path class="st5" d="M20.3,65h2v1.1h0c0.7-0.9,1.6-1.3,2.7-1.3c2,0,2.8,1.4,2.8,3.2v5.2h-2.1v-4.4c0-1,0-2.4-1.4-2.4
			c-1.6,0-1.9,1.7-1.9,2.7v4h-2.1V65z"/>
		<path class="st5" d="M35.4,66.8c-0.4-0.2-0.8-0.3-1.5-0.3c-1.3,0-2.2,1.1-2.2,2.6c0,1.5,0.7,2.7,2.2,2.7c0.6,0,1.3-0.2,1.6-0.4
			l0.1,1.8c-0.6,0.2-1.3,0.3-2.1,0.3c-2.7,0-4.1-1.8-4.1-4.4c0-2.4,1.4-4.3,4-4.3c0.9,0,1.5,0.1,2.1,0.3L35.4,66.8z"/>
		<path class="st5" d="M40.9,64.8c2.4,0,4.3,1.6,4.3,4.4c0,2.4-1.6,4.3-4.3,4.3c-2.7,0-4.3-1.9-4.3-4.3
			C36.6,66.5,38.5,64.8,40.9,64.8z M40.9,71.8c1.6,0,2.1-1.5,2.1-2.8c0-1.3-0.7-2.4-2.1-2.4c-1.4,0-2.1,1.2-2.1,2.4
			C38.9,70.3,39.3,71.8,40.9,71.8z"/>
		<path class="st5" d="M46.9,65h2v1.1h0c0.7-0.9,1.6-1.3,2.7-1.3c2,0,2.8,1.4,2.8,3.2v5.2h-2.1v-4.4c0-1,0-2.4-1.4-2.4
			c-1.6,0-1.9,1.7-1.9,2.7v4h-2.1V65z"/>
		<path class="st5" d="M57.4,66.6h-1.6V65h1.6v-1.6l2.1-0.7V65h1.9v1.6h-1.9v3.8c0,0.7,0.2,1.4,1,1.4c0.4,0,0.8-0.1,1-0.2l0.1,1.7
			c-0.4,0.1-0.9,0.2-1.6,0.2c-1.7,0-2.6-1-2.6-2.7V66.6z"/>
		<path class="st5" d="M63,65h1.9v1.9h0c0.1-0.8,1-2.1,2.3-2.1c0.2,0,0.4,0,0.7,0.1v2.2c-0.2-0.1-0.6-0.2-1-0.2
			c-1.7,0-1.7,2.2-1.7,3.4v3H63V65z"/>
		<path class="st5" d="M72.6,64.8c2.4,0,4.3,1.6,4.3,4.4c0,2.4-1.6,4.3-4.3,4.3c-2.7,0-4.3-1.9-4.3-4.3
			C68.3,66.5,70.2,64.8,72.6,64.8z M72.6,71.8c1.6,0,2.1-1.5,2.1-2.8c0-1.3-0.7-2.4-2.1-2.4c-1.4,0-2.1,1.2-2.1,2.4
			C70.6,70.3,71,71.8,72.6,71.8z"/>
		<path class="st5" d="M78.7,61.3h2.1v12h-2.1V61.3z"/>
		<path class="st5" d="M83.1,61.3h2.1v12h-2.1V61.3z"/>
		<path class="st5" d="M94.1,72.8c-0.8,0.4-1.7,0.7-2.8,0.7c-2.7,0-4.3-1.6-4.3-4.3c0-2.4,1.3-4.4,3.8-4.4c3.1,0,3.9,2.1,3.9,5h-5.7
			c0.1,1.3,1,2.1,2.4,2.1c1,0,1.9-0.4,2.7-0.8V72.8z M92.7,68.4c-0.1-1-0.5-1.9-1.7-1.9s-1.8,0.8-1.9,1.9H92.7z"/>
		<path class="st5" d="M101.9,72.4L101.9,72.4c-0.7,0.8-1.6,1.1-2.6,1.1c-2.5,0-3.5-2.1-3.5-4.3c0-2.3,0.9-4.3,3.5-4.3
			c1.1,0,1.8,0.4,2.5,1.2h0v-4.7h2.1v12h-2.1V72.4z M100,71.8c1.4,0,1.9-1.5,1.9-2.7c0-1.2-0.5-2.6-1.9-2.6c-1.4,0-1.8,1.5-1.8,2.6
			C98.1,70.3,98.5,71.8,100,71.8z"/>
		<path class="st5" d="M114.4,64.8c2.4,0,4.3,1.6,4.3,4.4c0,2.4-1.6,4.3-4.3,4.3c-2.7,0-4.3-1.9-4.3-4.3
			C110.1,66.5,112,64.8,114.4,64.8z M114.4,71.8c1.6,0,2.1-1.5,2.1-2.8c0-1.3-0.7-2.4-2.1-2.4c-1.4,0-2.1,1.2-2.1,2.4
			C112.4,70.3,112.8,71.8,114.4,71.8z"/>
		<path class="st5" d="M120.4,65h2v1.1h0c0.7-0.9,1.6-1.3,2.7-1.3c2,0,2.8,1.4,2.8,3.2v5.2h-2.1v-4.4c0-1,0-2.4-1.4-2.4
			c-1.6,0-1.9,1.7-1.9,2.7v4h-2.1V65z"/>
		<path class="st5" d="M10.3,85.5c0.8-0.4,2-0.6,2.9-0.6c2.5,0,3.6,1,3.6,3.5v1.1c0,0.8,0,1.5,0,2.1c0,0.6,0,1.2,0.1,1.8h-1.9
			c-0.1-0.4-0.1-1-0.1-1.2h0c-0.5,0.9-1.6,1.4-2.5,1.4c-1.5,0-2.9-0.9-2.9-2.4c0-1.2,0.6-2,1.4-2.4s1.9-0.5,2.8-0.5h1.2
			c0-1.3-0.6-1.8-1.9-1.8c-0.9,0-1.8,0.4-2.5,0.9L10.3,85.5z M12.8,91.9c0.7,0,1.2-0.3,1.5-0.7c0.4-0.5,0.4-1.1,0.4-1.7h-0.9
			c-1,0-2.4,0.2-2.4,1.4C11.4,91.6,12,91.9,12.8,91.9z"/>
		<path class="st5" d="M18.8,85h2v1.1h0c0.7-0.9,1.6-1.3,2.7-1.3c2,0,2.8,1.4,2.8,3.2v5.2h-2.1v-4.4c0-1,0-2.4-1.4-2.4
			c-1.6,0-1.9,1.7-1.9,2.7v4h-2.1V85z"/>
		<path class="st5" d="M33,82.1h2.2v11.2H33V82.1z"/>
		<path class="st5" d="M45.8,93.1c-0.8,0.2-1.7,0.4-2.5,0.4c-3.6,0-6.1-1.8-6.1-5.6c0-3.8,2.3-6,6.1-6c0.7,0,1.7,0.1,2.5,0.5
			l-0.2,1.9c-0.8-0.5-1.6-0.6-2.4-0.6c-2.3,0-3.7,1.8-3.7,4c0,2.3,1.4,4,3.8,4c0.9,0,1.9-0.2,2.4-0.5L45.8,93.1z"/>
		<path class="st5" d="M53.4,84.2c-0.7-0.3-1.5-0.5-2.3-0.5c-0.8,0-1.8,0.3-1.8,1.6c0,1.9,4.9,1.1,4.9,4.9c0,2.4-1.9,3.4-4.2,3.4
			c-1.2,0-1.8-0.2-2.9-0.4l0.2-2c0.8,0.4,1.6,0.7,2.5,0.7c0.8,0,2-0.4,2-1.4c0-2.1-4.9-1.2-4.9-4.9c0-2.5,1.9-3.4,3.9-3.4
			c1,0,1.9,0.1,2.7,0.4L53.4,84.2z"/>
		<path class="st5" d="M64.4,84.8c2.4,0,4.3,1.6,4.3,4.4c0,2.4-1.6,4.3-4.3,4.3c-2.7,0-4.3-1.9-4.3-4.3
			C60.1,86.5,61.9,84.8,64.4,84.8z M64.4,91.8c1.6,0,2.1-1.5,2.1-2.8c0-1.3-0.7-2.4-2.1-2.4c-1.4,0-2.1,1.2-2.1,2.4
			C62.3,90.3,62.7,91.8,64.4,91.8z"/>
		<path class="st5" d="M70.4,85h1.9v1.9h0c0.1-0.8,1-2.1,2.3-2.1c0.2,0,0.4,0,0.7,0.1v2.2c-0.2-0.1-0.6-0.2-1-0.2
			c-1.7,0-1.7,2.2-1.7,3.4v3h-2.1V85z"/>
		<path class="st5" d="M80.1,85h2.3l1.8,6.1h0l1.7-6.1h2.5l1.8,6.1h0l1.7-6.1h2l-2.5,8.2h-2.5L87.1,87h0l-1.8,6.3h-2.4L80.1,85z"/>
		<path class="st5" d="M95.3,81.3h2.1v4.9h0c0.5-0.8,1.5-1.3,2.6-1.3c2,0,2.8,1.4,2.8,3.2v5.2h-2.1v-4.4c0-1,0-2.4-1.4-2.4
			c-1.6,0-1.9,1.7-1.9,2.7v4h-2.1V81.3z"/>
		<path class="st5" d="M108.8,84.8c2.4,0,4.3,1.6,4.3,4.4c0,2.4-1.6,4.3-4.3,4.3c-2.7,0-4.3-1.9-4.3-4.3
			C104.5,86.5,106.4,84.8,108.8,84.8z M108.8,91.8c1.6,0,2.1-1.5,2.1-2.8c0-1.3-0.7-2.4-2.1-2.4c-1.4,0-2.1,1.2-2.1,2.4
			C106.7,90.3,107.2,91.8,108.8,91.8z"/>
		<path class="st5" d="M119.7,86.8c-0.7-0.2-1.1-0.4-1.9-0.4c-0.6,0-1.3,0.2-1.3,0.9c0,1.3,3.7,0.5,3.7,3.5c0,1.9-1.7,2.7-3.5,2.7
			c-0.8,0-1.6-0.1-2.4-0.4l0.1-1.8c0.7,0.3,1.4,0.5,2.1,0.5c0.5,0,1.4-0.2,1.4-1c0-1.6-3.7-0.5-3.7-3.5c0-1.8,1.6-2.6,3.2-2.6
			c1,0,1.7,0.2,2.3,0.3L119.7,86.8z"/>
		<path class="st5" d="M128.5,92.8c-0.8,0.4-1.7,0.7-2.8,0.7c-2.7,0-4.3-1.6-4.3-4.3c0-2.4,1.3-4.4,3.8-4.4c3.1,0,3.9,2.1,3.9,5
			h-5.7c0.1,1.3,1,2.1,2.4,2.1c1,0,1.9-0.4,2.7-0.8V92.8z M127.1,88.4c-0.1-1-0.5-1.9-1.7-1.9s-1.8,0.8-1.9,1.9H127.1z"/>
		<path class="st5" d="M16.3,112.4L16.3,112.4c-0.7,0.8-1.6,1.1-2.6,1.1c-2.5,0-3.5-2.1-3.5-4.3c0-2.3,0.9-4.3,3.5-4.3
			c1.1,0,1.8,0.4,2.5,1.2h0v-4.7h2.1v12h-2.1V112.4z M14.3,111.8c1.4,0,1.9-1.5,1.9-2.7c0-1.2-0.5-2.6-1.9-2.6
			c-1.4,0-1.8,1.5-1.8,2.6C12.5,110.3,12.9,111.8,14.3,111.8z"/>
		<path class="st5" d="M20.6,101.5h2.1v2h-2.1V101.5z M20.6,105h2.1v8.2h-2.1V105z"/>
		<path class="st5" d="M29.9,106.8c-0.7-0.2-1.1-0.4-1.9-0.4c-0.6,0-1.3,0.2-1.3,0.9c0,1.3,3.7,0.5,3.7,3.5c0,1.9-1.7,2.7-3.5,2.7
			c-0.8,0-1.6-0.1-2.4-0.4l0.1-1.8c0.7,0.3,1.4,0.5,2.1,0.5c0.5,0,1.4-0.2,1.4-1c0-1.6-3.7-0.5-3.7-3.5c0-1.8,1.6-2.6,3.2-2.6
			c1,0,1.7,0.2,2.3,0.3L29.9,106.8z"/>
		<path class="st5" d="M38.7,112.8c-0.8,0.4-1.7,0.7-2.8,0.7c-2.7,0-4.3-1.6-4.3-4.3c0-2.4,1.3-4.4,3.8-4.4c3.1,0,3.9,2.1,3.9,5
			h-5.7c0.1,1.3,1,2.1,2.4,2.1c1,0,1.9-0.4,2.7-0.8V112.8z M37.3,108.4c-0.1-1-0.5-1.9-1.7-1.9s-1.8,0.8-1.9,1.9H37.3z"/>
		<path class="st5" d="M41.4,105.5c0.8-0.4,2-0.6,2.9-0.6c2.5,0,3.6,1,3.6,3.5v1.1c0,0.8,0,1.5,0,2.1c0,0.6,0,1.2,0.1,1.8H46
			c-0.1-0.4-0.1-1-0.1-1.2h0c-0.5,0.9-1.6,1.4-2.5,1.4c-1.5,0-2.9-0.9-2.9-2.4c0-1.2,0.6-2,1.4-2.4s1.9-0.5,2.8-0.5h1.2
			c0-1.3-0.6-1.8-1.9-1.8c-0.9,0-1.8,0.4-2.5,0.9L41.4,105.5z M43.9,111.9c0.7,0,1.2-0.3,1.5-0.7c0.4-0.5,0.4-1.1,0.4-1.7h-0.9
			c-1,0-2.4,0.2-2.4,1.4C42.5,111.6,43.1,111.9,43.9,111.9z"/>
		<path class="st5" d="M54.8,106.8c-0.7-0.2-1.1-0.4-1.9-0.4c-0.6,0-1.3,0.2-1.3,0.9c0,1.3,3.7,0.5,3.7,3.5c0,1.9-1.7,2.7-3.5,2.7
			c-0.8,0-1.6-0.1-2.4-0.4l0.1-1.8c0.7,0.3,1.4,0.5,2.1,0.5c0.5,0,1.4-0.2,1.4-1c0-1.6-3.7-0.5-3.7-3.5c0-1.8,1.6-2.6,3.2-2.6
			c1,0,1.7,0.2,2.3,0.3L54.8,106.8z"/>
		<path class="st5" d="M63.6,112.8c-0.8,0.4-1.7,0.7-2.8,0.7c-2.7,0-4.3-1.6-4.3-4.3c0-2.4,1.3-4.4,3.8-4.4c3.1,0,3.9,2.1,3.9,5
			h-5.7c0.1,1.3,1,2.1,2.4,2.1c1,0,1.9-0.4,2.7-0.8V112.8z M62.2,108.4c-0.1-1-0.5-1.9-1.7-1.9s-1.8,0.8-1.9,1.9H62.2z"/>
		<path class="st5" d="M75.2,106.8c-0.7-0.2-1.1-0.4-1.9-0.4c-0.6,0-1.3,0.2-1.3,0.9c0,1.3,3.7,0.5,3.7,3.5c0,1.9-1.7,2.7-3.5,2.7
			c-0.8,0-1.6-0.1-2.4-0.4l0.1-1.8c0.7,0.3,1.4,0.5,2.1,0.5c0.5,0,1.4-0.2,1.4-1c0-1.6-3.7-0.5-3.7-3.5c0-1.8,1.6-2.6,3.2-2.6
			c1,0,1.7,0.2,2.3,0.3L75.2,106.8z"/>
		<path class="st5" d="M84.1,112.8c-0.8,0.4-1.7,0.7-2.8,0.7c-2.7,0-4.3-1.6-4.3-4.3c0-2.4,1.3-4.4,3.8-4.4c3.1,0,3.9,2.1,3.9,5H79
			c0.1,1.3,1,2.1,2.4,2.1c1,0,1.9-0.4,2.7-0.8V112.8z M82.6,108.4c-0.1-1-0.5-1.9-1.7-1.9s-1.8,0.8-1.9,1.9H82.6z"/>
		<path class="st5" d="M85.4,105h2.3l2,6h0l2-6h2.1l-3,8.2h-2.4L85.4,105z"/>
		<path class="st5" d="M101.9,112.8c-0.8,0.4-1.7,0.7-2.8,0.7c-2.7,0-4.3-1.6-4.3-4.3c0-2.4,1.3-4.4,3.8-4.4c3.1,0,3.9,2.1,3.9,5
			h-5.7c0.1,1.3,1,2.1,2.4,2.1c1,0,1.9-0.4,2.7-0.8V112.8z M100.4,108.4c-0.1-1-0.5-1.9-1.7-1.9s-1.8,0.8-1.9,1.9H100.4z"/>
		<path class="st5" d="M104.2,105h1.9v1.9h0c0.1-0.8,1-2.1,2.3-2.1c0.2,0,0.4,0,0.7,0.1v2.2c-0.2-0.1-0.6-0.2-1-0.2
			c-1.7,0-1.7,2.2-1.7,3.4v3h-2.1V105z"/>
		<path class="st5" d="M110.4,101.5h2.1v2h-2.1V101.5z M110.4,105h2.1v8.2h-2.1V105z"/>
		<path class="st5" d="M115.5,106.6h-1.6V105h1.6v-1.6l2.1-0.7v2.3h1.9v1.6h-1.9v3.8c0,0.7,0.2,1.4,1,1.4c0.4,0,0.8-0.1,1-0.2
			l0.1,1.7c-0.4,0.1-0.9,0.2-1.6,0.2c-1.7,0-2.6-1-2.6-2.7V106.6z"/>
		<path class="st5" d="M124.5,111.1L124.5,111.1l2-6h2.2l-3.1,8.2c-0.7,1.8-1.2,3.6-3.4,3.6c-0.5,0-1-0.1-1.5-0.2l0.1-1.6
			c0.3,0.1,0.6,0.1,1.1,0.1c0.9,0,1.4-0.6,1.4-1.5l-3.2-8.7h2.4L124.5,111.1z"/>
		<path class="st5" d="M15.2,126.8c-0.4-0.2-0.8-0.3-1.5-0.3c-1.3,0-2.2,1.1-2.2,2.6c0,1.5,0.7,2.7,2.2,2.7c0.6,0,1.3-0.2,1.6-0.4
			l0.1,1.8c-0.6,0.2-1.3,0.3-2.1,0.3c-2.7,0-4.1-1.8-4.1-4.4c0-2.4,1.4-4.3,4-4.3c0.9,0,1.5,0.1,2.1,0.3L15.2,126.8z"/>
		<path class="st5" d="M17,121.3h2.1v12H17V121.3z"/>
		<path class="st5" d="M28.1,132.8c-0.8,0.4-1.7,0.7-2.8,0.7c-2.7,0-4.3-1.6-4.3-4.3c0-2.4,1.3-4.4,3.8-4.4c3.1,0,3.9,2.1,3.9,5H23
			c0.1,1.3,1,2.1,2.4,2.1c1,0,1.9-0.4,2.7-0.8V132.8z M26.6,128.4c-0.1-1-0.5-1.9-1.7-1.9s-1.8,0.8-1.9,1.9H26.6z"/>
		<path class="st5" d="M30.7,125.5c0.8-0.4,2-0.6,2.9-0.6c2.5,0,3.6,1,3.6,3.5v1.1c0,0.8,0,1.5,0,2.1c0,0.6,0,1.2,0.1,1.8h-1.9
			c-0.1-0.4-0.1-1-0.1-1.2h0c-0.5,0.9-1.6,1.4-2.5,1.4c-1.5,0-2.9-0.9-2.9-2.4c0-1.2,0.6-2,1.4-2.4c0.8-0.4,1.9-0.5,2.8-0.5h1.2
			c0-1.3-0.6-1.8-1.9-1.8c-0.9,0-1.8,0.4-2.5,0.9L30.7,125.5z M33.2,131.9c0.7,0,1.2-0.3,1.5-0.7c0.4-0.5,0.4-1.1,0.4-1.7h-0.9
			c-1,0-2.4,0.2-2.4,1.4C31.9,131.6,32.5,131.9,33.2,131.9z"/>
		<path class="st5" d="M39.3,125h1.9v1.9h0c0.1-0.8,1-2.1,2.3-2.1c0.2,0,0.4,0,0.7,0.1v2.2c-0.2-0.1-0.6-0.2-1-0.2
			c-1.7,0-1.7,2.2-1.7,3.4v3h-2.1V125z"/>
		<path class="st5" d="M45.5,121.3h2.1v12h-2.1V121.3z"/>
		<path class="st5" d="M53.3,131.1L53.3,131.1l2-6h2.2l-3.1,8.2c-0.7,1.8-1.2,3.6-3.4,3.6c-0.5,0-1-0.1-1.5-0.2l0.1-1.6
			c0.3,0.1,0.6,0.1,1.1,0.1c0.9,0,1.4-0.6,1.4-1.5L49,125h2.4L53.3,131.1z"/>
		<path class="st5" d="M62.3,125h2.3l1.8,6.1h0l1.7-6.1h2.5l1.8,6.1h0l1.7-6.1h2l-2.5,8.2h-2.5l-1.8-6.3h0l-1.8,6.3h-2.4L62.3,125z"
			/>
		<path class="st5" d="M77.8,125.5c0.8-0.4,2-0.6,2.9-0.6c2.5,0,3.6,1,3.6,3.5v1.1c0,0.8,0,1.5,0,2.1c0,0.6,0,1.2,0.1,1.8h-1.9
			c-0.1-0.4-0.1-1-0.1-1.2h0c-0.5,0.9-1.6,1.4-2.5,1.4c-1.5,0-2.9-0.9-2.9-2.4c0-1.2,0.6-2,1.4-2.4s1.9-0.5,2.8-0.5h1.2
			c0-1.3-0.6-1.8-1.9-1.8c-0.9,0-1.8,0.4-2.5,0.9L77.8,125.5z M80.4,131.9c0.7,0,1.2-0.3,1.5-0.7c0.4-0.5,0.4-1.1,0.4-1.7h-0.9
			c-1,0-2.4,0.2-2.4,1.4C79,131.6,79.6,131.9,80.4,131.9z"/>
		<path class="st5" d="M86.4,125h1.9v1.9h0c0.1-0.8,1-2.1,2.3-2.1c0.2,0,0.4,0,0.7,0.1v2.2c-0.2-0.1-0.6-0.2-1-0.2
			c-1.7,0-1.7,2.2-1.7,3.4v3h-2.1V125z"/>
		<path class="st5" d="M92.6,125h1.9v1.9h0c0.1-0.8,1-2.1,2.3-2.1c0.2,0,0.4,0,0.7,0.1v2.2c-0.2-0.1-0.6-0.2-1-0.2
			c-1.7,0-1.7,2.2-1.7,3.4v3h-2.1V125z"/>
		<path class="st5" d="M99.2,125.5c0.8-0.4,2-0.6,2.9-0.6c2.5,0,3.6,1,3.6,3.5v1.1c0,0.8,0,1.5,0,2.1c0,0.6,0,1.2,0.1,1.8h-1.9
			c-0.1-0.4-0.1-1-0.1-1.2h0c-0.5,0.9-1.6,1.4-2.5,1.4c-1.5,0-2.9-0.9-2.9-2.4c0-1.2,0.6-2,1.4-2.4s1.9-0.5,2.8-0.5h1.2
			c0-1.3-0.6-1.8-1.9-1.8c-0.9,0-1.8,0.4-2.5,0.9L99.2,125.5z M101.7,131.9c0.7,0,1.2-0.3,1.5-0.7c0.4-0.5,0.4-1.1,0.4-1.7h-0.9
			c-1,0-2.4,0.2-2.4,1.4C100.3,131.6,100.9,131.9,101.7,131.9z"/>
		<path class="st5" d="M107.7,125h2v1.1h0c0.7-0.9,1.6-1.3,2.7-1.3c2,0,2.8,1.4,2.8,3.2v5.2h-2.1v-4.4c0-1,0-2.4-1.4-2.4
			c-1.6,0-1.9,1.7-1.9,2.7v4h-2.1V125z"/>
		<path class="st5" d="M118.2,126.6h-1.6V125h1.6v-1.6l2.1-0.7v2.3h1.9v1.6h-1.9v3.8c0,0.7,0.2,1.4,1,1.4c0.4,0,0.8-0.1,1-0.2
			l0.1,1.7c-0.4,0.1-0.9,0.2-1.6,0.2c-1.7,0-2.6-1-2.6-2.7V126.6z"/>
		<path class="st5" d="M128.6,126.8c-0.7-0.2-1.1-0.4-1.9-0.4c-0.6,0-1.3,0.2-1.3,0.9c0,1.3,3.7,0.5,3.7,3.5c0,1.9-1.7,2.7-3.5,2.7
			c-0.8,0-1.6-0.1-2.4-0.4l0.1-1.8c0.7,0.3,1.4,0.5,2.1,0.5c0.5,0,1.4-0.2,1.4-1c0-1.6-3.7-0.5-3.7-3.5c0-1.8,1.6-2.6,3.2-2.6
			c1,0,1.7,0.2,2.3,0.3L128.6,126.8z"/>
		<path class="st5" d="M24.1,145.5c0.8-0.4,2-0.6,2.9-0.6c2.5,0,3.6,1,3.6,3.5v1.1c0,0.8,0,1.5,0,2.1c0,0.6,0,1.2,0.1,1.8h-1.9
			c-0.1-0.4-0.1-1-0.1-1.2h0c-0.5,0.9-1.6,1.4-2.5,1.4c-1.5,0-2.9-0.9-2.9-2.4c0-1.2,0.6-2,1.4-2.4s1.9-0.5,2.8-0.5h1.2
			c0-1.3-0.6-1.8-1.9-1.8c-0.9,0-1.8,0.4-2.5,0.9L24.1,145.5z M26.6,151.9c0.7,0,1.2-0.3,1.5-0.7c0.4-0.5,0.4-1.1,0.4-1.7h-0.9
			c-1,0-2.4,0.2-2.4,1.4C25.2,151.6,25.8,151.9,26.6,151.9z"/>
		<path class="st5" d="M32.6,145h2v1.1h0c0.7-0.9,1.6-1.3,2.7-1.3c2,0,2.8,1.4,2.8,3.2v5.2H38v-4.4c0-1,0-2.4-1.4-2.4
			c-1.6,0-1.9,1.7-1.9,2.7v4h-2.1V145z"/>
		<path class="st5" d="M46.8,142.1H49v11.2h-2.2V142.1z"/>
		<path class="st5" d="M59.6,153.1c-0.8,0.2-1.7,0.4-2.5,0.4c-3.6,0-6.1-1.8-6.1-5.6c0-3.8,2.3-6,6.1-6c0.7,0,1.7,0.1,2.5,0.5
			l-0.2,1.9c-0.8-0.5-1.6-0.6-2.4-0.6c-2.3,0-3.7,1.8-3.7,4c0,2.3,1.4,4,3.8,4c0.9,0,1.9-0.2,2.4-0.5L59.6,153.1z"/>
		<path class="st5" d="M67.2,144.2c-0.7-0.3-1.5-0.5-2.3-0.5c-0.8,0-1.8,0.3-1.8,1.6c0,1.9,4.9,1.1,4.9,4.9c0,2.4-1.9,3.4-4.2,3.4
			c-1.2,0-1.8-0.2-2.9-0.4l0.2-2c0.8,0.4,1.6,0.7,2.5,0.7c0.8,0,2-0.4,2-1.4c0-2.1-4.9-1.2-4.9-4.9c0-2.5,1.9-3.4,3.9-3.4
			c1,0,1.9,0.1,2.7,0.4L67.2,144.2z"/>
		<path class="st5" d="M73.1,141.9h1.7l-3.9,11.6h-1.7L73.1,141.9z"/>
		<path class="st5" d="M76.3,142.1h2.2v9.4h4.3v1.8h-6.6V142.1z"/>
		<path class="st5" d="M87.5,142.1h2.5l4.4,11.2H92l-1-2.6h-4.5l-1,2.6h-2.3L87.5,142.1z M88.8,144.3L88.8,144.3l-1.6,4.6h3.3
			L88.8,144.3z"/>
		<path class="st5" d="M95.9,142.1h3.9c1.4,0,3.6,0.4,3.6,2.9c0,1.3-0.9,2.3-2.2,2.5v0c1.5,0.1,2.6,1.2,2.6,2.5
			c0,2.8-2.5,3.2-3.9,3.2h-3.9V142.1z M98.1,146.6H99c0.9,0,2.1-0.2,2.1-1.4c0-1.3-1.1-1.4-2.2-1.4h-0.9V146.6z M98.1,151.5h1.1
			c1,0,2.3-0.3,2.3-1.6c0-1.5-1.2-1.7-2.3-1.7h-1.1V151.5z"/>
		<path class="st5" d="M108.9,142.1h2.5l4.4,11.2h-2.5l-1-2.6h-4.5l-1,2.6h-2.3L108.9,142.1z M110.1,144.3L110.1,144.3l-1.6,4.6h3.3
			L110.1,144.3z"/>
	</g>
</g>
<g id="Border">
</g>
</svg>
