<?xml version="1.0" encoding="iso-8859-1"?>
<!-- Generator: Adobe Illustrator 19.1.0, SVG Export Plug-In . SVG Version: 6.00 Build 0)  -->
<svg version="1.1" xmlns="http://www.w3.org/2000/svg" xmlns:xlink="http://www.w3.org/1999/xlink" x="0px" y="0px"
	 viewBox="0 0 294.984 38.501" style="enable-background:new 0 0 294.984 38.501;" xml:space="preserve">
<g id="Layer_1">
	<g>
		<path style="fill:#FFFFFF;" d="M33.084,2.917h-3.601V0.936h9.723v1.981h-3.602v10.587h-2.521V2.917z"/>
		<path style="fill:#FFFFFF;" d="M38.987,4.231h2.143v2.107h0.035c0.108-0.864,1.099-2.323,2.539-2.323c0.234,0,0.486,0,0.738,0.072
			v2.431c-0.216-0.126-0.648-0.198-1.08-0.198c-1.963,0-1.963,2.449-1.963,3.781v3.403h-2.412V4.231z"/>
		<path style="fill:#FFFFFF;" d="M53.048,12.982c-0.883,0.486-1.891,0.738-3.188,0.738c-3.061,0-4.843-1.764-4.843-4.807
			c0-2.683,1.422-4.897,4.303-4.897c3.439,0,4.411,2.359,4.411,5.6h-6.409c0.107,1.495,1.152,2.341,2.646,2.341
			c1.171,0,2.179-0.432,3.079-0.937V12.982z M51.427,7.958c-0.071-1.17-0.611-2.178-1.962-2.178s-2.035,0.936-2.143,2.178H51.427z"
			/>
		<path style="fill:#FFFFFF;" d="M56.033,4.717c0.937-0.432,2.197-0.702,3.224-0.702c2.826,0,3.997,1.17,3.997,3.907V9.11
			c0,0.937,0.018,1.639,0.036,2.323c0.018,0.703,0.054,1.351,0.107,2.071h-2.124c-0.091-0.486-0.091-1.098-0.108-1.386h-0.036
			c-0.558,1.026-1.765,1.602-2.862,1.602c-1.639,0-3.241-0.99-3.241-2.754c0-1.387,0.666-2.197,1.584-2.647
			c0.919-0.45,2.106-0.54,3.115-0.54h1.332c0-1.495-0.666-1.999-2.088-1.999c-1.026,0-2.053,0.396-2.863,1.008L56.033,4.717z
			 M58.86,11.956c0.738,0,1.314-0.324,1.692-0.829c0.396-0.522,0.504-1.188,0.504-1.908h-1.044c-1.08,0-2.683,0.18-2.683,1.603
			C57.33,11.613,57.996,11.956,58.86,11.956z"/>
		<path style="fill:#FFFFFF;" d="M66.419,5.996h-1.782V4.231h1.782V2.376l2.413-0.774v2.628h2.143v1.765h-2.143v4.321
			c0,0.792,0.216,1.531,1.135,1.531c0.432,0,0.846-0.09,1.098-0.252l0.072,1.909c-0.504,0.144-1.062,0.216-1.782,0.216
			c-1.891,0-2.936-1.17-2.936-3.007V5.996z"/>
		<path style="fill:#FFFFFF;" d="M72.683,0.234h2.413v2.305h-2.413V0.234z M72.683,4.231h2.413v9.273h-2.413V4.231z"/>
		<path style="fill:#FFFFFF;" d="M77.633,4.231h2.287v1.261h0.036c0.756-1.062,1.782-1.477,3.043-1.477
			c2.196,0,3.15,1.548,3.15,3.637v5.852h-2.412V8.552c0-1.134-0.019-2.665-1.567-2.665c-1.746,0-2.124,1.891-2.124,3.079v4.537
			h-2.413V4.231z"/>
		<path style="fill:#FFFFFF;" d="M97.147,4.231v8.373c0,2.521-1.008,4.897-4.897,4.897c-0.954,0-2.053-0.144-3.205-0.63l0.198-2.053
			c0.738,0.396,1.944,0.81,2.701,0.81c2.664,0,2.791-1.999,2.791-3.601h-0.036c-0.45,0.792-1.531,1.477-2.881,1.477
			c-2.737,0-3.781-2.197-3.781-4.682c0-2.232,1.152-4.807,3.925-4.807c1.225,0,2.179,0.414,2.845,1.477h0.036V4.231H97.147z
			 M94.735,8.769c0-1.584-0.612-2.881-2.018-2.881c-1.638,0-2.16,1.512-2.16,2.935c0,1.261,0.666,2.809,2.053,2.809
			C94.123,11.631,94.735,10.317,94.735,8.769z"/>
		<path style="fill:#FFFFFF;" d="M105.047,4.717c0.937-0.432,2.197-0.702,3.224-0.702c2.826,0,3.997,1.17,3.997,3.907V9.11
			c0,0.937,0.018,1.639,0.036,2.323c0.018,0.703,0.054,1.351,0.107,2.071h-2.124c-0.091-0.486-0.091-1.098-0.108-1.386h-0.036
			c-0.558,1.026-1.765,1.602-2.862,1.602c-1.639,0-3.241-0.99-3.241-2.754c0-1.387,0.666-2.197,1.584-2.647
			c0.919-0.45,2.106-0.54,3.115-0.54h1.332c0-1.495-0.666-1.999-2.088-1.999c-1.026,0-2.053,0.396-2.863,1.008L105.047,4.717z
			 M107.874,11.956c0.738,0,1.314-0.324,1.692-0.829c0.396-0.522,0.504-1.188,0.504-1.908h-1.044c-1.08,0-2.683,0.18-2.683,1.603
			C106.344,11.613,107.01,11.956,107.874,11.956z"/>
		<path style="fill:#FFFFFF;" d="M120.816,12.459h-0.036c-0.72,0.9-1.71,1.26-2.845,1.26c-2.845,0-3.889-2.34-3.889-4.879
			c0-2.557,1.044-4.825,3.889-4.825c1.207,0,2.053,0.414,2.773,1.296h0.036V0h2.412v13.504h-2.341V12.459z M118.602,11.848
			c1.603,0,2.125-1.693,2.125-3.007c0-1.296-0.612-2.953-2.16-2.953c-1.567,0-1.999,1.71-1.999,2.953
			C116.567,10.119,117.018,11.848,118.602,11.848z"/>
		<path style="fill:#FFFFFF;" d="M134.155,13.504h-2.286v-1.26h-0.036c-0.738,0.9-1.783,1.476-3.043,1.476
			c-2.197,0-3.151-1.548-3.151-3.637V4.231h2.413v4.952c0,1.134,0.018,2.665,1.566,2.665c1.746,0,2.125-1.891,2.125-3.079V4.231
			h2.412V13.504z"/>
		<path style="fill:#FFFFFF;" d="M136.69,0h2.413v13.504h-2.413V0z"/>
		<path style="fill:#FFFFFF;" d="M142.433,5.996h-1.782V4.231h1.782V2.376l2.413-0.774v2.628h2.143v1.765h-2.143v4.321
			c0,0.792,0.216,1.531,1.135,1.531c0.432,0,0.846-0.09,1.098-0.252l0.072,1.909c-0.504,0.144-1.062,0.216-1.782,0.216
			c-1.891,0-2.936-1.17-2.936-3.007V5.996z"/>
		<path style="fill:#FFFFFF;" d="M153.646,4.231h2.305v1.314h0.036c0.54-0.9,1.459-1.53,2.881-1.53c2.845,0,3.89,2.269,3.89,4.825
			c0,2.539-1.045,4.879-3.943,4.879c-1.026,0-1.873-0.252-2.719-1.278h-0.036v4.844h-2.413V4.231z M156.077,8.84
			c0,1.314,0.522,3.007,2.125,3.007c1.584,0,2.034-1.729,2.034-3.007c0-1.242-0.432-2.953-1.998-2.953
			C156.689,5.888,156.077,7.544,156.077,8.84z"/>
		<path style="fill:#FFFFFF;" d="M165.059,4.717c0.937-0.432,2.197-0.702,3.224-0.702c2.826,0,3.997,1.17,3.997,3.907V9.11
			c0,0.937,0.018,1.639,0.036,2.323c0.018,0.703,0.054,1.351,0.107,2.071h-2.124c-0.091-0.486-0.091-1.098-0.108-1.386h-0.036
			c-0.558,1.026-1.765,1.602-2.862,1.602c-1.639,0-3.241-0.99-3.241-2.754c0-1.387,0.666-2.197,1.584-2.647
			c0.919-0.45,2.106-0.54,3.115-0.54h1.332c0-1.495-0.666-1.999-2.088-1.999c-1.026,0-2.053,0.396-2.863,1.008L165.059,4.717z
			 M167.886,11.956c0.738,0,1.314-0.324,1.692-0.829c0.396-0.522,0.504-1.188,0.504-1.908h-1.044c-1.08,0-2.683,0.18-2.683,1.603
			C166.355,11.613,167.021,11.956,167.886,11.956z"/>
		<path style="fill:#FFFFFF;" d="M175.444,5.996h-1.782V4.231h1.782V2.376l2.413-0.774v2.628H180v1.765h-2.143v4.321
			c0,0.792,0.216,1.531,1.135,1.531c0.432,0,0.846-0.09,1.098-0.252l0.072,1.909c-0.504,0.144-1.062,0.216-1.782,0.216
			c-1.891,0-2.936-1.17-2.936-3.007V5.996z"/>
		<path style="fill:#FFFFFF;" d="M181.708,0.234h2.413v2.305h-2.413V0.234z M181.708,4.231h2.413v9.273h-2.413V4.231z"/>
		<path style="fill:#FFFFFF;" d="M194.095,12.982c-0.883,0.486-1.891,0.738-3.188,0.738c-3.061,0-4.843-1.764-4.843-4.807
			c0-2.683,1.422-4.897,4.303-4.897c3.439,0,4.411,2.359,4.411,5.6h-6.409c0.107,1.495,1.152,2.341,2.646,2.341
			c1.171,0,2.179-0.432,3.079-0.937V12.982z M192.474,7.958c-0.071-1.17-0.611-2.178-1.962-2.178s-2.035,0.936-2.143,2.178H192.474z
			"/>
		<path style="fill:#FFFFFF;" d="M196.666,4.231h2.287v1.261h0.036c0.756-1.062,1.782-1.477,3.043-1.477
			c2.196,0,3.15,1.548,3.15,3.637v5.852h-2.412V8.552c0-1.134-0.019-2.665-1.567-2.665c-1.746,0-2.124,1.891-2.124,3.079v4.537
			h-2.413V4.231z"/>
		<path style="fill:#FFFFFF;" d="M208.456,5.996h-1.782V4.231h1.782V2.376l2.413-0.774v2.628h2.143v1.765h-2.143v4.321
			c0,0.792,0.216,1.531,1.135,1.531c0.432,0,0.846-0.09,1.098-0.252l0.072,1.909c-0.504,0.144-1.062,0.216-1.782,0.216
			c-1.891,0-2.936-1.17-2.936-3.007V5.996z"/>
		<path style="fill:#FFFFFF;" d="M220.176,6.176c-0.738-0.252-1.278-0.396-2.16-0.396c-0.648,0-1.423,0.234-1.423,1.026
			c0,1.477,4.195,0.541,4.195,3.89c0,2.16-1.927,3.024-3.89,3.024c-0.918,0-1.854-0.162-2.736-0.396l0.144-1.98
			c0.757,0.378,1.549,0.612,2.377,0.612c0.612,0,1.585-0.234,1.585-1.134c0-1.819-4.195-0.576-4.195-3.925
			c0-1.999,1.746-2.881,3.637-2.881c1.135,0,1.873,0.18,2.629,0.342L220.176,6.176z"/>
		<path style="fill:#FFFFFF;" d="M226.618,4.231h2.557l2.053,6.86h0.036l1.872-6.86h2.809l2.017,6.86h0.036l1.927-6.86h2.305
			l-2.845,9.273h-2.845l-2.017-7.076h-0.036l-1.98,7.076h-2.755L226.618,4.231z"/>
		<path style="fill:#FFFFFF;" d="M243.718,0.234h2.413v2.305h-2.413V0.234z M243.718,4.231h2.413v9.273h-2.413V4.231z"/>
		<path style="fill:#FFFFFF;" d="M249.46,5.996h-1.782V4.231h1.782V2.376l2.413-0.774v2.628h2.143v1.765h-2.143v4.321
			c0,0.792,0.216,1.531,1.135,1.531c0.432,0,0.846-0.09,1.098-0.252l0.072,1.909c-0.504,0.144-1.062,0.216-1.782,0.216
			c-1.891,0-2.936-1.17-2.936-3.007V5.996z"/>
		<path style="fill:#FFFFFF;" d="M255.67,0h2.413v5.492h0.036c0.612-0.9,1.656-1.477,2.917-1.477c2.196,0,3.15,1.548,3.15,3.637
			v5.852h-2.412V8.552c0-1.134-0.019-2.665-1.567-2.665c-1.746,0-2.124,1.891-2.124,3.079v4.537h-2.413V0z"/>
		<path style="fill:#FFFFFF;" d="M1.008,25.717c0.937-0.432,2.197-0.702,3.224-0.702c2.826,0,3.997,1.17,3.997,3.907v1.188
			c0,0.937,0.018,1.639,0.036,2.323c0.018,0.703,0.054,1.351,0.107,2.071H6.248c-0.091-0.486-0.091-1.098-0.108-1.386H6.104
			c-0.558,1.026-1.765,1.602-2.862,1.602C1.603,34.72,0,33.729,0,31.965c0-1.387,0.666-2.197,1.584-2.647
			c0.919-0.45,2.106-0.54,3.115-0.54h1.332c0-1.495-0.666-1.999-2.088-1.999c-1.026,0-2.053,0.396-2.863,1.008L1.008,25.717z
			 M3.835,32.956c0.738,0,1.314-0.324,1.692-0.829c0.396-0.522,0.504-1.188,0.504-1.908H4.987c-1.08,0-2.683,0.18-2.683,1.603
			C2.305,32.613,2.971,32.956,3.835,32.956z"/>
		<path style="fill:#FFFFFF;" d="M15.605,21h2.413v5.492h0.036c0.612-0.9,1.656-1.477,2.917-1.477c2.196,0,3.15,1.548,3.15,3.637
			v5.852H21.71v-4.952c0-1.134-0.019-2.665-1.567-2.665c-1.746,0-2.124,1.891-2.124,3.079v4.537h-2.413V21z"/>
		<path style="fill:#FFFFFF;" d="M26.657,21.234h2.413v2.305h-2.413V21.234z M26.657,25.231h2.413v9.273h-2.413V25.231z"/>
		<path style="fill:#FFFFFF;" d="M37.117,27.176c-0.738-0.252-1.278-0.396-2.16-0.396c-0.648,0-1.423,0.234-1.423,1.026
			c0,1.477,4.195,0.541,4.195,3.89c0,2.16-1.927,3.024-3.89,3.024c-0.918,0-1.854-0.162-2.736-0.396l0.144-1.98
			c0.757,0.378,1.549,0.612,2.377,0.612c0.612,0,1.585-0.234,1.585-1.134c0-1.819-4.195-0.576-4.195-3.925
			c0-1.999,1.746-2.881,3.637-2.881c1.135,0,1.873,0.18,2.629,0.342L37.117,27.176z"/>
		<path style="fill:#FFFFFF;" d="M40.392,26.996h-1.782v-1.765h1.782v-1.854l2.413-0.774v2.628h2.143v1.765h-2.143v4.321
			c0,0.792,0.216,1.531,1.135,1.531c0.432,0,0.846-0.09,1.098-0.252l0.072,1.909c-0.504,0.144-1.062,0.216-1.782,0.216
			c-1.891,0-2.936-1.17-2.936-3.007V26.996z"/>
		<path style="fill:#FFFFFF;" d="M50.851,25.015c2.755,0,4.862,1.854,4.862,4.916c0,2.665-1.783,4.789-4.862,4.789
			c-3.061,0-4.843-2.125-4.843-4.789C46.008,26.87,48.114,25.015,50.851,25.015z M50.851,32.848c1.855,0,2.341-1.657,2.341-3.205
			c0-1.422-0.756-2.755-2.341-2.755c-1.566,0-2.322,1.368-2.322,2.755C48.528,31.173,49.015,32.848,50.851,32.848z"/>
		<path style="fill:#FFFFFF;" d="M57.653,25.231h2.144v2.107h0.035c0.108-0.864,1.099-2.323,2.539-2.323
			c0.234,0,0.486,0,0.738,0.072v2.431c-0.216-0.126-0.648-0.198-1.08-0.198c-1.963,0-1.963,2.449-1.963,3.781v3.403h-2.413V25.231z"
			/>
		<path style="fill:#FFFFFF;" d="M68.455,32.001h0.036l2.232-6.77h2.448l-3.475,9.201c-0.774,2.053-1.332,4.069-3.854,4.069
			c-0.576,0-1.152-0.09-1.71-0.252l0.162-1.783c0.306,0.108,0.648,0.162,1.242,0.162c0.973,0,1.566-0.666,1.566-1.656l-3.547-9.741
			h2.665L68.455,32.001z"/>
		<path style="fill:#FFFFFF;" d="M83.862,25.015c2.755,0,4.862,1.854,4.862,4.916c0,2.665-1.783,4.789-4.862,4.789
			c-3.061,0-4.843-2.125-4.843-4.789C79.02,26.87,81.126,25.015,83.862,25.015z M83.862,32.848c1.855,0,2.341-1.657,2.341-3.205
			c0-1.422-0.756-2.755-2.341-2.755c-1.566,0-2.322,1.368-2.322,2.755C81.54,31.173,82.026,32.848,83.862,32.848z"/>
		<path style="fill:#FFFFFF;" d="M91.494,26.996h-1.783v-1.765h1.783v-1.296c0-1.854,1.044-3.151,2.952-3.151
			c0.612,0,1.297,0.09,1.765,0.198l-0.198,1.999c-0.216-0.126-0.521-0.324-1.044-0.324c-0.811,0-1.062,0.702-1.062,1.422v1.152
			h2.106v1.765h-2.106v7.508h-2.412V26.996z"/>
		<path style="fill:#FFFFFF;" d="M103.031,25.717c0.937-0.432,2.197-0.702,3.224-0.702c2.826,0,3.997,1.17,3.997,3.907v1.188
			c0,0.937,0.018,1.639,0.036,2.323c0.018,0.703,0.054,1.351,0.107,2.071h-2.124c-0.091-0.486-0.091-1.098-0.108-1.386h-0.036
			c-0.558,1.026-1.765,1.602-2.862,1.602c-1.639,0-3.241-0.99-3.241-2.754c0-1.387,0.666-2.197,1.584-2.647
			c0.919-0.45,2.106-0.54,3.115-0.54h1.332c0-1.495-0.666-1.999-2.088-1.999c-1.026,0-2.053,0.396-2.863,1.008L103.031,25.717z
			 M105.858,32.956c0.738,0,1.314-0.324,1.692-0.829c0.396-0.522,0.504-1.188,0.504-1.908h-1.044c-1.08,0-2.683,0.18-2.683,1.603
			C104.328,32.613,104.994,32.956,105.858,32.956z"/>
		<path style="fill:#FFFFFF;" d="M118.135,27.176c-0.738-0.252-1.278-0.396-2.16-0.396c-0.648,0-1.423,0.234-1.423,1.026
			c0,1.477,4.195,0.541,4.195,3.89c0,2.16-1.927,3.024-3.89,3.024c-0.918,0-1.854-0.162-2.736-0.396l0.144-1.98
			c0.757,0.378,1.549,0.612,2.377,0.612c0.612,0,1.585-0.234,1.585-1.134c0-1.819-4.195-0.576-4.195-3.925
			c0-1.999,1.746-2.881,3.637-2.881c1.135,0,1.873,0.18,2.629,0.342L118.135,27.176z"/>
		<path style="fill:#FFFFFF;" d="M121.409,26.996h-1.782v-1.765h1.782v-1.854l2.413-0.774v2.628h2.143v1.765h-2.143v4.321
			c0,0.792,0.216,1.531,1.135,1.531c0.432,0,0.846-0.09,1.098-0.252l0.072,1.909c-0.504,0.144-1.062,0.216-1.782,0.216
			c-1.891,0-2.936-1.17-2.936-3.007V26.996z"/>
		<path style="fill:#FFFFFF;" d="M127.619,21h2.413v5.492h0.036c0.612-0.9,1.656-1.477,2.917-1.477c2.196,0,3.15,1.548,3.15,3.637
			v5.852h-2.412v-4.952c0-1.134-0.019-2.665-1.567-2.665c-1.746,0-2.124,1.891-2.124,3.079v4.537h-2.413V21z"/>
		<path style="fill:#FFFFFF;" d="M138.581,25.231h2.251v1.296h0.036c0.756-1.134,1.854-1.512,2.755-1.512
			c1.296,0,2.215,0.486,2.736,1.638c0.559-1.116,1.765-1.638,2.899-1.638c2.286,0,2.935,1.566,2.935,3.637v5.852h-2.413v-5.528
			c0-0.864,0-2.088-1.386-2.088c-1.603,0-1.801,1.909-1.801,3.115v4.501h-2.413v-5.528c0-0.864,0-2.088-1.386-2.088
			c-1.603,0-1.801,1.909-1.801,3.115v4.501h-2.413V25.231z"/>
		<path style="fill:#FFFFFF;" d="M155.033,25.717c0.937-0.432,2.197-0.702,3.224-0.702c2.826,0,3.997,1.17,3.997,3.907v1.188
			c0,0.937,0.018,1.639,0.036,2.323c0.018,0.703,0.054,1.351,0.107,2.071h-2.124c-0.091-0.486-0.091-1.098-0.108-1.386h-0.036
			c-0.558,1.026-1.765,1.602-2.862,1.602c-1.639,0-3.241-0.99-3.241-2.754c0-1.387,0.666-2.197,1.584-2.647
			c0.919-0.45,2.106-0.54,3.115-0.54h1.332c0-1.495-0.666-1.999-2.088-1.999c-1.026,0-2.053,0.396-2.863,1.008L155.033,25.717z
			 M157.86,32.956c0.738,0,1.314-0.324,1.692-0.829c0.396-0.522,0.504-1.188,0.504-1.908h-1.044c-1.08,0-2.683,0.18-2.683,1.603
			C156.33,32.613,156.996,32.956,157.86,32.956z"/>
		<path style="fill:#FFFFFF;" d="M177.067,33.982c-0.883,0.486-1.891,0.738-3.188,0.738c-3.061,0-4.843-1.764-4.843-4.807
			c0-2.683,1.422-4.897,4.303-4.897c3.439,0,4.411,2.359,4.411,5.6h-6.409c0.107,1.495,1.152,2.341,2.646,2.341
			c1.171,0,2.179-0.432,3.079-0.937V33.982z M175.446,28.958c-0.071-1.17-0.611-2.178-1.962-2.178s-2.035,0.936-2.143,2.178H175.446
			z"/>
		<path style="fill:#FFFFFF;" d="M178.883,25.231h2.845l1.818,3.025l1.782-3.025h2.558l-2.773,4.412l3.133,4.861h-2.881l-2.07-3.457
			l-2.089,3.457h-2.646l3.187-4.861L178.883,25.231z"/>
		<path style="fill:#FFFFFF;" d="M190.061,25.717c0.937-0.432,2.197-0.702,3.224-0.702c2.826,0,3.997,1.17,3.997,3.907v1.188
			c0,0.937,0.018,1.639,0.036,2.323c0.018,0.703,0.054,1.351,0.107,2.071h-2.124c-0.091-0.486-0.091-1.098-0.108-1.386h-0.036
			c-0.558,1.026-1.765,1.602-2.862,1.602c-1.639,0-3.241-0.99-3.241-2.754c0-1.387,0.666-2.197,1.584-2.647
			c0.919-0.45,2.106-0.54,3.115-0.54h1.332c0-1.495-0.666-1.999-2.088-1.999c-1.026,0-2.053,0.396-2.863,1.008L190.061,25.717z
			 M192.888,32.956c0.738,0,1.314-0.324,1.692-0.829c0.396-0.522,0.504-1.188,0.504-1.908h-1.044c-1.08,0-2.683,0.18-2.683,1.603
			C191.357,32.613,192.023,32.956,192.888,32.956z"/>
		<path style="fill:#FFFFFF;" d="M205.668,27.229c-0.432-0.198-0.9-0.342-1.638-0.342c-1.495,0-2.449,1.188-2.449,2.935
			c0,1.711,0.811,3.025,2.503,3.025c0.684,0,1.44-0.252,1.854-0.433l0.107,1.999c-0.702,0.216-1.422,0.306-2.412,0.306
			c-3.043,0-4.573-2.07-4.573-4.897c0-2.683,1.584-4.807,4.483-4.807c0.972,0,1.674,0.108,2.341,0.306L205.668,27.229z"/>
		<path style="fill:#FFFFFF;" d="M215.083,33.982c-0.883,0.486-1.891,0.738-3.188,0.738c-3.061,0-4.843-1.764-4.843-4.807
			c0-2.683,1.422-4.897,4.303-4.897c3.439,0,4.411,2.359,4.411,5.6h-6.409c0.107,1.495,1.152,2.341,2.646,2.341
			c1.171,0,2.179-0.432,3.079-0.937V33.982z M213.462,28.958c-0.071-1.17-0.611-2.178-1.962-2.178s-2.035,0.936-2.143,2.178H213.462
			z"/>
		<path style="fill:#FFFFFF;" d="M217.708,25.231h2.144v2.107h0.035c0.108-0.864,1.099-2.323,2.539-2.323
			c0.234,0,0.486,0,0.738,0.072v2.431c-0.216-0.126-0.648-0.198-1.08-0.198c-1.963,0-1.963,2.449-1.963,3.781v3.403h-2.413V25.231z"
			/>
		<path style="fill:#FFFFFF;" d="M224.656,21h2.413v5.419h0.036c0.666-0.882,1.512-1.404,2.772-1.404c2.845,0,3.89,2.269,3.89,4.825
			c0,2.539-1.045,4.879-3.89,4.879c-1.026,0-2.143-0.36-2.845-1.35h-0.036v1.134h-2.341V21z M229.212,32.848
			c1.584,0,2.034-1.729,2.034-3.007c0-1.242-0.432-2.953-1.998-2.953c-1.549,0-2.161,1.656-2.161,2.953
			C227.087,31.155,227.609,32.848,229.212,32.848z"/>
		<path style="fill:#FFFFFF;" d="M236.068,25.717c0.937-0.432,2.197-0.702,3.224-0.702c2.826,0,3.997,1.17,3.997,3.907v1.188
			c0,0.937,0.018,1.639,0.036,2.323c0.018,0.703,0.054,1.351,0.107,2.071h-2.124c-0.091-0.486-0.091-1.098-0.108-1.386h-0.036
			c-0.558,1.026-1.765,1.602-2.862,1.602c-1.639,0-3.241-0.99-3.241-2.754c0-1.387,0.666-2.197,1.584-2.647
			c0.919-0.45,2.106-0.54,3.115-0.54h1.332c0-1.495-0.666-1.999-2.088-1.999c-1.026,0-2.053,0.396-2.863,1.008L236.068,25.717z
			 M238.896,32.956c0.738,0,1.314-0.324,1.692-0.829c0.396-0.522,0.504-1.188,0.504-1.908h-1.044c-1.08,0-2.683,0.18-2.683,1.603
			C237.365,32.613,238.031,32.956,238.896,32.956z"/>
		<path style="fill:#FFFFFF;" d="M246.454,26.996h-1.782v-1.765h1.782v-1.854l2.413-0.774v2.628h2.143v1.765h-2.143v4.321
			c0,0.792,0.216,1.531,1.135,1.531c0.432,0,0.846-0.09,1.098-0.252l0.072,1.909c-0.504,0.144-1.062,0.216-1.782,0.216
			c-1.891,0-2.936-1.17-2.936-3.007V26.996z"/>
		<path style="fill:#FFFFFF;" d="M252.718,21.234h2.413v2.305h-2.413V21.234z M252.718,25.231h2.413v9.273h-2.413V25.231z"/>
		<path style="fill:#FFFFFF;" d="M261.917,25.015c2.755,0,4.862,1.854,4.862,4.916c0,2.665-1.783,4.789-4.862,4.789
			c-3.061,0-4.843-2.125-4.843-4.789C257.074,26.87,259.181,25.015,261.917,25.015z M261.917,32.848
			c1.855,0,2.341-1.657,2.341-3.205c0-1.422-0.756-2.755-2.341-2.755c-1.566,0-2.322,1.368-2.322,2.755
			C259.595,31.173,260.081,32.848,261.917,32.848z"/>
		<path style="fill:#FFFFFF;" d="M268.666,25.231h2.287v1.261h0.036c0.756-1.062,1.782-1.477,3.043-1.477
			c2.196,0,3.15,1.548,3.15,3.637v5.852h-2.412v-4.952c0-1.134-0.019-2.665-1.567-2.665c-1.746,0-2.124,1.891-2.124,3.079v4.537
			h-2.413V25.231z"/>
		<path style="fill:#FFFFFF;" d="M285.174,27.176c-0.738-0.252-1.278-0.396-2.16-0.396c-0.648,0-1.423,0.234-1.423,1.026
			c0,1.477,4.195,0.541,4.195,3.89c0,2.16-1.927,3.024-3.89,3.024c-0.918,0-1.854-0.162-2.736-0.396l0.144-1.98
			c0.757,0.378,1.549,0.612,2.377,0.612c0.612,0,1.585-0.234,1.585-1.134c0-1.819-4.195-0.576-4.195-3.925
			c0-1.999,1.746-2.881,3.637-2.881c1.135,0,1.873,0.18,2.629,0.342L285.174,27.176z"/>
		<path style="fill:#FFFFFF;" d="M287.314,22.314c1.152-0.342,2.358-0.594,3.565-0.594c2.07,0,4.104,0.918,4.104,3.223
			c0,2.521-3.276,3.529-3.061,5.888h-2.215c0-1.711,0.666-2.647,1.314-3.385c0.666-0.738,1.332-1.278,1.332-2.215
			c0-1.188-1.026-1.638-2.07-1.638c-0.954,0-1.908,0.324-2.772,0.72L287.314,22.314z M289.565,31.983h2.521v2.521h-2.521V31.983z"/>
	</g>
</g>
<g id="Layer_2">
</g>
</svg>
