<?xml version="1.0" encoding="iso-8859-1"?>
<!-- Generator: Adobe Illustrator 19.1.0, SVG Export Plug-In . SVG Version: 6.00 Build 0)  -->
<svg version="1.1" xmlns="http://www.w3.org/2000/svg" xmlns:xlink="http://www.w3.org/1999/xlink" x="0px" y="0px"
	 viewBox="0 0 166.556 41.906" style="enable-background:new 0 0 166.556 41.906;" xml:space="preserve">
<g id="Layer_1">
	<g>
		<defs>
			<rect id="SVGID_37_" x="-704.188" y="473.931" width="224" height="71"/>
		</defs>
		<clipPath id="SVGID_2_">
			<use xlink:href="#SVGID_37_"  style="overflow:visible;"/>
		</clipPath>
	</g>
	<g>
		<defs>
			<rect id="SVGID_1067_" x="-704.188" y="615.931" width="224" height="71"/>
		</defs>
		<clipPath id="SVGID_4_">
			<use xlink:href="#SVGID_1067_"  style="overflow:visible;"/>
		</clipPath>
	</g>
	<g>
		<path style="fill:#FFFFFF;" d="M39.161,0.676h3.173c1.17,0,2.925,0.338,2.925,2.327c0,1.079-0.729,1.833-1.808,2.028v0.026
			c1.235,0.117,2.08,0.949,2.08,2.067c0,2.288-2.054,2.626-3.197,2.626h-3.173V0.676z M40.981,4.342h0.741
			c0.767,0,1.716-0.169,1.716-1.105c0-1.053-0.923-1.131-1.755-1.131h-0.702V4.342z M40.981,8.32h0.858
			c0.845,0,1.872-0.208,1.872-1.261c0-1.183-0.962-1.365-1.872-1.365h-0.858V8.32z"/>
		<path style="fill:#FFFFFF;" d="M46.949,0.676h1.963c1.95,0,4.277-0.065,4.277,2.457c0,1.066-0.716,1.95-1.872,2.106v0.026
			c0.493,0.039,0.779,0.533,0.962,0.936l1.456,3.549h-2.028l-1.092-2.834C50.354,6.24,50.121,5.98,49.354,5.98h-0.585v3.77h-1.819
			V0.676z M48.769,4.55h0.599c0.896,0,1.924-0.13,1.924-1.261c0-1.092-1.014-1.183-1.924-1.183h-0.599V4.55z"/>
		<path style="fill:#FFFFFF;" d="M55.048,0.676h5.356v1.43h-3.536v2.236h3.237v1.43h-3.237V8.32h3.562v1.43h-5.383V0.676z"/>
		<path style="fill:#FFFFFF;" d="M66.28,0.52c2.847,0,4.445,1.924,4.445,4.667s-1.572,4.719-4.445,4.719
			c-2.912,0-4.446-1.937-4.446-4.719C61.834,2.405,63.394,0.52,66.28,0.52z M66.28,8.477c1.858,0,2.548-1.651,2.548-3.289
			c0-1.599-0.741-3.237-2.548-3.237c-1.808,0-2.549,1.638-2.549,3.237C63.731,6.825,64.421,8.477,66.28,8.477z"/>
		<path style="fill:#FFFFFF;" d="M80.516,4.849c-0.26-0.078-0.521-0.078-0.793-0.078c-1.093,0-1.703,0.793-1.703,2.119v2.86h-2.34
			V2.977h2.132v1.248h0.025c0.403-0.858,0.988-1.404,2.003-1.404c0.272,0,0.559,0.039,0.793,0.078L80.516,4.849z"/>
		<path style="fill:#FFFFFF;" d="M83.259,7.046c0.13,0.936,0.845,1.3,1.988,1.3c0.638,0,1.365-0.143,2.067-0.521v1.651
			c-0.754,0.299-1.612,0.429-2.483,0.429c-2.235,0-3.938-1.313-3.938-3.549c0-2.236,1.521-3.536,3.627-3.536
			c2.509,0,3.419,1.781,3.419,3.796v0.429H83.259z M85.832,5.72c0-0.78-0.363-1.417-1.3-1.417c-0.845,0-1.248,0.637-1.3,1.417
			H85.832z"/>
		<path style="fill:#FFFFFF;" d="M96.441,9.75h-2.158V8.542h-0.026c-0.299,0.754-1.248,1.365-2.327,1.365
			c-2.015,0-3.094-1.664-3.094-3.666c0-1.664,1.026-3.419,2.898-3.419c0.937,0,1.729,0.247,2.327,1.027h0.026V0h2.354V9.75z
			 M92.671,8.112c0.78,0,1.43-0.741,1.43-1.729c0-1.027-0.571-1.768-1.43-1.768c-0.91,0-1.417,0.78-1.417,1.677
			C91.254,7.372,91.787,8.112,92.671,8.112z"/>
		<path style="fill:#FFFFFF;" d="M105.06,9.75h-2.132V8.502h-0.026c-0.468,0.975-1.404,1.404-2.47,1.404
			c-1.847,0-2.588-1.3-2.588-2.704V2.977h2.341v3.276c0,1.274,0.441,1.703,1.079,1.703c0.962,0,1.456-0.663,1.456-2.119v-2.86h2.34
			V9.75z"/>
		<path style="fill:#FFFFFF;" d="M111.819,4.914c-0.429-0.26-0.858-0.377-1.417-0.377c-1.014,0-1.794,0.702-1.794,1.872
			c0,1.079,0.91,1.781,1.924,1.781c0.533,0,1.066-0.117,1.456-0.325l0.052,1.742c-0.585,0.195-1.287,0.299-1.911,0.299
			c-2.235,0-3.938-1.3-3.938-3.536c0-2.249,1.703-3.549,3.938-3.549c0.702,0,1.326,0.117,1.859,0.377L111.819,4.914z"/>
		<path style="fill:#FFFFFF;" d="M115.057,7.046c0.13,0.936,0.845,1.3,1.988,1.3c0.638,0,1.365-0.143,2.067-0.521v1.651
			c-0.754,0.299-1.612,0.429-2.483,0.429c-2.235,0-3.938-1.313-3.938-3.549c0-2.236,1.521-3.536,3.627-3.536
			c2.509,0,3.419,1.781,3.419,3.796v0.429H115.057z M117.63,5.72c0-0.78-0.363-1.417-1.3-1.417c-0.845,0-1.248,0.637-1.3,1.417
			H117.63z"/>
		<path style="fill:#FFFFFF;" d="M128.238,9.75h-2.157V8.542h-0.026c-0.299,0.754-1.248,1.365-2.327,1.365
			c-2.015,0-3.094-1.664-3.094-3.666c0-1.664,1.026-3.419,2.898-3.419c0.937,0,1.729,0.247,2.327,1.027h0.026V0h2.353V9.75z
			 M124.469,8.112c0.78,0,1.43-0.741,1.43-1.729c0-1.027-0.572-1.768-1.43-1.768c-0.91,0-1.417,0.78-1.417,1.677
			C123.052,7.372,123.585,8.112,124.469,8.112z"/>
		<path style="fill:#FFFFFF;" d="M12.739,20.329h-1.287v-1.274h1.287v-1.339l1.742-0.559v1.898h1.547v1.274h-1.547v3.12
			c0,0.572,0.156,1.105,0.819,1.105c0.312,0,0.611-0.065,0.793-0.182l0.052,1.378c-0.364,0.104-0.767,0.156-1.287,0.156
			c-1.365,0-2.119-0.845-2.119-2.171V20.329z"/>
		<path style="fill:#FFFFFF;" d="M17.225,16h1.741v3.965h0.026c0.442-0.65,1.196-1.066,2.106-1.066c1.586,0,2.274,1.118,2.274,2.626
			v4.225h-1.742v-3.575c0-0.819-0.013-1.924-1.131-1.924c-1.261,0-1.534,1.365-1.534,2.223v3.276h-1.741V16z"/>
		<path style="fill:#FFFFFF;" d="M30.537,25.374c-0.638,0.351-1.365,0.533-2.302,0.533c-2.21,0-3.497-1.274-3.497-3.471
			c0-1.938,1.027-3.536,3.107-3.536c2.483,0,3.186,1.703,3.186,4.043h-4.629c0.078,1.079,0.832,1.69,1.911,1.69
			c0.845,0,1.573-0.312,2.224-0.676V25.374z M29.367,21.746c-0.053-0.845-0.442-1.573-1.418-1.573c-0.975,0-1.469,0.676-1.547,1.573
			H29.367z"/>
		<path style="fill:#FFFFFF;" d="M36.049,19.055h1.547v1.521h0.025c0.078-0.624,0.793-1.677,1.833-1.677
			c0.169,0,0.352,0,0.533,0.052v1.755c-0.156-0.091-0.468-0.143-0.78-0.143c-1.417,0-1.417,1.768-1.417,2.73v2.457h-1.741V19.055z"
			/>
		<path style="fill:#FFFFFF;" d="M41.105,16.169h1.741v1.664h-1.741V16.169z M41.105,19.055h1.741v6.695h-1.741V19.055z"/>
		<path style="fill:#FFFFFF;" d="M48.658,20.459c-0.533-0.182-0.923-0.286-1.56-0.286c-0.469,0-1.027,0.169-1.027,0.741
			c0,1.066,3.029,0.39,3.029,2.809c0,1.56-1.392,2.184-2.809,2.184c-0.663,0-1.339-0.117-1.976-0.286l0.104-1.43
			c0.546,0.273,1.118,0.442,1.717,0.442c0.441,0,1.144-0.169,1.144-0.819c0-1.313-3.029-0.416-3.029-2.834
			c0-1.443,1.262-2.08,2.626-2.08c0.819,0,1.353,0.13,1.898,0.247L48.658,20.459z"/>
		<path style="fill:#FFFFFF;" d="M50.49,16h1.742v5.733h0.026l2.08-2.678h2.054l-2.496,2.99l2.809,3.705h-2.21l-2.236-3.25h-0.026
			v3.25H50.49V16z"/>
		<path style="fill:#FFFFFF;" d="M64.361,18.899c1.989,0,3.511,1.339,3.511,3.549c0,1.924-1.287,3.458-3.511,3.458
			c-2.21,0-3.497-1.534-3.497-3.458C60.864,20.238,62.386,18.899,64.361,18.899z M64.361,24.555c1.34,0,1.69-1.196,1.69-2.314
			c0-1.027-0.546-1.989-1.69-1.989c-1.131,0-1.677,0.988-1.677,1.989C62.685,23.345,63.035,24.555,64.361,24.555z"/>
		<path style="fill:#FFFFFF;" d="M69.874,20.329h-1.287v-1.274h1.287v-0.936c0-1.339,0.754-2.275,2.132-2.275
			c0.442,0,0.937,0.065,1.274,0.143l-0.144,1.443c-0.155-0.091-0.377-0.234-0.754-0.234c-0.585,0-0.767,0.507-0.767,1.027v0.832
			h1.521v1.274h-1.521v5.421h-1.742V20.329z"/>
		<path style="fill:#FFFFFF;" d="M83.277,25.374c-0.638,0.351-1.365,0.533-2.302,0.533c-2.21,0-3.497-1.274-3.497-3.471
			c0-1.938,1.027-3.536,3.107-3.536c2.483,0,3.186,1.703,3.186,4.043h-4.629c0.078,1.079,0.832,1.69,1.911,1.69
			c0.845,0,1.573-0.312,2.224-0.676V25.374z M82.107,21.746c-0.053-0.845-0.442-1.573-1.418-1.573c-0.975,0-1.469,0.676-1.547,1.573
			H82.107z"/>
		<path style="fill:#FFFFFF;" d="M84.589,19.055h2.055l1.312,2.184l1.287-2.184h1.847l-2.002,3.185l2.262,3.51h-2.08l-1.495-2.496
			l-1.508,2.496h-1.911l2.301-3.51L84.589,19.055z"/>
		<path style="fill:#FFFFFF;" d="M92.363,19.055h1.664v0.949h0.025c0.391-0.65,1.053-1.105,2.08-1.105
			c2.055,0,2.809,1.638,2.809,3.484c0,1.833-0.754,3.523-2.848,3.523c-0.741,0-1.352-0.182-1.963-0.923h-0.026v3.497h-1.741V19.055z
			 M94.118,22.383c0,0.949,0.377,2.171,1.534,2.171c1.144,0,1.469-1.248,1.469-2.171c0-0.897-0.312-2.132-1.443-2.132
			C94.56,20.251,94.118,21.447,94.118,22.383z"/>
		<path style="fill:#FFFFFF;" d="M105.676,25.374c-0.638,0.351-1.365,0.533-2.302,0.533c-2.21,0-3.497-1.274-3.497-3.471
			c0-1.938,1.027-3.536,3.107-3.536c2.483,0,3.186,1.703,3.186,4.043h-4.629c0.078,1.079,0.832,1.69,1.911,1.69
			c0.845,0,1.573-0.312,2.224-0.676V25.374z M104.506,21.746c-0.053-0.845-0.442-1.573-1.418-1.573
			c-0.975,0-1.469,0.676-1.547,1.573H104.506z"/>
		<path style="fill:#FFFFFF;" d="M107.572,19.055h1.548v1.521h0.025c0.078-0.624,0.793-1.677,1.833-1.677
			c0.169,0,0.352,0,0.533,0.052v1.755c-0.156-0.091-0.468-0.143-0.78-0.143c-1.417,0-1.417,1.768-1.417,2.73v2.457h-1.742V19.055z"
			/>
		<path style="fill:#FFFFFF;" d="M112.629,16.169h1.742v1.664h-1.742V16.169z M112.629,19.055h1.742v6.695h-1.742V19.055z"/>
		<path style="fill:#FFFFFF;" d="M121.574,25.374c-0.638,0.351-1.365,0.533-2.302,0.533c-2.21,0-3.497-1.274-3.497-3.471
			c0-1.938,1.027-3.536,3.107-3.536c2.483,0,3.186,1.703,3.186,4.043h-4.629c0.078,1.079,0.832,1.69,1.911,1.69
			c0.845,0,1.573-0.312,2.224-0.676V25.374z M120.404,21.746c-0.053-0.845-0.442-1.573-1.418-1.573
			c-0.975,0-1.469,0.676-1.547,1.573H120.404z"/>
		<path style="fill:#FFFFFF;" d="M123.433,19.055h1.65v0.91h0.026c0.546-0.767,1.287-1.066,2.197-1.066
			c1.586,0,2.274,1.118,2.274,2.626v4.225h-1.741v-3.575c0-0.819-0.014-1.924-1.132-1.924c-1.261,0-1.534,1.365-1.534,2.223v3.276
			h-1.741V19.055z"/>
		<path style="fill:#FFFFFF;" d="M135.718,20.498c-0.312-0.143-0.65-0.247-1.183-0.247c-1.079,0-1.769,0.858-1.769,2.119
			c0,1.235,0.585,2.185,1.807,2.185c0.494,0,1.04-0.182,1.34-0.312l0.077,1.443c-0.507,0.156-1.026,0.221-1.741,0.221
			c-2.197,0-3.303-1.495-3.303-3.536c0-1.937,1.145-3.471,3.237-3.471c0.702,0,1.209,0.078,1.69,0.221L135.718,20.498z"/>
		<path style="fill:#FFFFFF;" d="M137.186,16.169h1.742v1.664h-1.742V16.169z M137.186,19.055h1.742v6.695h-1.742V19.055z"/>
		<path style="fill:#FFFFFF;" d="M140.762,19.055h1.65v0.91h0.026c0.546-0.767,1.287-1.066,2.197-1.066
			c1.586,0,2.274,1.118,2.274,2.626v4.225h-1.742v-3.575c0-0.819-0.013-1.924-1.131-1.924c-1.261,0-1.534,1.365-1.534,2.223v3.276
			h-1.741V19.055z"/>
		<path style="fill:#FFFFFF;" d="M154.854,19.055v6.045c0,1.82-0.728,3.536-3.536,3.536c-0.688,0-1.481-0.104-2.313-0.455
			l0.143-1.482c0.533,0.286,1.404,0.585,1.95,0.585c1.924,0,2.015-1.443,2.015-2.6h-0.025c-0.325,0.572-1.105,1.066-2.08,1.066
			c-1.977,0-2.73-1.586-2.73-3.38c0-1.612,0.832-3.471,2.834-3.471c0.885,0,1.573,0.299,2.055,1.066h0.025v-0.91H154.854z
			 M153.111,22.332c0-1.144-0.441-2.08-1.455-2.08c-1.184,0-1.561,1.092-1.561,2.119c0,0.91,0.481,2.028,1.482,2.028
			C152.67,24.398,153.111,23.449,153.111,22.332z"/>
		<path style="fill:#FFFFFF;" d="M0.728,35.406c0.676-0.312,1.586-0.507,2.327-0.507c2.041,0,2.886,0.845,2.886,2.821v0.858
			c0,0.676,0.014,1.183,0.026,1.677c0.013,0.507,0.039,0.975,0.078,1.495H4.511c-0.065-0.351-0.065-0.793-0.078-1.001H4.406
			c-0.402,0.741-1.273,1.157-2.066,1.157c-1.184,0-2.34-0.715-2.34-1.989c0-1.001,0.48-1.586,1.144-1.911s1.521-0.39,2.249-0.39
			h0.962c0-1.079-0.48-1.443-1.508-1.443c-0.741,0-1.482,0.286-2.067,0.728L0.728,35.406z M2.769,40.632
			c0.533,0,0.949-0.234,1.222-0.598c0.286-0.377,0.364-0.858,0.364-1.378H3.601c-0.78,0-1.937,0.13-1.937,1.157
			C1.664,40.385,2.145,40.632,2.769,40.632z"/>
		<path style="fill:#FFFFFF;" d="M7.656,35.055h1.651v0.91h0.026c0.546-0.767,1.287-1.066,2.196-1.066
			c1.587,0,2.275,1.118,2.275,2.626v4.225h-1.742v-3.575c0-0.819-0.013-1.924-1.131-1.924c-1.261,0-1.534,1.365-1.534,2.223v3.276
			H7.656V35.055z"/>
		<path style="fill:#FFFFFF;" d="M23.479,41.75c-0.013-0.364-0.052-0.715-0.052-1.066H23.4c-0.533,0.845-1.183,1.222-2.145,1.222
			c-1.34,0-2.535-0.663-2.535-2.132c0-2.067,2.249-2.314,3.497-2.314c0.377,0,0.793,0.039,1.092,0.091
			c-0.013-0.923-0.702-1.17-1.547-1.17c-0.754,0-1.508,0.143-2.158,0.507l-0.039-1.586c0.832-0.338,1.703-0.481,2.704-0.481
			c1.729,0,3.225,0.741,3.225,2.808v2.522c0,0.533,0.025,1.066,0.13,1.599H23.479z M21.866,40.347c0.885,0,1.443-0.806,1.443-1.599
			c-0.299-0.013-0.637-0.039-0.988-0.039c-0.793,0-1.417,0.247-1.417,0.897C20.904,40.073,21.32,40.347,21.866,40.347z"/>
		<path style="fill:#FFFFFF;" d="M26.858,39.878c0.546,0.234,1.353,0.468,2.197,0.468c0.481,0,0.949-0.078,0.949-0.546
			c0-1.144-3.328-0.338-3.328-2.782c0-1.561,1.534-2.197,2.886-2.197c0.807,0,1.625,0.091,2.38,0.39l-0.183,1.625
			c-0.494-0.299-1.234-0.455-1.82-0.455c-0.507,0-1.078,0.091-1.078,0.468c0,1.053,3.483,0.221,3.483,2.795
			c0,1.807-1.625,2.262-3.159,2.262c-1.053,0-1.768-0.104-2.457-0.325L26.858,39.878z"/>
		<path style="fill:#FFFFFF;" d="M32.891,34.977h1.378v-1.521l2.302-0.715v2.236h1.638v1.638H36.57v2.496
			c0,0.819,0.194,1.235,0.936,1.235c0.234,0,0.481-0.052,0.715-0.091l0.078,1.521c-0.441,0.052-0.884,0.13-1.469,0.13
			c-2.094,0-2.601-0.923-2.601-2.535v-2.756h-1.339V34.977z"/>
		<path style="fill:#FFFFFF;" d="M39.26,32h2.341v3.979h0.025c0.508-0.702,1.248-1.157,2.263-1.157c1.846,0,2.587,1.3,2.587,2.704
			v4.225h-2.34v-3.276c0-1.274-0.442-1.703-1.079-1.703c-0.962,0-1.456,0.663-1.456,2.119v2.86H39.26V32z"/>
		<path style="fill:#FFFFFF;" d="M47.932,34.977h2.132v1.248h0.025c0.469-0.975,1.404-1.404,2.471-1.404
			c0.962,0,1.755,0.416,2.119,1.3c0.546-0.91,1.442-1.3,2.405-1.3c1.949,0,2.392,1.105,2.392,2.938v3.991h-2.34v-3.64
			c0-0.767-0.273-1.339-0.937-1.339c-0.832,0-1.326,0.663-1.326,2.119v2.86h-2.34v-3.64c0-0.767-0.272-1.339-0.936-1.339
			c-0.832,0-1.326,0.663-1.326,2.119v2.86h-2.34V34.977z"/>
		<path style="fill:#FFFFFF;" d="M65.364,41.75c-0.013-0.364-0.052-0.715-0.052-1.066h-0.026c-0.533,0.845-1.183,1.222-2.145,1.222
			c-1.34,0-2.535-0.663-2.535-2.132c0-2.067,2.249-2.314,3.497-2.314c0.377,0,0.793,0.039,1.092,0.091
			c-0.013-0.923-0.702-1.17-1.547-1.17c-0.754,0-1.508,0.143-2.158,0.507l-0.039-1.586c0.832-0.338,1.703-0.481,2.704-0.481
			c1.729,0,3.224,0.741,3.224,2.808v2.522c0,0.533,0.026,1.066,0.131,1.599H65.364z M63.752,40.347c0.885,0,1.443-0.806,1.443-1.599
			c-0.299-0.013-0.637-0.039-0.988-0.039c-0.793,0-1.417,0.247-1.417,0.897C62.79,40.073,63.206,40.347,63.752,40.347z"/>
		<path style="fill:#FFFFFF;" d="M74.894,39.046c0.13,0.936,0.845,1.3,1.988,1.3c0.638,0,1.365-0.143,2.067-0.521v1.651
			c-0.754,0.299-1.612,0.429-2.483,0.429c-2.235,0-3.938-1.313-3.938-3.549c0-2.236,1.521-3.536,3.627-3.536
			c2.509,0,3.419,1.781,3.419,3.796v0.429H74.894z M77.467,37.72c0-0.78-0.363-1.417-1.3-1.417c-0.845,0-1.248,0.637-1.3,1.417
			H77.467z"/>
		<path style="fill:#FFFFFF;" d="M82.485,38.305l-2.119-3.328h2.77l1.001,2.028l1.053-2.028h2.562l-2.119,3.302l2.262,3.471h-2.821
			l-1.131-2.106l-1.118,2.106h-2.639L82.485,38.305z"/>
		<path style="fill:#FFFFFF;" d="M93.172,41.75c-0.013-0.364-0.052-0.715-0.052-1.066h-0.026c-0.533,0.845-1.183,1.222-2.145,1.222
			c-1.34,0-2.535-0.663-2.535-2.132c0-2.067,2.249-2.314,3.497-2.314c0.377,0,0.793,0.039,1.092,0.091
			c-0.013-0.923-0.702-1.17-1.547-1.17c-0.754,0-1.508,0.143-2.158,0.507l-0.039-1.586c0.832-0.338,1.703-0.481,2.704-0.481
			c1.729,0,3.225,0.741,3.225,2.808v2.522c0,0.533,0.025,1.066,0.13,1.599H93.172z M91.56,40.347c0.885,0,1.443-0.806,1.443-1.599
			c-0.299-0.013-0.637-0.039-0.988-0.039c-0.793,0-1.417,0.247-1.417,0.897C90.598,40.073,91.014,40.347,91.56,40.347z"/>
		<path style="fill:#FFFFFF;" d="M101.986,36.914c-0.429-0.26-0.858-0.377-1.417-0.377c-1.014,0-1.794,0.702-1.794,1.872
			c0,1.079,0.91,1.781,1.924,1.781c0.533,0,1.066-0.117,1.456-0.325l0.052,1.742c-0.585,0.195-1.287,0.299-1.911,0.299
			c-2.235,0-3.938-1.3-3.938-3.536c0-2.249,1.703-3.549,3.938-3.549c0.702,0,1.326,0.117,1.859,0.377L101.986,36.914z"/>
		<path style="fill:#FFFFFF;" d="M105.224,39.046c0.13,0.936,0.845,1.3,1.988,1.3c0.638,0,1.365-0.143,2.067-0.521v1.651
			c-0.754,0.299-1.612,0.429-2.483,0.429c-2.235,0-3.938-1.313-3.938-3.549c0-2.236,1.521-3.536,3.627-3.536
			c2.509,0,3.419,1.781,3.419,3.796v0.429H105.224z M107.797,37.72c0-0.78-0.363-1.417-1.3-1.417c-0.845,0-1.248,0.637-1.3,1.417
			H107.797z"/>
		<path style="fill:#FFFFFF;" d="M115.962,36.849c-0.261-0.078-0.521-0.078-0.793-0.078c-1.093,0-1.703,0.793-1.703,2.119v2.86
			h-2.341v-6.773h2.133v1.248h0.025c0.403-0.858,0.988-1.404,2.002-1.404c0.273,0,0.56,0.039,0.794,0.078L115.962,36.849z"/>
		<path style="fill:#FFFFFF;" d="M116.845,32h2.354v3.848h0.025c0.599-0.754,1.392-1.027,2.327-1.027
			c1.872,0,2.899,1.781,2.899,3.419c0,2.002-1.079,3.666-3.094,3.666c-1.079,0-2.028-0.611-2.327-1.365h-0.026v1.209h-2.158V32z
			 M120.615,36.615c-0.858,0-1.43,0.754-1.43,1.768c0,0.988,0.649,1.729,1.43,1.729c0.884,0,1.417-0.741,1.417-1.82
			C122.032,37.396,121.525,36.615,120.615,36.615z"/>
		<path style="fill:#FFFFFF;" d="M130.014,41.75c-0.013-0.364-0.052-0.715-0.052-1.066h-0.026c-0.533,0.845-1.183,1.222-2.145,1.222
			c-1.34,0-2.535-0.663-2.535-2.132c0-2.067,2.249-2.314,3.497-2.314c0.377,0,0.793,0.039,1.092,0.091
			c-0.013-0.923-0.702-1.17-1.547-1.17c-0.754,0-1.508,0.143-2.158,0.507l-0.039-1.586c0.832-0.338,1.703-0.481,2.704-0.481
			c1.729,0,3.225,0.741,3.225,2.808v2.522c0,0.533,0.025,1.066,0.13,1.599H130.014z M128.401,40.347
			c0.885,0,1.443-0.806,1.443-1.599c-0.299-0.013-0.637-0.039-0.988-0.039c-0.793,0-1.417,0.247-1.417,0.897
			C127.439,40.073,127.855,40.347,128.401,40.347z"/>
		<path style="fill:#FFFFFF;" d="M132.926,34.977h1.378v-1.521l2.302-0.715v2.236h1.638v1.638h-1.638v2.496
			c0,0.819,0.194,1.235,0.936,1.235c0.234,0,0.481-0.052,0.715-0.091l0.078,1.521c-0.441,0.052-0.884,0.13-1.469,0.13
			c-2.094,0-2.601-0.923-2.601-2.535v-2.756h-1.339V34.977z"/>
		<path style="fill:#FFFFFF;" d="M141.908,33.872h-2.34v-1.716h2.34V33.872z M139.568,34.977h2.34v6.773h-2.34V34.977z"/>
		<path style="fill:#FFFFFF;" d="M143.312,38.37c0-2.249,1.703-3.549,3.938-3.549c2.236,0,3.939,1.3,3.939,3.549
			c0,2.236-1.703,3.536-3.939,3.536C145.016,41.906,143.312,40.606,143.312,38.37z M148.772,38.37c0-1.014-0.442-1.911-1.521-1.911
			s-1.521,0.897-1.521,1.911c0,1.001,0.441,1.898,1.521,1.898S148.772,39.372,148.772,38.37z"/>
		<path style="fill:#FFFFFF;" d="M152.32,34.977h2.133v1.248h0.025c0.469-0.975,1.404-1.404,2.471-1.404
			c1.846,0,2.587,1.3,2.587,2.704v4.225h-2.34v-3.276c0-1.274-0.442-1.703-1.079-1.703c-0.962,0-1.456,0.663-1.456,2.119v2.86
			h-2.341V34.977z"/>
		<path style="fill:#FFFFFF;" d="M164.749,35.575l1.248,1.391l-1.196,0.858l-0.923-1.612l-0.988,1.612l-1.183-0.858l1.273-1.391
			l-1.781-0.403l0.43-1.352l1.729,0.741l-0.208-1.885h1.482l-0.221,1.872l1.729-0.728l0.416,1.352L164.749,35.575z"/>
	</g>
</g>
<g id="Layer_2">
</g>
</svg>
