<?xml version="1.0" encoding="iso-8859-1"?>
<!-- Generator: Adobe Illustrator 19.1.0, SVG Export Plug-In . SVG Version: 6.00 Build 0)  -->
<svg version="1.1" xmlns="http://www.w3.org/2000/svg" xmlns:xlink="http://www.w3.org/1999/xlink" x="0px" y="0px"
	 viewBox="0 0 220.291 51.917" style="enable-background:new 0 0 220.291 51.917;" xml:space="preserve">
<g id="Layer_1">
	<g>
		<defs>
			<rect id="SVGID_37_" x="-692" y="319" width="224" height="71"/>
		</defs>
		<clipPath id="SVGID_2_">
			<use xlink:href="#SVGID_37_"  style="overflow:visible;"/>
		</clipPath>
	</g>
	<g>
		<g>
			<path style="fill:#114B89;" d="M0,12.749V10.76c1.105-1.071,5.135-4.437,5.135-6.612c0-1.088-0.97-1.598-1.938-1.598
				c-1.003,0-1.954,0.442-2.737,0.952L0.272,1.53c1.071-0.544,2.312-0.85,3.519-0.85c2.262,0,3.723,1.139,3.723,3.468
				c0,2.516-2.533,4.828-4.471,6.731h4.845v1.87H0z"/>
			<path style="fill:#114B89;" d="M9.027,8.363l4.438-7.479h2.957v7.632h1.514v1.768h-1.514v2.465h-2.277v-2.465H9.027V8.363z
				 M14.145,8.516V3.365H14.11l-2.94,5.151H14.145z"/>
			<path style="fill:#114B89;" d="M18.803,9.111v-1.87h4.471v1.87H18.803z"/>
			<path style="fill:#114B89;" d="M25.041,0h2.277v5.184h0.035c0.578-0.85,1.564-1.394,2.754-1.394c2.074,0,2.975,1.462,2.975,3.434
				v5.524h-2.277V8.074c0-1.071-0.018-2.516-1.48-2.516c-1.648,0-2.006,1.785-2.006,2.907v4.284h-2.277V0z"/>
			<path style="fill:#114B89;" d="M39.439,3.791c2.602,0,4.59,1.75,4.59,4.641c0,2.516-1.684,4.521-4.59,4.521
				c-2.889,0-4.572-2.006-4.572-4.521C34.867,5.541,36.855,3.791,39.439,3.791z M39.439,11.185c1.752,0,2.211-1.563,2.211-3.025
				c0-1.343-0.715-2.601-2.211-2.601c-1.479,0-2.193,1.292-2.193,2.601C37.246,9.604,37.705,11.185,39.439,11.185z"/>
			<path style="fill:#114B89;" d="M53.855,12.749h-2.158v-1.19h-0.035c-0.697,0.85-1.682,1.394-2.873,1.394
				c-2.072,0-2.975-1.462-2.975-3.434V3.995h2.277v4.674c0,1.071,0.018,2.516,1.48,2.516c1.648,0,2.006-1.785,2.006-2.907V3.995
				h2.277V12.749z"/>
			<path style="fill:#114B89;" d="M56.252,3.995h2.023v1.989h0.033c0.104-0.816,1.037-2.193,2.398-2.193
				c0.221,0,0.459,0,0.695,0.068v2.295c-0.203-0.119-0.611-0.187-1.02-0.187c-1.852,0-1.852,2.312-1.852,3.569v3.213h-2.279V3.995z"
				/>
			<path style="fill:#114B89;" d="M67.744,0.884h4.148c1.529,0,3.824,0.442,3.824,3.042c0,1.411-0.951,2.397-2.363,2.652v0.034
				c1.615,0.153,2.721,1.241,2.721,2.703c0,2.992-2.686,3.434-4.182,3.434h-4.148V0.884z M70.125,5.677h0.969
				c1.002,0,2.244-0.221,2.244-1.445c0-1.377-1.207-1.479-2.295-1.479h-0.918V5.677z M70.125,10.879h1.121
				c1.105,0,2.447-0.272,2.447-1.649c0-1.547-1.258-1.785-2.447-1.785h-1.121V10.879z"/>
			<path style="fill:#114B89;" d="M77.928,0.884h2.566c2.549,0,5.592-0.085,5.592,3.212c0,1.394-0.934,2.55-2.447,2.754v0.034
				c0.646,0.051,1.02,0.697,1.258,1.224l1.904,4.641h-2.652l-1.428-3.706c-0.34-0.884-0.646-1.224-1.648-1.224h-0.766v4.93h-2.379
				V0.884z M80.307,5.949h0.783c1.172,0,2.516-0.17,2.516-1.649c0-1.428-1.326-1.547-2.516-1.547h-0.783V5.949z"/>
			<path style="fill:#114B89;" d="M88.518,0.884h7.004v1.87h-4.623v2.924h4.232v1.87h-4.232v3.332h4.656v1.87h-7.037V0.884z"/>
			<path style="fill:#114B89;" d="M103.205,0.68c3.723,0,5.814,2.516,5.814,6.103c0,3.586-2.057,6.17-5.814,6.17
				c-3.807,0-5.812-2.533-5.812-6.17S99.432,0.68,103.205,0.68z M103.205,11.083c2.432,0,3.332-2.159,3.332-4.3
				c0-2.091-0.969-4.232-3.332-4.232c-2.361,0-3.332,2.142-3.332,4.232C99.873,8.924,100.775,11.083,103.205,11.083z"/>
		</g>
		<g>
			<path style="fill:#114B89;" d="M0.469,24.684c0.406,0.264,0.99,0.396,1.287,0.396c0.473,0,1.056-0.198,1.056-0.803
				c0-1.023-2.431-0.935-2.431-2.508c0-1.166,0.869-1.727,1.98-1.727c0.483,0,0.879,0.099,1.287,0.22l-0.088,0.902
				c-0.232-0.143-0.848-0.286-1.09-0.286c-0.528,0-0.99,0.22-0.99,0.682c0,1.144,2.432,0.814,2.432,2.607
				c0,1.199-0.957,1.749-1.959,1.749c-0.527,0-1.066-0.055-1.539-0.308L0.469,24.684z"/>
			<path style="fill:#114B89;" d="M6.397,18.919H5.231v-1.166h1.166V18.919z M5.297,20.173h1.035v5.611H5.297V20.173z"/>
			<path style="fill:#114B89;" d="M13.186,25.542c0,1.706-0.881,2.685-2.895,2.685c-0.594,0-1.11-0.077-2.013-0.385l0.11-0.957
				c0.792,0.363,1.266,0.506,2.023,0.506c1.09,0,1.738-0.737,1.738-1.925v-0.55h-0.021c-0.439,0.583-1.166,0.869-1.881,0.869
				c-1.606,0-2.398-1.309-2.398-2.761c0-1.441,0.814-2.981,2.508-2.981c0.99,0,1.541,0.363,1.849,0.968h0.022v-0.836h0.957V25.542z
				 M12.15,23.045c0-1.167-0.539-2.167-1.639-2.167c-1.045,0-1.562,1.133-1.562,2.09c0,1.056,0.594,1.98,1.562,1.98
				S12.15,24.09,12.15,23.045z"/>
			<path style="fill:#114B89;" d="M14.944,20.173h1.001v0.891h0.021c0.309-0.638,1.057-1.023,1.838-1.023
				c1.452,0,2.102,0.902,2.102,2.409v3.333h-1.035V22.88c0-1.309-0.285-1.947-1.188-2.002c-1.178,0-1.705,0.946-1.705,2.311v2.596
				h-1.034V20.173z"/>
			<path style="fill:#114B89;" d="M22.896,18.919H21.73v-1.166h1.166V18.919z M21.797,20.173h1.034v5.611h-1.034V20.173z"/>
			<path style="fill:#114B89;" d="M25.395,21.009h-1.32v-0.836h1.32v-0.517c0-1.364,0.352-2.255,1.881-2.255
				c0.264,0,0.484,0.033,0.693,0.066l-0.045,0.836c-0.121-0.044-0.318-0.066-0.494-0.066c-0.892,0-1.002,0.572-1.002,1.331v0.605
				h1.486v0.836h-1.486v4.775h-1.033V21.009z M30.234,18.919h-1.166v-1.166h1.166V18.919z M29.135,20.173h1.033v5.611h-1.033V20.173
				z"/>
			<path style="fill:#114B89;" d="M35.625,21.12c-0.396-0.165-0.793-0.242-1.123-0.242c-1.154,0-1.805,1.034-1.805,2.102
				c0,1.001,0.539,2.101,1.871,2.101c0.352,0,0.792-0.11,1.111-0.319l0.076,0.924c-0.429,0.198-0.924,0.231-1.298,0.231
				c-1.694,0-2.86-1.331-2.86-2.937c0-1.706,1.145-2.938,2.86-2.938c0.418,0,0.958,0.099,1.255,0.22L35.625,21.12z"/>
			<path style="fill:#114B89;" d="M37.207,20.569c0.518-0.308,1.134-0.528,1.849-0.528c1.606,0,2.255,0.792,2.255,2.321v2.321
				c0,0.638,0.022,0.935,0.045,1.1h-0.969v-0.726h-0.021c-0.242,0.341-0.793,0.858-1.738,0.858c-1.211,0-2.058-0.528-2.058-1.749
				c0-1.408,1.54-1.848,2.607-1.848c0.407,0,0.693,0,1.101,0.022c0-0.968-0.353-1.463-1.387-1.463c-0.583,0-1.21,0.22-1.628,0.572
				L37.207,20.569z M40.277,23.111c-0.221,0-0.44-0.022-0.66-0.022c-0.562,0-1.947,0.088-1.947,1.078
				c0,0.594,0.572,0.913,1.045,0.913c1.023,0,1.562-0.638,1.562-1.474V23.111z"/>
			<path style="fill:#114B89;" d="M43.06,20.173h1.001v0.891h0.022c0.308-0.638,1.056-1.023,1.837-1.023
				c1.453,0,2.102,0.902,2.102,2.409v3.333h-1.034V22.88c0-1.309-0.286-1.947-1.188-2.002c-1.177,0-1.705,0.946-1.705,2.311v2.596
				H43.06V20.173z"/>
			<path style="fill:#114B89;" d="M52.762,21.009h-1.484v3.07c0,0.649,0.396,1.001,0.869,1.001c0.318,0,0.549-0.099,0.703-0.198
				v0.88c-0.23,0.066-0.55,0.154-0.88,0.154c-1.067,0-1.728-0.506-1.728-1.628v-3.279h-1.265v-0.836h1.265v-1.298l1.035-0.33v1.628
				h1.484V21.009z"/>
			<path style="fill:#114B89;" d="M54.191,17.533h1.034v8.251h-1.034V17.533z"/>
			<path style="fill:#114B89;" d="M56.699,27.302c0.133,0.044,0.309,0.088,0.484,0.088c0.924,0,1.232-1.276,1.232-1.386
				c0-0.121-0.133-0.407-0.198-0.594l-1.903-5.237h1.133l1.508,4.643h0.021l1.541-4.643h1.045l-2.068,5.732
				c-0.385,1.078-0.793,2.321-2.156,2.321c-0.33,0-0.518-0.044-0.705-0.077L56.699,27.302z"/>
			<path style="fill:#114B89;" d="M65.676,20.173h0.968v0.869h0.022c0.275-0.583,0.869-1.001,1.463-1.001
				c0.309,0,0.462,0.033,0.682,0.077v0.924c-0.187-0.077-0.396-0.099-0.572-0.099c-0.924,0-1.529,0.88-1.529,2.289v2.552h-1.033
				V20.173z"/>
			<path style="fill:#114B89;" d="M74.256,25.553c-0.396,0.143-0.848,0.363-1.771,0.363c-1.99,0-2.904-1.21-2.904-3.036
				c0-1.661,1.045-2.838,2.629-2.838c1.871,0,2.477,1.364,2.477,3.168h-4.005c0,1.111,0.869,1.87,1.849,1.87
				c0.682,0,1.474-0.352,1.727-0.561V25.553z M73.585,22.439c0-0.858-0.507-1.562-1.397-1.562c-1.012,0-1.43,0.836-1.507,1.562
				H73.585z"/>
			<path style="fill:#114B89;" d="M80.042,24.992h-0.021c-0.275,0.418-0.913,0.924-1.915,0.924c-1.693,0-2.409-1.507-2.409-3.036
				c0-1.507,0.792-2.838,2.421-2.838c0.979,0,1.54,0.385,1.859,0.902h0.021v-3.41h1.034v8.251h-0.99V24.992z M78.348,25.08
				c1.166,0,1.65-1.155,1.65-2.09c0-1.045-0.539-2.112-1.661-2.112s-1.562,1.056-1.54,2.079
				C76.774,23.837,77.236,25.08,78.348,25.08z"/>
			<path style="fill:#114B89;" d="M87.753,25.784h-1.001v-0.891h-0.022c-0.308,0.638-1.056,1.023-1.837,1.023
				c-1.452,0-2.102-0.902-2.102-2.409v-3.333h1.034v2.904c0,1.31,0.286,1.947,1.188,2.002c1.177,0,1.705-0.946,1.705-2.311v-2.596
				h1.034V25.784z"/>
			<path style="fill:#114B89;" d="M93.076,21.12c-0.396-0.165-0.792-0.242-1.122-0.242c-1.155,0-1.804,1.034-1.804,2.102
				c0,1.001,0.539,2.101,1.87,2.101c0.352,0,0.792-0.11,1.111-0.319l0.077,0.924c-0.43,0.198-0.925,0.231-1.299,0.231
				c-1.694,0-2.86-1.331-2.86-2.937c0-1.706,1.145-2.938,2.86-2.938c0.418,0,0.957,0.099,1.254,0.22L93.076,21.12z"/>
			<path style="fill:#114B89;" d="M98.697,25.553c-0.396,0.143-0.847,0.363-1.771,0.363c-1.991,0-2.904-1.21-2.904-3.036
				c0-1.661,1.045-2.838,2.63-2.838c1.87,0,2.475,1.364,2.475,3.168h-4.004c0,1.111,0.869,1.87,1.848,1.87
				c0.683,0,1.475-0.352,1.728-0.561V25.553z M98.026,22.439c0-0.858-0.506-1.562-1.397-1.562c-1.012,0-1.43,0.836-1.507,1.562
				H98.026z"/>
			<path style="fill:#114B89;" d="M104.483,24.992h-0.021c-0.275,0.418-0.913,0.924-1.915,0.924c-1.694,0-2.409-1.507-2.409-3.036
				c0-1.507,0.792-2.838,2.421-2.838c0.979,0,1.54,0.385,1.859,0.902h0.021v-3.41h1.034v8.251h-0.99V24.992z M102.789,25.08
				c1.166,0,1.65-1.155,1.65-2.09c0-1.045-0.539-2.112-1.661-2.112s-1.562,1.056-1.54,2.079
				C101.216,23.837,101.678,25.08,102.789,25.08z"/>
			<path style="fill:#114B89;" d="M110.555,20.569c0.517-0.308,1.133-0.528,1.848-0.528c1.606,0,2.256,0.792,2.256,2.321v2.321
				c0,0.638,0.021,0.935,0.044,1.1h-0.969v-0.726h-0.021c-0.242,0.341-0.792,0.858-1.738,0.858c-1.21,0-2.058-0.528-2.058-1.749
				c0-1.408,1.54-1.848,2.607-1.848c0.407,0,0.693,0,1.101,0.022c0-0.968-0.353-1.463-1.387-1.463c-0.583,0-1.21,0.22-1.628,0.572
				L110.555,20.569z M113.624,23.111c-0.221,0-0.44-0.022-0.66-0.022c-0.562,0-1.947,0.088-1.947,1.078
				c0,0.594,0.572,0.913,1.045,0.913c1.023,0,1.562-0.638,1.562-1.474V23.111z"/>
			<path style="fill:#114B89;" d="M115.988,24.684c0.407,0.264,0.99,0.396,1.287,0.396c0.474,0,1.057-0.198,1.057-0.803
				c0-1.023-2.432-0.935-2.432-2.508c0-1.166,0.869-1.727,1.98-1.727c0.484,0,0.88,0.099,1.287,0.22l-0.088,0.902
				c-0.231-0.143-0.848-0.286-1.09-0.286c-0.527,0-0.989,0.22-0.989,0.682c0,1.144,2.431,0.814,2.431,2.607
				c0,1.199-0.957,1.749-1.958,1.749c-0.528,0-1.067-0.055-1.54-0.308L115.988,24.684z"/>
			<path style="fill:#114B89;" d="M123.667,21.009h-1.485v3.07c0,0.649,0.396,1.001,0.869,1.001c0.319,0,0.551-0.099,0.704-0.198
				v0.88c-0.23,0.066-0.55,0.154-0.88,0.154c-1.067,0-1.728-0.506-1.728-1.628v-3.279h-1.265v-0.836h1.265v-1.298l1.034-0.33v1.628
				h1.485V21.009z"/>
			<path style="fill:#114B89;" d="M124.965,17.533h1.034v3.443h0.022c0.374-0.594,1.022-0.935,1.804-0.935
				c1.452,0,2.102,0.902,2.102,2.409v3.333h-1.034V22.88c0-1.309-0.286-1.947-1.188-2.002c-1.177,0-1.705,0.946-1.705,2.311v2.596
				h-1.034V17.533z"/>
			<path style="fill:#114B89;" d="M131.675,20.173h0.968v0.814h0.022c0.396-0.649,0.957-0.946,1.782-0.946
				c0.649,0,1.298,0.33,1.595,1.089c0.386-0.803,1.232-1.089,1.738-1.089c1.431,0,1.947,0.924,1.947,2.145v3.598h-1.034v-3.345
				c0-0.693-0.165-1.562-1.001-1.562c-1.056,0-1.474,1.034-1.474,2.079v2.828h-1.034v-3.345c0-0.693-0.165-1.562-1.001-1.562
				c-1.057,0-1.475,1.034-1.475,2.079v2.828h-1.034V20.173z"/>
			<path style="fill:#114B89;" d="M141.729,20.569c0.517-0.308,1.133-0.528,1.848-0.528c1.606,0,2.256,0.792,2.256,2.321v2.321
				c0,0.638,0.021,0.935,0.044,1.1h-0.969v-0.726h-0.021c-0.242,0.341-0.792,0.858-1.738,0.858c-1.21,0-2.058-0.528-2.058-1.749
				c0-1.408,1.54-1.848,2.607-1.848c0.407,0,0.693,0,1.101,0.022c0-0.968-0.353-1.463-1.387-1.463c-0.583,0-1.21,0.22-1.628,0.572
				L141.729,20.569z M144.799,23.111c-0.221,0-0.44-0.022-0.66-0.022c-0.562,0-1.947,0.088-1.947,1.078
				c0,0.594,0.572,0.913,1.045,0.913c1.023,0,1.562-0.638,1.562-1.474V23.111z"/>
			<path style="fill:#114B89;" d="M154.94,25.553c-0.396,0.143-0.847,0.363-1.771,0.363c-1.991,0-2.904-1.21-2.904-3.036
				c0-1.661,1.045-2.838,2.63-2.838c1.87,0,2.475,1.364,2.475,3.168h-4.004c0,1.111,0.869,1.87,1.848,1.87
				c0.683,0,1.475-0.352,1.728-0.561V25.553z M154.27,22.439c0-0.858-0.506-1.562-1.397-1.562c-1.012,0-1.43,0.836-1.507,1.562
				H154.27z"/>
			<path style="fill:#114B89;" d="M158.01,22.847l-1.827-2.673h1.288l1.221,2.002l1.243-2.002h1.155l-1.805,2.673l1.98,2.938h-1.276
				l-1.386-2.2l-1.387,2.2h-1.231L158.01,22.847z"/>
			<path style="fill:#114B89;" d="M162.52,20.569c0.517-0.308,1.133-0.528,1.848-0.528c1.606,0,2.256,0.792,2.256,2.321v2.321
				c0,0.638,0.021,0.935,0.044,1.1h-0.969v-0.726h-0.021c-0.242,0.341-0.792,0.858-1.738,0.858c-1.21,0-2.058-0.528-2.058-1.749
				c0-1.408,1.54-1.848,2.607-1.848c0.407,0,0.693,0,1.101,0.022c0-0.968-0.353-1.463-1.387-1.463c-0.583,0-1.21,0.22-1.628,0.572
				L162.52,20.569z M165.589,23.111c-0.221,0-0.44-0.022-0.66-0.022c-0.562,0-1.947,0.088-1.947,1.078
				c0,0.594,0.572,0.913,1.045,0.913c1.023,0,1.562-0.638,1.562-1.474V23.111z"/>
			<path style="fill:#114B89;" d="M171.936,21.12c-0.396-0.165-0.792-0.242-1.122-0.242c-1.155,0-1.804,1.034-1.804,2.102
				c0,1.001,0.539,2.101,1.87,2.101c0.352,0,0.792-0.11,1.111-0.319l0.077,0.924c-0.43,0.198-0.925,0.231-1.299,0.231
				c-1.694,0-2.86-1.331-2.86-2.937c0-1.706,1.145-2.938,2.86-2.938c0.418,0,0.957,0.099,1.254,0.22L171.936,21.12z"/>
			<path style="fill:#114B89;" d="M177.557,25.553c-0.396,0.143-0.847,0.363-1.771,0.363c-1.991,0-2.904-1.21-2.904-3.036
				c0-1.661,1.045-2.838,2.63-2.838c1.87,0,2.475,1.364,2.475,3.168h-4.004c0,1.111,0.869,1.87,1.848,1.87
				c0.683,0,1.475-0.352,1.728-0.561V25.553z M176.886,22.439c0-0.858-0.506-1.562-1.397-1.562c-1.012,0-1.43,0.836-1.507,1.562
				H176.886z"/>
			<path style="fill:#114B89;" d="M179.371,20.173h0.969v0.869h0.021c0.275-0.583,0.869-1.001,1.463-1.001
				c0.309,0,0.463,0.033,0.683,0.077v0.924c-0.188-0.077-0.396-0.099-0.572-0.099c-0.924,0-1.529,0.88-1.529,2.289v2.552h-1.034
				V20.173z"/>
			<path style="fill:#114B89;" d="M183.65,17.533h1.034v3.41h0.022c0.318-0.517,0.88-0.902,1.859-0.902
				c1.628,0,2.42,1.331,2.42,2.838c0,1.54-0.715,3.036-2.409,3.036c-1.001,0-1.64-0.506-1.914-0.924h-0.022v0.792h-0.99V17.533z
				 M186.346,20.877c-1.122,0-1.661,1.067-1.661,2.112c0,0.935,0.484,2.09,1.65,2.09c1.111,0,1.573-1.243,1.552-2.124
				C187.908,21.945,187.468,20.877,186.346,20.877z"/>
			<path style="fill:#114B89;" d="M190.636,20.569c0.517-0.308,1.133-0.528,1.848-0.528c1.606,0,2.256,0.792,2.256,2.321v2.321
				c0,0.638,0.021,0.935,0.044,1.1h-0.969v-0.726h-0.021c-0.242,0.341-0.792,0.858-1.738,0.858c-1.21,0-2.058-0.528-2.058-1.749
				c0-1.408,1.54-1.848,2.607-1.848c0.407,0,0.693,0,1.101,0.022c0-0.968-0.353-1.463-1.387-1.463c-0.583,0-1.21,0.22-1.628,0.572
				L190.636,20.569z M193.705,23.111c-0.221,0-0.44-0.022-0.66-0.022c-0.562,0-1.947,0.088-1.947,1.078
				c0,0.594,0.572,0.913,1.045,0.913c1.023,0,1.562-0.638,1.562-1.474V23.111z"/>
			<path style="fill:#114B89;" d="M199.469,21.009h-1.485v3.07c0,0.649,0.396,1.001,0.869,1.001c0.319,0,0.551-0.099,0.704-0.198
				v0.88c-0.23,0.066-0.55,0.154-0.88,0.154c-1.067,0-1.728-0.506-1.728-1.628v-3.279h-1.265v-0.836h1.265v-1.298l1.034-0.33v1.628
				h1.485V21.009z"/>
			<path style="fill:#114B89;" d="M201.999,18.919h-1.166v-1.166h1.166V18.919z M200.898,20.173h1.034v5.611h-1.034V20.173z"/>
			<path style="fill:#114B89;" d="M206.311,20.042c1.705,0,2.85,1.232,2.85,2.938c0,1.606-1.166,2.937-2.85,2.937
				c-1.694,0-2.86-1.331-2.86-2.937C203.45,21.273,204.595,20.042,206.311,20.042z M206.311,25.08c1.211,0,1.75-1.1,1.75-2.101
				c0-1.067-0.649-2.102-1.75-2.102c-1.111,0-1.76,1.034-1.76,2.102C204.551,23.98,205.09,25.08,206.311,25.08z"/>
			<path style="fill:#114B89;" d="M210.545,20.173h1.001v0.891h0.022c0.308-0.638,1.056-1.023,1.837-1.023
				c1.452,0,2.102,0.902,2.102,2.409v3.333h-1.034V22.88c0-1.309-0.286-1.947-1.188-2.002c-1.177,0-1.705,0.946-1.705,2.311v2.596
				h-1.034V20.173z"/>
			<path style="fill:#114B89;" d="M216.848,24.684c0.407,0.264,0.99,0.396,1.287,0.396c0.474,0,1.057-0.198,1.057-0.803
				c0-1.023-2.432-0.935-2.432-2.508c0-1.166,0.869-1.727,1.98-1.727c0.484,0,0.88,0.099,1.287,0.22l-0.088,0.902
				c-0.231-0.143-0.848-0.286-1.09-0.286c-0.527,0-0.989,0.22-0.989,0.682c0,1.144,2.431,0.814,2.431,2.607
				c0,1.199-0.957,1.749-1.958,1.749c-0.528,0-1.067-0.055-1.54-0.308L216.848,24.684z"/>
			<path style="fill:#114B89;" d="M2.119,31.918H0.953v-1.166h1.166V31.918z M1.019,33.173h1.034v5.61H1.019V33.173z"/>
			<path style="fill:#114B89;" d="M3.944,33.173h1.001v0.892h0.022c0.308-0.639,1.056-1.023,1.837-1.023
				c1.453,0,2.102,0.902,2.102,2.409v3.333H7.872v-2.904c0-1.309-0.286-1.947-1.188-2.002c-1.177,0-1.705,0.946-1.705,2.311v2.596
				H3.944V33.173z"/>
			<path style="fill:#114B89;" d="M13.987,33.569c0.517-0.308,1.134-0.527,1.849-0.527c1.605,0,2.255,0.792,2.255,2.321v2.321
				c0,0.639,0.022,0.936,0.044,1.1h-0.968v-0.726h-0.022c-0.242,0.341-0.792,0.858-1.738,0.858c-1.21,0-2.057-0.528-2.057-1.75
				c0-1.408,1.54-1.848,2.607-1.848c0.406,0,0.693,0,1.1,0.021c0-0.968-0.352-1.463-1.386-1.463c-0.583,0-1.21,0.221-1.628,0.572
				L13.987,33.569z M17.057,36.111c-0.22,0-0.439-0.022-0.66-0.022c-0.561,0-1.947,0.088-1.947,1.078
				c0,0.595,0.572,0.914,1.045,0.914c1.023,0,1.562-0.639,1.562-1.475V36.111z"/>
			<path style="fill:#114B89;" d="M23.811,37.993h-0.021c-0.275,0.418-0.913,0.924-1.914,0.924c-1.694,0-2.41-1.508-2.41-3.037
				c0-1.507,0.793-2.838,2.421-2.838c0.979,0,1.54,0.385,1.859,0.902h0.022v-3.41h1.033v8.25h-0.99V37.993z M22.117,38.081
				c1.166,0,1.65-1.156,1.65-2.091c0-1.045-0.539-2.112-1.662-2.112c-1.121,0-1.562,1.057-1.539,2.079
				C20.544,36.836,21.006,38.081,22.117,38.081z"/>
			<path style="fill:#114B89;" d="M31.521,38.784h-1v-0.891h-0.022c-0.308,0.639-1.056,1.023-1.837,1.023
				c-1.453,0-2.102-0.902-2.102-2.41v-3.333h1.033v2.904c0,1.31,0.287,1.947,1.189,2.003c1.177,0,1.705-0.947,1.705-2.311v-2.597
				h1.033V38.784z"/>
			<path style="fill:#114B89;" d="M33.413,30.534h1.034v8.25h-1.034V30.534z"/>
			<path style="fill:#114B89;" d="M39.32,34.009h-1.484v3.069c0,0.649,0.396,1.002,0.869,1.002c0.318,0,0.549-0.1,0.703-0.199v0.881
				c-0.23,0.066-0.55,0.154-0.88,0.154c-1.067,0-1.728-0.506-1.728-1.629v-3.278h-1.265v-0.836h1.265v-1.298l1.035-0.33v1.628h1.484
				V34.009z"/>
			<path style="fill:#114B89;" d="M43.676,33.173h0.99v0.792h0.021c0.275-0.418,0.914-0.924,1.904-0.924
				c1.628,0,2.42,1.331,2.42,2.838c0,1.541-0.715,3.037-2.409,3.037c-0.99,0-1.552-0.385-1.87-0.902H44.71v3.08h-1.034V33.173z
				 M46.371,33.877c-1.122,0-1.661,1.067-1.661,2.112c0,0.935,0.484,2.091,1.65,2.091c1.111,0,1.573-1.244,1.552-2.124
				C47.934,34.945,47.494,33.877,46.371,33.877z"/>
			<path style="fill:#114B89;" d="M50.66,33.569c0.518-0.308,1.134-0.527,1.849-0.527c1.606,0,2.255,0.792,2.255,2.321v2.321
				c0,0.639,0.022,0.936,0.045,1.1H53.84v-0.726h-0.021c-0.242,0.341-0.793,0.858-1.738,0.858c-1.211,0-2.058-0.528-2.058-1.75
				c0-1.408,1.54-1.848,2.607-1.848c0.407,0,0.693,0,1.101,0.021c0-0.968-0.353-1.463-1.387-1.463c-0.583,0-1.21,0.221-1.628,0.572
				L50.66,33.569z M53.73,36.111c-0.221,0-0.44-0.022-0.66-0.022c-0.562,0-1.947,0.088-1.947,1.078c0,0.595,0.572,0.914,1.045,0.914
				c1.023,0,1.562-0.639,1.562-1.475V36.111z"/>
			<path style="fill:#114B89;" d="M59.494,34.009H58.01v3.069c0,0.649,0.396,1.002,0.869,1.002c0.318,0,0.549-0.1,0.703-0.199v0.881
				c-0.23,0.066-0.55,0.154-0.88,0.154c-1.067,0-1.728-0.506-1.728-1.629v-3.278H55.71v-0.836h1.265v-1.298l1.035-0.33v1.628h1.484
				V34.009z"/>
			<path style="fill:#114B89;" d="M62.023,31.918h-1.166v-1.166h1.166V31.918z M60.924,33.173h1.034v5.61h-1.034V33.173z"/>
			<path style="fill:#114B89;" d="M68.151,38.553c-0.396,0.143-0.847,0.363-1.771,0.363c-1.992,0-2.905-1.211-2.905-3.037
				c0-1.66,1.046-2.838,2.63-2.838c1.87,0,2.475,1.364,2.475,3.168h-4.004c0,1.111,0.869,1.871,1.848,1.871
				c0.683,0,1.475-0.353,1.728-0.562V38.553z M67.48,35.44c0-0.858-0.506-1.562-1.397-1.562c-1.013,0-1.431,0.836-1.507,1.562H67.48
				z"/>
			<path style="fill:#114B89;" d="M69.966,33.173h1.001v0.892h0.022c0.308-0.639,1.056-1.023,1.837-1.023
				c1.453,0,2.102,0.902,2.102,2.409v3.333h-1.034v-2.904c0-1.309-0.286-1.947-1.188-2.002c-1.177,0-1.705,0.946-1.705,2.311v2.596
				h-1.034V33.173z"/>
			<path style="fill:#114B89;" d="M79.668,34.009h-1.484v3.069c0,0.649,0.396,1.002,0.868,1.002c0.319,0,0.551-0.1,0.704-0.199
				v0.881c-0.23,0.066-0.55,0.154-0.88,0.154c-1.067,0-1.728-0.506-1.728-1.629v-3.278h-1.265v-0.836h1.265v-1.298l1.035-0.33v1.628
				h1.484V34.009z"/>
			<path style="fill:#114B89;" d="M80.548,37.684c0.407,0.264,0.99,0.396,1.287,0.396c0.474,0,1.057-0.199,1.057-0.804
				c0-1.022-2.432-0.935-2.432-2.509c0-1.166,0.869-1.727,1.98-1.727c0.484,0,0.88,0.099,1.287,0.22l-0.088,0.902
				c-0.231-0.144-0.848-0.286-1.089-0.286c-0.528,0-0.99,0.221-0.99,0.682c0,1.145,2.431,0.814,2.431,2.607
				c0,1.199-0.957,1.75-1.958,1.75c-0.528,0-1.067-0.055-1.54-0.309L80.548,37.684z"/>
			<path style="fill:#114B89;" d="M94.651,38.784h-1.199L92,34.076h-0.022l-1.419,4.708h-1.199l-1.805-5.61h1.134l1.287,4.643h0.021
				l1.431-4.643h1.221l1.408,4.643h0.022l1.364-4.643h1.012L94.651,38.784z"/>
			<path style="fill:#114B89;" d="M98.698,31.918h-1.166v-1.166h1.166V31.918z M97.598,33.173h1.034v5.61h-1.034V33.173z"/>
			<path style="fill:#114B89;" d="M103.505,34.009h-1.485v3.069c0,0.649,0.396,1.002,0.869,1.002c0.319,0,0.551-0.1,0.704-0.199
				v0.881c-0.23,0.066-0.55,0.154-0.88,0.154c-1.067,0-1.728-0.506-1.728-1.629v-3.278h-1.265v-0.836h1.265v-1.298l1.034-0.33v1.628
				h1.485V34.009z"/>
			<path style="fill:#114B89;" d="M104.803,30.534h1.034v3.443h0.022c0.374-0.595,1.022-0.936,1.804-0.936
				c1.452,0,2.102,0.902,2.102,2.409v3.333h-1.034v-2.904c0-1.309-0.286-1.947-1.188-2.002c-1.177,0-1.705,0.946-1.705,2.311v2.596
				h-1.034V30.534z"/>
			<path style="fill:#114B89;" d="M114.846,33.569c0.517-0.308,1.133-0.527,1.848-0.527c1.606,0,2.256,0.792,2.256,2.321v2.321
				c0,0.639,0.021,0.936,0.044,1.1h-0.969v-0.726h-0.021c-0.242,0.341-0.792,0.858-1.738,0.858c-1.21,0-2.058-0.528-2.058-1.75
				c0-1.408,1.54-1.848,2.607-1.848c0.407,0,0.693,0,1.101,0.021c0-0.968-0.353-1.463-1.387-1.463c-0.583,0-1.21,0.221-1.628,0.572
				L114.846,33.569z M117.915,36.111c-0.221,0-0.44-0.022-0.66-0.022c-0.562,0-1.947,0.088-1.947,1.078
				c0,0.595,0.572,0.914,1.045,0.914c1.023,0,1.562-0.639,1.562-1.475V36.111z"/>
			<path style="fill:#114B89;" d="M123.755,30.534h1.034v3.443h0.022c0.374-0.595,1.022-0.936,1.804-0.936
				c1.452,0,2.102,0.902,2.102,2.409v3.333h-1.034v-2.904c0-1.309-0.286-1.947-1.188-2.002c-1.177,0-1.705,0.946-1.705,2.311v2.596
				h-1.034V30.534z"/>
			<path style="fill:#114B89;" d="M131.708,31.918h-1.166v-1.166h1.166V31.918z M130.607,33.173h1.034v5.61h-1.034V33.173z"/>
			<path style="fill:#114B89;" d="M133.115,37.684c0.407,0.264,0.99,0.396,1.287,0.396c0.474,0,1.057-0.199,1.057-0.804
				c0-1.022-2.432-0.935-2.432-2.509c0-1.166,0.869-1.727,1.98-1.727c0.484,0,0.88,0.099,1.287,0.22l-0.088,0.902
				c-0.231-0.144-0.848-0.286-1.09-0.286c-0.527,0-0.989,0.221-0.989,0.682c0,1.145,2.431,0.814,2.431,2.607
				c0,1.199-0.957,1.75-1.958,1.75c-0.528,0-1.067-0.055-1.54-0.309L133.115,37.684z"/>
			<path style="fill:#114B89;" d="M140.794,34.009h-1.485v3.069c0,0.649,0.396,1.002,0.869,1.002c0.319,0,0.551-0.1,0.704-0.199
				v0.881c-0.23,0.066-0.55,0.154-0.88,0.154c-1.067,0-1.728-0.506-1.728-1.629v-3.278h-1.265v-0.836h1.265v-1.298l1.034-0.33v1.628
				h1.485V34.009z"/>
			<path style="fill:#114B89;" d="M144.578,33.042c1.705,0,2.85,1.232,2.85,2.938c0,1.605-1.166,2.938-2.85,2.938
				c-1.694,0-2.86-1.332-2.86-2.938C141.718,34.274,142.862,33.042,144.578,33.042z M144.578,38.081c1.211,0,1.75-1.101,1.75-2.102
				c0-1.067-0.649-2.102-1.75-2.102c-1.111,0-1.76,1.034-1.76,2.102C142.818,36.98,143.357,38.081,144.578,38.081z"/>
			<path style="fill:#114B89;" d="M148.812,33.173h0.969v0.869h0.021c0.275-0.583,0.869-1.001,1.463-1.001
				c0.309,0,0.463,0.033,0.683,0.076v0.925c-0.188-0.077-0.396-0.099-0.572-0.099c-0.924,0-1.529,0.88-1.529,2.288v2.552h-1.034
				V33.173z"/>
			<path style="fill:#114B89;" d="M152.674,40.302c0.132,0.044,0.309,0.089,0.484,0.089c0.924,0,1.232-1.277,1.232-1.387
				c0-0.121-0.133-0.407-0.198-0.594l-1.903-5.237h1.133l1.508,4.643h0.021l1.54-4.643h1.046l-2.068,5.731
				c-0.386,1.078-0.793,2.322-2.156,2.322c-0.33,0-0.518-0.045-0.704-0.078L152.674,40.302z"/>
			<path style="fill:#114B89;" d="M3.373,46.042c1.705,0,2.85,1.232,2.85,2.938c0,1.605-1.166,2.938-2.85,2.938
				c-1.694,0-2.861-1.332-2.861-2.938C0.512,47.274,1.656,46.042,3.373,46.042z M3.373,51.081c1.21,0,1.749-1.101,1.749-2.102
				c0-1.067-0.649-2.102-1.749-2.102c-1.111,0-1.76,1.034-1.76,2.102C1.613,49.98,2.152,51.081,3.373,51.081z"/>
			<path style="fill:#114B89;" d="M8.278,47.009h-1.32v-0.836h1.32v-0.517c0-1.365,0.353-2.256,1.882-2.256
				c0.264,0,0.483,0.033,0.692,0.066l-0.044,0.836c-0.121-0.044-0.318-0.066-0.495-0.066c-0.892,0-1.001,0.572-1.001,1.332v0.604
				h1.485v0.836H9.312v4.774H8.278V47.009z"/>
			<path style="fill:#114B89;" d="M15.208,46.569c0.517-0.308,1.134-0.527,1.849-0.527c1.605,0,2.255,0.792,2.255,2.321v2.321
				c0,0.639,0.022,0.936,0.044,1.1h-0.968v-0.726h-0.022c-0.242,0.341-0.792,0.858-1.738,0.858c-1.21,0-2.057-0.528-2.057-1.75
				c0-1.408,1.54-1.848,2.607-1.848c0.406,0,0.693,0,1.1,0.021c0-0.968-0.352-1.463-1.386-1.463c-0.583,0-1.21,0.221-1.628,0.572
				L15.208,46.569z M18.277,49.111c-0.22,0-0.439-0.022-0.66-0.022c-0.561,0-1.947,0.088-1.947,1.078
				c0,0.595,0.572,0.914,1.045,0.914c1.023,0,1.562-0.639,1.562-1.475V49.111z"/>
			<path style="fill:#114B89;" d="M20.643,50.684c0.406,0.264,0.99,0.396,1.287,0.396c0.473,0,1.056-0.199,1.056-0.804
				c0-1.022-2.431-0.935-2.431-2.509c0-1.166,0.869-1.727,1.98-1.727c0.483,0,0.879,0.099,1.287,0.22l-0.088,0.902
				c-0.232-0.144-0.848-0.286-1.09-0.286c-0.528,0-0.99,0.221-0.99,0.682c0,1.145,2.432,0.814,2.432,2.607
				c0,1.199-0.957,1.75-1.959,1.75c-0.527,0-1.066-0.055-1.539-0.309L20.643,50.684z"/>
			<path style="fill:#114B89;" d="M28.32,47.009h-1.484v3.069c0,0.649,0.396,1.002,0.869,1.002c0.318,0,0.549-0.1,0.703-0.199v0.881
				c-0.23,0.066-0.55,0.154-0.88,0.154c-1.067,0-1.728-0.506-1.728-1.629v-3.278h-1.265v-0.836h1.265v-1.298l1.035-0.33v1.628h1.484
				V47.009z"/>
			<path style="fill:#114B89;" d="M29.618,43.534h1.034v3.443h0.021c0.375-0.595,1.023-0.936,1.805-0.936
				c1.452,0,2.102,0.902,2.102,2.409v3.333h-1.035v-2.904c0-1.309-0.285-1.947-1.188-2.002c-1.178,0-1.705,0.946-1.705,2.311v2.596
				h-1.034V43.534z"/>
			<path style="fill:#114B89;" d="M36.328,46.173h0.968v0.813h0.022c0.396-0.648,0.957-0.945,1.781-0.945
				c0.649,0,1.299,0.33,1.596,1.089c0.385-0.804,1.232-1.089,1.738-1.089c1.43,0,1.947,0.924,1.947,2.145v3.598h-1.034V48.44
				c0-0.693-0.165-1.562-1.001-1.562c-1.057,0-1.475,1.034-1.475,2.079v2.827h-1.034V48.44c0-0.693-0.165-1.562-1.001-1.562
				c-1.057,0-1.475,1.034-1.475,2.079v2.827h-1.033V46.173z"/>
			<path style="fill:#114B89;" d="M46.381,46.569c0.518-0.308,1.134-0.527,1.849-0.527c1.606,0,2.255,0.792,2.255,2.321v2.321
				c0,0.639,0.022,0.936,0.045,1.1h-0.969v-0.726h-0.021c-0.242,0.341-0.793,0.858-1.738,0.858c-1.211,0-2.058-0.528-2.058-1.75
				c0-1.408,1.54-1.848,2.607-1.848c0.407,0,0.693,0,1.101,0.021c0-0.968-0.353-1.463-1.387-1.463c-0.583,0-1.21,0.221-1.628,0.572
				L46.381,46.569z M49.451,49.111c-0.221,0-0.44-0.022-0.66-0.022c-0.562,0-1.947,0.088-1.947,1.078
				c0,0.595,0.572,0.914,1.045,0.914c1.023,0,1.562-0.639,1.562-1.475V49.111z"/>
			<path style="fill:#114B89;" d="M59.594,51.553c-0.396,0.143-0.848,0.363-1.771,0.363c-1.991,0-2.904-1.211-2.904-3.037
				c0-1.66,1.045-2.838,2.629-2.838c1.871,0,2.476,1.364,2.476,3.168h-4.005c0,1.111,0.869,1.871,1.849,1.871
				c0.683,0,1.474-0.353,1.728-0.562V51.553z M58.922,48.44c0-0.858-0.506-1.562-1.396-1.562c-1.013,0-1.431,0.836-1.508,1.562
				H58.922z"/>
			<path style="fill:#114B89;" d="M62.662,48.846l-1.826-2.673h1.287l1.221,2.003l1.244-2.003h1.154l-1.804,2.673l1.979,2.938
				h-1.275l-1.387-2.199l-1.386,2.199h-1.232L62.662,48.846z"/>
			<path style="fill:#114B89;" d="M67.172,46.569c0.518-0.308,1.133-0.527,1.849-0.527c1.606,0,2.255,0.792,2.255,2.321v2.321
				c0,0.639,0.021,0.936,0.045,1.1h-0.969v-0.726H70.33c-0.242,0.341-0.793,0.858-1.738,0.858c-1.211,0-2.059-0.528-2.059-1.75
				c0-1.408,1.541-1.848,2.607-1.848c0.408,0,0.693,0,1.101,0.021c0-0.968-0.353-1.463-1.386-1.463
				c-0.584,0-1.211,0.221-1.629,0.572L67.172,46.569z M70.241,49.111c-0.22,0-0.44-0.022-0.659-0.022
				c-0.562,0-1.947,0.088-1.947,1.078c0,0.595,0.571,0.914,1.045,0.914c1.022,0,1.562-0.639,1.562-1.475V49.111z"/>
			<path style="fill:#114B89;" d="M76.589,47.12c-0.396-0.165-0.792-0.242-1.122-0.242c-1.155,0-1.805,1.034-1.805,2.102
				c0,1.001,0.539,2.102,1.871,2.102c0.352,0,0.791-0.11,1.11-0.319l0.077,0.924c-0.43,0.198-0.924,0.231-1.299,0.231
				c-1.693,0-2.859-1.332-2.859-2.938c0-1.705,1.144-2.938,2.859-2.938c0.419,0,0.958,0.099,1.255,0.22L76.589,47.12z"/>
			<path style="fill:#114B89;" d="M82.21,51.553c-0.396,0.143-0.848,0.363-1.771,0.363c-1.991,0-2.905-1.211-2.905-3.037
				c0-1.66,1.046-2.838,2.63-2.838c1.87,0,2.476,1.364,2.476,3.168h-4.005c0,1.111,0.869,1.871,1.849,1.871
				c0.682,0,1.475-0.353,1.728-0.562V51.553z M81.538,48.44c0-0.858-0.506-1.562-1.396-1.562c-1.013,0-1.431,0.836-1.508,1.562
				H81.538z"/>
			<path style="fill:#114B89;" d="M84.023,46.173h0.969v0.869h0.021c0.275-0.583,0.869-1.001,1.463-1.001
				c0.309,0,0.463,0.033,0.683,0.076v0.925c-0.188-0.077-0.396-0.099-0.572-0.099c-0.924,0-1.529,0.88-1.529,2.288v2.552h-1.034
				V46.173z"/>
			<path style="fill:#114B89;" d="M88.303,43.534h1.034v3.41h0.022c0.318-0.518,0.88-0.902,1.859-0.902
				c1.628,0,2.42,1.331,2.42,2.838c0,1.541-0.715,3.037-2.409,3.037c-1.001,0-1.64-0.506-1.914-0.924h-0.022v0.791h-0.99V43.534z
				 M90.998,46.877c-1.122,0-1.661,1.067-1.661,2.112c0,0.935,0.484,2.091,1.65,2.091c1.111,0,1.573-1.244,1.552-2.124
				C92.561,47.945,92.12,46.877,90.998,46.877z"/>
			<path style="fill:#114B89;" d="M95.288,46.569c0.517-0.308,1.133-0.527,1.848-0.527c1.606,0,2.256,0.792,2.256,2.321v2.321
				c0,0.639,0.021,0.936,0.044,1.1h-0.969v-0.726h-0.021c-0.242,0.341-0.792,0.858-1.738,0.858c-1.21,0-2.058-0.528-2.058-1.75
				c0-1.408,1.54-1.848,2.607-1.848c0.407,0,0.693,0,1.101,0.021c0-0.968-0.353-1.463-1.387-1.463c-0.583,0-1.21,0.221-1.628,0.572
				L95.288,46.569z M98.357,49.111c-0.221,0-0.44-0.022-0.66-0.022c-0.562,0-1.947,0.088-1.947,1.078
				c0,0.595,0.572,0.914,1.045,0.914c1.023,0,1.562-0.639,1.562-1.475V49.111z"/>
			<path style="fill:#114B89;" d="M104.121,47.009h-1.485v3.069c0,0.649,0.396,1.002,0.869,1.002c0.319,0,0.551-0.1,0.704-0.199
				v0.881c-0.23,0.066-0.55,0.154-0.88,0.154c-1.067,0-1.728-0.506-1.728-1.629v-3.278h-1.265v-0.836h1.265v-1.298l1.034-0.33v1.628
				h1.485V47.009z"/>
			<path style="fill:#114B89;" d="M106.651,44.918h-1.166v-1.166h1.166V44.918z M105.551,46.173h1.034v5.61h-1.034V46.173z"/>
			<path style="fill:#114B89;" d="M110.963,46.042c1.705,0,2.85,1.232,2.85,2.938c0,1.605-1.166,2.938-2.85,2.938
				c-1.694,0-2.86-1.332-2.86-2.938C108.103,47.274,109.247,46.042,110.963,46.042z M110.963,51.081c1.211,0,1.75-1.101,1.75-2.102
				c0-1.067-0.649-2.102-1.75-2.102c-1.111,0-1.76,1.034-1.76,2.102C109.203,49.98,109.742,51.081,110.963,51.081z"/>
			<path style="fill:#114B89;" d="M115.197,46.173h1.001v0.892h0.022c0.308-0.639,1.056-1.023,1.837-1.023
				c1.452,0,2.102,0.902,2.102,2.409v3.333h-1.034v-2.904c0-1.309-0.286-1.947-1.188-2.002c-1.177,0-1.705,0.946-1.705,2.311v2.596
				h-1.034V46.173z"/>
			<path style="fill:#114B89;" d="M121.5,50.684c0.407,0.264,0.99,0.396,1.287,0.396c0.474,0,1.057-0.199,1.057-0.804
				c0-1.022-2.432-0.935-2.432-2.509c0-1.166,0.869-1.727,1.98-1.727c0.484,0,0.88,0.099,1.287,0.22l-0.088,0.902
				c-0.231-0.144-0.848-0.286-1.09-0.286c-0.527,0-0.989,0.221-0.989,0.682c0,1.145,2.431,0.814,2.431,2.607
				c0,1.199-0.957,1.75-1.958,1.75c-0.528,0-1.067-0.055-1.54-0.309L121.5,50.684z"/>
		</g>
	</g>
	<g>
		<defs>
			<rect id="SVGID_1067_" x="-692" y="461" width="224" height="71"/>
		</defs>
		<clipPath id="SVGID_4_">
			<use xlink:href="#SVGID_1067_"  style="overflow:visible;"/>
		</clipPath>
	</g>
</g>
<g id="Layer_2">
</g>
</svg>
