<?xml version="1.0" encoding="iso-8859-1"?>
<!-- Generator: Adobe Illustrator 19.1.0, SVG Export Plug-In . SVG Version: 6.00 Build 0)  -->
<svg version="1.1" xmlns="http://www.w3.org/2000/svg" xmlns:xlink="http://www.w3.org/1999/xlink" x="0px" y="0px"
	 viewBox="0 0 135.882 44.367" style="enable-background:new 0 0 135.882 44.367;" xml:space="preserve">
<symbol  id="_x31_60_x5F_border" viewBox="-16383 -16383 32766 32766">
	<polygon style="display:none;fill:none;" points="16383,-16383 -16383,-16383 -16383,16383 16383,16383 	"/>
</symbol>
<g id="A1">
	<g id="Layer_2">
		
			<use xlink:href="#_x31_60_x5F_border"  width="32766" height="32766" id="XMLID_1_" x="-16383" y="-16383" transform="matrix(1.8634 0 0 -0.416 -101.3066 -660.0845)" style="overflow:visible;"/>
	</g>
</g>
<g id="A2">
	<g id="Layer_2_copy">
		
			<use xlink:href="#_x31_60_x5F_border"  width="32766" height="32766" id="XMLID_2_" x="-16383" y="-16383" transform="matrix(1.8634 0 0 -0.416 -101.3066 -660.0845)" style="overflow:visible;"/>
	</g>
</g>
<g id="A3">
	<defs>
		<rect id="SVGID_2026_" x="426.259" y="-780.876" width="300" height="250"/>
	</defs>
	<clipPath id="SVGID_4_">
		<use xlink:href="#SVGID_2026_"  style="overflow:visible;"/>
	</clipPath>
	<g id="Layer_2_copy_2" style="clip-path:url(#SVGID_4_);">
		
			<use xlink:href="#_x31_60_x5F_border"  width="32766" height="32766" id="XMLID_3_" x="-16383" y="-16383" transform="matrix(1.8634 0 0 -0.416 -101.3066 -660.0845)" style="overflow:visible;"/>
	</g>
</g>
<g id="A4">
	<defs>
		<rect id="SVGID_2028_" x="766.259" y="-781.876" width="300" height="250"/>
	</defs>
	<clipPath id="SVGID_5_">
		<use xlink:href="#SVGID_2028_"  style="overflow:visible;"/>
	</clipPath>
	<g id="Layer_2_copy_3" style="clip-path:url(#SVGID_5_);">
		
			<use xlink:href="#_x31_60_x5F_border"  width="32766" height="32766" id="XMLID_4_" x="-16383" y="-16383" transform="matrix(1.8634 0 0 -0.416 -101.3066 -660.0845)" style="overflow:visible;"/>
	</g>
</g>
<g id="A5">
	<g>
		<g>
			<g>
				<path style="fill:#002D73;" d="M2.008,18.523c-0.135,0.459-0.24,0.924-0.315,1.397c-0.075,0.473-0.125,0.961-0.151,1.463
					c-0.026,0.503-0.039,1.032-0.039,1.587c0,0.556,0.013,1.085,0.039,1.587c0.026,0.502,0.078,0.99,0.155,1.463
					c0.078,0.473,0.184,0.932,0.319,1.375c0.135,0.444,0.309,0.9,0.522,1.368l-0.173,0.263c-0.466-0.849-0.816-1.79-1.049-2.824
					c-0.233-1.034-0.35-2.112-0.35-3.234c0-0.536,0.03-1.078,0.091-1.624c0.06-0.546,0.15-1.08,0.268-1.602
					c0.118-0.522,0.263-1.027,0.436-1.514c0.173-0.488,0.374-0.941,0.604-1.361l0.173,0.263C2.32,17.602,2.143,18.065,2.008,18.523z
					"/>
				<path style="fill:#002D73;" d="M4.861,17.075c-0.127,0-0.235,0.041-0.324,0.124c-0.089,0.083-0.163,0.19-0.22,0.322
					c-0.058,0.132-0.099,0.285-0.125,0.461c-0.026,0.176-0.039,0.361-0.039,0.556c0,0.176,0.011,0.429,0.033,0.761
					c0.022,0.332,0.048,0.649,0.08,0.951c0.15,0,0.298-0.002,0.445-0.007c0.147-0.005,0.295-0.007,0.445-0.007
					c-0.006,0.049-0.01,0.098-0.013,0.146c-0.003,0.049-0.004,0.098-0.004,0.146c0,0.049,0.001,0.098,0.004,0.146
					c0.003,0.049,0.007,0.098,0.013,0.146c-0.15-0.01-0.298-0.019-0.445-0.029c-0.147-0.01-0.295-0.015-0.445-0.015
					c0,1.063,0.001,2.119,0.004,3.168c0.003,1.049,0.013,2.105,0.03,3.168c-0.064-0.02-0.128-0.029-0.192-0.029
					c-0.064,0-0.125,0-0.183,0c-0.122,0-0.25,0.01-0.384,0.029c0.04-1.063,0.063-2.114,0.069-3.153
					c0.006-1.039,0.009-2.1,0.009-3.182c-0.104,0-0.207,0.005-0.311,0.015c-0.104,0.01-0.207,0.02-0.311,0.029
					c0.006-0.049,0.01-0.097,0.013-0.146c0.003-0.049,0.004-0.097,0.004-0.146c0-0.049-0.001-0.097-0.004-0.146
					c-0.003-0.049-0.007-0.097-0.013-0.146c0.104,0,0.209,0.003,0.315,0.007c0.106,0.005,0.209,0.007,0.306,0.007
					c0-0.283,0.017-0.59,0.052-0.922c0.035-0.332,0.085-0.658,0.151-0.98c0.066-0.322,0.145-0.627,0.238-0.914
					c0.092-0.288,0.196-0.529,0.311-0.724c0.104-0.175,0.234-0.331,0.393-0.468c0.158-0.137,0.321-0.205,0.488-0.205
					c0.063,0,0.121,0.015,0.173,0.044c-0.006,0.195-0.013,0.39-0.022,0.585c-0.009,0.195-0.013,0.39-0.013,0.585l-0.052,0.044
					C5.198,17.148,5.039,17.075,4.861,17.075z"/>
				<path style="fill:#002D73;" d="M6.126,19.211c-0.003-0.39-0.007-0.776-0.013-1.156c-0.006-0.38-0.013-0.744-0.022-1.09
					c-0.009-0.346-0.019-0.641-0.03-0.885c0.161,0.049,0.291,0.073,0.388,0.073c0.098,0,0.227-0.024,0.389-0.073
					c-0.012,0.244-0.022,0.539-0.03,0.885c-0.009,0.346-0.016,0.71-0.022,1.09c-0.006,0.38-0.01,0.766-0.013,1.156
					c-0.003,0.39-0.004,0.751-0.004,1.083v2.648c0,0.332,0.001,0.693,0.004,1.083c0.003,0.39,0.007,0.776,0.013,1.156
					c0.006,0.38,0.013,0.741,0.022,1.083c0.009,0.342,0.019,0.624,0.03,0.849c-0.133-0.02-0.262-0.029-0.389-0.029
					c-0.127,0-0.256,0.01-0.388,0.029c0.012-0.224,0.022-0.507,0.03-0.849c0.009-0.341,0.016-0.702,0.022-1.083
					c0.006-0.38,0.01-0.766,0.013-1.156c0.003-0.39,0.004-0.751,0.004-1.083v-2.648C6.13,19.962,6.129,19.601,6.126,19.211z"/>
				<path style="fill:#002D73;" d="M8.318,23.578c0.009-0.366,0.013-0.729,0.013-1.09c0-0.341-0.001-0.712-0.004-1.112
					c-0.003-0.4-0.007-0.805-0.013-1.214c0.144,0.049,0.265,0.073,0.363,0.073c0.092,0,0.21-0.024,0.354-0.073
					c-0.029,0.585-0.05,1.227-0.065,1.924c-0.014,0.698-0.022,1.412-0.022,2.143c0,0.507,0.026,0.895,0.078,1.163
					c0.052,0.268,0.115,0.471,0.19,0.607c0.081,0.156,0.183,0.285,0.307,0.388c0.124,0.102,0.269,0.154,0.436,0.154
					c0.242,0,0.443-0.09,0.604-0.271c0.161-0.18,0.279-0.402,0.354-0.666c0.04-0.166,0.072-0.307,0.095-0.424
					c0.023-0.117,0.042-0.273,0.056-0.468c0.014-0.195,0.023-0.458,0.026-0.79c0.003-0.331,0.004-0.785,0.004-1.361v-1.229
					c0-0.214-0.001-0.419-0.004-0.614c-0.003-0.195-0.007-0.38-0.013-0.556c0.063,0.02,0.124,0.036,0.181,0.051
					c0.057,0.015,0.118,0.022,0.181,0.022c0.063,0,0.124-0.007,0.181-0.022c0.057-0.015,0.115-0.032,0.173-0.051
					c-0.029,0.761-0.046,1.495-0.052,2.202c-0.006,0.707-0.009,1.456-0.009,2.246c0,0.439,0.003,0.868,0.009,1.288
					c0.006,0.419,0.014,0.824,0.026,1.214c-0.115-0.02-0.227-0.029-0.337-0.029c-0.109,0-0.222,0.01-0.337,0.029
					c0.006-0.088,0.01-0.18,0.013-0.278c0.003-0.097,0.004-0.2,0.004-0.307v-0.629h-0.017c-0.15,0.468-0.343,0.812-0.578,1.031
					c-0.236,0.219-0.492,0.329-0.768,0.329c-0.449,0-0.801-0.202-1.057-0.607c-0.256-0.405-0.384-0.988-0.384-1.748
					C8.305,24.386,8.31,23.944,8.318,23.578z"/>
				<path style="fill:#002D73;" d="M13.89,18.202c-0.017,0.371-0.03,0.734-0.039,1.09c-0.009,0.356-0.019,0.715-0.03,1.075
					c0.063,0,0.181-0.002,0.354-0.007c0.173-0.005,0.36-0.017,0.561-0.037c-0.006,0.029-0.009,0.083-0.009,0.161v0.146v0.161
					c0,0.068,0.003,0.117,0.009,0.146c-0.075-0.01-0.153-0.017-0.233-0.022c-0.081-0.005-0.167-0.007-0.259-0.007h-0.423
					c-0.006,0.039-0.013,0.195-0.022,0.468c-0.009,0.273-0.016,0.597-0.022,0.973c-0.006,0.376-0.01,0.768-0.013,1.178
					c-0.003,0.41-0.004,0.776-0.004,1.097c0,0.273,0.004,0.541,0.013,0.805c0.009,0.263,0.036,0.5,0.082,0.71
					c0.046,0.21,0.115,0.378,0.207,0.505c0.092,0.127,0.224,0.19,0.397,0.19c0.046,0,0.108-0.01,0.186-0.029
					c0.078-0.019,0.145-0.044,0.203-0.073v0.351c-0.098,0.029-0.206,0.066-0.324,0.11c-0.118,0.044-0.232,0.066-0.341,0.066
					c-0.363,0-0.63-0.151-0.803-0.453c-0.173-0.302-0.259-0.746-0.259-1.332c0-0.263,0.003-0.549,0.009-0.856
					c0.006-0.307,0.013-0.644,0.022-1.01c0.009-0.366,0.016-0.77,0.022-1.214c0.006-0.444,0.009-0.939,0.009-1.485h-0.276
					c-0.046,0-0.095,0.003-0.147,0.007c-0.052,0.005-0.107,0.012-0.164,0.022c0.006-0.058,0.01-0.115,0.013-0.168
					c0.003-0.053,0.004-0.11,0.004-0.168c0-0.049-0.001-0.097-0.004-0.146c-0.003-0.049-0.007-0.097-0.013-0.146
					c0.259,0.029,0.449,0.044,0.57,0.044c-0.006-0.195-0.01-0.439-0.013-0.732c-0.003-0.293-0.01-0.595-0.022-0.907l0.716-0.512
					H13.89z"/>
				<path style="fill:#002D73;" d="M15.738,17.09c0.086-0.146,0.19-0.219,0.311-0.219c0.121,0,0.225,0.073,0.311,0.219
					c0.086,0.146,0.13,0.322,0.13,0.527c0,0.205-0.043,0.38-0.13,0.527c-0.086,0.146-0.19,0.219-0.311,0.219
					c-0.121,0-0.224-0.073-0.311-0.219c-0.086-0.146-0.13-0.322-0.13-0.527C15.608,17.411,15.651,17.236,15.738,17.09z
					 M15.716,21.516c-0.009-0.483-0.027-0.934-0.056-1.353c0.161,0.049,0.291,0.073,0.388,0.073c0.098,0,0.227-0.024,0.389-0.073
					c-0.029,0.419-0.048,0.87-0.056,1.353c-0.009,0.483-0.013,0.944-0.013,1.383v1.522c0,0.439,0.004,0.9,0.013,1.383
					c0.009,0.483,0.027,0.919,0.056,1.309c-0.133-0.02-0.262-0.029-0.389-0.029c-0.127,0-0.256,0.01-0.388,0.029
					c0.029-0.39,0.048-0.827,0.056-1.309c0.009-0.483,0.013-0.944,0.013-1.383v-1.522C15.729,22.459,15.725,21.998,15.716,21.516z"
					/>
				<path style="fill:#002D73;" d="M17.801,22.02c0.127-0.458,0.292-0.836,0.496-1.134c0.204-0.297,0.439-0.517,0.703-0.658
					c0.265-0.141,0.535-0.212,0.811-0.212c0.316,0,0.6,0.066,0.85,0.198c0.25,0.132,0.43,0.28,0.54,0.446
					c-0.04,0.146-0.076,0.3-0.108,0.461c-0.032,0.161-0.059,0.329-0.082,0.505h-0.069c-0.04-0.127-0.095-0.256-0.164-0.388
					c-0.069-0.132-0.151-0.253-0.246-0.366c-0.095-0.112-0.2-0.205-0.315-0.278c-0.115-0.073-0.242-0.11-0.38-0.11
					c-0.259,0-0.482,0.08-0.669,0.242c-0.187,0.161-0.34,0.383-0.457,0.666c-0.118,0.283-0.204,0.617-0.259,1.002
					c-0.055,0.385-0.082,0.802-0.082,1.251c0,1.005,0.126,1.763,0.38,2.275c0.253,0.512,0.624,0.768,1.114,0.768
					c0.115,0,0.233-0.027,0.354-0.081c0.121-0.053,0.239-0.127,0.354-0.219c0.115-0.093,0.223-0.202,0.324-0.329
					c0.101-0.127,0.189-0.263,0.263-0.41l0.043,0.044c-0.029,0.234-0.046,0.473-0.052,0.717c-0.173,0.234-0.387,0.434-0.643,0.6
					c-0.256,0.166-0.522,0.249-0.798,0.249c-0.248,0-0.496-0.061-0.747-0.183c-0.25-0.122-0.476-0.327-0.678-0.614
					c-0.201-0.288-0.364-0.661-0.488-1.119c-0.124-0.458-0.186-1.019-0.186-1.683C17.611,23.025,17.674,22.479,17.801,22.02z"/>
				<path style="fill:#002D73;" d="M23.015,20.191c0.219-0.117,0.443-0.176,0.673-0.176c0.207,0,0.397,0.051,0.57,0.154
					c0.173,0.102,0.321,0.249,0.443,0.439c0.122,0.19,0.219,0.419,0.289,0.688c0.07,0.268,0.105,0.563,0.105,0.885
					c0,0.556-0.006,1.11-0.017,1.661c-0.012,0.551-0.017,1.134-0.017,1.748c0,0.117,0.001,0.242,0.004,0.373
					c0.003,0.132,0.016,0.249,0.039,0.351c0.023,0.102,0.056,0.188,0.099,0.256c0.043,0.068,0.108,0.102,0.194,0.102
					c0.029,0,0.059-0.002,0.091-0.007c0.032-0.005,0.062-0.022,0.091-0.051v0.322c-0.063,0.049-0.142,0.088-0.237,0.117
					c-0.095,0.029-0.2,0.044-0.315,0.044c-0.187,0-0.33-0.08-0.429-0.241c-0.099-0.161-0.157-0.368-0.175-0.622
					c-0.206,0.351-0.41,0.61-0.611,0.775c-0.201,0.166-0.447,0.249-0.74,0.249c-0.143,0-0.284-0.034-0.422-0.102
					c-0.138-0.068-0.259-0.18-0.365-0.337c-0.106-0.156-0.192-0.344-0.258-0.563c-0.066-0.219-0.099-0.471-0.099-0.754
					c0-0.585,0.108-1.039,0.323-1.361c0.215-0.322,0.512-0.536,0.89-0.644c0.31-0.088,0.552-0.163,0.727-0.227
					c0.175-0.063,0.304-0.129,0.387-0.198c0.083-0.068,0.133-0.149,0.151-0.241c0.017-0.093,0.026-0.212,0.026-0.359
					c0-0.244-0.017-0.478-0.052-0.702c-0.035-0.224-0.089-0.419-0.164-0.585c-0.075-0.166-0.173-0.3-0.293-0.402
					c-0.121-0.102-0.268-0.154-0.44-0.154c-0.23,0-0.445,0.088-0.643,0.263c-0.199,0.176-0.347,0.419-0.445,0.732h-0.095v-0.761
					C22.557,20.533,22.796,20.308,23.015,20.191z M24.091,23.615c-0.129,0.039-0.259,0.08-0.391,0.124
					c-0.132,0.044-0.262,0.1-0.391,0.168c-0.129,0.068-0.244,0.161-0.344,0.278c-0.1,0.117-0.18,0.263-0.24,0.439
					c-0.06,0.176-0.09,0.4-0.09,0.673c0,0.459,0.077,0.805,0.232,1.039c0.155,0.234,0.326,0.351,0.515,0.351
					c0.218,0,0.417-0.102,0.597-0.307c0.18-0.205,0.319-0.444,0.417-0.717l0.034-2.195C24.333,23.527,24.22,23.576,24.091,23.615z"
					/>
				<path style="fill:#002D73;" d="M26.627,26.073c0.06,0.117,0.132,0.227,0.216,0.329c0.083,0.102,0.178,0.188,0.285,0.256
					c0.106,0.068,0.22,0.102,0.341,0.102c0.109,0,0.214-0.029,0.315-0.088c0.101-0.059,0.19-0.141,0.268-0.249
					c0.078-0.107,0.139-0.244,0.186-0.41c0.046-0.166,0.069-0.356,0.069-0.571c0-0.302-0.05-0.534-0.151-0.695
					c-0.101-0.161-0.226-0.293-0.376-0.395c-0.15-0.102-0.314-0.192-0.492-0.271c-0.178-0.078-0.342-0.188-0.492-0.329
					c-0.15-0.141-0.275-0.329-0.376-0.563c-0.101-0.234-0.151-0.556-0.151-0.966c0-0.322,0.032-0.617,0.095-0.885
					c0.063-0.268,0.155-0.5,0.276-0.695c0.121-0.195,0.271-0.349,0.449-0.461c0.178-0.112,0.383-0.168,0.613-0.168
					c0.213,0,0.393,0.049,0.54,0.146c0.147,0.098,0.286,0.185,0.419,0.263c-0.046,0.146-0.089,0.327-0.129,0.541
					c-0.04,0.215-0.066,0.381-0.078,0.498h-0.104c-0.046-0.234-0.135-0.444-0.268-0.629c-0.132-0.185-0.296-0.278-0.492-0.278
					c-0.086,0-0.173,0.025-0.259,0.073c-0.086,0.049-0.164,0.122-0.233,0.219c-0.069,0.098-0.127,0.225-0.173,0.381
					c-0.046,0.156-0.069,0.342-0.069,0.556c0,0.312,0.05,0.554,0.151,0.724c0.101,0.171,0.226,0.305,0.376,0.402
					c0.15,0.098,0.314,0.183,0.492,0.256c0.178,0.073,0.342,0.176,0.492,0.307c0.15,0.132,0.275,0.315,0.376,0.549
					c0.101,0.234,0.151,0.556,0.151,0.966c0,0.283-0.036,0.561-0.108,0.834c-0.072,0.273-0.175,0.519-0.311,0.739
					c-0.135,0.219-0.298,0.39-0.488,0.512c-0.19,0.122-0.406,0.183-0.647,0.183c-0.265,0-0.487-0.044-0.665-0.132
					c-0.178-0.088-0.328-0.19-0.449-0.307c0.035-0.127,0.07-0.3,0.108-0.519c0.037-0.219,0.056-0.402,0.056-0.549h0.104
					C26.522,25.849,26.567,25.956,26.627,26.073z"/>
				<path style="fill:#002D73;" d="M29.726,21.969c0.124-0.463,0.286-0.839,0.488-1.126c0.201-0.288,0.427-0.497,0.677-0.629
					c0.25-0.132,0.499-0.198,0.747-0.198c0.253,0,0.503,0.066,0.751,0.198c0.247,0.132,0.472,0.341,0.673,0.629
					c0.201,0.288,0.364,0.663,0.488,1.126c0.124,0.463,0.186,1.027,0.186,1.69c0,0.663-0.062,1.227-0.186,1.69
					c-0.124,0.463-0.286,0.839-0.488,1.127c-0.201,0.288-0.426,0.49-0.673,0.607c-0.248,0.117-0.498,0.175-0.751,0.175
					c-0.248,0-0.496-0.058-0.747-0.175c-0.25-0.117-0.476-0.319-0.677-0.607c-0.202-0.288-0.364-0.663-0.488-1.127
					c-0.124-0.463-0.186-1.026-0.186-1.69C29.54,22.996,29.602,22.432,29.726,21.969z M30.365,24.844
					c0.043,0.38,0.117,0.719,0.22,1.017c0.104,0.298,0.242,0.534,0.414,0.71c0.173,0.176,0.386,0.263,0.639,0.263
					c0.253,0,0.466-0.088,0.639-0.263c0.173-0.176,0.311-0.412,0.414-0.71c0.104-0.297,0.177-0.636,0.22-1.017
					c0.043-0.38,0.065-0.775,0.065-1.185c0-0.41-0.022-0.805-0.065-1.185c-0.043-0.38-0.116-0.719-0.22-1.017
					c-0.104-0.297-0.242-0.534-0.414-0.71c-0.173-0.176-0.386-0.263-0.639-0.263c-0.253,0-0.466,0.088-0.639,0.263
					c-0.173,0.176-0.311,0.412-0.414,0.71c-0.103,0.298-0.177,0.636-0.22,1.017c-0.043,0.38-0.065,0.776-0.065,1.185
					C30.3,24.069,30.322,24.464,30.365,24.844z"/>
				<path style="fill:#002D73;" d="M37.258,21.34c-0.167-0.375-0.397-0.563-0.691-0.563c-0.403,0-0.698,0.21-0.885,0.629
					c-0.187,0.419-0.281,1.01-0.281,1.77v1.244c0,0.439,0.004,0.9,0.013,1.383s0.027,0.919,0.056,1.309
					c-0.132-0.02-0.262-0.029-0.388-0.029c-0.127,0-0.256,0.01-0.388,0.029c0.029-0.39,0.047-0.827,0.056-1.309
					c0.009-0.483,0.013-0.944,0.013-1.383v-1.522c0-0.439-0.004-0.9-0.013-1.383c-0.009-0.483-0.027-0.934-0.056-1.353
					c0.161,0.049,0.291,0.073,0.388,0.073c0.046,0,0.096-0.007,0.151-0.022c0.055-0.015,0.119-0.032,0.194-0.051
					c-0.017,0.39-0.026,0.78-0.026,1.17h0.017c0.162-0.419,0.355-0.744,0.58-0.973c0.225-0.229,0.494-0.344,0.805-0.344
					c0.161,0,0.325,0.039,0.489,0.117c0.165,0.078,0.313,0.212,0.446,0.402c0.133,0.19,0.241,0.449,0.325,0.776
					c0.084,0.327,0.126,0.744,0.126,1.251c0,0.419-0.006,0.851-0.017,1.295c-0.012,0.444-0.017,0.914-0.017,1.412v0.951
					c0,0.156,0.001,0.31,0.004,0.461c0.003,0.151,0.007,0.295,0.013,0.432c-0.116-0.02-0.239-0.029-0.367-0.029
					c-0.122,0-0.242,0.01-0.358,0.029c0.011-0.507,0.024-1.029,0.039-1.565c0.014-0.536,0.022-1.088,0.022-1.653v-0.892
					C37.508,22.269,37.424,21.716,37.258,21.34z"/>
				<path style="fill:#002D73;" d="M39.644,21.04c0.337-0.683,0.827-1.024,1.472-1.024c0.305,0,0.568,0.081,0.79,0.241
					c0.221,0.161,0.407,0.376,0.557,0.644c0.15,0.268,0.26,0.583,0.332,0.944c0.072,0.361,0.108,0.746,0.108,1.156
					c0,0.098-0.001,0.193-0.004,0.285c-0.003,0.093-0.007,0.188-0.013,0.285c-0.311-0.01-0.619-0.019-0.924-0.029
					c-0.305-0.01-0.613-0.015-0.924-0.015c-0.19,0-0.378,0.005-0.565,0.015c-0.187,0.01-0.376,0.02-0.565,0.029
					c-0.006,0.049-0.009,0.122-0.009,0.219v0.19c0,0.38,0.033,0.737,0.099,1.068c0.066,0.332,0.163,0.617,0.289,0.856
					c0.127,0.239,0.282,0.429,0.466,0.57c0.184,0.142,0.397,0.212,0.639,0.212c0.115,0,0.233-0.027,0.354-0.081
					c0.121-0.053,0.239-0.127,0.354-0.219c0.115-0.093,0.223-0.202,0.324-0.329c0.101-0.127,0.188-0.263,0.263-0.41l0.043,0.044
					l-0.052,0.717c-0.173,0.234-0.387,0.434-0.643,0.6c-0.256,0.166-0.522,0.249-0.799,0.249c-0.311,0-0.594-0.08-0.85-0.241
					c-0.256-0.161-0.478-0.395-0.665-0.702c-0.187-0.307-0.331-0.671-0.432-1.09c-0.101-0.419-0.151-0.873-0.151-1.361
					C39.139,22.664,39.308,21.723,39.644,21.04z M40.594,20.733c-0.147,0.166-0.268,0.373-0.363,0.622
					c-0.095,0.249-0.167,0.522-0.216,0.819c-0.049,0.298-0.079,0.578-0.091,0.841c0.178,0.01,0.364,0.02,0.557,0.029
					c0.193,0.01,0.381,0.015,0.565,0.015c0.19,0,0.383-0.005,0.578-0.015c0.196-0.01,0.386-0.019,0.57-0.029
					c0-0.263-0.013-0.541-0.039-0.834c-0.026-0.293-0.078-0.566-0.155-0.819c-0.078-0.254-0.186-0.463-0.324-0.629
					c-0.138-0.166-0.319-0.249-0.544-0.249C40.921,20.484,40.741,20.567,40.594,20.733z"/>
				<path style="fill:#002D73;" d="M47.564,17.075c-0.127,0-0.235,0.041-0.324,0.124c-0.089,0.083-0.163,0.19-0.22,0.322
					c-0.058,0.132-0.099,0.285-0.125,0.461c-0.026,0.176-0.039,0.361-0.039,0.556c0,0.176,0.011,0.429,0.033,0.761
					c0.022,0.332,0.048,0.649,0.08,0.951c0.15,0,0.298-0.002,0.445-0.007c0.147-0.005,0.295-0.007,0.445-0.007
					c-0.006,0.049-0.01,0.098-0.013,0.146c-0.003,0.049-0.004,0.098-0.004,0.146c0,0.049,0.001,0.098,0.004,0.146
					c0.003,0.049,0.007,0.098,0.013,0.146c-0.15-0.01-0.298-0.019-0.445-0.029c-0.147-0.01-0.295-0.015-0.445-0.015
					c0,1.063,0.001,2.119,0.004,3.168c0.003,1.049,0.013,2.105,0.03,3.168c-0.064-0.02-0.128-0.029-0.192-0.029
					c-0.064,0-0.125,0-0.183,0c-0.122,0-0.25,0.01-0.384,0.029c0.04-1.063,0.063-2.114,0.069-3.153
					c0.006-1.039,0.009-2.1,0.009-3.182c-0.104,0-0.207,0.005-0.311,0.015c-0.104,0.01-0.207,0.02-0.311,0.029
					c0.006-0.049,0.01-0.097,0.013-0.146c0.003-0.049,0.004-0.097,0.004-0.146c0-0.049-0.001-0.097-0.004-0.146
					c-0.003-0.049-0.007-0.097-0.013-0.146c0.104,0,0.209,0.003,0.315,0.007c0.106,0.005,0.209,0.007,0.306,0.007
					c0-0.283,0.017-0.59,0.052-0.922c0.035-0.332,0.085-0.658,0.151-0.98c0.066-0.322,0.145-0.627,0.237-0.914
					c0.092-0.288,0.196-0.529,0.311-0.724c0.104-0.175,0.234-0.331,0.393-0.468c0.158-0.137,0.321-0.205,0.488-0.205
					c0.063,0,0.121,0.015,0.173,0.044c-0.006,0.195-0.013,0.39-0.022,0.585c-0.009,0.195-0.013,0.39-0.013,0.585l-0.052,0.044
					C47.901,17.148,47.743,17.075,47.564,17.075z"/>
				<path style="fill:#002D73;" d="M48.622,23.578c0.009-0.366,0.013-0.729,0.013-1.09c0-0.341-0.001-0.712-0.004-1.112
					c-0.003-0.4-0.007-0.805-0.013-1.214c0.144,0.049,0.265,0.073,0.363,0.073c0.092,0,0.21-0.024,0.354-0.073
					c-0.029,0.585-0.05,1.227-0.065,1.924c-0.014,0.698-0.022,1.412-0.022,2.143c0,0.507,0.026,0.895,0.078,1.163
					c0.052,0.268,0.115,0.471,0.19,0.607c0.081,0.156,0.183,0.285,0.307,0.388c0.124,0.102,0.269,0.154,0.436,0.154
					c0.242,0,0.443-0.09,0.604-0.271c0.161-0.18,0.279-0.402,0.354-0.666c0.04-0.166,0.072-0.307,0.095-0.424
					c0.023-0.117,0.042-0.273,0.056-0.468c0.014-0.195,0.023-0.458,0.026-0.79c0.003-0.331,0.004-0.785,0.004-1.361v-1.229
					c0-0.214-0.001-0.419-0.004-0.614c-0.003-0.195-0.007-0.38-0.013-0.556c0.063,0.02,0.124,0.036,0.181,0.051
					c0.057,0.015,0.118,0.022,0.181,0.022c0.063,0,0.124-0.007,0.181-0.022c0.057-0.015,0.115-0.032,0.173-0.051
					c-0.029,0.761-0.046,1.495-0.052,2.202c-0.006,0.707-0.009,1.456-0.009,2.246c0,0.439,0.003,0.868,0.009,1.288
					c0.006,0.419,0.014,0.824,0.026,1.214c-0.115-0.02-0.227-0.029-0.337-0.029c-0.109,0-0.222,0.01-0.337,0.029
					c0.006-0.088,0.01-0.18,0.013-0.278c0.003-0.097,0.004-0.2,0.004-0.307v-0.629h-0.017c-0.15,0.468-0.343,0.812-0.578,1.031
					c-0.236,0.219-0.492,0.329-0.768,0.329c-0.449,0-0.801-0.202-1.057-0.607c-0.256-0.405-0.384-0.988-0.384-1.748
					C48.609,24.386,48.613,23.944,48.622,23.578z"/>
				<path style="fill:#002D73;" d="M55.217,21.201c-0.084-0.049-0.168-0.073-0.255-0.073c-0.138,0-0.262,0.054-0.371,0.161
					c-0.109,0.107-0.201,0.251-0.276,0.432c-0.075,0.181-0.132,0.395-0.173,0.644c-0.04,0.249-0.061,0.515-0.061,0.797v1.609
					c0,0.654,0.001,1.154,0.004,1.5c0.003,0.346,0.013,0.627,0.03,0.841c-0.115-0.02-0.23-0.029-0.345-0.029
					c-0.127,0-0.248,0.01-0.363,0.029c0.017-0.331,0.027-0.783,0.03-1.353c0.003-0.57,0.004-1.27,0.004-2.1v-0.468
					c0-0.38-0.001-0.819-0.004-1.317c-0.003-0.497-0.013-1.068-0.03-1.712c0.063,0.02,0.124,0.036,0.181,0.051
					c0.057,0.015,0.118,0.022,0.181,0.022c0.052,0,0.106-0.007,0.164-0.022c0.057-0.015,0.118-0.032,0.181-0.051
					c-0.023,0.351-0.036,0.629-0.039,0.834c-0.003,0.205-0.004,0.4-0.004,0.585l0.017,0.015c0.339-1.053,0.719-1.58,1.139-1.58
					c0.052,0,0.096,0.005,0.134,0.015c0.037,0.01,0.085,0.034,0.142,0.073c-0.029,0.117-0.046,0.295-0.052,0.534
					c-0.006,0.239-0.009,0.456-0.009,0.651l-0.061,0.073C55.356,21.303,55.3,21.25,55.217,21.201z"/>
				<path style="fill:#002D73;" d="M56.115,21.969c0.124-0.463,0.286-0.839,0.488-1.126c0.201-0.288,0.427-0.497,0.678-0.629
					c0.25-0.132,0.499-0.198,0.747-0.198c0.253,0,0.503,0.066,0.751,0.198c0.247,0.132,0.472,0.341,0.673,0.629
					c0.201,0.288,0.364,0.663,0.488,1.126c0.124,0.463,0.186,1.027,0.186,1.69c0,0.663-0.062,1.227-0.186,1.69
					c-0.124,0.463-0.286,0.839-0.488,1.127c-0.201,0.288-0.426,0.49-0.673,0.607c-0.248,0.117-0.498,0.175-0.751,0.175
					c-0.248,0-0.496-0.058-0.747-0.175c-0.25-0.117-0.476-0.319-0.678-0.607c-0.202-0.288-0.364-0.663-0.488-1.127
					c-0.124-0.463-0.186-1.026-0.186-1.69C55.929,22.996,55.991,22.432,56.115,21.969z M56.753,24.844
					c0.043,0.38,0.117,0.719,0.22,1.017c0.104,0.298,0.242,0.534,0.414,0.71c0.173,0.176,0.386,0.263,0.639,0.263
					c0.253,0,0.466-0.088,0.639-0.263c0.173-0.176,0.311-0.412,0.414-0.71c0.104-0.297,0.177-0.636,0.22-1.017
					c0.043-0.38,0.065-0.775,0.065-1.185c0-0.41-0.022-0.805-0.065-1.185c-0.043-0.38-0.116-0.719-0.22-1.017
					c-0.104-0.297-0.242-0.534-0.414-0.71c-0.173-0.176-0.386-0.263-0.639-0.263c-0.253,0-0.466,0.088-0.639,0.263
					c-0.173,0.176-0.311,0.412-0.414,0.71c-0.103,0.298-0.177,0.636-0.22,1.017c-0.043,0.38-0.065,0.776-0.065,1.185
					C56.689,24.069,56.71,24.464,56.753,24.844z"/>
				<path style="fill:#002D73;" d="M61.877,20.191c0.219-0.117,0.443-0.176,0.673-0.176c0.207,0,0.397,0.051,0.57,0.154
					c0.173,0.102,0.321,0.249,0.443,0.439c0.123,0.19,0.219,0.419,0.289,0.688c0.07,0.268,0.105,0.563,0.105,0.885
					c0,0.556-0.006,1.11-0.017,1.661c-0.012,0.551-0.017,1.134-0.017,1.748c0,0.117,0.001,0.242,0.004,0.373
					c0.003,0.132,0.016,0.249,0.039,0.351c0.023,0.102,0.056,0.188,0.099,0.256c0.043,0.068,0.108,0.102,0.194,0.102
					c0.029,0,0.059-0.002,0.091-0.007c0.032-0.005,0.062-0.022,0.091-0.051v0.322c-0.063,0.049-0.142,0.088-0.237,0.117
					c-0.095,0.029-0.2,0.044-0.315,0.044c-0.187,0-0.33-0.08-0.429-0.241c-0.099-0.161-0.157-0.368-0.175-0.622
					c-0.206,0.351-0.41,0.61-0.611,0.775c-0.201,0.166-0.447,0.249-0.74,0.249c-0.143,0-0.284-0.034-0.422-0.102
					c-0.138-0.068-0.259-0.18-0.365-0.337c-0.106-0.156-0.192-0.344-0.258-0.563c-0.066-0.219-0.099-0.471-0.099-0.754
					c0-0.585,0.108-1.039,0.323-1.361c0.215-0.322,0.512-0.536,0.89-0.644c0.31-0.088,0.552-0.163,0.727-0.227
					c0.175-0.063,0.304-0.129,0.387-0.198c0.083-0.068,0.133-0.149,0.151-0.241c0.017-0.093,0.026-0.212,0.026-0.359
					c0-0.244-0.017-0.478-0.052-0.702c-0.035-0.224-0.089-0.419-0.164-0.585c-0.075-0.166-0.173-0.3-0.293-0.402
					c-0.121-0.102-0.268-0.154-0.44-0.154c-0.23,0-0.445,0.088-0.643,0.263c-0.199,0.176-0.347,0.419-0.445,0.732H61.16v-0.761
					C61.419,20.533,61.658,20.308,61.877,20.191z M62.953,23.615c-0.129,0.039-0.259,0.08-0.391,0.124
					c-0.132,0.044-0.262,0.1-0.391,0.168c-0.129,0.068-0.244,0.161-0.344,0.278c-0.1,0.117-0.18,0.263-0.24,0.439
					c-0.06,0.176-0.09,0.4-0.09,0.673c0,0.459,0.077,0.805,0.232,1.039c0.155,0.234,0.326,0.351,0.515,0.351
					c0.218,0,0.417-0.102,0.597-0.307c0.18-0.205,0.319-0.444,0.417-0.717l0.034-2.195C63.195,23.527,63.082,23.576,62.953,23.615z"
					/>
				<path style="fill:#002D73;" d="M66.184,18.202c-0.017,0.371-0.03,0.734-0.039,1.09c-0.009,0.356-0.019,0.715-0.03,1.075
					c0.063,0,0.181-0.002,0.354-0.007c0.173-0.005,0.36-0.017,0.561-0.037c-0.006,0.029-0.009,0.083-0.009,0.161v0.146v0.161
					c0,0.068,0.003,0.117,0.009,0.146c-0.075-0.01-0.153-0.017-0.233-0.022c-0.081-0.005-0.167-0.007-0.259-0.007h-0.423
					c-0.006,0.039-0.013,0.195-0.022,0.468c-0.009,0.273-0.016,0.597-0.022,0.973c-0.006,0.376-0.01,0.768-0.013,1.178
					c-0.003,0.41-0.004,0.776-0.004,1.097c0,0.273,0.004,0.541,0.013,0.805c0.009,0.263,0.036,0.5,0.082,0.71
					c0.046,0.21,0.115,0.378,0.207,0.505c0.092,0.127,0.225,0.19,0.397,0.19c0.046,0,0.108-0.01,0.186-0.029
					c0.078-0.019,0.145-0.044,0.203-0.073v0.351c-0.098,0.029-0.206,0.066-0.324,0.11c-0.118,0.044-0.232,0.066-0.341,0.066
					c-0.363,0-0.63-0.151-0.803-0.453c-0.173-0.302-0.259-0.746-0.259-1.332c0-0.263,0.003-0.549,0.009-0.856
					c0.006-0.307,0.013-0.644,0.022-1.01c0.009-0.366,0.016-0.77,0.022-1.214c0.006-0.444,0.009-0.939,0.009-1.485H65.2
					c-0.046,0-0.095,0.003-0.147,0.007c-0.052,0.005-0.107,0.012-0.164,0.022c0.006-0.058,0.01-0.115,0.013-0.168
					c0.003-0.053,0.004-0.11,0.004-0.168c0-0.049-0.001-0.097-0.004-0.146c-0.003-0.049-0.007-0.097-0.013-0.146
					c0.259,0.029,0.449,0.044,0.57,0.044c-0.006-0.195-0.01-0.439-0.013-0.732c-0.003-0.293-0.01-0.595-0.022-0.907l0.716-0.512
					H66.184z"/>
				<path style="fill:#002D73;" d="M67.949,21.04c0.337-0.683,0.827-1.024,1.472-1.024c0.305,0,0.568,0.081,0.79,0.241
					c0.221,0.161,0.407,0.376,0.557,0.644c0.15,0.268,0.26,0.583,0.332,0.944c0.072,0.361,0.108,0.746,0.108,1.156
					c0,0.098-0.001,0.193-0.004,0.285c-0.003,0.093-0.007,0.188-0.013,0.285c-0.311-0.01-0.619-0.019-0.924-0.029
					c-0.305-0.01-0.613-0.015-0.924-0.015c-0.19,0-0.378,0.005-0.565,0.015c-0.187,0.01-0.376,0.02-0.565,0.029
					c-0.006,0.049-0.009,0.122-0.009,0.219v0.19c0,0.38,0.033,0.737,0.099,1.068c0.066,0.332,0.163,0.617,0.289,0.856
					c0.127,0.239,0.282,0.429,0.466,0.57c0.184,0.142,0.397,0.212,0.639,0.212c0.115,0,0.233-0.027,0.354-0.081
					c0.121-0.053,0.239-0.127,0.354-0.219c0.115-0.093,0.223-0.202,0.324-0.329c0.101-0.127,0.188-0.263,0.263-0.41l0.043,0.044
					l-0.052,0.717c-0.173,0.234-0.387,0.434-0.643,0.6c-0.256,0.166-0.522,0.249-0.799,0.249c-0.311,0-0.594-0.08-0.85-0.241
					c-0.256-0.161-0.478-0.395-0.665-0.702c-0.187-0.307-0.331-0.671-0.432-1.09c-0.101-0.419-0.151-0.873-0.151-1.361
					C67.444,22.664,67.613,21.723,67.949,21.04z M68.899,20.733c-0.147,0.166-0.268,0.373-0.363,0.622
					c-0.095,0.249-0.167,0.522-0.216,0.819c-0.049,0.298-0.079,0.578-0.091,0.841c0.178,0.01,0.364,0.02,0.557,0.029
					c0.193,0.01,0.381,0.015,0.565,0.015c0.19,0,0.383-0.005,0.578-0.015c0.196-0.01,0.386-0.019,0.57-0.029
					c0-0.263-0.013-0.541-0.039-0.834c-0.026-0.293-0.078-0.566-0.155-0.819c-0.078-0.254-0.186-0.463-0.324-0.629
					c-0.138-0.166-0.319-0.249-0.544-0.249C69.225,20.484,69.046,20.567,68.899,20.733z"/>
			</g>
			<g>
				<path style="fill:#002D73;" d="M73.894,19.153c-0.063-0.195-0.15-0.351-0.259-0.468v-0.102c0.328-0.224,0.663-0.47,1.006-0.739
					c0.342-0.268,0.663-0.529,0.962-0.783l0.061,0.073c-0.023,0.644-0.04,1.28-0.052,1.909c-0.012,0.629-0.017,1.266-0.017,1.909
					v2.443c0,0.644,0.006,1.275,0.017,1.895c0.012,0.62,0.029,1.227,0.052,1.822c-0.069-0.02-0.137-0.029-0.203-0.029
					c-0.066,0-0.134,0-0.203,0c-0.069,0-0.137,0-0.203,0c-0.066,0-0.134,0.01-0.203,0.029c0.029-0.605,0.048-1.214,0.056-1.829
					c0.009-0.614,0.013-1.244,0.013-1.887v-5.209L73.894,19.153z"/>
			</g>
			<g>
				<path style="fill:#002D73;" d="M77.027,20.195c0.069-0.622,0.183-1.164,0.341-1.627c0.158-0.463,0.367-0.831,0.626-1.104
					c0.259-0.274,0.575-0.41,0.95-0.41c0.414,0,0.752,0.137,1.014,0.41c0.262,0.274,0.467,0.642,0.617,1.104
					c0.15,0.463,0.252,1.005,0.307,1.627c0.055,0.622,0.082,1.286,0.082,1.992c0,0.687-0.04,1.338-0.121,1.955
					c-0.081,0.617-0.203,1.159-0.367,1.627c-0.164,0.468-0.373,0.836-0.626,1.104c-0.253,0.268-0.555,0.403-0.906,0.403
					c-0.414,0-0.752-0.129-1.014-0.388c-0.262-0.259-0.468-0.619-0.617-1.082c-0.15-0.463-0.252-1.005-0.306-1.627
					c-0.055-0.622-0.082-1.286-0.082-1.992C76.923,21.481,76.958,20.817,77.027,20.195z M77.696,24.023
					c0.043,0.567,0.117,1.06,0.22,1.477c0.104,0.418,0.239,0.746,0.406,0.985c0.167,0.239,0.374,0.358,0.622,0.358
					c0.247,0,0.455-0.119,0.622-0.358c0.167-0.239,0.302-0.567,0.406-0.985c0.103-0.418,0.177-0.91,0.22-1.477
					c0.043-0.567,0.065-1.179,0.065-1.836c0-0.657-0.022-1.269-0.065-1.836s-0.117-1.06-0.22-1.477
					c-0.104-0.418-0.239-0.746-0.406-0.985c-0.167-0.239-0.374-0.358-0.622-0.358c-0.248,0-0.455,0.11-0.622,0.328
					c-0.167,0.219-0.302,0.532-0.406,0.94c-0.104,0.408-0.177,0.898-0.22,1.47c-0.043,0.572-0.065,1.211-0.065,1.918
					C77.631,22.844,77.653,23.456,77.696,24.023z"/>
			</g>
			<g>
				<path style="fill:#002D73;" d="M82.172,20.195c0.069-0.622,0.183-1.164,0.341-1.627c0.158-0.463,0.367-0.831,0.626-1.104
					c0.259-0.274,0.575-0.41,0.95-0.41c0.414,0,0.752,0.137,1.014,0.41c0.262,0.274,0.467,0.642,0.617,1.104
					c0.15,0.463,0.252,1.005,0.307,1.627c0.055,0.622,0.082,1.286,0.082,1.992c0,0.687-0.04,1.338-0.121,1.955
					c-0.081,0.617-0.203,1.159-0.367,1.627c-0.164,0.468-0.373,0.836-0.626,1.104c-0.253,0.268-0.555,0.403-0.906,0.403
					c-0.414,0-0.753-0.129-1.014-0.388c-0.262-0.259-0.468-0.619-0.617-1.082c-0.15-0.463-0.252-1.005-0.306-1.627
					c-0.055-0.622-0.082-1.286-0.082-1.992C82.068,21.481,82.103,20.817,82.172,20.195z M82.841,24.023
					c0.043,0.567,0.117,1.06,0.22,1.477c0.104,0.418,0.239,0.746,0.406,0.985c0.167,0.239,0.374,0.358,0.622,0.358
					c0.247,0,0.455-0.119,0.622-0.358c0.167-0.239,0.302-0.567,0.406-0.985c0.103-0.418,0.177-0.91,0.22-1.477
					c0.043-0.567,0.065-1.179,0.065-1.836c0-0.657-0.022-1.269-0.065-1.836c-0.043-0.567-0.117-1.06-0.22-1.477
					c-0.104-0.418-0.239-0.746-0.406-0.985c-0.167-0.239-0.374-0.358-0.622-0.358c-0.248,0-0.455,0.11-0.622,0.328
					c-0.167,0.219-0.302,0.532-0.406,0.94c-0.104,0.408-0.177,0.898-0.22,1.47c-0.043,0.572-0.065,1.211-0.065,1.918
					C82.776,22.844,82.797,23.456,82.841,24.023z"/>
			</g>
			<g>
				<path style="fill:#002D73;" d="M89.073,21.516c-0.009-0.483-0.027-0.934-0.056-1.353c0.161,0.049,0.291,0.073,0.389,0.073
					c0.046,0,0.096-0.007,0.151-0.022c0.055-0.015,0.119-0.032,0.194-0.051c-0.017,0.39-0.026,0.78-0.026,1.17h0.017
					c0.304-0.878,0.731-1.317,1.282-1.317c0.143,0,0.284,0.037,0.422,0.11c0.138,0.073,0.262,0.173,0.374,0.3
					c0.112,0.127,0.208,0.28,0.288,0.461c0.08,0.181,0.135,0.373,0.163,0.578h0.017c0.139-0.468,0.328-0.827,0.567-1.075
					c0.24-0.249,0.515-0.373,0.827-0.373c0.191,0,0.367,0.044,0.528,0.132c0.162,0.088,0.301,0.224,0.42,0.41
					c0.118,0.185,0.211,0.424,0.277,0.717c0.066,0.293,0.1,0.644,0.1,1.053c0,0.166-0.003,0.346-0.009,0.541
					c-0.006,0.195-0.012,0.422-0.017,0.68c-0.006,0.258-0.012,0.551-0.017,0.878c-0.006,0.327-0.009,0.705-0.009,1.134
					c0,0.263,0.001,0.517,0.004,0.761c0.003,0.244,0.01,0.507,0.022,0.79c-0.063-0.02-0.127-0.029-0.19-0.029
					c-0.063,0-0.124,0-0.181,0c-0.063,0-0.127,0-0.19,0c-0.063,0-0.127,0.01-0.19,0.029c0.017-0.244,0.036-0.736,0.056-1.478
					c0.02-0.741,0.03-1.775,0.03-3.102c0-0.244-0.016-0.473-0.048-0.688c-0.032-0.214-0.082-0.4-0.152-0.556
					c-0.069-0.156-0.162-0.28-0.278-0.373c-0.116-0.093-0.26-0.139-0.433-0.139c-0.208,0-0.384,0.068-0.529,0.205
					c-0.145,0.137-0.257,0.298-0.338,0.483c-0.046,0.107-0.082,0.215-0.108,0.322c-0.026,0.107-0.046,0.271-0.061,0.49
					c-0.014,0.219-0.025,0.527-0.03,0.922c-0.006,0.395-0.009,0.939-0.009,1.631c0,0.419,0.004,0.802,0.013,1.149
					c0.009,0.346,0.019,0.724,0.03,1.134c-0.131-0.02-0.256-0.029-0.376-0.029c-0.12,0-0.245,0.01-0.375,0.029
					c0.025-0.536,0.043-1.083,0.054-1.639c0.01-0.556,0.015-1.102,0.015-1.639c0-0.458-0.001-0.817-0.004-1.075
					c-0.003-0.258-0.01-0.463-0.022-0.614c-0.012-0.151-0.027-0.275-0.047-0.373c-0.02-0.097-0.047-0.205-0.082-0.322
					c-0.063-0.185-0.162-0.344-0.297-0.475c-0.135-0.132-0.274-0.197-0.417-0.197c-0.378,0-0.656,0.21-0.834,0.629
					c-0.178,0.419-0.266,1.01-0.266,1.77v1.244c0,0.439,0.004,0.9,0.013,1.383c0.009,0.483,0.027,0.919,0.056,1.309
					c-0.132-0.02-0.262-0.029-0.388-0.029c-0.127,0-0.256,0.01-0.389,0.029c0.029-0.39,0.047-0.827,0.056-1.309
					c0.009-0.483,0.013-0.944,0.013-1.383v-1.522C89.086,22.459,89.082,21.998,89.073,21.516z"/>
				<path style="fill:#002D73;" d="M96.156,22.02c0.126-0.458,0.292-0.836,0.496-1.134c0.204-0.297,0.439-0.517,0.703-0.658
					c0.265-0.141,0.535-0.212,0.811-0.212c0.316,0,0.6,0.066,0.85,0.198c0.25,0.132,0.43,0.28,0.539,0.446
					c-0.04,0.146-0.076,0.3-0.108,0.461c-0.032,0.161-0.059,0.329-0.082,0.505h-0.069c-0.04-0.127-0.095-0.256-0.164-0.388
					c-0.069-0.132-0.151-0.253-0.246-0.366c-0.095-0.112-0.2-0.205-0.315-0.278c-0.115-0.073-0.242-0.11-0.38-0.11
					c-0.259,0-0.482,0.08-0.669,0.242c-0.187,0.161-0.34,0.383-0.457,0.666c-0.118,0.283-0.204,0.617-0.259,1.002
					c-0.055,0.385-0.082,0.802-0.082,1.251c0,1.005,0.127,1.763,0.38,2.275c0.253,0.512,0.624,0.768,1.114,0.768
					c0.115,0,0.233-0.027,0.354-0.081c0.121-0.053,0.239-0.127,0.354-0.219c0.115-0.093,0.223-0.202,0.324-0.329
					c0.101-0.127,0.188-0.263,0.263-0.41l0.043,0.044c-0.029,0.234-0.046,0.473-0.052,0.717c-0.173,0.234-0.387,0.434-0.643,0.6
					c-0.256,0.166-0.522,0.249-0.798,0.249c-0.248,0-0.496-0.061-0.747-0.183c-0.25-0.122-0.476-0.327-0.678-0.614
					c-0.201-0.288-0.364-0.661-0.488-1.119c-0.124-0.458-0.186-1.019-0.186-1.683C95.966,23.025,96.029,22.479,96.156,22.02z"/>
				<path style="fill:#002D73;" d="M100.481,21.34c0.086-0.297,0.206-0.544,0.358-0.739c0.152-0.195,0.328-0.341,0.527-0.439
					c0.198-0.097,0.41-0.146,0.634-0.146c0.109,0,0.214,0.005,0.315,0.015c0.101,0.01,0.229,0.024,0.384,0.044
					c0.132,0.02,0.25,0.034,0.354,0.044c0.104,0.01,0.187,0.015,0.25,0.015c0.322,0,0.555-0.024,0.699-0.073
					c-0.006,0.049-0.01,0.1-0.013,0.154c-0.003,0.054-0.004,0.105-0.004,0.154c0,0.049,0.001,0.1,0.004,0.154
					c0.003,0.054,0.007,0.105,0.013,0.154c-0.167-0.019-0.329-0.041-0.488-0.066c-0.158-0.024-0.315-0.041-0.471-0.051l-0.017,0.029
					c0.178,0.166,0.322,0.422,0.432,0.768c0.109,0.346,0.164,0.705,0.164,1.075c0,0.732-0.146,1.305-0.436,1.719
					c-0.291,0.415-0.681,0.622-1.17,0.622c-0.081,0-0.16-0.005-0.237-0.015c-0.078-0.01-0.157-0.015-0.238-0.015
					c-0.104,0-0.2,0.064-0.289,0.19c-0.089,0.127-0.134,0.288-0.134,0.483c0,0.254,0.036,0.439,0.108,0.556
					c0.072,0.117,0.206,0.181,0.401,0.19c0.161,0.01,0.319,0.017,0.475,0.022c0.155,0.005,0.314,0.012,0.475,0.022
					c0.265,0.01,0.491,0.063,0.678,0.161c0.187,0.098,0.339,0.229,0.458,0.395c0.118,0.166,0.204,0.356,0.259,0.571
					c0.055,0.214,0.082,0.449,0.082,0.702c0,0.341-0.039,0.688-0.117,1.039c-0.078,0.351-0.199,0.668-0.363,0.951
					c-0.164,0.283-0.376,0.517-0.635,0.702c-0.259,0.185-0.569,0.278-0.932,0.278c-0.558,0-0.998-0.188-1.321-0.563
					c-0.322-0.376-0.483-0.89-0.483-1.544c0-0.254,0.027-0.488,0.082-0.702c0.055-0.215,0.125-0.405,0.211-0.57
					c0.086-0.166,0.184-0.298,0.294-0.395c0.109-0.098,0.222-0.17,0.337-0.219V26.98c-0.178-0.088-0.314-0.234-0.406-0.439
					c-0.092-0.205-0.138-0.448-0.138-0.732c0-0.166,0.019-0.317,0.056-0.454c0.037-0.136,0.085-0.258,0.142-0.366
					c0.058-0.107,0.124-0.195,0.198-0.263c0.075-0.068,0.147-0.112,0.216-0.132v-0.029c-0.265-0.195-0.472-0.471-0.622-0.827
					c-0.15-0.356-0.225-0.802-0.225-1.339C100.351,21.991,100.394,21.638,100.481,21.34z M103.113,27.434
					c-0.201-0.234-0.535-0.351-1.001-0.351c-0.432,0-0.765,0.119-1.001,0.359c-0.236,0.239-0.354,0.67-0.354,1.295
					c0,0.332,0.033,0.614,0.099,0.849c0.066,0.234,0.155,0.424,0.268,0.571c0.112,0.146,0.246,0.254,0.402,0.322
					c0.155,0.068,0.322,0.102,0.501,0.102c0.173,0,0.342-0.039,0.509-0.117c0.167-0.078,0.315-0.195,0.445-0.351
					c0.13-0.156,0.234-0.354,0.315-0.593c0.081-0.239,0.121-0.524,0.121-0.856C103.416,28.077,103.315,27.668,103.113,27.434z
					 M102.69,20.923c-0.172-0.322-0.4-0.483-0.682-0.483c-0.311,0-0.552,0.178-0.725,0.534c-0.172,0.356-0.259,0.832-0.259,1.426
					c0,0.615,0.079,1.1,0.237,1.456c0.158,0.356,0.404,0.534,0.738,0.534c0.167,0,0.309-0.056,0.427-0.168
					c0.118-0.112,0.216-0.263,0.293-0.453c0.078-0.19,0.135-0.41,0.173-0.658c0.037-0.249,0.056-0.51,0.056-0.783
					C102.95,21.713,102.863,21.245,102.69,20.923z"/>
			</g>
			<g>
				<path style="fill:#002D73;" d="M107.519,20.191c0.218-0.117,0.443-0.176,0.673-0.176c0.207,0,0.397,0.051,0.57,0.154
					c0.173,0.102,0.321,0.249,0.443,0.439c0.122,0.19,0.218,0.419,0.288,0.688c0.07,0.268,0.105,0.563,0.105,0.885
					c0,0.556-0.006,1.11-0.017,1.661c-0.011,0.551-0.017,1.134-0.017,1.748c0,0.117,0.001,0.242,0.004,0.373
					c0.003,0.132,0.016,0.249,0.039,0.351c0.023,0.102,0.056,0.188,0.099,0.256c0.043,0.068,0.108,0.102,0.194,0.102
					c0.029,0,0.059-0.002,0.091-0.007c0.032-0.005,0.062-0.022,0.091-0.051v0.322c-0.063,0.049-0.142,0.088-0.237,0.117
					c-0.095,0.029-0.2,0.044-0.315,0.044c-0.187,0-0.33-0.08-0.429-0.241c-0.099-0.161-0.157-0.368-0.175-0.622
					c-0.207,0.351-0.41,0.61-0.611,0.775c-0.201,0.166-0.447,0.249-0.739,0.249c-0.143,0-0.284-0.034-0.422-0.102
					c-0.138-0.068-0.259-0.18-0.365-0.337c-0.106-0.156-0.192-0.344-0.258-0.563c-0.066-0.219-0.099-0.471-0.099-0.754
					c0-0.585,0.108-1.039,0.323-1.361c0.215-0.322,0.512-0.536,0.89-0.644c0.31-0.088,0.552-0.163,0.727-0.227
					c0.175-0.063,0.304-0.129,0.387-0.198c0.083-0.068,0.133-0.149,0.151-0.241c0.017-0.093,0.026-0.212,0.026-0.359
					c0-0.244-0.017-0.478-0.052-0.702c-0.035-0.224-0.089-0.419-0.164-0.585c-0.075-0.166-0.172-0.3-0.293-0.402
					c-0.121-0.102-0.267-0.154-0.44-0.154c-0.23,0-0.445,0.088-0.643,0.263c-0.198,0.176-0.347,0.419-0.445,0.732h-0.095v-0.761
					C107.061,20.533,107.3,20.308,107.519,20.191z M108.595,23.615c-0.129,0.039-0.259,0.08-0.391,0.124
					c-0.132,0.044-0.262,0.1-0.391,0.168c-0.129,0.068-0.244,0.161-0.344,0.278c-0.1,0.117-0.18,0.263-0.241,0.439
					c-0.06,0.176-0.09,0.4-0.09,0.673c0,0.459,0.077,0.805,0.232,1.039c0.155,0.234,0.327,0.351,0.515,0.351
					c0.218,0,0.417-0.102,0.597-0.307c0.18-0.205,0.319-0.444,0.416-0.717l0.035-2.195
					C108.837,23.527,108.724,23.576,108.595,23.615z"/>
			</g>
			<g>
				<path style="fill:#002D73;" d="M113.432,21.34c-0.167-0.375-0.397-0.563-0.691-0.563c-0.403,0-0.698,0.21-0.884,0.629
					c-0.187,0.419-0.281,1.01-0.281,1.77v1.244c0,0.439,0.004,0.9,0.013,1.383s0.027,0.919,0.056,1.309
					c-0.133-0.02-0.262-0.029-0.388-0.029c-0.127,0-0.256,0.01-0.388,0.029c0.028-0.39,0.047-0.827,0.056-1.309
					c0.008-0.483,0.013-0.944,0.013-1.383v-1.522c0-0.439-0.005-0.9-0.013-1.383c-0.009-0.483-0.028-0.934-0.056-1.353
					c0.161,0.049,0.29,0.073,0.388,0.073c0.046,0,0.097-0.007,0.151-0.022c0.055-0.015,0.12-0.032,0.194-0.051
					c-0.017,0.39-0.026,0.78-0.026,1.17h0.017c0.161-0.419,0.355-0.744,0.58-0.973c0.226-0.229,0.494-0.344,0.806-0.344
					c0.161,0,0.324,0.039,0.489,0.117c0.165,0.078,0.313,0.212,0.446,0.402c0.133,0.19,0.241,0.449,0.325,0.776
					c0.084,0.327,0.126,0.744,0.126,1.251c0,0.419-0.006,0.851-0.017,1.295c-0.012,0.444-0.017,0.914-0.017,1.412v0.951
					c0,0.156,0.001,0.31,0.004,0.461c0.003,0.151,0.007,0.295,0.013,0.432c-0.117-0.02-0.239-0.029-0.367-0.029
					c-0.122,0-0.242,0.01-0.358,0.029c0.011-0.507,0.024-1.029,0.039-1.565c0.014-0.536,0.022-1.088,0.022-1.653v-0.892
					C113.682,22.269,113.599,21.716,113.432,21.34z"/>
				<path style="fill:#002D73;" d="M118.585,25.722c-0.046,0.156-0.108,0.324-0.186,0.505c-0.078,0.181-0.175,0.349-0.293,0.505
					c-0.118,0.156-0.257,0.283-0.419,0.38c-0.161,0.097-0.348,0.146-0.561,0.146c-0.219,0-0.433-0.063-0.643-0.19
					c-0.21-0.127-0.397-0.334-0.561-0.622c-0.164-0.288-0.296-0.658-0.397-1.112c-0.101-0.454-0.151-0.997-0.151-1.631
					c0-0.624,0.055-1.165,0.164-1.624c0.11-0.458,0.252-0.841,0.427-1.149c0.175-0.307,0.374-0.536,0.596-0.688
					c0.221-0.151,0.445-0.227,0.669-0.227c0.639,0,1.082,0.488,1.329,1.463h0.017v-1.434c0-0.371-0.002-0.744-0.004-1.119
					c-0.003-0.375-0.006-0.734-0.009-1.075c-0.003-0.341-0.006-0.663-0.009-0.966c-0.003-0.302-0.007-0.571-0.013-0.805
					c0.069,0.02,0.135,0.037,0.199,0.051c0.063,0.015,0.126,0.022,0.19,0.022c0.063,0,0.125-0.007,0.186-0.022
					c0.06-0.015,0.128-0.032,0.203-0.051c-0.017,0.312-0.032,0.763-0.043,1.353c-0.012,0.59-0.022,1.241-0.03,1.953
					c-0.009,0.712-0.016,1.444-0.022,2.195c-0.006,0.751-0.009,1.439-0.009,2.063c0,0.673,0.003,1.278,0.009,1.814
					c0.006,0.537,0.012,1.088,0.017,1.653c-0.115-0.02-0.228-0.029-0.337-0.029c-0.104,0-0.213,0.01-0.328,0.029l0.026-1.39H118.585
					z M116.242,25.239c0.072,0.381,0.164,0.685,0.276,0.915c0.112,0.229,0.24,0.388,0.384,0.475
					c0.144,0.088,0.285,0.132,0.423,0.132c0.224,0,0.417-0.095,0.578-0.285c0.161-0.19,0.295-0.439,0.401-0.746
					c0.107-0.307,0.184-0.656,0.233-1.046c0.049-0.39,0.073-0.78,0.073-1.171c0-0.936-0.106-1.651-0.319-2.144
					c-0.213-0.492-0.526-0.739-0.941-0.739c-0.207,0-0.387,0.08-0.54,0.241c-0.153,0.161-0.279,0.385-0.38,0.673
					c-0.101,0.288-0.176,0.624-0.224,1.009c-0.049,0.386-0.073,0.798-0.073,1.236C116.134,24.376,116.17,24.859,116.242,25.239z"/>
			</g>
		</g>
		<g>
			<g>
				<path style="fill:#002D73;" d="M1.844,37.022c-0.268-1.151-0.56-2.317-0.876-3.497c0.075,0.02,0.147,0.036,0.216,0.051
					c0.069,0.015,0.141,0.022,0.216,0.022c0.063,0,0.126-0.007,0.19-0.022c0.063-0.015,0.126-0.032,0.19-0.051
					c0.178,0.966,0.372,1.914,0.583,2.846c0.21,0.932,0.445,1.885,0.703,2.86c0.115-0.4,0.229-0.831,0.341-1.295
					c0.112-0.463,0.225-0.944,0.337-1.441c0.112-0.498,0.222-0.997,0.328-1.5c0.106-0.502,0.211-0.992,0.315-1.47
					c0.104,0.049,0.193,0.073,0.268,0.073c0.075,0,0.164-0.024,0.268-0.073c-0.311,1.18-0.616,2.346-0.915,3.497
					c-0.299,1.151-0.573,2.302-0.82,3.453c-0.086-0.02-0.176-0.029-0.268-0.029c-0.092,0-0.184,0.01-0.276,0.029
					C2.378,39.324,2.112,38.173,1.844,37.022z"/>
				<path style="fill:#002D73;" d="M5.992,30.453c0.086-0.146,0.19-0.219,0.311-0.219c0.121,0,0.225,0.073,0.311,0.219
					c0.086,0.146,0.13,0.322,0.13,0.527c0,0.205-0.043,0.38-0.13,0.527c-0.086,0.146-0.19,0.219-0.311,0.219
					c-0.121,0-0.224-0.073-0.311-0.219c-0.086-0.146-0.13-0.322-0.13-0.527C5.862,30.774,5.906,30.599,5.992,30.453z M5.97,34.878
					c-0.009-0.483-0.027-0.934-0.056-1.353c0.161,0.049,0.291,0.073,0.389,0.073c0.098,0,0.227-0.024,0.388-0.073
					c-0.029,0.419-0.048,0.87-0.056,1.353c-0.009,0.483-0.013,0.944-0.013,1.383v1.522c0,0.439,0.004,0.9,0.013,1.383
					c0.009,0.483,0.027,0.919,0.056,1.309c-0.133-0.02-0.262-0.029-0.388-0.029c-0.127,0-0.256,0.01-0.389,0.029
					c0.029-0.39,0.048-0.827,0.056-1.309c0.009-0.483,0.013-0.944,0.013-1.383v-1.522C5.983,35.822,5.979,35.361,5.97,34.878z"/>
				<path style="fill:#002D73;" d="M8.379,32.574c-0.003-0.39-0.007-0.776-0.013-1.156c-0.006-0.38-0.013-0.744-0.022-1.09
					c-0.009-0.346-0.019-0.641-0.03-0.885c0.161,0.049,0.291,0.073,0.389,0.073c0.098,0,0.227-0.024,0.388-0.073
					c-0.012,0.244-0.022,0.539-0.03,0.885c-0.009,0.346-0.016,0.71-0.022,1.09c-0.006,0.38-0.01,0.766-0.013,1.156
					c-0.003,0.39-0.004,0.751-0.004,1.083v2.648c0,0.332,0.001,0.693,0.004,1.083c0.003,0.39,0.007,0.776,0.013,1.156
					c0.006,0.38,0.013,0.741,0.022,1.083c0.009,0.342,0.019,0.624,0.03,0.849c-0.133-0.02-0.262-0.029-0.388-0.029
					c-0.127,0-0.256,0.01-0.389,0.029c0.012-0.224,0.022-0.507,0.03-0.849c0.009-0.341,0.016-0.702,0.022-1.083
					c0.006-0.38,0.01-0.766,0.013-1.156c0.003-0.39,0.004-0.751,0.004-1.083v-2.648C8.383,33.325,8.382,32.964,8.379,32.574z"/>
				<path style="fill:#002D73;" d="M11.353,33.554c0.219-0.117,0.443-0.176,0.673-0.176c0.207,0,0.397,0.051,0.57,0.154
					c0.173,0.102,0.321,0.249,0.443,0.439c0.123,0.19,0.219,0.419,0.289,0.688c0.07,0.268,0.105,0.563,0.105,0.885
					c0,0.556-0.006,1.11-0.017,1.661c-0.012,0.551-0.017,1.134-0.017,1.748c0,0.117,0.001,0.242,0.004,0.373
					c0.003,0.132,0.016,0.249,0.039,0.351c0.023,0.102,0.056,0.188,0.099,0.256c0.043,0.068,0.108,0.102,0.194,0.102
					c0.029,0,0.059-0.002,0.091-0.007c0.032-0.005,0.062-0.022,0.091-0.051v0.322c-0.063,0.049-0.142,0.088-0.237,0.117
					c-0.095,0.029-0.2,0.044-0.315,0.044c-0.187,0-0.33-0.08-0.429-0.241c-0.099-0.161-0.157-0.368-0.175-0.622
					c-0.206,0.351-0.41,0.61-0.611,0.775c-0.201,0.166-0.447,0.249-0.74,0.249c-0.143,0-0.284-0.034-0.422-0.102
					c-0.138-0.068-0.259-0.18-0.365-0.337c-0.106-0.156-0.192-0.344-0.258-0.563c-0.066-0.219-0.099-0.471-0.099-0.754
					c0-0.585,0.108-1.039,0.323-1.361c0.215-0.322,0.512-0.536,0.89-0.644c0.31-0.088,0.552-0.163,0.727-0.227
					c0.175-0.063,0.304-0.129,0.387-0.197c0.083-0.068,0.133-0.149,0.151-0.241c0.017-0.093,0.026-0.212,0.026-0.359
					c0-0.244-0.017-0.478-0.052-0.702c-0.035-0.224-0.089-0.419-0.164-0.585c-0.075-0.166-0.173-0.3-0.293-0.402
					c-0.121-0.102-0.268-0.153-0.44-0.153c-0.23,0-0.445,0.088-0.643,0.263c-0.199,0.176-0.347,0.419-0.445,0.732h-0.095v-0.761
					C10.895,33.896,11.134,33.671,11.353,33.554z M12.429,36.978c-0.129,0.039-0.259,0.08-0.391,0.124
					c-0.132,0.044-0.262,0.1-0.391,0.168c-0.129,0.068-0.244,0.161-0.344,0.278c-0.1,0.117-0.18,0.263-0.24,0.439
					c-0.06,0.176-0.09,0.4-0.09,0.673c0,0.459,0.077,0.805,0.232,1.039c0.155,0.234,0.326,0.351,0.515,0.351
					c0.218,0,0.417-0.102,0.597-0.307c0.18-0.205,0.319-0.444,0.417-0.717l0.034-2.195C12.671,36.89,12.558,36.939,12.429,36.978z"
					/>
				<path style="fill:#002D73;" d="M17.438,34.703c-0.167-0.375-0.397-0.563-0.691-0.563c-0.403,0-0.698,0.21-0.885,0.629
					c-0.187,0.419-0.281,1.01-0.281,1.77v1.244c0,0.439,0.004,0.9,0.013,1.383c0.009,0.483,0.027,0.919,0.056,1.309
					c-0.132-0.02-0.262-0.029-0.389-0.029c-0.127,0-0.256,0.01-0.388,0.029c0.029-0.39,0.047-0.827,0.056-1.309
					c0.009-0.483,0.013-0.944,0.013-1.383v-1.522c0-0.439-0.004-0.9-0.013-1.383c-0.009-0.483-0.027-0.934-0.056-1.353
					c0.161,0.049,0.291,0.073,0.388,0.073c0.046,0,0.096-0.007,0.151-0.022c0.055-0.015,0.119-0.032,0.194-0.051
					c-0.017,0.39-0.026,0.78-0.026,1.17H15.6c0.162-0.419,0.355-0.744,0.58-0.973c0.225-0.229,0.494-0.344,0.805-0.344
					c0.161,0,0.325,0.039,0.489,0.117c0.165,0.078,0.313,0.212,0.446,0.402c0.133,0.19,0.241,0.449,0.325,0.776
					c0.084,0.327,0.126,0.744,0.126,1.251c0,0.419-0.006,0.851-0.017,1.295c-0.012,0.444-0.017,0.914-0.017,1.412v0.951
					c0,0.156,0.001,0.31,0.004,0.461c0.003,0.151,0.007,0.295,0.013,0.432c-0.116-0.02-0.239-0.029-0.367-0.029
					c-0.123,0-0.242,0.01-0.358,0.029c0.011-0.507,0.024-1.029,0.039-1.565c0.014-0.536,0.022-1.088,0.022-1.653v-0.892
					C17.689,35.632,17.605,35.078,17.438,34.703z"/>
				<path style="fill:#002D73;" d="M20.46,31.564c-0.017,0.371-0.03,0.734-0.039,1.09c-0.009,0.356-0.019,0.715-0.03,1.075
					c0.063,0,0.181-0.002,0.354-0.007c0.173-0.005,0.36-0.017,0.561-0.037c-0.006,0.029-0.009,0.083-0.009,0.161v0.146v0.161
					c0,0.068,0.003,0.117,0.009,0.146c-0.075-0.01-0.153-0.017-0.233-0.022c-0.081-0.005-0.167-0.007-0.259-0.007H20.39
					c-0.006,0.039-0.013,0.195-0.022,0.468c-0.009,0.273-0.016,0.597-0.022,0.973c-0.006,0.376-0.01,0.768-0.013,1.178
					c-0.003,0.41-0.004,0.776-0.004,1.097c0,0.273,0.004,0.541,0.013,0.805c0.009,0.263,0.036,0.5,0.082,0.71
					c0.046,0.21,0.115,0.378,0.207,0.505c0.092,0.127,0.225,0.19,0.397,0.19c0.046,0,0.108-0.01,0.186-0.029
					c0.078-0.019,0.145-0.044,0.203-0.073v0.351c-0.098,0.029-0.206,0.066-0.324,0.11c-0.118,0.044-0.232,0.066-0.341,0.066
					c-0.363,0-0.63-0.151-0.803-0.453c-0.173-0.302-0.259-0.746-0.259-1.332c0-0.263,0.003-0.549,0.009-0.856
					c0.006-0.307,0.013-0.644,0.022-1.01c0.009-0.366,0.016-0.77,0.022-1.214c0.006-0.444,0.009-0.939,0.009-1.485h-0.276
					c-0.046,0-0.095,0.003-0.147,0.007c-0.052,0.005-0.107,0.012-0.164,0.022c0.006-0.058,0.01-0.115,0.013-0.168
					c0.003-0.053,0.004-0.11,0.004-0.168c0-0.049-0.001-0.097-0.004-0.146c-0.003-0.049-0.007-0.097-0.013-0.146
					c0.259,0.029,0.449,0.044,0.57,0.044c-0.006-0.195-0.01-0.439-0.013-0.732c-0.003-0.293-0.01-0.595-0.022-0.907l0.716-0.512
					H20.46z"/>
				<path style="fill:#002D73;" d="M22.225,34.403c0.337-0.683,0.827-1.024,1.472-1.024c0.305,0,0.568,0.081,0.79,0.241
					c0.221,0.161,0.407,0.376,0.557,0.644c0.15,0.268,0.26,0.583,0.332,0.944c0.072,0.361,0.108,0.746,0.108,1.156
					c0,0.098-0.001,0.193-0.004,0.285c-0.003,0.093-0.007,0.188-0.013,0.285c-0.311-0.01-0.619-0.019-0.924-0.029
					c-0.305-0.01-0.613-0.015-0.924-0.015c-0.19,0-0.378,0.005-0.565,0.015c-0.187,0.01-0.376,0.02-0.565,0.029
					c-0.006,0.049-0.009,0.122-0.009,0.219v0.19c0,0.38,0.033,0.737,0.099,1.068c0.066,0.332,0.163,0.617,0.289,0.856
					c0.127,0.239,0.282,0.429,0.466,0.57c0.184,0.142,0.397,0.212,0.639,0.212c0.115,0,0.233-0.027,0.354-0.081
					c0.121-0.053,0.239-0.127,0.354-0.219c0.115-0.093,0.223-0.202,0.324-0.329c0.101-0.127,0.188-0.263,0.263-0.41l0.043,0.044
					l-0.052,0.717c-0.173,0.234-0.387,0.434-0.643,0.6c-0.256,0.166-0.522,0.249-0.799,0.249c-0.311,0-0.594-0.08-0.85-0.241
					c-0.256-0.161-0.478-0.395-0.665-0.702c-0.187-0.307-0.331-0.671-0.432-1.09c-0.101-0.419-0.151-0.873-0.151-1.361
					C21.72,36.027,21.888,35.086,22.225,34.403z M23.174,34.096c-0.147,0.166-0.268,0.373-0.363,0.622
					c-0.095,0.249-0.167,0.522-0.216,0.819c-0.049,0.298-0.079,0.578-0.091,0.841c0.178,0.01,0.364,0.02,0.557,0.029
					c0.193,0.01,0.381,0.015,0.565,0.015c0.19,0,0.383-0.005,0.578-0.015c0.196-0.01,0.386-0.019,0.57-0.029
					c0-0.263-0.013-0.541-0.039-0.834c-0.026-0.293-0.078-0.566-0.155-0.819c-0.078-0.254-0.186-0.463-0.324-0.629
					c-0.138-0.166-0.319-0.249-0.544-0.249C23.501,33.847,23.321,33.93,23.174,34.096z"/>
			</g>
			<g>
				<path style="fill:#002D73;" d="M28.199,34.564c-0.084-0.049-0.168-0.073-0.255-0.073c-0.138,0-0.262,0.054-0.371,0.161
					c-0.109,0.107-0.201,0.251-0.276,0.432c-0.075,0.181-0.132,0.395-0.173,0.644c-0.04,0.249-0.061,0.515-0.061,0.797v1.609
					c0,0.654,0.001,1.154,0.004,1.5c0.003,0.346,0.013,0.627,0.03,0.841c-0.115-0.02-0.23-0.029-0.345-0.029
					c-0.127,0-0.248,0.01-0.363,0.029c0.017-0.332,0.027-0.783,0.03-1.353c0.003-0.57,0.004-1.27,0.004-2.1v-0.468
					c0-0.38-0.001-0.819-0.004-1.317c-0.003-0.497-0.013-1.068-0.03-1.712c0.063,0.02,0.124,0.036,0.181,0.051
					c0.057,0.015,0.118,0.022,0.181,0.022c0.052,0,0.106-0.007,0.164-0.022c0.057-0.015,0.118-0.032,0.181-0.051
					c-0.023,0.351-0.036,0.629-0.039,0.834c-0.003,0.205-0.004,0.4-0.004,0.585l0.017,0.015c0.34-1.053,0.719-1.58,1.14-1.58
					c0.052,0,0.096,0.005,0.134,0.015c0.037,0.01,0.085,0.034,0.142,0.073c-0.029,0.117-0.046,0.295-0.052,0.534
					c-0.006,0.239-0.009,0.456-0.009,0.651l-0.061,0.073C28.338,34.666,28.282,34.613,28.199,34.564z"/>
			</g>
			<g>
				<path style="fill:#002D73;" d="M28.924,35.332c0.124-0.463,0.286-0.839,0.488-1.126c0.201-0.288,0.427-0.497,0.677-0.629
					c0.25-0.132,0.499-0.198,0.747-0.198c0.253,0,0.503,0.066,0.751,0.198c0.247,0.132,0.472,0.341,0.673,0.629
					c0.201,0.288,0.364,0.663,0.488,1.126c0.124,0.463,0.186,1.027,0.186,1.69c0,0.663-0.062,1.227-0.186,1.69
					c-0.124,0.463-0.286,0.839-0.488,1.126c-0.201,0.288-0.426,0.49-0.673,0.607c-0.248,0.117-0.498,0.176-0.751,0.176
					c-0.248,0-0.496-0.058-0.747-0.176s-0.476-0.319-0.677-0.607c-0.202-0.288-0.364-0.663-0.488-1.126
					c-0.124-0.463-0.186-1.026-0.186-1.69C28.738,36.359,28.8,35.795,28.924,35.332z M29.562,38.207
					c0.043,0.38,0.117,0.719,0.22,1.017c0.104,0.298,0.242,0.534,0.414,0.71c0.173,0.176,0.386,0.263,0.639,0.263
					c0.253,0,0.466-0.088,0.639-0.263c0.173-0.176,0.311-0.412,0.414-0.71c0.104-0.297,0.177-0.636,0.22-1.017
					c0.043-0.38,0.065-0.775,0.065-1.185c0-0.41-0.022-0.805-0.065-1.185c-0.043-0.38-0.116-0.719-0.22-1.017
					c-0.104-0.297-0.242-0.534-0.414-0.71c-0.173-0.176-0.386-0.263-0.639-0.263c-0.253,0-0.466,0.088-0.639,0.263
					c-0.173,0.176-0.311,0.412-0.414,0.71c-0.103,0.298-0.177,0.636-0.22,1.017c-0.043,0.38-0.065,0.776-0.065,1.185
					C29.498,37.432,29.519,37.827,29.562,38.207z"/>
			</g>
			<g>
				<path style="fill:#002D73;" d="M33.939,32.574c-0.003-0.39-0.007-0.776-0.013-1.156c-0.006-0.38-0.013-0.744-0.022-1.09
					c-0.009-0.346-0.019-0.641-0.03-0.885c0.161,0.049,0.291,0.073,0.388,0.073c0.098,0,0.227-0.024,0.389-0.073
					c-0.012,0.244-0.022,0.539-0.03,0.885c-0.009,0.346-0.016,0.71-0.022,1.09c-0.006,0.38-0.01,0.766-0.013,1.156
					c-0.003,0.39-0.004,0.751-0.004,1.083v2.648c0,0.332,0.001,0.693,0.004,1.083c0.003,0.39,0.007,0.776,0.013,1.156
					c0.006,0.38,0.013,0.741,0.022,1.083c0.009,0.342,0.019,0.624,0.03,0.849c-0.133-0.02-0.262-0.029-0.389-0.029
					c-0.127,0-0.256,0.01-0.388,0.029c0.012-0.224,0.022-0.507,0.03-0.849c0.009-0.341,0.016-0.702,0.022-1.083
					c0.006-0.38,0.01-0.766,0.013-1.156c0.003-0.39,0.004-0.751,0.004-1.083v-2.648C33.943,33.325,33.942,32.964,33.939,32.574z"/>
			</g>
			<g>
				<path style="fill:#002D73;" d="M38.898,30.965c0.253-0.234,0.561-0.351,0.924-0.351c0.225,0,0.437,0.049,0.639,0.146
					c0.201,0.098,0.376,0.254,0.522,0.468c0.147,0.215,0.263,0.483,0.35,0.805c0.086,0.322,0.129,0.712,0.129,1.17
					c0,0.332-0.023,0.641-0.069,0.929c-0.046,0.288-0.114,0.568-0.203,0.841c-0.089,0.273-0.202,0.549-0.337,0.827
					c-0.135,0.278-0.295,0.573-0.479,0.885c-0.109,0.185-0.236,0.4-0.38,0.644c-0.144,0.244-0.289,0.495-0.436,0.753
					c-0.147,0.258-0.286,0.515-0.419,0.768c-0.132,0.254-0.245,0.488-0.337,0.702h0.82c0.414,0,0.781-0.012,1.101-0.036
					c0.319-0.024,0.6-0.051,0.842-0.081c-0.029,0.215-0.043,0.395-0.043,0.541c0,0.137,0.014,0.302,0.043,0.497
					c-0.311-0.02-0.619-0.029-0.924-0.029c-0.305,0-0.613,0-0.924,0c-0.311,0-0.62,0-0.928,0c-0.308,0-0.617,0.01-0.928,0.029
					v-0.175c0.403-0.673,0.752-1.266,1.049-1.778c0.296-0.512,0.548-0.973,0.755-1.383c0.207-0.41,0.376-0.78,0.505-1.112
					c0.129-0.331,0.232-0.646,0.306-0.944c0.075-0.297,0.125-0.59,0.151-0.878c0.026-0.288,0.039-0.597,0.039-0.929
					c0-0.722-0.097-1.256-0.289-1.602c-0.193-0.346-0.419-0.519-0.678-0.519c-0.184,0-0.342,0.056-0.475,0.168
					c-0.132,0.112-0.242,0.249-0.328,0.41c-0.086,0.161-0.153,0.334-0.199,0.519c-0.046,0.185-0.078,0.351-0.095,0.497l-0.06,0.029
					l-0.302-0.717C38.426,31.564,38.645,31.199,38.898,30.965z"/>
			</g>
			<g>
				<path style="fill:#002D73;" d="M43.668,34.703c0.135-0.073,0.332-0.11,0.591-0.11c0.253,0,0.482,0.073,0.686,0.219
					c0.204,0.146,0.378,0.346,0.522,0.6c0.144,0.254,0.255,0.546,0.332,0.878c0.078,0.332,0.117,0.683,0.117,1.053
					c0,0.459-0.052,0.89-0.155,1.295c-0.103,0.405-0.25,0.756-0.44,1.053c-0.19,0.298-0.416,0.529-0.678,0.695
					c-0.262,0.166-0.554,0.249-0.876,0.249c-0.259,0-0.508-0.037-0.747-0.11c-0.239-0.073-0.45-0.217-0.634-0.432v-0.117
					c0.029-0.127,0.055-0.271,0.078-0.432c0.023-0.161,0.04-0.3,0.052-0.417h0.06c0.052,0.175,0.122,0.332,0.212,0.468
					c0.089,0.137,0.19,0.251,0.302,0.344c0.112,0.093,0.23,0.161,0.354,0.205c0.124,0.044,0.243,0.066,0.358,0.066
					c0.173,0,0.338-0.053,0.496-0.161c0.158-0.107,0.298-0.273,0.419-0.498c0.121-0.224,0.219-0.507,0.293-0.849
					c0.075-0.341,0.112-0.741,0.112-1.2c0-0.41-0.035-0.761-0.104-1.053c-0.069-0.293-0.16-0.532-0.272-0.717
					c-0.112-0.185-0.24-0.319-0.384-0.402c-0.144-0.083-0.293-0.124-0.449-0.124c-0.242,0-0.437,0.066-0.587,0.197
					c-0.15,0.132-0.25,0.227-0.302,0.285l-0.095-0.102c0.04-0.38,0.065-0.783,0.073-1.207c0.009-0.424,0.013-0.846,0.013-1.266
					c0-0.41-0.004-0.831-0.013-1.266c-0.009-0.434-0.027-0.817-0.056-1.149l0.078-0.088c0.098,0.029,0.259,0.059,0.483,0.088
					c0.253,0.029,0.604,0.044,1.053,0.044c0.276,0,0.521-0.002,0.734-0.007c0.213-0.005,0.371-0.012,0.475-0.022l0.043,0.058
					c-0.023,0.127-0.039,0.261-0.047,0.402c-0.009,0.142-0.013,0.281-0.013,0.417c0,0.137,0.003,0.219,0.009,0.249
					c-0.127-0.039-0.295-0.071-0.505-0.095c-0.21-0.024-0.43-0.044-0.66-0.058c-0.23-0.015-0.452-0.024-0.665-0.029
					c-0.213-0.005-0.386-0.007-0.518-0.007l-0.121,3.321C43.407,34.866,43.532,34.776,43.668,34.703z"/>
			</g>
			<g>
				<path style="fill:#002D73;" d="M48.579,34.878c-0.009-0.483-0.027-0.934-0.056-1.353c0.161,0.049,0.29,0.073,0.388,0.073
					c0.046,0,0.096-0.007,0.151-0.022c0.055-0.015,0.119-0.032,0.194-0.051c-0.017,0.39-0.026,0.78-0.026,1.17h0.017
					c0.304-0.878,0.731-1.317,1.282-1.317c0.143,0,0.284,0.037,0.422,0.11c0.138,0.073,0.262,0.173,0.374,0.3
					c0.112,0.127,0.208,0.28,0.288,0.461c0.08,0.181,0.135,0.373,0.163,0.578h0.017c0.139-0.468,0.328-0.827,0.567-1.075
					c0.24-0.249,0.515-0.373,0.827-0.373c0.191,0,0.367,0.044,0.528,0.132c0.162,0.088,0.301,0.225,0.42,0.41
					c0.118,0.185,0.211,0.424,0.277,0.717c0.066,0.293,0.1,0.644,0.1,1.053c0,0.166-0.003,0.346-0.009,0.541
					c-0.006,0.195-0.012,0.422-0.017,0.68c-0.006,0.258-0.012,0.551-0.017,0.878c-0.006,0.327-0.009,0.705-0.009,1.134
					c0,0.263,0.001,0.517,0.004,0.761c0.003,0.244,0.01,0.507,0.022,0.79c-0.063-0.02-0.127-0.029-0.19-0.029
					c-0.063,0-0.124,0-0.181,0c-0.063,0-0.127,0-0.19,0c-0.063,0-0.127,0.01-0.19,0.029c0.017-0.244,0.036-0.736,0.056-1.478
					c0.02-0.741,0.03-1.775,0.03-3.102c0-0.244-0.016-0.473-0.048-0.688c-0.032-0.214-0.082-0.4-0.152-0.556
					c-0.069-0.156-0.162-0.28-0.278-0.373c-0.116-0.093-0.26-0.139-0.433-0.139c-0.208,0-0.384,0.068-0.529,0.205
					c-0.145,0.137-0.257,0.298-0.338,0.483c-0.046,0.107-0.083,0.215-0.108,0.322c-0.026,0.107-0.046,0.271-0.061,0.49
					c-0.014,0.219-0.025,0.527-0.03,0.922c-0.006,0.395-0.009,0.939-0.009,1.631c0,0.419,0.004,0.802,0.013,1.149
					c0.009,0.346,0.019,0.724,0.03,1.134c-0.131-0.02-0.256-0.029-0.375-0.029c-0.12,0-0.245,0.01-0.376,0.029
					c0.025-0.536,0.043-1.083,0.054-1.639c0.01-0.556,0.015-1.102,0.015-1.639c0-0.458-0.001-0.817-0.004-1.075
					c-0.003-0.258-0.01-0.463-0.022-0.614c-0.012-0.151-0.027-0.275-0.047-0.373c-0.02-0.097-0.047-0.205-0.082-0.322
					c-0.063-0.185-0.162-0.344-0.297-0.475c-0.135-0.132-0.274-0.197-0.417-0.197c-0.378,0-0.656,0.21-0.834,0.629
					c-0.178,0.419-0.266,1.01-0.266,1.77v1.244c0,0.439,0.004,0.9,0.013,1.383c0.009,0.483,0.027,0.919,0.056,1.309
					c-0.132-0.02-0.262-0.029-0.388-0.029c-0.127,0-0.256,0.01-0.388,0.029c0.029-0.39,0.047-0.827,0.056-1.309
					c0.009-0.483,0.013-0.944,0.013-1.383v-1.522C48.592,35.822,48.588,35.361,48.579,34.878z"/>
				<path style="fill:#002D73;" d="M55.662,35.383c0.126-0.458,0.292-0.836,0.496-1.134c0.204-0.297,0.439-0.517,0.703-0.658
					c0.265-0.141,0.535-0.212,0.811-0.212c0.316,0,0.6,0.066,0.85,0.198c0.25,0.132,0.43,0.28,0.54,0.446
					c-0.04,0.146-0.076,0.3-0.108,0.461c-0.032,0.161-0.059,0.329-0.082,0.505h-0.069c-0.04-0.127-0.095-0.256-0.164-0.388
					c-0.069-0.132-0.151-0.253-0.246-0.366c-0.095-0.112-0.2-0.205-0.315-0.278c-0.115-0.073-0.242-0.11-0.38-0.11
					c-0.259,0-0.482,0.08-0.669,0.242c-0.187,0.161-0.34,0.383-0.457,0.666c-0.118,0.283-0.204,0.617-0.259,1.002
					c-0.055,0.385-0.082,0.802-0.082,1.251c0,1.005,0.127,1.763,0.38,2.275c0.253,0.512,0.624,0.768,1.114,0.768
					c0.115,0,0.233-0.027,0.354-0.081c0.121-0.053,0.239-0.127,0.354-0.219c0.115-0.093,0.223-0.202,0.324-0.329
					c0.101-0.127,0.188-0.263,0.263-0.41l0.043,0.044c-0.029,0.234-0.046,0.473-0.052,0.717c-0.173,0.234-0.387,0.434-0.643,0.6
					c-0.256,0.166-0.522,0.249-0.798,0.249c-0.248,0-0.496-0.061-0.747-0.183c-0.25-0.122-0.476-0.327-0.678-0.614
					c-0.201-0.288-0.364-0.661-0.488-1.119c-0.124-0.458-0.186-1.019-0.186-1.683C55.472,36.388,55.536,35.842,55.662,35.383z"/>
				<path style="fill:#002D73;" d="M59.987,34.703c0.086-0.297,0.206-0.544,0.358-0.739c0.152-0.195,0.328-0.341,0.527-0.439
					c0.199-0.097,0.41-0.146,0.634-0.146c0.109,0,0.214,0.005,0.315,0.015c0.101,0.01,0.229,0.025,0.384,0.044
					c0.132,0.02,0.25,0.034,0.354,0.044c0.104,0.01,0.187,0.015,0.25,0.015c0.322,0,0.555-0.024,0.699-0.073
					c-0.006,0.049-0.01,0.1-0.013,0.154c-0.003,0.054-0.004,0.105-0.004,0.154c0,0.049,0.001,0.1,0.004,0.154
					c0.003,0.054,0.007,0.105,0.013,0.154c-0.167-0.019-0.329-0.041-0.488-0.066c-0.158-0.024-0.315-0.041-0.47-0.051l-0.017,0.029
					c0.178,0.166,0.322,0.422,0.432,0.768c0.109,0.346,0.164,0.705,0.164,1.075c0,0.732-0.145,1.305-0.436,1.719
					c-0.291,0.415-0.681,0.622-1.17,0.622c-0.081,0-0.16-0.005-0.237-0.015c-0.078-0.01-0.157-0.015-0.237-0.015
					c-0.104,0-0.2,0.064-0.289,0.19c-0.089,0.127-0.134,0.288-0.134,0.483c0,0.254,0.036,0.439,0.108,0.556
					c0.072,0.117,0.206,0.181,0.402,0.19c0.161,0.01,0.319,0.017,0.475,0.022c0.155,0.005,0.314,0.012,0.475,0.022
					c0.265,0.01,0.49,0.063,0.678,0.161c0.187,0.098,0.339,0.229,0.457,0.395c0.118,0.166,0.204,0.356,0.259,0.571
					c0.055,0.214,0.082,0.449,0.082,0.702c0,0.341-0.039,0.688-0.116,1.039c-0.078,0.351-0.199,0.668-0.363,0.951
					c-0.164,0.283-0.376,0.517-0.634,0.702c-0.259,0.185-0.57,0.278-0.932,0.278c-0.558,0-0.999-0.188-1.321-0.563
					c-0.322-0.376-0.483-0.89-0.483-1.544c0-0.254,0.027-0.488,0.082-0.702c0.055-0.215,0.125-0.405,0.211-0.57
					c0.086-0.166,0.184-0.298,0.294-0.395c0.109-0.098,0.221-0.17,0.337-0.219v-0.029c-0.178-0.088-0.314-0.234-0.406-0.439
					c-0.092-0.205-0.138-0.448-0.138-0.732c0-0.166,0.019-0.317,0.056-0.454c0.037-0.136,0.085-0.258,0.142-0.366
					c0.058-0.107,0.124-0.195,0.199-0.263c0.075-0.068,0.147-0.112,0.216-0.132v-0.029c-0.265-0.195-0.472-0.471-0.621-0.827
					c-0.15-0.356-0.225-0.802-0.225-1.339C59.857,35.354,59.901,35,59.987,34.703z M62.62,40.797
					c-0.202-0.234-0.535-0.351-1.001-0.351c-0.432,0-0.765,0.119-1.001,0.359c-0.236,0.239-0.354,0.67-0.354,1.295
					c0,0.332,0.033,0.614,0.099,0.849c0.066,0.234,0.155,0.424,0.268,0.571c0.112,0.146,0.246,0.254,0.401,0.322
					c0.155,0.068,0.322,0.102,0.501,0.102c0.173,0,0.342-0.039,0.509-0.117c0.167-0.078,0.315-0.195,0.445-0.351
					c0.129-0.156,0.234-0.354,0.315-0.593c0.08-0.239,0.121-0.524,0.121-0.856C62.922,41.44,62.821,41.031,62.62,40.797z
					 M62.197,34.286c-0.173-0.322-0.4-0.483-0.682-0.483c-0.311,0-0.552,0.178-0.725,0.534c-0.173,0.356-0.259,0.832-0.259,1.426
					c0,0.615,0.079,1.1,0.237,1.456c0.158,0.356,0.404,0.534,0.738,0.534c0.167,0,0.309-0.056,0.427-0.168
					c0.118-0.112,0.216-0.263,0.294-0.453c0.078-0.19,0.135-0.41,0.173-0.658c0.037-0.249,0.056-0.51,0.056-0.783
					C62.456,35.076,62.37,34.608,62.197,34.286z"/>
			</g>
			<g>
				<path style="fill:#002D73;" d="M66.858,30.453c0.086-0.146,0.19-0.219,0.311-0.219s0.225,0.073,0.311,0.219
					c0.086,0.146,0.13,0.322,0.13,0.527c0,0.205-0.043,0.38-0.13,0.527c-0.086,0.146-0.19,0.219-0.311,0.219
					s-0.224-0.073-0.311-0.219c-0.086-0.146-0.13-0.322-0.13-0.527C66.729,30.774,66.772,30.599,66.858,30.453z M66.837,34.878
					c-0.009-0.483-0.027-0.934-0.056-1.353c0.161,0.049,0.291,0.073,0.388,0.073c0.098,0,0.227-0.024,0.389-0.073
					c-0.029,0.419-0.048,0.87-0.056,1.353c-0.009,0.483-0.013,0.944-0.013,1.383v1.522c0,0.439,0.004,0.9,0.013,1.383
					c0.009,0.483,0.027,0.919,0.056,1.309c-0.133-0.02-0.262-0.029-0.389-0.029c-0.127,0-0.256,0.01-0.388,0.029
					c0.029-0.39,0.048-0.827,0.056-1.309c0.009-0.483,0.013-0.944,0.013-1.383v-1.522C66.85,35.822,66.845,35.361,66.837,34.878z"/>
				<path style="fill:#002D73;" d="M71.589,34.703c-0.167-0.375-0.397-0.563-0.691-0.563c-0.403,0-0.698,0.21-0.885,0.629
					c-0.187,0.419-0.281,1.01-0.281,1.77v1.244c0,0.439,0.004,0.9,0.013,1.383c0.009,0.483,0.027,0.919,0.056,1.309
					c-0.132-0.02-0.262-0.029-0.389-0.029c-0.127,0-0.256,0.01-0.388,0.029c0.029-0.39,0.047-0.827,0.056-1.309
					c0.009-0.483,0.013-0.944,0.013-1.383v-1.522c0-0.439-0.004-0.9-0.013-1.383c-0.009-0.483-0.027-0.934-0.056-1.353
					c0.161,0.049,0.29,0.073,0.388,0.073c0.046,0,0.096-0.007,0.151-0.022c0.055-0.015,0.119-0.032,0.194-0.051
					c-0.017,0.39-0.026,0.78-0.026,1.17h0.017c0.162-0.419,0.355-0.744,0.58-0.973c0.225-0.229,0.494-0.344,0.805-0.344
					c0.161,0,0.325,0.039,0.489,0.117c0.165,0.078,0.313,0.212,0.446,0.402c0.133,0.19,0.241,0.449,0.325,0.776
					c0.084,0.327,0.126,0.744,0.126,1.251c0,0.419-0.006,0.851-0.017,1.295c-0.012,0.444-0.017,0.914-0.017,1.412v0.951
					c0,0.156,0.001,0.31,0.004,0.461c0.003,0.151,0.007,0.295,0.013,0.432c-0.116-0.02-0.239-0.029-0.367-0.029
					c-0.123,0-0.242,0.01-0.358,0.029c0.011-0.507,0.024-1.029,0.039-1.565c0.014-0.536,0.022-1.088,0.022-1.653v-0.892
					C71.839,35.632,71.756,35.078,71.589,34.703z"/>
				<path style="fill:#002D73;" d="M73.889,32.574c-0.003-0.39-0.007-0.776-0.013-1.156c-0.006-0.38-0.013-0.744-0.022-1.09
					c-0.009-0.346-0.019-0.641-0.03-0.885c0.161,0.049,0.291,0.073,0.388,0.073c0.098,0,0.227-0.024,0.388-0.073
					c-0.011,0.244-0.022,0.537-0.03,0.878c-0.009,0.341-0.016,0.7-0.022,1.075c-0.006,0.376-0.01,0.754-0.013,1.134
					c-0.003,0.38-0.004,0.732-0.004,1.053v1.112h0.017c0.162-0.419,0.355-0.744,0.58-0.973c0.225-0.229,0.494-0.344,0.805-0.344
					c0.161,0,0.325,0.039,0.489,0.117c0.165,0.078,0.313,0.212,0.446,0.402c0.133,0.19,0.241,0.449,0.325,0.776
					c0.084,0.327,0.126,0.744,0.126,1.251c0,0.419-0.006,0.851-0.017,1.295c-0.012,0.444-0.017,0.914-0.017,1.412v0.951
					c0,0.156,0.001,0.31,0.004,0.461c0.003,0.151,0.007,0.295,0.013,0.432c-0.116-0.02-0.239-0.029-0.367-0.029
					c-0.123,0-0.242,0.01-0.358,0.029c0.011-0.507,0.024-1.029,0.039-1.565c0.014-0.536,0.022-1.088,0.022-1.653v-0.892
					c0-0.732-0.084-1.285-0.25-1.661c-0.167-0.375-0.397-0.563-0.691-0.563c-0.403,0-0.698,0.21-0.885,0.629
					c-0.187,0.419-0.281,1.01-0.281,1.77c0,0.273,0.001,0.59,0.004,0.951c0.003,0.361,0.007,0.724,0.013,1.09
					c0.006,0.366,0.013,0.719,0.022,1.061c0.009,0.342,0.019,0.619,0.03,0.834c-0.132-0.02-0.262-0.029-0.388-0.029
					c-0.127,0-0.256,0.01-0.388,0.029c0.011-0.224,0.022-0.507,0.03-0.849c0.009-0.341,0.016-0.702,0.022-1.083
					c0.006-0.38,0.01-0.766,0.013-1.156c0.003-0.39,0.004-0.751,0.004-1.083v-2.648C73.894,33.325,73.892,32.964,73.889,32.574z"/>
				<path style="fill:#002D73;" d="M79.418,33.554c0.219-0.117,0.443-0.176,0.673-0.176c0.207,0,0.397,0.051,0.57,0.154
					s0.321,0.249,0.443,0.439c0.123,0.19,0.219,0.419,0.289,0.688c0.07,0.268,0.105,0.563,0.105,0.885
					c0,0.556-0.006,1.11-0.017,1.661c-0.012,0.551-0.017,1.134-0.017,1.748c0,0.117,0.001,0.242,0.004,0.373
					c0.003,0.132,0.016,0.249,0.039,0.351c0.023,0.102,0.056,0.188,0.099,0.256c0.043,0.068,0.108,0.102,0.194,0.102
					c0.029,0,0.059-0.002,0.091-0.007c0.032-0.005,0.062-0.022,0.091-0.051v0.322c-0.063,0.049-0.142,0.088-0.237,0.117
					c-0.095,0.029-0.2,0.044-0.315,0.044c-0.187,0-0.33-0.08-0.429-0.241c-0.099-0.161-0.157-0.368-0.175-0.622
					c-0.206,0.351-0.41,0.61-0.611,0.775c-0.201,0.166-0.447,0.249-0.74,0.249c-0.143,0-0.284-0.034-0.422-0.102
					c-0.138-0.068-0.259-0.18-0.365-0.337c-0.106-0.156-0.192-0.344-0.258-0.563c-0.066-0.219-0.099-0.471-0.099-0.754
					c0-0.585,0.108-1.039,0.323-1.361c0.215-0.322,0.512-0.536,0.89-0.644c0.31-0.088,0.552-0.163,0.727-0.227
					c0.175-0.063,0.304-0.129,0.387-0.197c0.083-0.068,0.133-0.149,0.151-0.241c0.017-0.093,0.026-0.212,0.026-0.359
					c0-0.244-0.017-0.478-0.052-0.702c-0.035-0.224-0.089-0.419-0.164-0.585c-0.075-0.166-0.173-0.3-0.293-0.402
					c-0.121-0.102-0.268-0.153-0.44-0.153c-0.23,0-0.445,0.088-0.643,0.263c-0.199,0.176-0.347,0.419-0.445,0.732h-0.095v-0.761
					C78.961,33.896,79.199,33.671,79.418,33.554z M80.494,36.978c-0.129,0.039-0.259,0.08-0.391,0.124
					c-0.132,0.044-0.262,0.1-0.391,0.168c-0.129,0.068-0.244,0.161-0.344,0.278c-0.1,0.117-0.18,0.263-0.24,0.439
					c-0.06,0.176-0.09,0.4-0.09,0.673c0,0.459,0.077,0.805,0.232,1.039c0.155,0.234,0.326,0.351,0.515,0.351
					c0.218,0,0.417-0.102,0.597-0.307c0.18-0.205,0.319-0.444,0.417-0.717l0.034-2.195C80.736,36.89,80.623,36.939,80.494,36.978z"
					/>
				<path style="fill:#002D73;" d="M83.16,32.574c-0.003-0.39-0.007-0.776-0.013-1.156c-0.006-0.38-0.013-0.744-0.022-1.09
					c-0.009-0.346-0.019-0.641-0.03-0.885c0.161,0.049,0.291,0.073,0.388,0.073c0.098,0,0.227-0.024,0.389-0.073
					c-0.012,0.244-0.022,0.539-0.03,0.885c-0.009,0.346-0.016,0.71-0.022,1.09c-0.006,0.38-0.01,0.766-0.013,1.156
					c-0.003,0.39-0.004,0.751-0.004,1.083v2.648c0,0.332,0.001,0.693,0.004,1.083c0.003,0.39,0.007,0.776,0.013,1.156
					c0.006,0.38,0.013,0.741,0.022,1.083c0.009,0.342,0.019,0.624,0.03,0.849c-0.133-0.02-0.262-0.029-0.389-0.029
					c-0.127,0-0.256,0.01-0.388,0.029c0.012-0.224,0.022-0.507,0.03-0.849c0.009-0.341,0.016-0.702,0.022-1.083
					c0.006-0.38,0.01-0.766,0.013-1.156c0.003-0.39,0.004-0.751,0.004-1.083v-2.648C83.164,33.325,83.163,32.964,83.16,32.574z"/>
				<path style="fill:#002D73;" d="M86.134,33.554c0.218-0.117,0.443-0.176,0.673-0.176c0.207,0,0.397,0.051,0.57,0.154
					c0.173,0.102,0.321,0.249,0.443,0.439c0.123,0.19,0.219,0.419,0.289,0.688c0.07,0.268,0.105,0.563,0.105,0.885
					c0,0.556-0.006,1.11-0.017,1.661c-0.011,0.551-0.017,1.134-0.017,1.748c0,0.117,0.001,0.242,0.004,0.373
					c0.003,0.132,0.016,0.249,0.039,0.351c0.023,0.102,0.056,0.188,0.099,0.256c0.043,0.068,0.108,0.102,0.194,0.102
					c0.029,0,0.059-0.002,0.091-0.007c0.032-0.005,0.062-0.022,0.091-0.051v0.322c-0.063,0.049-0.142,0.088-0.237,0.117
					c-0.095,0.029-0.2,0.044-0.315,0.044c-0.187,0-0.33-0.08-0.429-0.241c-0.099-0.161-0.158-0.368-0.175-0.622
					c-0.207,0.351-0.41,0.61-0.611,0.775c-0.201,0.166-0.447,0.249-0.74,0.249c-0.143,0-0.284-0.034-0.422-0.102
					c-0.138-0.068-0.26-0.18-0.366-0.337c-0.106-0.156-0.192-0.344-0.258-0.563c-0.066-0.219-0.099-0.471-0.099-0.754
					c0-0.585,0.108-1.039,0.323-1.361c0.215-0.322,0.512-0.536,0.89-0.644c0.31-0.088,0.552-0.163,0.727-0.227
					c0.175-0.063,0.304-0.129,0.387-0.197c0.083-0.068,0.133-0.149,0.15-0.241c0.017-0.093,0.026-0.212,0.026-0.359
					c0-0.244-0.017-0.478-0.052-0.702c-0.035-0.224-0.089-0.419-0.164-0.585c-0.075-0.166-0.173-0.3-0.293-0.402
					c-0.121-0.102-0.268-0.153-0.44-0.153c-0.23,0-0.445,0.088-0.643,0.263c-0.198,0.176-0.347,0.419-0.445,0.732h-0.095v-0.761
					C85.676,33.896,85.915,33.671,86.134,33.554z M87.21,36.978c-0.129,0.039-0.259,0.08-0.391,0.124
					c-0.132,0.044-0.262,0.1-0.391,0.168c-0.129,0.068-0.243,0.161-0.344,0.278c-0.1,0.117-0.18,0.263-0.24,0.439
					c-0.06,0.176-0.09,0.4-0.09,0.673c0,0.459,0.077,0.805,0.232,1.039c0.155,0.234,0.327,0.351,0.516,0.351
					c0.218,0,0.417-0.102,0.597-0.307c0.18-0.205,0.319-0.444,0.417-0.717l0.034-2.195C87.452,36.89,87.339,36.939,87.21,36.978z"/>
				<path style="fill:#002D73;" d="M90.441,31.564c-0.017,0.371-0.03,0.734-0.039,1.09c-0.009,0.356-0.019,0.715-0.03,1.075
					c0.063,0,0.181-0.002,0.354-0.007c0.173-0.005,0.36-0.017,0.561-0.037c-0.006,0.029-0.009,0.083-0.009,0.161v0.146v0.161
					c0,0.068,0.003,0.117,0.009,0.146c-0.075-0.01-0.153-0.017-0.233-0.022c-0.081-0.005-0.167-0.007-0.259-0.007h-0.423
					c-0.006,0.039-0.013,0.195-0.022,0.468c-0.009,0.273-0.016,0.597-0.022,0.973c-0.006,0.376-0.01,0.768-0.013,1.178
					c-0.003,0.41-0.004,0.776-0.004,1.097c0,0.273,0.004,0.541,0.013,0.805c0.009,0.263,0.036,0.5,0.082,0.71
					c0.046,0.21,0.115,0.378,0.207,0.505c0.092,0.127,0.224,0.19,0.397,0.19c0.046,0,0.108-0.01,0.186-0.029
					c0.078-0.019,0.145-0.044,0.203-0.073v0.351c-0.098,0.029-0.206,0.066-0.324,0.11c-0.118,0.044-0.232,0.066-0.341,0.066
					c-0.363,0-0.63-0.151-0.803-0.453c-0.173-0.302-0.259-0.746-0.259-1.332c0-0.263,0.003-0.549,0.009-0.856
					c0.006-0.307,0.013-0.644,0.022-1.01c0.009-0.366,0.016-0.77,0.022-1.214c0.006-0.444,0.009-0.939,0.009-1.485h-0.276
					c-0.046,0-0.095,0.003-0.147,0.007c-0.052,0.005-0.107,0.012-0.164,0.022c0.006-0.058,0.01-0.115,0.013-0.168
					c0.003-0.053,0.004-0.11,0.004-0.168c0-0.049-0.001-0.097-0.004-0.146c-0.003-0.049-0.007-0.097-0.013-0.146
					c0.259,0.029,0.449,0.044,0.57,0.044c-0.006-0.195-0.01-0.439-0.013-0.732c-0.003-0.293-0.01-0.595-0.022-0.907l0.716-0.512
					H90.441z"/>
				<path style="fill:#002D73;" d="M92.289,30.453c0.086-0.146,0.19-0.219,0.311-0.219c0.121,0,0.224,0.073,0.311,0.219
					c0.087,0.146,0.13,0.322,0.13,0.527c0,0.205-0.043,0.38-0.13,0.527c-0.086,0.146-0.19,0.219-0.311,0.219
					c-0.121,0-0.225-0.073-0.311-0.219c-0.087-0.146-0.13-0.322-0.13-0.527C92.159,30.774,92.202,30.599,92.289,30.453z
					 M92.267,34.878c-0.009-0.483-0.027-0.934-0.056-1.353c0.161,0.049,0.291,0.073,0.389,0.073c0.098,0,0.227-0.024,0.388-0.073
					c-0.029,0.419-0.047,0.87-0.056,1.353c-0.009,0.483-0.013,0.944-0.013,1.383v1.522c0,0.439,0.004,0.9,0.013,1.383
					c0.009,0.483,0.027,0.919,0.056,1.309c-0.132-0.02-0.262-0.029-0.388-0.029c-0.127,0-0.256,0.01-0.389,0.029
					c0.029-0.39,0.048-0.827,0.056-1.309c0.009-0.483,0.013-0.944,0.013-1.383v-1.522C92.28,35.822,92.276,35.361,92.267,34.878z"/>
				<path style="fill:#002D73;" d="M94.287,35.332c0.124-0.463,0.286-0.839,0.488-1.126c0.201-0.288,0.427-0.497,0.678-0.629
					c0.25-0.132,0.499-0.198,0.747-0.198c0.253,0,0.504,0.066,0.751,0.198c0.247,0.132,0.472,0.341,0.673,0.629
					c0.201,0.288,0.364,0.663,0.488,1.126c0.124,0.463,0.186,1.027,0.186,1.69c0,0.663-0.062,1.227-0.186,1.69
					c-0.124,0.463-0.286,0.839-0.488,1.126c-0.202,0.288-0.426,0.49-0.673,0.607c-0.247,0.117-0.498,0.176-0.751,0.176
					c-0.247,0-0.496-0.058-0.747-0.176s-0.476-0.319-0.678-0.607c-0.201-0.288-0.364-0.663-0.488-1.126
					c-0.124-0.463-0.186-1.026-0.186-1.69C94.101,36.359,94.163,35.795,94.287,35.332z M94.926,38.207
					c0.043,0.38,0.117,0.719,0.22,1.017c0.104,0.298,0.241,0.534,0.414,0.71c0.173,0.176,0.386,0.263,0.639,0.263
					c0.253,0,0.466-0.088,0.639-0.263c0.173-0.176,0.311-0.412,0.414-0.71c0.103-0.297,0.177-0.636,0.22-1.017
					c0.043-0.38,0.065-0.775,0.065-1.185c0-0.41-0.022-0.805-0.065-1.185c-0.043-0.38-0.117-0.719-0.22-1.017
					c-0.104-0.297-0.242-0.534-0.414-0.71c-0.173-0.176-0.386-0.263-0.639-0.263c-0.253,0-0.466,0.088-0.639,0.263
					c-0.173,0.176-0.311,0.412-0.414,0.71c-0.104,0.298-0.177,0.636-0.22,1.017c-0.043,0.38-0.065,0.776-0.065,1.185
					C94.861,37.432,94.883,37.827,94.926,38.207z"/>
				<path style="fill:#002D73;" d="M101.819,34.703c-0.167-0.375-0.397-0.563-0.691-0.563c-0.403,0-0.698,0.21-0.885,0.629
					c-0.187,0.419-0.28,1.01-0.28,1.77v1.244c0,0.439,0.004,0.9,0.013,1.383c0.009,0.483,0.027,0.919,0.056,1.309
					c-0.133-0.02-0.262-0.029-0.388-0.029c-0.127,0-0.256,0.01-0.389,0.029c0.029-0.39,0.048-0.827,0.056-1.309
					c0.009-0.483,0.013-0.944,0.013-1.383v-1.522c0-0.439-0.004-0.9-0.013-1.383c-0.009-0.483-0.027-0.934-0.056-1.353
					c0.161,0.049,0.291,0.073,0.389,0.073c0.046,0,0.096-0.007,0.151-0.022c0.055-0.015,0.119-0.032,0.194-0.051
					c-0.017,0.39-0.026,0.78-0.026,1.17h0.017c0.161-0.419,0.355-0.744,0.58-0.973c0.225-0.229,0.493-0.344,0.805-0.344
					c0.162,0,0.325,0.039,0.489,0.117c0.164,0.078,0.313,0.212,0.446,0.402c0.133,0.19,0.241,0.449,0.325,0.776
					c0.084,0.327,0.126,0.744,0.126,1.251c0,0.419-0.006,0.851-0.017,1.295c-0.012,0.444-0.018,0.914-0.018,1.412v0.951
					c0,0.156,0.002,0.31,0.005,0.461c0.002,0.151,0.007,0.295,0.013,0.432c-0.117-0.02-0.239-0.029-0.367-0.029
					c-0.122,0-0.242,0.01-0.358,0.029c0.012-0.507,0.025-1.029,0.039-1.565c0.014-0.536,0.022-1.088,0.022-1.653v-0.892
					C102.069,35.632,101.985,35.078,101.819,34.703z"/>
				<path style="fill:#002D73;" d="M106.355,36.7c-0.003-0.39-0.008-0.778-0.013-1.163c-0.006-0.385-0.013-0.754-0.022-1.105
					c-0.008-0.351-0.018-0.653-0.03-0.907c0.161,0.049,0.29,0.073,0.388,0.073c0.098,0,0.227-0.024,0.389-0.073
					c-0.023,0.254-0.04,0.497-0.052,0.732c-0.011,0.234-0.017,0.468-0.017,0.702h0.017c0.04-0.156,0.098-0.324,0.173-0.505
					c0.074-0.18,0.171-0.351,0.289-0.512c0.118-0.161,0.26-0.295,0.427-0.402c0.167-0.107,0.357-0.161,0.57-0.161
					c0.218,0,0.435,0.071,0.648,0.212c0.213,0.141,0.401,0.358,0.565,0.651c0.164,0.293,0.296,0.666,0.397,1.119
					c0.1,0.453,0.151,0.993,0.151,1.617c0,0.624-0.055,1.166-0.164,1.624c-0.109,0.459-0.252,0.839-0.427,1.141
					c-0.175,0.302-0.376,0.524-0.6,0.666c-0.224,0.141-0.449,0.212-0.673,0.212c-0.634,0-1.085-0.463-1.356-1.39h-0.017v0.922
					c0,0.312,0.001,0.661,0.004,1.046c0.003,0.385,0.007,0.768,0.013,1.149c0.006,0.38,0.013,0.744,0.022,1.09
					c0.008,0.346,0.018,0.641,0.03,0.885c-0.161-0.049-0.291-0.073-0.389-0.073c-0.098,0-0.227,0.024-0.388,0.073
					c0.012-0.244,0.022-0.539,0.03-0.885c0.009-0.346,0.016-0.71,0.022-1.09c0.005-0.38,0.01-0.763,0.013-1.149
					c0.003-0.385,0.004-0.734,0.004-1.046v-2.37C106.359,37.451,106.358,37.09,106.355,36.7z M109.367,35.515
					c-0.072-0.38-0.164-0.685-0.276-0.914c-0.113-0.229-0.241-0.388-0.384-0.475c-0.144-0.088-0.285-0.132-0.423-0.132
					c-0.23,0-0.427,0.083-0.592,0.249c-0.164,0.166-0.298,0.388-0.401,0.666c-0.103,0.278-0.178,0.605-0.224,0.98
					c-0.046,0.376-0.069,0.773-0.069,1.192c0,2.029,0.42,3.043,1.261,3.043c0.207,0,0.387-0.08,0.539-0.241
					c0.153-0.161,0.279-0.385,0.38-0.673c0.1-0.288,0.175-0.624,0.224-1.009c0.049-0.385,0.073-0.797,0.073-1.236
					C109.475,36.378,109.439,35.895,109.367,35.515z"/>
				<path style="fill:#002D73;" d="M111.086,35.332c0.123-0.463,0.286-0.839,0.488-1.126c0.201-0.288,0.427-0.497,0.678-0.629
					c0.25-0.132,0.499-0.198,0.746-0.198c0.253,0,0.504,0.066,0.751,0.198c0.247,0.132,0.472,0.341,0.674,0.629
					c0.201,0.288,0.364,0.663,0.488,1.126c0.123,0.463,0.185,1.027,0.185,1.69c0,0.663-0.062,1.227-0.185,1.69
					c-0.124,0.463-0.286,0.839-0.488,1.126c-0.202,0.288-0.426,0.49-0.674,0.607c-0.247,0.117-0.498,0.176-0.751,0.176
					c-0.247,0-0.496-0.058-0.746-0.176c-0.25-0.117-0.476-0.319-0.678-0.607c-0.201-0.288-0.364-0.663-0.488-1.126
					c-0.124-0.463-0.186-1.026-0.186-1.69C110.9,36.359,110.962,35.795,111.086,35.332z M111.724,38.207
					c0.043,0.38,0.116,0.719,0.22,1.017c0.103,0.298,0.242,0.534,0.414,0.71c0.173,0.176,0.386,0.263,0.639,0.263
					c0.253,0,0.466-0.088,0.639-0.263c0.173-0.176,0.311-0.412,0.414-0.71c0.103-0.297,0.177-0.636,0.22-1.017
					c0.043-0.38,0.065-0.775,0.065-1.185c0-0.41-0.022-0.805-0.065-1.185c-0.043-0.38-0.117-0.719-0.22-1.017
					c-0.103-0.297-0.241-0.534-0.414-0.71c-0.172-0.176-0.386-0.263-0.639-0.263c-0.253,0-0.466,0.088-0.639,0.263
					c-0.172,0.176-0.311,0.412-0.414,0.71c-0.104,0.298-0.177,0.636-0.22,1.017c-0.043,0.38-0.065,0.776-0.065,1.185
					C111.659,37.432,111.681,37.827,111.724,38.207z"/>
				<path style="fill:#002D73;" d="M116.683,39.099c-0.115-0.556-0.24-1.149-0.376-1.778c-0.135-0.629-0.276-1.273-0.423-1.931
					c-0.147-0.658-0.292-1.28-0.436-1.865c0.069,0.02,0.137,0.036,0.203,0.051c0.066,0.015,0.134,0.022,0.203,0.022
					c0.063,0,0.126-0.007,0.19-0.022c0.063-0.015,0.132-0.032,0.207-0.051c0.149,0.917,0.315,1.836,0.497,2.758
					c0.181,0.922,0.384,1.871,0.609,2.846c0.069-0.273,0.152-0.634,0.25-1.083c0.097-0.449,0.198-0.931,0.302-1.448
					c0.104-0.517,0.207-1.044,0.311-1.58c0.103-0.536,0.195-1.034,0.276-1.492c0.103,0.049,0.19,0.073,0.259,0.073
					c0.046,0,0.086-0.007,0.121-0.022c0.034-0.015,0.074-0.032,0.121-0.051c0.143,0.936,0.311,1.861,0.501,2.772
					c0.19,0.912,0.388,1.856,0.595,2.831c0.075-0.312,0.163-0.695,0.263-1.149c0.101-0.454,0.206-0.931,0.315-1.434
					c0.109-0.502,0.22-1.017,0.332-1.544c0.112-0.527,0.217-1.019,0.315-1.478c0.115,0.049,0.207,0.073,0.276,0.073
					c0.075,0,0.161-0.024,0.259-0.073c-0.328,1.18-0.635,2.346-0.919,3.497c-0.285,1.151-0.551,2.302-0.799,3.453
					c-0.063-0.02-0.138-0.029-0.224-0.029c-0.04,0-0.08,0-0.12,0c-0.041,0-0.075,0.01-0.104,0.029
					c-0.149-0.868-0.314-1.741-0.492-2.619c-0.178-0.878-0.383-1.8-0.613-2.765c-0.069,0.293-0.153,0.656-0.25,1.09
					c-0.098,0.434-0.199,0.9-0.302,1.397c-0.103,0.497-0.207,1.002-0.311,1.514c-0.104,0.512-0.196,0.973-0.276,1.383
					c-0.069-0.02-0.15-0.029-0.242-0.029c-0.092,0-0.172,0.01-0.241,0.029C116.891,40.114,116.798,39.655,116.683,39.099z"/>
				<path style="fill:#002D73;" d="M125.583,39.085c-0.046,0.156-0.108,0.324-0.185,0.505c-0.078,0.181-0.176,0.349-0.293,0.505
					c-0.118,0.156-0.258,0.283-0.419,0.38c-0.161,0.097-0.348,0.146-0.561,0.146c-0.218,0-0.433-0.063-0.643-0.19
					c-0.21-0.127-0.397-0.334-0.561-0.622c-0.164-0.288-0.296-0.658-0.397-1.112c-0.1-0.454-0.151-0.997-0.151-1.631
					c0-0.624,0.055-1.165,0.164-1.624c0.109-0.458,0.252-0.841,0.427-1.149c0.175-0.307,0.374-0.536,0.596-0.688
					c0.221-0.151,0.445-0.227,0.669-0.227c0.639,0,1.082,0.488,1.329,1.463h0.018v-1.434c0-0.371-0.002-0.744-0.005-1.119
					c-0.003-0.375-0.006-0.734-0.008-1.075c-0.003-0.341-0.006-0.663-0.009-0.966c-0.003-0.302-0.007-0.571-0.013-0.805
					c0.069,0.02,0.135,0.037,0.198,0.051c0.064,0.015,0.127,0.022,0.19,0.022s0.125-0.007,0.185-0.022
					c0.061-0.015,0.128-0.032,0.203-0.051c-0.017,0.312-0.032,0.763-0.043,1.353c-0.012,0.59-0.022,1.241-0.03,1.953
					c-0.009,0.712-0.016,1.444-0.022,2.195c-0.006,0.751-0.008,1.439-0.008,2.063c0,0.673,0.002,1.278,0.008,1.814
					c0.006,0.537,0.012,1.088,0.017,1.653c-0.115-0.02-0.227-0.029-0.337-0.029c-0.103,0-0.213,0.01-0.328,0.029l0.025-1.39H125.583
					z M123.24,38.602c0.071,0.381,0.164,0.685,0.276,0.915c0.112,0.229,0.24,0.388,0.384,0.475c0.144,0.088,0.285,0.132,0.423,0.132
					c0.224,0,0.417-0.095,0.578-0.285c0.161-0.19,0.295-0.439,0.401-0.746c0.106-0.307,0.184-0.656,0.233-1.046
					c0.048-0.39,0.073-0.78,0.073-1.17c0-0.936-0.106-1.651-0.319-2.144c-0.213-0.492-0.527-0.739-0.941-0.739
					c-0.207,0-0.387,0.08-0.539,0.241c-0.153,0.161-0.279,0.385-0.38,0.673c-0.1,0.288-0.175,0.624-0.224,1.009
					c-0.049,0.386-0.073,0.797-0.073,1.236C123.132,37.739,123.168,38.222,123.24,38.602z"/>
				<path style="fill:#002D73;" d="M127.616,34.403c0.337-0.683,0.827-1.024,1.472-1.024c0.305,0,0.569,0.081,0.79,0.241
					c0.221,0.161,0.407,0.376,0.557,0.644c0.149,0.268,0.26,0.583,0.332,0.944c0.072,0.361,0.108,0.746,0.108,1.156
					c0,0.098-0.002,0.193-0.005,0.285c-0.003,0.093-0.007,0.188-0.013,0.285c-0.311-0.01-0.619-0.019-0.923-0.029
					c-0.305-0.01-0.613-0.015-0.923-0.015c-0.19,0-0.379,0.005-0.566,0.015c-0.187,0.01-0.376,0.02-0.566,0.029
					c-0.006,0.049-0.008,0.122-0.008,0.219v0.19c0,0.38,0.033,0.737,0.099,1.068c0.066,0.332,0.162,0.617,0.289,0.856
					c0.126,0.239,0.282,0.429,0.466,0.57c0.184,0.142,0.397,0.212,0.639,0.212c0.115,0,0.233-0.027,0.354-0.081
					c0.121-0.053,0.239-0.127,0.354-0.219c0.115-0.093,0.223-0.202,0.324-0.329c0.101-0.127,0.188-0.263,0.263-0.41l0.043,0.044
					l-0.052,0.717c-0.172,0.234-0.387,0.434-0.643,0.6c-0.256,0.166-0.522,0.249-0.798,0.249c-0.311,0-0.595-0.08-0.85-0.241
					c-0.256-0.161-0.478-0.395-0.665-0.702c-0.187-0.307-0.331-0.671-0.432-1.09c-0.101-0.419-0.151-0.873-0.151-1.361
					C127.111,36.027,127.279,35.086,127.616,34.403z M128.566,34.096c-0.147,0.166-0.268,0.373-0.363,0.622
					c-0.094,0.249-0.166,0.522-0.215,0.819c-0.049,0.298-0.079,0.578-0.091,0.841c0.178,0.01,0.364,0.02,0.557,0.029
					c0.193,0.01,0.381,0.015,0.566,0.015c0.19,0,0.383-0.005,0.579-0.015c0.195-0.01,0.386-0.019,0.57-0.029
					c0-0.263-0.013-0.541-0.039-0.834c-0.026-0.293-0.078-0.566-0.155-0.819c-0.078-0.254-0.186-0.463-0.324-0.629
					c-0.138-0.166-0.319-0.249-0.544-0.249C128.892,33.847,128.712,33.93,128.566,34.096z"/>
				<path style="fill:#002D73;" d="M133.59,34.564c-0.083-0.049-0.168-0.073-0.254-0.073c-0.138,0-0.262,0.054-0.371,0.161
					c-0.109,0.107-0.201,0.251-0.276,0.432c-0.075,0.181-0.132,0.395-0.172,0.644c-0.041,0.249-0.061,0.515-0.061,0.797v1.609
					c0,0.654,0.002,1.154,0.005,1.5c0.002,0.346,0.013,0.627,0.03,0.841c-0.115-0.02-0.23-0.029-0.345-0.029
					c-0.127,0-0.247,0.01-0.363,0.029c0.017-0.332,0.027-0.783,0.03-1.353c0.003-0.57,0.004-1.27,0.004-2.1v-0.468
					c0-0.38-0.001-0.819-0.004-1.317c-0.003-0.497-0.013-1.068-0.03-1.712c0.063,0.02,0.123,0.036,0.181,0.051
					c0.057,0.015,0.118,0.022,0.181,0.022c0.052,0,0.106-0.007,0.164-0.022c0.057-0.015,0.118-0.032,0.181-0.051
					c-0.023,0.351-0.036,0.629-0.039,0.834c-0.003,0.205-0.004,0.4-0.004,0.585l0.017,0.015c0.339-1.053,0.719-1.58,1.139-1.58
					c0.052,0,0.096,0.005,0.134,0.015c0.037,0.01,0.084,0.034,0.142,0.073c-0.029,0.117-0.046,0.295-0.052,0.534
					c-0.006,0.239-0.009,0.456-0.009,0.651l-0.06,0.073C133.729,34.666,133.673,34.613,133.59,34.564z"/>
				<path style="fill:#002D73;" d="M134.833,40.76c0.135-0.444,0.24-0.902,0.315-1.375c0.074-0.473,0.126-0.961,0.155-1.463
					c0.029-0.502,0.043-1.031,0.043-1.587c0-0.556-0.014-1.085-0.043-1.587c-0.029-0.502-0.081-0.99-0.155-1.463
					c-0.075-0.473-0.18-0.939-0.315-1.397c-0.135-0.458-0.309-0.922-0.522-1.39l0.172-0.263c0.466,0.849,0.816,1.797,1.049,2.846
					c0.233,1.049,0.35,2.134,0.35,3.255c0,1.083-0.118,2.153-0.354,3.212c-0.236,1.058-0.584,2.007-1.044,2.846l-0.172-0.263
					C134.523,41.66,134.697,41.204,134.833,40.76z"/>
			</g>
		</g>
		<path style="fill:#002D73;" d="M13.596,6.322c0-2.414,0-2.845-0.031-3.342c-0.033-0.526-0.153-0.773-0.666-0.883
			c-0.125-0.031-0.384-0.048-0.525-0.048c-0.063,0-0.122-0.028-0.122-0.091c0-0.09,0.075-0.123,0.248-0.123
			c0.696,0,1.67,0.046,1.749,0.046c0.17,0,1.345-0.046,1.825-0.046c0.975,0,2.011,0.096,2.829,0.68
			c0.39,0.281,1.067,1.037,1.067,2.108c0,1.14-0.477,2.285-1.871,3.574c1.271,1.623,2.345,2.981,3.223,3.959
			c6.268,7.031,17.177,2.556,17.177,2.602c0,0.095-12.663,6.087-19.762-3.79c-0.627-0.872-1.378-1.888-1.687-2.294
			c-0.06-0.059-0.108-0.093-0.203-0.093l-1.901-0.029c-0.078,0-0.109,0.045-0.109,0.121v0.372c0,1.487,0,2.709,0.076,3.359
			c0.048,0.448,0.141,0.79,0.605,0.853c0.217,0.03,0.556,0.061,0.697,0.061c0.09,0,0.121,0.048,0.121,0.092
			c0,0.07-0.078,0.127-0.248,0.127c-0.853,0-1.825-0.057-1.902-0.057c-0.016,0-0.991,0.057-1.455,0.057
			c-0.169,0-0.248-0.037-0.248-0.127c0-0.044,0.033-0.092,0.124-0.092c0.14,0,0.325-0.031,0.464-0.061
			c0.309-0.063,0.388-0.405,0.449-0.853c0.077-0.65,0.077-1.872,0.077-3.359V6.322z M14.836,7.669c0,0.077,0.031,0.143,0.109,0.186
			c0.231,0.139,0.94,0.246,1.623,0.246c0.372,0,0.805-0.047,1.16-0.289c0.541-0.378,0.945-1.209,0.945-2.384
			c0-1.936-1.022-3.099-2.678-3.099c-0.464,0-0.881,0.049-1.035,0.095c-0.077,0.029-0.124,0.09-0.124,0.182V7.669z"/>
		<path style="fill:#002D73;" d="M1.575,5.241c0-2.817,0-3.324-0.036-3.905c-0.037-0.615-0.183-0.902-0.78-1.03
			C0.616,0.268,0.308,0.254,0.145,0.254C0.074,0.254,0,0.216,0,0.142C0,0.035,0.092,0,0.293,0c0.81,0,1.95,0.051,2.041,0.051
			C2.768,0.051,3.471,0,4.302,0c2.967,0,3.619,1.81,3.619,2.712c0,1.481-0.849,2.367-1.7,3.254c1.34,0.417,3.13,1.699,3.13,3.812
			c0,1.937-1.52,3.943-4.609,3.943c-0.418,0-2.263-0.107-2.407-0.107c-0.091,0-1.231,0.052-1.771,0.052
			c-0.2,0-0.288-0.033-0.288-0.133c0-0.063,0.032-0.119,0.143-0.119c0.16,0,0.379-0.039,0.543-0.075
			c0.36-0.072,0.452-0.47,0.523-0.992c0.092-0.758,0.092-2.187,0.092-3.924V5.241z M3.022,5.64c0,0.125,0.035,0.162,0.126,0.197
			c0.109,0.017,0.433,0.074,1.104,0.074c1.011,0,1.264-0.036,1.647-0.472c0.376-0.432,0.647-1.08,0.647-1.825
			c0-1.502-0.669-3.112-2.438-3.112c-0.202,0-0.579,0.022-0.869,0.093C3.077,0.63,3.022,0.687,3.022,0.793V5.64z M3.022,7.554
			c0,1.393,0,3.638,0.019,3.906c0.052,0.888,0.052,1.141,0.614,1.41c0.487,0.235,1.265,0.274,1.59,0.274
			c0.976,0,2.549-0.524,2.549-2.568c0-1.083-0.359-2.657-1.753-3.615C5.427,6.545,4.973,6.49,4.541,6.436
			C4.302,6.4,3.4,6.4,3.13,6.4c-0.073,0-0.108,0.037-0.108,0.126V7.554z"/>
		<path style="fill:#002D73;" d="M25.967,6.373c0-2.439,0-2.879-0.034-3.381c-0.03-0.533-0.157-0.782-0.67-0.889
			c-0.124-0.032-0.39-0.05-0.533-0.05c-0.063,0-0.125-0.028-0.125-0.09c0-0.095,0.077-0.127,0.252-0.127
			c0.702,0,1.688,0.048,1.766,0.048c0.11,0,3.221,0,3.582-0.015c0.298-0.016,0.55-0.049,0.671-0.079
			c0.08-0.017,0.144-0.081,0.22-0.081c0.046,0,0.063,0.065,0.063,0.144c0,0.11-0.077,0.297-0.124,0.736
			c-0.015,0.155-0.047,0.844-0.079,1.032c-0.013,0.076-0.046,0.173-0.109,0.173c-0.093,0-0.126-0.082-0.126-0.206
			c0-0.109-0.013-0.374-0.093-0.559c-0.113-0.255-0.265-0.439-1.11-0.534c-0.267-0.035-1.972-0.048-2.143-0.048
			c-0.064,0-0.093,0.048-0.093,0.158v4.316c0,0.11,0.015,0.157,0.093,0.157c0.203,0,2.125,0,2.488-0.033
			c0.374-0.031,0.593-0.059,0.734-0.216c0.112-0.128,0.171-0.204,0.237-0.204c0.043,0,0.077,0.032,0.077,0.124
			c0,0.093-0.077,0.361-0.126,0.874c-0.029,0.313-0.063,0.895-0.063,1.001c0,0.127,0,0.3-0.108,0.3c-0.08,0-0.11-0.065-0.11-0.141
			c0-0.159,0-0.316-0.064-0.519c-0.06-0.219-0.203-0.483-0.812-0.547c-0.423-0.047-1.973-0.075-2.237-0.075
			c-0.08,0-0.109,0.045-0.109,0.109v1.377c0,0.529-0.016,2.344,0,2.672c0.046,1.081,0.28,1.285,1.811,1.285
			c0.408,0,1.095,0,1.504-0.171c0.405-0.174,0.596-0.486,0.705-1.129c0.027-0.172,0.063-0.234,0.139-0.234
			c0.094,0,0.094,0.124,0.094,0.234c0,0.127-0.125,1.19-0.206,1.518c-0.105,0.406-0.232,0.406-0.842,0.406
			c-2.362,0-3.408-0.092-3.863-0.092c-0.078,0-1.063,0.047-1.533,0.047c-0.172,0-0.249-0.028-0.249-0.126
			c0-0.056,0.033-0.1,0.125-0.1c0.143,0,0.326-0.025,0.468-0.06c0.315-0.059,0.392-0.404,0.454-0.859
			c0.079-0.657,0.079-1.89,0.079-3.391V6.373z"/>
		<path style="fill:#002D73;" d="M41.194,1.593c3.619,0,6.357,2.212,6.357,5.829c0,3.474-2.572,6.342-6.448,6.342
			c-4.406,0-6.287-3.308-6.287-6.103C34.815,5.156,36.752,1.593,41.194,1.593 M41.558,13.127c1.446,0,4.347-0.767,4.347-5.26
			c0-3.734-2.262-5.69-4.802-5.69c-2.685,0-4.625,1.68-4.625,5.065C36.478,10.86,38.652,13.127,41.558,13.127"/>
		<path style="fill:#002D73;" d="M54.226,9.037c0-1.514,0-1.787-0.021-2.097c-0.024-0.333-0.083-0.492-0.413-0.536
			c-0.08-0.013-0.251-0.024-0.341-0.024c-0.035,0-0.084-0.046-0.084-0.079c0-0.06,0.049-0.08,0.161-0.08
			c0.458,0,1.112,0.02,1.168,0.02c0.068,0,2.173,0.014,2.403,0c0.194-0.01,0.377-0.043,0.459-0.054
			c0.044-0.009,0.09-0.047,0.136-0.047c0.036,0,0.046,0.047,0.046,0.091c0,0.07-0.058,0.185-0.081,0.459
			c-0.01,0.092-0.033,0.525-0.056,0.641c-0.014,0.046-0.044,0.103-0.091,0.103c-0.057,0-0.081-0.047-0.081-0.126
			c0-0.07-0.01-0.228-0.057-0.344c-0.068-0.16-0.172-0.228-0.721-0.298C56.48,6.646,55.315,6.632,55.2,6.632
			c-0.047,0-0.057,0.035-0.057,0.105v2.642c0,0.071,0,0.103,0.057,0.103c0.127,0,1.452,0,1.683-0.024
			c0.24-0.022,0.388-0.035,0.49-0.134c0.069-0.068,0.114-0.126,0.15-0.126c0.036,0,0.058,0.018,0.058,0.079
			c0,0.058-0.058,0.219-0.081,0.538c-0.022,0.194-0.044,0.561-0.044,0.628c0,0.082-0.025,0.184-0.092,0.184
			c-0.045,0-0.069-0.036-0.069-0.093c0-0.092,0-0.191-0.045-0.318c-0.036-0.14-0.126-0.256-0.518-0.298
			c-0.27-0.035-1.347-0.045-1.518-0.045c-0.059,0-0.069,0.033-0.069,0.067v0.812c0,0.334-0.011,1.464,0,1.66
			c0.022,0.653,0.204,0.777,1.201,0.777c0.264,0,0.742,0,1.007-0.105c0.262-0.113,0.397-0.284,0.457-0.673
			c0.023-0.115,0.044-0.147,0.101-0.147c0.059,0,0.071,0.077,0.071,0.147c0,0.066-0.08,0.73-0.138,0.94
			C57.774,13.6,57.67,13.6,57.281,13.6c-0.752,0-1.337-0.023-1.749-0.034c-0.424-0.025-0.685-0.025-0.835-0.025
			c-0.024,0-0.216,0-0.435,0.012c-0.195,0.012-0.423,0.024-0.585,0.024c-0.1,0-0.158-0.024-0.158-0.08
			c0-0.032,0.023-0.076,0.08-0.076c0.091,0,0.216-0.044,0.308-0.059c0.195-0.029,0.216-0.221,0.265-0.506
			c0.055-0.4,0.055-1.168,0.055-2.105V9.037z"/>
		<path style="fill:#002D73;" d="M61.559,10.773c0,1.431,0.021,2.014,0.206,2.184c0.16,0.164,0.549,0.231,1.337,0.231
			c0.528,0,0.973-0.013,1.216-0.297c0.125-0.15,0.204-0.355,0.239-0.551c0.011-0.067,0.044-0.125,0.101-0.125
			c0.047,0,0.071,0.048,0.071,0.148c0,0.103-0.071,0.688-0.149,0.971c-0.07,0.232-0.103,0.267-0.642,0.267
			c-0.721,0-1.28-0.011-1.751-0.035c-0.456-0.012-0.801-0.024-1.097-0.024c-0.046,0-0.216,0-0.413,0.012
			c-0.205,0.012-0.423,0.024-0.583,0.024c-0.102,0-0.16-0.024-0.16-0.079c0-0.032,0.022-0.076,0.08-0.076
			c0.092,0,0.217-0.025,0.307-0.06c0.197-0.04,0.22-0.221,0.263-0.506c0.061-0.401,0.061-1.169,0.061-2.105V9.037
			c0-1.514,0-1.786-0.023-2.096c-0.024-0.333-0.08-0.493-0.414-0.536c-0.081-0.013-0.251-0.024-0.342-0.024
			c-0.036,0-0.08-0.047-0.08-0.08c0-0.061,0.044-0.081,0.159-0.081c0.46,0,1.091,0.02,1.146,0.02c0.047,0,0.802-0.02,1.109-0.02
			c0.102,0,0.16,0.02,0.16,0.081c0,0.033-0.045,0.068-0.081,0.068c-0.066,0-0.217,0.012-0.33,0.023
			c-0.296,0.056-0.356,0.207-0.38,0.548c-0.009,0.31-0.009,0.583-0.009,2.096V10.773z"/>
		<path style="fill:#002D73;" d="M67.609,10.773c0,1.431,0.021,2.014,0.202,2.184c0.164,0.164,0.552,0.231,1.338,0.231
			c0.53,0,0.978-0.013,1.218-0.297c0.123-0.15,0.202-0.355,0.24-0.551c0.01-0.067,0.043-0.125,0.1-0.125
			c0.046,0,0.068,0.048,0.068,0.148c0,0.103-0.068,0.688-0.144,0.971c-0.073,0.232-0.106,0.267-0.644,0.267
			c-0.723,0-1.281-0.011-1.75-0.035c-0.456-0.012-0.804-0.024-1.097-0.024c-0.049,0-0.219,0-0.414,0.012
			c-0.205,0.012-0.421,0.024-0.583,0.024c-0.1,0-0.16-0.024-0.16-0.079c0-0.032,0.021-0.076,0.078-0.076
			c0.091,0,0.22-0.025,0.307-0.06c0.197-0.04,0.22-0.221,0.264-0.506c0.059-0.401,0.059-1.169,0.059-2.105V9.037
			c0-1.514,0-1.786-0.022-2.096c-0.022-0.333-0.081-0.493-0.413-0.536c-0.08-0.013-0.252-0.024-0.344-0.024
			c-0.033,0-0.078-0.047-0.078-0.08c0-0.061,0.045-0.081,0.16-0.081c0.457,0,1.086,0.02,1.146,0.02c0.043,0,0.8-0.02,1.107-0.02
			c0.104,0,0.16,0.02,0.16,0.081c0,0.033-0.045,0.068-0.079,0.068c-0.068,0-0.217,0.012-0.332,0.023
			C67.7,6.448,67.643,6.6,67.621,6.941c-0.012,0.31-0.012,0.583-0.012,2.096V10.773z"/>
		<path style="fill:#002D73;" d="M73.729,10.751c0,0.939,0,1.704,0.042,2.105c0.036,0.284,0.072,0.465,0.368,0.506
			c0.147,0.034,0.367,0.06,0.459,0.06c0.053,0,0.08,0.044,0.08,0.076c0,0.044-0.048,0.08-0.162,0.08
			c-0.56,0-1.213-0.036-1.258-0.036c-0.059,0-0.688,0.036-0.998,0.036c-0.099,0-0.159-0.024-0.159-0.08
			c0-0.032,0.022-0.076,0.08-0.076c0.093,0,0.219-0.025,0.31-0.06c0.195-0.041,0.228-0.221,0.261-0.506
			c0.048-0.401,0.057-1.166,0.057-2.105V9.038c0-1.514,0-1.787-0.022-2.097c-0.021-0.333-0.101-0.48-0.32-0.525
			c-0.115-0.023-0.239-0.035-0.305-0.035c-0.047,0-0.082-0.047-0.082-0.079c0-0.061,0.043-0.08,0.161-0.08
			c0.329,0,0.958,0.02,1.017,0.02c0.045,0,0.698-0.02,1.007-0.02c0.113,0,0.16,0.02,0.16,0.08c0,0.033-0.047,0.079-0.081,0.079
			c-0.069,0-0.137,0-0.25,0.024c-0.275,0.056-0.333,0.194-0.355,0.536c-0.01,0.31-0.01,0.583-0.01,2.097V10.751z"/>
		<path style="fill:#002D73;" d="M77.431,9.037c0-1.514,0-1.787-0.024-2.097c-0.021-0.333-0.079-0.492-0.414-0.536
			c-0.078-0.013-0.251-0.024-0.342-0.024c-0.035,0-0.079-0.046-0.079-0.079c0-0.06,0.044-0.08,0.16-0.08
			c0.458,0,1.085,0.02,1.168,0.02c0.217,0,0.969-0.02,1.43-0.02c1.292,0,1.751,0.401,1.921,0.551
			c0.231,0.203,0.502,0.637,0.502,1.168c0,1.393-1.052,2.318-2.595,2.318c-0.057,0-0.229,0-0.289-0.009
			c-0.041,0-0.102-0.049-0.102-0.092c0-0.082,0.061-0.103,0.263-0.103c1.088,0,1.866-0.688,1.866-1.569
			c0-0.32-0.037-0.951-0.574-1.474c-0.527-0.529-1.131-0.47-1.36-0.47c-0.172,0-0.458,0.045-0.562,0.066
			c-0.056,0.014-0.08,0.083-0.08,0.186v3.957c0,0.937,0,1.705,0.047,2.105c0.033,0.285,0.091,0.465,0.399,0.506
			c0.137,0.034,0.355,0.059,0.446,0.059c0.057,0,0.08,0.044,0.08,0.076c0,0.044-0.046,0.08-0.161,0.08
			c-0.549,0-1.21-0.036-1.258-0.036c-0.033,0-0.686,0.036-0.992,0.036c-0.106,0-0.163-0.024-0.163-0.08
			c0-0.032,0.022-0.076,0.08-0.076c0.09,0,0.216-0.025,0.308-0.059c0.195-0.041,0.219-0.221,0.264-0.506
			c0.058-0.4,0.058-1.168,0.058-2.105V9.037z"/>
		<path style="fill:#002D73;" d="M86.277,10.776c0,0.939,0,1.704,0.045,2.105c0.037,0.285,0.081,0.465,0.39,0.506
			c0.138,0.034,0.364,0.06,0.459,0.06c0.068,0,0.079,0.044,0.079,0.076c0,0.044-0.045,0.08-0.161,0.08
			c-0.547,0-1.192-0.036-1.248-0.036c-0.044,0-0.742,0.036-1.04,0.036c-0.116,0-0.159-0.024-0.159-0.08
			c0-0.032,0.021-0.075,0.076-0.075c0.093,0,0.205-0.006,0.299-0.044c0.206-0.044,0.263-0.237,0.296-0.522
			c0.05-0.401,0.05-1.166,0.05-2.105V6.693l-1.455,0.023c-0.631,0.009-0.87,0.082-1.017,0.307c-0.116,0.173-0.126,0.242-0.16,0.311
			c-0.023,0.079-0.059,0.089-0.106,0.089c-0.023,0-0.067-0.021-0.067-0.077c0-0.105,0.207-0.973,0.217-1.051
			c0.022-0.058,0.068-0.186,0.103-0.186c0.068,0,0.172,0.08,0.445,0.115c0.286,0.033,0.675,0.043,0.79,0.043h3.62
			c0.33,0,0.559-0.02,0.721-0.043c0.149-0.02,0.241-0.045,0.284-0.045c0.044,0,0.044,0.057,0.044,0.116
			c0,0.294-0.032,0.994-0.032,1.107c0,0.078-0.044,0.125-0.092,0.125c-0.044,0-0.068-0.035-0.076-0.171l-0.016-0.103
			c-0.032-0.298-0.251-0.514-1.212-0.538l-1.077-0.023V10.776z"/>
		<path style="fill:#002D73;" d="M91.826,6.441c0.126-0.322,0.173-0.378,0.238-0.378c0.104,0,0.139,0.141,0.243,0.355
			c0.182,0.412,1.792,4.429,2.413,5.903c0.365,0.87,0.641,0.993,0.859,1.066c0.148,0.054,0.296,0.059,0.398,0.059
			c0.059,0,0.128,0.018,0.128,0.076c0,0.056-0.116,0.079-0.231,0.079c-0.148,0-0.893,0-1.59-0.024
			c-0.194-0.012-0.355-0.012-0.355-0.069c0-0.045,0.022-0.045,0.069-0.063c0.055-0.025,0.16-0.111,0.092-0.268l-0.904-2.23
			c-0.022-0.048-0.034-0.056-0.095-0.056h-2.32c-0.045,0-0.079,0.019-0.101,0.079l-0.574,1.557c-0.09,0.238-0.146,0.479-0.146,0.651
			c0,0.197,0.171,0.268,0.343,0.268h0.089c0.082,0,0.106,0.034,0.106,0.076c0,0.056-0.059,0.079-0.151,0.079
			c-0.24,0-0.79-0.036-0.904-0.036c-0.102,0-0.605,0.036-1.018,0.036c-0.123,0-0.193-0.024-0.193-0.079
			c0-0.042,0.044-0.076,0.092-0.076c0.068,0,0.216-0.006,0.297-0.025c0.456-0.063,0.65-0.404,0.847-0.893L91.826,6.441z
			 M92.948,10.491c0.043,0,0.043-0.024,0.035-0.068l-0.996-2.661c-0.057-0.154-0.115-0.154-0.171,0l-0.941,2.661
			c-0.009,0.044,0,0.068,0.037,0.068H92.948z"/>
		<g>
			<path style="fill:#002D73;" d="M96.577,5.899c0.948,0,1.742,0.748,1.742,1.728c0,0.999-0.794,1.746-1.742,1.746
				c-0.952,0-1.751-0.748-1.751-1.746C94.825,6.647,95.625,5.899,96.577,5.899z M96.577,9.118c0.804,0,1.426-0.641,1.426-1.491
				c0-0.832-0.623-1.473-1.426-1.473c-0.813,0-1.435,0.641-1.435,1.473C95.141,8.477,95.764,9.118,96.577,9.118z M95.899,6.619
				h0.785c0.483,0,0.711,0.19,0.711,0.581c0,0.367-0.232,0.52-0.534,0.553l0.581,0.896h-0.339l-0.553-0.873h-0.334v0.873h-0.316
				V6.619z M96.214,7.52h0.33c0.279,0,0.534-0.014,0.534-0.334c0-0.27-0.232-0.311-0.446-0.311h-0.418V7.52z"/>
		</g>
		<g>
			<path style="fill:#002D73;" d="M49.835,2.127c0.948,0,1.742,0.748,1.742,1.728c0,0.999-0.794,1.746-1.742,1.746
				c-0.952,0-1.751-0.748-1.751-1.746C48.084,2.875,48.883,2.127,49.835,2.127z M49.835,5.346c0.804,0,1.426-0.641,1.426-1.491
				c0-0.832-0.623-1.472-1.426-1.472c-0.813,0-1.435,0.641-1.435,1.472C48.4,4.705,49.022,5.346,49.835,5.346z M49.157,2.847h0.785
				c0.483,0,0.711,0.19,0.711,0.581c0,0.367-0.232,0.52-0.534,0.553l0.581,0.896H50.36l-0.553-0.873h-0.334v0.873h-0.316V2.847z
				 M49.473,3.748h0.33c0.279,0,0.534-0.014,0.534-0.334c0-0.27-0.232-0.311-0.446-0.311h-0.418V3.748z"/>
		</g>
	</g>
</g>
<g id="A6">
</g>
<g id="A7">
</g>
<g id="A8">
</g>
<g id="Layer_13">
</g>
</svg>
