<?xml version="1.0" encoding="utf-8"?>
<!-- Generator: Adobe Illustrator 19.1.0, SVG Export Plug-In . SVG Version: 6.00 Build 0)  -->
<svg version="1.1" id="Layer_1" xmlns="http://www.w3.org/2000/svg" xmlns:xlink="http://www.w3.org/1999/xlink" x="0px" y="0px"
	 viewBox="0 0 142.9 46.7" style="enable-background:new 0 0 142.9 46.7;" xml:space="preserve">
<style type="text/css">
	.st0{fill:url(#SVGID_2_);}
	.st1{opacity:0.44;fill:url(#SVGID_3_);}
	.st2{opacity:0.74;fill:url(#SVGID_4_);}
	.st3{opacity:0.65;fill:url(#SVGID_5_);}
	.st4{opacity:0.89;fill:url(#SVGID_6_);}
	.st5{fill:#002D73;}
	.st6{fill:none;stroke:#002D73;stroke-miterlimit:10;}
	.st7{opacity:0.5;fill:url(#SVGID_7_);}
	.st8{fill:url(#SVGID_8_);}
	.st9{clip-path:url(#SVGID_9_);fill:none;stroke:#002D73;stroke-width:2.5153;stroke-linecap:round;stroke-miterlimit:10;}
	.st10{fill:url(#SVGID_12_);stroke:#FFFFFF;stroke-width:1.3048;stroke-miterlimit:10;}
	.st11{fill:#FFFFFF;}
	.st12{fill:#231F20;}
	.st13{clip-path:url(#SVGID_14_);fill:#231F20;}
	.st14{clip-path:url(#SVGID_14_);fill:#6FA5D9;}
	.st15{clip-path:url(#SVGID_14_);fill:#007AC1;}
	.st16{fill:#58595B;}
	.st17{clip-path:url(#SVGID_16_);fill:#F27021;}
	.st18{clip-path:url(#SVGID_18_);}
	.st19{clip-path:url(#SVGID_20_);}
	.st20{clip-path:url(#SVGID_24_);}
	.st21{clip-path:url(#SVGID_26_);}
	.st22{clip-path:url(#SVGID_30_);}
	.st23{clip-path:url(#SVGID_32_);}
	.st24{clip-path:url(#SVGID_36_);}
	.st25{clip-path:url(#SVGID_38_);}
	.st26{clip-path:url(#SVGID_42_);}
	.st27{clip-path:url(#SVGID_44_);}
	.st28{clip-path:url(#SVGID_48_);}
	.st29{clip-path:url(#SVGID_50_);}
	.st30{clip-path:url(#SVGID_54_);}
	.st31{clip-path:url(#SVGID_56_);}
	.st32{clip-path:url(#SVGID_58_);}
	.st33{clip-path:url(#SVGID_62_);}
	.st34{clip-path:url(#SVGID_64_);}
	.st35{clip-path:url(#SVGID_66_);}
	.st36{clip-path:url(#SVGID_70_);}
	.st37{clip-path:url(#SVGID_72_);}
	.st38{clip-path:url(#SVGID_74_);}
	.st39{clip-path:url(#SVGID_78_);}
	.st40{clip-path:url(#SVGID_80_);}
	.st41{clip-path:url(#SVGID_82_);}
	.st42{clip-path:url(#SVGID_86_);}
	.st43{clip-path:url(#SVGID_88_);}
	.st44{clip-path:url(#SVGID_92_);}
	.st45{clip-path:url(#SVGID_94_);}
	.st46{clip-path:url(#SVGID_98_);}
	.st47{clip-path:url(#SVGID_100_);}
	.st48{clip-path:url(#SVGID_104_);}
	.st49{clip-path:url(#SVGID_106_);}
	.st50{clip-path:url(#SVGID_110_);}
	.st51{clip-path:url(#SVGID_112_);}
	.st52{clip-path:url(#SVGID_116_);}
	.st53{clip-path:url(#SVGID_118_);}
	.st54{clip-path:url(#SVGID_122_);}
	.st55{clip-path:url(#SVGID_124_);}
	.st56{clip-path:url(#SVGID_128_);}
	.st57{clip-path:url(#SVGID_130_);}
	.st58{clip-path:url(#SVGID_134_);}
	.st59{clip-path:url(#SVGID_136_);}
	.st60{clip-path:url(#SVGID_140_);}
	.st61{clip-path:url(#SVGID_142_);}
	.st62{clip-path:url(#SVGID_146_);}
	.st63{clip-path:url(#SVGID_148_);}
	.st64{clip-path:url(#SVGID_152_);}
	.st65{clip-path:url(#SVGID_154_);}
	.st66{clip-path:url(#SVGID_158_);}
	.st67{clip-path:url(#SVGID_160_);}
	.st68{clip-path:url(#SVGID_164_);}
	.st69{clip-path:url(#SVGID_166_);}
	.st70{clip-path:url(#SVGID_170_);}
	.st71{clip-path:url(#SVGID_172_);}
	.st72{clip-path:url(#SVGID_176_);}
	.st73{clip-path:url(#SVGID_178_);}
	.st74{clip-path:url(#SVGID_182_);}
	.st75{clip-path:url(#SVGID_184_);}
	.st76{clip-path:url(#SVGID_188_);}
	.st77{clip-path:url(#SVGID_190_);}
	.st78{clip-path:url(#SVGID_194_);}
	.st79{clip-path:url(#SVGID_196_);}
	.st80{clip-path:url(#SVGID_200_);}
	.st81{clip-path:url(#SVGID_202_);}
	.st82{clip-path:url(#SVGID_206_);}
	.st83{clip-path:url(#SVGID_208_);}
	.st84{clip-path:url(#SVGID_212_);}
	.st85{clip-path:url(#SVGID_214_);}
	.st86{clip-path:url(#SVGID_218_);}
	.st87{clip-path:url(#SVGID_220_);}
	.st88{clip-path:url(#SVGID_224_);}
	.st89{clip-path:url(#SVGID_226_);}
	.st90{clip-path:url(#SVGID_230_);}
	.st91{clip-path:url(#SVGID_232_);}
	.st92{clip-path:url(#SVGID_236_);}
	.st93{clip-path:url(#SVGID_238_);}
	.st94{clip-path:url(#SVGID_240_);}
	.st95{clip-path:url(#SVGID_244_);}
	.st96{clip-path:url(#SVGID_246_);}
	.st97{clip-path:url(#SVGID_250_);}
	.st98{clip-path:url(#SVGID_252_);}
	.st99{clip-path:url(#SVGID_256_);}
	.st100{clip-path:url(#SVGID_258_);}
	.st101{clip-path:url(#SVGID_262_);}
	.st102{clip-path:url(#SVGID_264_);}
	.st103{clip-path:url(#SVGID_268_);}
	.st104{clip-path:url(#SVGID_270_);}
	.st105{clip-path:url(#SVGID_274_);}
	.st106{clip-path:url(#SVGID_276_);}
	.st107{clip-path:url(#SVGID_280_);}
	.st108{clip-path:url(#SVGID_282_);}
	.st109{clip-path:url(#SVGID_286_);}
	.st110{clip-path:url(#SVGID_288_);}
	.st111{clip-path:url(#SVGID_292_);}
	.st112{clip-path:url(#SVGID_294_);}
	.st113{clip-path:url(#SVGID_298_);}
	.st114{clip-path:url(#SVGID_300_);}
	.st115{clip-path:url(#SVGID_302_);}
	.st116{clip-path:url(#SVGID_306_);}
	.st117{clip-path:url(#SVGID_308_);}
	.st118{clip-path:url(#SVGID_312_);}
	.st119{clip-path:url(#SVGID_314_);}
	.st120{clip-path:url(#SVGID_318_);}
	.st121{clip-path:url(#SVGID_320_);}
	.st122{clip-path:url(#SVGID_324_);}
	.st123{clip-path:url(#SVGID_326_);}
	.st124{clip-path:url(#SVGID_330_);}
	.st125{clip-path:url(#SVGID_332_);}
	.st126{clip-path:url(#SVGID_336_);}
	.st127{clip-path:url(#SVGID_338_);}
	.st128{clip-path:url(#SVGID_342_);}
	.st129{clip-path:url(#SVGID_344_);}
	.st130{clip-path:url(#SVGID_348_);}
	.st131{clip-path:url(#SVGID_350_);}
	.st132{clip-path:url(#SVGID_354_);}
	.st133{clip-path:url(#SVGID_356_);}
	.st134{clip-path:url(#SVGID_360_);}
	.st135{clip-path:url(#SVGID_362_);}
	.st136{clip-path:url(#SVGID_366_);}
	.st137{clip-path:url(#SVGID_368_);}
	.st138{clip-path:url(#SVGID_372_);}
	.st139{clip-path:url(#SVGID_374_);}
	.st140{clip-path:url(#SVGID_378_);}
	.st141{clip-path:url(#SVGID_380_);}
	.st142{clip-path:url(#SVGID_384_);}
	.st143{clip-path:url(#SVGID_386_);}
	.st144{clip-path:url(#SVGID_390_);}
	.st145{clip-path:url(#SVGID_392_);}
	.st146{clip-path:url(#SVGID_396_);}
	.st147{clip-path:url(#SVGID_398_);}
	.st148{clip-path:url(#SVGID_402_);}
	.st149{clip-path:url(#SVGID_404_);}
	.st150{clip-path:url(#SVGID_408_);}
	.st151{clip-path:url(#SVGID_410_);}
	.st152{clip-path:url(#SVGID_414_);}
	.st153{clip-path:url(#SVGID_416_);}
	.st154{clip-path:url(#SVGID_420_);}
	.st155{clip-path:url(#SVGID_422_);}
	.st156{clip-path:url(#SVGID_426_);}
	.st157{clip-path:url(#SVGID_428_);}
	.st158{clip-path:url(#SVGID_432_);}
	.st159{clip-path:url(#SVGID_434_);}
	.st160{clip-path:url(#SVGID_438_);}
	.st161{clip-path:url(#SVGID_440_);}
	.st162{clip-path:url(#SVGID_444_);}
	.st163{clip-path:url(#SVGID_446_);}
	.st164{clip-path:url(#SVGID_450_);}
	.st165{clip-path:url(#SVGID_452_);}
	.st166{clip-path:url(#SVGID_456_);}
	.st167{clip-path:url(#SVGID_458_);}
	.st168{clip-path:url(#SVGID_462_);}
	.st169{clip-path:url(#SVGID_464_);}
	.st170{clip-path:url(#SVGID_468_);}
	.st171{clip-path:url(#SVGID_470_);}
	.st172{clip-path:url(#SVGID_474_);}
	.st173{clip-path:url(#SVGID_476_);}
	.st174{clip-path:url(#SVGID_480_);}
	.st175{clip-path:url(#SVGID_482_);}
	.st176{clip-path:url(#SVGID_486_);}
	.st177{clip-path:url(#SVGID_488_);}
	.st178{clip-path:url(#SVGID_492_);}
	.st179{clip-path:url(#SVGID_494_);}
	.st180{clip-path:url(#SVGID_498_);}
	.st181{clip-path:url(#SVGID_500_);}
	.st182{clip-path:url(#SVGID_504_);}
	.st183{clip-path:url(#SVGID_506_);}
	.st184{clip-path:url(#SVGID_510_);}
	.st185{clip-path:url(#SVGID_512_);}
	.st186{clip-path:url(#SVGID_516_);}
	.st187{clip-path:url(#SVGID_518_);}
	.st188{clip-path:url(#SVGID_522_);}
	.st189{clip-path:url(#SVGID_524_);}
	.st190{clip-path:url(#SVGID_528_);}
	.st191{clip-path:url(#SVGID_530_);}
	.st192{clip-path:url(#SVGID_534_);}
	.st193{clip-path:url(#SVGID_536_);}
	.st194{clip-path:url(#SVGID_540_);}
	.st195{clip-path:url(#SVGID_542_);}
	.st196{clip-path:url(#SVGID_546_);}
	.st197{clip-path:url(#SVGID_548_);}
	.st198{clip-path:url(#SVGID_552_);}
	.st199{clip-path:url(#SVGID_554_);}
	.st200{clip-path:url(#SVGID_558_);}
	.st201{clip-path:url(#SVGID_560_);}
	.st202{clip-path:url(#SVGID_564_);}
	.st203{clip-path:url(#SVGID_566_);}
	.st204{clip-path:url(#SVGID_570_);}
	.st205{clip-path:url(#SVGID_572_);}
	.st206{clip-path:url(#SVGID_576_);}
	.st207{clip-path:url(#SVGID_578_);}
	.st208{clip-path:url(#SVGID_582_);}
	.st209{clip-path:url(#SVGID_584_);}
	.st210{clip-path:url(#SVGID_588_);}
	.st211{clip-path:url(#SVGID_590_);}
	.st212{clip-path:url(#SVGID_594_);}
	.st213{clip-path:url(#SVGID_596_);}
	.st214{clip-path:url(#SVGID_600_);}
	.st215{clip-path:url(#SVGID_602_);}
	.st216{clip-path:url(#SVGID_606_);}
	.st217{clip-path:url(#SVGID_608_);}
	.st218{clip-path:url(#SVGID_612_);}
	.st219{clip-path:url(#SVGID_614_);}
	.st220{clip-path:url(#SVGID_618_);}
	.st221{clip-path:url(#SVGID_620_);}
	.st222{clip-path:url(#SVGID_624_);}
	.st223{clip-path:url(#SVGID_626_);}
	.st224{clip-path:url(#SVGID_630_);}
	.st225{clip-path:url(#SVGID_632_);}
	.st226{clip-path:url(#SVGID_636_);}
	.st227{clip-path:url(#SVGID_638_);}
	.st228{clip-path:url(#SVGID_642_);}
	.st229{clip-path:url(#SVGID_644_);}
	.st230{clip-path:url(#SVGID_648_);}
	.st231{clip-path:url(#SVGID_650_);}
	.st232{clip-path:url(#SVGID_654_);}
	.st233{clip-path:url(#SVGID_656_);}
	.st234{clip-path:url(#SVGID_660_);}
	.st235{clip-path:url(#SVGID_662_);}
	.st236{clip-path:url(#SVGID_666_);}
	.st237{clip-path:url(#SVGID_668_);}
	.st238{clip-path:url(#SVGID_672_);}
	.st239{clip-path:url(#SVGID_674_);}
	.st240{clip-path:url(#SVGID_678_);}
	.st241{clip-path:url(#SVGID_680_);}
	.st242{clip-path:url(#SVGID_684_);}
	.st243{clip-path:url(#SVGID_686_);}
	.st244{clip-path:url(#SVGID_688_);}
	.st245{clip-path:url(#SVGID_692_);}
	.st246{clip-path:url(#SVGID_694_);}
	.st247{clip-path:url(#SVGID_698_);}
	.st248{clip-path:url(#SVGID_700_);}
	.st249{clip-path:url(#SVGID_702_);}
	.st250{clip-path:url(#SVGID_706_);}
	.st251{clip-path:url(#SVGID_708_);}
	.st252{clip-path:url(#SVGID_712_);}
	.st253{clip-path:url(#SVGID_714_);}
	.st254{clip-path:url(#SVGID_716_);}
	.st255{clip-path:url(#SVGID_720_);}
	.st256{clip-path:url(#SVGID_722_);}
	.st257{clip-path:url(#SVGID_724_);}
	.st258{clip-path:url(#SVGID_728_);}
	.st259{clip-path:url(#SVGID_730_);}
	.st260{clip-path:url(#SVGID_732_);}
	.st261{clip-path:url(#SVGID_736_);}
	.st262{clip-path:url(#SVGID_738_);}
	.st263{clip-path:url(#SVGID_740_);}
	.st264{clip-path:url(#SVGID_744_);}
	.st265{clip-path:url(#SVGID_746_);}
	.st266{clip-path:url(#SVGID_748_);}
	.st267{clip-path:url(#SVGID_752_);}
	.st268{clip-path:url(#SVGID_754_);}
	.st269{clip-path:url(#SVGID_758_);}
	.st270{clip-path:url(#SVGID_760_);}
	.st271{clip-path:url(#SVGID_762_);}
	.st272{clip-path:url(#SVGID_766_);}
	.st273{clip-path:url(#SVGID_768_);}
	.st274{clip-path:url(#SVGID_770_);}
	.st275{clip-path:url(#SVGID_774_);}
	.st276{clip-path:url(#SVGID_776_);}
	.st277{clip-path:url(#SVGID_778_);}
	.st278{clip-path:url(#SVGID_782_);}
	.st279{clip-path:url(#SVGID_784_);}
	.st280{clip-path:url(#SVGID_786_);}
	.st281{clip-path:url(#SVGID_790_);}
	.st282{clip-path:url(#SVGID_792_);}
	.st283{clip-path:url(#SVGID_794_);}
	.st284{clip-path:url(#SVGID_798_);}
	.st285{clip-path:url(#SVGID_800_);}
	.st286{clip-path:url(#SVGID_804_);}
	.st287{clip-path:url(#SVGID_806_);}
	.st288{clip-path:url(#SVGID_810_);}
	.st289{clip-path:url(#SVGID_812_);}
	.st290{clip-path:url(#SVGID_816_);}
	.st291{clip-path:url(#SVGID_818_);}
	.st292{clip-path:url(#SVGID_822_);}
	.st293{clip-path:url(#SVGID_824_);}
	.st294{clip-path:url(#SVGID_828_);}
	.st295{clip-path:url(#SVGID_830_);}
	.st296{clip-path:url(#SVGID_834_);}
	.st297{clip-path:url(#SVGID_836_);}
	.st298{clip-path:url(#SVGID_840_);}
	.st299{clip-path:url(#SVGID_842_);}
	.st300{clip-path:url(#SVGID_846_);}
	.st301{clip-path:url(#SVGID_848_);}
	.st302{clip-path:url(#SVGID_852_);}
	.st303{clip-path:url(#SVGID_854_);}
	.st304{clip-path:url(#SVGID_858_);}
	.st305{clip-path:url(#SVGID_860_);}
	.st306{clip-path:url(#SVGID_864_);}
	.st307{clip-path:url(#SVGID_866_);}
	.st308{clip-path:url(#SVGID_870_);}
	.st309{clip-path:url(#SVGID_872_);}
	.st310{clip-path:url(#SVGID_876_);}
	.st311{clip-path:url(#SVGID_878_);}
	.st312{clip-path:url(#SVGID_882_);}
	.st313{clip-path:url(#SVGID_884_);}
	.st314{clip-path:url(#SVGID_888_);}
	.st315{clip-path:url(#SVGID_890_);}
	.st316{clip-path:url(#SVGID_894_);}
	.st317{clip-path:url(#SVGID_896_);}
	.st318{clip-path:url(#SVGID_900_);}
	.st319{clip-path:url(#SVGID_902_);}
	.st320{clip-path:url(#SVGID_906_);}
	.st321{clip-path:url(#SVGID_908_);}
	.st322{clip-path:url(#SVGID_912_);}
	.st323{clip-path:url(#SVGID_914_);}
	.st324{clip-path:url(#SVGID_918_);}
	.st325{clip-path:url(#SVGID_920_);}
	.st326{clip-path:url(#SVGID_924_);}
	.st327{clip-path:url(#SVGID_926_);}
	.st328{clip-path:url(#SVGID_930_);}
	.st329{clip-path:url(#SVGID_932_);}
	.st330{clip-path:url(#SVGID_936_);}
	.st331{clip-path:url(#SVGID_938_);}
	.st332{clip-path:url(#SVGID_942_);}
	.st333{clip-path:url(#SVGID_944_);}
	.st334{clip-path:url(#SVGID_948_);}
	.st335{clip-path:url(#SVGID_950_);}
	.st336{clip-path:url(#SVGID_954_);}
	.st337{clip-path:url(#SVGID_956_);}
	.st338{clip-path:url(#SVGID_960_);}
	.st339{clip-path:url(#SVGID_962_);}
	.st340{clip-path:url(#SVGID_966_);}
	.st341{clip-path:url(#SVGID_968_);}
	.st342{clip-path:url(#SVGID_972_);}
	.st343{clip-path:url(#SVGID_974_);}
	.st344{clip-path:url(#SVGID_978_);}
	.st345{clip-path:url(#SVGID_980_);}
	.st346{clip-path:url(#SVGID_984_);}
	.st347{clip-path:url(#SVGID_986_);}
	.st348{clip-path:url(#SVGID_990_);}
	.st349{clip-path:url(#SVGID_992_);}
	.st350{clip-path:url(#SVGID_994_);}
	.st351{clip-path:url(#SVGID_998_);}
	.st352{clip-path:url(#SVGID_1000_);}
	.st353{clip-path:url(#SVGID_1004_);}
	.st354{clip-path:url(#SVGID_1006_);}
	.st355{clip-path:url(#SVGID_1008_);}
	.st356{clip-path:url(#SVGID_1012_);}
	.st357{clip-path:url(#SVGID_1014_);}
	.st358{clip-path:url(#SVGID_1018_);}
	.st359{clip-path:url(#SVGID_1020_);}
	.st360{clip-path:url(#SVGID_1024_);}
	.st361{clip-path:url(#SVGID_1026_);}
	.st362{clip-path:url(#SVGID_1030_);}
	.st363{clip-path:url(#SVGID_1032_);}
	.st364{clip-path:url(#SVGID_1036_);}
	.st365{clip-path:url(#SVGID_1038_);}
	.st366{clip-path:url(#SVGID_1042_);}
	.st367{clip-path:url(#SVGID_1044_);}
	.st368{clip-path:url(#SVGID_1048_);}
	.st369{clip-path:url(#SVGID_1050_);}
	.st370{clip-path:url(#SVGID_1054_);}
	.st371{clip-path:url(#SVGID_1056_);}
	.st372{clip-path:url(#SVGID_1060_);}
	.st373{clip-path:url(#SVGID_1062_);}
	.st374{clip-path:url(#SVGID_1066_);}
	.st375{clip-path:url(#SVGID_1068_);}
	.st376{clip-path:url(#SVGID_1072_);}
	.st377{clip-path:url(#SVGID_1074_);}
	.st378{clip-path:url(#SVGID_1078_);}
	.st379{clip-path:url(#SVGID_1080_);}
	.st380{clip-path:url(#SVGID_1084_);}
	.st381{clip-path:url(#SVGID_1086_);}
	.st382{clip-path:url(#SVGID_1090_);}
	.st383{clip-path:url(#SVGID_1092_);}
	.st384{clip-path:url(#SVGID_1096_);}
	.st385{clip-path:url(#SVGID_1098_);}
	.st386{clip-path:url(#SVGID_1102_);}
	.st387{clip-path:url(#SVGID_1104_);}
	.st388{clip-path:url(#SVGID_1108_);}
	.st389{clip-path:url(#SVGID_1110_);}
	.st390{clip-path:url(#SVGID_1114_);}
	.st391{clip-path:url(#SVGID_1116_);}
	.st392{clip-path:url(#SVGID_1120_);}
	.st393{clip-path:url(#SVGID_1122_);}
	.st394{clip-path:url(#SVGID_1126_);}
	.st395{clip-path:url(#SVGID_1128_);}
	.st396{clip-path:url(#SVGID_1132_);}
	.st397{clip-path:url(#SVGID_1134_);}
	.st398{clip-path:url(#SVGID_1138_);}
	.st399{clip-path:url(#SVGID_1140_);}
	.st400{clip-path:url(#SVGID_1144_);}
	.st401{clip-path:url(#SVGID_1146_);}
	.st402{clip-path:url(#SVGID_1150_);}
	.st403{clip-path:url(#SVGID_1152_);}
	.st404{clip-path:url(#SVGID_1156_);}
	.st405{clip-path:url(#SVGID_1158_);}
	.st406{clip-path:url(#SVGID_1162_);}
	.st407{clip-path:url(#SVGID_1164_);}
	.st408{clip-path:url(#SVGID_1168_);}
	.st409{clip-path:url(#SVGID_1170_);}
	.st410{clip-path:url(#SVGID_1174_);}
	.st411{clip-path:url(#SVGID_1176_);}
	.st412{clip-path:url(#SVGID_1180_);}
	.st413{clip-path:url(#SVGID_1182_);}
	.st414{clip-path:url(#SVGID_1186_);}
	.st415{clip-path:url(#SVGID_1188_);}
	.st416{clip-path:url(#SVGID_1192_);}
	.st417{clip-path:url(#SVGID_1194_);}
	.st418{clip-path:url(#SVGID_1198_);}
	.st419{clip-path:url(#SVGID_1200_);}
	.st420{clip-path:url(#SVGID_1204_);}
	.st421{clip-path:url(#SVGID_1206_);}
	.st422{clip-path:url(#SVGID_1210_);}
	.st423{clip-path:url(#SVGID_1212_);}
	.st424{clip-path:url(#SVGID_1216_);}
	.st425{clip-path:url(#SVGID_1218_);}
	.st426{clip-path:url(#SVGID_1222_);}
	.st427{clip-path:url(#SVGID_1224_);}
	.st428{clip-path:url(#SVGID_1228_);}
	.st429{clip-path:url(#SVGID_1230_);}
	.st430{clip-path:url(#SVGID_1234_);}
	.st431{clip-path:url(#SVGID_1236_);}
	.st432{clip-path:url(#SVGID_1240_);}
	.st433{clip-path:url(#SVGID_1242_);}
	.st434{clip-path:url(#SVGID_1246_);}
	.st435{clip-path:url(#SVGID_1248_);}
	.st436{clip-path:url(#SVGID_1252_);}
	.st437{clip-path:url(#SVGID_1254_);}
	.st438{clip-path:url(#SVGID_1258_);}
	.st439{clip-path:url(#SVGID_1260_);}
	.st440{clip-path:url(#SVGID_1264_);}
	.st441{clip-path:url(#SVGID_1266_);}
	.st442{clip-path:url(#SVGID_1270_);}
	.st443{clip-path:url(#SVGID_1272_);}
	.st444{clip-path:url(#SVGID_1276_);}
	.st445{clip-path:url(#SVGID_1278_);}
	.st446{clip-path:url(#SVGID_1282_);}
	.st447{clip-path:url(#SVGID_1284_);}
	.st448{clip-path:url(#SVGID_1288_);}
	.st449{clip-path:url(#SVGID_1290_);}
	.st450{clip-path:url(#SVGID_1294_);}
	.st451{clip-path:url(#SVGID_1296_);}
	.st452{clip-path:url(#SVGID_1300_);}
	.st453{clip-path:url(#SVGID_1302_);}
	.st454{clip-path:url(#SVGID_1306_);}
	.st455{clip-path:url(#SVGID_1308_);}
	.st456{clip-path:url(#SVGID_1312_);}
	.st457{clip-path:url(#SVGID_1314_);}
	.st458{clip-path:url(#SVGID_1318_);}
	.st459{clip-path:url(#SVGID_1320_);}
	.st460{clip-path:url(#SVGID_1324_);}
	.st461{clip-path:url(#SVGID_1326_);}
	.st462{clip-path:url(#SVGID_1330_);}
	.st463{clip-path:url(#SVGID_1332_);}
	.st464{clip-path:url(#SVGID_1336_);}
	.st465{clip-path:url(#SVGID_1338_);}
	.st466{clip-path:url(#SVGID_1340_);}
	.st467{clip-path:url(#SVGID_1344_);}
	.st468{clip-path:url(#SVGID_1346_);}
	.st469{clip-path:url(#SVGID_1350_);}
	.st470{clip-path:url(#SVGID_1352_);}
	.st471{clip-path:url(#SVGID_1356_);}
	.st472{clip-path:url(#SVGID_1358_);}
	.st473{clip-path:url(#SVGID_1362_);}
	.st474{clip-path:url(#SVGID_1364_);}
	.st475{clip-path:url(#SVGID_1368_);}
	.st476{clip-path:url(#SVGID_1370_);}
	.st477{clip-path:url(#SVGID_1374_);}
	.st478{clip-path:url(#SVGID_1376_);}
	.st479{clip-path:url(#SVGID_1380_);}
	.st480{clip-path:url(#SVGID_1382_);}
	.st481{clip-path:url(#SVGID_1386_);}
	.st482{clip-path:url(#SVGID_1388_);}
	.st483{clip-path:url(#SVGID_1392_);}
	.st484{clip-path:url(#SVGID_1394_);}
	.st485{clip-path:url(#SVGID_1398_);}
	.st486{clip-path:url(#SVGID_1400_);}
	.st487{clip-path:url(#SVGID_1404_);}
	.st488{clip-path:url(#SVGID_1406_);}
	.st489{clip-path:url(#SVGID_1410_);}
	.st490{clip-path:url(#SVGID_1412_);}
	.st491{clip-path:url(#SVGID_1416_);}
	.st492{clip-path:url(#SVGID_1418_);}
	.st493{clip-path:url(#SVGID_1420_);}
	.st494{clip-path:url(#SVGID_1424_);}
	.st495{clip-path:url(#SVGID_1426_);}
	.st496{clip-path:url(#SVGID_1428_);}
	.st497{clip-path:url(#SVGID_1432_);}
	.st498{clip-path:url(#SVGID_1434_);}
	.st499{clip-path:url(#SVGID_1438_);}
	.st500{clip-path:url(#SVGID_1440_);}
	.st501{clip-path:url(#SVGID_1442_);}
	.st502{clip-path:url(#SVGID_1446_);}
	.st503{clip-path:url(#SVGID_1448_);}
	.st504{clip-path:url(#SVGID_1450_);}
	.st505{clip-path:url(#SVGID_1454_);}
	.st506{clip-path:url(#SVGID_1456_);}
	.st507{clip-path:url(#SVGID_1458_);}
	.st508{clip-path:url(#SVGID_1462_);}
	.st509{clip-path:url(#SVGID_1464_);}
	.st510{clip-path:url(#SVGID_1468_);}
	.st511{clip-path:url(#SVGID_1470_);}
	.st512{clip-path:url(#SVGID_1474_);}
	.st513{clip-path:url(#SVGID_1476_);}
	.st514{clip-path:url(#SVGID_1480_);}
	.st515{clip-path:url(#SVGID_1482_);}
	.st516{clip-path:url(#SVGID_1486_);}
	.st517{clip-path:url(#SVGID_1488_);}
	.st518{clip-path:url(#SVGID_1492_);fill:#FFFFFF;}
	.st519{clip-path:url(#SVGID_1494_);}
	.st520{opacity:0.66;clip-path:url(#SVGID_1498_);}
	.st521{opacity:0.66;}
	.st522{clip-path:url(#SVGID_1500_);fill:#FFFFFF;}
	.st523{clip-path:url(#SVGID_1498_);}
	.st524{clip-path:url(#SVGID_1502_);}
</style>
<g>
	<g>
		<g>
			<path class="st5" d="M2.1,19.5C2,20,1.9,20.5,1.8,21c-0.1,0.5-0.1,1-0.2,1.5c0,0.5,0,1.1,0,1.7c0,0.6,0,1.1,0,1.7
				c0,0.5,0.1,1,0.2,1.5c0.1,0.5,0.2,1,0.3,1.4c0.1,0.5,0.3,0.9,0.5,1.4l-0.2,0.3c-0.5-0.9-0.9-1.9-1.1-3C1.1,26.5,1,25.3,1,24.2
				c0-0.6,0-1.1,0.1-1.7c0.1-0.6,0.2-1.1,0.3-1.7c0.1-0.5,0.3-1.1,0.5-1.6c0.2-0.5,0.4-1,0.6-1.4L2.7,18C2.4,18.5,2.3,19,2.1,19.5z"
				/>
			<path class="st5" d="M5.1,18c-0.1,0-0.2,0-0.3,0.1c-0.1,0.1-0.2,0.2-0.2,0.3c-0.1,0.1-0.1,0.3-0.1,0.5c0,0.2,0,0.4,0,0.6
				c0,0.2,0,0.5,0,0.8c0,0.3,0.1,0.7,0.1,1c0.2,0,0.3,0,0.5,0c0.2,0,0.3,0,0.5,0c0,0.1,0,0.1,0,0.2c0,0.1,0,0.1,0,0.2
				c0,0.1,0,0.1,0,0.2c0,0.1,0,0.1,0,0.2c-0.2,0-0.3,0-0.5,0c-0.2,0-0.3,0-0.5,0c0,1.1,0,2.2,0,3.3c0,1.1,0,2.2,0,3.3
				c-0.1,0-0.1,0-0.2,0c-0.1,0-0.1,0-0.2,0c-0.1,0-0.3,0-0.4,0c0-1.1,0.1-2.2,0.1-3.3c0-1.1,0-2.2,0-3.3c-0.1,0-0.2,0-0.3,0
				c-0.1,0-0.2,0-0.3,0c0-0.1,0-0.1,0-0.2c0-0.1,0-0.1,0-0.2c0-0.1,0-0.1,0-0.2c0-0.1,0-0.1,0-0.2c0.1,0,0.2,0,0.3,0
				c0.1,0,0.2,0,0.3,0c0-0.3,0-0.6,0.1-1c0-0.3,0.1-0.7,0.2-1c0.1-0.3,0.2-0.7,0.2-1c0.1-0.3,0.2-0.6,0.3-0.8
				c0.1-0.2,0.2-0.3,0.4-0.5c0.2-0.1,0.3-0.2,0.5-0.2c0.1,0,0.1,0,0.2,0c0,0.2,0,0.4,0,0.6c0,0.2,0,0.4,0,0.6l-0.1,0
				C5.5,18,5.3,18,5.1,18z"/>
			<path class="st5" d="M6.4,20.2c0-0.4,0-0.8,0-1.2c0-0.4,0-0.8,0-1.1c0-0.4,0-0.7,0-0.9C6.5,17,6.7,17,6.8,17c0.1,0,0.2,0,0.4-0.1
				c0,0.3,0,0.6,0,0.9c0,0.4,0,0.7,0,1.1c0,0.4,0,0.8,0,1.2c0,0.4,0,0.8,0,1.1v2.8c0,0.3,0,0.7,0,1.1c0,0.4,0,0.8,0,1.2
				c0,0.4,0,0.8,0,1.1c0,0.4,0,0.7,0,0.9c-0.1,0-0.3,0-0.4,0c-0.1,0-0.3,0-0.4,0c0-0.2,0-0.5,0-0.9c0-0.4,0-0.7,0-1.1
				c0-0.4,0-0.8,0-1.2c0-0.4,0-0.8,0-1.1v-2.8C6.4,21,6.4,20.6,6.4,20.2z"/>
			<path class="st5" d="M8.7,24.8c0-0.4,0-0.8,0-1.1c0-0.4,0-0.7,0-1.2c0-0.4,0-0.8,0-1.3c0.2,0.1,0.3,0.1,0.4,0.1
				c0.1,0,0.2,0,0.4-0.1c0,0.6-0.1,1.3-0.1,2c0,0.7,0,1.5,0,2.3c0,0.5,0,0.9,0.1,1.2c0.1,0.3,0.1,0.5,0.2,0.6
				c0.1,0.2,0.2,0.3,0.3,0.4c0.1,0.1,0.3,0.2,0.5,0.2c0.3,0,0.5-0.1,0.6-0.3c0.2-0.2,0.3-0.4,0.4-0.7c0-0.2,0.1-0.3,0.1-0.4
				c0-0.1,0-0.3,0.1-0.5c0-0.2,0-0.5,0-0.8c0-0.3,0-0.8,0-1.4v-1.3c0-0.2,0-0.4,0-0.6c0-0.2,0-0.4,0-0.6c0.1,0,0.1,0,0.2,0.1
				c0.1,0,0.1,0,0.2,0c0.1,0,0.1,0,0.2,0c0.1,0,0.1,0,0.2-0.1c0,0.8,0,1.6-0.1,2.3c0,0.7,0,1.5,0,2.4c0,0.5,0,0.9,0,1.4
				c0,0.4,0,0.9,0,1.3c-0.1,0-0.2,0-0.4,0c-0.1,0-0.2,0-0.4,0c0-0.1,0-0.2,0-0.3c0-0.1,0-0.2,0-0.3v-0.7h0c-0.2,0.5-0.4,0.9-0.6,1.1
				c-0.2,0.2-0.5,0.3-0.8,0.3c-0.5,0-0.8-0.2-1.1-0.6c-0.3-0.4-0.4-1-0.4-1.8C8.7,25.6,8.7,25.2,8.7,24.8z"/>
			<path class="st5" d="M14.6,19.1c0,0.4,0,0.8,0,1.1c0,0.4,0,0.8,0,1.1c0.1,0,0.2,0,0.4,0c0.2,0,0.4,0,0.6,0c0,0,0,0.1,0,0.2v0.2
				v0.2c0,0.1,0,0.1,0,0.2c-0.1,0-0.2,0-0.2,0c-0.1,0-0.2,0-0.3,0h-0.4c0,0,0,0.2,0,0.5c0,0.3,0,0.6,0,1c0,0.4,0,0.8,0,1.2
				c0,0.4,0,0.8,0,1.2c0,0.3,0,0.6,0,0.8c0,0.3,0,0.5,0.1,0.7c0,0.2,0.1,0.4,0.2,0.5c0.1,0.1,0.2,0.2,0.4,0.2c0,0,0.1,0,0.2,0
				c0.1,0,0.2,0,0.2-0.1v0.4c-0.1,0-0.2,0.1-0.3,0.1c-0.1,0-0.2,0.1-0.4,0.1c-0.4,0-0.7-0.2-0.8-0.5c-0.2-0.3-0.3-0.8-0.3-1.4
				c0-0.3,0-0.6,0-0.9c0-0.3,0-0.7,0-1.1c0-0.4,0-0.8,0-1.3c0-0.5,0-1,0-1.6h-0.3c0,0-0.1,0-0.2,0c-0.1,0-0.1,0-0.2,0
				c0-0.1,0-0.1,0-0.2c0-0.1,0-0.1,0-0.2c0-0.1,0-0.1,0-0.2c0-0.1,0-0.1,0-0.2c0.3,0,0.5,0,0.6,0c0-0.2,0-0.5,0-0.8c0-0.3,0-0.6,0-1
				L14.6,19.1L14.6,19.1z"/>
			<path class="st5" d="M16.6,18c0.1-0.2,0.2-0.2,0.3-0.2c0.1,0,0.2,0.1,0.3,0.2c0.1,0.2,0.1,0.3,0.1,0.6c0,0.2,0,0.4-0.1,0.6
				c-0.1,0.2-0.2,0.2-0.3,0.2c-0.1,0-0.2-0.1-0.3-0.2c-0.1-0.2-0.1-0.3-0.1-0.6C16.4,18.3,16.5,18.1,16.6,18z M16.5,22.6
				c0-0.5,0-1-0.1-1.4c0.2,0.1,0.3,0.1,0.4,0.1c0.1,0,0.2,0,0.4-0.1c0,0.4,0,0.9-0.1,1.4c0,0.5,0,1,0,1.5v1.6c0,0.5,0,0.9,0,1.5
				c0,0.5,0,1,0.1,1.4c-0.1,0-0.3,0-0.4,0c-0.1,0-0.3,0-0.4,0c0-0.4,0-0.9,0.1-1.4c0-0.5,0-1,0-1.5v-1.6
				C16.5,23.6,16.5,23.1,16.5,22.6z"/>
			<path class="st5" d="M18.7,23.2c0.1-0.5,0.3-0.9,0.5-1.2c0.2-0.3,0.5-0.5,0.7-0.7c0.3-0.1,0.6-0.2,0.9-0.2c0.3,0,0.6,0.1,0.9,0.2
				c0.3,0.1,0.5,0.3,0.6,0.5c0,0.2-0.1,0.3-0.1,0.5c0,0.2-0.1,0.3-0.1,0.5H22c0-0.1-0.1-0.3-0.2-0.4c-0.1-0.1-0.2-0.3-0.3-0.4
				c-0.1-0.1-0.2-0.2-0.3-0.3c-0.1-0.1-0.3-0.1-0.4-0.1c-0.3,0-0.5,0.1-0.7,0.3c-0.2,0.2-0.4,0.4-0.5,0.7c-0.1,0.3-0.2,0.6-0.3,1.1
				c-0.1,0.4-0.1,0.8-0.1,1.3c0,1.1,0.1,1.9,0.4,2.4c0.3,0.5,0.7,0.8,1.2,0.8c0.1,0,0.2,0,0.4-0.1c0.1-0.1,0.3-0.1,0.4-0.2
				c0.1-0.1,0.2-0.2,0.3-0.3c0.1-0.1,0.2-0.3,0.3-0.4l0,0c0,0.2,0,0.5-0.1,0.8c-0.2,0.2-0.4,0.5-0.7,0.6c-0.3,0.2-0.5,0.3-0.8,0.3
				c-0.3,0-0.5-0.1-0.8-0.2c-0.3-0.1-0.5-0.3-0.7-0.6c-0.2-0.3-0.4-0.7-0.5-1.2c-0.1-0.5-0.2-1.1-0.2-1.8
				C18.5,24.2,18.6,23.6,18.7,23.2z"/>
			<path class="st5" d="M24.2,21.2c0.2-0.1,0.5-0.2,0.7-0.2c0.2,0,0.4,0.1,0.6,0.2c0.2,0.1,0.3,0.3,0.5,0.5c0.1,0.2,0.2,0.4,0.3,0.7
				c0.1,0.3,0.1,0.6,0.1,0.9c0,0.6,0,1.2,0,1.7c0,0.6,0,1.2,0,1.8c0,0.1,0,0.3,0,0.4c0,0.1,0,0.3,0,0.4c0,0.1,0.1,0.2,0.1,0.3
				c0,0.1,0.1,0.1,0.2,0.1c0,0,0.1,0,0.1,0c0,0,0.1,0,0.1-0.1v0.3c-0.1,0.1-0.1,0.1-0.2,0.1c-0.1,0-0.2,0-0.3,0
				c-0.2,0-0.3-0.1-0.5-0.3c-0.1-0.2-0.2-0.4-0.2-0.7c-0.2,0.4-0.4,0.6-0.6,0.8c-0.2,0.2-0.5,0.3-0.8,0.3c-0.2,0-0.3,0-0.4-0.1
				c-0.1-0.1-0.3-0.2-0.4-0.4c-0.1-0.2-0.2-0.4-0.3-0.6c-0.1-0.2-0.1-0.5-0.1-0.8c0-0.6,0.1-1.1,0.3-1.4c0.2-0.3,0.5-0.6,0.9-0.7
				c0.3-0.1,0.6-0.2,0.8-0.2c0.2-0.1,0.3-0.1,0.4-0.2c0.1-0.1,0.1-0.2,0.2-0.3c0-0.1,0-0.2,0-0.4c0-0.3,0-0.5-0.1-0.7
				c0-0.2-0.1-0.4-0.2-0.6c-0.1-0.2-0.2-0.3-0.3-0.4c-0.1-0.1-0.3-0.2-0.5-0.2c-0.2,0-0.5,0.1-0.7,0.3c-0.2,0.2-0.4,0.4-0.5,0.8
				h-0.1v-0.8C23.7,21.6,24,21.4,24.2,21.2z M25.3,24.8c-0.1,0-0.3,0.1-0.4,0.1c-0.1,0-0.3,0.1-0.4,0.2c-0.1,0.1-0.3,0.2-0.4,0.3
				c-0.1,0.1-0.2,0.3-0.3,0.5c-0.1,0.2-0.1,0.4-0.1,0.7c0,0.5,0.1,0.8,0.2,1.1c0.2,0.2,0.3,0.4,0.5,0.4c0.2,0,0.4-0.1,0.6-0.3
				c0.2-0.2,0.3-0.5,0.4-0.8l0-2.3C25.6,24.7,25.5,24.8,25.3,24.8z"/>
			<path class="st5" d="M28,27.4c0.1,0.1,0.1,0.2,0.2,0.3c0.1,0.1,0.2,0.2,0.3,0.3c0.1,0.1,0.2,0.1,0.4,0.1c0.1,0,0.2,0,0.3-0.1
				c0.1-0.1,0.2-0.1,0.3-0.3c0.1-0.1,0.1-0.3,0.2-0.4c0-0.2,0.1-0.4,0.1-0.6c0-0.3-0.1-0.6-0.2-0.7c-0.1-0.2-0.2-0.3-0.4-0.4
				c-0.2-0.1-0.3-0.2-0.5-0.3c-0.2-0.1-0.4-0.2-0.5-0.3c-0.2-0.1-0.3-0.3-0.4-0.6c-0.1-0.2-0.2-0.6-0.2-1c0-0.3,0-0.6,0.1-0.9
				c0.1-0.3,0.2-0.5,0.3-0.7c0.1-0.2,0.3-0.4,0.5-0.5c0.2-0.1,0.4-0.2,0.6-0.2c0.2,0,0.4,0.1,0.6,0.2c0.2,0.1,0.3,0.2,0.4,0.3
				c0,0.2-0.1,0.3-0.1,0.6c0,0.2-0.1,0.4-0.1,0.5h-0.1c0-0.2-0.1-0.5-0.3-0.7c-0.1-0.2-0.3-0.3-0.5-0.3c-0.1,0-0.2,0-0.3,0.1
				c-0.1,0.1-0.2,0.1-0.2,0.2c-0.1,0.1-0.1,0.2-0.2,0.4c0,0.2-0.1,0.4-0.1,0.6c0,0.3,0.1,0.6,0.2,0.8c0.1,0.2,0.2,0.3,0.4,0.4
				c0.2,0.1,0.3,0.2,0.5,0.3c0.2,0.1,0.4,0.2,0.5,0.3c0.2,0.1,0.3,0.3,0.4,0.6c0.1,0.2,0.2,0.6,0.2,1c0,0.3,0,0.6-0.1,0.9
				c-0.1,0.3-0.2,0.5-0.3,0.8c-0.1,0.2-0.3,0.4-0.5,0.5c-0.2,0.1-0.4,0.2-0.7,0.2c-0.3,0-0.5,0-0.7-0.1c-0.2-0.1-0.3-0.2-0.5-0.3
				c0-0.1,0.1-0.3,0.1-0.5c0-0.2,0.1-0.4,0.1-0.6h0.1C27.9,27.2,27.9,27.3,28,27.4z"/>
			<path class="st5" d="M31.3,23.1c0.1-0.5,0.3-0.9,0.5-1.2c0.2-0.3,0.4-0.5,0.7-0.7c0.3-0.1,0.5-0.2,0.8-0.2c0.3,0,0.5,0.1,0.8,0.2
				c0.3,0.1,0.5,0.4,0.7,0.7c0.2,0.3,0.4,0.7,0.5,1.2c0.1,0.5,0.2,1.1,0.2,1.8c0,0.7-0.1,1.3-0.2,1.8c-0.1,0.5-0.3,0.9-0.5,1.2
				c-0.2,0.3-0.4,0.5-0.7,0.6c-0.3,0.1-0.5,0.2-0.8,0.2c-0.3,0-0.5-0.1-0.8-0.2c-0.3-0.1-0.5-0.3-0.7-0.6c-0.2-0.3-0.4-0.7-0.5-1.2
				c-0.1-0.5-0.2-1.1-0.2-1.8C31.1,24.2,31.1,23.6,31.3,23.1z M31.9,26.1c0,0.4,0.1,0.8,0.2,1.1c0.1,0.3,0.3,0.6,0.4,0.7
				c0.2,0.2,0.4,0.3,0.7,0.3c0.3,0,0.5-0.1,0.7-0.3c0.2-0.2,0.3-0.4,0.4-0.7c0.1-0.3,0.2-0.7,0.2-1.1c0-0.4,0.1-0.8,0.1-1.2
				c0-0.4,0-0.8-0.1-1.2c0-0.4-0.1-0.8-0.2-1.1c-0.1-0.3-0.3-0.6-0.4-0.7c-0.2-0.2-0.4-0.3-0.7-0.3c-0.3,0-0.5,0.1-0.7,0.3
				c-0.2,0.2-0.3,0.4-0.4,0.7c-0.1,0.3-0.2,0.7-0.2,1.1c0,0.4-0.1,0.8-0.1,1.2C31.9,25.3,31.9,25.7,31.9,26.1z"/>
			<path class="st5" d="M39.2,22.4c-0.2-0.4-0.4-0.6-0.7-0.6c-0.4,0-0.7,0.2-0.9,0.7c-0.2,0.4-0.3,1.1-0.3,1.9v1.3
				c0,0.5,0,0.9,0,1.5s0,1,0.1,1.4c-0.1,0-0.3,0-0.4,0c-0.1,0-0.3,0-0.4,0c0-0.4,0-0.9,0.1-1.4c0-0.5,0-1,0-1.5v-1.6
				c0-0.5,0-0.9,0-1.5c0-0.5,0-1-0.1-1.4c0.2,0.1,0.3,0.1,0.4,0.1c0,0,0.1,0,0.2,0c0.1,0,0.1,0,0.2-0.1c0,0.4,0,0.8,0,1.2h0
				c0.2-0.4,0.4-0.8,0.6-1c0.2-0.2,0.5-0.4,0.8-0.4c0.2,0,0.3,0,0.5,0.1c0.2,0.1,0.3,0.2,0.5,0.4c0.1,0.2,0.3,0.5,0.3,0.8
				c0.1,0.3,0.1,0.8,0.1,1.3c0,0.4,0,0.9,0,1.4c0,0.5,0,1,0,1.5v1c0,0.2,0,0.3,0,0.5c0,0.2,0,0.3,0,0.5c-0.1,0-0.3,0-0.4,0
				c-0.1,0-0.3,0-0.4,0c0-0.5,0-1.1,0-1.6c0-0.6,0-1.1,0-1.7v-0.9C39.5,23.4,39.4,22.8,39.2,22.4z"/>
			<path class="st5" d="M41.7,22.1c0.4-0.7,0.9-1.1,1.5-1.1c0.3,0,0.6,0.1,0.8,0.3c0.2,0.2,0.4,0.4,0.6,0.7c0.2,0.3,0.3,0.6,0.3,1
				c0.1,0.4,0.1,0.8,0.1,1.2c0,0.1,0,0.2,0,0.3c0,0.1,0,0.2,0,0.3c-0.3,0-0.7,0-1,0c-0.3,0-0.6,0-1,0c-0.2,0-0.4,0-0.6,0
				c-0.2,0-0.4,0-0.6,0c0,0.1,0,0.1,0,0.2v0.2c0,0.4,0,0.8,0.1,1.1c0.1,0.3,0.2,0.6,0.3,0.9c0.1,0.3,0.3,0.5,0.5,0.6
				c0.2,0.1,0.4,0.2,0.7,0.2c0.1,0,0.2,0,0.4-0.1c0.1-0.1,0.3-0.1,0.4-0.2c0.1-0.1,0.2-0.2,0.3-0.3c0.1-0.1,0.2-0.3,0.3-0.4l0,0
				l-0.1,0.8c-0.2,0.2-0.4,0.5-0.7,0.6c-0.3,0.2-0.5,0.3-0.8,0.3c-0.3,0-0.6-0.1-0.9-0.3c-0.3-0.2-0.5-0.4-0.7-0.7
				c-0.2-0.3-0.3-0.7-0.5-1.1c-0.1-0.4-0.2-0.9-0.2-1.4C41.2,23.8,41.3,22.8,41.7,22.1z M42.7,21.8c-0.2,0.2-0.3,0.4-0.4,0.7
				c-0.1,0.3-0.2,0.5-0.2,0.9C42,23.6,42,23.9,42,24.2c0.2,0,0.4,0,0.6,0c0.2,0,0.4,0,0.6,0c0.2,0,0.4,0,0.6,0c0.2,0,0.4,0,0.6,0
				c0-0.3,0-0.6,0-0.9c0-0.3-0.1-0.6-0.2-0.9c-0.1-0.3-0.2-0.5-0.3-0.7c-0.1-0.2-0.3-0.3-0.6-0.3C43,21.5,42.9,21.6,42.7,21.8z"/>
			<path class="st5" d="M50,18c-0.1,0-0.2,0-0.3,0.1c-0.1,0.1-0.2,0.2-0.2,0.3c-0.1,0.1-0.1,0.3-0.1,0.5c0,0.2,0,0.4,0,0.6
				c0,0.2,0,0.5,0,0.8c0,0.3,0.1,0.7,0.1,1c0.2,0,0.3,0,0.5,0c0.2,0,0.3,0,0.5,0c0,0.1,0,0.1,0,0.2c0,0.1,0,0.1,0,0.2
				c0,0.1,0,0.1,0,0.2c0,0.1,0,0.1,0,0.2c-0.2,0-0.3,0-0.5,0c-0.2,0-0.3,0-0.5,0c0,1.1,0,2.2,0,3.3c0,1.1,0,2.2,0,3.3
				c-0.1,0-0.1,0-0.2,0c-0.1,0-0.1,0-0.2,0c-0.1,0-0.3,0-0.4,0c0-1.1,0.1-2.2,0.1-3.3c0-1.1,0-2.2,0-3.3c-0.1,0-0.2,0-0.3,0
				c-0.1,0-0.2,0-0.3,0c0-0.1,0-0.1,0-0.2c0-0.1,0-0.1,0-0.2c0-0.1,0-0.1,0-0.2c0-0.1,0-0.1,0-0.2c0.1,0,0.2,0,0.3,0
				c0.1,0,0.2,0,0.3,0c0-0.3,0-0.6,0.1-1c0-0.3,0.1-0.7,0.2-1c0.1-0.3,0.2-0.7,0.2-1c0.1-0.3,0.2-0.6,0.3-0.8
				c0.1-0.2,0.2-0.3,0.4-0.5c0.2-0.1,0.3-0.2,0.5-0.2c0.1,0,0.1,0,0.2,0c0,0.2,0,0.4,0,0.6c0,0.2,0,0.4,0,0.6l-0.1,0
				C50.4,18,50.2,18,50,18z"/>
			<path class="st5" d="M51.1,24.8c0-0.4,0-0.8,0-1.1c0-0.4,0-0.7,0-1.2c0-0.4,0-0.8,0-1.3c0.2,0.1,0.3,0.1,0.4,0.1
				c0.1,0,0.2,0,0.4-0.1c0,0.6-0.1,1.3-0.1,2c0,0.7,0,1.5,0,2.3c0,0.5,0,0.9,0.1,1.2c0.1,0.3,0.1,0.5,0.2,0.6
				c0.1,0.2,0.2,0.3,0.3,0.4c0.1,0.1,0.3,0.2,0.5,0.2c0.3,0,0.5-0.1,0.6-0.3c0.2-0.2,0.3-0.4,0.4-0.7c0-0.2,0.1-0.3,0.1-0.4
				c0-0.1,0-0.3,0.1-0.5c0-0.2,0-0.5,0-0.8c0-0.3,0-0.8,0-1.4v-1.3c0-0.2,0-0.4,0-0.6c0-0.2,0-0.4,0-0.6c0.1,0,0.1,0,0.2,0.1
				c0.1,0,0.1,0,0.2,0c0.1,0,0.1,0,0.2,0c0.1,0,0.1,0,0.2-0.1c0,0.8,0,1.6-0.1,2.3c0,0.7,0,1.5,0,2.4c0,0.5,0,0.9,0,1.4
				c0,0.4,0,0.9,0,1.3c-0.1,0-0.2,0-0.4,0s-0.2,0-0.4,0c0-0.1,0-0.2,0-0.3c0-0.1,0-0.2,0-0.3v-0.7h0c-0.2,0.5-0.4,0.9-0.6,1.1
				c-0.2,0.2-0.5,0.3-0.8,0.3c-0.5,0-0.8-0.2-1.1-0.6c-0.3-0.4-0.4-1-0.4-1.8C51.1,25.6,51.1,25.2,51.1,24.8z"/>
			<path class="st5" d="M58.1,22.3c-0.1-0.1-0.2-0.1-0.3-0.1c-0.1,0-0.3,0.1-0.4,0.2c-0.1,0.1-0.2,0.3-0.3,0.5
				C57,23,57,23.3,56.9,23.5c0,0.3-0.1,0.5-0.1,0.8v1.7c0,0.7,0,1.2,0,1.6c0,0.4,0,0.7,0,0.9c-0.1,0-0.2,0-0.4,0c-0.1,0-0.3,0-0.4,0
				c0-0.3,0-0.8,0-1.4c0-0.6,0-1.3,0-2.2v-0.5c0-0.4,0-0.9,0-1.4c0-0.5,0-1.1,0-1.8c0.1,0,0.1,0,0.2,0.1c0.1,0,0.1,0,0.2,0
				c0.1,0,0.1,0,0.2,0c0.1,0,0.1,0,0.2-0.1c0,0.4,0,0.7,0,0.9c0,0.2,0,0.4,0,0.6l0,0c0.4-1.1,0.8-1.7,1.2-1.7c0.1,0,0.1,0,0.1,0
				c0,0,0.1,0,0.1,0.1c0,0.1,0,0.3-0.1,0.6c0,0.3,0,0.5,0,0.7l-0.1,0.1C58.2,22.4,58.2,22.4,58.1,22.3z"/>
			<path class="st5" d="M59,23.1c0.1-0.5,0.3-0.9,0.5-1.2c0.2-0.3,0.4-0.5,0.7-0.7c0.3-0.1,0.5-0.2,0.8-0.2c0.3,0,0.5,0.1,0.8,0.2
				c0.3,0.1,0.5,0.4,0.7,0.7c0.2,0.3,0.4,0.7,0.5,1.2c0.1,0.5,0.2,1.1,0.2,1.8c0,0.7-0.1,1.3-0.2,1.8c-0.1,0.5-0.3,0.9-0.5,1.2
				c-0.2,0.3-0.4,0.5-0.7,0.6c-0.3,0.1-0.5,0.2-0.8,0.2c-0.3,0-0.5-0.1-0.8-0.2c-0.3-0.1-0.5-0.3-0.7-0.6c-0.2-0.3-0.4-0.7-0.5-1.2
				c-0.1-0.5-0.2-1.1-0.2-1.8C58.8,24.2,58.9,23.6,59,23.1z M59.7,26.1c0,0.4,0.1,0.8,0.2,1.1c0.1,0.3,0.3,0.6,0.4,0.7
				c0.2,0.2,0.4,0.3,0.7,0.3c0.3,0,0.5-0.1,0.7-0.3c0.2-0.2,0.3-0.4,0.4-0.7c0.1-0.3,0.2-0.7,0.2-1.1c0-0.4,0.1-0.8,0.1-1.2
				c0-0.4,0-0.8-0.1-1.2c0-0.4-0.1-0.8-0.2-1.1c-0.1-0.3-0.3-0.6-0.4-0.7c-0.2-0.2-0.4-0.3-0.7-0.3c-0.3,0-0.5,0.1-0.7,0.3
				c-0.2,0.2-0.3,0.4-0.4,0.7c-0.1,0.3-0.2,0.7-0.2,1.1c0,0.4-0.1,0.8-0.1,1.2C59.6,25.3,59.6,25.7,59.7,26.1z"/>
			<path class="st5" d="M65.1,21.2c0.2-0.1,0.5-0.2,0.7-0.2c0.2,0,0.4,0.1,0.6,0.2c0.2,0.1,0.3,0.3,0.5,0.5c0.1,0.2,0.2,0.4,0.3,0.7
				c0.1,0.3,0.1,0.6,0.1,0.9c0,0.6,0,1.2,0,1.7c0,0.6,0,1.2,0,1.8c0,0.1,0,0.3,0,0.4c0,0.1,0,0.3,0,0.4c0,0.1,0.1,0.2,0.1,0.3
				c0,0.1,0.1,0.1,0.2,0.1c0,0,0.1,0,0.1,0c0,0,0.1,0,0.1-0.1v0.3c-0.1,0.1-0.1,0.1-0.2,0.1c-0.1,0-0.2,0-0.3,0
				c-0.2,0-0.3-0.1-0.5-0.3c-0.1-0.2-0.2-0.4-0.2-0.7c-0.2,0.4-0.4,0.6-0.6,0.8c-0.2,0.2-0.5,0.3-0.8,0.3c-0.2,0-0.3,0-0.4-0.1
				c-0.1-0.1-0.3-0.2-0.4-0.4c-0.1-0.2-0.2-0.4-0.3-0.6c-0.1-0.2-0.1-0.5-0.1-0.8c0-0.6,0.1-1.1,0.3-1.4c0.2-0.3,0.5-0.6,0.9-0.7
				c0.3-0.1,0.6-0.2,0.8-0.2c0.2-0.1,0.3-0.1,0.4-0.2c0.1-0.1,0.1-0.2,0.2-0.3c0-0.1,0-0.2,0-0.4c0-0.3,0-0.5-0.1-0.7
				c0-0.2-0.1-0.4-0.2-0.6c-0.1-0.2-0.2-0.3-0.3-0.4c-0.1-0.1-0.3-0.2-0.5-0.2c-0.2,0-0.5,0.1-0.7,0.3c-0.2,0.2-0.4,0.4-0.5,0.8
				h-0.1v-0.8C64.6,21.6,64.9,21.4,65.1,21.2z M66.2,24.8c-0.1,0-0.3,0.1-0.4,0.1c-0.1,0-0.3,0.1-0.4,0.2c-0.1,0.1-0.3,0.2-0.4,0.3
				c-0.1,0.1-0.2,0.3-0.3,0.5c-0.1,0.2-0.1,0.4-0.1,0.7c0,0.5,0.1,0.8,0.2,1.1c0.2,0.2,0.3,0.4,0.5,0.4c0.2,0,0.4-0.1,0.6-0.3
				c0.2-0.2,0.3-0.5,0.4-0.8l0-2.3C66.5,24.7,66.3,24.8,66.2,24.8z"/>
			<path class="st5" d="M69.6,19.1c0,0.4,0,0.8,0,1.1c0,0.4,0,0.8,0,1.1c0.1,0,0.2,0,0.4,0c0.2,0,0.4,0,0.6,0c0,0,0,0.1,0,0.2v0.2
				v0.2c0,0.1,0,0.1,0,0.2c-0.1,0-0.2,0-0.2,0c-0.1,0-0.2,0-0.3,0h-0.4c0,0,0,0.2,0,0.5c0,0.3,0,0.6,0,1c0,0.4,0,0.8,0,1.2
				c0,0.4,0,0.8,0,1.2c0,0.3,0,0.6,0,0.8c0,0.3,0,0.5,0.1,0.7c0,0.2,0.1,0.4,0.2,0.5c0.1,0.1,0.2,0.2,0.4,0.2c0,0,0.1,0,0.2,0
				c0.1,0,0.2,0,0.2-0.1v0.4c-0.1,0-0.2,0.1-0.3,0.1c-0.1,0-0.2,0.1-0.4,0.1c-0.4,0-0.7-0.2-0.8-0.5c-0.2-0.3-0.3-0.8-0.3-1.4
				c0-0.3,0-0.6,0-0.9c0-0.3,0-0.7,0-1.1c0-0.4,0-0.8,0-1.3c0-0.5,0-1,0-1.6h-0.3c0,0-0.1,0-0.2,0c-0.1,0-0.1,0-0.2,0
				c0-0.1,0-0.1,0-0.2c0-0.1,0-0.1,0-0.2c0-0.1,0-0.1,0-0.2c0-0.1,0-0.1,0-0.2c0.3,0,0.5,0,0.6,0c0-0.2,0-0.5,0-0.8c0-0.3,0-0.6,0-1
				L69.6,19.1L69.6,19.1z"/>
			<path class="st5" d="M71.5,22.1c0.4-0.7,0.9-1.1,1.5-1.1c0.3,0,0.6,0.1,0.8,0.3c0.2,0.2,0.4,0.4,0.6,0.7c0.2,0.3,0.3,0.6,0.3,1
				c0.1,0.4,0.1,0.8,0.1,1.2c0,0.1,0,0.2,0,0.3c0,0.1,0,0.2,0,0.3c-0.3,0-0.7,0-1,0c-0.3,0-0.6,0-1,0c-0.2,0-0.4,0-0.6,0
				c-0.2,0-0.4,0-0.6,0c0,0.1,0,0.1,0,0.2v0.2c0,0.4,0,0.8,0.1,1.1c0.1,0.3,0.2,0.6,0.3,0.9c0.1,0.3,0.3,0.5,0.5,0.6
				c0.2,0.1,0.4,0.2,0.7,0.2c0.1,0,0.2,0,0.4-0.1c0.1-0.1,0.3-0.1,0.4-0.2c0.1-0.1,0.2-0.2,0.3-0.3c0.1-0.1,0.2-0.3,0.3-0.4l0,0
				l-0.1,0.8c-0.2,0.2-0.4,0.5-0.7,0.6c-0.3,0.2-0.5,0.3-0.8,0.3c-0.3,0-0.6-0.1-0.9-0.3c-0.3-0.2-0.5-0.4-0.7-0.7
				c-0.2-0.3-0.3-0.7-0.5-1.1c-0.1-0.4-0.2-0.9-0.2-1.4C70.9,23.8,71.1,22.8,71.5,22.1z M72.5,21.8c-0.2,0.2-0.3,0.4-0.4,0.7
				c-0.1,0.3-0.2,0.5-0.2,0.9c-0.1,0.3-0.1,0.6-0.1,0.9c0.2,0,0.4,0,0.6,0c0.2,0,0.4,0,0.6,0c0.2,0,0.4,0,0.6,0c0.2,0,0.4,0,0.6,0
				c0-0.3,0-0.6,0-0.9c0-0.3-0.1-0.6-0.2-0.9c-0.1-0.3-0.2-0.5-0.3-0.7c-0.1-0.2-0.3-0.3-0.6-0.3C72.8,21.5,72.6,21.6,72.5,21.8z"/>
		</g>
		<g>
			<path class="st5" d="M77.7,20.1c-0.1-0.2-0.2-0.4-0.3-0.5v-0.1c0.3-0.2,0.7-0.5,1.1-0.8c0.4-0.3,0.7-0.6,1-0.8l0.1,0.1
				c0,0.7,0,1.3-0.1,2c0,0.7,0,1.3,0,2v2.6c0,0.7,0,1.3,0,2c0,0.7,0,1.3,0.1,1.9c-0.1,0-0.1,0-0.2,0c-0.1,0-0.1,0-0.2,0
				c-0.1,0-0.1,0-0.2,0c-0.1,0-0.1,0-0.2,0c0-0.6,0-1.3,0.1-1.9c0-0.6,0-1.3,0-2v-5.5L77.7,20.1z"/>
		</g>
		<g>
			<path class="st5" d="M81,21.2c0.1-0.7,0.2-1.2,0.4-1.7c0.2-0.5,0.4-0.9,0.7-1.2c0.3-0.3,0.6-0.4,1-0.4c0.4,0,0.8,0.1,1.1,0.4
				c0.3,0.3,0.5,0.7,0.6,1.2c0.2,0.5,0.3,1.1,0.3,1.7c0.1,0.7,0.1,1.4,0.1,2.1c0,0.7,0,1.4-0.1,2.1c-0.1,0.6-0.2,1.2-0.4,1.7
				c-0.2,0.5-0.4,0.9-0.7,1.2c-0.3,0.3-0.6,0.4-1,0.4c-0.4,0-0.8-0.1-1.1-0.4c-0.3-0.3-0.5-0.7-0.6-1.1c-0.2-0.5-0.3-1.1-0.3-1.7
				c-0.1-0.7-0.1-1.4-0.1-2.1C80.9,22.6,80.9,21.9,81,21.2z M81.7,25.3c0,0.6,0.1,1.1,0.2,1.6c0.1,0.4,0.3,0.8,0.4,1
				c0.2,0.3,0.4,0.4,0.7,0.4c0.3,0,0.5-0.1,0.7-0.4c0.2-0.3,0.3-0.6,0.4-1c0.1-0.4,0.2-1,0.2-1.6c0-0.6,0.1-1.2,0.1-1.9
				c0-0.7,0-1.3-0.1-1.9s-0.1-1.1-0.2-1.6c-0.1-0.4-0.3-0.8-0.4-1c-0.2-0.3-0.4-0.4-0.7-0.4c-0.3,0-0.5,0.1-0.7,0.3
				c-0.2,0.2-0.3,0.6-0.4,1c-0.1,0.4-0.2,0.9-0.2,1.5c0,0.6-0.1,1.3-0.1,2C81.7,24,81.7,24.7,81.7,25.3z"/>
		</g>
		<g>
			<path class="st5" d="M86.4,21.2c0.1-0.7,0.2-1.2,0.4-1.7c0.2-0.5,0.4-0.9,0.7-1.2c0.3-0.3,0.6-0.4,1-0.4c0.4,0,0.8,0.1,1.1,0.4
				c0.3,0.3,0.5,0.7,0.6,1.2c0.2,0.5,0.3,1.1,0.3,1.7c0.1,0.7,0.1,1.4,0.1,2.1c0,0.7,0,1.4-0.1,2.1c-0.1,0.6-0.2,1.2-0.4,1.7
				c-0.2,0.5-0.4,0.9-0.7,1.2c-0.3,0.3-0.6,0.4-1,0.4c-0.4,0-0.8-0.1-1.1-0.4c-0.3-0.3-0.5-0.7-0.6-1.1c-0.2-0.5-0.3-1.1-0.3-1.7
				c-0.1-0.7-0.1-1.4-0.1-2.1C86.3,22.6,86.4,21.9,86.4,21.2z M87.1,25.3c0,0.6,0.1,1.1,0.2,1.6c0.1,0.4,0.3,0.8,0.4,1
				c0.2,0.3,0.4,0.4,0.7,0.4c0.3,0,0.5-0.1,0.7-0.4c0.2-0.3,0.3-0.6,0.4-1c0.1-0.4,0.2-1,0.2-1.6c0-0.6,0.1-1.2,0.1-1.9
				c0-0.7,0-1.3-0.1-1.9c0-0.6-0.1-1.1-0.2-1.6c-0.1-0.4-0.3-0.8-0.4-1c-0.2-0.3-0.4-0.4-0.7-0.4c-0.3,0-0.5,0.1-0.7,0.3
				c-0.2,0.2-0.3,0.6-0.4,1c-0.1,0.4-0.2,0.9-0.2,1.5c0,0.6-0.1,1.3-0.1,2C87.1,24,87.1,24.7,87.1,25.3z"/>
		</g>
		<g>
			<path class="st5" d="M93.7,22.6c0-0.5,0-1-0.1-1.4c0.2,0.1,0.3,0.1,0.4,0.1c0,0,0.1,0,0.2,0c0.1,0,0.1,0,0.2-0.1
				c0,0.4,0,0.8,0,1.2h0c0.3-0.9,0.8-1.4,1.3-1.4c0.2,0,0.3,0,0.4,0.1c0.1,0.1,0.3,0.2,0.4,0.3c0.1,0.1,0.2,0.3,0.3,0.5
				c0.1,0.2,0.1,0.4,0.2,0.6h0c0.1-0.5,0.3-0.9,0.6-1.1c0.3-0.3,0.5-0.4,0.9-0.4c0.2,0,0.4,0,0.6,0.1c0.2,0.1,0.3,0.2,0.4,0.4
				c0.1,0.2,0.2,0.4,0.3,0.8c0.1,0.3,0.1,0.7,0.1,1.1c0,0.2,0,0.4,0,0.6c0,0.2,0,0.4,0,0.7c0,0.3,0,0.6,0,0.9c0,0.3,0,0.7,0,1.2
				c0,0.3,0,0.5,0,0.8c0,0.3,0,0.5,0,0.8c-0.1,0-0.1,0-0.2,0c-0.1,0-0.1,0-0.2,0c-0.1,0-0.1,0-0.2,0c-0.1,0-0.1,0-0.2,0
				c0-0.3,0-0.8,0.1-1.6c0-0.8,0-1.9,0-3.3c0-0.3,0-0.5-0.1-0.7c0-0.2-0.1-0.4-0.2-0.6c-0.1-0.2-0.2-0.3-0.3-0.4
				c-0.1-0.1-0.3-0.1-0.5-0.1c-0.2,0-0.4,0.1-0.6,0.2c-0.2,0.1-0.3,0.3-0.4,0.5c0,0.1-0.1,0.2-0.1,0.3c0,0.1,0,0.3-0.1,0.5
				c0,0.2,0,0.6,0,1c0,0.4,0,1,0,1.7c0,0.4,0,0.8,0,1.2c0,0.4,0,0.8,0,1.2c-0.1,0-0.3,0-0.4,0c-0.1,0-0.3,0-0.4,0
				c0-0.6,0-1.1,0.1-1.7c0-0.6,0-1.2,0-1.7c0-0.5,0-0.9,0-1.1c0-0.3,0-0.5,0-0.6c0-0.2,0-0.3,0-0.4c0-0.1,0-0.2-0.1-0.3
				c-0.1-0.2-0.2-0.4-0.3-0.5c-0.1-0.1-0.3-0.2-0.4-0.2c-0.4,0-0.7,0.2-0.9,0.7c-0.2,0.4-0.3,1.1-0.3,1.9v1.3c0,0.5,0,0.9,0,1.5
				c0,0.5,0,1,0.1,1.4c-0.1,0-0.3,0-0.4,0c-0.1,0-0.3,0-0.4,0c0-0.4,0-0.9,0.1-1.4c0-0.5,0-1,0-1.5v-1.6
				C93.7,23.6,93.7,23.1,93.7,22.6z"/>
			<path class="st5" d="M101.1,23.2c0.1-0.5,0.3-0.9,0.5-1.2c0.2-0.3,0.5-0.5,0.7-0.7c0.3-0.1,0.6-0.2,0.9-0.2
				c0.3,0,0.6,0.1,0.9,0.2c0.3,0.1,0.5,0.3,0.6,0.5c0,0.2-0.1,0.3-0.1,0.5c0,0.2-0.1,0.3-0.1,0.5h-0.1c0-0.1-0.1-0.3-0.2-0.4
				c-0.1-0.1-0.2-0.3-0.3-0.4c-0.1-0.1-0.2-0.2-0.3-0.3c-0.1-0.1-0.3-0.1-0.4-0.1c-0.3,0-0.5,0.1-0.7,0.3c-0.2,0.2-0.4,0.4-0.5,0.7
				c-0.1,0.3-0.2,0.6-0.3,1.1c-0.1,0.4-0.1,0.8-0.1,1.3c0,1.1,0.1,1.9,0.4,2.4c0.3,0.5,0.7,0.8,1.2,0.8c0.1,0,0.2,0,0.4-0.1
				c0.1-0.1,0.3-0.1,0.4-0.2c0.1-0.1,0.2-0.2,0.3-0.3c0.1-0.1,0.2-0.3,0.3-0.4l0,0c0,0.2,0,0.5-0.1,0.8c-0.2,0.2-0.4,0.5-0.7,0.6
				c-0.3,0.2-0.5,0.3-0.8,0.3c-0.3,0-0.5-0.1-0.8-0.2c-0.3-0.1-0.5-0.3-0.7-0.6c-0.2-0.3-0.4-0.7-0.5-1.2c-0.1-0.5-0.2-1.1-0.2-1.8
				C100.9,24.2,101,23.6,101.1,23.2z"/>
			<path class="st5" d="M105.7,22.4c0.1-0.3,0.2-0.6,0.4-0.8c0.2-0.2,0.3-0.4,0.6-0.5c0.2-0.1,0.4-0.2,0.7-0.2c0.1,0,0.2,0,0.3,0
				c0.1,0,0.2,0,0.4,0c0.1,0,0.3,0,0.4,0c0.1,0,0.2,0,0.3,0c0.3,0,0.6,0,0.7-0.1c0,0.1,0,0.1,0,0.2c0,0.1,0,0.1,0,0.2
				c0,0.1,0,0.1,0,0.2c0,0.1,0,0.1,0,0.2c-0.2,0-0.3,0-0.5-0.1c-0.2,0-0.3,0-0.5-0.1l0,0c0.2,0.2,0.3,0.4,0.5,0.8
				c0.1,0.4,0.2,0.7,0.2,1.1c0,0.8-0.2,1.4-0.5,1.8c-0.3,0.4-0.7,0.7-1.2,0.7c-0.1,0-0.2,0-0.2,0c-0.1,0-0.2,0-0.2,0
				c-0.1,0-0.2,0.1-0.3,0.2c-0.1,0.1-0.1,0.3-0.1,0.5c0,0.3,0,0.5,0.1,0.6s0.2,0.2,0.4,0.2c0.2,0,0.3,0,0.5,0c0.2,0,0.3,0,0.5,0
				c0.3,0,0.5,0.1,0.7,0.2c0.2,0.1,0.4,0.2,0.5,0.4c0.1,0.2,0.2,0.4,0.3,0.6c0.1,0.2,0.1,0.5,0.1,0.7c0,0.4,0,0.7-0.1,1.1
				c-0.1,0.4-0.2,0.7-0.4,1c-0.2,0.3-0.4,0.5-0.7,0.7c-0.3,0.2-0.6,0.3-1,0.3c-0.6,0-1.1-0.2-1.4-0.6c-0.3-0.4-0.5-0.9-0.5-1.6
				c0-0.3,0-0.5,0.1-0.7c0.1-0.2,0.1-0.4,0.2-0.6c0.1-0.2,0.2-0.3,0.3-0.4c0.1-0.1,0.2-0.2,0.4-0.2v0c-0.2-0.1-0.3-0.2-0.4-0.5
				c-0.1-0.2-0.1-0.5-0.1-0.8c0-0.2,0-0.3,0.1-0.5c0-0.1,0.1-0.3,0.1-0.4c0.1-0.1,0.1-0.2,0.2-0.3c0.1-0.1,0.2-0.1,0.2-0.1v0
				c-0.3-0.2-0.5-0.5-0.7-0.9c-0.2-0.4-0.2-0.8-0.2-1.4C105.5,23.1,105.6,22.8,105.7,22.4z M108.5,28.9c-0.2-0.2-0.6-0.4-1.1-0.4
				c-0.5,0-0.8,0.1-1.1,0.4c-0.2,0.3-0.4,0.7-0.4,1.4c0,0.3,0,0.6,0.1,0.9c0.1,0.2,0.2,0.4,0.3,0.6c0.1,0.2,0.3,0.3,0.4,0.3
				c0.2,0.1,0.3,0.1,0.5,0.1c0.2,0,0.4,0,0.5-0.1c0.2-0.1,0.3-0.2,0.5-0.4c0.1-0.2,0.2-0.4,0.3-0.6c0.1-0.3,0.1-0.6,0.1-0.9
				C108.8,29.5,108.7,29.1,108.5,28.9z M108,22c-0.2-0.3-0.4-0.5-0.7-0.5c-0.3,0-0.6,0.2-0.8,0.6c-0.2,0.4-0.3,0.9-0.3,1.5
				c0,0.6,0.1,1.2,0.2,1.5c0.2,0.4,0.4,0.6,0.8,0.6c0.2,0,0.3-0.1,0.4-0.2c0.1-0.1,0.2-0.3,0.3-0.5c0.1-0.2,0.1-0.4,0.2-0.7
				c0-0.3,0.1-0.5,0.1-0.8C108.3,22.8,108.2,22.3,108,22z"/>
		</g>
		<g>
			<path class="st5" d="M113.1,21.2c0.2-0.1,0.5-0.2,0.7-0.2c0.2,0,0.4,0.1,0.6,0.2c0.2,0.1,0.3,0.3,0.5,0.5
				c0.1,0.2,0.2,0.4,0.3,0.7c0.1,0.3,0.1,0.6,0.1,0.9c0,0.6,0,1.2,0,1.7c0,0.6,0,1.2,0,1.8c0,0.1,0,0.3,0,0.4c0,0.1,0,0.3,0,0.4
				c0,0.1,0.1,0.2,0.1,0.3c0,0.1,0.1,0.1,0.2,0.1c0,0,0.1,0,0.1,0c0,0,0.1,0,0.1-0.1v0.3c-0.1,0.1-0.1,0.1-0.2,0.1
				c-0.1,0-0.2,0-0.3,0c-0.2,0-0.3-0.1-0.5-0.3c-0.1-0.2-0.2-0.4-0.2-0.7c-0.2,0.4-0.4,0.6-0.6,0.8c-0.2,0.2-0.5,0.3-0.8,0.3
				c-0.2,0-0.3,0-0.4-0.1c-0.1-0.1-0.3-0.2-0.4-0.4c-0.1-0.2-0.2-0.4-0.3-0.6c-0.1-0.2-0.1-0.5-0.1-0.8c0-0.6,0.1-1.1,0.3-1.4
				c0.2-0.3,0.5-0.6,0.9-0.7c0.3-0.1,0.6-0.2,0.8-0.2c0.2-0.1,0.3-0.1,0.4-0.2c0.1-0.1,0.1-0.2,0.2-0.3c0-0.1,0-0.2,0-0.4
				c0-0.3,0-0.5-0.1-0.7c0-0.2-0.1-0.4-0.2-0.6c-0.1-0.2-0.2-0.3-0.3-0.4c-0.1-0.1-0.3-0.2-0.5-0.2c-0.2,0-0.5,0.1-0.7,0.3
				c-0.2,0.2-0.4,0.4-0.5,0.8h-0.1v-0.8C112.6,21.6,112.9,21.4,113.1,21.2z M114.2,24.8c-0.1,0-0.3,0.1-0.4,0.1
				c-0.1,0-0.3,0.1-0.4,0.2c-0.1,0.1-0.3,0.2-0.4,0.3c-0.1,0.1-0.2,0.3-0.3,0.5c-0.1,0.2-0.1,0.4-0.1,0.7c0,0.5,0.1,0.8,0.2,1.1
				c0.2,0.2,0.3,0.4,0.5,0.4c0.2,0,0.4-0.1,0.6-0.3c0.2-0.2,0.3-0.5,0.4-0.8l0-2.3C114.5,24.7,114.4,24.8,114.2,24.8z"/>
		</g>
		<g>
			<path class="st5" d="M119.3,22.4c-0.2-0.4-0.4-0.6-0.7-0.6c-0.4,0-0.7,0.2-0.9,0.7c-0.2,0.4-0.3,1.1-0.3,1.9v1.3
				c0,0.5,0,0.9,0,1.5s0,1,0.1,1.4c-0.1,0-0.3,0-0.4,0c-0.1,0-0.3,0-0.4,0c0-0.4,0-0.9,0.1-1.4c0-0.5,0-1,0-1.5v-1.6
				c0-0.5,0-0.9,0-1.5c0-0.5,0-1-0.1-1.4c0.2,0.1,0.3,0.1,0.4,0.1c0,0,0.1,0,0.2,0c0.1,0,0.1,0,0.2-0.1c0,0.4,0,0.8,0,1.2h0
				c0.2-0.4,0.4-0.8,0.6-1c0.2-0.2,0.5-0.4,0.8-0.4c0.2,0,0.3,0,0.5,0.1c0.2,0.1,0.3,0.2,0.5,0.4c0.1,0.2,0.3,0.5,0.3,0.8
				c0.1,0.3,0.1,0.8,0.1,1.3c0,0.4,0,0.9,0,1.4c0,0.5,0,1,0,1.5v1c0,0.2,0,0.3,0,0.5c0,0.2,0,0.3,0,0.5c-0.1,0-0.3,0-0.4,0
				c-0.1,0-0.3,0-0.4,0c0-0.5,0-1.1,0-1.6c0-0.6,0-1.1,0-1.7v-0.9C119.6,23.4,119.5,22.8,119.3,22.4z"/>
			<path class="st5" d="M124.7,27.1c0,0.2-0.1,0.3-0.2,0.5c-0.1,0.2-0.2,0.4-0.3,0.5c-0.1,0.2-0.3,0.3-0.4,0.4
				c-0.2,0.1-0.4,0.2-0.6,0.2c-0.2,0-0.5-0.1-0.7-0.2c-0.2-0.1-0.4-0.4-0.6-0.7c-0.2-0.3-0.3-0.7-0.4-1.2c-0.1-0.5-0.2-1-0.2-1.7
				c0-0.7,0.1-1.2,0.2-1.7c0.1-0.5,0.3-0.9,0.4-1.2c0.2-0.3,0.4-0.6,0.6-0.7c0.2-0.2,0.5-0.2,0.7-0.2c0.7,0,1.1,0.5,1.4,1.5h0v-1.5
				c0-0.4,0-0.8,0-1.2c0-0.4,0-0.8,0-1.1c0-0.4,0-0.7,0-1c0-0.3,0-0.6,0-0.8c0.1,0,0.1,0,0.2,0.1c0.1,0,0.1,0,0.2,0
				c0.1,0,0.1,0,0.2,0c0.1,0,0.1,0,0.2-0.1c0,0.3,0,0.8,0,1.4c0,0.6,0,1.3,0,2.1c0,0.7,0,1.5,0,2.3c0,0.8,0,1.5,0,2.2
				c0,0.7,0,1.3,0,1.9c0,0.6,0,1.1,0,1.7c-0.1,0-0.2,0-0.4,0c-0.1,0-0.2,0-0.3,0L124.7,27.1L124.7,27.1z M122.3,26.5
				c0.1,0.4,0.2,0.7,0.3,1c0.1,0.2,0.3,0.4,0.4,0.5c0.2,0.1,0.3,0.1,0.4,0.1c0.2,0,0.4-0.1,0.6-0.3c0.2-0.2,0.3-0.5,0.4-0.8
				c0.1-0.3,0.2-0.7,0.2-1.1c0.1-0.4,0.1-0.8,0.1-1.2c0-1-0.1-1.7-0.3-2.3c-0.2-0.5-0.6-0.8-1-0.8c-0.2,0-0.4,0.1-0.6,0.3
				c-0.2,0.2-0.3,0.4-0.4,0.7c-0.1,0.3-0.2,0.7-0.2,1.1c-0.1,0.4-0.1,0.8-0.1,1.3C122.1,25.6,122.2,26.1,122.3,26.5z"/>
		</g>
	</g>
	<g>
		<g>
			<path class="st5" d="M1.9,38.9c-0.3-1.2-0.6-2.4-0.9-3.7c0.1,0,0.2,0,0.2,0.1c0.1,0,0.1,0,0.2,0c0.1,0,0.1,0,0.2,0
				c0.1,0,0.1,0,0.2-0.1c0.2,1,0.4,2,0.6,3c0.2,1,0.5,2,0.7,3c0.1-0.4,0.2-0.9,0.4-1.4c0.1-0.5,0.2-1,0.4-1.5c0.1-0.5,0.2-1,0.3-1.6
				c0.1-0.5,0.2-1,0.3-1.5c0.1,0.1,0.2,0.1,0.3,0.1c0.1,0,0.2,0,0.3-0.1c-0.3,1.2-0.6,2.5-1,3.7c-0.3,1.2-0.6,2.4-0.9,3.6
				c-0.1,0-0.2,0-0.3,0c-0.1,0-0.2,0-0.3,0C2.5,41.4,2.2,40.1,1.9,38.9z"/>
			<path class="st5" d="M6.3,32c0.1-0.2,0.2-0.2,0.3-0.2c0.1,0,0.2,0.1,0.3,0.2c0.1,0.2,0.1,0.3,0.1,0.6c0,0.2,0,0.4-0.1,0.6
				c-0.1,0.2-0.2,0.2-0.3,0.2c-0.1,0-0.2-0.1-0.3-0.2c-0.1-0.2-0.1-0.3-0.1-0.6C6.2,32.4,6.2,32.2,6.3,32z M6.3,36.7
				c0-0.5,0-1-0.1-1.4c0.2,0.1,0.3,0.1,0.4,0.1s0.2,0,0.4-0.1c0,0.4,0,0.9-0.1,1.4c0,0.5,0,1,0,1.5v1.6c0,0.5,0,0.9,0,1.5
				c0,0.5,0,1,0.1,1.4c-0.1,0-0.3,0-0.4,0c-0.1,0-0.3,0-0.4,0c0-0.4,0.1-0.9,0.1-1.4c0-0.5,0-1,0-1.5v-1.6
				C6.3,37.7,6.3,37.2,6.3,36.7z"/>
			<path class="st5" d="M8.8,34.3c0-0.4,0-0.8,0-1.2c0-0.4,0-0.8,0-1.1c0-0.4,0-0.7,0-0.9C8.9,31,9.1,31,9.2,31c0.1,0,0.2,0,0.4-0.1
				c0,0.3,0,0.6,0,0.9c0,0.4,0,0.7,0,1.1c0,0.4,0,0.8,0,1.2c0,0.4,0,0.8,0,1.1v2.8c0,0.3,0,0.7,0,1.1c0,0.4,0,0.8,0,1.2
				c0,0.4,0,0.8,0,1.1c0,0.4,0,0.7,0,0.9c-0.1,0-0.3,0-0.4,0c-0.1,0-0.3,0-0.4,0c0-0.2,0-0.5,0-0.9c0-0.4,0-0.7,0-1.1
				c0-0.4,0-0.8,0-1.2c0-0.4,0-0.8,0-1.1v-2.8C8.8,35.1,8.8,34.7,8.8,34.3z"/>
			<path class="st5" d="M11.9,35.3c0.2-0.1,0.5-0.2,0.7-0.2c0.2,0,0.4,0.1,0.6,0.2c0.2,0.1,0.3,0.3,0.5,0.5c0.1,0.2,0.2,0.4,0.3,0.7
				c0.1,0.3,0.1,0.6,0.1,0.9c0,0.6,0,1.2,0,1.7c0,0.6,0,1.2,0,1.8c0,0.1,0,0.3,0,0.4c0,0.1,0,0.3,0,0.4c0,0.1,0.1,0.2,0.1,0.3
				c0,0.1,0.1,0.1,0.2,0.1c0,0,0.1,0,0.1,0c0,0,0.1,0,0.1-0.1v0.3c-0.1,0.1-0.1,0.1-0.2,0.1c-0.1,0-0.2,0-0.3,0
				c-0.2,0-0.3-0.1-0.5-0.3c-0.1-0.2-0.2-0.4-0.2-0.7c-0.2,0.4-0.4,0.6-0.6,0.8c-0.2,0.2-0.5,0.3-0.8,0.3c-0.2,0-0.3,0-0.4-0.1
				c-0.1-0.1-0.3-0.2-0.4-0.4c-0.1-0.2-0.2-0.4-0.3-0.6c-0.1-0.2-0.1-0.5-0.1-0.8c0-0.6,0.1-1.1,0.3-1.4c0.2-0.3,0.5-0.6,0.9-0.7
				c0.3-0.1,0.6-0.2,0.8-0.2c0.2-0.1,0.3-0.1,0.4-0.2c0.1-0.1,0.1-0.2,0.2-0.3c0-0.1,0-0.2,0-0.4c0-0.3,0-0.5-0.1-0.7
				c0-0.2-0.1-0.4-0.2-0.6c-0.1-0.2-0.2-0.3-0.3-0.4c-0.1-0.1-0.3-0.2-0.5-0.2c-0.2,0-0.5,0.1-0.7,0.3c-0.2,0.2-0.4,0.4-0.5,0.8
				h-0.1V36C11.5,35.7,11.7,35.4,11.9,35.3z M13.1,38.9c-0.1,0-0.3,0.1-0.4,0.1c-0.1,0-0.3,0.1-0.4,0.2c-0.1,0.1-0.3,0.2-0.4,0.3
				c-0.1,0.1-0.2,0.3-0.3,0.5c-0.1,0.2-0.1,0.4-0.1,0.7c0,0.5,0.1,0.8,0.2,1.1c0.2,0.2,0.3,0.4,0.5,0.4c0.2,0,0.4-0.1,0.6-0.3
				c0.2-0.2,0.3-0.5,0.4-0.8l0-2.3C13.3,38.8,13.2,38.9,13.1,38.9z"/>
			<path class="st5" d="M18.3,36.5c-0.2-0.4-0.4-0.6-0.7-0.6c-0.4,0-0.7,0.2-0.9,0.7c-0.2,0.4-0.3,1.1-0.3,1.9v1.3
				c0,0.5,0,0.9,0,1.5c0,0.5,0,1,0.1,1.4c-0.1,0-0.3,0-0.4,0c-0.1,0-0.3,0-0.4,0c0-0.4,0-0.9,0.1-1.4c0-0.5,0-1,0-1.5v-1.6
				c0-0.5,0-0.9,0-1.5c0-0.5,0-1-0.1-1.4c0.2,0.1,0.3,0.1,0.4,0.1c0,0,0.1,0,0.2,0c0.1,0,0.1,0,0.2-0.1c0,0.4,0,0.8,0,1.2h0
				c0.2-0.4,0.4-0.8,0.6-1c0.2-0.2,0.5-0.4,0.8-0.4c0.2,0,0.3,0,0.5,0.1c0.2,0.1,0.3,0.2,0.5,0.4c0.1,0.2,0.3,0.5,0.3,0.8
				c0.1,0.3,0.1,0.8,0.1,1.3c0,0.4,0,0.9,0,1.4c0,0.5,0,1,0,1.5v1c0,0.2,0,0.3,0,0.5c0,0.2,0,0.3,0,0.5c-0.1,0-0.3,0-0.4,0
				c-0.1,0-0.3,0-0.4,0c0-0.5,0-1.1,0-1.6c0-0.6,0-1.1,0-1.7v-0.9C18.6,37.5,18.5,36.9,18.3,36.5z"/>
			<path class="st5" d="M21.5,33.2c0,0.4,0,0.8,0,1.1c0,0.4,0,0.8,0,1.1c0.1,0,0.2,0,0.4,0c0.2,0,0.4,0,0.6,0c0,0,0,0.1,0,0.2v0.2
				v0.2c0,0.1,0,0.1,0,0.2c-0.1,0-0.2,0-0.2,0c-0.1,0-0.2,0-0.3,0h-0.4c0,0,0,0.2,0,0.5c0,0.3,0,0.6,0,1c0,0.4,0,0.8,0,1.2
				c0,0.4,0,0.8,0,1.2c0,0.3,0,0.6,0,0.8c0,0.3,0,0.5,0.1,0.7c0,0.2,0.1,0.4,0.2,0.5c0.1,0.1,0.2,0.2,0.4,0.2c0,0,0.1,0,0.2,0
				c0.1,0,0.2,0,0.2-0.1v0.4c-0.1,0-0.2,0.1-0.3,0.1c-0.1,0-0.2,0.1-0.4,0.1c-0.4,0-0.7-0.2-0.8-0.5c-0.2-0.3-0.3-0.8-0.3-1.4
				c0-0.3,0-0.6,0-0.9c0-0.3,0-0.7,0-1.1c0-0.4,0-0.8,0-1.3c0-0.5,0-1,0-1.6h-0.3c0,0-0.1,0-0.2,0c-0.1,0-0.1,0-0.2,0
				c0-0.1,0-0.1,0-0.2c0-0.1,0-0.1,0-0.2c0-0.1,0-0.1,0-0.2c0-0.1,0-0.1,0-0.2c0.3,0,0.5,0,0.6,0c0-0.2,0-0.5,0-0.8c0-0.3,0-0.6,0-1
				L21.5,33.2L21.5,33.2z"/>
			<path class="st5" d="M23.4,36.2c0.4-0.7,0.9-1.1,1.5-1.1c0.3,0,0.6,0.1,0.8,0.3c0.2,0.2,0.4,0.4,0.6,0.7c0.2,0.3,0.3,0.6,0.3,1
				c0.1,0.4,0.1,0.8,0.1,1.2c0,0.1,0,0.2,0,0.3c0,0.1,0,0.2,0,0.3c-0.3,0-0.7,0-1,0c-0.3,0-0.6,0-1,0c-0.2,0-0.4,0-0.6,0
				c-0.2,0-0.4,0-0.6,0c0,0.1,0,0.1,0,0.2v0.2c0,0.4,0,0.8,0.1,1.1c0.1,0.3,0.2,0.6,0.3,0.9c0.1,0.3,0.3,0.5,0.5,0.6
				c0.2,0.1,0.4,0.2,0.7,0.2c0.1,0,0.2,0,0.4-0.1c0.1-0.1,0.3-0.1,0.4-0.2c0.1-0.1,0.2-0.2,0.3-0.3c0.1-0.1,0.2-0.3,0.3-0.4l0,0
				l-0.1,0.8c-0.2,0.2-0.4,0.5-0.7,0.6c-0.3,0.2-0.5,0.3-0.8,0.3c-0.3,0-0.6-0.1-0.9-0.3c-0.3-0.2-0.5-0.4-0.7-0.7
				c-0.2-0.3-0.3-0.7-0.5-1.1c-0.1-0.4-0.2-0.9-0.2-1.4C22.8,37.9,23,36.9,23.4,36.2z M24.4,35.9c-0.2,0.2-0.3,0.4-0.4,0.7
				c-0.1,0.3-0.2,0.5-0.2,0.9c-0.1,0.3-0.1,0.6-0.1,0.9c0.2,0,0.4,0,0.6,0c0.2,0,0.4,0,0.6,0c0.2,0,0.4,0,0.6,0c0.2,0,0.4,0,0.6,0
				c0-0.3,0-0.6,0-0.9c0-0.3-0.1-0.6-0.2-0.9c-0.1-0.3-0.2-0.5-0.3-0.7c-0.1-0.2-0.3-0.3-0.6-0.3C24.7,35.6,24.5,35.7,24.4,35.9z"/>
		</g>
		<g>
			<path class="st5" d="M29.7,36.4c-0.1-0.1-0.2-0.1-0.3-0.1c-0.1,0-0.3,0.1-0.4,0.2c-0.1,0.1-0.2,0.3-0.3,0.5
				c-0.1,0.2-0.1,0.4-0.2,0.7c0,0.3-0.1,0.5-0.1,0.8v1.7c0,0.7,0,1.2,0,1.6c0,0.4,0,0.7,0,0.9c-0.1,0-0.2,0-0.4,0
				c-0.1,0-0.3,0-0.4,0c0-0.3,0-0.8,0-1.4c0-0.6,0-1.3,0-2.2v-0.5c0-0.4,0-0.9,0-1.4c0-0.5,0-1.1,0-1.8c0.1,0,0.1,0,0.2,0.1
				c0.1,0,0.1,0,0.2,0c0.1,0,0.1,0,0.2,0c0.1,0,0.1,0,0.2-0.1c0,0.4,0,0.7,0,0.9c0,0.2,0,0.4,0,0.6l0,0c0.4-1.1,0.8-1.7,1.2-1.7
				c0.1,0,0.1,0,0.1,0c0,0,0.1,0,0.1,0.1c0,0.1,0,0.3-0.1,0.6c0,0.3,0,0.5,0,0.7l-0.1,0.1C29.8,36.5,29.7,36.4,29.7,36.4z"/>
		</g>
		<g>
			<path class="st5" d="M30.4,37.2c0.1-0.5,0.3-0.9,0.5-1.2c0.2-0.3,0.4-0.5,0.7-0.7c0.3-0.1,0.5-0.2,0.8-0.2c0.3,0,0.5,0.1,0.8,0.2
				c0.3,0.1,0.5,0.4,0.7,0.7c0.2,0.3,0.4,0.7,0.5,1.2c0.1,0.5,0.2,1.1,0.2,1.8c0,0.7-0.1,1.3-0.2,1.8c-0.1,0.5-0.3,0.9-0.5,1.2
				c-0.2,0.3-0.4,0.5-0.7,0.6c-0.3,0.1-0.5,0.2-0.8,0.2c-0.3,0-0.5-0.1-0.8-0.2c-0.3-0.1-0.5-0.3-0.7-0.6c-0.2-0.3-0.4-0.7-0.5-1.2
				c-0.1-0.5-0.2-1.1-0.2-1.8C30.2,38.2,30.3,37.6,30.4,37.2z M31.1,40.2c0,0.4,0.1,0.8,0.2,1.1c0.1,0.3,0.3,0.6,0.4,0.7
				c0.2,0.2,0.4,0.3,0.7,0.3c0.3,0,0.5-0.1,0.7-0.3c0.2-0.2,0.3-0.4,0.4-0.7c0.1-0.3,0.2-0.7,0.2-1.1c0-0.4,0.1-0.8,0.1-1.2
				c0-0.4,0-0.8-0.1-1.2c0-0.4-0.1-0.8-0.2-1.1c-0.1-0.3-0.3-0.6-0.4-0.7c-0.2-0.2-0.4-0.3-0.7-0.3c-0.3,0-0.5,0.1-0.7,0.3
				c-0.2,0.2-0.3,0.4-0.4,0.7c-0.1,0.3-0.2,0.7-0.2,1.1c0,0.4-0.1,0.8-0.1,1.2C31,39.4,31,39.8,31.1,40.2z"/>
		</g>
		<g>
			<path class="st5" d="M35.7,34.3c0-0.4,0-0.8,0-1.2c0-0.4,0-0.8,0-1.1c0-0.4,0-0.7,0-0.9C35.8,31,35.9,31,36,31
				c0.1,0,0.2,0,0.4-0.1c0,0.3,0,0.6,0,0.9c0,0.4,0,0.7,0,1.1c0,0.4,0,0.8,0,1.2c0,0.4,0,0.8,0,1.1v2.8c0,0.3,0,0.7,0,1.1
				c0,0.4,0,0.8,0,1.2c0,0.4,0,0.8,0,1.1c0,0.4,0,0.7,0,0.9c-0.1,0-0.3,0-0.4,0c-0.1,0-0.3,0-0.4,0c0-0.2,0-0.5,0-0.9
				c0-0.4,0-0.7,0-1.1c0-0.4,0-0.8,0-1.2c0-0.4,0-0.8,0-1.1v-2.8C35.7,35.1,35.7,34.7,35.7,34.3z"/>
		</g>
		<g>
			<path class="st5" d="M40.9,32.6c0.3-0.2,0.6-0.4,1-0.4c0.2,0,0.5,0.1,0.7,0.2c0.2,0.1,0.4,0.3,0.5,0.5c0.2,0.2,0.3,0.5,0.4,0.8
				c0.1,0.3,0.1,0.7,0.1,1.2c0,0.3,0,0.7-0.1,1c0,0.3-0.1,0.6-0.2,0.9c-0.1,0.3-0.2,0.6-0.4,0.9c-0.1,0.3-0.3,0.6-0.5,0.9
				c-0.1,0.2-0.2,0.4-0.4,0.7c-0.2,0.3-0.3,0.5-0.5,0.8c-0.2,0.3-0.3,0.5-0.4,0.8c-0.1,0.3-0.3,0.5-0.4,0.7h0.9c0.4,0,0.8,0,1.2,0
				c0.3,0,0.6-0.1,0.9-0.1c0,0.2,0,0.4,0,0.6c0,0.1,0,0.3,0,0.5c-0.3,0-0.7,0-1,0c-0.3,0-0.6,0-1,0c-0.3,0-0.7,0-1,0
				c-0.3,0-0.6,0-1,0v-0.2c0.4-0.7,0.8-1.3,1.1-1.9c0.3-0.5,0.6-1,0.8-1.5c0.2-0.4,0.4-0.8,0.5-1.2c0.1-0.3,0.2-0.7,0.3-1
				c0.1-0.3,0.1-0.6,0.2-0.9c0-0.3,0-0.6,0-1c0-0.8-0.1-1.3-0.3-1.7c-0.2-0.4-0.4-0.5-0.7-0.5c-0.2,0-0.4,0.1-0.5,0.2
				c-0.1,0.1-0.3,0.3-0.3,0.4c-0.1,0.2-0.2,0.4-0.2,0.5c0,0.2-0.1,0.4-0.1,0.5l-0.1,0l-0.3-0.8C40.4,33.2,40.6,32.8,40.9,32.6z"/>
		</g>
		<g>
			<path class="st5" d="M45.9,36.5c0.1-0.1,0.3-0.1,0.6-0.1c0.3,0,0.5,0.1,0.7,0.2c0.2,0.2,0.4,0.4,0.5,0.6c0.2,0.3,0.3,0.6,0.3,0.9
				c0.1,0.3,0.1,0.7,0.1,1.1c0,0.5-0.1,0.9-0.2,1.4c-0.1,0.4-0.3,0.8-0.5,1.1c-0.2,0.3-0.4,0.6-0.7,0.7c-0.3,0.2-0.6,0.3-0.9,0.3
				c-0.3,0-0.5,0-0.8-0.1c-0.3-0.1-0.5-0.2-0.7-0.5V42c0-0.1,0.1-0.3,0.1-0.5c0-0.2,0-0.3,0.1-0.4h0.1c0.1,0.2,0.1,0.3,0.2,0.5
				c0.1,0.1,0.2,0.3,0.3,0.4c0.1,0.1,0.2,0.2,0.4,0.2c0.1,0,0.3,0.1,0.4,0.1c0.2,0,0.4-0.1,0.5-0.2c0.2-0.1,0.3-0.3,0.4-0.5
				c0.1-0.2,0.2-0.5,0.3-0.9c0.1-0.4,0.1-0.8,0.1-1.3c0-0.4,0-0.8-0.1-1.1c-0.1-0.3-0.2-0.6-0.3-0.8c-0.1-0.2-0.3-0.3-0.4-0.4
				c-0.2-0.1-0.3-0.1-0.5-0.1c-0.3,0-0.5,0.1-0.6,0.2c-0.2,0.1-0.3,0.2-0.3,0.3l-0.1-0.1c0-0.4,0.1-0.8,0.1-1.3c0-0.4,0-0.9,0-1.3
				c0-0.4,0-0.9,0-1.3c0-0.5,0-0.9-0.1-1.2l0.1-0.1c0.1,0,0.3,0.1,0.5,0.1c0.3,0,0.6,0,1.1,0c0.3,0,0.5,0,0.8,0c0.2,0,0.4,0,0.5,0
				l0,0.1c0,0.1,0,0.3,0,0.4c0,0.1,0,0.3,0,0.4c0,0.1,0,0.2,0,0.3c-0.1,0-0.3-0.1-0.5-0.1c-0.2,0-0.5,0-0.7-0.1c-0.2,0-0.5,0-0.7,0
				c-0.2,0-0.4,0-0.5,0l-0.1,3.5C45.7,36.7,45.8,36.6,45.9,36.5z"/>
		</g>
		<g>
			<path class="st5" d="M51.1,36.7c0-0.5,0-1-0.1-1.4c0.2,0.1,0.3,0.1,0.4,0.1c0,0,0.1,0,0.2,0c0.1,0,0.1,0,0.2-0.1
				c0,0.4,0,0.8,0,1.2h0c0.3-0.9,0.8-1.4,1.3-1.4c0.2,0,0.3,0,0.4,0.1c0.1,0.1,0.3,0.2,0.4,0.3c0.1,0.1,0.2,0.3,0.3,0.5
				c0.1,0.2,0.1,0.4,0.2,0.6h0c0.1-0.5,0.3-0.9,0.6-1.1c0.3-0.3,0.5-0.4,0.9-0.4c0.2,0,0.4,0,0.6,0.1c0.2,0.1,0.3,0.2,0.4,0.4
				c0.1,0.2,0.2,0.4,0.3,0.8c0.1,0.3,0.1,0.7,0.1,1.1c0,0.2,0,0.4,0,0.6c0,0.2,0,0.4,0,0.7c0,0.3,0,0.6,0,0.9c0,0.3,0,0.7,0,1.2
				c0,0.3,0,0.5,0,0.8c0,0.3,0,0.5,0,0.8c-0.1,0-0.1,0-0.2,0c-0.1,0-0.1,0-0.2,0c-0.1,0-0.1,0-0.2,0c-0.1,0-0.1,0-0.2,0
				c0-0.3,0-0.8,0.1-1.6c0-0.8,0-1.9,0-3.3c0-0.3,0-0.5-0.1-0.7c0-0.2-0.1-0.4-0.2-0.6c-0.1-0.2-0.2-0.3-0.3-0.4
				c-0.1-0.1-0.3-0.1-0.5-0.1c-0.2,0-0.4,0.1-0.6,0.2c-0.2,0.1-0.3,0.3-0.4,0.5c0,0.1-0.1,0.2-0.1,0.3c0,0.1,0,0.3-0.1,0.5
				c0,0.2,0,0.6,0,1c0,0.4,0,1,0,1.7c0,0.4,0,0.8,0,1.2c0,0.4,0,0.8,0,1.2c-0.1,0-0.3,0-0.4,0c-0.1,0-0.3,0-0.4,0
				c0-0.6,0-1.1,0.1-1.7c0-0.6,0-1.2,0-1.7c0-0.5,0-0.9,0-1.1c0-0.3,0-0.5,0-0.6c0-0.2,0-0.3,0-0.4c0-0.1,0-0.2-0.1-0.3
				c-0.1-0.2-0.2-0.4-0.3-0.5c-0.1-0.1-0.3-0.2-0.4-0.2c-0.4,0-0.7,0.2-0.9,0.7c-0.2,0.4-0.3,1.1-0.3,1.9v1.3c0,0.5,0,0.9,0,1.5
				c0,0.5,0,1,0.1,1.4c-0.1,0-0.3,0-0.4,0c-0.1,0-0.3,0-0.4,0c0-0.4,0-0.9,0.1-1.4c0-0.5,0-1,0-1.5v-1.6
				C51.1,37.7,51.1,37.2,51.1,36.7z"/>
			<path class="st5" d="M58.5,37.2c0.1-0.5,0.3-0.9,0.5-1.2c0.2-0.3,0.5-0.5,0.7-0.7c0.3-0.1,0.6-0.2,0.9-0.2c0.3,0,0.6,0.1,0.9,0.2
				c0.3,0.1,0.5,0.3,0.6,0.5c0,0.2-0.1,0.3-0.1,0.5c0,0.2-0.1,0.3-0.1,0.5h-0.1c0-0.1-0.1-0.3-0.2-0.4c-0.1-0.1-0.2-0.3-0.3-0.4
				c-0.1-0.1-0.2-0.2-0.3-0.3c-0.1-0.1-0.3-0.1-0.4-0.1c-0.3,0-0.5,0.1-0.7,0.3c-0.2,0.2-0.4,0.4-0.5,0.7c-0.1,0.3-0.2,0.6-0.3,1.1
				c-0.1,0.4-0.1,0.8-0.1,1.3c0,1.1,0.1,1.9,0.4,2.4c0.3,0.5,0.7,0.8,1.2,0.8c0.1,0,0.2,0,0.4-0.1c0.1-0.1,0.3-0.1,0.4-0.2
				c0.1-0.1,0.2-0.2,0.3-0.3c0.1-0.1,0.2-0.3,0.3-0.4l0,0c0,0.2,0,0.5-0.1,0.8c-0.2,0.2-0.4,0.5-0.7,0.6c-0.3,0.2-0.5,0.3-0.8,0.3
				c-0.3,0-0.5-0.1-0.8-0.2c-0.3-0.1-0.5-0.3-0.7-0.6c-0.2-0.3-0.4-0.7-0.5-1.2c-0.1-0.5-0.2-1.1-0.2-1.8
				C58.3,38.3,58.4,37.7,58.5,37.2z"/>
			<path class="st5" d="M63.1,36.5c0.1-0.3,0.2-0.6,0.4-0.8c0.2-0.2,0.3-0.4,0.6-0.5c0.2-0.1,0.4-0.2,0.7-0.2c0.1,0,0.2,0,0.3,0
				c0.1,0,0.2,0,0.4,0c0.1,0,0.3,0,0.4,0c0.1,0,0.2,0,0.3,0c0.3,0,0.6,0,0.7-0.1c0,0.1,0,0.1,0,0.2c0,0.1,0,0.1,0,0.2
				c0,0.1,0,0.1,0,0.2c0,0.1,0,0.1,0,0.2c-0.2,0-0.3,0-0.5-0.1c-0.2,0-0.3,0-0.5-0.1l0,0c0.2,0.2,0.3,0.4,0.5,0.8
				c0.1,0.4,0.2,0.7,0.2,1.1c0,0.8-0.2,1.4-0.5,1.8c-0.3,0.4-0.7,0.7-1.2,0.7c-0.1,0-0.2,0-0.2,0c-0.1,0-0.2,0-0.2,0
				c-0.1,0-0.2,0.1-0.3,0.2c-0.1,0.1-0.1,0.3-0.1,0.5c0,0.3,0,0.5,0.1,0.6c0.1,0.1,0.2,0.2,0.4,0.2c0.2,0,0.3,0,0.5,0
				c0.2,0,0.3,0,0.5,0c0.3,0,0.5,0.1,0.7,0.2c0.2,0.1,0.4,0.2,0.5,0.4c0.1,0.2,0.2,0.4,0.3,0.6c0.1,0.2,0.1,0.5,0.1,0.7
				c0,0.4,0,0.7-0.1,1.1c-0.1,0.4-0.2,0.7-0.4,1c-0.2,0.3-0.4,0.5-0.7,0.7c-0.3,0.2-0.6,0.3-1,0.3c-0.6,0-1.1-0.2-1.4-0.6
				c-0.3-0.4-0.5-0.9-0.5-1.6c0-0.3,0-0.5,0.1-0.7c0.1-0.2,0.1-0.4,0.2-0.6c0.1-0.2,0.2-0.3,0.3-0.4c0.1-0.1,0.2-0.2,0.4-0.2v0
				c-0.2-0.1-0.3-0.2-0.4-0.5c-0.1-0.2-0.1-0.5-0.1-0.8c0-0.2,0-0.3,0.1-0.5c0-0.1,0.1-0.3,0.1-0.4c0.1-0.1,0.1-0.2,0.2-0.3
				c0.1-0.1,0.2-0.1,0.2-0.1v0c-0.3-0.2-0.5-0.5-0.7-0.9C63,38.6,63,38.2,63,37.6C63,37.2,63,36.8,63.1,36.5z M65.9,42.9
				c-0.2-0.2-0.6-0.4-1.1-0.4c-0.5,0-0.8,0.1-1.1,0.4c-0.2,0.3-0.4,0.7-0.4,1.4c0,0.3,0,0.6,0.1,0.9c0.1,0.2,0.2,0.4,0.3,0.6
				c0.1,0.2,0.3,0.3,0.4,0.3c0.2,0.1,0.3,0.1,0.5,0.1c0.2,0,0.4,0,0.5-0.1c0.2-0.1,0.3-0.2,0.5-0.4c0.1-0.2,0.2-0.4,0.3-0.6
				c0.1-0.3,0.1-0.6,0.1-0.9C66.2,43.6,66.1,43.2,65.9,42.9z M65.4,36.1c-0.2-0.3-0.4-0.5-0.7-0.5c-0.3,0-0.6,0.2-0.8,0.6
				c-0.2,0.4-0.3,0.9-0.3,1.5c0,0.6,0.1,1.2,0.2,1.5c0.2,0.4,0.4,0.6,0.8,0.6c0.2,0,0.3-0.1,0.4-0.2c0.1-0.1,0.2-0.3,0.3-0.5
				c0.1-0.2,0.1-0.4,0.2-0.7c0-0.3,0.1-0.5,0.1-0.8C65.7,36.9,65.6,36.4,65.4,36.1z"/>
		</g>
		<g>
			<path class="st5" d="M70.3,32c0.1-0.2,0.2-0.2,0.3-0.2c0.1,0,0.2,0.1,0.3,0.2c0.1,0.2,0.1,0.3,0.1,0.6c0,0.2,0,0.4-0.1,0.6
				c-0.1,0.2-0.2,0.2-0.3,0.2c-0.1,0-0.2-0.1-0.3-0.2c-0.1-0.2-0.1-0.3-0.1-0.6C70.2,32.4,70.2,32.2,70.3,32z M70.3,36.7
				c0-0.5,0-1-0.1-1.4c0.2,0.1,0.3,0.1,0.4,0.1s0.2,0,0.4-0.1c0,0.4-0.1,0.9-0.1,1.4c0,0.5,0,1,0,1.5v1.6c0,0.5,0,0.9,0,1.5
				c0,0.5,0,1,0.1,1.4c-0.1,0-0.3,0-0.4,0c-0.1,0-0.3,0-0.4,0c0-0.4,0-0.9,0.1-1.4c0-0.5,0-1,0-1.5v-1.6
				C70.3,37.7,70.3,37.2,70.3,36.7z"/>
			<path class="st5" d="M75.3,36.5c-0.2-0.4-0.4-0.6-0.7-0.6c-0.4,0-0.7,0.2-0.9,0.7c-0.2,0.4-0.3,1.1-0.3,1.9v1.3
				c0,0.5,0,0.9,0,1.5c0,0.5,0,1,0.1,1.4c-0.1,0-0.3,0-0.4,0c-0.1,0-0.3,0-0.4,0c0-0.4,0-0.9,0.1-1.4c0-0.5,0-1,0-1.5v-1.6
				c0-0.5,0-0.9,0-1.5c0-0.5,0-1-0.1-1.4c0.2,0.1,0.3,0.1,0.4,0.1c0,0,0.1,0,0.2,0c0.1,0,0.1,0,0.2-0.1c0,0.4,0,0.8,0,1.2h0
				c0.2-0.4,0.4-0.8,0.6-1c0.2-0.2,0.5-0.4,0.8-0.4c0.2,0,0.3,0,0.5,0.1c0.2,0.1,0.3,0.2,0.5,0.4c0.1,0.2,0.3,0.5,0.3,0.8
				c0.1,0.3,0.1,0.8,0.1,1.3c0,0.4,0,0.9,0,1.4c0,0.5,0,1,0,1.5v1c0,0.2,0,0.3,0,0.5c0,0.2,0,0.3,0,0.5c-0.1,0-0.3,0-0.4,0
				c-0.1,0-0.3,0-0.4,0c0-0.5,0-1.1,0-1.6c0-0.6,0-1.1,0-1.7v-0.9C75.6,37.5,75.5,36.9,75.3,36.5z"/>
			<path class="st5" d="M77.7,34.3c0-0.4,0-0.8,0-1.2c0-0.4,0-0.8,0-1.1c0-0.4,0-0.7,0-0.9C77.8,31,78,31,78.1,31s0.2,0,0.4-0.1
				c0,0.3,0,0.6,0,0.9c0,0.4,0,0.7,0,1.1c0,0.4,0,0.8,0,1.2c0,0.4,0,0.8,0,1.1v1.2h0c0.2-0.4,0.4-0.8,0.6-1c0.2-0.2,0.5-0.4,0.8-0.4
				c0.2,0,0.3,0,0.5,0.1c0.2,0.1,0.3,0.2,0.5,0.4c0.1,0.2,0.3,0.5,0.3,0.8c0.1,0.3,0.1,0.8,0.1,1.3c0,0.4,0,0.9,0,1.4
				c0,0.5,0,1,0,1.5v1c0,0.2,0,0.3,0,0.5c0,0.2,0,0.3,0,0.5c-0.1,0-0.3,0-0.4,0c-0.1,0-0.3,0-0.4,0c0-0.5,0-1.1,0-1.6
				c0-0.6,0-1.1,0-1.7v-0.9c0-0.8-0.1-1.4-0.3-1.7c-0.2-0.4-0.4-0.6-0.7-0.6c-0.4,0-0.7,0.2-0.9,0.7c-0.2,0.4-0.3,1.1-0.3,1.9
				c0,0.3,0,0.6,0,1c0,0.4,0,0.8,0,1.1c0,0.4,0,0.8,0,1.1c0,0.4,0,0.7,0,0.9c-0.1,0-0.3,0-0.4,0c-0.1,0-0.3,0-0.4,0
				c0-0.2,0-0.5,0-0.9c0-0.4,0-0.7,0-1.1c0-0.4,0-0.8,0-1.2c0-0.4,0-0.8,0-1.1v-2.8C77.7,35.1,77.7,34.7,77.7,34.3z"/>
			<path class="st5" d="M83.5,35.3c0.2-0.1,0.5-0.2,0.7-0.2c0.2,0,0.4,0.1,0.6,0.2c0.2,0.1,0.3,0.3,0.5,0.5c0.1,0.2,0.2,0.4,0.3,0.7
				c0.1,0.3,0.1,0.6,0.1,0.9c0,0.6,0,1.2,0,1.7c0,0.6,0,1.2,0,1.8c0,0.1,0,0.3,0,0.4c0,0.1,0,0.3,0,0.4c0,0.1,0.1,0.2,0.1,0.3
				c0,0.1,0.1,0.1,0.2,0.1c0,0,0.1,0,0.1,0c0,0,0.1,0,0.1-0.1v0.3c-0.1,0.1-0.1,0.1-0.2,0.1c-0.1,0-0.2,0-0.3,0
				c-0.2,0-0.3-0.1-0.5-0.3c-0.1-0.2-0.2-0.4-0.2-0.7c-0.2,0.4-0.4,0.6-0.6,0.8c-0.2,0.2-0.5,0.3-0.8,0.3c-0.2,0-0.3,0-0.4-0.1
				c-0.1-0.1-0.3-0.2-0.4-0.4c-0.1-0.2-0.2-0.4-0.3-0.6c-0.1-0.2-0.1-0.5-0.1-0.8c0-0.6,0.1-1.1,0.3-1.4c0.2-0.3,0.5-0.6,0.9-0.7
				c0.3-0.1,0.6-0.2,0.8-0.2c0.2-0.1,0.3-0.1,0.4-0.2c0.1-0.1,0.1-0.2,0.2-0.3c0-0.1,0-0.2,0-0.4c0-0.3,0-0.5-0.1-0.7
				c0-0.2-0.1-0.4-0.2-0.6c-0.1-0.2-0.2-0.3-0.3-0.4c-0.1-0.1-0.3-0.2-0.5-0.2c-0.2,0-0.5,0.1-0.7,0.3c-0.2,0.2-0.4,0.4-0.5,0.8
				h-0.1V36C83.1,35.7,83.3,35.4,83.5,35.3z M84.7,38.9c-0.1,0-0.3,0.1-0.4,0.1c-0.1,0-0.3,0.1-0.4,0.2c-0.1,0.1-0.3,0.2-0.4,0.3
				c-0.1,0.1-0.2,0.3-0.3,0.5c-0.1,0.2-0.1,0.4-0.1,0.7c0,0.5,0.1,0.8,0.2,1.1c0.2,0.2,0.3,0.4,0.5,0.4c0.2,0,0.4-0.1,0.6-0.3
				c0.2-0.2,0.3-0.5,0.4-0.8l0-2.3C84.9,38.8,84.8,38.9,84.7,38.9z"/>
			<path class="st5" d="M87.5,34.3c0-0.4,0-0.8,0-1.2c0-0.4,0-0.8,0-1.1c0-0.4,0-0.7,0-0.9c0.2,0.1,0.3,0.1,0.4,0.1
				c0.1,0,0.2,0,0.4-0.1c0,0.3,0,0.6,0,0.9c0,0.4,0,0.7,0,1.1c0,0.4,0,0.8,0,1.2c0,0.4,0,0.8,0,1.1v2.8c0,0.3,0,0.7,0,1.1
				c0,0.4,0,0.8,0,1.2c0,0.4,0,0.8,0,1.1c0,0.4,0,0.7,0,0.9c-0.1,0-0.3,0-0.4,0c-0.1,0-0.3,0-0.4,0c0-0.2,0-0.5,0-0.9
				c0-0.4,0-0.7,0-1.1c0-0.4,0-0.8,0-1.2c0-0.4,0-0.8,0-1.1v-2.8C87.5,35.1,87.5,34.7,87.5,34.3z"/>
			<path class="st5" d="M90.6,35.3c0.2-0.1,0.5-0.2,0.7-0.2c0.2,0,0.4,0.1,0.6,0.2c0.2,0.1,0.3,0.3,0.5,0.5c0.1,0.2,0.2,0.4,0.3,0.7
				c0.1,0.3,0.1,0.6,0.1,0.9c0,0.6,0,1.2,0,1.7c0,0.6,0,1.2,0,1.8c0,0.1,0,0.3,0,0.4c0,0.1,0,0.3,0,0.4c0,0.1,0.1,0.2,0.1,0.3
				c0,0.1,0.1,0.1,0.2,0.1c0,0,0.1,0,0.1,0c0,0,0.1,0,0.1-0.1v0.3c-0.1,0.1-0.1,0.1-0.2,0.1c-0.1,0-0.2,0-0.3,0
				c-0.2,0-0.3-0.1-0.5-0.3c-0.1-0.2-0.2-0.4-0.2-0.7c-0.2,0.4-0.4,0.6-0.6,0.8c-0.2,0.2-0.5,0.3-0.8,0.3c-0.2,0-0.3,0-0.4-0.1
				c-0.1-0.1-0.3-0.2-0.4-0.4c-0.1-0.2-0.2-0.4-0.3-0.6c-0.1-0.2-0.1-0.5-0.1-0.8c0-0.6,0.1-1.1,0.3-1.4c0.2-0.3,0.5-0.6,0.9-0.7
				c0.3-0.1,0.6-0.2,0.8-0.2c0.2-0.1,0.3-0.1,0.4-0.2c0.1-0.1,0.1-0.2,0.2-0.3c0-0.1,0-0.2,0-0.4c0-0.3,0-0.5-0.1-0.7
				c0-0.2-0.1-0.4-0.2-0.6c-0.1-0.2-0.2-0.3-0.3-0.4c-0.1-0.1-0.3-0.2-0.5-0.2c-0.2,0-0.5,0.1-0.7,0.3c-0.2,0.2-0.4,0.4-0.5,0.8
				h-0.1V36C90.1,35.7,90.4,35.4,90.6,35.3z M91.7,38.9c-0.1,0-0.3,0.1-0.4,0.1c-0.1,0-0.3,0.1-0.4,0.2c-0.1,0.1-0.3,0.2-0.4,0.3
				c-0.1,0.1-0.2,0.3-0.3,0.5c-0.1,0.2-0.1,0.4-0.1,0.7c0,0.5,0.1,0.8,0.2,1.1c0.2,0.2,0.3,0.4,0.5,0.4c0.2,0,0.4-0.1,0.6-0.3
				c0.2-0.2,0.3-0.5,0.4-0.8l0-2.3C92,38.8,91.9,38.9,91.7,38.9z"/>
			<path class="st5" d="M95.1,33.2c0,0.4,0,0.8,0,1.1c0,0.4,0,0.8,0,1.1c0.1,0,0.2,0,0.4,0c0.2,0,0.4,0,0.6,0c0,0,0,0.1,0,0.2v0.2
				v0.2c0,0.1,0,0.1,0,0.2c-0.1,0-0.2,0-0.2,0c-0.1,0-0.2,0-0.3,0h-0.4c0,0,0,0.2,0,0.5c0,0.3,0,0.6,0,1c0,0.4,0,0.8,0,1.2
				c0,0.4,0,0.8,0,1.2c0,0.3,0,0.6,0,0.8c0,0.3,0,0.5,0.1,0.7c0,0.2,0.1,0.4,0.2,0.5c0.1,0.1,0.2,0.2,0.4,0.2c0,0,0.1,0,0.2,0
				c0.1,0,0.2,0,0.2-0.1v0.4c-0.1,0-0.2,0.1-0.3,0.1c-0.1,0-0.2,0.1-0.4,0.1c-0.4,0-0.7-0.2-0.8-0.5c-0.2-0.3-0.3-0.8-0.3-1.4
				c0-0.3,0-0.6,0-0.9c0-0.3,0-0.7,0-1.1c0-0.4,0-0.8,0-1.3c0-0.5,0-1,0-1.6h-0.3c0,0-0.1,0-0.2,0c-0.1,0-0.1,0-0.2,0
				c0-0.1,0-0.1,0-0.2c0-0.1,0-0.1,0-0.2c0-0.1,0-0.1,0-0.2c0-0.1,0-0.1,0-0.2c0.3,0,0.5,0,0.6,0c0-0.2,0-0.5,0-0.8c0-0.3,0-0.6,0-1
				L95.1,33.2L95.1,33.2z"/>
			<path class="st5" d="M97.1,32c0.1-0.2,0.2-0.2,0.3-0.2c0.1,0,0.2,0.1,0.3,0.2c0.1,0.2,0.1,0.3,0.1,0.6c0,0.2,0,0.4-0.1,0.6
				c-0.1,0.2-0.2,0.2-0.3,0.2c-0.1,0-0.2-0.1-0.3-0.2c-0.1-0.2-0.1-0.3-0.1-0.6C96.9,32.4,97,32.2,97.1,32z M97,36.7
				c0-0.5,0-1-0.1-1.4c0.2,0.1,0.3,0.1,0.4,0.1c0.1,0,0.2,0,0.4-0.1c0,0.4,0,0.9-0.1,1.4c0,0.5,0,1,0,1.5v1.6c0,0.5,0,0.9,0,1.5
				c0,0.5,0,1,0.1,1.4c-0.1,0-0.3,0-0.4,0c-0.1,0-0.3,0-0.4,0c0-0.4,0.1-0.9,0.1-1.4c0-0.5,0-1,0-1.5v-1.6
				C97.1,37.7,97.1,37.2,97,36.7z"/>
			<path class="st5" d="M99.2,37.2c0.1-0.5,0.3-0.9,0.5-1.2c0.2-0.3,0.4-0.5,0.7-0.7c0.3-0.1,0.5-0.2,0.8-0.2c0.3,0,0.5,0.1,0.8,0.2
				c0.3,0.1,0.5,0.4,0.7,0.7c0.2,0.3,0.4,0.7,0.5,1.2c0.1,0.5,0.2,1.1,0.2,1.8c0,0.7-0.1,1.3-0.2,1.8c-0.1,0.5-0.3,0.9-0.5,1.2
				c-0.2,0.3-0.4,0.5-0.7,0.6c-0.3,0.1-0.5,0.2-0.8,0.2c-0.3,0-0.5-0.1-0.8-0.2c-0.3-0.1-0.5-0.3-0.7-0.6c-0.2-0.3-0.4-0.7-0.5-1.2
				C99,40.2,99,39.6,99,38.9C99,38.2,99,37.6,99.2,37.2z M99.8,40.2c0,0.4,0.1,0.8,0.2,1.1c0.1,0.3,0.3,0.6,0.4,0.7
				c0.2,0.2,0.4,0.3,0.7,0.3s0.5-0.1,0.7-0.3c0.2-0.2,0.3-0.4,0.4-0.7c0.1-0.3,0.2-0.7,0.2-1.1c0-0.4,0.1-0.8,0.1-1.2
				c0-0.4,0-0.8-0.1-1.2c0-0.4-0.1-0.8-0.2-1.1c-0.1-0.3-0.3-0.6-0.4-0.7c-0.2-0.2-0.4-0.3-0.7-0.3s-0.5,0.1-0.7,0.3
				c-0.2,0.2-0.3,0.4-0.4,0.7c-0.1,0.3-0.2,0.7-0.2,1.1c0,0.4-0.1,0.8-0.1,1.2C99.8,39.4,99.8,39.8,99.8,40.2z"/>
			<path class="st5" d="M107.1,36.5c-0.2-0.4-0.4-0.6-0.7-0.6c-0.4,0-0.7,0.2-0.9,0.7c-0.2,0.4-0.3,1.1-0.3,1.9v1.3
				c0,0.5,0,0.9,0,1.5c0,0.5,0,1,0.1,1.4c-0.1,0-0.3,0-0.4,0c-0.1,0-0.3,0-0.4,0c0-0.4,0-0.9,0.1-1.4c0-0.5,0-1,0-1.5v-1.6
				c0-0.5,0-0.9,0-1.5c0-0.5,0-1-0.1-1.4c0.2,0.1,0.3,0.1,0.4,0.1c0,0,0.1,0,0.2,0c0.1,0,0.1,0,0.2-0.1c0,0.4,0,0.8,0,1.2h0
				c0.2-0.4,0.4-0.8,0.6-1c0.2-0.2,0.5-0.4,0.8-0.4c0.2,0,0.3,0,0.5,0.1c0.2,0.1,0.3,0.2,0.5,0.4c0.1,0.2,0.3,0.5,0.3,0.8
				c0.1,0.3,0.1,0.8,0.1,1.3c0,0.4,0,0.9,0,1.4c0,0.5,0,1,0,1.5v1c0,0.2,0,0.3,0,0.5c0,0.2,0,0.3,0,0.5c-0.1,0-0.3,0-0.4,0
				c-0.1,0-0.3,0-0.4,0c0-0.5,0-1.1,0-1.6c0-0.6,0-1.1,0-1.7v-0.9C107.4,37.5,107.3,36.9,107.1,36.5z"/>
			<path class="st5" d="M111.9,38.6c0-0.4,0-0.8,0-1.2c0-0.4,0-0.8,0-1.2c0-0.4,0-0.7,0-1c0.2,0.1,0.3,0.1,0.4,0.1s0.2,0,0.4-0.1
				c0,0.3,0,0.5-0.1,0.8c0,0.2,0,0.5,0,0.7h0c0-0.2,0.1-0.3,0.2-0.5c0.1-0.2,0.2-0.4,0.3-0.5c0.1-0.2,0.3-0.3,0.4-0.4
				c0.2-0.1,0.4-0.2,0.6-0.2c0.2,0,0.5,0.1,0.7,0.2c0.2,0.1,0.4,0.4,0.6,0.7c0.2,0.3,0.3,0.7,0.4,1.2c0.1,0.5,0.2,1,0.2,1.7
				c0,0.7-0.1,1.2-0.2,1.7c-0.1,0.5-0.3,0.9-0.4,1.2c-0.2,0.3-0.4,0.6-0.6,0.7c-0.2,0.1-0.5,0.2-0.7,0.2c-0.7,0-1.1-0.5-1.4-1.5h0v1
				c0,0.3,0,0.7,0,1.1c0,0.4,0,0.8,0,1.2s0,0.8,0,1.1c0,0.4,0,0.7,0,0.9c-0.2-0.1-0.3-0.1-0.4-0.1s-0.2,0-0.4,0.1c0-0.3,0-0.6,0-0.9
				c0-0.4,0-0.7,0-1.1c0-0.4,0-0.8,0-1.2c0-0.4,0-0.8,0-1.1v-2.5C111.9,39.4,111.9,39,111.9,38.6z M115,37.4c-0.1-0.4-0.2-0.7-0.3-1
				c-0.1-0.2-0.3-0.4-0.4-0.5c-0.2-0.1-0.3-0.1-0.4-0.1c-0.2,0-0.4,0.1-0.6,0.3c-0.2,0.2-0.3,0.4-0.4,0.7c-0.1,0.3-0.2,0.6-0.2,1
				c0,0.4-0.1,0.8-0.1,1.3c0,2.1,0.4,3.2,1.3,3.2c0.2,0,0.4-0.1,0.6-0.3c0.2-0.2,0.3-0.4,0.4-0.7c0.1-0.3,0.2-0.7,0.2-1.1
				c0.1-0.4,0.1-0.8,0.1-1.3C115.1,38.3,115.1,37.8,115,37.4z"/>
			<path class="st5" d="M116.8,37.2c0.1-0.5,0.3-0.9,0.5-1.2c0.2-0.3,0.4-0.5,0.7-0.7c0.3-0.1,0.5-0.2,0.8-0.2
				c0.3,0,0.5,0.1,0.8,0.2c0.3,0.1,0.5,0.4,0.7,0.7c0.2,0.3,0.4,0.7,0.5,1.2c0.1,0.5,0.2,1.1,0.2,1.8c0,0.7-0.1,1.3-0.2,1.8
				c-0.1,0.5-0.3,0.9-0.5,1.2c-0.2,0.3-0.4,0.5-0.7,0.6c-0.3,0.1-0.5,0.2-0.8,0.2c-0.3,0-0.5-0.1-0.8-0.2c-0.3-0.1-0.5-0.3-0.7-0.6
				c-0.2-0.3-0.4-0.7-0.5-1.2c-0.1-0.5-0.2-1.1-0.2-1.8C116.6,38.2,116.7,37.6,116.8,37.2z M117.5,40.2c0,0.4,0.1,0.8,0.2,1.1
				c0.1,0.3,0.3,0.6,0.4,0.7c0.2,0.2,0.4,0.3,0.7,0.3s0.5-0.1,0.7-0.3c0.2-0.2,0.3-0.4,0.4-0.7c0.1-0.3,0.2-0.7,0.2-1.1
				c0-0.4,0.1-0.8,0.1-1.2c0-0.4,0-0.8-0.1-1.2c0-0.4-0.1-0.8-0.2-1.1c-0.1-0.3-0.3-0.6-0.4-0.7c-0.2-0.2-0.4-0.3-0.7-0.3
				s-0.5,0.1-0.7,0.3c-0.2,0.2-0.3,0.4-0.4,0.7c-0.1,0.3-0.2,0.7-0.2,1.1c0,0.4-0.1,0.8-0.1,1.2C117.4,39.4,117.5,39.8,117.5,40.2z"
				/>
			<path class="st5" d="M122.7,41.1c-0.1-0.6-0.3-1.2-0.4-1.9c-0.1-0.7-0.3-1.3-0.4-2c-0.2-0.7-0.3-1.3-0.5-2c0.1,0,0.1,0,0.2,0.1
				c0.1,0,0.1,0,0.2,0c0.1,0,0.1,0,0.2,0c0.1,0,0.1,0,0.2-0.1c0.2,1,0.3,1.9,0.5,2.9c0.2,1,0.4,2,0.6,3c0.1-0.3,0.2-0.7,0.3-1.1
				c0.1-0.5,0.2-1,0.3-1.5c0.1-0.5,0.2-1.1,0.3-1.7c0.1-0.6,0.2-1.1,0.3-1.6c0.1,0.1,0.2,0.1,0.3,0.1c0,0,0.1,0,0.1,0
				c0,0,0.1,0,0.1-0.1c0.2,1,0.3,2,0.5,2.9c0.2,1,0.4,2,0.6,3c0.1-0.3,0.2-0.7,0.3-1.2c0.1-0.5,0.2-1,0.3-1.5
				c0.1-0.5,0.2-1.1,0.3-1.6c0.1-0.6,0.2-1.1,0.3-1.6c0.1,0.1,0.2,0.1,0.3,0.1c0.1,0,0.2,0,0.3-0.1c-0.3,1.2-0.7,2.5-1,3.7
				c-0.3,1.2-0.6,2.4-0.8,3.6c-0.1,0-0.1,0-0.2,0c0,0-0.1,0-0.1,0c0,0-0.1,0-0.1,0c-0.2-0.9-0.3-1.8-0.5-2.8
				c-0.2-0.9-0.4-1.9-0.6-2.9c-0.1,0.3-0.2,0.7-0.3,1.1c-0.1,0.5-0.2,0.9-0.3,1.5c-0.1,0.5-0.2,1.1-0.3,1.6c-0.1,0.5-0.2,1-0.3,1.5
				c-0.1,0-0.2,0-0.3,0c-0.1,0-0.2,0-0.3,0C122.9,42.2,122.8,41.7,122.7,41.1z"/>
			<path class="st5" d="M132.1,41.1c0,0.2-0.1,0.3-0.2,0.5c-0.1,0.2-0.2,0.4-0.3,0.5c-0.1,0.2-0.3,0.3-0.4,0.4
				c-0.2,0.1-0.4,0.2-0.6,0.2c-0.2,0-0.5-0.1-0.7-0.2s-0.4-0.4-0.6-0.7c-0.2-0.3-0.3-0.7-0.4-1.2c-0.1-0.5-0.2-1-0.2-1.7
				c0-0.7,0.1-1.2,0.2-1.7c0.1-0.5,0.3-0.9,0.4-1.2c0.2-0.3,0.4-0.6,0.6-0.7c0.2-0.2,0.5-0.2,0.7-0.2c0.7,0,1.1,0.5,1.4,1.5h0v-1.5
				c0-0.4,0-0.8,0-1.2c0-0.4,0-0.8,0-1.1c0-0.4,0-0.7,0-1c0-0.3,0-0.6,0-0.8c0.1,0,0.1,0,0.2,0.1c0.1,0,0.1,0,0.2,0s0.1,0,0.2,0
				c0.1,0,0.1,0,0.2-0.1c0,0.3,0,0.8,0,1.4c0,0.6,0,1.3,0,2.1c0,0.7,0,1.5,0,2.3c0,0.8,0,1.5,0,2.2c0,0.7,0,1.3,0,1.9
				c0,0.6,0,1.1,0,1.7c-0.1,0-0.2,0-0.4,0c-0.1,0-0.2,0-0.3,0L132.1,41.1L132.1,41.1z M129.6,40.6c0.1,0.4,0.2,0.7,0.3,1
				c0.1,0.2,0.3,0.4,0.4,0.5c0.2,0.1,0.3,0.1,0.4,0.1c0.2,0,0.4-0.1,0.6-0.3c0.2-0.2,0.3-0.5,0.4-0.8c0.1-0.3,0.2-0.7,0.2-1.1
				c0.1-0.4,0.1-0.8,0.1-1.2c0-1-0.1-1.7-0.3-2.3c-0.2-0.5-0.6-0.8-1-0.8c-0.2,0-0.4,0.1-0.6,0.3c-0.2,0.2-0.3,0.4-0.4,0.7
				c-0.1,0.3-0.2,0.7-0.2,1.1c-0.1,0.4-0.1,0.8-0.1,1.3C129.5,39.7,129.5,40.2,129.6,40.6z"/>
			<path class="st5" d="M134.2,36.2c0.4-0.7,0.9-1.1,1.5-1.1c0.3,0,0.6,0.1,0.8,0.3c0.2,0.2,0.4,0.4,0.6,0.7c0.2,0.3,0.3,0.6,0.3,1
				c0.1,0.4,0.1,0.8,0.1,1.2c0,0.1,0,0.2,0,0.3c0,0.1,0,0.2,0,0.3c-0.3,0-0.7,0-1,0c-0.3,0-0.6,0-1,0c-0.2,0-0.4,0-0.6,0
				c-0.2,0-0.4,0-0.6,0c0,0.1,0,0.1,0,0.2v0.2c0,0.4,0,0.8,0.1,1.1c0.1,0.3,0.2,0.6,0.3,0.9c0.1,0.3,0.3,0.5,0.5,0.6
				c0.2,0.1,0.4,0.2,0.7,0.2c0.1,0,0.2,0,0.4-0.1c0.1-0.1,0.3-0.1,0.4-0.2c0.1-0.1,0.2-0.2,0.3-0.3c0.1-0.1,0.2-0.3,0.3-0.4l0,0
				l-0.1,0.8c-0.2,0.2-0.4,0.5-0.7,0.6c-0.3,0.2-0.5,0.3-0.8,0.3c-0.3,0-0.6-0.1-0.9-0.3c-0.3-0.2-0.5-0.4-0.7-0.7
				c-0.2-0.3-0.3-0.7-0.5-1.1c-0.1-0.4-0.2-0.9-0.2-1.4C133.7,37.9,133.9,36.9,134.2,36.2z M135.2,35.9c-0.2,0.2-0.3,0.4-0.4,0.7
				c-0.1,0.3-0.2,0.5-0.2,0.9c-0.1,0.3-0.1,0.6-0.1,0.9c0.2,0,0.4,0,0.6,0c0.2,0,0.4,0,0.6,0c0.2,0,0.4,0,0.6,0c0.2,0,0.4,0,0.6,0
				c0-0.3,0-0.6,0-0.9c0-0.3-0.1-0.6-0.2-0.9c-0.1-0.3-0.2-0.5-0.3-0.7c-0.1-0.2-0.3-0.3-0.6-0.3C135.6,35.6,135.4,35.7,135.2,35.9z
				"/>
			<path class="st5" d="M140.5,36.4c-0.1-0.1-0.2-0.1-0.3-0.1c-0.1,0-0.3,0.1-0.4,0.2c-0.1,0.1-0.2,0.3-0.3,0.5
				c-0.1,0.2-0.1,0.4-0.2,0.7c0,0.3-0.1,0.5-0.1,0.8v1.7c0,0.7,0,1.2,0,1.6c0,0.4,0,0.7,0,0.9c-0.1,0-0.2,0-0.4,0
				c-0.1,0-0.3,0-0.4,0c0-0.3,0-0.8,0-1.4c0-0.6,0-1.3,0-2.2v-0.5c0-0.4,0-0.9,0-1.4c0-0.5,0-1.1,0-1.8c0.1,0,0.1,0,0.2,0.1
				c0.1,0,0.1,0,0.2,0c0.1,0,0.1,0,0.2,0c0.1,0,0.1,0,0.2-0.1c0,0.4,0,0.7,0,0.9c0,0.2,0,0.4,0,0.6l0,0c0.4-1.1,0.8-1.7,1.2-1.7
				c0.1,0,0.1,0,0.1,0c0,0,0.1,0,0.1,0.1c0,0.1,0,0.3-0.1,0.6c0,0.3,0,0.5,0,0.7l-0.1,0.1C140.7,36.5,140.6,36.4,140.5,36.4z"/>
			<path class="st5" d="M141.8,42.9c0.1-0.5,0.3-0.9,0.3-1.4c0.1-0.5,0.1-1,0.2-1.5c0-0.5,0-1.1,0-1.7c0-0.6,0-1.1,0-1.7
				c0-0.5-0.1-1-0.2-1.5c-0.1-0.5-0.2-1-0.3-1.5c-0.1-0.5-0.3-1-0.5-1.5l0.2-0.3c0.5,0.9,0.9,1.9,1.1,3c0.2,1.1,0.4,2.2,0.4,3.4
				c0,1.1-0.1,2.3-0.4,3.4c-0.2,1.1-0.6,2.1-1.1,3l-0.2-0.3C141.5,43.8,141.7,43.3,141.8,42.9z"/>
		</g>
	</g>
	<path class="st5" d="M14.3,6.6c0-2.5,0-3,0-3.5c0-0.6-0.2-0.8-0.7-0.9c-0.1,0-0.4-0.1-0.6-0.1c-0.1,0-0.1,0-0.1-0.1
		c0-0.1,0.1-0.1,0.3-0.1c0.7,0,1.8,0,1.8,0c0.2,0,1.4,0,1.9,0c1,0,2.1,0.1,3,0.7C20.3,2.9,21,3.7,21,4.9c0,1.2-0.5,2.4-2,3.8
		c1.3,1.7,2.5,3.1,3.4,4.2c6.6,7.4,18.1,2.7,18.1,2.7c0,0.1-13.3,6.4-20.8-4c-0.7-0.9-1.4-2-1.8-2.4C17.9,9.1,17.8,9,17.7,9l-2,0
		c-0.1,0-0.1,0-0.1,0.1v0.4c0,1.6,0,2.8,0.1,3.5c0.1,0.5,0.1,0.8,0.6,0.9c0.2,0,0.6,0.1,0.7,0.1c0.1,0,0.1,0.1,0.1,0.1
		c0,0.1-0.1,0.1-0.3,0.1c-0.9,0-1.9-0.1-2-0.1c0,0-1,0.1-1.5,0.1c-0.2,0-0.3,0-0.3-0.1c0,0,0-0.1,0.1-0.1c0.1,0,0.3,0,0.5-0.1
		c0.3-0.1,0.4-0.4,0.5-0.9c0.1-0.7,0.1-2,0.1-3.5V6.6z M15.6,8.1c0,0.1,0,0.2,0.1,0.2c0.2,0.1,1,0.3,1.7,0.3c0.4,0,0.8,0,1.2-0.3
		c0.6-0.4,1-1.3,1-2.5c0-2-1.1-3.3-2.8-3.3c-0.5,0-0.9,0.1-1.1,0.1c-0.1,0-0.1,0.1-0.1,0.2V8.1z"/>
	<path class="st5" d="M1.7,5.5c0-3,0-3.5,0-4.1c0-0.6-0.2-0.9-0.8-1.1c-0.2,0-0.5-0.1-0.6-0.1C0.1,0.3,0,0.2,0,0.1C0,0,0.1,0,0.3,0
		c0.9,0,2.1,0.1,2.1,0.1C2.9,0.1,3.7,0,4.5,0c3.1,0,3.8,1.9,3.8,2.9c0,1.6-0.9,2.5-1.8,3.4c1.4,0.4,3.3,1.8,3.3,4
		c0,2-1.6,4.1-4.8,4.1c-0.4,0-2.4-0.1-2.5-0.1c-0.1,0-1.3,0.1-1.9,0.1c-0.2,0-0.3,0-0.3-0.1c0-0.1,0-0.1,0.1-0.1
		c0.2,0,0.4,0,0.6-0.1c0.4-0.1,0.5-0.5,0.5-1c0.1-0.8,0.1-2.3,0.1-4.1V5.5z M3.2,5.9c0,0.1,0,0.2,0.1,0.2c0.1,0,0.5,0.1,1.2,0.1
		c1.1,0,1.3,0,1.7-0.5c0.4-0.5,0.7-1.1,0.7-1.9c0-1.6-0.7-3.3-2.6-3.3c-0.2,0-0.6,0-0.9,0.1c-0.2,0-0.2,0.1-0.2,0.2V5.9z M3.2,7.9
		c0,1.5,0,3.8,0,4.1c0.1,0.9,0.1,1.2,0.6,1.5c0.5,0.2,1.3,0.3,1.7,0.3c1,0,2.7-0.6,2.7-2.7c0-1.1-0.4-2.8-1.8-3.8
		C5.7,6.9,5.2,6.8,4.8,6.8c-0.3,0-1.2,0-1.5,0c-0.1,0-0.1,0-0.1,0.1V7.9z"/>
	<path class="st5" d="M27.3,6.7c0-2.6,0-3,0-3.6c0-0.6-0.2-0.8-0.7-0.9c-0.1,0-0.4-0.1-0.6-0.1c-0.1,0-0.1,0-0.1-0.1
		c0-0.1,0.1-0.1,0.3-0.1C26.9,1.9,27.9,2,28,2c0.1,0,3.4,0,3.8,0c0.3,0,0.6-0.1,0.7-0.1c0.1,0,0.2-0.1,0.2-0.1c0,0,0.1,0.1,0.1,0.2
		c0,0.1-0.1,0.3-0.1,0.8c0,0.2,0,0.9-0.1,1.1c0,0.1,0,0.2-0.1,0.2c-0.1,0-0.1-0.1-0.1-0.2c0-0.1,0-0.4-0.1-0.6
		c-0.1-0.3-0.3-0.5-1.2-0.6c-0.3,0-2.1-0.1-2.3-0.1c-0.1,0-0.1,0.1-0.1,0.2v4.5c0,0.1,0,0.2,0.1,0.2c0.2,0,2.2,0,2.6,0
		c0.4,0,0.6-0.1,0.8-0.2C32.3,7,32.4,7,32.4,7c0,0,0.1,0,0.1,0.1c0,0.1-0.1,0.4-0.1,0.9c0,0.3-0.1,0.9-0.1,1.1c0,0.1,0,0.3-0.1,0.3
		c-0.1,0-0.1-0.1-0.1-0.1c0-0.2,0-0.3-0.1-0.5c-0.1-0.2-0.2-0.5-0.9-0.6c-0.4,0-2.1-0.1-2.4-0.1c-0.1,0-0.1,0-0.1,0.1v1.4
		c0,0.6,0,2.5,0,2.8c0,1.1,0.3,1.4,1.9,1.4c0.4,0,1.2,0,1.6-0.2c0.4-0.2,0.6-0.5,0.7-1.2c0-0.2,0.1-0.2,0.1-0.2
		c0.1,0,0.1,0.1,0.1,0.2c0,0.1-0.1,1.3-0.2,1.6c-0.1,0.4-0.2,0.4-0.9,0.4c-2.5,0-3.6-0.1-4.1-0.1c-0.1,0-1.1,0-1.6,0
		c-0.2,0-0.3,0-0.3-0.1c0-0.1,0-0.1,0.1-0.1c0.2,0,0.3,0,0.5-0.1c0.3-0.1,0.4-0.4,0.5-0.9c0.1-0.7,0.1-2,0.1-3.6V6.7z"/>
	<path class="st5" d="M43.3,1.7C47.1,1.7,50,4,50,7.8c0,3.7-2.7,6.7-6.8,6.7c-4.6,0-6.6-3.5-6.6-6.4C36.6,5.4,38.7,1.7,43.3,1.7
		 M43.7,13.8c1.5,0,4.6-0.8,4.6-5.5c0-3.9-2.4-6-5.1-6c-2.8,0-4.9,1.8-4.9,5.3C38.4,11.4,40.7,13.8,43.7,13.8"/>
	<path class="st5" d="M57,9.5c0-1.6,0-1.9,0-2.2c0-0.4-0.1-0.5-0.4-0.6c-0.1,0-0.3,0-0.4,0c0,0-0.1,0-0.1-0.1c0-0.1,0.1-0.1,0.2-0.1
		c0.5,0,1.2,0,1.2,0c0.1,0,2.3,0,2.5,0c0.2,0,0.4,0,0.5-0.1c0,0,0.1,0,0.1,0c0,0,0,0,0,0.1c0,0.1-0.1,0.2-0.1,0.5
		c0,0.1,0,0.6-0.1,0.7c0,0,0,0.1-0.1,0.1c-0.1,0-0.1,0-0.1-0.1c0-0.1,0-0.2-0.1-0.4c-0.1-0.2-0.2-0.2-0.8-0.3c-0.2,0-1.4,0-1.5,0
		C58,7,58,7,58,7.1v2.8c0,0.1,0,0.1,0.1,0.1c0.1,0,1.5,0,1.8,0c0.3,0,0.4,0,0.5-0.1c0.1-0.1,0.1-0.1,0.2-0.1c0,0,0.1,0,0.1,0.1
		c0,0.1-0.1,0.2-0.1,0.6c0,0.2,0,0.6,0,0.7c0,0.1,0,0.2-0.1,0.2c0,0-0.1,0-0.1-0.1c0-0.1,0-0.2,0-0.3c0-0.1-0.1-0.3-0.5-0.3
		c-0.3,0-1.4,0-1.6,0c-0.1,0-0.1,0-0.1,0.1v0.9c0,0.4,0,1.5,0,1.7c0,0.7,0.2,0.8,1.3,0.8c0.3,0,0.8,0,1.1-0.1
		c0.3-0.1,0.4-0.3,0.5-0.7c0-0.1,0-0.2,0.1-0.2c0.1,0,0.1,0.1,0.1,0.2c0,0.1-0.1,0.8-0.1,1c-0.1,0.3-0.2,0.3-0.6,0.3
		c-0.8,0-1.4,0-1.8,0c-0.4,0-0.7,0-0.9,0c0,0-0.2,0-0.5,0c-0.2,0-0.4,0-0.6,0c-0.1,0-0.2,0-0.2-0.1c0,0,0-0.1,0.1-0.1
		c0.1,0,0.2,0,0.3-0.1c0.2,0,0.2-0.2,0.3-0.5c0.1-0.4,0.1-1.2,0.1-2.2V9.5z"/>
	<path class="st5" d="M64.7,11.3c0,1.5,0,2.1,0.2,2.3c0.2,0.2,0.6,0.2,1.4,0.2c0.6,0,1,0,1.3-0.3c0.1-0.2,0.2-0.4,0.3-0.6
		c0-0.1,0-0.1,0.1-0.1c0,0,0.1,0.1,0.1,0.2c0,0.1-0.1,0.7-0.2,1c-0.1,0.2-0.1,0.3-0.7,0.3c-0.8,0-1.3,0-1.8,0c-0.5,0-0.8,0-1.2,0
		c0,0-0.2,0-0.4,0c-0.2,0-0.4,0-0.6,0c-0.1,0-0.2,0-0.2-0.1c0,0,0-0.1,0.1-0.1c0.1,0,0.2,0,0.3-0.1c0.2,0,0.2-0.2,0.3-0.5
		c0.1-0.4,0.1-1.2,0.1-2.2V9.5c0-1.6,0-1.9,0-2.2c0-0.4-0.1-0.5-0.4-0.6c-0.1,0-0.3,0-0.4,0c0,0-0.1,0-0.1-0.1c0-0.1,0-0.1,0.2-0.1
		c0.5,0,1.1,0,1.2,0c0,0,0.8,0,1.2,0c0.1,0,0.2,0,0.2,0.1c0,0,0,0.1-0.1,0.1c-0.1,0-0.2,0-0.3,0c-0.3,0.1-0.4,0.2-0.4,0.6
		c0,0.3,0,0.6,0,2.2V11.3z"/>
	<path class="st5" d="M71.1,11.3c0,1.5,0,2.1,0.2,2.3c0.2,0.2,0.6,0.2,1.4,0.2c0.6,0,1,0,1.3-0.3c0.1-0.2,0.2-0.4,0.3-0.6
		c0-0.1,0-0.1,0.1-0.1c0,0,0.1,0.1,0.1,0.2c0,0.1-0.1,0.7-0.2,1c-0.1,0.2-0.1,0.3-0.7,0.3c-0.8,0-1.3,0-1.8,0c-0.5,0-0.8,0-1.2,0
		c-0.1,0-0.2,0-0.4,0c-0.2,0-0.4,0-0.6,0c-0.1,0-0.2,0-0.2-0.1c0,0,0-0.1,0.1-0.1c0.1,0,0.2,0,0.3-0.1c0.2,0,0.2-0.2,0.3-0.5
		c0.1-0.4,0.1-1.2,0.1-2.2V9.5c0-1.6,0-1.9,0-2.2c0-0.4-0.1-0.5-0.4-0.6c-0.1,0-0.3,0-0.4,0c0,0-0.1,0-0.1-0.1c0-0.1,0-0.1,0.2-0.1
		c0.5,0,1.1,0,1.2,0c0,0,0.8,0,1.2,0c0.1,0,0.2,0,0.2,0.1c0,0,0,0.1-0.1,0.1c-0.1,0-0.2,0-0.3,0c-0.3,0.1-0.4,0.2-0.4,0.6
		c0,0.3,0,0.6,0,2.2V11.3z"/>
	<path class="st5" d="M77.5,11.3c0,1,0,1.8,0,2.2c0,0.3,0.1,0.5,0.4,0.5c0.2,0,0.4,0.1,0.5,0.1c0.1,0,0.1,0,0.1,0.1
		c0,0-0.1,0.1-0.2,0.1c-0.6,0-1.3,0-1.3,0c-0.1,0-0.7,0-1,0c-0.1,0-0.2,0-0.2-0.1c0,0,0-0.1,0.1-0.1c0.1,0,0.2,0,0.3-0.1
		c0.2,0,0.2-0.2,0.3-0.5c0.1-0.4,0.1-1.2,0.1-2.2V9.5c0-1.6,0-1.9,0-2.2c0-0.4-0.1-0.5-0.3-0.6c-0.1,0-0.3,0-0.3,0
		c0,0-0.1,0-0.1-0.1c0-0.1,0-0.1,0.2-0.1c0.3,0,1,0,1.1,0c0,0,0.7,0,1.1,0c0.1,0,0.2,0,0.2,0.1c0,0,0,0.1-0.1,0.1
		c-0.1,0-0.1,0-0.3,0c-0.3,0.1-0.4,0.2-0.4,0.6c0,0.3,0,0.6,0,2.2V11.3z"/>
	<path class="st5" d="M81.4,9.5c0-1.6,0-1.9,0-2.2c0-0.4-0.1-0.5-0.4-0.6c-0.1,0-0.3,0-0.4,0c0,0-0.1,0-0.1-0.1c0-0.1,0-0.1,0.2-0.1
		c0.5,0,1.1,0,1.2,0c0.2,0,1,0,1.5,0c1.4,0,1.8,0.4,2,0.6C85.7,7.3,86,7.8,86,8.4c0,1.5-1.1,2.4-2.7,2.4c-0.1,0-0.2,0-0.3,0
		c0,0-0.1-0.1-0.1-0.1c0-0.1,0.1-0.1,0.3-0.1c1.1,0,2-0.7,2-1.7c0-0.3,0-1-0.6-1.6c-0.6-0.6-1.2-0.5-1.4-0.5c-0.2,0-0.5,0-0.6,0.1
		c-0.1,0-0.1,0.1-0.1,0.2v4.2c0,1,0,1.8,0,2.2c0,0.3,0.1,0.5,0.4,0.5c0.1,0,0.4,0.1,0.5,0.1c0.1,0,0.1,0,0.1,0.1c0,0,0,0.1-0.2,0.1
		c-0.6,0-1.3,0-1.3,0c0,0-0.7,0-1,0c-0.1,0-0.2,0-0.2-0.1c0,0,0-0.1,0.1-0.1c0.1,0,0.2,0,0.3-0.1c0.2,0,0.2-0.2,0.3-0.5
		c0.1-0.4,0.1-1.2,0.1-2.2V9.5z"/>
	<path class="st5" d="M90.7,11.3c0,1,0,1.8,0,2.2c0,0.3,0.1,0.5,0.4,0.5c0.1,0,0.4,0.1,0.5,0.1c0.1,0,0.1,0,0.1,0.1
		c0,0,0,0.1-0.2,0.1c-0.6,0-1.3,0-1.3,0c0,0-0.8,0-1.1,0c-0.1,0-0.2,0-0.2-0.1c0,0,0-0.1,0.1-0.1c0.1,0,0.2,0,0.3,0
		c0.2,0,0.3-0.2,0.3-0.5c0.1-0.4,0.1-1.2,0.1-2.2V7l-1.5,0c-0.7,0-0.9,0.1-1.1,0.3c-0.1,0.2-0.1,0.3-0.2,0.3c0,0.1-0.1,0.1-0.1,0.1
		c0,0-0.1,0-0.1-0.1c0-0.1,0.2-1,0.2-1.1c0-0.1,0.1-0.2,0.1-0.2c0.1,0,0.2,0.1,0.5,0.1c0.3,0,0.7,0,0.8,0h3.8c0.3,0,0.6,0,0.8,0
		c0.2,0,0.3,0,0.3,0c0,0,0,0.1,0,0.1c0,0.3,0,1,0,1.2c0,0.1,0,0.1-0.1,0.1c0,0-0.1,0-0.1-0.2l0-0.1c0-0.3-0.3-0.5-1.3-0.6l-1.1,0
		V11.3z"/>
	<path class="st5" d="M96.6,6.8c0.1-0.3,0.2-0.4,0.3-0.4c0.1,0,0.1,0.1,0.3,0.4c0.2,0.4,1.9,4.7,2.5,6.2c0.4,0.9,0.7,1,0.9,1.1
		c0.2,0.1,0.3,0.1,0.4,0.1c0.1,0,0.1,0,0.1,0.1c0,0.1-0.1,0.1-0.2,0.1c-0.2,0-0.9,0-1.7,0c-0.2,0-0.4,0-0.4-0.1c0,0,0,0,0.1-0.1
		c0.1,0,0.2-0.1,0.1-0.3l-1-2.3c0-0.1,0-0.1-0.1-0.1h-2.4c0,0-0.1,0-0.1,0.1l-0.6,1.6c-0.1,0.3-0.2,0.5-0.2,0.7
		c0,0.2,0.2,0.3,0.4,0.3h0.1c0.1,0,0.1,0,0.1,0.1c0,0.1-0.1,0.1-0.2,0.1c-0.3,0-0.8,0-1,0c-0.1,0-0.6,0-1.1,0c-0.1,0-0.2,0-0.2-0.1
		c0,0,0-0.1,0.1-0.1c0.1,0,0.2,0,0.3,0c0.5-0.1,0.7-0.4,0.9-0.9L96.6,6.8z M97.8,11C97.8,11,97.8,11,97.8,11l-1-2.9
		c-0.1-0.2-0.1-0.2-0.2,0l-1,2.8c0,0,0,0.1,0,0.1H97.8z"/>
	<g>
		<path class="st5" d="M101.6,6.2c1,0,1.8,0.8,1.8,1.8c0,1.1-0.8,1.8-1.8,1.8c-1,0-1.8-0.8-1.8-1.8C99.7,7,100.6,6.2,101.6,6.2z
			 M101.6,9.6c0.8,0,1.5-0.7,1.5-1.6c0-0.9-0.7-1.5-1.5-1.5c-0.9,0-1.5,0.7-1.5,1.5C100.1,8.9,100.7,9.6,101.6,9.6z M100.9,7h0.8
			c0.5,0,0.7,0.2,0.7,0.6c0,0.4-0.2,0.5-0.6,0.6l0.6,0.9h-0.4l-0.6-0.9h-0.4v0.9h-0.3V7z M101.2,7.9h0.3c0.3,0,0.6,0,0.6-0.4
			c0-0.3-0.2-0.3-0.5-0.3h-0.4V7.9z"/>
	</g>
	<g>
		<path class="st5" d="M52.4,2.2c1,0,1.8,0.8,1.8,1.8c0,1.1-0.8,1.8-1.8,1.8c-1,0-1.8-0.8-1.8-1.8C50.6,3,51.4,2.2,52.4,2.2z
			 M52.4,5.6c0.8,0,1.5-0.7,1.5-1.6c0-0.9-0.7-1.5-1.5-1.5c-0.9,0-1.5,0.7-1.5,1.5C50.9,4.9,51.6,5.6,52.4,5.6z M51.7,3h0.8
			c0.5,0,0.7,0.2,0.7,0.6c0,0.4-0.2,0.5-0.6,0.6l0.6,0.9H53l-0.6-0.9H52v0.9h-0.3V3z M52,3.9h0.3c0.3,0,0.6,0,0.6-0.4
			c0-0.3-0.2-0.3-0.5-0.3H52V3.9z"/>
	</g>
</g>
</svg>
