<?xml version="1.0" encoding="utf-8"?>
<!-- Generator: Adobe Illustrator 19.1.0, SVG Export Plug-In . SVG Version: 6.00 Build 0)  -->
<!DOCTYPE svg PUBLIC "-//W3C//DTD SVG 1.1//EN" "http://www.w3.org/Graphics/SVG/1.1/DTD/svg11.dtd">
<svg version="1.1" xmlns="http://www.w3.org/2000/svg" xmlns:xlink="http://www.w3.org/1999/xlink" x="0px" y="0px" width="111.2px"
	 height="93px" viewBox="0 0 111.2 93" style="enable-background:new 0 0 111.2 93;" xml:space="preserve">
<style type="text/css">
	.st0{clip-path:url(#SVGID_4_);}
	.st1{fill:url(#SVGID_5_);}
	.st2{fill:#231F20;}
	.st3{clip-path:url(#SVGID_7_);fill:#231F20;}
	.st4{clip-path:url(#SVGID_7_);fill:#6FA5D9;}
	.st5{clip-path:url(#SVGID_7_);fill:#007AC1;}
	.st6{fill:none;stroke:#58595B;stroke-width:0.1413;}
	.st7{clip-path:url(#SVGID_9_);fill:#F27021;}
	.st8{clip-path:url(#SVGID_11_);}
	.st9{clip-path:url(#SVGID_15_);}
	.st10{clip-path:url(#SVGID_19_);}
	.st11{clip-path:url(#SVGID_23_);}
	.st12{clip-path:url(#SVGID_27_);}
	.st13{clip-path:url(#SVGID_31_);}
	.st14{clip-path:url(#SVGID_35_);}
	.st15{clip-path:url(#SVGID_37_);}
	.st16{clip-path:url(#SVGID_41_);}
	.st17{clip-path:url(#SVGID_43_);}
	.st18{clip-path:url(#SVGID_47_);}
	.st19{clip-path:url(#SVGID_49_);}
	.st20{clip-path:url(#SVGID_53_);}
	.st21{clip-path:url(#SVGID_55_);}
	.st22{clip-path:url(#SVGID_59_);}
	.st23{clip-path:url(#SVGID_63_);}
	.st24{clip-path:url(#SVGID_67_);}
	.st25{clip-path:url(#SVGID_71_);}
	.st26{clip-path:url(#SVGID_75_);}
	.st27{clip-path:url(#SVGID_79_);}
	.st28{clip-path:url(#SVGID_83_);}
	.st29{clip-path:url(#SVGID_87_);}
	.st30{clip-path:url(#SVGID_91_);}
	.st31{clip-path:url(#SVGID_95_);}
	.st32{clip-path:url(#SVGID_99_);}
	.st33{clip-path:url(#SVGID_103_);}
	.st34{clip-path:url(#SVGID_107_);}
	.st35{clip-path:url(#SVGID_111_);}
	.st36{clip-path:url(#SVGID_115_);}
	.st37{clip-path:url(#SVGID_119_);}
	.st38{clip-path:url(#SVGID_123_);}
	.st39{clip-path:url(#SVGID_127_);}
	.st40{clip-path:url(#SVGID_131_);}
	.st41{clip-path:url(#SVGID_135_);}
	.st42{clip-path:url(#SVGID_139_);}
	.st43{clip-path:url(#SVGID_143_);}
	.st44{clip-path:url(#SVGID_147_);}
	.st45{clip-path:url(#SVGID_151_);}
	.st46{clip-path:url(#SVGID_155_);}
	.st47{clip-path:url(#SVGID_159_);}
	.st48{clip-path:url(#SVGID_161_);}
	.st49{clip-path:url(#SVGID_165_);}
	.st50{clip-path:url(#SVGID_169_);}
	.st51{clip-path:url(#SVGID_173_);}
	.st52{clip-path:url(#SVGID_177_);}
	.st53{clip-path:url(#SVGID_181_);}
	.st54{clip-path:url(#SVGID_185_);}
	.st55{clip-path:url(#SVGID_189_);}
	.st56{clip-path:url(#SVGID_193_);}
	.st57{clip-path:url(#SVGID_197_);}
	.st58{clip-path:url(#SVGID_201_);}
	.st59{clip-path:url(#SVGID_203_);}
	.st60{clip-path:url(#SVGID_207_);}
	.st61{clip-path:url(#SVGID_211_);}
	.st62{clip-path:url(#SVGID_215_);}
	.st63{clip-path:url(#SVGID_219_);}
	.st64{clip-path:url(#SVGID_223_);}
	.st65{clip-path:url(#SVGID_227_);}
	.st66{clip-path:url(#SVGID_231_);}
	.st67{clip-path:url(#SVGID_235_);}
	.st68{clip-path:url(#SVGID_239_);}
	.st69{clip-path:url(#SVGID_243_);}
	.st70{clip-path:url(#SVGID_247_);}
	.st71{clip-path:url(#SVGID_251_);}
	.st72{clip-path:url(#SVGID_255_);}
	.st73{clip-path:url(#SVGID_259_);}
	.st74{clip-path:url(#SVGID_263_);}
	.st75{clip-path:url(#SVGID_267_);}
	.st76{clip-path:url(#SVGID_271_);}
	.st77{clip-path:url(#SVGID_275_);}
	.st78{clip-path:url(#SVGID_279_);}
	.st79{clip-path:url(#SVGID_283_);}
	.st80{clip-path:url(#SVGID_287_);}
	.st81{clip-path:url(#SVGID_291_);}
	.st82{clip-path:url(#SVGID_295_);}
	.st83{clip-path:url(#SVGID_299_);}
	.st84{clip-path:url(#SVGID_303_);}
	.st85{clip-path:url(#SVGID_307_);}
	.st86{clip-path:url(#SVGID_311_);}
	.st87{clip-path:url(#SVGID_315_);}
	.st88{clip-path:url(#SVGID_319_);}
	.st89{clip-path:url(#SVGID_323_);}
	.st90{clip-path:url(#SVGID_327_);}
	.st91{clip-path:url(#SVGID_331_);}
	.st92{clip-path:url(#SVGID_335_);}
	.st93{clip-path:url(#SVGID_339_);}
	.st94{clip-path:url(#SVGID_343_);}
	.st95{clip-path:url(#SVGID_347_);}
	.st96{clip-path:url(#SVGID_351_);}
	.st97{clip-path:url(#SVGID_355_);}
	.st98{clip-path:url(#SVGID_359_);}
	.st99{clip-path:url(#SVGID_363_);}
	.st100{clip-path:url(#SVGID_367_);}
	.st101{clip-path:url(#SVGID_371_);}
	.st102{clip-path:url(#SVGID_375_);}
	.st103{clip-path:url(#SVGID_379_);}
	.st104{clip-path:url(#SVGID_383_);}
	.st105{clip-path:url(#SVGID_387_);}
	.st106{clip-path:url(#SVGID_391_);}
	.st107{clip-path:url(#SVGID_395_);}
	.st108{clip-path:url(#SVGID_399_);}
	.st109{clip-path:url(#SVGID_403_);}
	.st110{clip-path:url(#SVGID_407_);}
	.st111{clip-path:url(#SVGID_411_);}
	.st112{clip-path:url(#SVGID_415_);}
	.st113{clip-path:url(#SVGID_419_);}
	.st114{clip-path:url(#SVGID_423_);}
	.st115{clip-path:url(#SVGID_427_);}
	.st116{clip-path:url(#SVGID_431_);}
	.st117{clip-path:url(#SVGID_435_);}
	.st118{clip-path:url(#SVGID_439_);}
	.st119{clip-path:url(#SVGID_443_);}
	.st120{clip-path:url(#SVGID_447_);}
	.st121{clip-path:url(#SVGID_451_);}
	.st122{clip-path:url(#SVGID_455_);}
	.st123{clip-path:url(#SVGID_459_);}
	.st124{clip-path:url(#SVGID_461_);}
	.st125{clip-path:url(#SVGID_465_);}
	.st126{clip-path:url(#SVGID_469_);}
	.st127{clip-path:url(#SVGID_471_);}
	.st128{clip-path:url(#SVGID_475_);}
	.st129{clip-path:url(#SVGID_479_);}
	.st130{clip-path:url(#SVGID_481_);}
	.st131{clip-path:url(#SVGID_485_);}
	.st132{clip-path:url(#SVGID_487_);}
	.st133{clip-path:url(#SVGID_491_);}
	.st134{clip-path:url(#SVGID_493_);}
	.st135{clip-path:url(#SVGID_497_);}
	.st136{clip-path:url(#SVGID_499_);}
	.st137{clip-path:url(#SVGID_503_);}
	.st138{clip-path:url(#SVGID_505_);}
	.st139{clip-path:url(#SVGID_509_);}
	.st140{clip-path:url(#SVGID_513_);}
	.st141{clip-path:url(#SVGID_515_);}
	.st142{clip-path:url(#SVGID_519_);}
	.st143{clip-path:url(#SVGID_521_);}
	.st144{clip-path:url(#SVGID_525_);}
	.st145{clip-path:url(#SVGID_527_);}
	.st146{clip-path:url(#SVGID_531_);}
	.st147{clip-path:url(#SVGID_533_);}
	.st148{clip-path:url(#SVGID_537_);}
	.st149{clip-path:url(#SVGID_539_);}
	.st150{clip-path:url(#SVGID_543_);}
	.st151{clip-path:url(#SVGID_547_);}
	.st152{clip-path:url(#SVGID_551_);}
	.st153{clip-path:url(#SVGID_555_);}
	.st154{clip-path:url(#SVGID_559_);}
	.st155{clip-path:url(#SVGID_563_);}
	.st156{clip-path:url(#SVGID_567_);}
	.st157{clip-path:url(#SVGID_571_);}
	.st158{clip-path:url(#SVGID_575_);}
	.st159{clip-path:url(#SVGID_579_);}
	.st160{clip-path:url(#SVGID_583_);}
	.st161{clip-path:url(#SVGID_587_);}
	.st162{clip-path:url(#SVGID_591_);}
	.st163{clip-path:url(#SVGID_595_);}
	.st164{clip-path:url(#SVGID_599_);}
	.st165{clip-path:url(#SVGID_603_);}
	.st166{clip-path:url(#SVGID_607_);}
	.st167{clip-path:url(#SVGID_611_);}
	.st168{clip-path:url(#SVGID_615_);}
	.st169{clip-path:url(#SVGID_619_);}
	.st170{clip-path:url(#SVGID_623_);}
	.st171{clip-path:url(#SVGID_627_);}
	.st172{clip-path:url(#SVGID_631_);}
	.st173{clip-path:url(#SVGID_635_);}
	.st174{clip-path:url(#SVGID_639_);}
	.st175{clip-path:url(#SVGID_643_);}
	.st176{clip-path:url(#SVGID_647_);}
	.st177{clip-path:url(#SVGID_651_);}
	.st178{clip-path:url(#SVGID_655_);}
	.st179{clip-path:url(#SVGID_659_);}
	.st180{clip-path:url(#SVGID_663_);}
	.st181{clip-path:url(#SVGID_667_);}
	.st182{clip-path:url(#SVGID_671_);}
	.st183{clip-path:url(#SVGID_673_);}
	.st184{clip-path:url(#SVGID_677_);}
	.st185{clip-path:url(#SVGID_681_);}
	.st186{clip-path:url(#SVGID_683_);}
	.st187{clip-path:url(#SVGID_687_);}
	.st188{clip-path:url(#SVGID_691_);}
	.st189{clip-path:url(#SVGID_695_);}
	.st190{clip-path:url(#SVGID_699_);}
	.st191{clip-path:url(#SVGID_703_);}
	.st192{clip-path:url(#SVGID_707_);}
	.st193{clip-path:url(#SVGID_711_);}
	.st194{clip-path:url(#SVGID_715_);}
	.st195{clip-path:url(#SVGID_719_);}
	.st196{clip-path:url(#SVGID_723_);}
	.st197{clip-path:url(#SVGID_727_);}
	.st198{clip-path:url(#SVGID_731_);}
	.st199{clip-path:url(#SVGID_735_);}
	.st200{clip-path:url(#SVGID_739_);}
	.st201{clip-path:url(#SVGID_743_);}
	.st202{clip-path:url(#SVGID_747_);}
	.st203{clip-path:url(#SVGID_751_);}
	.st204{clip-path:url(#SVGID_755_);}
	.st205{clip-path:url(#SVGID_759_);}
	.st206{clip-path:url(#SVGID_763_);}
	.st207{clip-path:url(#SVGID_767_);}
	.st208{clip-path:url(#SVGID_771_);}
	.st209{clip-path:url(#SVGID_775_);}
	.st210{clip-path:url(#SVGID_779_);}
	.st211{clip-path:url(#SVGID_783_);}
	.st212{clip-path:url(#SVGID_787_);}
	.st213{clip-path:url(#SVGID_791_);}
	.st214{clip-path:url(#SVGID_795_);}
	.st215{clip-path:url(#SVGID_799_);}
	.st216{clip-path:url(#SVGID_803_);}
	.st217{clip-path:url(#SVGID_807_);}
	.st218{clip-path:url(#SVGID_811_);}
	.st219{clip-path:url(#SVGID_815_);}
	.st220{clip-path:url(#SVGID_819_);}
	.st221{clip-path:url(#SVGID_823_);}
	.st222{clip-path:url(#SVGID_827_);}
	.st223{clip-path:url(#SVGID_831_);}
	.st224{clip-path:url(#SVGID_835_);}
	.st225{clip-path:url(#SVGID_839_);}
	.st226{clip-path:url(#SVGID_843_);}
	.st227{clip-path:url(#SVGID_847_);}
	.st228{clip-path:url(#SVGID_851_);}
	.st229{clip-path:url(#SVGID_855_);}
	.st230{clip-path:url(#SVGID_859_);}
	.st231{clip-path:url(#SVGID_863_);}
	.st232{clip-path:url(#SVGID_867_);}
	.st233{clip-path:url(#SVGID_871_);}
	.st234{clip-path:url(#SVGID_875_);}
	.st235{clip-path:url(#SVGID_879_);}
	.st236{clip-path:url(#SVGID_883_);}
	.st237{clip-path:url(#SVGID_887_);}
	.st238{clip-path:url(#SVGID_891_);}
	.st239{clip-path:url(#SVGID_895_);}
	.st240{clip-path:url(#SVGID_899_);}
	.st241{clip-path:url(#SVGID_903_);}
	.st242{clip-path:url(#SVGID_905_);}
	.st243{clip-path:url(#SVGID_909_);}
	.st244{clip-path:url(#SVGID_913_);}
	.st245{clip-path:url(#SVGID_917_);}
	.st246{clip-path:url(#SVGID_921_);}
	.st247{clip-path:url(#SVGID_925_);}
	.st248{clip-path:url(#SVGID_929_);}
	.st249{clip-path:url(#SVGID_933_);}
	.st250{clip-path:url(#SVGID_937_);}
	.st251{clip-path:url(#SVGID_941_);}
	.st252{clip-path:url(#SVGID_945_);}
	.st253{clip-path:url(#SVGID_949_);}
	.st254{clip-path:url(#SVGID_953_);}
	.st255{clip-path:url(#SVGID_957_);}
	.st256{clip-path:url(#SVGID_959_);}
	.st257{clip-path:url(#SVGID_963_);}
	.st258{clip-path:url(#SVGID_965_);}
	.st259{clip-path:url(#SVGID_969_);}
	.st260{clip-path:url(#SVGID_973_);}
	.st261{clip-path:url(#SVGID_975_);}
	.st262{clip-path:url(#SVGID_979_);}
	.st263{clip-path:url(#SVGID_981_);}
	.st264{clip-path:url(#SVGID_985_);}
	.st265{clip-path:url(#SVGID_987_);}
	.st266{clip-path:url(#SVGID_991_);}
	.st267{clip-path:url(#SVGID_995_);}
	.st268{clip-path:url(#SVGID_999_);}
	.st269{clip-path:url(#SVGID_1003_);}
	.st270{clip-path:url(#SVGID_1007_);}
	.st271{clip-path:url(#SVGID_1011_);fill:#FFFFFF;}
	.st272{clip-path:url(#SVGID_1013_);}
	.st273{opacity:0.44;clip-path:url(#SVGID_1013_);fill:url(#SVGID_1014_);}
	.st274{opacity:0.74;clip-path:url(#SVGID_1013_);fill:url(#SVGID_1015_);}
	.st275{fill:none;}
	.st276{fill:#002D73;}
	.st277{fill:url(#SVGID_1016_);}
	.st278{opacity:0.66;clip-path:url(#SVGID_1018_);}
	.st279{opacity:0.66;}
	.st280{clip-path:url(#SVGID_1020_);fill:#FFFFFF;}
	.st281{clip-path:url(#SVGID_1018_);}
	.st282{clip-path:url(#SVGID_1022_);fill:url(#SVGID_1023_);}
	.st283{clip-path:url(#SVGID_1022_);fill:url(#SVGID_1024_);}
	.st284{clip-path:url(#SVGID_1026_);}
	.st285{clip-path:url(#SVGID_1030_);}
	.st286{clip-path:url(#SVGID_1032_);}
	.st287{opacity:0.65;fill:url(#SVGID_1033_);}
	.st288{opacity:0.89;fill:url(#SVGID_1034_);}
	.st289{fill:url(#SVGID_1035_);}
	.st290{opacity:0.66;clip-path:url(#SVGID_1037_);}
	.st291{clip-path:url(#SVGID_1039_);fill:#FFFFFF;}
	.st292{clip-path:url(#SVGID_1037_);}
	.st293{clip-path:url(#SVGID_1041_);fill:#FFFFFF;}
	.st294{clip-path:url(#SVGID_1041_);fill:url(#SVGID_1042_);}
	.st295{clip-path:url(#SVGID_1041_);fill:url(#SVGID_1043_);}
	.st296{fill:url(#SVGID_1044_);}
	.st297{opacity:0.66;clip-path:url(#SVGID_1046_);}
	.st298{clip-path:url(#SVGID_1048_);fill:#FFFFFF;}
	.st299{clip-path:url(#SVGID_1046_);}
	.st300{clip-path:url(#SVGID_1050_);fill:#FFFFFF;}
	.st301{clip-path:url(#SVGID_1050_);fill:url(#SVGID_1051_);}
	.st302{clip-path:url(#SVGID_1050_);fill:url(#SVGID_1052_);}
	.st303{opacity:0.44;clip-path:url(#SVGID_1050_);fill:url(#SVGID_1053_);}
	.st304{opacity:0.74;clip-path:url(#SVGID_1050_);fill:url(#SVGID_1054_);}
	.st305{opacity:0.89;clip-path:url(#SVGID_1046_);fill:url(#SVGID_1055_);}
	.st306{fill:url(#SVGID_1056_);}
	.st307{opacity:0.66;clip-path:url(#SVGID_1058_);}
	.st308{clip-path:url(#SVGID_1060_);fill:#FFFFFF;}
	.st309{clip-path:url(#SVGID_1058_);}
	.st310{clip-path:url(#SVGID_1062_);fill:url(#SVGID_1063_);}
	.st311{clip-path:url(#SVGID_1062_);fill:url(#SVGID_1064_);}
	.st312{clip-path:url(#SVGID_1066_);}
	.st313{opacity:0.5;fill:url(#SVGID_1069_);}
	.st314{fill:url(#SVGID_1070_);}
	.st315{clip-path:url(#SVGID_1071_);fill:none;stroke:#002D73;stroke-width:3.1257;stroke-linecap:round;stroke-miterlimit:10;}
	.st316{fill:url(#SVGID_1074_);stroke:#FFFFFF;stroke-width:1.8484;stroke-miterlimit:10;}
	.st317{fill:#FFFFFF;}
	.st318{fill:#FFE8BA;}
	.st319{fill:none;stroke:#002D73;stroke-miterlimit:10;}
	.st320{fill:url(#SVGID_1075_);}
	.st321{fill:none;stroke:#002D73;stroke-width:0.859;stroke-miterlimit:10;}
	.st322{clip-path:url(#SVGID_1077_);fill:#231F20;}
	.st323{clip-path:url(#SVGID_1077_);fill:#6FA5D9;}
	.st324{clip-path:url(#SVGID_1077_);fill:#007AC1;}
	.st325{clip-path:url(#SVGID_1079_);fill:#F27021;}
	.st326{clip-path:url(#SVGID_1081_);}
	.st327{clip-path:url(#SVGID_1085_);}
	.st328{clip-path:url(#SVGID_1089_);}
	.st329{clip-path:url(#SVGID_1093_);}
	.st330{clip-path:url(#SVGID_1097_);}
	.st331{clip-path:url(#SVGID_1101_);}
	.st332{clip-path:url(#SVGID_1105_);}
	.st333{clip-path:url(#SVGID_1107_);}
	.st334{clip-path:url(#SVGID_1111_);}
	.st335{clip-path:url(#SVGID_1113_);}
	.st336{clip-path:url(#SVGID_1117_);}
	.st337{clip-path:url(#SVGID_1119_);}
	.st338{clip-path:url(#SVGID_1123_);}
	.st339{clip-path:url(#SVGID_1125_);}
	.st340{clip-path:url(#SVGID_1129_);}
	.st341{clip-path:url(#SVGID_1133_);}
	.st342{clip-path:url(#SVGID_1137_);}
	.st343{clip-path:url(#SVGID_1141_);}
	.st344{clip-path:url(#SVGID_1145_);}
	.st345{clip-path:url(#SVGID_1149_);}
	.st346{clip-path:url(#SVGID_1153_);}
	.st347{clip-path:url(#SVGID_1157_);}
	.st348{clip-path:url(#SVGID_1161_);}
	.st349{clip-path:url(#SVGID_1165_);}
	.st350{clip-path:url(#SVGID_1169_);}
	.st351{clip-path:url(#SVGID_1173_);}
	.st352{clip-path:url(#SVGID_1177_);}
	.st353{clip-path:url(#SVGID_1181_);}
	.st354{clip-path:url(#SVGID_1185_);}
	.st355{clip-path:url(#SVGID_1189_);}
	.st356{clip-path:url(#SVGID_1193_);}
	.st357{clip-path:url(#SVGID_1197_);}
	.st358{clip-path:url(#SVGID_1201_);}
	.st359{clip-path:url(#SVGID_1205_);}
	.st360{clip-path:url(#SVGID_1209_);}
	.st361{clip-path:url(#SVGID_1213_);}
	.st362{clip-path:url(#SVGID_1217_);}
	.st363{clip-path:url(#SVGID_1221_);}
	.st364{clip-path:url(#SVGID_1225_);}
	.st365{clip-path:url(#SVGID_1229_);}
	.st366{clip-path:url(#SVGID_1231_);}
	.st367{clip-path:url(#SVGID_1235_);}
	.st368{clip-path:url(#SVGID_1239_);}
	.st369{clip-path:url(#SVGID_1243_);}
	.st370{clip-path:url(#SVGID_1247_);}
	.st371{clip-path:url(#SVGID_1251_);}
	.st372{clip-path:url(#SVGID_1255_);}
	.st373{clip-path:url(#SVGID_1259_);}
	.st374{clip-path:url(#SVGID_1263_);}
	.st375{clip-path:url(#SVGID_1267_);}
	.st376{clip-path:url(#SVGID_1271_);}
	.st377{clip-path:url(#SVGID_1273_);}
	.st378{clip-path:url(#SVGID_1277_);}
	.st379{clip-path:url(#SVGID_1281_);}
	.st380{clip-path:url(#SVGID_1285_);}
	.st381{clip-path:url(#SVGID_1289_);}
	.st382{clip-path:url(#SVGID_1293_);}
	.st383{clip-path:url(#SVGID_1297_);}
	.st384{clip-path:url(#SVGID_1301_);}
	.st385{clip-path:url(#SVGID_1305_);}
	.st386{clip-path:url(#SVGID_1309_);}
	.st387{clip-path:url(#SVGID_1313_);}
	.st388{clip-path:url(#SVGID_1317_);}
	.st389{clip-path:url(#SVGID_1321_);}
	.st390{clip-path:url(#SVGID_1325_);}
	.st391{clip-path:url(#SVGID_1329_);}
	.st392{clip-path:url(#SVGID_1333_);}
	.st393{clip-path:url(#SVGID_1337_);}
	.st394{clip-path:url(#SVGID_1341_);}
	.st395{clip-path:url(#SVGID_1345_);}
	.st396{clip-path:url(#SVGID_1349_);}
	.st397{clip-path:url(#SVGID_1353_);}
	.st398{clip-path:url(#SVGID_1357_);}
	.st399{clip-path:url(#SVGID_1361_);}
	.st400{clip-path:url(#SVGID_1365_);}
	.st401{clip-path:url(#SVGID_1369_);}
	.st402{clip-path:url(#SVGID_1373_);}
	.st403{clip-path:url(#SVGID_1377_);}
	.st404{clip-path:url(#SVGID_1381_);}
	.st405{clip-path:url(#SVGID_1385_);}
	.st406{clip-path:url(#SVGID_1389_);}
	.st407{clip-path:url(#SVGID_1393_);}
	.st408{clip-path:url(#SVGID_1397_);}
	.st409{clip-path:url(#SVGID_1401_);}
	.st410{clip-path:url(#SVGID_1405_);}
	.st411{clip-path:url(#SVGID_1409_);}
	.st412{clip-path:url(#SVGID_1413_);}
	.st413{clip-path:url(#SVGID_1417_);}
	.st414{clip-path:url(#SVGID_1421_);}
	.st415{clip-path:url(#SVGID_1425_);}
	.st416{clip-path:url(#SVGID_1429_);}
	.st417{clip-path:url(#SVGID_1433_);}
	.st418{clip-path:url(#SVGID_1437_);}
	.st419{clip-path:url(#SVGID_1441_);}
	.st420{clip-path:url(#SVGID_1445_);}
	.st421{clip-path:url(#SVGID_1449_);}
	.st422{clip-path:url(#SVGID_1453_);}
	.st423{clip-path:url(#SVGID_1457_);}
	.st424{clip-path:url(#SVGID_1461_);}
	.st425{clip-path:url(#SVGID_1465_);}
	.st426{clip-path:url(#SVGID_1469_);}
	.st427{clip-path:url(#SVGID_1473_);}
	.st428{clip-path:url(#SVGID_1477_);}
	.st429{clip-path:url(#SVGID_1481_);}
	.st430{clip-path:url(#SVGID_1485_);}
	.st431{clip-path:url(#SVGID_1489_);}
	.st432{clip-path:url(#SVGID_1493_);}
	.st433{clip-path:url(#SVGID_1497_);}
	.st434{clip-path:url(#SVGID_1501_);}
	.st435{clip-path:url(#SVGID_1505_);}
	.st436{clip-path:url(#SVGID_1509_);}
	.st437{clip-path:url(#SVGID_1513_);}
	.st438{clip-path:url(#SVGID_1517_);}
	.st439{clip-path:url(#SVGID_1521_);}
	.st440{clip-path:url(#SVGID_1525_);}
	.st441{clip-path:url(#SVGID_1529_);}
	.st442{clip-path:url(#SVGID_1531_);}
	.st443{clip-path:url(#SVGID_1535_);}
	.st444{clip-path:url(#SVGID_1539_);}
	.st445{clip-path:url(#SVGID_1541_);}
	.st446{clip-path:url(#SVGID_1545_);}
	.st447{clip-path:url(#SVGID_1549_);}
	.st448{clip-path:url(#SVGID_1551_);}
	.st449{clip-path:url(#SVGID_1555_);}
	.st450{clip-path:url(#SVGID_1557_);}
	.st451{clip-path:url(#SVGID_1561_);}
	.st452{clip-path:url(#SVGID_1563_);}
	.st453{clip-path:url(#SVGID_1567_);}
	.st454{clip-path:url(#SVGID_1569_);}
	.st455{clip-path:url(#SVGID_1573_);}
	.st456{clip-path:url(#SVGID_1575_);}
	.st457{clip-path:url(#SVGID_1579_);}
	.st458{clip-path:url(#SVGID_1583_);}
	.st459{clip-path:url(#SVGID_1585_);}
	.st460{clip-path:url(#SVGID_1589_);}
	.st461{clip-path:url(#SVGID_1591_);}
	.st462{clip-path:url(#SVGID_1595_);}
	.st463{clip-path:url(#SVGID_1597_);}
	.st464{clip-path:url(#SVGID_1601_);}
	.st465{clip-path:url(#SVGID_1603_);}
	.st466{clip-path:url(#SVGID_1607_);}
	.st467{clip-path:url(#SVGID_1609_);}
	.st468{clip-path:url(#SVGID_1613_);}
	.st469{clip-path:url(#SVGID_1617_);}
	.st470{clip-path:url(#SVGID_1621_);}
	.st471{clip-path:url(#SVGID_1625_);}
	.st472{clip-path:url(#SVGID_1629_);}
	.st473{clip-path:url(#SVGID_1633_);}
	.st474{clip-path:url(#SVGID_1637_);}
	.st475{clip-path:url(#SVGID_1641_);}
	.st476{clip-path:url(#SVGID_1645_);}
	.st477{clip-path:url(#SVGID_1649_);}
	.st478{clip-path:url(#SVGID_1653_);}
	.st479{clip-path:url(#SVGID_1657_);}
	.st480{clip-path:url(#SVGID_1661_);}
	.st481{clip-path:url(#SVGID_1665_);}
	.st482{clip-path:url(#SVGID_1669_);}
	.st483{clip-path:url(#SVGID_1673_);}
	.st484{clip-path:url(#SVGID_1677_);}
	.st485{clip-path:url(#SVGID_1681_);}
	.st486{clip-path:url(#SVGID_1685_);}
	.st487{clip-path:url(#SVGID_1689_);}
	.st488{clip-path:url(#SVGID_1693_);}
	.st489{clip-path:url(#SVGID_1697_);}
	.st490{clip-path:url(#SVGID_1701_);}
	.st491{clip-path:url(#SVGID_1705_);}
	.st492{clip-path:url(#SVGID_1709_);}
	.st493{clip-path:url(#SVGID_1713_);}
	.st494{clip-path:url(#SVGID_1717_);}
	.st495{clip-path:url(#SVGID_1721_);}
	.st496{clip-path:url(#SVGID_1725_);}
	.st497{clip-path:url(#SVGID_1729_);}
	.st498{clip-path:url(#SVGID_1733_);}
	.st499{clip-path:url(#SVGID_1737_);}
	.st500{clip-path:url(#SVGID_1741_);}
	.st501{clip-path:url(#SVGID_1743_);}
	.st502{clip-path:url(#SVGID_1747_);}
	.st503{clip-path:url(#SVGID_1751_);}
	.st504{clip-path:url(#SVGID_1753_);}
	.st505{clip-path:url(#SVGID_1757_);}
	.st506{clip-path:url(#SVGID_1761_);}
	.st507{clip-path:url(#SVGID_1765_);}
	.st508{clip-path:url(#SVGID_1769_);}
	.st509{clip-path:url(#SVGID_1773_);}
	.st510{clip-path:url(#SVGID_1777_);}
	.st511{clip-path:url(#SVGID_1781_);}
	.st512{clip-path:url(#SVGID_1785_);}
	.st513{clip-path:url(#SVGID_1789_);}
	.st514{clip-path:url(#SVGID_1793_);}
	.st515{clip-path:url(#SVGID_1797_);}
	.st516{clip-path:url(#SVGID_1801_);}
	.st517{clip-path:url(#SVGID_1805_);}
	.st518{clip-path:url(#SVGID_1809_);}
	.st519{clip-path:url(#SVGID_1813_);}
	.st520{clip-path:url(#SVGID_1817_);}
	.st521{clip-path:url(#SVGID_1821_);}
	.st522{clip-path:url(#SVGID_1825_);}
	.st523{clip-path:url(#SVGID_1829_);}
	.st524{clip-path:url(#SVGID_1833_);}
	.st525{clip-path:url(#SVGID_1837_);}
	.st526{clip-path:url(#SVGID_1841_);}
	.st527{clip-path:url(#SVGID_1845_);}
	.st528{clip-path:url(#SVGID_1849_);}
	.st529{clip-path:url(#SVGID_1853_);}
	.st530{clip-path:url(#SVGID_1857_);}
	.st531{clip-path:url(#SVGID_1861_);}
	.st532{clip-path:url(#SVGID_1865_);}
	.st533{clip-path:url(#SVGID_1869_);}
	.st534{clip-path:url(#SVGID_1873_);}
	.st535{clip-path:url(#SVGID_1877_);}
	.st536{clip-path:url(#SVGID_1881_);}
	.st537{clip-path:url(#SVGID_1885_);}
	.st538{clip-path:url(#SVGID_1889_);}
	.st539{clip-path:url(#SVGID_1893_);}
	.st540{clip-path:url(#SVGID_1897_);}
	.st541{clip-path:url(#SVGID_1901_);}
	.st542{clip-path:url(#SVGID_1905_);}
	.st543{clip-path:url(#SVGID_1909_);}
	.st544{clip-path:url(#SVGID_1913_);}
	.st545{clip-path:url(#SVGID_1917_);}
	.st546{clip-path:url(#SVGID_1921_);}
	.st547{clip-path:url(#SVGID_1925_);}
	.st548{clip-path:url(#SVGID_1929_);}
	.st549{clip-path:url(#SVGID_1933_);}
	.st550{clip-path:url(#SVGID_1937_);}
	.st551{clip-path:url(#SVGID_1941_);}
	.st552{clip-path:url(#SVGID_1945_);}
	.st553{clip-path:url(#SVGID_1949_);}
	.st554{clip-path:url(#SVGID_1953_);}
	.st555{clip-path:url(#SVGID_1957_);}
	.st556{clip-path:url(#SVGID_1961_);}
	.st557{clip-path:url(#SVGID_1965_);}
	.st558{clip-path:url(#SVGID_1969_);}
	.st559{clip-path:url(#SVGID_1973_);}
	.st560{clip-path:url(#SVGID_1975_);}
	.st561{clip-path:url(#SVGID_1979_);}
	.st562{clip-path:url(#SVGID_1983_);}
	.st563{clip-path:url(#SVGID_1987_);}
	.st564{clip-path:url(#SVGID_1991_);}
	.st565{clip-path:url(#SVGID_1995_);}
	.st566{clip-path:url(#SVGID_1999_);}
	.st567{clip-path:url(#SVGID_2003_);}
	.st568{clip-path:url(#SVGID_2007_);}
	.st569{clip-path:url(#SVGID_2011_);}
	.st570{clip-path:url(#SVGID_2015_);}
	.st571{clip-path:url(#SVGID_2019_);}
	.st572{clip-path:url(#SVGID_2023_);}
	.st573{clip-path:url(#SVGID_2027_);}
	.st574{clip-path:url(#SVGID_2029_);}
	.st575{clip-path:url(#SVGID_2033_);}
	.st576{clip-path:url(#SVGID_2035_);}
	.st577{clip-path:url(#SVGID_2039_);}
	.st578{clip-path:url(#SVGID_2043_);}
	.st579{clip-path:url(#SVGID_2045_);}
	.st580{clip-path:url(#SVGID_2049_);}
	.st581{clip-path:url(#SVGID_2051_);}
	.st582{clip-path:url(#SVGID_2055_);}
	.st583{clip-path:url(#SVGID_2057_);}
	.st584{clip-path:url(#SVGID_2061_);}
	.st585{clip-path:url(#SVGID_2065_);}
	.st586{clip-path:url(#SVGID_2069_);}
	.st587{clip-path:url(#SVGID_2073_);}
	.st588{clip-path:url(#SVGID_2077_);}
	.st589{clip-path:url(#SVGID_2081_);fill:#FFFFFF;}
	.st590{opacity:0.74;fill:url(#SVGID_2082_);}
	.st591{opacity:0.44;fill:url(#SVGID_2083_);}
	.st592{opacity:0.89;fill:url(#SVGID_2084_);}
	.st593{opacity:0.65;fill:url(#SVGID_2085_);}
	.st594{fill:url(#SVGID_2086_);}
	.st595{opacity:0.5;fill:url(#SVGID_2087_);}
	.st596{fill:url(#SVGID_2088_);}
	.st597{clip-path:url(#SVGID_2089_);fill:none;stroke:#002D73;stroke-width:3.1257;stroke-linecap:round;stroke-miterlimit:10;}
	.st598{fill:url(#SVGID_2092_);stroke:#FFFFFF;stroke-width:1.8484;stroke-miterlimit:10;}
	.st599{fill:url(#SVGID_2093_);}
	.st600{clip-path:url(#SVGID_2095_);fill:#FFFFFF;}
	.st601{clip-path:url(#SVGID_2097_);fill:url(#SVGID_2098_);}
	.st602{clip-path:url(#SVGID_2097_);fill:url(#SVGID_2099_);}
	.st603{fill:none;stroke:#002D73;stroke-linecap:round;stroke-miterlimit:10;}
	.st604{display:none;fill:none;}
</style>
<g id="Layer_1">
	<g>
		<rect x="-27.8" y="-50" class="st275" width="158.8" height="124.1"/>
	</g>
	<g>
		<rect x="-23.8" y="0" class="st275" width="158.8" height="124.1"/>
		<path class="st276" d="M1,12.8v-2c1.1-1.1,5.1-4.4,5.1-6.6c0-1.1-1-1.6-1.9-1.6c-1,0-2,0.4-2.7,1l-0.2-2C2.4,1,3.6,0.7,4.8,0.7
			c2.3,0,3.7,1.1,3.7,3.5C8.5,6.7,6,9,4.1,10.9h4.8v1.9H1z"/>
		<path class="st276" d="M10.1,8.4l4.4-7.5h3v7.6H19v1.8h-1.5v2.5h-2.3v-2.5h-5.1V8.4z M15.2,8.5V3.4h0l-2.9,5.2H15.2z"/>
		<path class="st276" d="M19.8,9.1V7.2h4.5v1.9H19.8z"/>
		<path class="st276" d="M26.1,0h2.3v5.2h0c0.6-0.8,1.6-1.4,2.8-1.4c2.1,0,3,1.5,3,3.4v5.5h-2.3V8.1c0-1.1,0-2.5-1.5-2.5
			c-1.6,0-2,1.8-2,2.9v4.3h-2.3V0z"/>
		<path class="st276" d="M40.5,3.8c2.6,0,4.6,1.8,4.6,4.6c0,2.5-1.7,4.5-4.6,4.5c-2.9,0-4.6-2-4.6-4.5C35.9,5.5,37.9,3.8,40.5,3.8z
			 M40.5,11.2c1.8,0,2.2-1.6,2.2-3c0-1.3-0.7-2.6-2.2-2.6c-1.5,0-2.2,1.3-2.2,2.6C38.3,9.6,38.7,11.2,40.5,11.2z"/>
		<path class="st276" d="M54.9,12.8h-2.2v-1.2h0C52,12.4,51,13,49.8,13c-2.1,0-3-1.5-3-3.4V4h2.3v4.7c0,1.1,0,2.5,1.5,2.5
			c1.6,0,2-1.8,2-2.9V4h2.3V12.8z"/>
		<path class="st276" d="M57.3,4h2v2h0c0.1-0.8,1-2.2,2.4-2.2c0.2,0,0.5,0,0.7,0.1v2.3C62.2,6,61.8,6,61.4,6c-1.9,0-1.9,2.3-1.9,3.6
			v3.2h-2.3V4z"/>
		<path class="st276" d="M68.8,0.9h4.1c1.5,0,3.8,0.4,3.8,3c0,1.4-1,2.4-2.4,2.7v0c1.6,0.2,2.7,1.2,2.7,2.7c0,3-2.7,3.4-4.2,3.4
			h-4.1V0.9z M71.2,5.7h1c1,0,2.2-0.2,2.2-1.4c0-1.4-1.2-1.5-2.3-1.5h-0.9V5.7z M71.2,10.9h1.1c1.1,0,2.4-0.3,2.4-1.6
			c0-1.5-1.3-1.8-2.4-1.8h-1.1V10.9z"/>
		<path class="st276" d="M79,0.9h2.6c2.6,0,5.6-0.1,5.6,3.2c0,1.4-0.9,2.5-2.4,2.8v0c0.6,0.1,1,0.7,1.3,1.2l1.9,4.6h-2.7L83.7,9
			c-0.3-0.9-0.6-1.2-1.6-1.2h-0.8v4.9H79V0.9z M81.3,6h0.8c1.2,0,2.5-0.2,2.5-1.6c0-1.4-1.3-1.5-2.5-1.5h-0.8V6z"/>
		<path class="st276" d="M89.5,0.9h7v1.9h-4.6v2.9h4.2v1.9h-4.2v3.3h4.7v1.9h-7V0.9z"/>
		<path class="st276" d="M104.2,0.7c3.7,0,5.8,2.5,5.8,6.1c0,3.6-2.1,6.2-5.8,6.2c-3.8,0-5.8-2.5-5.8-6.2
			C98.4,3.1,100.5,0.7,104.2,0.7z M104.2,11.1c2.4,0,3.3-2.2,3.3-4.3c0-2.1-1-4.2-3.3-4.2s-3.3,2.1-3.3,4.2
			C100.9,8.9,101.8,11.1,104.2,11.1z"/>
		<path class="st276" d="M31.4,30.8L31.4,30.8c-0.7,0.9-1.6,1.2-2.7,1.2C26,32,25,29.7,25,27.3c0-2.4,1-4.6,3.7-4.6
			c1.1,0,1.9,0.4,2.6,1.2h0v-5h2.3v12.7h-2.2V30.8z M29.3,30.2c1.5,0,2-1.6,2-2.8c0-1.2-0.6-2.8-2-2.8c-1.5,0-1.9,1.6-1.9,2.8
			C27.4,28.6,27.8,30.2,29.3,30.2z"/>
		<path class="st276" d="M43,31.3c-0.8,0.5-1.8,0.7-3,0.7c-2.9,0-4.6-1.7-4.6-4.5c0-2.5,1.3-4.6,4.1-4.6c3.2,0,4.2,2.2,4.2,5.3h-6.1
			c0.1,1.4,1.1,2.2,2.5,2.2c1.1,0,2.1-0.4,2.9-0.9V31.3z M41.5,26.5c-0.1-1.1-0.6-2.1-1.9-2.1c-1.3,0-1.9,0.9-2,2.1H41.5z"/>
		<path class="st276" d="M45.5,19h2.3v12.7h-2.3V19z"/>
		<path class="st276" d="M50.2,19.2h2.3v2.2h-2.3V19.2z M50.2,23h2.3v8.8h-2.3V23z"/>
		<path class="st276" d="M53.9,23h2.4l2.2,6.4h0l2.1-6.4h2.3l-3.2,8.8h-2.6L53.9,23z"/>
		<path class="st276" d="M71.3,31.3c-0.8,0.5-1.8,0.7-3,0.7c-2.9,0-4.6-1.7-4.6-4.5c0-2.5,1.3-4.6,4.1-4.6c3.2,0,4.2,2.2,4.2,5.3
			h-6.1c0.1,1.4,1.1,2.2,2.5,2.2c1.1,0,2.1-0.4,2.9-0.9V31.3z M69.8,26.5c-0.1-1.1-0.6-2.1-1.9-2.1c-1.3,0-1.9,0.9-2,2.1H69.8z"/>
		<path class="st276" d="M73.8,23h2v2h0c0.1-0.8,1-2.2,2.4-2.2c0.2,0,0.5,0,0.7,0.1v2.3C78.8,25,78.4,25,78,25
			c-1.9,0-1.9,2.3-1.9,3.6v3.2h-2.3V23z"/>
		<path class="st276" d="M85.6,24.8c-0.7-0.2-1.2-0.4-2-0.4c-0.6,0-1.3,0.2-1.3,1c0,1.4,4,0.5,4,3.7c0,2-1.8,2.9-3.7,2.9
			c-0.9,0-1.8-0.2-2.6-0.4l0.1-1.9c0.7,0.4,1.5,0.6,2.2,0.6c0.6,0,1.5-0.2,1.5-1.1c0-1.7-4-0.5-4-3.7c0-1.9,1.6-2.7,3.4-2.7
			c1.1,0,1.8,0.2,2.5,0.3L85.6,24.8z"/>
		<path class="st276" d="M18.1,43.9c-0.4-0.2-0.8-0.3-1.5-0.3c-1.4,0-2.3,1.1-2.3,2.8c0,1.6,0.8,2.9,2.4,2.9c0.6,0,1.4-0.2,1.8-0.4
			l0.1,1.9c-0.7,0.2-1.3,0.3-2.3,0.3c-2.9,0-4.3-2-4.3-4.6c0-2.5,1.5-4.5,4.2-4.5c0.9,0,1.6,0.1,2.2,0.3L18.1,43.9z"/>
		<path class="st276" d="M23.9,41.8c2.6,0,4.6,1.8,4.6,4.6c0,2.5-1.7,4.5-4.6,4.5c-2.9,0-4.6-2-4.6-4.5
			C19.4,43.5,21.4,41.8,23.9,41.8z M23.9,49.2c1.8,0,2.2-1.6,2.2-3c0-1.3-0.7-2.6-2.2-2.6c-1.5,0-2.2,1.3-2.2,2.6
			C21.7,47.6,22.2,49.2,23.9,49.2z"/>
		<path class="st276" d="M30.3,42h2.2v1.2h0c0.7-1,1.7-1.4,2.9-1.4c2.1,0,3,1.5,3,3.4v5.5h-2.3v-4.7c0-1.1,0-2.5-1.5-2.5
			c-1.6,0-2,1.8-2,2.9v4.3h-2.3V42z"/>
		<path class="st276" d="M41.5,43.7h-1.7V42h1.7v-1.8l2.3-0.7V42h2v1.7h-2v4.1c0,0.7,0.2,1.4,1.1,1.4c0.4,0,0.8-0.1,1-0.2l0.1,1.8
			c-0.5,0.1-1,0.2-1.7,0.2c-1.8,0-2.8-1.1-2.8-2.8V43.7z"/>
		<path class="st276" d="M47.4,38.2h2.3v2.2h-2.3V38.2z M47.4,42h2.3v8.8h-2.3V42z"/>
		<path class="st276" d="M52,42h2.2v1.2h0c0.7-1,1.7-1.4,2.9-1.4c2.1,0,3,1.5,3,3.4v5.5h-2.3v-4.7c0-1.1,0-2.5-1.5-2.5
			c-1.6,0-2,1.8-2,2.9v4.3H52V42z"/>
		<path class="st276" d="M70.5,50.8h-2.2v-1.2h0c-0.7,0.8-1.7,1.4-2.9,1.4c-2.1,0-3-1.5-3-3.4V42h2.3v4.7c0,1.1,0,2.5,1.5,2.5
			c1.6,0,2-1.8,2-2.9V42h2.3V50.8z"/>
		<path class="st276" d="M76.8,41.8c2.6,0,4.6,1.8,4.6,4.6c0,2.5-1.7,4.5-4.6,4.5c-2.9,0-4.6-2-4.6-4.5
			C72.3,43.5,74.2,41.8,76.8,41.8z M76.8,49.2c1.8,0,2.2-1.6,2.2-3c0-1.3-0.7-2.6-2.2-2.6c-1.5,0-2.2,1.3-2.2,2.6
			C74.6,47.6,75.1,49.2,76.8,49.2z"/>
		<path class="st276" d="M91.2,50.8h-2.2v-1.2h0c-0.7,0.8-1.7,1.4-2.9,1.4c-2.1,0-3-1.5-3-3.4V42h2.3v4.7c0,1.1,0,2.5,1.5,2.5
			c1.6,0,2-1.8,2-2.9V42h2.3V50.8z"/>
		<path class="st276" d="M98.8,43.8c-0.7-0.2-1.2-0.4-2-0.4c-0.6,0-1.3,0.2-1.3,1c0,1.4,4,0.5,4,3.7c0,2-1.8,2.9-3.7,2.9
			c-0.9,0-1.8-0.2-2.6-0.4l0.1-1.9c0.7,0.4,1.5,0.6,2.2,0.6c0.6,0,1.5-0.2,1.5-1.1c0-1.7-4-0.5-4-3.7c0-1.9,1.6-2.7,3.4-2.7
			c1.1,0,1.8,0.2,2.5,0.3L98.8,43.8z"/>
		<path class="st276" d="M3,57h2.3v12.7H3V57z"/>
		<path class="st276" d="M15.7,69.8h-2.2v-1.2h0c-0.7,0.8-1.7,1.4-2.9,1.4c-2.1,0-3-1.5-3-3.4V61h2.3v4.7c0,1.1,0,2.5,1.5,2.5
			c1.6,0,2-1.8,2-2.9V61h2.3V69.8z"/>
		<path class="st276" d="M18,61h2.2v1.2h0c0.7-1,1.7-1.4,2.9-1.4c2.1,0,3,1.5,3,3.4v5.5h-2.3v-4.7c0-1.1,0-2.5-1.5-2.5
			c-1.6,0-2,1.8-2,2.9v4.3H18V61z"/>
		<path class="st276" d="M36.5,61v7.9c0,2.4-1,4.6-4.6,4.6c-0.9,0-1.9-0.1-3-0.6L29,71c0.7,0.4,1.8,0.8,2.6,0.8
			c2.5,0,2.6-1.9,2.6-3.4h0c-0.4,0.7-1.4,1.4-2.7,1.4c-2.6,0-3.6-2.1-3.6-4.4c0-2.1,1.1-4.5,3.7-4.5c1.2,0,2.1,0.4,2.7,1.4h0V61
			H36.5z M34.2,65.3c0-1.5-0.6-2.7-1.9-2.7c-1.5,0-2,1.4-2,2.8c0,1.2,0.6,2.7,1.9,2.7C33.6,68,34.2,66.7,34.2,65.3z"/>
		<path class="st276" d="M44.4,62.7h-1.7V61h1.7v-1.2c0-1.8,1-3,2.8-3c0.6,0,1.2,0.1,1.7,0.2l-0.2,1.9c-0.2-0.1-0.5-0.3-1-0.3
			c-0.8,0-1,0.7-1,1.3V61h2v1.7h-2v7.1h-2.3V62.7z"/>
		<path class="st276" d="M58.2,69.8H56v-1.2h0c-0.7,0.8-1.7,1.4-2.9,1.4c-2.1,0-3-1.5-3-3.4V61h2.3v4.7c0,1.1,0,2.5,1.5,2.5
			c1.6,0,2-1.8,2-2.9V61h2.3V69.8z"/>
		<path class="st276" d="M60.5,61h2.2v1.2h0c0.7-1,1.7-1.4,2.9-1.4c2.1,0,3,1.5,3,3.4v5.5h-2.3v-4.7c0-1.1,0-2.5-1.5-2.5
			c-1.6,0-2,1.8-2,2.9v4.3h-2.3V61z"/>
		<path class="st276" d="M76.6,62.9c-0.4-0.2-0.8-0.3-1.5-0.3c-1.4,0-2.3,1.1-2.3,2.8c0,1.6,0.8,2.9,2.4,2.9c0.6,0,1.4-0.2,1.8-0.4
			l0.1,1.9c-0.7,0.2-1.3,0.3-2.3,0.3c-2.9,0-4.3-2-4.3-4.6c0-2.5,1.5-4.5,4.2-4.5c0.9,0,1.6,0.1,2.2,0.3L76.6,62.9z"/>
		<path class="st276" d="M79.2,62.7h-1.7V61h1.7v-1.8l2.3-0.7V61h2v1.7h-2v4.1c0,0.7,0.2,1.4,1.1,1.4c0.4,0,0.8-0.1,1-0.2l0.1,1.8
			c-0.5,0.1-1,0.2-1.7,0.2c-1.8,0-2.8-1.1-2.8-2.8V62.7z"/>
		<path class="st276" d="M85.1,57.2h2.3v2.2h-2.3V57.2z M85.1,61h2.3v8.8h-2.3V61z"/>
		<path class="st276" d="M93.8,60.8c2.6,0,4.6,1.8,4.6,4.6c0,2.5-1.7,4.5-4.6,4.5c-2.9,0-4.6-2-4.6-4.5
			C89.3,62.5,91.2,60.8,93.8,60.8z M93.8,68.2c1.8,0,2.2-1.6,2.2-3c0-1.3-0.7-2.6-2.2-2.6c-1.5,0-2.2,1.3-2.2,2.6
			C91.6,66.6,92.1,68.2,93.8,68.2z"/>
		<path class="st276" d="M100.2,61h2.2v1.2h0c0.7-1,1.7-1.4,2.9-1.4c2.1,0,3,1.5,3,3.4v5.5H106v-4.7c0-1.1,0-2.5-1.5-2.5
			c-1.6,0-2,1.8-2,2.9v4.3h-2.3V61z"/>
		<path class="st276" d="M3,76.2h2.3v2.2H3V76.2z M3,80h2.3v8.8H3V80z"/>
		<path class="st276" d="M7.6,80h2.1v1.2h0c0.7-1.1,1.8-1.4,2.6-1.4c1.2,0,2.1,0.5,2.6,1.5c0.5-1.1,1.7-1.5,2.7-1.5
			c2.2,0,2.8,1.5,2.8,3.4v5.5h-2.3v-5.2c0-0.8,0-2-1.3-2c-1.5,0-1.7,1.8-1.7,2.9v4.2h-2.3v-5.2c0-0.8,0-2-1.3-2
			c-1.5,0-1.7,1.8-1.7,2.9v4.2H7.6V80z"/>
		<path class="st276" d="M22.8,80h2.2v1.2h0c0.5-0.8,1.4-1.4,2.7-1.4c2.7,0,3.7,2.1,3.7,4.6c0,2.4-1,4.6-3.7,4.6
			c-1,0-1.8-0.2-2.6-1.2h0v4.6h-2.3V80z M25,84.3c0,1.2,0.5,2.8,2,2.8c1.5,0,1.9-1.6,1.9-2.8c0-1.2-0.4-2.8-1.9-2.8
			C25.6,81.6,25,83.1,25,84.3z"/>
		<path class="st276" d="M33.2,80h2v2h0c0.1-0.8,1-2.2,2.4-2.2c0.2,0,0.5,0,0.7,0.1v2.3c-0.2-0.1-0.6-0.2-1-0.2
			c-1.9,0-1.9,2.3-1.9,3.6v3.2h-2.3V80z"/>
		<path class="st276" d="M43.8,79.8c2.6,0,4.6,1.8,4.6,4.6c0,2.5-1.7,4.5-4.6,4.5c-2.9,0-4.6-2-4.6-4.5
			C39.2,81.5,41.2,79.8,43.8,79.8z M43.8,87.2c1.8,0,2.2-1.6,2.2-3c0-1.3-0.7-2.6-2.2-2.6c-1.5,0-2.2,1.3-2.2,2.6
			C41.6,85.6,42,87.2,43.8,87.2z"/>
		<path class="st276" d="M49.2,80h2.4l2.2,6.4h0l2.1-6.4h2.3L55,88.8h-2.6L49.2,80z"/>
		<path class="st276" d="M66.6,88.3c-0.8,0.5-1.8,0.7-3,0.7c-2.9,0-4.6-1.7-4.6-4.5c0-2.5,1.3-4.6,4.1-4.6c3.2,0,4.2,2.2,4.2,5.3
			h-6.1c0.1,1.4,1.1,2.2,2.5,2.2c1.1,0,2.1-0.4,2.9-0.9V88.3z M65.1,83.5c-0.1-1.1-0.6-2.1-1.9-2.1c-1.3,0-1.9,0.9-2,2.1H65.1z"/>
		<path class="st276" d="M69,80h2.1v1.2h0c0.7-1.1,1.8-1.4,2.6-1.4c1.2,0,2.1,0.5,2.6,1.5c0.5-1.1,1.7-1.5,2.7-1.5
			c2.2,0,2.8,1.5,2.8,3.4v5.5h-2.3v-5.2c0-0.8,0-2-1.3-2c-1.5,0-1.7,1.8-1.7,2.9v4.2h-2.3v-5.2c0-0.8,0-2-1.3-2
			c-1.5,0-1.7,1.8-1.7,2.9v4.2H69V80z"/>
		<path class="st276" d="M91.2,88.3c-0.8,0.5-1.8,0.7-3,0.7c-2.9,0-4.6-1.7-4.6-4.5c0-2.5,1.3-4.6,4.1-4.6c3.2,0,4.2,2.2,4.2,5.3
			h-6.1c0.1,1.4,1.1,2.2,2.5,2.2c1.1,0,2.1-0.4,2.9-0.9V88.3z M89.6,83.5c-0.1-1.1-0.6-2.1-1.9-2.1s-1.9,0.9-2,2.1H89.6z"/>
		<path class="st276" d="M93.6,80h2.2v1.2h0c0.7-1,1.7-1.4,2.9-1.4c2.1,0,3,1.5,3,3.4v5.5h-2.3v-4.7c0-1.1,0-2.5-1.5-2.5
			c-1.6,0-2,1.8-2,2.9v4.3h-2.3V80z"/>
		<path class="st276" d="M104.7,81.7h-1.7V80h1.7v-1.8l2.3-0.7V80h2v1.7h-2v4.1c0,0.7,0.2,1.4,1.1,1.4c0.4,0,0.8-0.1,1-0.2l0.1,1.8
			c-0.5,0.1-1,0.2-1.7,0.2c-1.8,0-2.8-1.1-2.8-2.8V81.7z"/>
	</g>
</g>
<g id="Layer_2">
</g>
</svg>
