<?xml version="1.0" encoding="iso-8859-1"?>
<!-- Generator: Adobe Illustrator 19.1.0, SVG Export Plug-In . SVG Version: 6.00 Build 0)  -->
<svg version="1.1" xmlns="http://www.w3.org/2000/svg" xmlns:xlink="http://www.w3.org/1999/xlink" x="0px" y="0px"
	 viewBox="0 0 294.824 213.952" style="enable-background:new 0 0 294.824 213.952;" xml:space="preserve">
<symbol  id="_x31_60_x5F_border" viewBox="-16383 -16383 32766 32766">
	<polygon style="display:none;fill:none;" points="16383,-16383 -16383,-16383 -16383,16383 16383,16383 	"/>
</symbol>
<g id="A1">
	<g id="Layer_2">
		
			<use xlink:href="#_x31_60_x5F_border"  width="32766" height="32766" id="XMLID_1_" x="-16383" y="-16383" transform="matrix(1.8634 0 0 -0.416 -2735.0574 -681.7432)" style="overflow:visible;"/>
	</g>
</g>
<g id="A2">
	<g id="Layer_2_copy">
		
			<use xlink:href="#_x31_60_x5F_border"  width="32766" height="32766" id="XMLID_2_" x="-16383" y="-16383" transform="matrix(1.8634 0 0 -0.416 -2735.0574 -681.7432)" style="overflow:visible;"/>
	</g>
</g>
<g id="A3">
	<defs>
		<rect id="SVGID_2026_" x="-2207.492" y="-802.535" width="300" height="250"/>
	</defs>
	<clipPath id="SVGID_4_">
		<use xlink:href="#SVGID_2026_"  style="overflow:visible;"/>
	</clipPath>
	<g id="Layer_2_copy_2" style="clip-path:url(#SVGID_4_);">
		
			<use xlink:href="#_x31_60_x5F_border"  width="32766" height="32766" id="XMLID_3_" x="-16383" y="-16383" transform="matrix(1.8634 0 0 -0.416 -2735.0574 -681.7432)" style="overflow:visible;"/>
	</g>
</g>
<g id="A4">
	<defs>
		<rect id="SVGID_2028_" x="-1867.492" y="-803.535" width="300" height="250"/>
	</defs>
	<clipPath id="SVGID_5_">
		<use xlink:href="#SVGID_2028_"  style="overflow:visible;"/>
	</clipPath>
	<g id="Layer_2_copy_3" style="clip-path:url(#SVGID_5_);">
		
			<use xlink:href="#_x31_60_x5F_border"  width="32766" height="32766" id="XMLID_4_" x="-16383" y="-16383" transform="matrix(1.8634 0 0 -0.416 -2735.0574 -681.7432)" style="overflow:visible;"/>
	</g>
</g>
<g id="A5">
</g>
<g id="A6">
</g>
<g id="A7">
</g>
<g id="A8">
</g>
<g id="Layer_13">
	<g>
		<path style="fill:#002D73;" d="M0.892,1.451H5.16v1.211H2.432v1.892h2.597v1.21H2.432v3.367h-1.54V1.451z"/>
		<path style="fill:#002D73;" d="M8.855,3.332c1.684,0,2.971,1.134,2.971,3.004c0,1.629-1.089,2.926-2.971,2.926
			c-1.869,0-2.959-1.297-2.959-2.926C5.896,4.466,7.184,3.332,8.855,3.332z M8.855,8.118c1.134,0,1.431-1.013,1.431-1.958
			c0-0.869-0.462-1.684-1.431-1.684c-0.957,0-1.418,0.836-1.418,1.684C7.438,7.096,7.734,8.118,8.855,8.118z"/>
		<path style="fill:#002D73;" d="M13.014,3.465h1.309v1.287h0.022c0.065-0.528,0.671-1.42,1.551-1.42c0.144,0,0.298,0,0.451,0.045
			v1.484c-0.132-0.076-0.396-0.121-0.66-0.121c-1.199,0-1.199,1.496-1.199,2.311v2.08h-1.474V3.465z"/>
		<path style="fill:#002D73;" d="M20.57,3.762c0.572-0.264,1.342-0.43,1.969-0.43c1.728,0,2.443,0.716,2.443,2.388v0.726
			c0,0.572,0.01,1.002,0.021,1.42c0.012,0.43,0.033,0.825,0.066,1.266h-1.299c-0.055-0.297-0.055-0.672-0.066-0.848h-0.021
			c-0.341,0.627-1.078,0.979-1.749,0.979c-1.001,0-1.98-0.604-1.98-1.683c0-0.847,0.407-1.343,0.968-1.617
			c0.562-0.274,1.287-0.33,1.904-0.33h0.813c0-0.913-0.407-1.222-1.276-1.222c-0.627,0-1.254,0.242-1.749,0.617L20.57,3.762z
			 M22.297,8.184c0.451,0,0.804-0.197,1.035-0.506c0.242-0.318,0.308-0.726,0.308-1.166h-0.638c-0.66,0-1.64,0.11-1.64,0.979
			C21.362,7.975,21.77,8.184,22.297,8.184z"/>
		<path style="fill:#002D73;" d="M30.207,8.492h-0.021c-0.44,0.551-1.046,0.77-1.738,0.77c-1.738,0-2.377-1.43-2.377-2.98
			c0-1.562,0.639-2.949,2.377-2.949c0.736,0,1.254,0.254,1.693,0.793h0.022V0.879h1.474v8.252h-1.43V8.492z M28.854,8.118
			c0.979,0,1.299-1.034,1.299-1.837c0-0.793-0.375-1.805-1.32-1.805c-0.957,0-1.221,1.045-1.221,1.805
			C27.611,7.062,27.886,8.118,28.854,8.118z"/>
		<path style="fill:#002D73;" d="M38.357,9.131h-1.396V8.36h-0.022c-0.45,0.55-1.089,0.901-1.858,0.901
			c-1.343,0-1.926-0.945-1.926-2.222V3.465h1.475V6.49c0,0.693,0.01,1.628,0.957,1.628c1.066,0,1.298-1.155,1.298-1.882V3.465h1.474
			V9.131z"/>
		<path style="fill:#002D73;" d="M39.908,0.879h1.474v8.252h-1.474V0.879z"/>
		<path style="fill:#002D73;" d="M43.417,4.543h-1.089V3.465h1.089V2.332l1.474-0.474v1.606h1.31v1.078h-1.31v2.641
			c0,0.483,0.133,0.935,0.693,0.935c0.264,0,0.518-0.056,0.672-0.153l0.043,1.166c-0.308,0.088-0.648,0.131-1.088,0.131
			c-1.156,0-1.794-0.715-1.794-1.836V4.543z"/>
		<path style="fill:#002D73;" d="M50.27,3.465h1.408v0.803H51.7c0.33-0.55,0.892-0.936,1.761-0.936c1.738,0,2.375,1.387,2.375,2.949
			c0,1.551-0.637,2.98-2.408,2.98c-0.627,0-1.145-0.153-1.662-0.78h-0.021v2.96H50.27V3.465z M51.755,6.281
			c0,0.803,0.319,1.837,1.298,1.837c0.969,0,1.244-1.056,1.244-1.837c0-0.76-0.265-1.805-1.222-1.805
			C52.129,4.477,51.755,5.488,51.755,6.281z"/>
		<path style="fill:#002D73;" d="M57.244,3.762c0.572-0.264,1.342-0.43,1.969-0.43c1.727,0,2.442,0.716,2.442,2.388v0.726
			c0,0.572,0.011,1.002,0.022,1.42c0.01,0.43,0.033,0.825,0.065,1.266h-1.298c-0.055-0.297-0.055-0.672-0.066-0.848h-0.021
			c-0.342,0.627-1.078,0.979-1.75,0.979c-1.001,0-1.98-0.604-1.98-1.683c0-0.847,0.408-1.343,0.969-1.617s1.287-0.33,1.903-0.33
			h0.813c0-0.913-0.406-1.222-1.275-1.222c-0.627,0-1.254,0.242-1.75,0.617L57.244,3.762z M58.971,8.184
			c0.451,0,0.803-0.197,1.034-0.506c0.242-0.318,0.308-0.726,0.308-1.166h-0.638c-0.66,0-1.64,0.11-1.64,0.979
			C58.035,7.975,58.443,8.184,58.971,8.184z"/>
		<path style="fill:#002D73;" d="M63.591,4.543h-1.089V3.465h1.089V2.332l1.474-0.474v1.606h1.31v1.078h-1.31v2.641
			c0,0.483,0.133,0.935,0.693,0.935c0.264,0,0.518-0.056,0.672-0.153l0.043,1.166c-0.308,0.088-0.648,0.131-1.088,0.131
			c-1.156,0-1.794-0.715-1.794-1.836V4.543z"/>
		<path style="fill:#002D73;" d="M67.418,1.021h1.475V2.43h-1.475V1.021z M67.418,3.465h1.475v5.666h-1.475V3.465z"/>
		<path style="fill:#002D73;" d="M74.987,8.812c-0.539,0.297-1.155,0.45-1.947,0.45c-1.87,0-2.96-1.078-2.96-2.937
			c0-1.64,0.869-2.993,2.63-2.993c2.102,0,2.695,1.441,2.695,3.422h-3.917c0.066,0.913,0.705,1.43,1.617,1.43
			c0.716,0,1.332-0.264,1.882-0.571V8.812z M73.997,5.742c-0.044-0.715-0.374-1.332-1.199-1.332s-1.243,0.572-1.31,1.332H73.997z"/>
		<path style="fill:#002D73;" d="M76.561,3.465h1.396v0.77h0.021c0.463-0.648,1.09-0.902,1.859-0.902
			c1.343,0,1.926,0.947,1.926,2.223v3.576h-1.475V6.105c0-0.693-0.011-1.629-0.957-1.629c-1.066,0-1.298,1.155-1.298,1.881v2.773
			h-1.474V3.465z"/>
		<path style="fill:#002D73;" d="M83.765,4.543h-1.089V3.465h1.089V2.332l1.474-0.474v1.606h1.31v1.078h-1.31v2.641
			c0,0.483,0.133,0.935,0.693,0.935c0.264,0,0.518-0.056,0.672-0.153l0.043,1.166c-0.308,0.088-0.648,0.131-1.088,0.131
			c-1.156,0-1.794-0.715-1.794-1.836V4.543z"/>
		<path style="fill:#002D73;" d="M90.926,4.652c-0.451-0.154-0.781-0.242-1.32-0.242c-0.396,0-0.869,0.144-0.869,0.627
			c0,0.902,2.563,0.33,2.563,2.377c0,1.32-1.177,1.848-2.376,1.848c-0.562,0-1.133-0.098-1.672-0.241l0.088-1.21
			c0.461,0.23,0.945,0.373,1.451,0.373c0.375,0,0.969-0.143,0.969-0.692c0-1.111-2.563-0.353-2.563-2.398
			c0-1.222,1.067-1.761,2.222-1.761c0.693,0,1.145,0.11,1.607,0.209L90.926,4.652z"/>
		<path style="fill:#002D73;" d="M94.863,3.465h1.562l1.254,4.191h0.021l1.145-4.191h1.717l1.232,4.191h0.021l1.177-4.191h1.408
			l-1.737,5.666h-1.738l-1.232-4.324h-0.022l-1.21,4.324h-1.684L94.863,3.465z"/>
		<path style="fill:#002D73;" d="M105.312,1.021h1.475V2.43h-1.475V1.021z M105.312,3.465h1.475v5.666h-1.475V3.465z"/>
		<path style="fill:#002D73;" d="M108.822,4.543h-1.09V3.465h1.09V2.332l1.475-0.474v1.606h1.309v1.078h-1.309v2.641
			c0,0.483,0.132,0.935,0.693,0.935c0.264,0,0.517-0.056,0.67-0.153l0.045,1.166c-0.309,0.088-0.649,0.131-1.09,0.131
			c-1.154,0-1.793-0.715-1.793-1.836V4.543z"/>
		<path style="fill:#002D73;" d="M112.617,0.879h1.475v3.355h0.021c0.374-0.55,1.012-0.902,1.782-0.902
			c1.343,0,1.925,0.947,1.925,2.223v3.576h-1.474V6.105c0-0.693-0.011-1.629-0.957-1.629c-1.067,0-1.298,1.155-1.298,1.881v2.773
			h-1.475V0.879z"/>
		<path style="fill:#002D73;" d="M122.648,3.762c0.572-0.264,1.343-0.43,1.97-0.43c1.728,0,2.442,0.716,2.442,2.388v0.726
			c0,0.572,0.011,1.002,0.021,1.42c0.012,0.43,0.033,0.825,0.066,1.266h-1.299c-0.055-0.297-0.055-0.672-0.065-0.848h-0.022
			c-0.34,0.627-1.078,0.979-1.748,0.979c-1.002,0-1.98-0.604-1.98-1.683c0-0.847,0.406-1.343,0.968-1.617s1.287-0.33,1.903-0.33
			h0.814c0-0.913-0.408-1.222-1.277-1.222c-0.627,0-1.254,0.242-1.748,0.617L122.648,3.762z M124.376,8.184
			c0.451,0,0.804-0.197,1.034-0.506c0.242-0.318,0.309-0.726,0.309-1.166h-0.639c-0.66,0-1.639,0.11-1.639,0.979
			C123.441,7.975,123.848,8.184,124.376,8.184z"/>
		<path style="fill:#002D73;" d="M131.879,4.652c-0.451-0.154-0.781-0.242-1.32-0.242c-0.396,0-0.869,0.144-0.869,0.627
			c0,0.902,2.562,0.33,2.562,2.377c0,1.32-1.177,1.848-2.375,1.848c-0.562,0-1.134-0.098-1.673-0.241l0.088-1.21
			c0.462,0.23,0.946,0.373,1.452,0.373c0.374,0,0.969-0.143,0.969-0.692c0-1.111-2.564-0.353-2.564-2.398
			c0-1.222,1.068-1.761,2.223-1.761c0.693,0,1.145,0.11,1.606,0.209L131.879,4.652z"/>
		<path style="fill:#002D73;" d="M133.88,4.543h-1.089V3.465h1.089V2.332l1.474-0.474v1.606h1.31v1.078h-1.31v2.641
			c0,0.483,0.133,0.935,0.693,0.935c0.264,0,0.518-0.056,0.672-0.153l0.043,1.166c-0.308,0.088-0.648,0.131-1.088,0.131
			c-1.156,0-1.794-0.715-1.794-1.836V4.543z"/>
		<path style="fill:#002D73;" d="M137.675,0.879h1.474v3.355h0.022c0.374-0.55,1.013-0.902,1.782-0.902
			c1.342,0,1.926,0.947,1.926,2.223v3.576h-1.475V6.105c0-0.693-0.012-1.629-0.957-1.629c-1.067,0-1.299,1.155-1.299,1.881v2.773
			h-1.474V0.879z"/>
		<path style="fill:#002D73;" d="M144.373,3.465h1.375v0.792h0.022c0.462-0.693,1.134-0.925,1.683-0.925
			c0.793,0,1.354,0.297,1.673,1.002c0.341-0.683,1.078-1.002,1.771-1.002c1.397,0,1.793,0.957,1.793,2.223v3.576h-1.474V5.753
			c0-0.528,0-1.276-0.848-1.276c-0.979,0-1.1,1.166-1.1,1.903v2.751h-1.475V5.753c0-0.528,0-1.276-0.848-1.276
			c-0.979,0-1.1,1.166-1.1,1.903v2.751h-1.475V3.465z"/>
		<path style="fill:#002D73;" d="M154.428,3.762c0.572-0.264,1.342-0.43,1.969-0.43c1.727,0,2.442,0.716,2.442,2.388v0.726
			c0,0.572,0.011,1.002,0.022,1.42c0.01,0.43,0.033,0.825,0.065,1.266h-1.298c-0.055-0.297-0.055-0.672-0.066-0.848h-0.021
			c-0.342,0.627-1.078,0.979-1.75,0.979c-1.001,0-1.98-0.604-1.98-1.683c0-0.847,0.408-1.343,0.969-1.617s1.287-0.33,1.903-0.33
			h0.813c0-0.913-0.406-1.222-1.275-1.222c-0.627,0-1.254,0.242-1.75,0.617L154.428,3.762z M156.154,8.184
			c0.451,0,0.803-0.197,1.034-0.506c0.242-0.318,0.308-0.726,0.308-1.166h-0.638c-0.66,0-1.64,0.11-1.64,0.979
			C155.219,7.975,155.627,8.184,156.154,8.184z"/>
		<path style="fill:#002D73;" d="M0.533,24.131v-1.521c0.846-0.818,3.926-3.393,3.926-5.057c0-0.832-0.74-1.223-1.481-1.223
			c-0.767,0-1.495,0.338-2.093,0.729l-0.143-1.508c0.818-0.416,1.768-0.65,2.69-0.65c1.729,0,2.847,0.871,2.847,2.652
			c0,1.924-1.937,3.691-3.418,5.147h3.705v1.431H0.533z"/>
		<path style="fill:#002D73;" d="M7.437,20.776l3.394-5.72h2.262v5.836h1.156v1.353h-1.156v1.886H11.35v-1.886H7.437V20.776z
			 M11.35,20.893v-3.938h-0.025l-2.25,3.938H11.35z"/>
		<path style="fill:#002D73;" d="M14.912,21.348v-1.43h3.418v1.43H14.912z"/>
		<path style="fill:#002D73;" d="M19.683,14.38h1.742v3.966h0.026c0.441-0.65,1.195-1.066,2.105-1.066
			c1.586,0,2.275,1.117,2.275,2.626v4.226H24.09v-3.576c0-0.818-0.014-1.924-1.131-1.924c-1.262,0-1.534,1.365-1.534,2.223v3.277
			h-1.742V14.38z"/>
		<path style="fill:#002D73;" d="M30.693,17.279c1.989,0,3.51,1.339,3.51,3.549c0,1.924-1.287,3.459-3.51,3.459
			c-2.21,0-3.496-1.535-3.496-3.459C27.197,18.618,28.718,17.279,30.693,17.279z M30.693,22.934c1.34,0,1.69-1.195,1.69-2.313
			c0-1.026-0.546-1.989-1.69-1.989c-1.131,0-1.677,0.988-1.677,1.989C29.017,21.725,29.367,22.934,30.693,22.934z"/>
		<path style="fill:#002D73;" d="M41.718,24.131h-1.651v-0.91h-0.025c-0.533,0.65-1.287,1.066-2.197,1.066
			c-1.586,0-2.275-1.119-2.275-2.627v-4.225h1.742v3.574c0,0.819,0.014,1.924,1.131,1.924c1.262,0,1.534-1.364,1.534-2.223v-3.275
			h1.742V24.131z"/>
		<path style="fill:#002D73;" d="M43.551,17.436h1.547v1.521h0.025c0.078-0.624,0.793-1.677,1.834-1.677
			c0.168,0,0.351,0,0.532,0.052v1.755c-0.155-0.091-0.468-0.143-0.78-0.143c-1.416,0-1.416,1.768-1.416,2.73v2.457h-1.742V17.436z"
			/>
		<path style="fill:#002D73;" d="M52.338,15.057h3.172c1.17,0,2.926,0.338,2.926,2.326c0,1.08-0.729,1.834-1.807,2.028v0.026
			c1.234,0.117,2.08,0.949,2.08,2.066c0,2.289-2.055,2.627-3.199,2.627h-3.172V15.057z M54.158,18.723h0.741
			c0.767,0,1.716-0.17,1.716-1.105c0-1.053-0.923-1.131-1.755-1.131h-0.702V18.723z M54.158,22.7h0.857
			c0.846,0,1.873-0.208,1.873-1.261c0-1.184-0.963-1.365-1.873-1.365h-0.857V22.7z"/>
		<path style="fill:#002D73;" d="M60.125,15.057h1.963c1.95,0,4.277-0.065,4.277,2.457c0,1.065-0.715,1.949-1.872,2.105v0.025
			c0.494,0.039,0.78,0.533,0.962,0.937l1.456,3.55h-2.028l-1.092-2.834c-0.26-0.677-0.494-0.937-1.261-0.937h-0.585v3.771h-1.82
			V15.057z M61.945,18.93h0.598c0.896,0,1.924-0.129,1.924-1.261c0-1.092-1.014-1.183-1.924-1.183h-0.598V18.93z"/>
		<path style="fill:#002D73;" d="M68.225,15.057h5.355v1.43h-3.536v2.236h3.237v1.43h-3.237V22.7h3.562v1.431h-5.381V15.057z"/>
		<path style="fill:#002D73;" d="M79.456,14.9c2.847,0,4.446,1.924,4.446,4.667s-1.573,4.72-4.446,4.72
			c-2.912,0-4.446-1.938-4.446-4.72S76.57,14.9,79.456,14.9z M79.456,22.856c1.858,0,2.548-1.651,2.548-3.289
			c0-1.599-0.74-3.237-2.548-3.237s-2.548,1.639-2.548,3.237C76.908,21.205,77.598,22.856,79.456,22.856z"/>
		<path style="fill:#002D73;" d="M93.482,23.377h-0.025c-0.521,0.649-1.235,0.91-2.055,0.91c-2.054,0-2.809-1.691-2.809-3.523
			c0-1.847,0.755-3.484,2.809-3.484c0.871,0,1.482,0.299,2.002,0.936h0.026V14.38h1.742v9.751h-1.69V23.377z M91.884,22.934
			c1.157,0,1.534-1.221,1.534-2.17c0-0.937-0.442-2.133-1.561-2.133c-1.131,0-1.443,1.235-1.443,2.133
			C90.414,21.686,90.74,22.934,91.884,22.934z"/>
		<path style="fill:#002D73;" d="M102.336,23.754c-0.637,0.351-1.365,0.533-2.301,0.533c-2.211,0-3.498-1.275-3.498-3.472
			c0-1.937,1.027-3.536,3.107-3.536c2.482,0,3.186,1.703,3.186,4.043h-4.629c0.078,1.079,0.832,1.689,1.911,1.689
			c0.845,0,1.573-0.312,2.224-0.676V23.754z M101.166,20.127c-0.053-0.846-0.442-1.574-1.418-1.574
			c-0.975,0-1.469,0.676-1.547,1.574H101.166z"/>
		<path style="fill:#002D73;" d="M104.233,14.38h1.742v9.751h-1.742V14.38z"/>
		<path style="fill:#002D73;" d="M107.848,14.549h1.742v1.664h-1.742V14.549z M107.848,17.436h1.742v6.695h-1.742V17.436z"/>
		<path style="fill:#002D73;" d="M110.682,17.436h1.871l1.664,4.875h0.026l1.612-4.875h1.742l-2.471,6.695h-1.963L110.682,17.436z"
			/>
		<path style="fill:#002D73;" d="M124.02,23.754c-0.637,0.351-1.365,0.533-2.301,0.533c-2.211,0-3.498-1.275-3.498-3.472
			c0-1.937,1.027-3.536,3.107-3.536c2.482,0,3.186,1.703,3.186,4.043h-4.629c0.078,1.079,0.832,1.689,1.911,1.689
			c0.845,0,1.573-0.312,2.224-0.676V23.754z M122.85,20.127c-0.053-0.846-0.442-1.574-1.418-1.574c-0.975,0-1.469,0.676-1.547,1.574
			H122.85z"/>
		<path style="fill:#002D73;" d="M125.917,17.436h1.547v1.521h0.026c0.078-0.624,0.793-1.677,1.833-1.677
			c0.169,0,0.351,0,0.532,0.052v1.755c-0.155-0.091-0.467-0.143-0.779-0.143c-1.417,0-1.417,1.768-1.417,2.73v2.457h-1.742V17.436z"
			/>
		<path style="fill:#002D73;" d="M134.913,18.84c-0.532-0.183-0.923-0.287-1.56-0.287c-0.469,0-1.027,0.17-1.027,0.742
			c0,1.065,3.029,0.389,3.029,2.807c0,1.561-1.391,2.186-2.809,2.186c-0.662,0-1.339-0.117-1.976-0.287l0.104-1.43
			c0.545,0.273,1.117,0.441,1.715,0.441c0.442,0,1.145-0.168,1.145-0.818c0-1.312-3.029-0.416-3.029-2.834
			c0-1.443,1.262-2.08,2.627-2.08c0.818,0,1.352,0.13,1.897,0.246L134.913,18.84z"/>
		<path style="fill:#002D73;" d="M5.24,33.879c-0.312-0.144-0.65-0.248-1.184-0.248c-1.079,0-1.768,0.858-1.768,2.119
			c0,1.235,0.584,2.184,1.807,2.184c0.494,0,1.04-0.182,1.339-0.311l0.078,1.442c-0.507,0.155-1.026,0.222-1.742,0.222
			c-2.196,0-3.302-1.496-3.302-3.537c0-1.938,1.145-3.471,3.236-3.471c0.703,0,1.209,0.078,1.69,0.221L5.24,33.879z"/>
		<path style="fill:#002D73;" d="M9.738,32.279c1.988,0,3.51,1.339,3.51,3.549c0,1.924-1.287,3.459-3.51,3.459
			c-2.211,0-3.498-1.535-3.498-3.459C6.24,33.618,7.762,32.279,9.738,32.279z M9.738,37.934c1.338,0,1.689-1.195,1.689-2.313
			c0-1.026-0.546-1.989-1.689-1.989c-1.132,0-1.678,0.988-1.678,1.989C8.061,36.725,8.412,37.934,9.738,37.934z"/>
		<path style="fill:#002D73;" d="M14.612,32.436h1.651v0.91h0.025c0.547-0.768,1.287-1.066,2.197-1.066
			c1.586,0,2.275,1.117,2.275,2.626v4.226H19.02v-3.576c0-0.818-0.014-1.924-1.131-1.924c-1.262,0-1.534,1.365-1.534,2.223v3.277
			h-1.742V32.436z"/>
		<path style="fill:#002D73;" d="M23.127,33.709H21.84v-1.273h1.287v-1.34l1.742-0.559v1.898h1.547v1.273h-1.547v3.12
			c0,0.572,0.156,1.104,0.819,1.104c0.312,0,0.61-0.064,0.793-0.182l0.052,1.379c-0.363,0.104-0.768,0.156-1.287,0.156
			c-1.365,0-2.119-0.846-2.119-2.172V33.709z"/>
		<path style="fill:#002D73;" d="M27.651,29.549h1.742v1.664h-1.742V29.549z M27.651,32.436h1.742v6.695h-1.742V32.436z"/>
		<path style="fill:#002D73;" d="M31.227,32.436h1.65v0.91h0.026c0.546-0.768,1.287-1.066,2.196-1.066
			c1.587,0,2.275,1.117,2.275,2.626v4.226h-1.742v-3.576c0-0.818-0.013-1.924-1.131-1.924c-1.261,0-1.533,1.365-1.533,2.223v3.277
			h-1.742V32.436z"/>
		<path style="fill:#002D73;" d="M45.318,39.131h-1.651v-0.91h-0.026c-0.533,0.65-1.287,1.066-2.197,1.066
			c-1.586,0-2.274-1.119-2.274-2.627v-4.225h1.742v3.574c0,0.819,0.013,1.924,1.131,1.924c1.261,0,1.534-1.364,1.534-2.223v-3.275
			h1.742V39.131z"/>
		<path style="fill:#002D73;" d="M50.18,32.279c1.989,0,3.51,1.339,3.51,3.549c0,1.924-1.287,3.459-3.51,3.459
			c-2.21,0-3.496-1.535-3.496-3.459C46.684,33.618,48.204,32.279,50.18,32.279z M50.18,37.934c1.34,0,1.69-1.195,1.69-2.313
			c0-1.026-0.546-1.989-1.69-1.989c-1.131,0-1.677,0.988-1.677,1.989C48.503,36.725,48.854,37.934,50.18,37.934z"/>
		<path style="fill:#002D73;" d="M61.204,39.131h-1.651v-0.91h-0.025c-0.533,0.65-1.287,1.066-2.197,1.066
			c-1.586,0-2.275-1.119-2.275-2.627v-4.225h1.742v3.574c0,0.819,0.014,1.924,1.131,1.924c1.262,0,1.534-1.364,1.534-2.223v-3.275
			h1.742V39.131z"/>
		<path style="fill:#002D73;" d="M66.976,33.84c-0.532-0.183-0.923-0.287-1.56-0.287c-0.469,0-1.027,0.17-1.027,0.742
			c0,1.065,3.029,0.389,3.029,2.807c0,1.561-1.391,2.186-2.809,2.186c-0.662,0-1.339-0.117-1.976-0.287l0.104-1.43
			c0.545,0.273,1.117,0.441,1.715,0.441c0.442,0,1.145-0.168,1.145-0.818c0-1.312-3.029-0.416-3.029-2.834
			c0-1.443,1.262-2.08,2.627-2.08c0.818,0,1.352,0.13,1.897,0.246L66.976,33.84z"/>
		<path style="fill:#002D73;" d="M72.422,29.38h1.742v9.751h-1.742V29.38z"/>
		<path style="fill:#002D73;" d="M82.146,39.131h-1.651v-0.91h-0.026c-0.533,0.65-1.287,1.066-2.197,1.066
			c-1.586,0-2.274-1.119-2.274-2.627v-4.225h1.742v3.574c0,0.819,0.013,1.924,1.131,1.924c1.261,0,1.534-1.364,1.534-2.223v-3.275
			h1.742V39.131z"/>
		<path style="fill:#002D73;" d="M83.939,32.436h1.652v0.91h0.025c0.546-0.768,1.287-1.066,2.197-1.066
			c1.586,0,2.275,1.117,2.275,2.626v4.226h-1.742v-3.576c0-0.818-0.014-1.924-1.131-1.924c-1.262,0-1.535,1.365-1.535,2.223v3.277
			h-1.742V32.436z"/>
		<path style="fill:#002D73;" d="M98.032,32.436v6.045c0,1.82-0.728,3.536-3.536,3.536c-0.689,0-1.482-0.104-2.314-0.455
			l0.143-1.481c0.533,0.285,1.404,0.584,1.951,0.584c1.924,0,2.015-1.443,2.015-2.6h-0.026c-0.324,0.572-1.104,1.066-2.08,1.066
			c-1.976,0-2.73-1.586-2.73-3.381c0-1.611,0.832-3.471,2.835-3.471c0.884,0,1.573,0.299,2.054,1.066h0.026v-0.91H98.032z
			 M96.29,35.711c0-1.144-0.442-2.08-1.456-2.08c-1.184,0-1.561,1.092-1.561,2.119c0,0.91,0.481,2.028,1.482,2.028
			C95.848,37.778,96.29,36.829,96.29,35.711z"/>
		<path style="fill:#002D73;" d="M104.076,33.709h-1.287v-1.273h1.287v-0.937c0-1.339,0.754-2.274,2.133-2.274
			c0.441,0,0.936,0.064,1.273,0.143l-0.143,1.443c-0.156-0.092-0.377-0.234-0.754-0.234c-0.586,0-0.768,0.507-0.768,1.027v0.832
			h1.521v1.273h-1.521v5.422h-1.742V33.709z"/>
		<path style="fill:#002D73;" d="M114.646,39.131h-1.652v-0.91h-0.025c-0.533,0.65-1.287,1.066-2.197,1.066
			c-1.586,0-2.275-1.119-2.275-2.627v-4.225h1.742v3.574c0,0.819,0.014,1.924,1.131,1.924c1.262,0,1.535-1.364,1.535-2.223v-3.275
			h1.742V39.131z"/>
		<path style="fill:#002D73;" d="M116.439,32.436h1.65v0.91h0.027c0.545-0.768,1.287-1.066,2.196-1.066
			c1.587,0,2.275,1.117,2.275,2.626v4.226h-1.742v-3.576c0-0.818-0.013-1.924-1.131-1.924c-1.261,0-1.534,1.365-1.534,2.223v3.277
			h-1.742V32.436z"/>
		<path style="fill:#002D73;" d="M128.725,33.879c-0.312-0.144-0.65-0.248-1.184-0.248c-1.078,0-1.768,0.858-1.768,2.119
			c0,1.235,0.585,2.184,1.807,2.184c0.494,0,1.041-0.182,1.34-0.311l0.078,1.442c-0.508,0.155-1.027,0.222-1.742,0.222
			c-2.197,0-3.303-1.496-3.303-3.537c0-1.938,1.145-3.471,3.237-3.471c0.702,0,1.209,0.078,1.69,0.221L128.725,33.879z"/>
		<path style="fill:#002D73;" d="M130.727,33.709h-1.287v-1.273h1.287v-1.34l1.742-0.559v1.898h1.547v1.273h-1.547v3.12
			c0,0.572,0.156,1.104,0.818,1.104c0.312,0,0.611-0.064,0.793-0.182l0.053,1.379c-0.364,0.104-0.768,0.156-1.287,0.156
			c-1.365,0-2.119-0.846-2.119-2.172V33.709z"/>
		<path style="fill:#002D73;" d="M135.25,29.549h1.742v1.664h-1.742V29.549z M135.25,32.436h1.742v6.695h-1.742V32.436z"/>
		<path style="fill:#002D73;" d="M141.894,32.279c1.989,0,3.51,1.339,3.51,3.549c0,1.924-1.286,3.459-3.51,3.459
			c-2.21,0-3.497-1.535-3.497-3.459C138.396,33.618,139.918,32.279,141.894,32.279z M141.894,37.934c1.339,0,1.69-1.195,1.69-2.313
			c0-1.026-0.547-1.989-1.69-1.989c-1.132,0-1.677,0.988-1.677,1.989C140.217,36.725,140.567,37.934,141.894,37.934z"/>
		<path style="fill:#002D73;" d="M146.768,32.436h1.652v0.91h0.025c0.546-0.768,1.287-1.066,2.197-1.066
			c1.586,0,2.275,1.117,2.275,2.626v4.226h-1.742v-3.576c0-0.818-0.014-1.924-1.131-1.924c-1.262,0-1.535,1.365-1.535,2.223v3.277
			h-1.742V32.436z"/>
		<path style="fill:#002D73;" d="M0.937,44.549h1.742v1.664H0.937V44.549z M0.937,47.436h1.742v6.695H0.937V47.436z"/>
		<path style="fill:#002D73;" d="M4.485,47.436H6.11v0.936h0.026c0.545-0.818,1.339-1.092,1.988-1.092
			c0.937,0,1.6,0.352,1.977,1.184c0.402-0.807,1.273-1.184,2.094-1.184c1.65,0,2.118,1.131,2.118,2.626v4.226h-1.741v-3.992
			c0-0.623,0-1.508-1.002-1.508c-1.156,0-1.3,1.379-1.3,2.25v3.25H8.528v-3.992c0-0.623,0-1.508-1.001-1.508
			c-1.156,0-1.3,1.379-1.3,2.25v3.25H4.485V47.436z"/>
		<path style="fill:#002D73;" d="M16.068,47.436h1.664v0.949h0.025c0.391-0.65,1.054-1.105,2.08-1.105
			c2.055,0,2.809,1.638,2.809,3.484c0,1.832-0.754,3.523-2.848,3.523c-0.74,0-1.352-0.183-1.963-0.924h-0.025v3.497h-1.742V47.436z
			 M17.824,50.764c0,0.949,0.377,2.17,1.533,2.17c1.145,0,1.469-1.248,1.469-2.17c0-0.897-0.312-2.133-1.443-2.133
			C18.266,48.631,17.824,49.827,17.824,50.764z"/>
		<path style="fill:#002D73;" d="M24.051,47.436h1.547v1.521h0.025c0.078-0.624,0.793-1.677,1.834-1.677
			c0.168,0,0.351,0,0.532,0.052v1.755c-0.155-0.091-0.468-0.143-0.78-0.143c-1.416,0-1.416,1.768-1.416,2.73v2.457h-1.742V47.436z"
			/>
		<path style="fill:#002D73;" d="M32.137,47.279c1.988,0,3.51,1.339,3.51,3.549c0,1.924-1.287,3.459-3.51,3.459
			c-2.211,0-3.498-1.535-3.498-3.459C28.639,48.618,30.16,47.279,32.137,47.279z M32.137,52.934c1.339,0,1.689-1.195,1.689-2.313
			c0-1.026-0.545-1.989-1.689-1.989c-1.131,0-1.678,0.988-1.678,1.989C30.459,51.725,30.811,52.934,32.137,52.934z"/>
		<path style="fill:#002D73;" d="M36.27,47.436h1.873l1.664,4.875h0.025l1.612-4.875h1.742l-2.47,6.695h-1.963L36.27,47.436z"/>
		<path style="fill:#002D73;" d="M49.608,53.754c-0.637,0.351-1.364,0.533-2.301,0.533c-2.21,0-3.497-1.275-3.497-3.472
			c0-1.937,1.027-3.536,3.107-3.536c2.482,0,3.185,1.703,3.185,4.043h-4.628c0.078,1.079,0.832,1.689,1.91,1.689
			c0.846,0,1.574-0.312,2.224-0.676V53.754z M48.438,50.127c-0.052-0.846-0.442-1.574-1.417-1.574s-1.469,0.676-1.547,1.574H48.438z
			"/>
		<path style="fill:#002D73;" d="M51.441,47.436h1.625v0.936h0.025c0.547-0.818,1.34-1.092,1.99-1.092
			c0.936,0,1.599,0.352,1.976,1.184c0.403-0.807,1.274-1.184,2.093-1.184c1.651,0,2.119,1.131,2.119,2.626v4.226h-1.742v-3.992
			c0-0.623,0-1.508-1-1.508c-1.158,0-1.301,1.379-1.301,2.25v3.25h-1.742v-3.992c0-0.623,0-1.508-1.001-1.508
			c-1.157,0-1.3,1.379-1.3,2.25v3.25h-1.742V47.436z"/>
		<path style="fill:#002D73;" d="M68.394,53.754c-0.637,0.351-1.364,0.533-2.301,0.533c-2.21,0-3.497-1.275-3.497-3.472
			c0-1.937,1.027-3.536,3.107-3.536c2.482,0,3.185,1.703,3.185,4.043H64.26c0.078,1.079,0.832,1.689,1.91,1.689
			c0.846,0,1.574-0.312,2.224-0.676V53.754z M67.224,50.127c-0.052-0.846-0.442-1.574-1.417-1.574s-1.469,0.676-1.547,1.574H67.224z
			"/>
		<path style="fill:#002D73;" d="M70.252,47.436h1.652v0.91h0.025c0.546-0.768,1.287-1.066,2.197-1.066
			c1.586,0,2.275,1.117,2.275,2.626v4.226H74.66v-3.576c0-0.818-0.014-1.924-1.131-1.924c-1.262,0-1.535,1.365-1.535,2.223v3.277
			h-1.742V47.436z"/>
		<path style="fill:#002D73;" d="M78.768,48.709H77.48v-1.273h1.287v-1.34l1.742-0.559v1.898h1.547v1.273H80.51v3.12
			c0,0.572,0.156,1.104,0.818,1.104c0.312,0,0.611-0.064,0.793-0.182l0.053,1.379c-0.364,0.104-0.768,0.156-1.287,0.156
			c-1.365,0-2.119-0.846-2.119-2.172V48.709z"/>
	</g>
</g>
</svg>
