<?xml version="1.0" encoding="utf-8"?>
<!-- Generator: Adobe Illustrator 19.1.0, SVG Export Plug-In . SVG Version: 6.00 Build 0)  -->
<svg version="1.1" id="Layer_1" xmlns="http://www.w3.org/2000/svg" xmlns:xlink="http://www.w3.org/1999/xlink" x="0px" y="0px"
	 viewBox="0 0 234.9 71.7" style="enable-background:new 0 0 234.9 71.7;" xml:space="preserve">
<style type="text/css">
	.st0{fill:url(#SVGID_2_);}
	.st1{opacity:0.44;fill:url(#SVGID_3_);}
	.st2{opacity:0.74;fill:url(#SVGID_4_);}
	.st3{opacity:0.65;fill:url(#SVGID_5_);}
	.st4{opacity:0.89;fill:url(#SVGID_6_);}
	.st5{fill:#002D73;}
	.st6{fill:none;stroke:#002D73;stroke-miterlimit:10;}
	.st7{opacity:0.5;fill:url(#SVGID_7_);}
	.st8{fill:url(#SVGID_8_);}
	.st9{clip-path:url(#SVGID_9_);fill:none;stroke:#002D73;stroke-width:2.5153;stroke-linecap:round;stroke-miterlimit:10;}
	.st10{fill:url(#SVGID_12_);stroke:#FFFFFF;stroke-width:1.3048;stroke-miterlimit:10;}
	.st11{fill:#FFFFFF;}
	.st12{fill:#231F20;}
	.st13{clip-path:url(#SVGID_14_);fill:#231F20;}
	.st14{clip-path:url(#SVGID_14_);fill:#6FA5D9;}
	.st15{clip-path:url(#SVGID_14_);fill:#007AC1;}
	.st16{fill:#58595B;}
	.st17{clip-path:url(#SVGID_16_);fill:#F27021;}
	.st18{clip-path:url(#SVGID_18_);}
	.st19{clip-path:url(#SVGID_20_);}
	.st20{clip-path:url(#SVGID_24_);}
	.st21{clip-path:url(#SVGID_26_);}
	.st22{clip-path:url(#SVGID_30_);}
	.st23{clip-path:url(#SVGID_32_);}
	.st24{clip-path:url(#SVGID_36_);}
	.st25{clip-path:url(#SVGID_38_);}
	.st26{clip-path:url(#SVGID_42_);}
	.st27{clip-path:url(#SVGID_44_);}
	.st28{clip-path:url(#SVGID_48_);}
	.st29{clip-path:url(#SVGID_50_);}
	.st30{clip-path:url(#SVGID_54_);}
	.st31{clip-path:url(#SVGID_56_);}
	.st32{clip-path:url(#SVGID_58_);}
	.st33{clip-path:url(#SVGID_62_);}
	.st34{clip-path:url(#SVGID_64_);}
	.st35{clip-path:url(#SVGID_66_);}
	.st36{clip-path:url(#SVGID_70_);}
	.st37{clip-path:url(#SVGID_72_);}
	.st38{clip-path:url(#SVGID_74_);}
	.st39{clip-path:url(#SVGID_78_);}
	.st40{clip-path:url(#SVGID_80_);}
	.st41{clip-path:url(#SVGID_82_);}
	.st42{clip-path:url(#SVGID_86_);}
	.st43{clip-path:url(#SVGID_88_);}
	.st44{clip-path:url(#SVGID_92_);}
	.st45{clip-path:url(#SVGID_94_);}
	.st46{clip-path:url(#SVGID_98_);}
	.st47{clip-path:url(#SVGID_100_);}
	.st48{clip-path:url(#SVGID_104_);}
	.st49{clip-path:url(#SVGID_106_);}
	.st50{clip-path:url(#SVGID_110_);}
	.st51{clip-path:url(#SVGID_112_);}
	.st52{clip-path:url(#SVGID_116_);}
	.st53{clip-path:url(#SVGID_118_);}
	.st54{clip-path:url(#SVGID_122_);}
	.st55{clip-path:url(#SVGID_124_);}
	.st56{clip-path:url(#SVGID_128_);}
	.st57{clip-path:url(#SVGID_130_);}
	.st58{clip-path:url(#SVGID_134_);}
	.st59{clip-path:url(#SVGID_136_);}
	.st60{clip-path:url(#SVGID_140_);}
	.st61{clip-path:url(#SVGID_142_);}
	.st62{clip-path:url(#SVGID_146_);}
	.st63{clip-path:url(#SVGID_148_);}
	.st64{clip-path:url(#SVGID_152_);}
	.st65{clip-path:url(#SVGID_154_);}
	.st66{clip-path:url(#SVGID_158_);}
	.st67{clip-path:url(#SVGID_160_);}
	.st68{clip-path:url(#SVGID_164_);}
	.st69{clip-path:url(#SVGID_166_);}
	.st70{clip-path:url(#SVGID_170_);}
	.st71{clip-path:url(#SVGID_172_);}
	.st72{clip-path:url(#SVGID_176_);}
	.st73{clip-path:url(#SVGID_178_);}
	.st74{clip-path:url(#SVGID_182_);}
	.st75{clip-path:url(#SVGID_184_);}
	.st76{clip-path:url(#SVGID_188_);}
	.st77{clip-path:url(#SVGID_190_);}
	.st78{clip-path:url(#SVGID_194_);}
	.st79{clip-path:url(#SVGID_196_);}
	.st80{clip-path:url(#SVGID_200_);}
	.st81{clip-path:url(#SVGID_202_);}
	.st82{clip-path:url(#SVGID_206_);}
	.st83{clip-path:url(#SVGID_208_);}
	.st84{clip-path:url(#SVGID_212_);}
	.st85{clip-path:url(#SVGID_214_);}
	.st86{clip-path:url(#SVGID_218_);}
	.st87{clip-path:url(#SVGID_220_);}
	.st88{clip-path:url(#SVGID_224_);}
	.st89{clip-path:url(#SVGID_226_);}
	.st90{clip-path:url(#SVGID_230_);}
	.st91{clip-path:url(#SVGID_232_);}
	.st92{clip-path:url(#SVGID_236_);}
	.st93{clip-path:url(#SVGID_238_);}
	.st94{clip-path:url(#SVGID_240_);}
	.st95{clip-path:url(#SVGID_244_);}
	.st96{clip-path:url(#SVGID_246_);}
	.st97{clip-path:url(#SVGID_250_);}
	.st98{clip-path:url(#SVGID_252_);}
	.st99{clip-path:url(#SVGID_256_);}
	.st100{clip-path:url(#SVGID_258_);}
	.st101{clip-path:url(#SVGID_262_);}
	.st102{clip-path:url(#SVGID_264_);}
	.st103{clip-path:url(#SVGID_268_);}
	.st104{clip-path:url(#SVGID_270_);}
	.st105{clip-path:url(#SVGID_274_);}
	.st106{clip-path:url(#SVGID_276_);}
	.st107{clip-path:url(#SVGID_280_);}
	.st108{clip-path:url(#SVGID_282_);}
	.st109{clip-path:url(#SVGID_286_);}
	.st110{clip-path:url(#SVGID_288_);}
	.st111{clip-path:url(#SVGID_292_);}
	.st112{clip-path:url(#SVGID_294_);}
	.st113{clip-path:url(#SVGID_298_);}
	.st114{clip-path:url(#SVGID_300_);}
	.st115{clip-path:url(#SVGID_302_);}
	.st116{clip-path:url(#SVGID_306_);}
	.st117{clip-path:url(#SVGID_308_);}
	.st118{clip-path:url(#SVGID_312_);}
	.st119{clip-path:url(#SVGID_314_);}
	.st120{clip-path:url(#SVGID_318_);}
	.st121{clip-path:url(#SVGID_320_);}
	.st122{clip-path:url(#SVGID_324_);}
	.st123{clip-path:url(#SVGID_326_);}
	.st124{clip-path:url(#SVGID_330_);}
	.st125{clip-path:url(#SVGID_332_);}
	.st126{clip-path:url(#SVGID_336_);}
	.st127{clip-path:url(#SVGID_338_);}
	.st128{clip-path:url(#SVGID_342_);}
	.st129{clip-path:url(#SVGID_344_);}
	.st130{clip-path:url(#SVGID_348_);}
	.st131{clip-path:url(#SVGID_350_);}
	.st132{clip-path:url(#SVGID_354_);}
	.st133{clip-path:url(#SVGID_356_);}
	.st134{clip-path:url(#SVGID_360_);}
	.st135{clip-path:url(#SVGID_362_);}
	.st136{clip-path:url(#SVGID_366_);}
	.st137{clip-path:url(#SVGID_368_);}
	.st138{clip-path:url(#SVGID_372_);}
	.st139{clip-path:url(#SVGID_374_);}
	.st140{clip-path:url(#SVGID_378_);}
	.st141{clip-path:url(#SVGID_380_);}
	.st142{clip-path:url(#SVGID_384_);}
	.st143{clip-path:url(#SVGID_386_);}
	.st144{clip-path:url(#SVGID_390_);}
	.st145{clip-path:url(#SVGID_392_);}
	.st146{clip-path:url(#SVGID_396_);}
	.st147{clip-path:url(#SVGID_398_);}
	.st148{clip-path:url(#SVGID_402_);}
	.st149{clip-path:url(#SVGID_404_);}
	.st150{clip-path:url(#SVGID_408_);}
	.st151{clip-path:url(#SVGID_410_);}
	.st152{clip-path:url(#SVGID_414_);}
	.st153{clip-path:url(#SVGID_416_);}
	.st154{clip-path:url(#SVGID_420_);}
	.st155{clip-path:url(#SVGID_422_);}
	.st156{clip-path:url(#SVGID_426_);}
	.st157{clip-path:url(#SVGID_428_);}
	.st158{clip-path:url(#SVGID_432_);}
	.st159{clip-path:url(#SVGID_434_);}
	.st160{clip-path:url(#SVGID_438_);}
	.st161{clip-path:url(#SVGID_440_);}
	.st162{clip-path:url(#SVGID_444_);}
	.st163{clip-path:url(#SVGID_446_);}
	.st164{clip-path:url(#SVGID_450_);}
	.st165{clip-path:url(#SVGID_452_);}
	.st166{clip-path:url(#SVGID_456_);}
	.st167{clip-path:url(#SVGID_458_);}
	.st168{clip-path:url(#SVGID_462_);}
	.st169{clip-path:url(#SVGID_464_);}
	.st170{clip-path:url(#SVGID_468_);}
	.st171{clip-path:url(#SVGID_470_);}
	.st172{clip-path:url(#SVGID_474_);}
	.st173{clip-path:url(#SVGID_476_);}
	.st174{clip-path:url(#SVGID_480_);}
	.st175{clip-path:url(#SVGID_482_);}
	.st176{clip-path:url(#SVGID_486_);}
	.st177{clip-path:url(#SVGID_488_);}
	.st178{clip-path:url(#SVGID_492_);}
	.st179{clip-path:url(#SVGID_494_);}
	.st180{clip-path:url(#SVGID_498_);}
	.st181{clip-path:url(#SVGID_500_);}
	.st182{clip-path:url(#SVGID_504_);}
	.st183{clip-path:url(#SVGID_506_);}
	.st184{clip-path:url(#SVGID_510_);}
	.st185{clip-path:url(#SVGID_512_);}
	.st186{clip-path:url(#SVGID_516_);}
	.st187{clip-path:url(#SVGID_518_);}
	.st188{clip-path:url(#SVGID_522_);}
	.st189{clip-path:url(#SVGID_524_);}
	.st190{clip-path:url(#SVGID_528_);}
	.st191{clip-path:url(#SVGID_530_);}
	.st192{clip-path:url(#SVGID_534_);}
	.st193{clip-path:url(#SVGID_536_);}
	.st194{clip-path:url(#SVGID_540_);}
	.st195{clip-path:url(#SVGID_542_);}
	.st196{clip-path:url(#SVGID_546_);}
	.st197{clip-path:url(#SVGID_548_);}
	.st198{clip-path:url(#SVGID_552_);}
	.st199{clip-path:url(#SVGID_554_);}
	.st200{clip-path:url(#SVGID_558_);}
	.st201{clip-path:url(#SVGID_560_);}
	.st202{clip-path:url(#SVGID_564_);}
	.st203{clip-path:url(#SVGID_566_);}
	.st204{clip-path:url(#SVGID_570_);}
	.st205{clip-path:url(#SVGID_572_);}
	.st206{clip-path:url(#SVGID_576_);}
	.st207{clip-path:url(#SVGID_578_);}
	.st208{clip-path:url(#SVGID_582_);}
	.st209{clip-path:url(#SVGID_584_);}
	.st210{clip-path:url(#SVGID_588_);}
	.st211{clip-path:url(#SVGID_590_);}
	.st212{clip-path:url(#SVGID_594_);}
	.st213{clip-path:url(#SVGID_596_);}
	.st214{clip-path:url(#SVGID_600_);}
	.st215{clip-path:url(#SVGID_602_);}
	.st216{clip-path:url(#SVGID_606_);}
	.st217{clip-path:url(#SVGID_608_);}
	.st218{clip-path:url(#SVGID_612_);}
	.st219{clip-path:url(#SVGID_614_);}
	.st220{clip-path:url(#SVGID_618_);}
	.st221{clip-path:url(#SVGID_620_);}
	.st222{clip-path:url(#SVGID_624_);}
	.st223{clip-path:url(#SVGID_626_);}
	.st224{clip-path:url(#SVGID_630_);}
	.st225{clip-path:url(#SVGID_632_);}
	.st226{clip-path:url(#SVGID_636_);}
	.st227{clip-path:url(#SVGID_638_);}
	.st228{clip-path:url(#SVGID_642_);}
	.st229{clip-path:url(#SVGID_644_);}
	.st230{clip-path:url(#SVGID_648_);}
	.st231{clip-path:url(#SVGID_650_);}
	.st232{clip-path:url(#SVGID_654_);}
	.st233{clip-path:url(#SVGID_656_);}
	.st234{clip-path:url(#SVGID_660_);}
	.st235{clip-path:url(#SVGID_662_);}
	.st236{clip-path:url(#SVGID_666_);}
	.st237{clip-path:url(#SVGID_668_);}
	.st238{clip-path:url(#SVGID_672_);}
	.st239{clip-path:url(#SVGID_674_);}
	.st240{clip-path:url(#SVGID_678_);}
	.st241{clip-path:url(#SVGID_680_);}
	.st242{clip-path:url(#SVGID_684_);}
	.st243{clip-path:url(#SVGID_686_);}
	.st244{clip-path:url(#SVGID_688_);}
	.st245{clip-path:url(#SVGID_692_);}
	.st246{clip-path:url(#SVGID_694_);}
	.st247{clip-path:url(#SVGID_698_);}
	.st248{clip-path:url(#SVGID_700_);}
	.st249{clip-path:url(#SVGID_702_);}
	.st250{clip-path:url(#SVGID_706_);}
	.st251{clip-path:url(#SVGID_708_);}
	.st252{clip-path:url(#SVGID_712_);}
	.st253{clip-path:url(#SVGID_714_);}
	.st254{clip-path:url(#SVGID_716_);}
	.st255{clip-path:url(#SVGID_720_);}
	.st256{clip-path:url(#SVGID_722_);}
	.st257{clip-path:url(#SVGID_724_);}
	.st258{clip-path:url(#SVGID_728_);}
	.st259{clip-path:url(#SVGID_730_);}
	.st260{clip-path:url(#SVGID_732_);}
	.st261{clip-path:url(#SVGID_736_);}
	.st262{clip-path:url(#SVGID_738_);}
	.st263{clip-path:url(#SVGID_740_);}
	.st264{clip-path:url(#SVGID_744_);}
	.st265{clip-path:url(#SVGID_746_);}
	.st266{clip-path:url(#SVGID_748_);}
	.st267{clip-path:url(#SVGID_752_);}
	.st268{clip-path:url(#SVGID_754_);}
	.st269{clip-path:url(#SVGID_758_);}
	.st270{clip-path:url(#SVGID_760_);}
	.st271{clip-path:url(#SVGID_762_);}
	.st272{clip-path:url(#SVGID_766_);}
	.st273{clip-path:url(#SVGID_768_);}
	.st274{clip-path:url(#SVGID_770_);}
	.st275{clip-path:url(#SVGID_774_);}
	.st276{clip-path:url(#SVGID_776_);}
	.st277{clip-path:url(#SVGID_778_);}
	.st278{clip-path:url(#SVGID_782_);}
	.st279{clip-path:url(#SVGID_784_);}
	.st280{clip-path:url(#SVGID_786_);}
	.st281{clip-path:url(#SVGID_790_);}
	.st282{clip-path:url(#SVGID_792_);}
	.st283{clip-path:url(#SVGID_794_);}
	.st284{clip-path:url(#SVGID_798_);}
	.st285{clip-path:url(#SVGID_800_);}
	.st286{clip-path:url(#SVGID_804_);}
	.st287{clip-path:url(#SVGID_806_);}
	.st288{clip-path:url(#SVGID_810_);}
	.st289{clip-path:url(#SVGID_812_);}
	.st290{clip-path:url(#SVGID_816_);}
	.st291{clip-path:url(#SVGID_818_);}
	.st292{clip-path:url(#SVGID_822_);}
	.st293{clip-path:url(#SVGID_824_);}
	.st294{clip-path:url(#SVGID_828_);}
	.st295{clip-path:url(#SVGID_830_);}
	.st296{clip-path:url(#SVGID_834_);}
	.st297{clip-path:url(#SVGID_836_);}
	.st298{clip-path:url(#SVGID_840_);}
	.st299{clip-path:url(#SVGID_842_);}
	.st300{clip-path:url(#SVGID_846_);}
	.st301{clip-path:url(#SVGID_848_);}
	.st302{clip-path:url(#SVGID_852_);}
	.st303{clip-path:url(#SVGID_854_);}
	.st304{clip-path:url(#SVGID_858_);}
	.st305{clip-path:url(#SVGID_860_);}
	.st306{clip-path:url(#SVGID_864_);}
	.st307{clip-path:url(#SVGID_866_);}
	.st308{clip-path:url(#SVGID_870_);}
	.st309{clip-path:url(#SVGID_872_);}
	.st310{clip-path:url(#SVGID_876_);}
	.st311{clip-path:url(#SVGID_878_);}
	.st312{clip-path:url(#SVGID_882_);}
	.st313{clip-path:url(#SVGID_884_);}
	.st314{clip-path:url(#SVGID_888_);}
	.st315{clip-path:url(#SVGID_890_);}
	.st316{clip-path:url(#SVGID_894_);}
	.st317{clip-path:url(#SVGID_896_);}
	.st318{clip-path:url(#SVGID_900_);}
	.st319{clip-path:url(#SVGID_902_);}
	.st320{clip-path:url(#SVGID_906_);}
	.st321{clip-path:url(#SVGID_908_);}
	.st322{clip-path:url(#SVGID_912_);}
	.st323{clip-path:url(#SVGID_914_);}
	.st324{clip-path:url(#SVGID_918_);}
	.st325{clip-path:url(#SVGID_920_);}
	.st326{clip-path:url(#SVGID_924_);}
	.st327{clip-path:url(#SVGID_926_);}
	.st328{clip-path:url(#SVGID_930_);}
	.st329{clip-path:url(#SVGID_932_);}
	.st330{clip-path:url(#SVGID_936_);}
	.st331{clip-path:url(#SVGID_938_);}
	.st332{clip-path:url(#SVGID_942_);}
	.st333{clip-path:url(#SVGID_944_);}
	.st334{clip-path:url(#SVGID_948_);}
	.st335{clip-path:url(#SVGID_950_);}
	.st336{clip-path:url(#SVGID_954_);}
	.st337{clip-path:url(#SVGID_956_);}
	.st338{clip-path:url(#SVGID_960_);}
	.st339{clip-path:url(#SVGID_962_);}
	.st340{clip-path:url(#SVGID_966_);}
	.st341{clip-path:url(#SVGID_968_);}
	.st342{clip-path:url(#SVGID_972_);}
	.st343{clip-path:url(#SVGID_974_);}
	.st344{clip-path:url(#SVGID_978_);}
	.st345{clip-path:url(#SVGID_980_);}
	.st346{clip-path:url(#SVGID_984_);}
	.st347{clip-path:url(#SVGID_986_);}
	.st348{clip-path:url(#SVGID_990_);}
	.st349{clip-path:url(#SVGID_992_);}
	.st350{clip-path:url(#SVGID_994_);}
	.st351{clip-path:url(#SVGID_998_);}
	.st352{clip-path:url(#SVGID_1000_);}
	.st353{clip-path:url(#SVGID_1004_);}
	.st354{clip-path:url(#SVGID_1006_);}
	.st355{clip-path:url(#SVGID_1008_);}
	.st356{clip-path:url(#SVGID_1012_);}
	.st357{clip-path:url(#SVGID_1014_);}
	.st358{clip-path:url(#SVGID_1018_);}
	.st359{clip-path:url(#SVGID_1020_);}
	.st360{clip-path:url(#SVGID_1024_);}
	.st361{clip-path:url(#SVGID_1026_);}
	.st362{clip-path:url(#SVGID_1030_);}
	.st363{clip-path:url(#SVGID_1032_);}
	.st364{clip-path:url(#SVGID_1036_);}
	.st365{clip-path:url(#SVGID_1038_);}
	.st366{clip-path:url(#SVGID_1042_);}
	.st367{clip-path:url(#SVGID_1044_);}
	.st368{clip-path:url(#SVGID_1048_);}
	.st369{clip-path:url(#SVGID_1050_);}
	.st370{clip-path:url(#SVGID_1054_);}
	.st371{clip-path:url(#SVGID_1056_);}
	.st372{clip-path:url(#SVGID_1060_);}
	.st373{clip-path:url(#SVGID_1062_);}
	.st374{clip-path:url(#SVGID_1066_);}
	.st375{clip-path:url(#SVGID_1068_);}
	.st376{clip-path:url(#SVGID_1072_);}
	.st377{clip-path:url(#SVGID_1074_);}
	.st378{clip-path:url(#SVGID_1078_);}
	.st379{clip-path:url(#SVGID_1080_);}
	.st380{clip-path:url(#SVGID_1084_);}
	.st381{clip-path:url(#SVGID_1086_);}
	.st382{clip-path:url(#SVGID_1090_);}
	.st383{clip-path:url(#SVGID_1092_);}
	.st384{clip-path:url(#SVGID_1096_);}
	.st385{clip-path:url(#SVGID_1098_);}
	.st386{clip-path:url(#SVGID_1102_);}
	.st387{clip-path:url(#SVGID_1104_);}
	.st388{clip-path:url(#SVGID_1108_);}
	.st389{clip-path:url(#SVGID_1110_);}
	.st390{clip-path:url(#SVGID_1114_);}
	.st391{clip-path:url(#SVGID_1116_);}
	.st392{clip-path:url(#SVGID_1120_);}
	.st393{clip-path:url(#SVGID_1122_);}
	.st394{clip-path:url(#SVGID_1126_);}
	.st395{clip-path:url(#SVGID_1128_);}
	.st396{clip-path:url(#SVGID_1132_);}
	.st397{clip-path:url(#SVGID_1134_);}
	.st398{clip-path:url(#SVGID_1138_);}
	.st399{clip-path:url(#SVGID_1140_);}
	.st400{clip-path:url(#SVGID_1144_);}
	.st401{clip-path:url(#SVGID_1146_);}
	.st402{clip-path:url(#SVGID_1150_);}
	.st403{clip-path:url(#SVGID_1152_);}
	.st404{clip-path:url(#SVGID_1156_);}
	.st405{clip-path:url(#SVGID_1158_);}
	.st406{clip-path:url(#SVGID_1162_);}
	.st407{clip-path:url(#SVGID_1164_);}
	.st408{clip-path:url(#SVGID_1168_);}
	.st409{clip-path:url(#SVGID_1170_);}
	.st410{clip-path:url(#SVGID_1174_);}
	.st411{clip-path:url(#SVGID_1176_);}
	.st412{clip-path:url(#SVGID_1180_);}
	.st413{clip-path:url(#SVGID_1182_);}
	.st414{clip-path:url(#SVGID_1186_);}
	.st415{clip-path:url(#SVGID_1188_);}
	.st416{clip-path:url(#SVGID_1192_);}
	.st417{clip-path:url(#SVGID_1194_);}
	.st418{clip-path:url(#SVGID_1198_);}
	.st419{clip-path:url(#SVGID_1200_);}
	.st420{clip-path:url(#SVGID_1204_);}
	.st421{clip-path:url(#SVGID_1206_);}
	.st422{clip-path:url(#SVGID_1210_);}
	.st423{clip-path:url(#SVGID_1212_);}
	.st424{clip-path:url(#SVGID_1216_);}
	.st425{clip-path:url(#SVGID_1218_);}
	.st426{clip-path:url(#SVGID_1222_);}
	.st427{clip-path:url(#SVGID_1224_);}
	.st428{clip-path:url(#SVGID_1228_);}
	.st429{clip-path:url(#SVGID_1230_);}
	.st430{clip-path:url(#SVGID_1234_);}
	.st431{clip-path:url(#SVGID_1236_);}
	.st432{clip-path:url(#SVGID_1240_);}
	.st433{clip-path:url(#SVGID_1242_);}
	.st434{clip-path:url(#SVGID_1246_);}
	.st435{clip-path:url(#SVGID_1248_);}
	.st436{clip-path:url(#SVGID_1252_);}
	.st437{clip-path:url(#SVGID_1254_);}
	.st438{clip-path:url(#SVGID_1258_);}
	.st439{clip-path:url(#SVGID_1260_);}
	.st440{clip-path:url(#SVGID_1264_);}
	.st441{clip-path:url(#SVGID_1266_);}
	.st442{clip-path:url(#SVGID_1270_);}
	.st443{clip-path:url(#SVGID_1272_);}
	.st444{clip-path:url(#SVGID_1276_);}
	.st445{clip-path:url(#SVGID_1278_);}
	.st446{clip-path:url(#SVGID_1282_);}
	.st447{clip-path:url(#SVGID_1284_);}
	.st448{clip-path:url(#SVGID_1288_);}
	.st449{clip-path:url(#SVGID_1290_);}
	.st450{clip-path:url(#SVGID_1294_);}
	.st451{clip-path:url(#SVGID_1296_);}
	.st452{clip-path:url(#SVGID_1300_);}
	.st453{clip-path:url(#SVGID_1302_);}
	.st454{clip-path:url(#SVGID_1306_);}
	.st455{clip-path:url(#SVGID_1308_);}
	.st456{clip-path:url(#SVGID_1312_);}
	.st457{clip-path:url(#SVGID_1314_);}
	.st458{clip-path:url(#SVGID_1318_);}
	.st459{clip-path:url(#SVGID_1320_);}
	.st460{clip-path:url(#SVGID_1324_);}
	.st461{clip-path:url(#SVGID_1326_);}
	.st462{clip-path:url(#SVGID_1330_);}
	.st463{clip-path:url(#SVGID_1332_);}
	.st464{clip-path:url(#SVGID_1336_);}
	.st465{clip-path:url(#SVGID_1338_);}
	.st466{clip-path:url(#SVGID_1340_);}
	.st467{clip-path:url(#SVGID_1344_);}
	.st468{clip-path:url(#SVGID_1346_);}
	.st469{clip-path:url(#SVGID_1350_);}
	.st470{clip-path:url(#SVGID_1352_);}
	.st471{clip-path:url(#SVGID_1356_);}
	.st472{clip-path:url(#SVGID_1358_);}
	.st473{clip-path:url(#SVGID_1362_);}
	.st474{clip-path:url(#SVGID_1364_);}
	.st475{clip-path:url(#SVGID_1368_);}
	.st476{clip-path:url(#SVGID_1370_);}
	.st477{clip-path:url(#SVGID_1374_);}
	.st478{clip-path:url(#SVGID_1376_);}
	.st479{clip-path:url(#SVGID_1380_);}
	.st480{clip-path:url(#SVGID_1382_);}
	.st481{clip-path:url(#SVGID_1386_);}
	.st482{clip-path:url(#SVGID_1388_);}
	.st483{clip-path:url(#SVGID_1392_);}
	.st484{clip-path:url(#SVGID_1394_);}
	.st485{clip-path:url(#SVGID_1398_);}
	.st486{clip-path:url(#SVGID_1400_);}
	.st487{clip-path:url(#SVGID_1404_);}
	.st488{clip-path:url(#SVGID_1406_);}
	.st489{clip-path:url(#SVGID_1410_);}
	.st490{clip-path:url(#SVGID_1412_);}
	.st491{clip-path:url(#SVGID_1416_);}
	.st492{clip-path:url(#SVGID_1418_);}
	.st493{clip-path:url(#SVGID_1420_);}
	.st494{clip-path:url(#SVGID_1424_);}
	.st495{clip-path:url(#SVGID_1426_);}
	.st496{clip-path:url(#SVGID_1428_);}
	.st497{clip-path:url(#SVGID_1432_);}
	.st498{clip-path:url(#SVGID_1434_);}
	.st499{clip-path:url(#SVGID_1438_);}
	.st500{clip-path:url(#SVGID_1440_);}
	.st501{clip-path:url(#SVGID_1442_);}
	.st502{clip-path:url(#SVGID_1446_);}
	.st503{clip-path:url(#SVGID_1448_);}
	.st504{clip-path:url(#SVGID_1450_);}
	.st505{clip-path:url(#SVGID_1454_);}
	.st506{clip-path:url(#SVGID_1456_);}
	.st507{clip-path:url(#SVGID_1458_);}
	.st508{clip-path:url(#SVGID_1462_);}
	.st509{clip-path:url(#SVGID_1464_);}
	.st510{clip-path:url(#SVGID_1468_);}
	.st511{clip-path:url(#SVGID_1470_);}
	.st512{clip-path:url(#SVGID_1474_);}
	.st513{clip-path:url(#SVGID_1476_);}
	.st514{clip-path:url(#SVGID_1480_);}
	.st515{clip-path:url(#SVGID_1482_);}
	.st516{clip-path:url(#SVGID_1486_);}
	.st517{clip-path:url(#SVGID_1488_);}
	.st518{clip-path:url(#SVGID_1492_);fill:#FFFFFF;}
	.st519{clip-path:url(#SVGID_1494_);}
	.st520{opacity:0.66;clip-path:url(#SVGID_1498_);}
	.st521{opacity:0.66;}
	.st522{clip-path:url(#SVGID_1500_);fill:#FFFFFF;}
	.st523{clip-path:url(#SVGID_1498_);}
	.st524{clip-path:url(#SVGID_1502_);}
</style>
<g>
	<path class="st5" d="M16.4,8.4V7.1c0.7-0.7,3.3-2.9,3.3-4.3c0-0.7-0.6-1-1.3-1c-0.6,0-1.3,0.3-1.8,0.6l-0.1-1.3
		c0.7-0.4,1.5-0.5,2.3-0.5c1.5,0,2.4,0.7,2.4,2.2c0,1.6-1.6,3.1-2.9,4.4h3.1v1.2H16.4z"/>
	<path class="st5" d="M22.2,5.5l2.9-4.8H27v4.9h1v1.1h-1v1.6h-1.5V6.8h-3.3V5.5z M25.6,5.6V2.3h0l-1.9,3.3H25.6z"/>
	<path class="st5" d="M28.6,6V4.8h2.9V6H28.6z"/>
	<path class="st5" d="M32.6,0.1h1.5v3.4h0c0.4-0.5,1-0.9,1.8-0.9c1.3,0,1.9,0.9,1.9,2.2v3.6h-1.5v-3c0-0.7,0-1.6-1-1.6
		c-1.1,0-1.3,1.2-1.3,1.9v2.8h-1.5V0.1z"/>
	<path class="st5" d="M41.9,2.6c1.7,0,3,1.1,3,3c0,1.6-1.1,2.9-3,2.9c-1.9,0-3-1.3-3-2.9C39,3.7,40.3,2.6,41.9,2.6z M41.9,7.4
		c1.1,0,1.4-1,1.4-2c0-0.9-0.5-1.7-1.4-1.7c-1,0-1.4,0.8-1.4,1.7C40.5,6.3,40.8,7.4,41.9,7.4z"/>
	<path class="st5" d="M51.3,8.4h-1.4V7.6h0c-0.5,0.5-1.1,0.9-1.9,0.9c-1.3,0-1.9-0.9-1.9-2.2V2.7h1.5v3c0,0.7,0,1.6,1,1.6
		c1.1,0,1.3-1.2,1.3-1.9V2.7h1.5V8.4z"/>
	<path class="st5" d="M52.8,2.7h1.3V4h0c0.1-0.5,0.7-1.4,1.6-1.4c0.1,0,0.3,0,0.5,0v1.5C56,4,55.7,4,55.5,4c-1.2,0-1.2,1.5-1.2,2.3
		v2.1h-1.5V2.7z"/>
	<path class="st5" d="M60.2,0.7h2.7c1,0,2.5,0.3,2.5,2c0,0.9-0.6,1.6-1.5,1.7v0c1,0.1,1.8,0.8,1.8,1.8c0,1.9-1.7,2.2-2.7,2.2h-2.7
		V0.7z M61.8,3.8h0.6c0.6,0,1.5-0.1,1.5-0.9c0-0.9-0.8-1-1.5-1h-0.6V3.8z M61.8,7.2h0.7c0.7,0,1.6-0.2,1.6-1.1c0-1-0.8-1.2-1.6-1.2
		h-0.7V7.2z"/>
	<path class="st5" d="M66.8,0.7h1.7c1.7,0,3.6-0.1,3.6,2.1c0,0.9-0.6,1.7-1.6,1.8v0c0.4,0,0.7,0.5,0.8,0.8l1.2,3h-1.7L69.9,6
		c-0.2-0.6-0.4-0.8-1.1-0.8h-0.5v3.2h-1.5V0.7z M68.4,4h0.5c0.8,0,1.6-0.1,1.6-1.1c0-0.9-0.9-1-1.6-1h-0.5V4z"/>
	<path class="st5" d="M73.7,0.7h4.5v1.2h-3v1.9H78V5h-2.7v2.2h3v1.2h-4.6V0.7z"/>
	<path class="st5" d="M83.2,0.6c2.4,0,3.8,1.6,3.8,3.9s-1.3,4-3.8,4c-2.5,0-3.8-1.6-3.8-4S80.7,0.6,83.2,0.6z M83.2,7.3
		c1.6,0,2.2-1.4,2.2-2.8c0-1.4-0.6-2.7-2.2-2.7S81,3.2,81,4.5C81,5.9,81.6,7.3,83.2,7.3z"/>
	<path class="st5" d="M91.3,0.3h1.5v1.4h-1.5V0.3z M91.3,2.7h1.5v5.7h-1.5V2.7z"/>
	<path class="st5" d="M97.7,3.9c-0.5-0.2-0.8-0.2-1.3-0.2c-0.4,0-0.9,0.1-0.9,0.6c0,0.9,2.6,0.3,2.6,2.4c0,1.3-1.2,1.8-2.4,1.8
		c-0.6,0-1.1-0.1-1.7-0.2l0.1-1.2c0.5,0.2,0.9,0.4,1.5,0.4c0.4,0,1-0.1,1-0.7c0-1.1-2.6-0.4-2.6-2.4c0-1.2,1.1-1.8,2.2-1.8
		c0.7,0,1.1,0.1,1.6,0.2L97.7,3.9z"/>
	<path class="st5" d="M102.8,3.8h-1.1V2.7h1.1V1.9c0-1.1,0.6-1.9,1.8-1.9c0.4,0,0.8,0.1,1.1,0.1l-0.1,1.2c-0.1-0.1-0.3-0.2-0.6-0.2
		c-0.5,0-0.6,0.4-0.6,0.9v0.7h1.3v1.1h-1.3v4.6h-1.5V3.8z"/>
	<path class="st5" d="M109.2,2.6c1.7,0,3,1.1,3,3c0,1.6-1.1,2.9-3,2.9c-1.9,0-3-1.3-3-2.9C106.2,3.7,107.5,2.6,109.2,2.6z
		 M109.2,7.4c1.1,0,1.4-1,1.4-2c0-0.9-0.5-1.7-1.4-1.7c-1,0-1.4,0.8-1.4,1.7C107.7,6.3,108,7.4,109.2,7.4z"/>
	<path class="st5" d="M113.3,2.7h1.3V4h0c0.1-0.5,0.7-1.4,1.6-1.4c0.1,0,0.3,0,0.5,0v1.5C116.5,4,116.2,4,116,4
		c-1.2,0-1.2,1.5-1.2,2.3v2.1h-1.5V2.7z"/>
	<path class="st5" d="M120.9,3c0.6-0.3,1.3-0.4,2-0.4c1.7,0,2.4,0.7,2.4,2.4v0.7c0,0.6,0,1,0,1.4c0,0.4,0,0.8,0.1,1.3h-1.3
		C124,8.1,124,7.7,124,7.5h0c-0.3,0.6-1.1,1-1.7,1c-1,0-2-0.6-2-1.7c0-0.8,0.4-1.3,1-1.6c0.6-0.3,1.3-0.3,1.9-0.3h0.8
		c0-0.9-0.4-1.2-1.3-1.2c-0.6,0-1.3,0.2-1.7,0.6L120.9,3z M122.6,7.4c0.5,0,0.8-0.2,1-0.5c0.2-0.3,0.3-0.7,0.3-1.2h-0.6
		c-0.7,0-1.6,0.1-1.6,1C121.7,7.2,122.1,7.4,122.6,7.4z"/>
	<path class="st5" d="M130.5,7.7L130.5,7.7c-0.5,0.5-1.1,0.8-1.8,0.8c-1.7,0-2.4-1.4-2.4-3c0-1.6,0.6-2.9,2.4-2.9
		c0.7,0,1.3,0.3,1.7,0.8h0V0.1h1.5v8.3h-1.4V7.7z M129.2,7.4c1,0,1.3-1,1.3-1.8c0-0.8-0.4-1.8-1.3-1.8c-1,0-1.2,1-1.2,1.8
		C127.9,6.3,128.2,7.4,129.2,7.4z"/>
	<path class="st5" d="M138.7,8.4h-1.4V7.6h0c-0.5,0.5-1.1,0.9-1.9,0.9c-1.3,0-1.9-0.9-1.9-2.2V2.7h1.5v3c0,0.7,0,1.6,1,1.6
		c1.1,0,1.3-1.2,1.3-1.9V2.7h1.5V8.4z"/>
	<path class="st5" d="M140.2,0.1h1.5v8.3h-1.5V0.1z"/>
	<path class="st5" d="M143.7,3.8h-1.1V2.7h1.1V1.6l1.5-0.5v1.6h1.3v1.1h-1.3v2.6c0,0.5,0.1,0.9,0.7,0.9c0.3,0,0.5-0.1,0.7-0.2l0,1.2
		c-0.3,0.1-0.6,0.1-1.1,0.1c-1.2,0-1.8-0.7-1.8-1.8V3.8z"/>
	<path class="st5" d="M150.6,2.7h1.4v0.8h0c0.3-0.5,0.9-0.9,1.8-0.9c1.7,0,2.4,1.4,2.4,2.9c0,1.6-0.6,3-2.4,3
		c-0.6,0-1.1-0.2-1.7-0.8h0v3h-1.5V2.7z M152.1,5.5c0,0.8,0.3,1.8,1.3,1.8c1,0,1.2-1.1,1.2-1.8c0-0.8-0.3-1.8-1.2-1.8
		C152.4,3.7,152.1,4.7,152.1,5.5z"/>
	<path class="st5" d="M157.5,3c0.6-0.3,1.3-0.4,2-0.4c1.7,0,2.4,0.7,2.4,2.4v0.7c0,0.6,0,1,0,1.4c0,0.4,0,0.8,0.1,1.3h-1.3
		c-0.1-0.3-0.1-0.7-0.1-0.8h0c-0.3,0.6-1.1,1-1.7,1c-1,0-2-0.6-2-1.7c0-0.8,0.4-1.3,1-1.6c0.6-0.3,1.3-0.3,1.9-0.3h0.8
		c0-0.9-0.4-1.2-1.3-1.2c-0.6,0-1.3,0.2-1.7,0.6L157.5,3z M159.3,7.4c0.5,0,0.8-0.2,1-0.5c0.2-0.3,0.3-0.7,0.3-1.2H160
		c-0.7,0-1.6,0.1-1.6,1C158.3,7.2,158.7,7.4,159.3,7.4z"/>
	<path class="st5" d="M163.9,3.8h-1.1V2.7h1.1V1.6l1.5-0.5v1.6h1.3v1.1h-1.3v2.6c0,0.5,0.1,0.9,0.7,0.9c0.3,0,0.5-0.1,0.7-0.2l0,1.2
		c-0.3,0.1-0.6,0.1-1.1,0.1c-1.2,0-1.8-0.7-1.8-1.8V3.8z"/>
	<path class="st5" d="M167.7,0.3h1.5v1.4h-1.5V0.3z M167.7,2.7h1.5v5.7h-1.5V2.7z"/>
	<path class="st5" d="M175.3,8.1c-0.5,0.3-1.2,0.5-1.9,0.5c-1.9,0-3-1.1-3-2.9c0-1.6,0.9-3,2.6-3c2.1,0,2.7,1.4,2.7,3.4h-3.9
		c0.1,0.9,0.7,1.4,1.6,1.4c0.7,0,1.3-0.3,1.9-0.6V8.1z M174.3,5c0-0.7-0.4-1.3-1.2-1.3c-0.8,0-1.2,0.6-1.3,1.3H174.3z"/>
	<path class="st5" d="M176.9,2.7h1.4v0.8h0c0.5-0.6,1.1-0.9,1.9-0.9c1.3,0,1.9,0.9,1.9,2.2v3.6h-1.5v-3c0-0.7,0-1.6-1-1.6
		c-1.1,0-1.3,1.2-1.3,1.9v2.8h-1.5V2.7z"/>
	<path class="st5" d="M184.1,3.8H183V2.7h1.1V1.6l1.5-0.5v1.6h1.3v1.1h-1.3v2.6c0,0.5,0.1,0.9,0.7,0.9c0.3,0,0.5-0.1,0.7-0.2l0,1.2
		c-0.3,0.1-0.6,0.1-1.1,0.1c-1.2,0-1.8-0.7-1.8-1.8V3.8z"/>
	<path class="st5" d="M191.2,3.9c-0.5-0.2-0.8-0.2-1.3-0.2c-0.4,0-0.9,0.1-0.9,0.6c0,0.9,2.6,0.3,2.6,2.4c0,1.3-1.2,1.8-2.4,1.8
		c-0.6,0-1.1-0.1-1.7-0.2l0.1-1.2c0.5,0.2,0.9,0.4,1.5,0.4c0.4,0,1-0.1,1-0.7c0-1.1-2.6-0.4-2.6-2.4c0-1.2,1.1-1.8,2.2-1.8
		c0.7,0,1.1,0.1,1.6,0.2L191.2,3.9z"/>
	<path class="st5" d="M195.2,2.7h1.6l1.3,4.2h0l1.1-4.2h1.7l1.2,4.2h0l1.2-4.2h1.4L203,8.4h-1.7L200,4.1h0l-1.2,4.3h-1.7L195.2,2.7z
		"/>
	<path class="st5" d="M205.6,0.3h1.5v1.4h-1.5V0.3z M205.6,2.7h1.5v5.7h-1.5V2.7z"/>
	<path class="st5" d="M209.1,3.8H208V2.7h1.1V1.6l1.5-0.5v1.6h1.3v1.1h-1.3v2.6c0,0.5,0.1,0.9,0.7,0.9c0.3,0,0.5-0.1,0.7-0.2l0,1.2
		c-0.3,0.1-0.6,0.1-1.1,0.1c-1.2,0-1.8-0.7-1.8-1.8V3.8z"/>
	<path class="st5" d="M212.9,0.1h1.5v3.4h0c0.4-0.5,1-0.9,1.8-0.9c1.3,0,1.9,0.9,1.9,2.2v3.6h-1.5v-3c0-0.7,0-1.6-1-1.6
		c-1.1,0-1.3,1.2-1.3,1.9v2.8h-1.5V0.1z"/>
	<path class="st5" d="M13.5,16c0.6-0.3,1.3-0.4,2-0.4c1.7,0,2.4,0.7,2.4,2.4v0.7c0,0.6,0,1,0,1.4c0,0.4,0,0.8,0.1,1.3h-1.3
		c-0.1-0.3-0.1-0.7-0.1-0.8h0c-0.3,0.6-1.1,1-1.7,1c-1,0-2-0.6-2-1.7c0-0.8,0.4-1.3,1-1.6c0.6-0.3,1.3-0.3,1.9-0.3h0.8
		c0-0.9-0.4-1.2-1.3-1.2c-0.6,0-1.3,0.2-1.7,0.6L13.5,16z M15.2,20.4c0.5,0,0.8-0.2,1-0.5c0.2-0.3,0.3-0.7,0.3-1.2h-0.6
		c-0.7,0-1.6,0.1-1.6,1C14.3,20.2,14.7,20.4,15.2,20.4z"/>
	<path class="st5" d="M22.7,16.9c-0.5-0.2-0.8-0.2-1.3-0.2c-0.4,0-0.9,0.1-0.9,0.6c0,0.9,2.6,0.3,2.6,2.4c0,1.3-1.2,1.8-2.4,1.8
		c-0.6,0-1.1-0.1-1.7-0.2l0.1-1.2c0.5,0.2,0.9,0.4,1.5,0.4c0.4,0,1-0.1,1-0.7c0-1.1-2.6-0.4-2.6-2.4c0-1.2,1.1-1.8,2.2-1.8
		c0.7,0,1.1,0.1,1.6,0.2L22.7,16.9z"/>
	<path class="st5" d="M24.7,16.8h-1.1v-1.1h1.1v-1.1l1.5-0.5v1.6h1.3v1.1h-1.3v2.6c0,0.5,0.1,0.9,0.7,0.9c0.3,0,0.5-0.1,0.7-0.2
		l0,1.2c-0.3,0.1-0.6,0.1-1.1,0.1c-1.2,0-1.8-0.7-1.8-1.8V16.8z"/>
	<path class="st5" d="M28.5,13.1H30v3.4h0c0.4-0.5,1-0.9,1.8-0.9c1.3,0,1.9,0.9,1.9,2.2v3.6h-1.5v-3c0-0.7,0-1.6-1-1.6
		c-1.1,0-1.3,1.2-1.3,1.9v2.8h-1.5V13.1z"/>
	<path class="st5" d="M35.2,15.7h1.4v0.8h0c0.5-0.7,1.1-0.9,1.7-0.9c0.8,0,1.4,0.3,1.7,1c0.3-0.7,1.1-1,1.8-1c1.4,0,1.8,1,1.8,2.2
		v3.6h-1.5V18c0-0.5,0-1.3-0.8-1.3c-1,0-1.1,1.2-1.1,1.9v2.8h-1.5V18c0-0.5,0-1.3-0.8-1.3c-1,0-1.1,1.2-1.1,1.9v2.8h-1.5V15.7z"/>
	<path class="st5" d="M45.3,16c0.6-0.3,1.3-0.4,2-0.4c1.7,0,2.4,0.7,2.4,2.4v0.7c0,0.6,0,1,0,1.4c0,0.4,0,0.8,0.1,1.3h-1.3
		c-0.1-0.3-0.1-0.7-0.1-0.8h0c-0.3,0.6-1.1,1-1.7,1c-1,0-2-0.6-2-1.7c0-0.8,0.4-1.3,1-1.6c0.6-0.3,1.3-0.3,1.9-0.3h0.8
		c0-0.9-0.4-1.2-1.3-1.2c-0.6,0-1.3,0.2-1.7,0.6L45.3,16z M47,20.4c0.5,0,0.8-0.2,1-0.5c0.2-0.3,0.3-0.7,0.3-1.2h-0.6
		c-0.7,0-1.6,0.1-1.6,1C46.1,20.2,46.5,20.4,47,20.4z"/>
	<path class="st5" d="M59.4,21.4H58v-0.8h0c-0.5,0.5-1.1,0.9-1.9,0.9c-1.3,0-1.9-0.9-1.9-2.2v-3.6h1.5v3c0,0.7,0,1.6,1,1.6
		c1.1,0,1.3-1.2,1.3-1.9v-2.8h1.5V21.4z"/>
	<path class="st5" d="M60.9,15.7h1.4v0.8h0c0.5-0.6,1.1-0.9,1.9-0.9c1.3,0,1.9,0.9,1.9,2.2v3.6h-1.5v-3c0-0.7,0-1.6-1-1.6
		c-1.1,0-1.3,1.2-1.3,1.9v2.8h-1.5V15.7z"/>
	<path class="st5" d="M71.3,16.9c-0.3-0.1-0.5-0.2-1-0.2c-0.9,0-1.5,0.7-1.5,1.8c0,1,0.5,1.8,1.5,1.8c0.4,0,0.9-0.2,1.1-0.3l0.1,1.2
		c-0.4,0.1-0.9,0.2-1.5,0.2c-1.9,0-2.8-1.3-2.8-3c0-1.6,1-2.9,2.7-2.9c0.6,0,1,0.1,1.4,0.2L71.3,16.9z"/>
	<path class="st5" d="M75.1,15.6c1.7,0,3,1.1,3,3c0,1.6-1.1,2.9-3,2.9c-1.9,0-3-1.3-3-2.9C72.2,16.7,73.5,15.6,75.1,15.6z
		 M75.1,20.4c1.1,0,1.4-1,1.4-2c0-0.9-0.5-1.7-1.4-1.7c-1,0-1.4,0.8-1.4,1.7C73.7,19.3,74,20.4,75.1,20.4z"/>
	<path class="st5" d="M79.3,15.7h1.4v0.8h0c0.5-0.6,1.1-0.9,1.9-0.9c1.3,0,1.9,0.9,1.9,2.2v3.6H83v-3c0-0.7,0-1.6-1-1.6
		c-1.1,0-1.3,1.2-1.3,1.9v2.8h-1.5V15.7z"/>
	<path class="st5" d="M86.5,16.8h-1.1v-1.1h1.1v-1.1l1.5-0.5v1.6h1.3v1.1h-1.3v2.6c0,0.5,0.1,0.9,0.7,0.9c0.3,0,0.5-0.1,0.7-0.2
		l0,1.2c-0.3,0.1-0.6,0.1-1.1,0.1c-1.2,0-1.8-0.7-1.8-1.8V16.8z"/>
	<path class="st5" d="M90.3,15.7h1.3V17h0c0.1-0.5,0.7-1.4,1.6-1.4c0.1,0,0.3,0,0.5,0v1.5C93.5,17,93.2,17,93,17
		c-1.2,0-1.2,1.5-1.2,2.3v2.1h-1.5V15.7z"/>
	<path class="st5" d="M97.1,15.6c1.7,0,3,1.1,3,3c0,1.6-1.1,2.9-3,2.9c-1.9,0-3-1.3-3-2.9C94.2,16.7,95.5,15.6,97.1,15.6z
		 M97.1,20.4c1.1,0,1.4-1,1.4-2c0-0.9-0.5-1.7-1.4-1.7c-1,0-1.4,0.8-1.4,1.7C95.7,19.3,96,20.4,97.1,20.4z"/>
	<path class="st5" d="M101.3,13.1h1.5v8.3h-1.5V13.1z"/>
	<path class="st5" d="M104.4,13.1h1.5v8.3h-1.5V13.1z"/>
	<path class="st5" d="M111.9,21.1c-0.5,0.3-1.2,0.5-1.9,0.5c-1.9,0-3-1.1-3-2.9c0-1.6,0.9-3,2.6-3c2.1,0,2.7,1.4,2.7,3.4h-3.9
		c0.1,0.9,0.7,1.4,1.6,1.4c0.7,0,1.3-0.3,1.9-0.6V21.1z M110.9,18c0-0.7-0.4-1.3-1.2-1.3s-1.2,0.6-1.3,1.3H110.9z"/>
	<path class="st5" d="M117.3,20.7L117.3,20.7c-0.5,0.5-1.1,0.8-1.8,0.8c-1.7,0-2.4-1.4-2.4-3c0-1.6,0.6-2.9,2.4-2.9
		c0.7,0,1.3,0.3,1.7,0.8h0v-3.2h1.5v8.3h-1.4V20.7z M115.9,20.4c1,0,1.3-1,1.3-1.8c0-0.8-0.4-1.8-1.3-1.8c-1,0-1.2,1-1.2,1.8
		C114.7,19.3,114.9,20.4,115.9,20.4z"/>
	<path class="st5" d="M125.9,15.6c1.7,0,3,1.1,3,3c0,1.6-1.1,2.9-3,2.9c-1.9,0-3-1.3-3-2.9C122.9,16.7,124.2,15.6,125.9,15.6z
		 M125.9,20.4c1.1,0,1.4-1,1.4-2c0-0.9-0.5-1.7-1.4-1.7c-1,0-1.4,0.8-1.4,1.7C124.5,19.3,124.7,20.4,125.9,20.4z"/>
	<path class="st5" d="M130,15.7h1.4v0.8h0c0.5-0.6,1.1-0.9,1.9-0.9c1.3,0,1.9,0.9,1.9,2.2v3.6h-1.5v-3c0-0.7,0-1.6-1-1.6
		c-1.1,0-1.3,1.2-1.3,1.9v2.8H130V15.7z"/>
	<path class="st5" d="M140,16c0.6-0.3,1.3-0.4,2-0.4c1.7,0,2.4,0.7,2.4,2.4v0.7c0,0.6,0,1,0,1.4c0,0.4,0,0.8,0.1,1.3h-1.3
		c-0.1-0.3-0.1-0.7-0.1-0.8h0c-0.3,0.6-1.1,1-1.7,1c-1,0-2-0.6-2-1.7c0-0.8,0.4-1.3,1-1.6c0.6-0.3,1.3-0.3,1.9-0.3h0.8
		c0-0.9-0.4-1.2-1.3-1.2c-0.6,0-1.3,0.2-1.7,0.6L140,16z M141.8,20.4c0.5,0,0.8-0.2,1-0.5c0.2-0.3,0.3-0.7,0.3-1.2h-0.6
		c-0.7,0-1.6,0.1-1.6,1C140.8,20.2,141.2,20.4,141.8,20.4z"/>
	<path class="st5" d="M145.9,15.7h1.4v0.8h0c0.5-0.6,1.1-0.9,1.9-0.9c1.3,0,1.9,0.9,1.9,2.2v3.6h-1.5v-3c0-0.7,0-1.6-1-1.6
		c-1.1,0-1.3,1.2-1.3,1.9v2.8h-1.5V15.7z"/>
	<path class="st5" d="M155.7,13.7h1.5v7.7h-1.5V13.7z"/>
	<path class="st5" d="M164.4,21.3c-0.6,0.1-1.2,0.2-1.7,0.2c-2.5,0-4.2-1.2-4.2-3.8c0-2.6,1.6-4.1,4.2-4.1c0.5,0,1.2,0.1,1.7,0.3
		l-0.1,1.3c-0.6-0.3-1.1-0.4-1.7-0.4c-1.6,0-2.6,1.2-2.6,2.8c0,1.6,1,2.7,2.6,2.7c0.6,0,1.3-0.1,1.7-0.3L164.4,21.3z"/>
	<path class="st5" d="M169.7,15.1c-0.5-0.2-1-0.3-1.6-0.3c-0.5,0-1.2,0.2-1.2,1.1c0,1.3,3.4,0.8,3.4,3.3c0,1.7-1.3,2.3-2.9,2.3
		c-0.8,0-1.2-0.1-2-0.3l0.1-1.4c0.5,0.3,1.1,0.5,1.7,0.5c0.6,0,1.4-0.3,1.4-1c0-1.5-3.4-0.9-3.4-3.4c0-1.7,1.3-2.3,2.7-2.3
		c0.7,0,1.3,0.1,1.8,0.3L169.7,15.1z"/>
	<path class="st5" d="M177.2,15.6c1.7,0,3,1.1,3,3c0,1.6-1.1,2.9-3,2.9c-1.9,0-3-1.3-3-2.9C174.3,16.7,175.5,15.6,177.2,15.6z
		 M177.2,20.4c1.1,0,1.4-1,1.4-2c0-0.9-0.5-1.7-1.4-1.7c-1,0-1.4,0.8-1.4,1.7C175.8,19.3,176.1,20.4,177.2,20.4z"/>
	<path class="st5" d="M181.4,15.7h1.3V17h0c0.1-0.5,0.7-1.4,1.6-1.4c0.1,0,0.3,0,0.5,0v1.5c-0.1-0.1-0.4-0.1-0.7-0.1
		c-1.2,0-1.2,1.5-1.2,2.3v2.1h-1.5V15.7z"/>
	<path class="st5" d="M188,15.7h1.6l1.3,4.2h0l1.1-4.2h1.7l1.2,4.2h0l1.2-4.2h1.4l-1.7,5.7h-1.7l-1.2-4.3h0l-1.2,4.3H190L188,15.7z"
		/>
	<path class="st5" d="M198.5,13.1h1.5v3.4h0c0.4-0.5,1-0.9,1.8-0.9c1.3,0,1.9,0.9,1.9,2.2v3.6h-1.5v-3c0-0.7,0-1.6-1-1.6
		c-1.1,0-1.3,1.2-1.3,1.9v2.8h-1.5V13.1z"/>
	<path class="st5" d="M207.8,15.6c1.7,0,3,1.1,3,3c0,1.6-1.1,2.9-3,2.9c-1.9,0-3-1.3-3-2.9C204.8,16.7,206.1,15.6,207.8,15.6z
		 M207.8,20.4c1.1,0,1.4-1,1.4-2c0-0.9-0.5-1.7-1.4-1.7c-1,0-1.4,0.8-1.4,1.7C206.4,19.3,206.7,20.4,207.8,20.4z"/>
	<path class="st5" d="M215.3,16.9c-0.5-0.2-0.8-0.2-1.3-0.2c-0.4,0-0.9,0.1-0.9,0.6c0,0.9,2.6,0.3,2.6,2.4c0,1.3-1.2,1.8-2.4,1.8
		c-0.6,0-1.1-0.1-1.7-0.2l0.1-1.2c0.5,0.2,0.9,0.4,1.5,0.4c0.4,0,1-0.1,1-0.7c0-1.1-2.6-0.4-2.6-2.4c0-1.2,1.1-1.8,2.2-1.8
		c0.7,0,1.1,0.1,1.6,0.2L215.3,16.9z"/>
	<path class="st5" d="M221.3,21.1c-0.5,0.3-1.2,0.5-1.9,0.5c-1.9,0-3-1.1-3-2.9c0-1.6,0.9-3,2.6-3c2.1,0,2.7,1.4,2.7,3.4h-3.9
		c0.1,0.9,0.7,1.4,1.6,1.4c0.7,0,1.3-0.3,1.9-0.6V21.1z M220.3,18c0-0.7-0.4-1.3-1.2-1.3s-1.2,0.6-1.3,1.3H220.3z"/>
	<path class="st5" d="M4.1,33.7L4.1,33.7c-0.5,0.5-1.1,0.8-1.8,0.8c-1.7,0-2.4-1.4-2.4-3c0-1.6,0.6-2.9,2.4-2.9
		c0.7,0,1.3,0.3,1.7,0.8h0v-3.2h1.5v8.3H4.1V33.7z M2.8,33.4c1,0,1.3-1,1.3-1.8c0-0.8-0.4-1.8-1.3-1.8c-1,0-1.2,1-1.2,1.8
		C1.5,32.3,1.8,33.4,2.8,33.4z"/>
	<path class="st5" d="M7.1,26.3h1.5v1.4H7.1V26.3z M7.1,28.7h1.5v5.7H7.1V28.7z"/>
	<path class="st5" d="M13.5,29.9c-0.5-0.2-0.8-0.2-1.3-0.2c-0.4,0-0.9,0.1-0.9,0.6c0,0.9,2.6,0.3,2.6,2.4c0,1.3-1.2,1.8-2.4,1.8
		c-0.6,0-1.1-0.1-1.7-0.2l0.1-1.2c0.5,0.2,0.9,0.4,1.5,0.4c0.4,0,1-0.1,1-0.7c0-1.1-2.6-0.4-2.6-2.4c0-1.2,1.1-1.8,2.2-1.8
		c0.7,0,1.1,0.1,1.6,0.2L13.5,29.9z"/>
	<path class="st5" d="M19.6,34.1c-0.5,0.3-1.2,0.5-1.9,0.5c-1.9,0-3-1.1-3-2.9c0-1.6,0.9-3,2.6-3c2.1,0,2.7,1.4,2.7,3.4h-3.9
		c0.1,0.9,0.7,1.4,1.6,1.4c0.7,0,1.3-0.3,1.9-0.6V34.1z M18.6,31c0-0.7-0.4-1.3-1.2-1.3s-1.2,0.6-1.3,1.3H18.6z"/>
	<path class="st5" d="M21.4,29c0.6-0.3,1.3-0.4,2-0.4c1.7,0,2.4,0.7,2.4,2.4v0.7c0,0.6,0,1,0,1.4c0,0.4,0,0.8,0.1,1.3h-1.3
		c-0.1-0.3-0.1-0.7-0.1-0.8h0c-0.3,0.6-1.1,1-1.7,1c-1,0-2-0.6-2-1.7c0-0.8,0.4-1.3,1-1.6c0.6-0.3,1.3-0.3,1.9-0.3h0.8
		c0-0.9-0.4-1.2-1.3-1.2c-0.6,0-1.3,0.2-1.7,0.6L21.4,29z M23.1,33.4c0.5,0,0.8-0.2,1-0.5c0.2-0.3,0.3-0.7,0.3-1.2h-0.6
		c-0.7,0-1.6,0.1-1.6,1C22.2,33.2,22.6,33.4,23.1,33.4z"/>
	<path class="st5" d="M30.6,29.9c-0.5-0.2-0.8-0.2-1.3-0.2c-0.4,0-0.9,0.1-0.9,0.6c0,0.9,2.6,0.3,2.6,2.4c0,1.3-1.2,1.8-2.4,1.8
		c-0.6,0-1.1-0.1-1.7-0.2l0.1-1.2c0.5,0.2,0.9,0.4,1.5,0.4c0.4,0,1-0.1,1-0.7c0-1.1-2.6-0.4-2.6-2.4c0-1.2,1.1-1.8,2.2-1.8
		c0.7,0,1.1,0.1,1.6,0.2L30.6,29.9z"/>
	<path class="st5" d="M36.7,34.1c-0.5,0.3-1.2,0.5-1.9,0.5c-1.9,0-3-1.1-3-2.9c0-1.6,0.9-3,2.6-3c2.1,0,2.7,1.4,2.7,3.4h-3.9
		c0.1,0.9,0.7,1.4,1.6,1.4c0.7,0,1.3-0.3,1.9-0.6V34.1z M35.7,31c0-0.7-0.4-1.3-1.2-1.3s-1.2,0.6-1.3,1.3H35.7z"/>
	<path class="st5" d="M44.7,29.9c-0.5-0.2-0.8-0.2-1.3-0.2c-0.4,0-0.9,0.1-0.9,0.6c0,0.9,2.6,0.3,2.6,2.4c0,1.3-1.2,1.8-2.4,1.8
		c-0.6,0-1.1-0.1-1.7-0.2l0.1-1.2c0.5,0.2,0.9,0.4,1.5,0.4c0.4,0,1-0.1,1-0.7c0-1.1-2.6-0.4-2.6-2.4c0-1.2,1.1-1.8,2.2-1.8
		c0.7,0,1.1,0.1,1.6,0.2L44.7,29.9z"/>
	<path class="st5" d="M50.7,34.1c-0.5,0.3-1.2,0.5-1.9,0.5c-1.9,0-3-1.1-3-2.9c0-1.6,0.9-3,2.6-3c2.1,0,2.7,1.4,2.7,3.4h-3.9
		c0.1,0.9,0.7,1.4,1.6,1.4c0.7,0,1.3-0.3,1.9-0.6V34.1z M49.8,31c0-0.7-0.4-1.3-1.2-1.3c-0.8,0-1.2,0.6-1.3,1.3H49.8z"/>
	<path class="st5" d="M51.7,28.7h1.6l1.4,4.1h0l1.4-4.1h1.5l-2.1,5.7h-1.7L51.7,28.7z"/>
	<path class="st5" d="M63,34.1c-0.5,0.3-1.2,0.5-1.9,0.5c-1.9,0-3-1.1-3-2.9c0-1.6,0.9-3,2.6-3c2.1,0,2.7,1.4,2.7,3.4h-3.9
		c0.1,0.9,0.7,1.4,1.6,1.4c0.7,0,1.3-0.3,1.9-0.6V34.1z M62,31c0-0.7-0.4-1.3-1.2-1.3c-0.8,0-1.2,0.6-1.3,1.3H62z"/>
	<path class="st5" d="M64.6,28.7h1.3V30h0c0.1-0.5,0.7-1.4,1.6-1.4c0.1,0,0.3,0,0.5,0v1.5C67.8,30,67.5,30,67.3,30
		c-1.2,0-1.2,1.5-1.2,2.3v2.1h-1.5V28.7z"/>
	<path class="st5" d="M68.9,26.3h1.5v1.4h-1.5V26.3z M68.9,28.7h1.5v5.7h-1.5V28.7z"/>
	<path class="st5" d="M72.4,29.8h-1.1v-1.1h1.1v-1.1l1.5-0.5v1.6h1.3v1.1h-1.3v2.6c0,0.5,0.1,0.9,0.7,0.9c0.3,0,0.5-0.1,0.7-0.2
		l0,1.2c-0.3,0.1-0.6,0.1-1.1,0.1c-1.2,0-1.8-0.7-1.8-1.8V29.8z"/>
	<path class="st5" d="M78.5,32.9L78.5,32.9l1.4-4.1h1.5l-2.1,5.6c-0.5,1.3-0.8,2.5-2.4,2.5c-0.4,0-0.7-0.1-1-0.2l0.1-1.1
		c0.2,0.1,0.4,0.1,0.8,0.1c0.6,0,1-0.4,1-1l-2.2-6h1.6L78.5,32.9z"/>
	<path class="st5" d="M89,29.9c-0.3-0.1-0.5-0.2-1-0.2c-0.9,0-1.5,0.7-1.5,1.8c0,1,0.5,1.8,1.5,1.8c0.4,0,0.9-0.2,1.1-0.3l0.1,1.2
		c-0.4,0.1-0.9,0.2-1.5,0.2c-1.9,0-2.8-1.3-2.8-3c0-1.6,1-2.9,2.7-2.9c0.6,0,1,0.1,1.4,0.2L89,29.9z"/>
	<path class="st5" d="M90.3,26.1h1.5v8.3h-1.5V26.1z"/>
	<path class="st5" d="M97.8,34.1c-0.5,0.3-1.2,0.5-1.9,0.5c-1.9,0-3-1.1-3-2.9c0-1.6,0.9-3,2.6-3c2.1,0,2.7,1.4,2.7,3.4h-3.9
		c0.1,0.9,0.7,1.4,1.6,1.4c0.7,0,1.3-0.3,1.9-0.6V34.1z M96.8,31c0-0.7-0.4-1.3-1.2-1.3s-1.2,0.6-1.3,1.3H96.8z"/>
	<path class="st5" d="M99.6,29c0.6-0.3,1.3-0.4,2-0.4c1.7,0,2.4,0.7,2.4,2.4v0.7c0,0.6,0,1,0,1.4c0,0.4,0,0.8,0.1,1.3h-1.3
		c-0.1-0.3-0.1-0.7-0.1-0.8h0c-0.3,0.6-1.1,1-1.7,1c-1,0-2-0.6-2-1.7c0-0.8,0.4-1.3,1-1.6c0.6-0.3,1.3-0.3,1.9-0.3h0.8
		c0-0.9-0.4-1.2-1.3-1.2c-0.6,0-1.3,0.2-1.7,0.6L99.6,29z M101.4,33.4c0.5,0,0.8-0.2,1-0.5c0.2-0.3,0.3-0.7,0.3-1.2h-0.6
		c-0.7,0-1.6,0.1-1.6,1C100.4,33.2,100.8,33.4,101.4,33.4z"/>
	<path class="st5" d="M105.5,28.7h1.3V30h0c0.1-0.5,0.7-1.4,1.6-1.4c0.1,0,0.3,0,0.5,0v1.5c-0.1-0.1-0.4-0.1-0.7-0.1
		c-1.2,0-1.2,1.5-1.2,2.3v2.1h-1.5V28.7z"/>
	<path class="st5" d="M109.8,26.1h1.5v8.3h-1.5V26.1z"/>
	<path class="st5" d="M115.2,32.9L115.2,32.9l1.4-4.1h1.5l-2.1,5.6c-0.5,1.3-0.8,2.5-2.4,2.5c-0.4,0-0.7-0.1-1-0.2l0.1-1.1
		c0.2,0.1,0.4,0.1,0.8,0.1c0.6,0,1-0.4,1-1l-2.2-6h1.6L115.2,32.9z"/>
	<path class="st5" d="M121.4,28.7h1.6l1.3,4.2h0l1.1-4.2h1.7l1.2,4.2h0l1.2-4.2h1.4l-1.7,5.7h-1.7l-1.2-4.3h0l-1.2,4.3h-1.7
		L121.4,28.7z"/>
	<path class="st5" d="M132.1,29c0.6-0.3,1.3-0.4,2-0.4c1.7,0,2.4,0.7,2.4,2.4v0.7c0,0.6,0,1,0,1.4c0,0.4,0,0.8,0.1,1.3h-1.3
		c-0.1-0.3-0.1-0.7-0.1-0.8h0c-0.3,0.6-1.1,1-1.7,1c-1,0-2-0.6-2-1.7c0-0.8,0.4-1.3,1-1.6c0.6-0.3,1.3-0.3,1.9-0.3h0.8
		c0-0.9-0.4-1.2-1.3-1.2c-0.6,0-1.3,0.2-1.7,0.6L132.1,29z M133.8,33.4c0.5,0,0.8-0.2,1-0.5c0.2-0.3,0.3-0.7,0.3-1.2h-0.6
		c-0.7,0-1.6,0.1-1.6,1C132.8,33.2,133.3,33.4,133.8,33.4z"/>
	<path class="st5" d="M138,28.7h1.3V30h0c0.1-0.5,0.7-1.4,1.6-1.4c0.1,0,0.3,0,0.5,0v1.5c-0.1-0.1-0.4-0.1-0.7-0.1
		c-1.2,0-1.2,1.5-1.2,2.3v2.1H138V28.7z"/>
	<path class="st5" d="M142.2,28.7h1.3V30h0c0.1-0.5,0.7-1.4,1.6-1.4c0.1,0,0.3,0,0.5,0v1.5c-0.1-0.1-0.4-0.1-0.7-0.1
		c-1.2,0-1.2,1.5-1.2,2.3v2.1h-1.5V28.7z"/>
	<path class="st5" d="M146.7,29c0.6-0.3,1.3-0.4,2-0.4c1.7,0,2.4,0.7,2.4,2.4v0.7c0,0.6,0,1,0,1.4c0,0.4,0,0.8,0.1,1.3h-1.3
		c-0.1-0.3-0.1-0.7-0.1-0.8h0c-0.3,0.6-1.1,1-1.7,1c-1,0-2-0.6-2-1.7c0-0.8,0.4-1.3,1-1.6c0.6-0.3,1.3-0.3,1.9-0.3h0.8
		c0-0.9-0.4-1.2-1.3-1.2c-0.6,0-1.3,0.2-1.7,0.6L146.7,29z M148.5,33.4c0.5,0,0.8-0.2,1-0.5c0.2-0.3,0.3-0.7,0.3-1.2h-0.6
		c-0.7,0-1.6,0.1-1.6,1C147.5,33.2,147.9,33.4,148.5,33.4z"/>
	<path class="st5" d="M152.6,28.7h1.4v0.8h0c0.5-0.6,1.1-0.9,1.9-0.9c1.3,0,1.9,0.9,1.9,2.2v3.6h-1.5v-3c0-0.7,0-1.6-1-1.6
		c-1.1,0-1.3,1.2-1.3,1.9v2.8h-1.5V28.7z"/>
	<path class="st5" d="M159.8,29.8h-1.1v-1.1h1.1v-1.1l1.5-0.5v1.6h1.3v1.1h-1.3v2.6c0,0.5,0.1,0.9,0.7,0.9c0.3,0,0.5-0.1,0.7-0.2
		l0,1.2c-0.3,0.1-0.6,0.1-1.1,0.1c-1.2,0-1.8-0.7-1.8-1.8V29.8z"/>
	<path class="st5" d="M167,29.9c-0.5-0.2-0.8-0.2-1.3-0.2c-0.4,0-0.9,0.1-0.9,0.6c0,0.9,2.6,0.3,2.6,2.4c0,1.3-1.2,1.8-2.4,1.8
		c-0.6,0-1.1-0.1-1.7-0.2l0.1-1.2c0.5,0.2,0.9,0.4,1.5,0.4c0.4,0,1-0.1,1-0.7c0-1.1-2.6-0.4-2.6-2.4c0-1.2,1.1-1.8,2.2-1.8
		c0.7,0,1.1,0.1,1.6,0.2L167,29.9z"/>
	<path class="st5" d="M171.8,29c0.6-0.3,1.3-0.4,2-0.4c1.7,0,2.4,0.7,2.4,2.4v0.7c0,0.6,0,1,0,1.4c0,0.4,0,0.8,0.1,1.3H175
		c-0.1-0.3-0.1-0.7-0.1-0.8h0c-0.3,0.6-1.1,1-1.7,1c-1,0-2-0.6-2-1.7c0-0.8,0.4-1.3,1-1.6c0.6-0.3,1.3-0.3,1.9-0.3h0.8
		c0-0.9-0.4-1.2-1.3-1.2c-0.6,0-1.3,0.2-1.7,0.6L171.8,29z M173.5,33.4c0.5,0,0.8-0.2,1-0.5c0.2-0.3,0.3-0.7,0.3-1.2h-0.6
		c-0.7,0-1.6,0.1-1.6,1C172.6,33.2,173,33.4,173.5,33.4z"/>
	<path class="st5" d="M177.7,28.7h1.4v0.8h0c0.5-0.6,1.1-0.9,1.9-0.9c1.3,0,1.9,0.9,1.9,2.2v3.6h-1.5v-3c0-0.7,0-1.6-1-1.6
		c-1.1,0-1.3,1.2-1.3,1.9v2.8h-1.5V28.7z"/>
	<path class="st5" d="M187.4,26.7h1.5v7.7h-1.5V26.7z"/>
	<path class="st5" d="M196.2,34.3c-0.6,0.1-1.2,0.2-1.7,0.2c-2.5,0-4.2-1.2-4.2-3.8c0-2.6,1.6-4.1,4.2-4.1c0.5,0,1.2,0.1,1.7,0.3
		l-0.1,1.3c-0.6-0.3-1.1-0.4-1.7-0.4c-1.6,0-2.6,1.2-2.6,2.8c0,1.6,1,2.7,2.6,2.7c0.6,0,1.3-0.1,1.7-0.3L196.2,34.3z"/>
	<path class="st5" d="M201.5,28.1c-0.5-0.2-1-0.3-1.6-0.3c-0.5,0-1.2,0.2-1.2,1.1c0,1.3,3.4,0.8,3.4,3.3c0,1.7-1.3,2.3-2.9,2.3
		c-0.8,0-1.2-0.1-2-0.3l0.1-1.4c0.5,0.3,1.1,0.5,1.7,0.5c0.6,0,1.4-0.3,1.4-1c0-1.5-3.4-0.9-3.4-3.4c0-1.7,1.3-2.3,2.7-2.3
		c0.7,0,1.3,0.1,1.8,0.3L201.5,28.1z"/>
	<path class="st5" d="M205.5,26.6h1.1l-2.7,7.9h-1.1L205.5,26.6z"/>
	<path class="st5" d="M207.7,26.7h1.5v6.5h3v1.2h-4.5V26.7z"/>
	<path class="st5" d="M215.4,26.7h1.7l3,7.7h-1.7l-0.7-1.8h-3.1l-0.7,1.8h-1.6L215.4,26.7z M216.3,28.2L216.3,28.2l-1.1,3.2h2.2
		L216.3,28.2z"/>
	<path class="st5" d="M221.2,26.7h2.7c1,0,2.5,0.3,2.5,2c0,0.9-0.6,1.6-1.5,1.7v0c1,0.1,1.8,0.8,1.8,1.8c0,1.9-1.7,2.2-2.7,2.2h-2.7
		V26.7z M222.7,29.8h0.6c0.6,0,1.5-0.1,1.5-0.9c0-0.9-0.8-1-1.5-1h-0.6V29.8z M222.7,33.2h0.7c0.7,0,1.6-0.2,1.6-1.1
		c0-1-0.8-1.2-1.6-1.2h-0.7V33.2z"/>
	<path class="st5" d="M230.1,26.7h1.7l3,7.7h-1.7l-0.7-1.8h-3.1l-0.7,1.8h-1.6L230.1,26.7z M230.9,28.2L230.9,28.2l-1.1,3.2h2.2
		L230.9,28.2z"/>
	<path class="st5" d="M41.2,48.7h2.7c1,0,2.5,0.3,2.5,2c0,0.9-0.6,1.6-1.5,1.7v0c1,0.1,1.8,0.8,1.8,1.8c0,1.9-1.7,2.2-2.7,2.2h-2.7
		V48.7z M42.8,51.8h0.6c0.6,0,1.5-0.1,1.5-0.9c0-0.9-0.8-1-1.5-1h-0.6V51.8z M42.8,55.2h0.7c0.7,0,1.6-0.2,1.6-1.1
		c0-1-0.8-1.2-1.6-1.2h-0.7V55.2z"/>
	<path class="st5" d="M47.8,48.7h1.7c1.7,0,3.6-0.1,3.6,2.1c0,0.9-0.6,1.7-1.6,1.8v0c0.4,0,0.7,0.5,0.8,0.8l1.2,3h-1.7L50.9,54
		c-0.2-0.6-0.4-0.8-1.1-0.8h-0.5v3.2h-1.5V48.7z M49.4,52h0.5c0.8,0,1.6-0.1,1.6-1.1c0-0.9-0.9-1-1.6-1h-0.5V52z"/>
	<path class="st5" d="M54.7,48.7h4.5v1.2h-3v1.9h2.7V53h-2.7v2.2h3v1.2h-4.6V48.7z"/>
	<path class="st5" d="M64.2,48.6c2.4,0,3.8,1.6,3.8,3.9s-1.3,4-3.8,4c-2.5,0-3.8-1.6-3.8-4S61.7,48.6,64.2,48.6z M64.2,55.3
		c1.6,0,2.2-1.4,2.2-2.8c0-1.4-0.6-2.7-2.2-2.7S62,51.2,62,52.5C62,53.9,62.6,55.3,64.2,55.3z"/>
	<path class="st5" d="M72.3,48.3h1.5v1.4h-1.5V48.3z M72.3,50.7h1.5v5.7h-1.5V50.7z"/>
	<path class="st5" d="M78.7,51.9c-0.5-0.2-0.8-0.2-1.3-0.2c-0.4,0-0.9,0.1-0.9,0.6c0,0.9,2.6,0.3,2.6,2.4c0,1.3-1.2,1.8-2.4,1.8
		c-0.6,0-1.1-0.1-1.7-0.2l0.1-1.2c0.5,0.2,0.9,0.4,1.5,0.4c0.4,0,1-0.1,1-0.7c0-1.1-2.6-0.4-2.6-2.4c0-1.2,1.1-1.8,2.2-1.8
		c0.7,0,1.1,0.1,1.6,0.2L78.7,51.9z"/>
	<path class="st5" d="M83.3,48.7h1.9l2.9,5.7h0v-5.7h1.5v7.7h-1.9l-2.9-5.7h0v5.7h-1.5V48.7z"/>
	<path class="st5" d="M94.7,48.6c2.4,0,3.8,1.6,3.8,3.9s-1.3,4-3.8,4c-2.5,0-3.8-1.6-3.8-4S92.3,48.6,94.7,48.6z M94.7,55.3
		c1.6,0,2.2-1.4,2.2-2.8c0-1.4-0.6-2.7-2.2-2.7s-2.2,1.4-2.2,2.7C92.6,53.9,93.2,55.3,94.7,55.3z"/>
	<path class="st5" d="M101.3,49.9h-2.2v-1.2h5.9v1.2h-2.2v6.5h-1.5V49.9z"/>
	<path class="st5" d="M109,48.3h1.5v1.4H109V48.3z M109,50.7h1.5v5.7H109V50.7z"/>
	<path class="st5" d="M112,50.7h1.4v0.8h0c0.5-0.6,1.1-0.9,1.9-0.9c1.3,0,1.9,0.9,1.9,2.2v3.6h-1.5v-3c0-0.7,0-1.6-1-1.6
		c-1.1,0-1.3,1.2-1.3,1.9v2.8H112V50.7z"/>
	<path class="st5" d="M122.5,55.7L122.5,55.7c-0.5,0.5-1.1,0.8-1.8,0.8c-1.7,0-2.4-1.4-2.4-3c0-1.6,0.6-2.9,2.4-2.9
		c0.7,0,1.3,0.3,1.7,0.8h0v-3.2h1.5v8.3h-1.4V55.7z M121.1,55.4c1,0,1.3-1,1.3-1.8c0-0.8-0.4-1.8-1.3-1.8c-1,0-1.2,1-1.2,1.8
		C119.9,54.3,120.2,55.4,121.1,55.4z"/>
	<path class="st5" d="M125.5,48.3h1.5v1.4h-1.5V48.3z M125.5,50.7h1.5v5.7h-1.5V50.7z"/>
	<path class="st5" d="M132.2,51.9c-0.3-0.1-0.5-0.2-1-0.2c-0.9,0-1.5,0.7-1.5,1.8c0,1,0.5,1.8,1.5,1.8c0.4,0,0.9-0.2,1.1-0.3
		l0.1,1.2c-0.4,0.1-0.9,0.2-1.5,0.2c-1.9,0-2.8-1.3-2.8-3c0-1.6,1-2.9,2.7-2.9c0.6,0,1,0.1,1.4,0.2L132.2,51.9z"/>
	<path class="st5" d="M133.6,51c0.6-0.3,1.3-0.4,2-0.4c1.7,0,2.4,0.7,2.4,2.4v0.7c0,0.6,0,1,0,1.4c0,0.4,0,0.8,0.1,1.3h-1.3
		c-0.1-0.3-0.1-0.7-0.1-0.8h0c-0.3,0.6-1.1,1-1.7,1c-1,0-2-0.6-2-1.7c0-0.8,0.4-1.3,1-1.6c0.6-0.3,1.3-0.3,1.9-0.3h0.8
		c0-0.9-0.4-1.2-1.3-1.2c-0.6,0-1.3,0.2-1.7,0.6L133.6,51z M135.4,55.4c0.5,0,0.8-0.2,1-0.5c0.2-0.3,0.3-0.7,0.3-1.2h-0.6
		c-0.7,0-1.6,0.1-1.6,1C134.4,55.2,134.8,55.4,135.4,55.4z"/>
	<path class="st5" d="M140,51.8h-1.1v-1.1h1.1v-1.1l1.5-0.5v1.6h1.3v1.1h-1.3v2.6c0,0.5,0.1,0.9,0.7,0.9c0.3,0,0.5-0.1,0.7-0.2
		l0,1.2c-0.3,0.1-0.6,0.1-1.1,0.1c-1.2,0-1.8-0.7-1.8-1.8V51.8z"/>
	<path class="st5" d="M148.3,56.1c-0.5,0.3-1.2,0.5-1.9,0.5c-1.9,0-3-1.1-3-2.9c0-1.6,0.9-3,2.6-3c2.1,0,2.7,1.4,2.7,3.4h-3.9
		c0.1,0.9,0.7,1.4,1.6,1.4c0.7,0,1.3-0.3,1.9-0.6V56.1z M147.3,53c0-0.7-0.4-1.3-1.2-1.3c-0.8,0-1.2,0.6-1.3,1.3H147.3z"/>
	<path class="st5" d="M153.7,55.7L153.7,55.7c-0.5,0.5-1.1,0.8-1.8,0.8c-1.7,0-2.4-1.4-2.4-3c0-1.6,0.6-2.9,2.4-2.9
		c0.7,0,1.3,0.3,1.7,0.8h0v-3.2h1.5v8.3h-1.4V55.7z M152.3,55.4c1,0,1.3-1,1.3-1.8c0-0.8-0.4-1.8-1.3-1.8c-1,0-1.2,1-1.2,1.8
		C151.1,54.3,151.3,55.4,152.3,55.4z"/>
	<path class="st5" d="M160.2,51.8h-1.1v-1.1h1.1v-0.8c0-1.1,0.6-1.9,1.8-1.9c0.4,0,0.8,0.1,1.1,0.1l-0.1,1.2
		c-0.1-0.1-0.3-0.2-0.6-0.2c-0.5,0-0.6,0.4-0.6,0.9v0.7h1.3v1.1h-1.3v4.6h-1.5V51.8z"/>
	<path class="st5" d="M166.5,50.6c1.7,0,3,1.1,3,3c0,1.6-1.1,2.9-3,2.9c-1.9,0-3-1.3-3-2.9C163.6,51.7,164.9,50.6,166.5,50.6z
		 M166.5,55.4c1.1,0,1.4-1,1.4-2c0-0.9-0.5-1.7-1.4-1.7c-1,0-1.4,0.8-1.4,1.7C165.1,54.3,165.4,55.4,166.5,55.4z"/>
	<path class="st5" d="M170.7,50.7h1.3V52h0c0.1-0.5,0.7-1.4,1.6-1.4c0.1,0,0.3,0,0.5,0v1.5c-0.1-0.1-0.4-0.1-0.7-0.1
		c-1.2,0-1.2,1.5-1.2,2.3v2.1h-1.5V50.7z"/>
	<path class="st5" d="M178.5,51.8h-1.1v-1.1h1.1v-1.1l1.5-0.5v1.6h1.3v1.1H180v2.6c0,0.5,0.1,0.9,0.7,0.9c0.3,0,0.5-0.1,0.7-0.2
		l0,1.2c-0.3,0.1-0.6,0.1-1.1,0.1c-1.2,0-1.8-0.7-1.8-1.8V51.8z"/>
	<path class="st5" d="M182.3,48.1h1.5v3.4h0c0.4-0.5,1-0.9,1.8-0.9c1.3,0,1.9,0.9,1.9,2.2v3.6H186v-3c0-0.7,0-1.6-1-1.6
		c-1.1,0-1.3,1.2-1.3,1.9v2.8h-1.5V48.1z"/>
	<path class="st5" d="M193.6,56.1c-0.5,0.3-1.2,0.5-1.9,0.5c-1.9,0-3-1.1-3-2.9c0-1.6,0.9-3,2.6-3c2.1,0,2.7,1.4,2.7,3.4h-3.9
		c0.1,0.9,0.7,1.4,1.6,1.4c0.7,0,1.3-0.3,1.9-0.6V56.1z M192.6,53c0-0.7-0.4-1.3-1.2-1.3s-1.2,0.6-1.3,1.3H192.6z"/>
	<path class="st5" d="M43,63.7h1.3V65h0c0.1-0.5,0.7-1.4,1.6-1.4c0.1,0,0.3,0,0.5,0v1.5C46.2,65,45.9,65,45.6,65
		c-1.2,0-1.2,1.5-1.2,2.3v2.1H43V63.7z"/>
	<path class="st5" d="M51.8,69.1c-0.5,0.3-1.2,0.5-1.9,0.5c-1.9,0-3-1.1-3-2.9c0-1.6,0.9-3,2.6-3c2.1,0,2.7,1.4,2.7,3.4h-3.9
		c0.1,0.9,0.7,1.4,1.6,1.4c0.7,0,1.3-0.3,1.9-0.6V69.1z M50.8,66c0-0.7-0.4-1.3-1.2-1.3s-1.2,0.6-1.3,1.3H50.8z"/>
	<path class="st5" d="M53.4,61.1h1.5v8.3h-1.5V61.1z"/>
	<path class="st5" d="M56.4,61.3h1.5v1.4h-1.5V61.3z M56.4,63.7h1.5v5.7h-1.5V63.7z"/>
	<path class="st5" d="M64,69.1c-0.5,0.3-1.2,0.5-1.9,0.5c-1.9,0-3-1.1-3-2.9c0-1.6,0.9-3,2.6-3c2.1,0,2.7,1.4,2.7,3.4h-3.9
		c0.1,0.9,0.7,1.4,1.6,1.4c0.7,0,1.3-0.3,1.9-0.6V69.1z M63,66c0-0.7-0.4-1.3-1.2-1.3s-1.2,0.6-1.3,1.3H63z"/>
	<path class="st5" d="M66.1,64.8H65v-1.1h1.1v-0.8c0-1.1,0.6-1.9,1.8-1.9c0.4,0,0.8,0.1,1.1,0.1l-0.1,1.2c-0.1-0.1-0.3-0.2-0.6-0.2
		c-0.5,0-0.6,0.4-0.6,0.9v0.7h1.3v1.1h-1.3v4.6h-1.5V64.8z"/>
	<path class="st5" d="M75.5,63.6c1.7,0,3,1.1,3,3c0,1.6-1.1,2.9-3,2.9c-1.9,0-3-1.3-3-2.9C72.5,64.7,73.8,63.6,75.5,63.6z
		 M75.5,68.4c1.1,0,1.4-1,1.4-2c0-0.9-0.5-1.7-1.4-1.7c-1,0-1.4,0.8-1.4,1.7C74.1,67.3,74.4,68.4,75.5,68.4z"/>
	<path class="st5" d="M80.2,64.8h-1.1v-1.1h1.1v-0.8c0-1.1,0.6-1.9,1.8-1.9c0.4,0,0.8,0.1,1.1,0.1l-0.1,1.2
		c-0.1-0.1-0.3-0.2-0.6-0.2c-0.5,0-0.6,0.4-0.6,0.9v0.7h1.3v1.1h-1.3v4.6h-1.5V64.8z"/>
	<path class="st5" d="M87.2,64c0.6-0.3,1.3-0.4,2-0.4c1.7,0,2.4,0.7,2.4,2.4v0.7c0,0.6,0,1,0,1.4c0,0.4,0,0.8,0.1,1.3h-1.3
		c-0.1-0.3-0.1-0.7-0.1-0.8h0c-0.3,0.6-1.1,1-1.7,1c-1,0-2-0.6-2-1.7c0-0.8,0.4-1.3,1-1.6c0.6-0.3,1.3-0.3,1.9-0.3h0.8
		c0-0.9-0.4-1.2-1.3-1.2c-0.6,0-1.3,0.2-1.7,0.6L87.2,64z M88.9,68.4c0.5,0,0.8-0.2,1-0.5c0.2-0.3,0.3-0.7,0.3-1.2h-0.6
		c-0.7,0-1.6,0.1-1.6,1C88,68.2,88.4,68.4,88.9,68.4z"/>
	<path class="st5" d="M96.8,64.9c-0.3-0.1-0.5-0.2-1-0.2c-0.9,0-1.5,0.7-1.5,1.8c0,1,0.5,1.8,1.5,1.8c0.4,0,0.9-0.2,1.1-0.3l0.1,1.2
		c-0.4,0.1-0.9,0.2-1.5,0.2c-1.9,0-2.8-1.3-2.8-3c0-1.6,1-2.9,2.7-2.9c0.6,0,1,0.1,1.4,0.2L96.8,64.9z"/>
	<path class="st5" d="M103.2,69.4h-1.4v-0.8h0c-0.5,0.5-1.1,0.9-1.9,0.9c-1.3,0-1.9-0.9-1.9-2.2v-3.6h1.5v3c0,0.7,0,1.6,1,1.6
		c1.1,0,1.3-1.2,1.3-1.9v-2.8h1.5V69.4z"/>
	<path class="st5" d="M105.2,64.8h-1.1v-1.1h1.1v-1.1l1.5-0.5v1.6h1.3v1.1h-1.3v2.6c0,0.5,0.1,0.9,0.7,0.9c0.3,0,0.5-0.1,0.7-0.2
		l0,1.2c-0.3,0.1-0.6,0.1-1.1,0.1c-1.2,0-1.8-0.7-1.8-1.8V64.8z"/>
	<path class="st5" d="M113.5,69.1c-0.5,0.3-1.2,0.5-1.9,0.5c-1.9,0-3-1.1-3-2.9c0-1.6,0.9-3,2.6-3c2.1,0,2.7,1.4,2.7,3.4H110
		c0.1,0.9,0.7,1.4,1.6,1.4c0.7,0,1.3-0.3,1.9-0.6V69.1z M112.5,66c0-0.7-0.4-1.3-1.2-1.3c-0.8,0-1.2,0.6-1.3,1.3H112.5z"/>
	<path class="st5" d="M118.1,61.1h1.5v3.3h0c0.4-0.5,0.9-0.9,1.7-0.9c1.7,0,2.4,1.4,2.4,2.9c0,1.6-0.6,3-2.4,3
		c-0.6,0-1.3-0.2-1.7-0.8h0v0.7h-1.4V61.1z M120.9,68.4c1,0,1.2-1.1,1.2-1.8c0-0.8-0.3-1.8-1.2-1.8c-0.9,0-1.3,1-1.3,1.8
		C119.6,67.3,119.9,68.4,120.9,68.4z"/>
	<path class="st5" d="M124.9,63.7h1.3V65h0c0.1-0.5,0.7-1.4,1.6-1.4c0.1,0,0.3,0,0.5,0v1.5c-0.1-0.1-0.4-0.1-0.7-0.1
		c-1.2,0-1.2,1.5-1.2,2.3v2.1h-1.5V63.7z"/>
	<path class="st5" d="M131.7,63.6c1.7,0,3,1.1,3,3c0,1.6-1.1,2.9-3,2.9c-1.9,0-3-1.3-3-2.9C128.8,64.7,130.1,63.6,131.7,63.6z
		 M131.7,68.4c1.1,0,1.4-1,1.4-2c0-0.9-0.5-1.7-1.4-1.7c-1,0-1.4,0.8-1.4,1.7C130.3,67.3,130.6,68.4,131.7,68.4z"/>
	<path class="st5" d="M135.9,63.7h1.4v0.8h0c0.5-0.6,1.1-0.9,1.9-0.9c1.3,0,1.9,0.9,1.9,2.2v3.6h-1.5v-3c0-0.7,0-1.6-1-1.6
		c-1.1,0-1.3,1.2-1.3,1.9v2.8h-1.5V63.7z"/>
	<path class="st5" d="M146.3,64.9c-0.3-0.1-0.5-0.2-1-0.2c-0.9,0-1.5,0.7-1.5,1.8c0,1,0.5,1.8,1.5,1.8c0.4,0,0.9-0.2,1.1-0.3
		l0.1,1.2c-0.4,0.1-0.9,0.2-1.5,0.2c-1.9,0-2.8-1.3-2.8-3c0-1.6,1-2.9,2.7-2.9c0.6,0,1,0.1,1.4,0.2L146.3,64.9z"/>
	<path class="st5" d="M147.5,61.1h1.5v3.4h0c0.4-0.5,1-0.9,1.8-0.9c1.3,0,1.9,0.9,1.9,2.2v3.6h-1.5v-3c0-0.7,0-1.6-1-1.6
		c-1.1,0-1.3,1.2-1.3,1.9v2.8h-1.5V61.1z"/>
	<path class="st5" d="M156.8,63.6c1.7,0,3,1.1,3,3c0,1.6-1.1,2.9-3,2.9c-1.9,0-3-1.3-3-2.9C153.8,64.7,155.1,63.6,156.8,63.6z
		 M156.8,68.4c1.1,0,1.4-1,1.4-2c0-0.9-0.5-1.7-1.4-1.7c-1,0-1.4,0.8-1.4,1.7C155.4,67.3,155.7,68.4,156.8,68.4z"/>
	<path class="st5" d="M164.3,64.9c-0.5-0.2-0.8-0.2-1.3-0.2c-0.4,0-0.9,0.1-0.9,0.6c0,0.9,2.6,0.3,2.6,2.4c0,1.3-1.2,1.8-2.4,1.8
		c-0.6,0-1.1-0.1-1.7-0.2l0.1-1.2c0.5,0.2,0.9,0.4,1.5,0.4c0.4,0,1-0.1,1-0.7c0-1.1-2.6-0.4-2.6-2.4c0-1.2,1.1-1.8,2.2-1.8
		c0.7,0,1.1,0.1,1.6,0.2L164.3,64.9z"/>
	<path class="st5" d="M165.8,63.7h1.4v0.8h0c0.3-0.5,0.9-0.9,1.8-0.9c1.7,0,2.4,1.4,2.4,2.9c0,1.6-0.6,3-2.4,3
		c-0.6,0-1.1-0.2-1.7-0.8h0v3h-1.5V63.7z M167.3,66.5c0,0.8,0.3,1.8,1.3,1.8c1,0,1.2-1.1,1.2-1.8c0-0.8-0.3-1.8-1.2-1.8
		C167.6,64.7,167.3,65.7,167.3,66.5z"/>
	<path class="st5" d="M172.8,64c0.6-0.3,1.3-0.4,2-0.4c1.7,0,2.4,0.7,2.4,2.4v0.7c0,0.6,0,1,0,1.4c0,0.4,0,0.8,0.1,1.3H176
		c-0.1-0.3-0.1-0.7-0.1-0.8h0c-0.3,0.6-1.1,1-1.7,1c-1,0-2-0.6-2-1.7c0-0.8,0.4-1.3,1-1.6c0.6-0.3,1.3-0.3,1.9-0.3h0.8
		c0-0.9-0.4-1.2-1.3-1.2c-0.6,0-1.3,0.2-1.7,0.6L172.8,64z M174.5,68.4c0.5,0,0.8-0.2,1-0.5c0.2-0.3,0.3-0.7,0.3-1.2h-0.6
		c-0.7,0-1.6,0.1-1.6,1C173.6,68.2,174,68.4,174.5,68.4z"/>
	<path class="st5" d="M182,64.9c-0.5-0.2-0.8-0.2-1.3-0.2c-0.4,0-0.9,0.1-0.9,0.6c0,0.9,2.6,0.3,2.6,2.4c0,1.3-1.2,1.8-2.4,1.8
		c-0.6,0-1.1-0.1-1.7-0.2l0.1-1.2c0.5,0.2,0.9,0.4,1.5,0.4c0.4,0,1-0.1,1-0.7c0-1.1-2.6-0.4-2.6-2.4c0-1.2,1.1-1.8,2.2-1.8
		c0.7,0,1.1,0.1,1.6,0.2L182,64.9z"/>
	<path class="st5" d="M183.5,63.7h1.4v0.8h0c0.5-0.7,1.1-0.9,1.7-0.9c0.8,0,1.4,0.3,1.7,1c0.3-0.7,1.1-1,1.8-1c1.4,0,1.8,1,1.8,2.2
		v3.6h-1.5V66c0-0.5,0-1.3-0.8-1.3c-1,0-1.1,1.2-1.1,1.9v2.8h-1.5V66c0-0.5,0-1.3-0.8-1.3c-1,0-1.1,1.2-1.1,1.9v2.8h-1.5V63.7z"/>
</g>
</svg>
