<?xml version="1.0" encoding="iso-8859-1"?>
<!-- Generator: Adobe Illustrator 19.1.0, SVG Export Plug-In . SVG Version: 6.00 Build 0)  -->
<svg version="1.1" xmlns="http://www.w3.org/2000/svg" xmlns:xlink="http://www.w3.org/1999/xlink" x="0px" y="0px"
	 viewBox="0 0 288 293.96" style="enable-background:new 0 0 288 293.96;" xml:space="preserve">
<symbol  id="_x31_60_x5F_border" viewBox="-16383 -16383 32766 32766">
	<polygon style="display:none;fill:none;" points="16383,-16383 -16383,-16383 -16383,16383 16383,16383 	"/>
</symbol>
<g id="A1">
	<g id="Layer_2">
		
			<use xlink:href="#_x31_60_x5F_border"  width="32766" height="32766" id="XMLID_1_" x="-16383" y="-16383" transform="matrix(1.8634 0 0 -0.416 -2012.0564 -826.5488)" style="overflow:visible;"/>
	</g>
</g>
<g id="A2">
	<g id="Layer_2_copy">
		
			<use xlink:href="#_x31_60_x5F_border"  width="32766" height="32766" id="XMLID_2_" x="-16383" y="-16383" transform="matrix(1.8634 0 0 -0.416 -2012.0564 -826.5488)" style="overflow:visible;"/>
	</g>
</g>
<g id="A3">
	<defs>
		<rect id="SVGID_2026_" x="-1484.491" y="-947.341" width="300" height="250"/>
	</defs>
	<clipPath id="SVGID_4_">
		<use xlink:href="#SVGID_2026_"  style="overflow:visible;"/>
	</clipPath>
	<g id="Layer_2_copy_2" style="clip-path:url(#SVGID_4_);">
		
			<use xlink:href="#_x31_60_x5F_border"  width="32766" height="32766" id="XMLID_3_" x="-16383" y="-16383" transform="matrix(1.8634 0 0 -0.416 -2012.0564 -826.5488)" style="overflow:visible;"/>
	</g>
</g>
<g id="A4">
	<defs>
		<rect id="SVGID_2028_" x="-1144.491" y="-948.341" width="300" height="250"/>
	</defs>
	<clipPath id="SVGID_5_">
		<use xlink:href="#SVGID_2028_"  style="overflow:visible;"/>
	</clipPath>
	<g id="Layer_2_copy_3" style="clip-path:url(#SVGID_5_);">
		
			<use xlink:href="#_x31_60_x5F_border"  width="32766" height="32766" id="XMLID_4_" x="-16383" y="-16383" transform="matrix(1.8634 0 0 -0.416 -2012.0564 -826.5488)" style="overflow:visible;"/>
	</g>
</g>
<g id="A5">
</g>
<g id="A6">
</g>
<g id="A7">
	<g>
		<path style="fill:#002D73;" d="M34.693,1.588h3.85c1.559,0,2.723,0.684,2.723,2.123c0,1.056-0.54,1.644-1.476,1.955V5.69
			c1.115,0.228,1.691,0.827,1.691,1.847c0,2.003-1.764,2.423-3.263,2.423h-3.525V1.588z M36.924,4.898h0.624
			c0.731,0,1.486-0.18,1.486-0.888c0-0.768-0.719-0.839-1.463-0.839h-0.647V4.898z M36.924,8.377h0.659
			c0.816,0,1.667-0.12,1.667-0.972c0-0.912-0.875-0.995-1.643-0.995h-0.684V8.377z"/>
		<path style="fill:#002D73;" d="M42.697,1.588h3.981c1.487,0,2.698,0.672,2.698,2.111c0,1.115-0.527,1.859-1.606,2.11v0.024
			c0.719,0.192,0.768,0.827,1.187,1.847l0.816,2.279h-2.327l-0.479-1.512c-0.456-1.438-0.744-1.799-1.571-1.799h-0.468V9.96h-2.23
			V1.588z M44.928,5.066h0.588c0.72,0,1.631-0.024,1.631-0.972c0-0.779-0.779-0.923-1.631-0.923h-0.588V5.066z"/>
		<path style="fill:#002D73;" d="M50.701,1.588h5.9v1.584h-3.67v1.727h3.466v1.583h-3.466v1.896h3.802V9.96h-6.032V1.588z"/>
		<path style="fill:#002D73;" d="M61.979,1.444c2.759,0,4.198,1.644,4.198,4.33c0,2.662-1.464,4.329-4.198,4.329
			s-4.197-1.667-4.197-4.329C57.781,3.088,59.22,1.444,61.979,1.444z M61.979,8.448c1.355,0,1.896-1.295,1.896-2.674
			c0-1.451-0.54-2.675-1.896-2.675s-1.895,1.224-1.895,2.675C60.084,7.153,60.623,8.448,61.979,8.448z"/>
		<path style="fill:#002D73;" d="M72.288,2.476h-1.271V1.204h1.271V2.476z M71.089,3.843h1.127V9.96h-1.127V3.843z"/>
		<path style="fill:#002D73;" d="M73.825,8.761c0.443,0.287,1.079,0.432,1.402,0.432c0.517,0,1.151-0.216,1.151-0.876
			c0-1.115-2.65-1.02-2.65-2.734c0-1.271,0.948-1.883,2.159-1.883c0.527,0,0.959,0.107,1.403,0.24l-0.096,0.983
			c-0.252-0.156-0.924-0.312-1.188-0.312c-0.576,0-1.08,0.24-1.08,0.744c0,1.247,2.651,0.888,2.651,2.842
			c0,1.308-1.044,1.907-2.135,1.907c-0.576,0-1.164-0.06-1.68-0.336L73.825,8.761z"/>
		<path style="fill:#002D73;" d="M85.534,4.755h-1.619v3.346c0,0.708,0.433,1.092,0.948,1.092c0.348,0,0.6-0.108,0.768-0.216v0.959
			c-0.252,0.072-0.6,0.168-0.96,0.168c-1.163,0-1.883-0.552-1.883-1.774V4.755h-1.379V3.843h1.379V2.428l1.127-0.359v1.774h1.619
			V4.755z"/>
		<path style="fill:#002D73;" d="M86.952,0.965h1.128v3.754h0.023c0.408-0.647,1.115-1.02,1.967-1.02
			c1.583,0,2.291,0.983,2.291,2.627V9.96h-1.127V6.794c0-1.428-0.312-2.123-1.296-2.184c-1.283,0-1.858,1.032-1.858,2.519V9.96
			h-1.128V0.965z"/>
		<path style="fill:#002D73;" d="M98.974,9.708c-0.432,0.156-0.923,0.396-1.931,0.396c-2.171,0-3.166-1.319-3.166-3.31
			c0-1.812,1.139-3.095,2.866-3.095c2.039,0,2.698,1.487,2.698,3.454h-4.365c0,1.211,0.947,2.039,2.015,2.039
			c0.743,0,1.607-0.384,1.883-0.612V9.708z M98.242,6.313c0-0.936-0.552-1.703-1.523-1.703c-1.104,0-1.559,0.912-1.643,1.703H98.242
			z"/>
		<path style="fill:#002D73;" d="M107.003,3.699c1.858,0,3.106,1.343,3.106,3.202c0,1.751-1.271,3.202-3.106,3.202
			c-1.848,0-3.118-1.451-3.118-3.202C103.885,5.042,105.132,3.699,107.003,3.699z M107.003,9.192c1.319,0,1.907-1.199,1.907-2.291
			c0-1.163-0.708-2.291-1.907-2.291c-1.212,0-1.919,1.128-1.919,2.291C105.084,7.993,105.672,9.192,107.003,9.192z"/>
		<path style="fill:#002D73;" d="M111.624,3.843h1.092v0.972h0.023c0.336-0.695,1.151-1.115,2.003-1.115
			c1.583,0,2.291,0.983,2.291,2.627V9.96h-1.127V6.794c0-1.428-0.312-2.123-1.296-2.184c-1.283,0-1.858,1.032-1.858,2.519V9.96
			h-1.128V3.843z"/>
		<path style="fill:#002D73;" d="M119.101,0.965h1.127V9.96h-1.127V0.965z"/>
		<path style="fill:#002D73;" d="M121.837,11.615c0.144,0.048,0.335,0.096,0.527,0.096c1.008,0,1.343-1.392,1.343-1.512
			c0-0.132-0.144-0.443-0.216-0.647l-2.074-5.709h1.235l1.643,5.062h0.024l1.679-5.062h1.14l-2.255,6.249
			c-0.42,1.175-0.863,2.53-2.351,2.53c-0.36,0-0.563-0.048-0.768-0.084L121.837,11.615z"/>
		<path style="fill:#002D73;" d="M131.736,1.588h1.199V9.96h-1.199V1.588z"/>
		<path style="fill:#002D73;" d="M140.853,2.968c-0.527-0.312-1.115-0.468-1.727-0.468c-1.931,0-3.215,1.391-3.215,3.274
			c0,1.967,1.416,3.273,3.154,3.273c0.6,0,1.403-0.155,1.823-0.407l0.072,1.163c-0.636,0.264-1.415,0.3-1.907,0.3
			c-2.65,0-4.413-1.703-4.413-4.365c0-2.579,1.871-4.294,4.425-4.294c0.648,0,1.284,0.096,1.884,0.36L140.853,2.968z"/>
		<path style="fill:#002D73;" d="M146.206,2.848c-0.611-0.24-0.947-0.348-1.571-0.348c-0.672,0-1.463,0.239-1.463,1.115
			c0,1.607,3.598,1.235,3.598,3.994c0,1.787-1.379,2.494-3.059,2.494c-0.587,0-1.163-0.168-1.715-0.348l0.12-1.115
			c0.408,0.168,1.127,0.407,1.739,0.407c0.684,0,1.643-0.384,1.643-1.367c0-1.871-3.598-1.354-3.598-3.957
			c0-1.487,1.176-2.279,2.687-2.279c0.552,0,1.211,0.096,1.787,0.3L146.206,2.848z"/>
		<path style="fill:#002D73;" d="M149.915,1.444h1.056l-2.879,8.659h-1.055L149.915,1.444z"/>
		<path style="fill:#002D73;" d="M151.728,1.588h1.2v7.316h3.502V9.96h-4.702V1.588z"/>
		<path style="fill:#002D73;" d="M160.391,1.588h1.259l3.538,8.372h-1.307l-0.852-2.111h-4.102l-0.852,2.111h-1.26L160.391,1.588z
			 M160.979,2.716l-1.667,4.149h3.334L160.979,2.716z"/>
		<path style="fill:#002D73;" d="M166.332,1.588h2.267c1.739,0,2.938,0.564,2.938,2.111c0,1.151-0.672,1.727-1.728,1.991v0.023
			c1.14,0.096,1.943,0.84,1.943,2.015c0,1.8-1.487,2.231-3.19,2.231h-2.23V1.588z M167.531,5.162h0.659
			c1.163,0,2.147-0.107,2.147-1.343c0-0.996-0.852-1.247-1.548-1.247h-1.259V5.162z M167.531,8.977h0.899
			c1.079,0,2.051-0.229,2.051-1.355c0-1.295-1.14-1.476-2.171-1.476h-0.779V8.977z"/>
		<path style="fill:#002D73;" d="M176.386,1.588h1.26l3.538,8.372h-1.308l-0.852-2.111h-4.102l-0.852,2.111h-1.259L176.386,1.588z
			 M176.974,2.716l-1.667,4.149h3.334L176.974,2.716z"/>
		<path style="fill:#002D73;" d="M188.878,4.755h-1.619v3.346c0,0.708,0.432,1.092,0.947,1.092c0.348,0,0.6-0.108,0.768-0.216v0.959
			c-0.252,0.072-0.6,0.168-0.959,0.168c-1.164,0-1.883-0.552-1.883-1.774V4.755h-1.38V3.843h1.38V2.428l1.127-0.359v1.774h1.619
			V4.755z"/>
		<path style="fill:#002D73;" d="M190.296,0.965h1.127v3.754h0.024c0.407-0.647,1.115-1.02,1.967-1.02
			c1.583,0,2.291,0.983,2.291,2.627V9.96h-1.128V6.794c0-1.428-0.312-2.123-1.295-2.184c-1.283,0-1.859,1.032-1.859,2.519V9.96
			h-1.127V0.965z"/>
		<path style="fill:#002D73;" d="M197.915,4.274c0.564-0.335,1.235-0.575,2.016-0.575c1.751,0,2.458,0.863,2.458,2.53v2.531
			c0,0.695,0.024,1.02,0.049,1.199h-1.056V9.168h-0.024c-0.264,0.372-0.863,0.936-1.895,0.936c-1.319,0-2.243-0.575-2.243-1.907
			c0-1.535,1.68-2.015,2.843-2.015c0.443,0,0.756,0,1.199,0.024c0-1.056-0.384-1.596-1.511-1.596c-0.636,0-1.319,0.24-1.775,0.624
			L197.915,4.274z M201.262,7.045c-0.24,0-0.479-0.023-0.72-0.023c-0.611,0-2.123,0.096-2.123,1.175c0,0.648,0.624,0.996,1.14,0.996
			c1.115,0,1.703-0.696,1.703-1.607V7.045z"/>
		<path style="fill:#002D73;" d="M207.55,4.755h-1.619v3.346c0,0.708,0.432,1.092,0.947,1.092c0.348,0,0.6-0.108,0.768-0.216v0.959
			c-0.252,0.072-0.6,0.168-0.959,0.168c-1.164,0-1.883-0.552-1.883-1.774V4.755h-1.38V3.843h1.38V2.428l1.127-0.359v1.774h1.619
			V4.755z"/>
		<path style="fill:#002D73;" d="M216.633,9.097h-0.023c-0.3,0.455-0.996,1.007-2.087,1.007c-1.848,0-2.627-1.643-2.627-3.31
			c0-1.644,0.863-3.095,2.639-3.095c1.067,0,1.679,0.42,2.027,0.983h0.023V0.965h1.128V9.96h-1.08V9.097z M214.786,9.192
			c1.271,0,1.799-1.26,1.799-2.279c0-1.139-0.588-2.303-1.811-2.303c-1.224,0-1.703,1.151-1.68,2.267
			C213.071,7.837,213.575,9.192,214.786,9.192z"/>
		<path style="fill:#002D73;" d="M224.325,9.708c-0.432,0.156-0.924,0.396-1.932,0.396c-2.17,0-3.166-1.319-3.166-3.31
			c0-1.812,1.14-3.095,2.866-3.095c2.039,0,2.699,1.487,2.699,3.454h-4.366c0,1.211,0.948,2.039,2.016,2.039
			c0.743,0,1.606-0.384,1.883-0.612V9.708z M223.594,6.313c0-0.936-0.552-1.703-1.523-1.703c-1.104,0-1.56,0.912-1.644,1.703
			H223.594z"/>
		<path style="fill:#002D73;" d="M226.451,0.965h1.128V9.96h-1.128V0.965z"/>
		<path style="fill:#002D73;" d="M230.986,2.476h-1.271V1.204h1.271V2.476z M229.787,3.843h1.128V9.96h-1.128V3.843z"/>
		<path style="fill:#002D73;" d="M235.689,9.96h-1.343l-2.195-6.117h1.235l1.655,4.989h0.024l1.69-4.989h1.128L235.689,9.96z"/>
		<path style="fill:#002D73;" d="M243.669,9.708c-0.432,0.156-0.924,0.396-1.932,0.396c-2.17,0-3.166-1.319-3.166-3.31
			c0-1.812,1.14-3.095,2.866-3.095c2.039,0,2.699,1.487,2.699,3.454h-4.366c0,1.211,0.948,2.039,2.016,2.039
			c0.743,0,1.606-0.384,1.883-0.612V9.708z M242.938,6.313c0-0.936-0.552-1.703-1.523-1.703c-1.104,0-1.56,0.912-1.644,1.703
			H242.938z"/>
		<path style="fill:#002D73;" d="M245.651,3.843h1.055v0.948h0.024c0.3-0.636,0.947-1.092,1.595-1.092
			c0.336,0,0.504,0.036,0.744,0.084v1.008c-0.204-0.084-0.432-0.108-0.624-0.108c-1.007,0-1.667,0.96-1.667,2.495V9.96h-1.127V3.843
			z"/>
		<path style="fill:#002D73;" d="M249.863,8.761c0.443,0.287,1.079,0.432,1.403,0.432c0.516,0,1.151-0.216,1.151-0.876
			c0-1.115-2.65-1.02-2.65-2.734c0-1.271,0.947-1.883,2.158-1.883c0.528,0,0.96,0.107,1.403,0.24l-0.096,0.983
			c-0.252-0.156-0.924-0.312-1.188-0.312c-0.575,0-1.079,0.24-1.079,0.744c0,1.247,2.65,0.888,2.65,2.842
			c0,1.308-1.043,1.907-2.135,1.907c-0.575,0-1.163-0.06-1.679-0.336L249.863,8.761z"/>
		<path style="fill:#002D73;" d="M39.925,22.364c1.703-1.475,3.67-3.082,3.67-4.209c0-0.744-0.516-1.056-1.188-1.056
			c-0.72,0-1.679,0.275-2.194,0.575l-0.084-1.738c1.199-0.433,1.991-0.492,2.482-0.492c1.871,0,3.214,0.792,3.214,2.459
			c0,1.631-1.763,3.274-2.554,3.958l-0.601,0.516h3.311v1.583h-6.057V22.364z"/>
		<path style="fill:#002D73;" d="M50.603,22.364H46.86V20.59l3.358-5.002h2.471v5.266h1.188v1.511h-1.188v1.596h-2.087V22.364z
			 M50.747,17.315h-0.024l-2.278,3.538h2.303V17.315z"/>
		<path style="fill:#002D73;" d="M54.48,19.942h3.25v1.583h-3.25V19.942z"/>
		<path style="fill:#002D73;" d="M58.776,14.965h2.159v3.67h0.023c0.468-0.647,1.151-1.067,2.087-1.067
			c1.703,0,2.387,1.199,2.387,2.494v3.898h-2.159v-3.022c0-1.176-0.407-1.571-0.995-1.571c-0.888,0-1.343,0.611-1.343,1.955v2.639
			h-2.159V14.965z"/>
		<path style="fill:#002D73;" d="M66.48,20.842c0-2.075,1.571-3.274,3.634-3.274c2.063,0,3.634,1.199,3.634,3.274
			c0,2.062-1.57,3.262-3.634,3.262C68.052,24.104,66.48,22.904,66.48,20.842z M71.518,20.842c0-0.936-0.407-1.764-1.403-1.764
			c-0.995,0-1.403,0.828-1.403,1.764c0,0.923,0.408,1.751,1.403,1.751C71.11,22.593,71.518,21.765,71.518,20.842z"/>
		<path style="fill:#002D73;" d="M81.453,23.96h-1.968v-1.151h-0.023c-0.432,0.899-1.295,1.295-2.279,1.295
			c-1.702,0-2.387-1.199-2.387-2.494v-3.898h2.159v3.022c0,1.176,0.408,1.571,0.995,1.571c0.888,0,1.344-0.611,1.344-1.955v-2.639
			h2.159V23.96z"/>
		<path style="fill:#002D73;" d="M87.262,19.438c-0.24-0.072-0.479-0.072-0.731-0.072c-1.008,0-1.571,0.731-1.571,1.955v2.639H82.8
			v-6.249h1.968v1.151h0.023c0.372-0.791,0.912-1.295,1.847-1.295c0.252,0,0.517,0.036,0.732,0.072L87.262,19.438z"/>
		<path style="fill:#002D73;" d="M96.693,19.498c-0.396-0.239-0.792-0.348-1.308-0.348c-0.936,0-1.655,0.647-1.655,1.727
			c0,0.996,0.84,1.644,1.775,1.644c0.491,0,0.983-0.108,1.343-0.3l0.049,1.607c-0.54,0.18-1.188,0.275-1.764,0.275
			c-2.062,0-3.634-1.199-3.634-3.262c0-2.075,1.571-3.274,3.634-3.274c0.647,0,1.224,0.107,1.715,0.348L96.693,19.498z"/>
		<path style="fill:#002D73;" d="M97.5,20.842c0-2.075,1.571-3.274,3.634-3.274c2.063,0,3.634,1.199,3.634,3.274
			c0,2.062-1.57,3.262-3.634,3.262C99.071,24.104,97.5,22.904,97.5,20.842z M102.537,20.842c0-0.936-0.407-1.764-1.403-1.764
			c-0.995,0-1.403,0.828-1.403,1.764c0,0.923,0.408,1.751,1.403,1.751C102.13,22.593,102.537,21.765,102.537,20.842z"/>
		<path style="fill:#002D73;" d="M105.815,17.711h1.968v1.151h0.023c0.432-0.899,1.296-1.295,2.279-1.295
			c1.703,0,2.387,1.199,2.387,2.494v3.898h-2.159v-3.022c0-1.176-0.408-1.571-0.995-1.571c-0.888,0-1.344,0.611-1.344,1.955v2.639
			h-2.159V17.711z"/>
		<path style="fill:#002D73;" d="M113.269,17.711h1.271v-1.403l2.123-0.659v2.062h1.512v1.512h-1.512v2.303
			c0,0.755,0.18,1.139,0.863,1.139c0.216,0,0.444-0.048,0.66-0.084l0.072,1.403c-0.408,0.048-0.816,0.12-1.355,0.12
			c-1.932,0-2.398-0.852-2.398-2.339v-2.542h-1.235V17.711z"/>
		<path style="fill:#002D73;" d="M121.559,16.691h-2.159v-1.583h2.159V16.691z M119.399,17.711h2.159v6.249h-2.159V17.711z"/>
		<path style="fill:#002D73;" d="M123.155,17.711h1.967v1.151h0.024c0.432-0.899,1.295-1.295,2.278-1.295
			c1.703,0,2.387,1.199,2.387,2.494v3.898h-2.159v-3.022c0-1.176-0.407-1.571-0.995-1.571c-0.888,0-1.343,0.611-1.343,1.955v2.639
			h-2.159V17.711z"/>
		<path style="fill:#002D73;" d="M137.815,23.96h-1.967v-1.151h-0.024c-0.432,0.899-1.295,1.295-2.278,1.295
			c-1.703,0-2.387-1.199-2.387-2.494v-3.898h2.159v3.022c0,1.176,0.407,1.571,0.995,1.571c0.888,0,1.343-0.611,1.343-1.955v-2.639
			h2.159V23.96z"/>
		<path style="fill:#002D73;" d="M138.863,20.842c0-2.075,1.571-3.274,3.634-3.274c2.063,0,3.634,1.199,3.634,3.274
			c0,2.062-1.57,3.262-3.634,3.262C140.435,24.104,138.863,22.904,138.863,20.842z M143.9,20.842c0-0.936-0.407-1.764-1.403-1.764
			c-0.995,0-1.403,0.828-1.403,1.764c0,0.923,0.408,1.751,1.403,1.751C143.493,22.593,143.9,21.765,143.9,20.842z"/>
		<path style="fill:#002D73;" d="M153.836,23.96h-1.968v-1.151h-0.023c-0.432,0.899-1.295,1.295-2.279,1.295
			c-1.702,0-2.387-1.199-2.387-2.494v-3.898h2.159v3.022c0,1.176,0.408,1.571,0.995,1.571c0.888,0,1.344-0.611,1.344-1.955v-2.639
			h2.159V23.96z"/>
		<path style="fill:#002D73;" d="M155.063,22.232c0.503,0.216,1.247,0.432,2.026,0.432c0.444,0,0.876-0.071,0.876-0.503
			c0-1.056-3.07-0.312-3.07-2.567c0-1.438,1.415-2.026,2.662-2.026c0.744,0,1.499,0.084,2.195,0.359l-0.168,1.499
			c-0.456-0.275-1.14-0.419-1.68-0.419c-0.468,0-0.995,0.084-0.995,0.432c0,0.972,3.214,0.204,3.214,2.578
			c0,1.667-1.499,2.087-2.914,2.087c-0.972,0-1.631-0.096-2.267-0.3L155.063,22.232z"/>
		<path style="fill:#002D73;" d="M165.106,14.965h2.159v8.995h-2.159V14.965z"/>
		<path style="fill:#002D73;" d="M175.52,23.96h-1.968v-1.151h-0.023c-0.432,0.899-1.295,1.295-2.279,1.295
			c-1.702,0-2.387-1.199-2.387-2.494v-3.898h2.159v3.022c0,1.176,0.408,1.571,0.995,1.571c0.888,0,1.344-0.611,1.344-1.955v-2.639
			h2.159V23.96z"/>
		<path style="fill:#002D73;" d="M176.866,17.711h1.968v1.151h0.023c0.432-0.899,1.296-1.295,2.279-1.295
			c1.703,0,2.387,1.199,2.387,2.494v3.898h-2.159v-3.022c0-1.176-0.408-1.571-0.995-1.571c-0.888,0-1.344,0.611-1.344,1.955v2.639
			h-2.159V17.711z"/>
		<path style="fill:#002D73;" d="M191.491,23.229c0,2.566-1.248,3.394-3.767,3.394c-1.031,0-1.883-0.216-2.387-0.396l0.108-1.703
			c0.659,0.324,1.211,0.516,2.11,0.516c1.248,0,1.919-0.588,1.919-1.811v-0.336h-0.023c-0.516,0.731-1.235,1.067-2.099,1.067
			c-1.716,0-2.783-1.296-2.783-3.143c0-1.859,0.876-3.25,2.819-3.25c0.923,0,1.667,0.504,2.122,1.271h0.024v-1.128h1.955V23.229z
			 M188.024,22.305c0.768,0,1.38-0.647,1.38-1.607c0-0.695-0.408-1.475-1.38-1.475c-0.803,0-1.223,0.707-1.223,1.559
			C186.802,21.753,187.377,22.305,188.024,22.305z"/>
		<path style="fill:#002D73;" d="M197.314,19.223h-1.271v-1.512h1.308v-0.384c0-1.858,0.875-2.507,2.603-2.507
			c0.468,0,0.827,0.072,1.103,0.12l-0.132,1.487c-0.18-0.06-0.359-0.096-0.684-0.096c-0.552,0-0.768,0.384-0.768,0.995v0.384h1.535
			v1.512h-1.535v4.737h-2.158V19.223z"/>
		<path style="fill:#002D73;" d="M208.543,23.96h-1.968v-1.151h-0.023c-0.432,0.899-1.295,1.295-2.279,1.295
			c-1.702,0-2.387-1.199-2.387-2.494v-3.898h2.159v3.022c0,1.176,0.408,1.571,0.995,1.571c0.888,0,1.344-0.611,1.344-1.955v-2.639
			h2.159V23.96z"/>
		<path style="fill:#002D73;" d="M209.89,17.711h1.968v1.151h0.023c0.432-0.899,1.296-1.295,2.279-1.295
			c1.703,0,2.387,1.199,2.387,2.494v3.898h-2.159v-3.022c0-1.176-0.408-1.571-0.995-1.571c-0.888,0-1.344,0.611-1.344,1.955v2.639
			h-2.159V17.711z"/>
		<path style="fill:#002D73;" d="M222.787,19.498c-0.396-0.239-0.791-0.348-1.307-0.348c-0.936,0-1.655,0.647-1.655,1.727
			c0,0.996,0.839,1.644,1.774,1.644c0.492,0,0.983-0.108,1.344-0.3l0.048,1.607c-0.54,0.18-1.188,0.275-1.763,0.275
			c-2.063,0-3.635-1.199-3.635-3.262c0-2.075,1.571-3.274,3.635-3.274c0.647,0,1.223,0.107,1.715,0.348L222.787,19.498z"/>
		<path style="fill:#002D73;" d="M223.343,17.711h1.271v-1.403l2.123-0.659v2.062h1.512v1.512h-1.512v2.303
			c0,0.755,0.18,1.139,0.863,1.139c0.216,0,0.444-0.048,0.66-0.084l0.072,1.403c-0.408,0.048-0.816,0.12-1.355,0.12
			c-1.932,0-2.398-0.852-2.398-2.339v-2.542h-1.235V17.711z"/>
		<path style="fill:#002D73;" d="M231.633,16.691h-2.159v-1.583h2.159V16.691z M229.474,17.711h2.159v6.249h-2.159V17.711z"/>
		<path style="fill:#002D73;" d="M232.93,20.842c0-2.075,1.571-3.274,3.634-3.274c2.063,0,3.634,1.199,3.634,3.274
			c0,2.062-1.57,3.262-3.634,3.262C234.501,24.104,232.93,22.904,232.93,20.842z M237.967,20.842c0-0.936-0.407-1.764-1.403-1.764
			c-0.995,0-1.403,0.828-1.403,1.764c0,0.923,0.408,1.751,1.403,1.751C237.56,22.593,237.967,21.765,237.967,20.842z"/>
		<path style="fill:#002D73;" d="M241.245,17.711h1.968v1.151h0.023c0.432-0.899,1.296-1.295,2.279-1.295
			c1.703,0,2.387,1.199,2.387,2.494v3.898h-2.159v-3.022c0-1.176-0.408-1.571-0.995-1.571c-0.888,0-1.344,0.611-1.344,1.955v2.639
			h-2.159V17.711z"/>
		<path style="fill:#002D73;" d="M4.002,30.691H1.843v-1.583h2.159V30.691z M1.843,31.711h2.159v6.249H1.843V31.711z"/>
		<path style="fill:#002D73;" d="M5.599,31.711h1.968v1.151H7.59c0.432-0.899,1.296-1.295,2.279-1.295
			c0.887,0,1.619,0.384,1.954,1.199c0.504-0.84,1.332-1.199,2.219-1.199c1.8,0,2.207,1.02,2.207,2.71v3.683h-2.158v-3.358
			c0-0.708-0.252-1.235-0.864-1.235c-0.768,0-1.223,0.611-1.223,1.955v2.639H9.845v-3.358c0-0.708-0.252-1.235-0.863-1.235
			c-0.768,0-1.224,0.611-1.224,1.955v2.639H5.599V31.711z"/>
		<path style="fill:#002D73;" d="M17.551,31.711h1.991v1.128h0.024c0.432-0.876,1.343-1.271,2.326-1.271
			c1.728,0,2.675,1.643,2.675,3.154c0,1.847-0.995,3.382-2.854,3.382c-0.756,0-1.571-0.275-1.979-1.02H19.71v3.395h-2.159V31.711z
			 M21.029,33.223c-0.792,0-1.319,0.695-1.319,1.631c0,0.911,0.6,1.595,1.319,1.595c0.815,0,1.308-0.684,1.308-1.679
			C22.337,33.942,21.869,33.223,21.029,33.223z"/>
		<path style="fill:#002D73;" d="M30.077,33.438c-0.24-0.072-0.48-0.072-0.732-0.072c-1.007,0-1.57,0.731-1.57,1.955v2.639h-2.159
			v-6.249h1.967v1.151h0.024c0.371-0.791,0.911-1.295,1.847-1.295c0.252,0,0.516,0.036,0.731,0.072L30.077,33.438z"/>
		<path style="fill:#002D73;" d="M30.643,34.842c0-2.075,1.571-3.274,3.635-3.274c2.062,0,3.634,1.199,3.634,3.274
			c0,2.062-1.571,3.262-3.634,3.262C32.214,38.104,30.643,36.904,30.643,34.842z M35.681,34.842c0-0.936-0.408-1.764-1.403-1.764
			c-0.996,0-1.403,0.828-1.403,1.764c0,0.923,0.407,1.751,1.403,1.751C35.272,36.593,35.681,35.765,35.681,34.842z"/>
		<path style="fill:#002D73;" d="M38.407,31.711h2.314l1.296,4.45h0.023l1.308-4.45h2.146l-2.314,6.249h-2.459L38.407,31.711z"/>
		<path style="fill:#002D73;" d="M48.174,35.465c0.12,0.864,0.779,1.199,1.835,1.199c0.588,0,1.26-0.132,1.907-0.479v1.523
			c-0.695,0.275-1.487,0.396-2.291,0.396c-2.062,0-3.634-1.211-3.634-3.274c0-2.062,1.403-3.262,3.346-3.262
			c2.315,0,3.154,1.643,3.154,3.502v0.396H48.174z M50.549,34.242c0-0.72-0.336-1.308-1.199-1.308c-0.78,0-1.151,0.588-1.199,1.308
			H50.549z"/>
		<path style="fill:#002D73;" d="M53.623,31.711h1.967v1.151h0.024c0.432-0.899,1.295-1.295,2.278-1.295
			c0.888,0,1.619,0.384,1.955,1.199c0.504-0.84,1.331-1.199,2.219-1.199c1.799,0,2.207,1.02,2.207,2.71v3.683h-2.159v-3.358
			c0-0.708-0.252-1.235-0.863-1.235c-0.768,0-1.224,0.611-1.224,1.955v2.639h-2.158v-3.358c0-0.708-0.252-1.235-0.864-1.235
			c-0.768,0-1.223,0.611-1.223,1.955v2.639h-2.159V31.711z"/>
		<path style="fill:#002D73;" d="M67.506,35.465c0.12,0.864,0.779,1.199,1.835,1.199c0.588,0,1.26-0.132,1.907-0.479v1.523
			c-0.695,0.275-1.487,0.396-2.291,0.396c-2.062,0-3.634-1.211-3.634-3.274c0-2.062,1.403-3.262,3.346-3.262
			c2.315,0,3.154,1.643,3.154,3.502v0.396H67.506z M69.881,34.242c0-0.72-0.336-1.308-1.199-1.308c-0.78,0-1.151,0.588-1.199,1.308
			H69.881z"/>
		<path style="fill:#002D73;" d="M72.955,31.711h1.967v1.151h0.024c0.432-0.899,1.295-1.295,2.278-1.295
			c1.703,0,2.387,1.199,2.387,2.494v3.898h-2.159v-3.022c0-1.176-0.407-1.571-0.995-1.571c-0.888,0-1.343,0.611-1.343,1.955v2.639
			h-2.159V31.711z"/>
		<path style="fill:#002D73;" d="M80.407,31.711h1.271v-1.403l2.123-0.659v2.062h1.511v1.512h-1.511v2.303
			c0,0.755,0.18,1.139,0.863,1.139c0.216,0,0.443-0.048,0.659-0.084l0.072,1.403c-0.408,0.048-0.815,0.12-1.355,0.12
			c-1.931,0-2.398-0.852-2.398-2.339v-2.542h-1.235V31.711z"/>
		<path style="fill:#002D73;" d="M88.47,32.263l-1.703-0.323l0.455-1.392l1.596,0.792l-0.252-1.752h1.463l-0.239,1.728l1.559-0.768
			l0.444,1.403l-1.728,0.3l1.224,1.235l-1.212,0.875l-0.803-1.547l-0.864,1.535l-1.175-0.852L88.47,32.263z"/>
		<path style="fill:#002D73;" d="M104.162,37.96h-1.308l-1.583-5.134h-0.023L99.7,37.96h-1.307l-1.967-6.117h1.235l1.402,5.062
			h0.024l1.56-5.062h1.331l1.535,5.062h0.023l1.487-5.062h1.104L104.162,37.96z"/>
		<path style="fill:#002D73;" d="M108.581,30.476h-1.271v-1.271h1.271V30.476z M107.382,31.843h1.128v6.117h-1.128V31.843z"/>
		<path style="fill:#002D73;" d="M113.824,32.755h-1.619v3.346c0,0.708,0.432,1.092,0.947,1.092c0.348,0,0.6-0.108,0.768-0.216
			v0.959c-0.252,0.072-0.6,0.168-0.959,0.168c-1.164,0-1.883-0.552-1.883-1.774v-3.574h-1.38v-0.912h1.38v-1.415l1.127-0.359v1.774
			h1.619V32.755z"/>
		<path style="fill:#002D73;" d="M115.242,28.965h1.127v3.754h0.024c0.407-0.647,1.115-1.02,1.967-1.02
			c1.583,0,2.291,0.983,2.291,2.627v3.634h-1.128v-3.166c0-1.428-0.312-2.123-1.295-2.184c-1.283,0-1.859,1.032-1.859,2.519v2.831
			h-1.127V28.965z"/>
		<path style="fill:#002D73;" d="M125.322,34.842c0-2.075,1.571-3.274,3.634-3.274c2.063,0,3.634,1.199,3.634,3.274
			c0,2.062-1.57,3.262-3.634,3.262C126.894,38.104,125.322,36.904,125.322,34.842z M130.359,34.842c0-0.936-0.407-1.764-1.403-1.764
			c-0.995,0-1.403,0.828-1.403,1.764c0,0.923,0.408,1.751,1.403,1.751C129.952,36.593,130.359,35.765,130.359,34.842z"/>
		<path style="fill:#002D73;" d="M133.638,31.711h1.968v1.151h0.023c0.432-0.899,1.296-1.295,2.279-1.295
			c1.703,0,2.387,1.199,2.387,2.494v3.898h-2.159v-3.022c0-1.176-0.408-1.571-0.995-1.571c-0.888,0-1.344,0.611-1.344,1.955v2.639
			h-2.159V31.711z"/>
		<path style="fill:#002D73;" d="M143.525,35.465c0.119,0.864,0.779,1.199,1.835,1.199c0.587,0,1.259-0.132,1.906-0.479v1.523
			c-0.695,0.275-1.486,0.396-2.29,0.396c-2.063,0-3.635-1.211-3.635-3.274c0-2.062,1.403-3.262,3.347-3.262
			c2.314,0,3.154,1.643,3.154,3.502v0.396H143.525z M145.899,34.242c0-0.72-0.336-1.308-1.199-1.308
			c-0.779,0-1.151,0.588-1.199,1.308H145.899z"/>
		<path style="fill:#002D73;" d="M155.057,30.691h-2.159v-1.583h2.159V30.691z M152.897,31.711h2.159v6.249h-2.159V31.711z"/>
		<path style="fill:#002D73;" d="M156.653,31.711h1.968v1.151h0.023c0.432-0.899,1.296-1.295,2.279-1.295
			c1.703,0,2.387,1.199,2.387,2.494v3.898h-2.159v-3.022c0-1.176-0.408-1.571-0.995-1.571c-0.888,0-1.344,0.611-1.344,1.955v2.639
			h-2.159V31.711z"/>
		<path style="fill:#002D73;" d="M164.657,28.965h2.159v3.67h0.024c0.468-0.647,1.151-1.067,2.087-1.067
			c1.703,0,2.387,1.199,2.387,2.494v3.898h-2.159v-3.022c0-1.176-0.408-1.571-0.995-1.571c-0.888,0-1.344,0.611-1.344,1.955v2.639
			h-2.159V28.965z"/>
		<path style="fill:#002D73;" d="M176.751,37.96c-0.012-0.336-0.048-0.66-0.048-0.983h-0.023c-0.492,0.779-1.092,1.127-1.979,1.127
			c-1.235,0-2.339-0.611-2.339-1.967c0-1.907,2.075-2.135,3.227-2.135c0.348,0,0.731,0.036,1.008,0.084
			c-0.013-0.852-0.647-1.079-1.428-1.079c-0.695,0-1.391,0.132-1.99,0.468l-0.036-1.464c0.768-0.312,1.571-0.443,2.494-0.443
			c1.596,0,2.975,0.684,2.975,2.591v2.326c0,0.492,0.024,0.983,0.12,1.476H176.751z M175.265,36.664
			c0.815,0,1.331-0.743,1.331-1.475c-0.276-0.012-0.588-0.036-0.912-0.036c-0.731,0-1.307,0.228-1.307,0.827
			C174.377,36.412,174.761,36.664,175.265,36.664z"/>
		<path style="fill:#002D73;" d="M180.245,28.965h2.159v8.995h-2.159V28.965z"/>
		<path style="fill:#002D73;" d="M188.091,37.96c-0.012-0.336-0.048-0.66-0.048-0.983h-0.023c-0.492,0.779-1.092,1.127-1.979,1.127
			c-1.235,0-2.339-0.611-2.339-1.967c0-1.907,2.075-2.135,3.227-2.135c0.348,0,0.731,0.036,1.008,0.084
			c-0.013-0.852-0.647-1.079-1.428-1.079c-0.695,0-1.391,0.132-1.99,0.468l-0.036-1.464c0.768-0.312,1.571-0.443,2.494-0.443
			c1.596,0,2.975,0.684,2.975,2.591v2.326c0,0.492,0.024,0.983,0.12,1.476H188.091z M186.604,36.664
			c0.815,0,1.331-0.743,1.331-1.475c-0.276-0.012-0.588-0.036-0.912-0.036c-0.731,0-1.307,0.228-1.307,0.827
			C185.717,36.412,186.101,36.664,186.604,36.664z"/>
		<path style="fill:#002D73;" d="M190.782,31.711h1.271v-1.403l2.123-0.659v2.062h1.512v1.512h-1.512v2.303
			c0,0.755,0.18,1.139,0.863,1.139c0.216,0,0.444-0.048,0.66-0.084l0.072,1.403c-0.408,0.048-0.816,0.12-1.355,0.12
			c-1.932,0-2.398-0.852-2.398-2.339v-2.542h-1.235V31.711z"/>
		<path style="fill:#002D73;" d="M199.072,30.691h-2.159v-1.583h2.159V30.691z M196.913,31.711h2.159v6.249h-2.159V31.711z"/>
		<path style="fill:#002D73;" d="M200.369,34.842c0-2.075,1.571-3.274,3.634-3.274c2.063,0,3.634,1.199,3.634,3.274
			c0,2.062-1.57,3.262-3.634,3.262C201.94,38.104,200.369,36.904,200.369,34.842z M205.406,34.842c0-0.936-0.407-1.764-1.403-1.764
			c-0.995,0-1.403,0.828-1.403,1.764c0,0.923,0.408,1.751,1.403,1.751C204.999,36.593,205.406,35.765,205.406,34.842z"/>
		<path style="fill:#002D73;" d="M208.685,31.711h1.968v1.151h0.023c0.432-0.899,1.296-1.295,2.279-1.295
			c1.703,0,2.387,1.199,2.387,2.494v3.898h-2.159v-3.022c0-1.176-0.408-1.571-0.995-1.571c-0.888,0-1.344,0.611-1.344,1.955v2.639
			h-2.159V31.711z"/>
		<path style="fill:#002D73;" d="M216.845,36.017h2.015l-1.175,3.25h-1.644L216.845,36.017z"/>
		<path style="fill:#002D73;" d="M223.732,34.842c0-2.075,1.571-3.274,3.635-3.274c2.062,0,3.634,1.199,3.634,3.274
			c0,2.062-1.571,3.262-3.634,3.262C225.304,38.104,223.732,36.904,223.732,34.842z M228.771,34.842
			c0-0.936-0.408-1.764-1.403-1.764c-0.996,0-1.403,0.828-1.403,1.764c0,0.923,0.407,1.751,1.403,1.751
			C228.362,36.593,228.771,35.765,228.771,34.842z"/>
		<path style="fill:#002D73;" d="M232.049,31.711h1.967v1.151h0.024c0.432-0.899,1.295-1.295,2.278-1.295
			c1.703,0,2.387,1.199,2.387,2.494v3.898h-2.159v-3.022c0-1.176-0.407-1.571-0.995-1.571c-0.888,0-1.343,0.611-1.343,1.955v2.639
			h-2.159V31.711z"/>
		<path style="fill:#002D73;" d="M244.946,33.498c-0.396-0.239-0.792-0.348-1.308-0.348c-0.936,0-1.655,0.647-1.655,1.727
			c0,0.996,0.84,1.644,1.775,1.644c0.491,0,0.983-0.108,1.343-0.3l0.049,1.607c-0.54,0.18-1.188,0.275-1.764,0.275
			c-2.062,0-3.634-1.199-3.634-3.262c0-2.075,1.571-3.274,3.634-3.274c0.647,0,1.224,0.107,1.715,0.348L244.946,33.498z"/>
		<path style="fill:#002D73;" d="M247.936,35.465c0.12,0.864,0.779,1.199,1.835,1.199c0.588,0,1.26-0.132,1.907-0.479v1.523
			c-0.695,0.275-1.487,0.396-2.291,0.396c-2.062,0-3.634-1.211-3.634-3.274c0-2.062,1.403-3.262,3.346-3.262
			c2.315,0,3.154,1.643,3.154,3.502v0.396H247.936z M250.311,34.242c0-0.72-0.336-1.308-1.199-1.308
			c-0.78,0-1.151,0.588-1.199,1.308H250.311z"/>
		<path style="fill:#002D73;" d="M263.772,37.96h-1.99v-1.115h-0.024c-0.275,0.695-1.151,1.259-2.146,1.259
			c-1.859,0-2.854-1.535-2.854-3.382c0-1.535,0.947-3.154,2.675-3.154c0.863,0,1.595,0.228,2.146,0.947h0.024v-3.55h2.17V37.96z
			 M260.295,36.448c0.72,0,1.319-0.684,1.319-1.595c0-0.947-0.528-1.631-1.319-1.631c-0.84,0-1.308,0.72-1.308,1.547
			C258.987,35.765,259.479,36.448,260.295,36.448z"/>
		<path style="fill:#002D73;" d="M269.162,37.96c-0.012-0.336-0.048-0.66-0.048-0.983h-0.023c-0.492,0.779-1.092,1.127-1.979,1.127
			c-1.235,0-2.339-0.611-2.339-1.967c0-1.907,2.075-2.135,3.227-2.135c0.348,0,0.731,0.036,1.008,0.084
			c-0.013-0.852-0.647-1.079-1.428-1.079c-0.695,0-1.391,0.132-1.99,0.468l-0.036-1.464c0.768-0.312,1.571-0.443,2.494-0.443
			c1.596,0,2.975,0.684,2.975,2.591v2.326c0,0.492,0.024,0.983,0.12,1.476H269.162z M267.676,36.664
			c0.815,0,1.331-0.743,1.331-1.475c-0.276-0.012-0.588-0.036-0.912-0.036c-0.731,0-1.307,0.228-1.307,0.827
			C266.788,36.412,267.172,36.664,267.676,36.664z"/>
		<path style="fill:#002D73;" d="M274.815,30.691h-2.159v-1.583h2.159V30.691z M272.656,31.711h2.159v6.249h-2.159V31.711z"/>
		<path style="fill:#002D73;" d="M276.664,28.965h2.159v8.995h-2.159V28.965z"/>
		<path style="fill:#002D73;" d="M280.433,38.835c0.288,0.097,0.552,0.132,0.852,0.132c0.527,0,0.936-0.312,1.091-0.863l-2.53-6.393
			h2.327l1.343,4.078h0.024l1.283-4.078h2.158l-2.29,5.817c-0.612,1.57-1.08,3.094-3.059,3.094c-0.456,0-0.899-0.048-1.344-0.144
			L280.433,38.835z"/>
	</g>
</g>
<g id="A8">
</g>
<g id="Layer_13">
</g>
</svg>
