<?xml version="1.0" encoding="utf-8"?>
<!-- Generator: Adobe Illustrator 19.1.0, SVG Export Plug-In . SVG Version: 6.00 Build 0)  -->
<svg version="1.1" id="Layer_1" xmlns="http://www.w3.org/2000/svg" xmlns:xlink="http://www.w3.org/1999/xlink" x="0px" y="0px"
	 viewBox="0 0 177.2 49.7" style="enable-background:new 0 0 177.2 49.7;" xml:space="preserve">
<style type="text/css">
	.st0{fill:url(#SVGID_2_);}
	.st1{opacity:0.44;fill:url(#SVGID_3_);}
	.st2{opacity:0.74;fill:url(#SVGID_4_);}
	.st3{opacity:0.65;fill:url(#SVGID_5_);}
	.st4{opacity:0.89;fill:url(#SVGID_6_);}
	.st5{fill:#002D73;}
	.st6{fill:none;stroke:#002D73;stroke-miterlimit:10;}
	.st7{opacity:0.5;fill:url(#SVGID_7_);}
	.st8{fill:url(#SVGID_8_);}
	.st9{clip-path:url(#SVGID_9_);fill:none;stroke:#002D73;stroke-width:2.5153;stroke-linecap:round;stroke-miterlimit:10;}
	.st10{fill:url(#SVGID_12_);stroke:#FFFFFF;stroke-width:1.3048;stroke-miterlimit:10;}
	.st11{fill:#FFFFFF;}
	.st12{fill:#231F20;}
	.st13{clip-path:url(#SVGID_14_);fill:#231F20;}
	.st14{clip-path:url(#SVGID_14_);fill:#6FA5D9;}
	.st15{clip-path:url(#SVGID_14_);fill:#007AC1;}
	.st16{fill:#58595B;}
	.st17{clip-path:url(#SVGID_16_);fill:#F27021;}
	.st18{clip-path:url(#SVGID_18_);}
	.st19{clip-path:url(#SVGID_20_);}
	.st20{clip-path:url(#SVGID_24_);}
	.st21{clip-path:url(#SVGID_26_);}
	.st22{clip-path:url(#SVGID_30_);}
	.st23{clip-path:url(#SVGID_32_);}
	.st24{clip-path:url(#SVGID_36_);}
	.st25{clip-path:url(#SVGID_38_);}
	.st26{clip-path:url(#SVGID_42_);}
	.st27{clip-path:url(#SVGID_44_);}
	.st28{clip-path:url(#SVGID_48_);}
	.st29{clip-path:url(#SVGID_50_);}
	.st30{clip-path:url(#SVGID_54_);}
	.st31{clip-path:url(#SVGID_56_);}
	.st32{clip-path:url(#SVGID_58_);}
	.st33{clip-path:url(#SVGID_62_);}
	.st34{clip-path:url(#SVGID_64_);}
	.st35{clip-path:url(#SVGID_66_);}
	.st36{clip-path:url(#SVGID_70_);}
	.st37{clip-path:url(#SVGID_72_);}
	.st38{clip-path:url(#SVGID_74_);}
	.st39{clip-path:url(#SVGID_78_);}
	.st40{clip-path:url(#SVGID_80_);}
	.st41{clip-path:url(#SVGID_82_);}
	.st42{clip-path:url(#SVGID_86_);}
	.st43{clip-path:url(#SVGID_88_);}
	.st44{clip-path:url(#SVGID_92_);}
	.st45{clip-path:url(#SVGID_94_);}
	.st46{clip-path:url(#SVGID_98_);}
	.st47{clip-path:url(#SVGID_100_);}
	.st48{clip-path:url(#SVGID_104_);}
	.st49{clip-path:url(#SVGID_106_);}
	.st50{clip-path:url(#SVGID_110_);}
	.st51{clip-path:url(#SVGID_112_);}
	.st52{clip-path:url(#SVGID_116_);}
	.st53{clip-path:url(#SVGID_118_);}
	.st54{clip-path:url(#SVGID_122_);}
	.st55{clip-path:url(#SVGID_124_);}
	.st56{clip-path:url(#SVGID_128_);}
	.st57{clip-path:url(#SVGID_130_);}
	.st58{clip-path:url(#SVGID_134_);}
	.st59{clip-path:url(#SVGID_136_);}
	.st60{clip-path:url(#SVGID_140_);}
	.st61{clip-path:url(#SVGID_142_);}
	.st62{clip-path:url(#SVGID_146_);}
	.st63{clip-path:url(#SVGID_148_);}
	.st64{clip-path:url(#SVGID_152_);}
	.st65{clip-path:url(#SVGID_154_);}
	.st66{clip-path:url(#SVGID_158_);}
	.st67{clip-path:url(#SVGID_160_);}
	.st68{clip-path:url(#SVGID_164_);}
	.st69{clip-path:url(#SVGID_166_);}
	.st70{clip-path:url(#SVGID_170_);}
	.st71{clip-path:url(#SVGID_172_);}
	.st72{clip-path:url(#SVGID_176_);}
	.st73{clip-path:url(#SVGID_178_);}
	.st74{clip-path:url(#SVGID_182_);}
	.st75{clip-path:url(#SVGID_184_);}
	.st76{clip-path:url(#SVGID_188_);}
	.st77{clip-path:url(#SVGID_190_);}
	.st78{clip-path:url(#SVGID_194_);}
	.st79{clip-path:url(#SVGID_196_);}
	.st80{clip-path:url(#SVGID_200_);}
	.st81{clip-path:url(#SVGID_202_);}
	.st82{clip-path:url(#SVGID_206_);}
	.st83{clip-path:url(#SVGID_208_);}
	.st84{clip-path:url(#SVGID_212_);}
	.st85{clip-path:url(#SVGID_214_);}
	.st86{clip-path:url(#SVGID_218_);}
	.st87{clip-path:url(#SVGID_220_);}
	.st88{clip-path:url(#SVGID_224_);}
	.st89{clip-path:url(#SVGID_226_);}
	.st90{clip-path:url(#SVGID_230_);}
	.st91{clip-path:url(#SVGID_232_);}
	.st92{clip-path:url(#SVGID_236_);}
	.st93{clip-path:url(#SVGID_238_);}
	.st94{clip-path:url(#SVGID_240_);}
	.st95{clip-path:url(#SVGID_244_);}
	.st96{clip-path:url(#SVGID_246_);}
	.st97{clip-path:url(#SVGID_250_);}
	.st98{clip-path:url(#SVGID_252_);}
	.st99{clip-path:url(#SVGID_256_);}
	.st100{clip-path:url(#SVGID_258_);}
	.st101{clip-path:url(#SVGID_262_);}
	.st102{clip-path:url(#SVGID_264_);}
	.st103{clip-path:url(#SVGID_268_);}
	.st104{clip-path:url(#SVGID_270_);}
	.st105{clip-path:url(#SVGID_274_);}
	.st106{clip-path:url(#SVGID_276_);}
	.st107{clip-path:url(#SVGID_280_);}
	.st108{clip-path:url(#SVGID_282_);}
	.st109{clip-path:url(#SVGID_286_);}
	.st110{clip-path:url(#SVGID_288_);}
	.st111{clip-path:url(#SVGID_292_);}
	.st112{clip-path:url(#SVGID_294_);}
	.st113{clip-path:url(#SVGID_298_);}
	.st114{clip-path:url(#SVGID_300_);}
	.st115{clip-path:url(#SVGID_302_);}
	.st116{clip-path:url(#SVGID_306_);}
	.st117{clip-path:url(#SVGID_308_);}
	.st118{clip-path:url(#SVGID_312_);}
	.st119{clip-path:url(#SVGID_314_);}
	.st120{clip-path:url(#SVGID_318_);}
	.st121{clip-path:url(#SVGID_320_);}
	.st122{clip-path:url(#SVGID_324_);}
	.st123{clip-path:url(#SVGID_326_);}
	.st124{clip-path:url(#SVGID_330_);}
	.st125{clip-path:url(#SVGID_332_);}
	.st126{clip-path:url(#SVGID_336_);}
	.st127{clip-path:url(#SVGID_338_);}
	.st128{clip-path:url(#SVGID_342_);}
	.st129{clip-path:url(#SVGID_344_);}
	.st130{clip-path:url(#SVGID_348_);}
	.st131{clip-path:url(#SVGID_350_);}
	.st132{clip-path:url(#SVGID_354_);}
	.st133{clip-path:url(#SVGID_356_);}
	.st134{clip-path:url(#SVGID_360_);}
	.st135{clip-path:url(#SVGID_362_);}
	.st136{clip-path:url(#SVGID_366_);}
	.st137{clip-path:url(#SVGID_368_);}
	.st138{clip-path:url(#SVGID_372_);}
	.st139{clip-path:url(#SVGID_374_);}
	.st140{clip-path:url(#SVGID_378_);}
	.st141{clip-path:url(#SVGID_380_);}
	.st142{clip-path:url(#SVGID_384_);}
	.st143{clip-path:url(#SVGID_386_);}
	.st144{clip-path:url(#SVGID_390_);}
	.st145{clip-path:url(#SVGID_392_);}
	.st146{clip-path:url(#SVGID_396_);}
	.st147{clip-path:url(#SVGID_398_);}
	.st148{clip-path:url(#SVGID_402_);}
	.st149{clip-path:url(#SVGID_404_);}
	.st150{clip-path:url(#SVGID_408_);}
	.st151{clip-path:url(#SVGID_410_);}
	.st152{clip-path:url(#SVGID_414_);}
	.st153{clip-path:url(#SVGID_416_);}
	.st154{clip-path:url(#SVGID_420_);}
	.st155{clip-path:url(#SVGID_422_);}
	.st156{clip-path:url(#SVGID_426_);}
	.st157{clip-path:url(#SVGID_428_);}
	.st158{clip-path:url(#SVGID_432_);}
	.st159{clip-path:url(#SVGID_434_);}
	.st160{clip-path:url(#SVGID_438_);}
	.st161{clip-path:url(#SVGID_440_);}
	.st162{clip-path:url(#SVGID_444_);}
	.st163{clip-path:url(#SVGID_446_);}
	.st164{clip-path:url(#SVGID_450_);}
	.st165{clip-path:url(#SVGID_452_);}
	.st166{clip-path:url(#SVGID_456_);}
	.st167{clip-path:url(#SVGID_458_);}
	.st168{clip-path:url(#SVGID_462_);}
	.st169{clip-path:url(#SVGID_464_);}
	.st170{clip-path:url(#SVGID_468_);}
	.st171{clip-path:url(#SVGID_470_);}
	.st172{clip-path:url(#SVGID_474_);}
	.st173{clip-path:url(#SVGID_476_);}
	.st174{clip-path:url(#SVGID_480_);}
	.st175{clip-path:url(#SVGID_482_);}
	.st176{clip-path:url(#SVGID_486_);}
	.st177{clip-path:url(#SVGID_488_);}
	.st178{clip-path:url(#SVGID_492_);}
	.st179{clip-path:url(#SVGID_494_);}
	.st180{clip-path:url(#SVGID_498_);}
	.st181{clip-path:url(#SVGID_500_);}
	.st182{clip-path:url(#SVGID_504_);}
	.st183{clip-path:url(#SVGID_506_);}
	.st184{clip-path:url(#SVGID_510_);}
	.st185{clip-path:url(#SVGID_512_);}
	.st186{clip-path:url(#SVGID_516_);}
	.st187{clip-path:url(#SVGID_518_);}
	.st188{clip-path:url(#SVGID_522_);}
	.st189{clip-path:url(#SVGID_524_);}
	.st190{clip-path:url(#SVGID_528_);}
	.st191{clip-path:url(#SVGID_530_);}
	.st192{clip-path:url(#SVGID_534_);}
	.st193{clip-path:url(#SVGID_536_);}
	.st194{clip-path:url(#SVGID_540_);}
	.st195{clip-path:url(#SVGID_542_);}
	.st196{clip-path:url(#SVGID_546_);}
	.st197{clip-path:url(#SVGID_548_);}
	.st198{clip-path:url(#SVGID_552_);}
	.st199{clip-path:url(#SVGID_554_);}
	.st200{clip-path:url(#SVGID_558_);}
	.st201{clip-path:url(#SVGID_560_);}
	.st202{clip-path:url(#SVGID_564_);}
	.st203{clip-path:url(#SVGID_566_);}
	.st204{clip-path:url(#SVGID_570_);}
	.st205{clip-path:url(#SVGID_572_);}
	.st206{clip-path:url(#SVGID_576_);}
	.st207{clip-path:url(#SVGID_578_);}
	.st208{clip-path:url(#SVGID_582_);}
	.st209{clip-path:url(#SVGID_584_);}
	.st210{clip-path:url(#SVGID_588_);}
	.st211{clip-path:url(#SVGID_590_);}
	.st212{clip-path:url(#SVGID_594_);}
	.st213{clip-path:url(#SVGID_596_);}
	.st214{clip-path:url(#SVGID_600_);}
	.st215{clip-path:url(#SVGID_602_);}
	.st216{clip-path:url(#SVGID_606_);}
	.st217{clip-path:url(#SVGID_608_);}
	.st218{clip-path:url(#SVGID_612_);}
	.st219{clip-path:url(#SVGID_614_);}
	.st220{clip-path:url(#SVGID_618_);}
	.st221{clip-path:url(#SVGID_620_);}
	.st222{clip-path:url(#SVGID_624_);}
	.st223{clip-path:url(#SVGID_626_);}
	.st224{clip-path:url(#SVGID_630_);}
	.st225{clip-path:url(#SVGID_632_);}
	.st226{clip-path:url(#SVGID_636_);}
	.st227{clip-path:url(#SVGID_638_);}
	.st228{clip-path:url(#SVGID_642_);}
	.st229{clip-path:url(#SVGID_644_);}
	.st230{clip-path:url(#SVGID_648_);}
	.st231{clip-path:url(#SVGID_650_);}
	.st232{clip-path:url(#SVGID_654_);}
	.st233{clip-path:url(#SVGID_656_);}
	.st234{clip-path:url(#SVGID_660_);}
	.st235{clip-path:url(#SVGID_662_);}
	.st236{clip-path:url(#SVGID_666_);}
	.st237{clip-path:url(#SVGID_668_);}
	.st238{clip-path:url(#SVGID_672_);}
	.st239{clip-path:url(#SVGID_674_);}
	.st240{clip-path:url(#SVGID_678_);}
	.st241{clip-path:url(#SVGID_680_);}
	.st242{clip-path:url(#SVGID_684_);}
	.st243{clip-path:url(#SVGID_686_);}
	.st244{clip-path:url(#SVGID_688_);}
	.st245{clip-path:url(#SVGID_692_);}
	.st246{clip-path:url(#SVGID_694_);}
	.st247{clip-path:url(#SVGID_698_);}
	.st248{clip-path:url(#SVGID_700_);}
	.st249{clip-path:url(#SVGID_702_);}
	.st250{clip-path:url(#SVGID_706_);}
	.st251{clip-path:url(#SVGID_708_);}
	.st252{clip-path:url(#SVGID_712_);}
	.st253{clip-path:url(#SVGID_714_);}
	.st254{clip-path:url(#SVGID_716_);}
	.st255{clip-path:url(#SVGID_720_);}
	.st256{clip-path:url(#SVGID_722_);}
	.st257{clip-path:url(#SVGID_724_);}
	.st258{clip-path:url(#SVGID_728_);}
	.st259{clip-path:url(#SVGID_730_);}
	.st260{clip-path:url(#SVGID_732_);}
	.st261{clip-path:url(#SVGID_736_);}
	.st262{clip-path:url(#SVGID_738_);}
	.st263{clip-path:url(#SVGID_740_);}
	.st264{clip-path:url(#SVGID_744_);}
	.st265{clip-path:url(#SVGID_746_);}
	.st266{clip-path:url(#SVGID_748_);}
	.st267{clip-path:url(#SVGID_752_);}
	.st268{clip-path:url(#SVGID_754_);}
	.st269{clip-path:url(#SVGID_758_);}
	.st270{clip-path:url(#SVGID_760_);}
	.st271{clip-path:url(#SVGID_762_);}
	.st272{clip-path:url(#SVGID_766_);}
	.st273{clip-path:url(#SVGID_768_);}
	.st274{clip-path:url(#SVGID_770_);}
	.st275{clip-path:url(#SVGID_774_);}
	.st276{clip-path:url(#SVGID_776_);}
	.st277{clip-path:url(#SVGID_778_);}
	.st278{clip-path:url(#SVGID_782_);}
	.st279{clip-path:url(#SVGID_784_);}
	.st280{clip-path:url(#SVGID_786_);}
	.st281{clip-path:url(#SVGID_790_);}
	.st282{clip-path:url(#SVGID_792_);}
	.st283{clip-path:url(#SVGID_794_);}
	.st284{clip-path:url(#SVGID_798_);}
	.st285{clip-path:url(#SVGID_800_);}
	.st286{clip-path:url(#SVGID_804_);}
	.st287{clip-path:url(#SVGID_806_);}
	.st288{clip-path:url(#SVGID_810_);}
	.st289{clip-path:url(#SVGID_812_);}
	.st290{clip-path:url(#SVGID_816_);}
	.st291{clip-path:url(#SVGID_818_);}
	.st292{clip-path:url(#SVGID_822_);}
	.st293{clip-path:url(#SVGID_824_);}
	.st294{clip-path:url(#SVGID_828_);}
	.st295{clip-path:url(#SVGID_830_);}
	.st296{clip-path:url(#SVGID_834_);}
	.st297{clip-path:url(#SVGID_836_);}
	.st298{clip-path:url(#SVGID_840_);}
	.st299{clip-path:url(#SVGID_842_);}
	.st300{clip-path:url(#SVGID_846_);}
	.st301{clip-path:url(#SVGID_848_);}
	.st302{clip-path:url(#SVGID_852_);}
	.st303{clip-path:url(#SVGID_854_);}
	.st304{clip-path:url(#SVGID_858_);}
	.st305{clip-path:url(#SVGID_860_);}
	.st306{clip-path:url(#SVGID_864_);}
	.st307{clip-path:url(#SVGID_866_);}
	.st308{clip-path:url(#SVGID_870_);}
	.st309{clip-path:url(#SVGID_872_);}
	.st310{clip-path:url(#SVGID_876_);}
	.st311{clip-path:url(#SVGID_878_);}
	.st312{clip-path:url(#SVGID_882_);}
	.st313{clip-path:url(#SVGID_884_);}
	.st314{clip-path:url(#SVGID_888_);}
	.st315{clip-path:url(#SVGID_890_);}
	.st316{clip-path:url(#SVGID_894_);}
	.st317{clip-path:url(#SVGID_896_);}
	.st318{clip-path:url(#SVGID_900_);}
	.st319{clip-path:url(#SVGID_902_);}
	.st320{clip-path:url(#SVGID_906_);}
	.st321{clip-path:url(#SVGID_908_);}
	.st322{clip-path:url(#SVGID_912_);}
	.st323{clip-path:url(#SVGID_914_);}
	.st324{clip-path:url(#SVGID_918_);}
	.st325{clip-path:url(#SVGID_920_);}
	.st326{clip-path:url(#SVGID_924_);}
	.st327{clip-path:url(#SVGID_926_);}
	.st328{clip-path:url(#SVGID_930_);}
	.st329{clip-path:url(#SVGID_932_);}
	.st330{clip-path:url(#SVGID_936_);}
	.st331{clip-path:url(#SVGID_938_);}
	.st332{clip-path:url(#SVGID_942_);}
	.st333{clip-path:url(#SVGID_944_);}
	.st334{clip-path:url(#SVGID_948_);}
	.st335{clip-path:url(#SVGID_950_);}
	.st336{clip-path:url(#SVGID_954_);}
	.st337{clip-path:url(#SVGID_956_);}
	.st338{clip-path:url(#SVGID_960_);}
	.st339{clip-path:url(#SVGID_962_);}
	.st340{clip-path:url(#SVGID_966_);}
	.st341{clip-path:url(#SVGID_968_);}
	.st342{clip-path:url(#SVGID_972_);}
	.st343{clip-path:url(#SVGID_974_);}
	.st344{clip-path:url(#SVGID_978_);}
	.st345{clip-path:url(#SVGID_980_);}
	.st346{clip-path:url(#SVGID_984_);}
	.st347{clip-path:url(#SVGID_986_);}
	.st348{clip-path:url(#SVGID_990_);}
	.st349{clip-path:url(#SVGID_992_);}
	.st350{clip-path:url(#SVGID_994_);}
	.st351{clip-path:url(#SVGID_998_);}
	.st352{clip-path:url(#SVGID_1000_);}
	.st353{clip-path:url(#SVGID_1004_);}
	.st354{clip-path:url(#SVGID_1006_);}
	.st355{clip-path:url(#SVGID_1008_);}
	.st356{clip-path:url(#SVGID_1012_);}
	.st357{clip-path:url(#SVGID_1014_);}
	.st358{clip-path:url(#SVGID_1018_);}
	.st359{clip-path:url(#SVGID_1020_);}
	.st360{clip-path:url(#SVGID_1024_);}
	.st361{clip-path:url(#SVGID_1026_);}
	.st362{clip-path:url(#SVGID_1030_);}
	.st363{clip-path:url(#SVGID_1032_);}
	.st364{clip-path:url(#SVGID_1036_);}
	.st365{clip-path:url(#SVGID_1038_);}
	.st366{clip-path:url(#SVGID_1042_);}
	.st367{clip-path:url(#SVGID_1044_);}
	.st368{clip-path:url(#SVGID_1048_);}
	.st369{clip-path:url(#SVGID_1050_);}
	.st370{clip-path:url(#SVGID_1054_);}
	.st371{clip-path:url(#SVGID_1056_);}
	.st372{clip-path:url(#SVGID_1060_);}
	.st373{clip-path:url(#SVGID_1062_);}
	.st374{clip-path:url(#SVGID_1066_);}
	.st375{clip-path:url(#SVGID_1068_);}
	.st376{clip-path:url(#SVGID_1072_);}
	.st377{clip-path:url(#SVGID_1074_);}
	.st378{clip-path:url(#SVGID_1078_);}
	.st379{clip-path:url(#SVGID_1080_);}
	.st380{clip-path:url(#SVGID_1084_);}
	.st381{clip-path:url(#SVGID_1086_);}
	.st382{clip-path:url(#SVGID_1090_);}
	.st383{clip-path:url(#SVGID_1092_);}
	.st384{clip-path:url(#SVGID_1096_);}
	.st385{clip-path:url(#SVGID_1098_);}
	.st386{clip-path:url(#SVGID_1102_);}
	.st387{clip-path:url(#SVGID_1104_);}
	.st388{clip-path:url(#SVGID_1108_);}
	.st389{clip-path:url(#SVGID_1110_);}
	.st390{clip-path:url(#SVGID_1114_);}
	.st391{clip-path:url(#SVGID_1116_);}
	.st392{clip-path:url(#SVGID_1120_);}
	.st393{clip-path:url(#SVGID_1122_);}
	.st394{clip-path:url(#SVGID_1126_);}
	.st395{clip-path:url(#SVGID_1128_);}
	.st396{clip-path:url(#SVGID_1132_);}
	.st397{clip-path:url(#SVGID_1134_);}
	.st398{clip-path:url(#SVGID_1138_);}
	.st399{clip-path:url(#SVGID_1140_);}
	.st400{clip-path:url(#SVGID_1144_);}
	.st401{clip-path:url(#SVGID_1146_);}
	.st402{clip-path:url(#SVGID_1150_);}
	.st403{clip-path:url(#SVGID_1152_);}
	.st404{clip-path:url(#SVGID_1156_);}
	.st405{clip-path:url(#SVGID_1158_);}
	.st406{clip-path:url(#SVGID_1162_);}
	.st407{clip-path:url(#SVGID_1164_);}
	.st408{clip-path:url(#SVGID_1168_);}
	.st409{clip-path:url(#SVGID_1170_);}
	.st410{clip-path:url(#SVGID_1174_);}
	.st411{clip-path:url(#SVGID_1176_);}
	.st412{clip-path:url(#SVGID_1180_);}
	.st413{clip-path:url(#SVGID_1182_);}
	.st414{clip-path:url(#SVGID_1186_);}
	.st415{clip-path:url(#SVGID_1188_);}
	.st416{clip-path:url(#SVGID_1192_);}
	.st417{clip-path:url(#SVGID_1194_);}
	.st418{clip-path:url(#SVGID_1198_);}
	.st419{clip-path:url(#SVGID_1200_);}
	.st420{clip-path:url(#SVGID_1204_);}
	.st421{clip-path:url(#SVGID_1206_);}
	.st422{clip-path:url(#SVGID_1210_);}
	.st423{clip-path:url(#SVGID_1212_);}
	.st424{clip-path:url(#SVGID_1216_);}
	.st425{clip-path:url(#SVGID_1218_);}
	.st426{clip-path:url(#SVGID_1222_);}
	.st427{clip-path:url(#SVGID_1224_);}
	.st428{clip-path:url(#SVGID_1228_);}
	.st429{clip-path:url(#SVGID_1230_);}
	.st430{clip-path:url(#SVGID_1234_);}
	.st431{clip-path:url(#SVGID_1236_);}
	.st432{clip-path:url(#SVGID_1240_);}
	.st433{clip-path:url(#SVGID_1242_);}
	.st434{clip-path:url(#SVGID_1246_);}
	.st435{clip-path:url(#SVGID_1248_);}
	.st436{clip-path:url(#SVGID_1252_);}
	.st437{clip-path:url(#SVGID_1254_);}
	.st438{clip-path:url(#SVGID_1258_);}
	.st439{clip-path:url(#SVGID_1260_);}
	.st440{clip-path:url(#SVGID_1264_);}
	.st441{clip-path:url(#SVGID_1266_);}
	.st442{clip-path:url(#SVGID_1270_);}
	.st443{clip-path:url(#SVGID_1272_);}
	.st444{clip-path:url(#SVGID_1276_);}
	.st445{clip-path:url(#SVGID_1278_);}
	.st446{clip-path:url(#SVGID_1282_);}
	.st447{clip-path:url(#SVGID_1284_);}
	.st448{clip-path:url(#SVGID_1288_);}
	.st449{clip-path:url(#SVGID_1290_);}
	.st450{clip-path:url(#SVGID_1294_);}
	.st451{clip-path:url(#SVGID_1296_);}
	.st452{clip-path:url(#SVGID_1300_);}
	.st453{clip-path:url(#SVGID_1302_);}
	.st454{clip-path:url(#SVGID_1306_);}
	.st455{clip-path:url(#SVGID_1308_);}
	.st456{clip-path:url(#SVGID_1312_);}
	.st457{clip-path:url(#SVGID_1314_);}
	.st458{clip-path:url(#SVGID_1318_);}
	.st459{clip-path:url(#SVGID_1320_);}
	.st460{clip-path:url(#SVGID_1324_);}
	.st461{clip-path:url(#SVGID_1326_);}
	.st462{clip-path:url(#SVGID_1330_);}
	.st463{clip-path:url(#SVGID_1332_);}
	.st464{clip-path:url(#SVGID_1336_);}
	.st465{clip-path:url(#SVGID_1338_);}
	.st466{clip-path:url(#SVGID_1340_);}
	.st467{clip-path:url(#SVGID_1344_);}
	.st468{clip-path:url(#SVGID_1346_);}
	.st469{clip-path:url(#SVGID_1350_);}
	.st470{clip-path:url(#SVGID_1352_);}
	.st471{clip-path:url(#SVGID_1356_);}
	.st472{clip-path:url(#SVGID_1358_);}
	.st473{clip-path:url(#SVGID_1362_);}
	.st474{clip-path:url(#SVGID_1364_);}
	.st475{clip-path:url(#SVGID_1368_);}
	.st476{clip-path:url(#SVGID_1370_);}
	.st477{clip-path:url(#SVGID_1374_);}
	.st478{clip-path:url(#SVGID_1376_);}
	.st479{clip-path:url(#SVGID_1380_);}
	.st480{clip-path:url(#SVGID_1382_);}
	.st481{clip-path:url(#SVGID_1386_);}
	.st482{clip-path:url(#SVGID_1388_);}
	.st483{clip-path:url(#SVGID_1392_);}
	.st484{clip-path:url(#SVGID_1394_);}
	.st485{clip-path:url(#SVGID_1398_);}
	.st486{clip-path:url(#SVGID_1400_);}
	.st487{clip-path:url(#SVGID_1404_);}
	.st488{clip-path:url(#SVGID_1406_);}
	.st489{clip-path:url(#SVGID_1410_);}
	.st490{clip-path:url(#SVGID_1412_);}
	.st491{clip-path:url(#SVGID_1416_);}
	.st492{clip-path:url(#SVGID_1418_);}
	.st493{clip-path:url(#SVGID_1420_);}
	.st494{clip-path:url(#SVGID_1424_);}
	.st495{clip-path:url(#SVGID_1426_);}
	.st496{clip-path:url(#SVGID_1428_);}
	.st497{clip-path:url(#SVGID_1432_);}
	.st498{clip-path:url(#SVGID_1434_);}
	.st499{clip-path:url(#SVGID_1438_);}
	.st500{clip-path:url(#SVGID_1440_);}
	.st501{clip-path:url(#SVGID_1442_);}
	.st502{clip-path:url(#SVGID_1446_);}
	.st503{clip-path:url(#SVGID_1448_);}
	.st504{clip-path:url(#SVGID_1450_);}
	.st505{clip-path:url(#SVGID_1454_);}
	.st506{clip-path:url(#SVGID_1456_);}
	.st507{clip-path:url(#SVGID_1458_);}
	.st508{clip-path:url(#SVGID_1462_);}
	.st509{clip-path:url(#SVGID_1464_);}
	.st510{clip-path:url(#SVGID_1468_);}
	.st511{clip-path:url(#SVGID_1470_);}
	.st512{clip-path:url(#SVGID_1474_);}
	.st513{clip-path:url(#SVGID_1476_);}
	.st514{clip-path:url(#SVGID_1480_);}
	.st515{clip-path:url(#SVGID_1482_);}
	.st516{clip-path:url(#SVGID_1486_);}
	.st517{clip-path:url(#SVGID_1488_);}
	.st518{clip-path:url(#SVGID_1492_);fill:#FFFFFF;}
	.st519{clip-path:url(#SVGID_1494_);}
	.st520{opacity:0.66;clip-path:url(#SVGID_1498_);}
	.st521{opacity:0.66;}
	.st522{clip-path:url(#SVGID_1500_);fill:#FFFFFF;}
	.st523{clip-path:url(#SVGID_1498_);}
	.st524{clip-path:url(#SVGID_1502_);}
</style>
<g>
	<path class="st5" d="M21.9,0.6h3.5c1.4,0,2.5,0.6,2.5,1.9c0,1-0.5,1.5-1.4,1.8v0c1,0.2,1.6,0.8,1.6,1.7c0,1.8-1.6,2.2-3,2.2h-3.2
		V0.6z M23.9,3.6h0.6c0.7,0,1.4-0.2,1.4-0.8c0-0.7-0.7-0.8-1.3-0.8h-0.6V3.6z M23.9,6.8h0.6c0.7,0,1.5-0.1,1.5-0.9
		C26,5.1,25.2,5,24.5,5h-0.6V6.8z"/>
	<path class="st5" d="M29.2,0.6h3.7c1.4,0,2.5,0.6,2.5,1.9c0,1-0.5,1.7-1.5,1.9v0c0.7,0.2,0.7,0.8,1.1,1.7l0.7,2.1h-2.1l-0.4-1.4
		c-0.4-1.3-0.7-1.7-1.4-1.7h-0.4v3h-2V0.6z M31.2,3.8h0.5c0.7,0,1.5,0,1.5-0.9c0-0.7-0.7-0.8-1.5-0.8h-0.5V3.8z"/>
	<path class="st5" d="M36.5,0.6h5.4V2h-3.4v1.6h3.2v1.5h-3.2v1.7h3.5v1.5h-5.5V0.6z"/>
	<path class="st5" d="M46.9,0.4c2.5,0,3.9,1.5,3.9,4c0,2.4-1.3,4-3.9,4S43,6.9,43,4.4C43,1.9,44.3,0.4,46.9,0.4z M46.9,6.9
		c1.2,0,1.7-1.2,1.7-2.5c0-1.3-0.5-2.5-1.7-2.5s-1.7,1.1-1.7,2.5C45.1,5.7,45.6,6.9,46.9,6.9z"/>
	<path class="st5" d="M56.3,1.4h-1.2V0.2h1.2V1.4z M55.2,2.6h1v5.6h-1V2.6z"/>
	<path class="st5" d="M57.7,7.2c0.4,0.3,1,0.4,1.3,0.4c0.5,0,1.1-0.2,1.1-0.8c0-1-2.4-0.9-2.4-2.5c0-1.2,0.9-1.7,2-1.7
		c0.5,0,0.9,0.1,1.3,0.2l-0.1,0.9c-0.2-0.1-0.8-0.3-1.1-0.3c-0.5,0-1,0.2-1,0.7c0,1.1,2.4,0.8,2.4,2.6c0,1.2-1,1.7-2,1.7
		c-0.5,0-1.1-0.1-1.5-0.3L57.7,7.2z"/>
	<path class="st5" d="M68.5,3.5H67v3.1c0,0.6,0.4,1,0.9,1c0.3,0,0.5-0.1,0.7-0.2v0.9c-0.2,0.1-0.6,0.2-0.9,0.2
		c-1.1,0-1.7-0.5-1.7-1.6V3.5h-1.3V2.6H66V1.3L67,1v1.6h1.5V3.5z"/>
	<path class="st5" d="M69.8,0h1v3.4h0c0.4-0.6,1-0.9,1.8-0.9c1.5,0,2.1,0.9,2.1,2.4v3.3h-1V5.3c0-1.3-0.3-1.9-1.2-2
		c-1.2,0-1.7,0.9-1.7,2.3v2.6h-1V0z"/>
	<path class="st5" d="M80.8,8c-0.4,0.1-0.8,0.4-1.8,0.4c-2,0-2.9-1.2-2.9-3c0-1.7,1-2.8,2.6-2.8c1.9,0,2.5,1.4,2.5,3.2h-4
		c0,1.1,0.9,1.9,1.8,1.9c0.7,0,1.5-0.4,1.7-0.6V8z M80.1,4.9c0-0.9-0.5-1.6-1.4-1.6c-1,0-1.4,0.8-1.5,1.6H80.1z"/>
	<path class="st5" d="M88.1,2.5c1.7,0,2.8,1.2,2.8,2.9c0,1.6-1.2,2.9-2.8,2.9c-1.7,0-2.9-1.3-2.9-2.9C85.3,3.7,86.4,2.5,88.1,2.5z
		 M88.1,7.5c1.2,0,1.7-1.1,1.7-2.1c0-1.1-0.6-2.1-1.7-2.1c-1.1,0-1.8,1-1.8,2.1C86.4,6.4,86.9,7.5,88.1,7.5z"/>
	<path class="st5" d="M92.4,2.6h1v0.9h0c0.3-0.6,1.1-1,1.8-1c1.5,0,2.1,0.9,2.1,2.4v3.3h-1V5.3c0-1.3-0.3-1.9-1.2-2
		c-1.2,0-1.7,0.9-1.7,2.3v2.6h-1V2.6z"/>
	<path class="st5" d="M99.2,0h1v8.3h-1V0z"/>
	<path class="st5" d="M101.7,9.8c0.1,0,0.3,0.1,0.5,0.1c0.9,0,1.2-1.3,1.2-1.4c0-0.1-0.1-0.4-0.2-0.6l-1.9-5.2h1.1l1.5,4.6h0
		l1.5-4.6h1l-2.1,5.7c-0.4,1.1-0.8,2.3-2.2,2.3c-0.3,0-0.5,0-0.7-0.1L101.7,9.8z"/>
	<path class="st5" d="M110.8,0.6h1.1v7.7h-1.1V0.6z"/>
	<path class="st5" d="M119.2,1.8c-0.5-0.3-1-0.4-1.6-0.4c-1.8,0-2.9,1.3-2.9,3c0,1.8,1.3,3,2.9,3c0.6,0,1.3-0.1,1.7-0.4l0.1,1.1
		c-0.6,0.2-1.3,0.3-1.7,0.3c-2.4,0-4-1.6-4-4c0-2.4,1.7-3.9,4.1-3.9c0.6,0,1.2,0.1,1.7,0.3L119.2,1.8z"/>
	<path class="st5" d="M124.1,1.7c-0.6-0.2-0.9-0.3-1.4-0.3c-0.6,0-1.3,0.2-1.3,1c0,1.5,3.3,1.1,3.3,3.7c0,1.6-1.3,2.3-2.8,2.3
		c-0.5,0-1.1-0.2-1.6-0.3l0.1-1c0.4,0.2,1,0.4,1.6,0.4c0.6,0,1.5-0.4,1.5-1.3c0-1.7-3.3-1.2-3.3-3.6c0-1.4,1.1-2.1,2.5-2.1
		c0.5,0,1.1,0.1,1.6,0.3L124.1,1.7z"/>
	<path class="st5" d="M127.5,0.4h1l-2.6,7.9h-1L127.5,0.4z"/>
	<path class="st5" d="M129.1,0.6h1.1v6.7h3.2v1h-4.3V0.6z"/>
	<path class="st5" d="M137.1,0.6h1.2l3.2,7.7h-1.2l-0.8-1.9h-3.8L135,8.3h-1.2L137.1,0.6z M137.6,1.6l-1.5,3.8h3.1L137.6,1.6z"/>
	<path class="st5" d="M142.5,0.6h2.1c1.6,0,2.7,0.5,2.7,1.9c0,1.1-0.6,1.6-1.6,1.8v0c1,0.1,1.8,0.8,1.8,1.8c0,1.7-1.4,2-2.9,2h-2
		V0.6z M143.6,3.9h0.6c1.1,0,2-0.1,2-1.2c0-0.9-0.8-1.1-1.4-1.1h-1.2V3.9z M143.6,7.3h0.8c1,0,1.9-0.2,1.9-1.2c0-1.2-1-1.4-2-1.4
		h-0.7V7.3z"/>
	<path class="st5" d="M151.7,0.6h1.2l3.2,7.7H155l-0.8-1.9h-3.8l-0.8,1.9h-1.2L151.7,0.6z M152.3,1.6l-1.5,3.8h3.1L152.3,1.6z"/>
	<path class="st5" d="M3.8,16.5H2.3v3.1c0,0.6,0.4,1,0.9,1c0.3,0,0.5-0.1,0.7-0.2v0.9c-0.2,0.1-0.6,0.2-0.9,0.2
		c-1.1,0-1.7-0.5-1.7-1.6v-3.3H0v-0.8h1.3v-1.3l1-0.3v1.6h1.5V16.5z"/>
	<path class="st5" d="M5.1,13h1v3.4h0c0.4-0.6,1-0.9,1.8-0.9c1.5,0,2.1,0.9,2.1,2.4v3.3H9v-2.9c0-1.3-0.3-1.9-1.2-2
		c-1.2,0-1.7,0.9-1.7,2.3v2.6h-1V13z"/>
	<path class="st5" d="M12.1,16c0.5-0.3,1.1-0.5,1.8-0.5c1.6,0,2.3,0.8,2.3,2.3v2.3c0,0.6,0,0.9,0,1.1h-1v-0.7h0
		c-0.2,0.3-0.8,0.9-1.7,0.9c-1.2,0-2.1-0.5-2.1-1.7c0-1.4,1.5-1.8,2.6-1.8c0.4,0,0.7,0,1.1,0c0-1-0.4-1.5-1.4-1.5
		c-0.6,0-1.2,0.2-1.6,0.6L12.1,16z M15.1,18.6c-0.2,0-0.4,0-0.7,0c-0.6,0-1.9,0.1-1.9,1.1c0,0.6,0.6,0.9,1,0.9c1,0,1.6-0.6,1.6-1.5
		V18.6z"/>
	<path class="st5" d="M20.9,16.5h-1.5v3.1c0,0.6,0.4,1,0.9,1c0.3,0,0.5-0.1,0.7-0.2v0.9c-0.2,0.1-0.6,0.2-0.9,0.2
		c-1.1,0-1.7-0.5-1.7-1.6v-3.3h-1.3v-0.8h1.3v-1.3l1-0.3v1.6h1.5V16.5z"/>
	<path class="st5" d="M29.2,20.5L29.2,20.5c-0.3,0.4-0.9,0.9-1.9,0.9c-1.7,0-2.4-1.5-2.4-3c0-1.5,0.8-2.8,2.4-2.8
		c1,0,1.5,0.4,1.9,0.9h0V13h1v8.3h-1V20.5z M27.5,20.5c1.2,0,1.7-1.2,1.7-2.1c0-1-0.5-2.1-1.7-2.1S26,17.4,26,18.4
		C26,19.3,26.4,20.5,27.5,20.5z"/>
	<path class="st5" d="M36.3,21c-0.4,0.1-0.8,0.4-1.8,0.4c-2,0-2.9-1.2-2.9-3c0-1.7,1-2.8,2.6-2.8c1.9,0,2.5,1.4,2.5,3.2h-4
		c0,1.1,0.9,1.9,1.8,1.9c0.7,0,1.5-0.4,1.7-0.6V21z M35.6,17.9c0-0.9-0.5-1.6-1.4-1.6c-1,0-1.4,0.8-1.5,1.6H35.6z"/>
	<path class="st5" d="M38.2,13h1v8.3h-1V13z"/>
	<path class="st5" d="M42.4,14.4h-1.2v-1.2h1.2V14.4z M41.3,15.6h1v5.6h-1V15.6z"/>
	<path class="st5" d="M46.7,21.3h-1.2l-2-5.6h1.1l1.5,4.6h0l1.6-4.6h1L46.7,21.3z"/>
	<path class="st5" d="M54,21c-0.4,0.1-0.8,0.4-1.8,0.4c-2,0-2.9-1.2-2.9-3c0-1.7,1-2.8,2.6-2.8c1.9,0,2.5,1.4,2.5,3.2h-4
		c0,1.1,0.9,1.9,1.8,1.9c0.7,0,1.5-0.4,1.7-0.6V21z M53.3,17.9c0-0.9-0.5-1.6-1.4-1.6c-1,0-1.4,0.8-1.5,1.6H53.3z"/>
	<path class="st5" d="M55.8,15.6h1v0.9h0c0.3-0.6,0.9-1,1.5-1c0.3,0,0.5,0,0.7,0.1v0.9c-0.2-0.1-0.4-0.1-0.6-0.1
		c-0.9,0-1.5,0.9-1.5,2.3v2.6h-1V15.6z"/>
	<path class="st5" d="M59.7,20.2c0.4,0.3,1,0.4,1.3,0.4c0.5,0,1.1-0.2,1.1-0.8c0-1-2.4-0.9-2.4-2.5c0-1.2,0.9-1.7,2-1.7
		c0.5,0,0.9,0.1,1.3,0.2l-0.1,0.9c-0.2-0.1-0.8-0.3-1.1-0.3c-0.5,0-1,0.2-1,0.7c0,1.1,2.4,0.8,2.4,2.6c0,1.2-1,1.7-2,1.7
		c-0.5,0-1.1-0.1-1.5-0.3L59.7,20.2z"/>
	<path class="st5" d="M67,19.8c1.6-1.4,3.4-2.8,3.4-3.9c0-0.7-0.5-1-1.1-1c-0.7,0-1.5,0.3-2,0.5l-0.1-1.6c1.1-0.4,1.8-0.5,2.3-0.5
		c1.7,0,2.9,0.7,2.9,2.3c0,1.5-1.6,3-2.3,3.6l-0.6,0.5h3v1.5H67V19.8z"/>
	<path class="st5" d="M76.8,19.8h-3.4v-1.6l3.1-4.6h2.3v4.8h1.1v1.4h-1.1v1.5h-1.9V19.8z M76.9,15.2L76.9,15.2l-2.1,3.2h2.1V15.2z"
		/>
	<path class="st5" d="M80.4,17.6h3V19h-3V17.6z"/>
	<path class="st5" d="M84.3,13h2v3.4h0c0.4-0.6,1.1-1,1.9-1c1.6,0,2.2,1.1,2.2,2.3v3.6h-2v-2.8c0-1.1-0.4-1.4-0.9-1.4
		c-0.8,0-1.2,0.6-1.2,1.8v2.4h-2V13z"/>
	<path class="st5" d="M91.4,18.4c0-1.9,1.4-3,3.3-3c1.9,0,3.3,1.1,3.3,3c0,1.9-1.4,3-3.3,3C92.8,21.4,91.4,20.3,91.4,18.4z M96,18.4
		c0-0.9-0.4-1.6-1.3-1.6c-0.9,0-1.3,0.8-1.3,1.6c0,0.8,0.4,1.6,1.3,1.6C95.6,20,96,19.2,96,18.4z"/>
	<path class="st5" d="M105.1,21.3h-1.8v-1.1h0c-0.4,0.8-1.2,1.2-2.1,1.2c-1.6,0-2.2-1.1-2.2-2.3v-3.6h2v2.8c0,1.1,0.4,1.4,0.9,1.4
		c0.8,0,1.2-0.6,1.2-1.8v-2.4h2V21.3z"/>
	<path class="st5" d="M110.4,17.1c-0.2-0.1-0.4-0.1-0.7-0.1c-0.9,0-1.4,0.7-1.4,1.8v2.4h-2v-5.7h1.8v1.1h0c0.3-0.7,0.8-1.2,1.7-1.2
		c0.2,0,0.5,0,0.7,0.1L110.4,17.1z"/>
	<path class="st5" d="M119.1,17.2c-0.4-0.2-0.7-0.3-1.2-0.3c-0.9,0-1.5,0.6-1.5,1.6c0,0.9,0.8,1.5,1.6,1.5c0.5,0,0.9-0.1,1.2-0.3
		l0,1.5c-0.5,0.2-1.1,0.3-1.6,0.3c-1.9,0-3.3-1.1-3.3-3c0-1.9,1.4-3,3.3-3c0.6,0,1.1,0.1,1.6,0.3L119.1,17.2z"/>
	<path class="st5" d="M119.8,18.4c0-1.9,1.4-3,3.3-3c1.9,0,3.3,1.1,3.3,3c0,1.9-1.4,3-3.3,3C121.2,21.4,119.8,20.3,119.8,18.4z
		 M124.4,18.4c0-0.9-0.4-1.6-1.3-1.6c-0.9,0-1.3,0.8-1.3,1.6c0,0.8,0.4,1.6,1.3,1.6C124,20,124.4,19.2,124.4,18.4z"/>
	<path class="st5" d="M127.4,15.5h1.8v1.1h0c0.4-0.8,1.2-1.2,2.1-1.2c1.6,0,2.2,1.1,2.2,2.3v3.6h-2v-2.8c0-1.1-0.4-1.4-0.9-1.4
		c-0.8,0-1.2,0.6-1.2,1.8v2.4h-2V15.5z"/>
	<path class="st5" d="M134.3,15.5h1.2v-1.3l1.9-0.6v1.9h1.4v1.4h-1.4V19c0,0.7,0.2,1,0.8,1c0.2,0,0.4,0,0.6-0.1l0.1,1.3
		c-0.4,0-0.7,0.1-1.2,0.1c-1.8,0-2.2-0.8-2.2-2.1v-2.3h-1.1V15.5z"/>
	<path class="st5" d="M141.9,14.6h-2v-1.5h2V14.6z M139.9,15.5h2v5.7h-2V15.5z"/>
	<path class="st5" d="M143.3,15.5h1.8v1.1h0c0.4-0.8,1.2-1.2,2.1-1.2c1.6,0,2.2,1.1,2.2,2.3v3.6h-2v-2.8c0-1.1-0.4-1.4-0.9-1.4
		c-0.8,0-1.2,0.6-1.2,1.8v2.4h-2V15.5z"/>
	<path class="st5" d="M156.8,21.3H155v-1.1h0c-0.4,0.8-1.2,1.2-2.1,1.2c-1.6,0-2.2-1.1-2.2-2.3v-3.6h2v2.8c0,1.1,0.4,1.4,0.9,1.4
		c0.8,0,1.2-0.6,1.2-1.8v-2.4h2V21.3z"/>
	<path class="st5" d="M157.7,18.4c0-1.9,1.4-3,3.3-3c1.9,0,3.3,1.1,3.3,3c0,1.9-1.4,3-3.3,3C159.2,21.4,157.7,20.3,157.7,18.4z
		 M162.3,18.4c0-0.9-0.4-1.6-1.3-1.6c-0.9,0-1.3,0.8-1.3,1.6c0,0.8,0.4,1.6,1.3,1.6C162,20,162.3,19.2,162.3,18.4z"/>
	<path class="st5" d="M171.4,21.3h-1.8v-1.1h0c-0.4,0.8-1.2,1.2-2.1,1.2c-1.6,0-2.2-1.1-2.2-2.3v-3.6h2v2.8c0,1.1,0.4,1.4,0.9,1.4
		c0.8,0,1.2-0.6,1.2-1.8v-2.4h2V21.3z"/>
	<path class="st5" d="M172.6,19.7c0.5,0.2,1.1,0.4,1.9,0.4c0.4,0,0.8-0.1,0.8-0.5c0-1-2.8-0.3-2.8-2.4c0-1.3,1.3-1.9,2.4-1.9
		c0.7,0,1.4,0.1,2,0.3l-0.2,1.4c-0.4-0.3-1-0.4-1.5-0.4c-0.4,0-0.9,0.1-0.9,0.4c0,0.9,2.9,0.2,2.9,2.4c0,1.5-1.4,1.9-2.7,1.9
		c-0.9,0-1.5-0.1-2.1-0.3L172.6,19.7z"/>
	<path class="st5" d="M7,26h2v8.3H7V26z"/>
	<path class="st5" d="M16.6,34.3h-1.8v-1.1h0c-0.4,0.8-1.2,1.2-2.1,1.2c-1.6,0-2.2-1.1-2.2-2.3v-3.6h2v2.8c0,1.1,0.4,1.4,0.9,1.4
		c0.8,0,1.2-0.6,1.2-1.8v-2.4h2V34.3z"/>
	<path class="st5" d="M17.8,28.5h1.8v1.1h0c0.4-0.8,1.2-1.2,2.1-1.2c1.6,0,2.2,1.1,2.2,2.3v3.6h-2v-2.8c0-1.1-0.4-1.4-0.9-1.4
		c-0.8,0-1.2,0.6-1.2,1.8v2.4h-2V28.5z"/>
	<path class="st5" d="M31.2,33.6c0,2.4-1.1,3.1-3.5,3.1c-0.9,0-1.7-0.2-2.2-0.4l0.1-1.6c0.6,0.3,1.1,0.5,1.9,0.5
		c1.1,0,1.8-0.5,1.8-1.7v-0.3h0c-0.5,0.7-1.1,1-1.9,1c-1.6,0-2.6-1.2-2.6-2.9c0-1.7,0.8-3,2.6-3c0.8,0,1.5,0.5,1.9,1.2h0v-1h1.8
		V33.6z M28.1,32.7c0.7,0,1.3-0.6,1.3-1.5c0-0.6-0.4-1.4-1.3-1.4c-0.7,0-1.1,0.6-1.1,1.4C26.9,32.2,27.5,32.7,28.1,32.7z"/>
	<path class="st5" d="M36.6,29.9h-1.2v-1.4h1.2v-0.4c0-1.7,0.8-2.3,2.4-2.3c0.4,0,0.8,0.1,1,0.1l-0.1,1.4c-0.2-0.1-0.3-0.1-0.6-0.1
		c-0.5,0-0.7,0.4-0.7,0.9v0.4H40v1.4h-1.4v4.3h-2V29.9z"/>
	<path class="st5" d="M46.9,34.3h-1.8v-1.1h0c-0.4,0.8-1.2,1.2-2.1,1.2c-1.6,0-2.2-1.1-2.2-2.3v-3.6h2v2.8c0,1.1,0.4,1.4,0.9,1.4
		c0.8,0,1.2-0.6,1.2-1.8v-2.4h2V34.3z"/>
	<path class="st5" d="M48.1,28.5h1.8v1.1h0c0.4-0.8,1.2-1.2,2.1-1.2c1.6,0,2.2,1.1,2.2,2.3v3.6h-2v-2.8c0-1.1-0.4-1.4-0.9-1.4
		c-0.8,0-1.2,0.6-1.2,1.8v2.4h-2V28.5z"/>
	<path class="st5" d="M59.9,30.2c-0.4-0.2-0.7-0.3-1.2-0.3c-0.9,0-1.5,0.6-1.5,1.6c0,0.9,0.8,1.5,1.6,1.5c0.5,0,0.9-0.1,1.2-0.3
		l0,1.5c-0.5,0.2-1.1,0.3-1.6,0.3c-1.9,0-3.3-1.1-3.3-3c0-1.9,1.4-3,3.3-3c0.6,0,1.1,0.1,1.6,0.3L59.9,30.2z"/>
	<path class="st5" d="M60.4,28.5h1.2v-1.3l1.9-0.6v1.9h1.4v1.4h-1.4V32c0,0.7,0.2,1,0.8,1c0.2,0,0.4,0,0.6-0.1l0.1,1.3
		c-0.4,0-0.7,0.1-1.2,0.1c-1.8,0-2.2-0.8-2.2-2.1v-2.3h-1.1V28.5z"/>
	<path class="st5" d="M68,27.6h-2v-1.5h2V27.6z M66,28.5h2v5.7h-2V28.5z"/>
	<path class="st5" d="M69.2,31.4c0-1.9,1.4-3,3.3-3c1.9,0,3.3,1.1,3.3,3c0,1.9-1.4,3-3.3,3C70.7,34.4,69.2,33.3,69.2,31.4z
		 M73.8,31.4c0-0.9-0.4-1.6-1.3-1.6c-0.9,0-1.3,0.8-1.3,1.6c0,0.8,0.4,1.6,1.3,1.6C73.5,33,73.8,32.2,73.8,31.4z"/>
	<path class="st5" d="M76.8,28.5h1.8v1.1h0c0.4-0.8,1.2-1.2,2.1-1.2c1.6,0,2.2,1.1,2.2,2.3v3.6h-2v-2.8c0-1.1-0.4-1.4-0.9-1.4
		c-0.8,0-1.2,0.6-1.2,1.8v2.4h-2V28.5z"/>
	<path class="st5" d="M89.8,27.6h-2v-1.5h2V27.6z M87.8,28.5h2v5.7h-2V28.5z"/>
	<path class="st5" d="M91.2,28.5H93v1.1h0c0.4-0.8,1.2-1.2,2.1-1.2c0.8,0,1.5,0.4,1.8,1.1c0.5-0.8,1.2-1.1,2-1.1c1.6,0,2,0.9,2,2.5
		v3.4h-2v-3.1c0-0.6-0.2-1.1-0.8-1.1c-0.7,0-1.1,0.6-1.1,1.8v2.4h-2v-3.1c0-0.6-0.2-1.1-0.8-1.1c-0.7,0-1.1,0.6-1.1,1.8v2.4h-2V28.5
		z"/>
	<path class="st5" d="M102.2,28.5h1.8v1h0c0.4-0.8,1.2-1.2,2.1-1.2c1.6,0,2.5,1.5,2.5,2.9c0,1.7-0.9,3.1-2.6,3.1
		c-0.7,0-1.4-0.3-1.8-0.9h0v3.1h-2V28.5z M105.4,29.9c-0.7,0-1.2,0.6-1.2,1.5c0,0.8,0.6,1.5,1.2,1.5c0.7,0,1.2-0.6,1.2-1.5
		C106.6,30.6,106.1,29.9,105.4,29.9z"/>
	<path class="st5" d="M113.7,30.1c-0.2-0.1-0.4-0.1-0.7-0.1c-0.9,0-1.4,0.7-1.4,1.8v2.4h-2v-5.7h1.8v1.1h0c0.3-0.7,0.8-1.2,1.7-1.2
		c0.2,0,0.5,0,0.7,0.1L113.7,30.1z"/>
	<path class="st5" d="M114.2,31.4c0-1.9,1.4-3,3.3-3c1.9,0,3.3,1.1,3.3,3c0,1.9-1.4,3-3.3,3C115.6,34.4,114.2,33.3,114.2,31.4z
		 M118.8,31.4c0-0.9-0.4-1.6-1.3-1.6c-0.9,0-1.3,0.8-1.3,1.6c0,0.8,0.4,1.6,1.3,1.6C118.4,33,118.8,32.2,118.8,31.4z"/>
	<path class="st5" d="M121.3,28.5h2.1l1.2,4.1h0l1.2-4.1h2l-2.1,5.7h-2.3L121.3,28.5z"/>
	<path class="st5" d="M130.2,32c0.1,0.8,0.7,1.1,1.7,1.1c0.5,0,1.2-0.1,1.7-0.4V34c-0.6,0.3-1.4,0.4-2.1,0.4c-1.9,0-3.3-1.1-3.3-3
		s1.3-3,3.1-3c2.1,0,2.9,1.5,2.9,3.2V32H130.2z M132.4,30.8c0-0.7-0.3-1.2-1.1-1.2c-0.7,0-1.1,0.5-1.1,1.2H132.4z"/>
	<path class="st5" d="M135.2,28.5h1.8v1.1h0c0.4-0.8,1.2-1.2,2.1-1.2c0.8,0,1.5,0.4,1.8,1.1c0.5-0.8,1.2-1.1,2-1.1
		c1.6,0,2,0.9,2,2.5v3.4h-2v-3.1c0-0.6-0.2-1.1-0.8-1.1c-0.7,0-1.1,0.6-1.1,1.8v2.4h-2v-3.1c0-0.6-0.2-1.1-0.8-1.1
		c-0.7,0-1.1,0.6-1.1,1.8v2.4h-2V28.5z"/>
	<path class="st5" d="M148,32c0.1,0.8,0.7,1.1,1.7,1.1c0.5,0,1.2-0.1,1.7-0.4V34c-0.6,0.3-1.4,0.4-2.1,0.4c-1.9,0-3.3-1.1-3.3-3
		s1.3-3,3.1-3c2.1,0,2.9,1.5,2.9,3.2V32H148z M150.1,30.8c0-0.7-0.3-1.2-1.1-1.2c-0.7,0-1.1,0.5-1.1,1.2H150.1z"/>
	<path class="st5" d="M153,28.5h1.8v1.1h0c0.4-0.8,1.2-1.2,2.1-1.2c1.6,0,2.2,1.1,2.2,2.3v3.6h-2v-2.8c0-1.1-0.4-1.4-0.9-1.4
		c-0.8,0-1.2,0.6-1.2,1.8v2.4h-2V28.5z"/>
	<path class="st5" d="M159.8,28.5h1.2v-1.3l1.9-0.6v1.9h1.4v1.4h-1.4V32c0,0.7,0.2,1,0.8,1c0.2,0,0.4,0,0.6-0.1l0.1,1.3
		c-0.4,0-0.7,0.1-1.2,0.1c-1.8,0-2.2-0.8-2.2-2.1v-2.3h-1.1V28.5z"/>
	<path class="st5" d="M167.2,29l-1.6-0.3l0.4-1.3l1.5,0.7l-0.2-1.6h1.3l-0.2,1.6l1.4-0.7l0.4,1.3l-1.6,0.3l1.1,1.1l-1.1,0.8
		l-0.7-1.4l-0.8,1.4l-1.1-0.8L167.2,29z"/>
	<path class="st5" d="M8.5,47.3H7.3l-1.5-4.7h0l-1.4,4.7H3.2l-1.8-5.6h1.1l1.3,4.6h0l1.4-4.6h1.2l1.4,4.6h0l1.4-4.6h1L8.5,47.3z"/>
	<path class="st5" d="M12.6,40.4h-1.2v-1.2h1.2V40.4z M11.5,41.6h1v5.6h-1V41.6z"/>
	<path class="st5" d="M17.4,42.5h-1.5v3.1c0,0.6,0.4,1,0.9,1c0.3,0,0.5-0.1,0.7-0.2v0.9c-0.2,0.1-0.6,0.2-0.9,0.2
		c-1.1,0-1.7-0.5-1.7-1.6v-3.3h-1.3v-0.8h1.3v-1.3l1-0.3v1.6h1.5V42.5z"/>
	<path class="st5" d="M18.7,39h1v3.4h0c0.4-0.6,1-0.9,1.8-0.9c1.5,0,2.1,0.9,2.1,2.4v3.3h-1v-2.9c0-1.3-0.3-1.9-1.2-2
		c-1.2,0-1.7,0.9-1.7,2.3v2.6h-1V39z"/>
	<path class="st5" d="M27.9,44.4c0-1.9,1.4-3,3.3-3c1.9,0,3.3,1.1,3.3,3c0,1.9-1.4,3-3.3,3C29.4,47.4,27.9,46.3,27.9,44.4z
		 M32.5,44.4c0-0.9-0.4-1.6-1.3-1.6c-0.9,0-1.3,0.8-1.3,1.6c0,0.8,0.4,1.6,1.3,1.6C32.2,46,32.5,45.2,32.5,44.4z"/>
	<path class="st5" d="M35.5,41.5h1.8v1.1h0c0.4-0.8,1.2-1.2,2.1-1.2c1.6,0,2.2,1.1,2.2,2.3v3.6h-2v-2.8c0-1.1-0.4-1.4-0.9-1.4
		c-0.8,0-1.2,0.6-1.2,1.8v2.4h-2V41.5z"/>
	<path class="st5" d="M44.6,45c0.1,0.8,0.7,1.1,1.7,1.1c0.5,0,1.2-0.1,1.7-0.4V47c-0.6,0.3-1.4,0.4-2.1,0.4c-1.9,0-3.3-1.1-3.3-3
		s1.3-3,3.1-3c2.1,0,2.9,1.5,2.9,3.2V45H44.6z M46.8,43.8c0-0.7-0.3-1.2-1.1-1.2c-0.7,0-1.1,0.5-1.1,1.2H46.8z"/>
	<path class="st5" d="M55.2,40.6h-2v-1.5h2V40.6z M53.2,41.5h2v5.7h-2V41.5z"/>
	<path class="st5" d="M56.6,41.5h1.8v1.1h0c0.4-0.8,1.2-1.2,2.1-1.2c1.6,0,2.2,1.1,2.2,2.3v3.6h-2v-2.8c0-1.1-0.4-1.4-0.9-1.4
		c-0.8,0-1.2,0.6-1.2,1.8v2.4h-2V41.5z"/>
	<path class="st5" d="M64,39h2v3.4h0c0.4-0.6,1.1-1,1.9-1c1.6,0,2.2,1.1,2.2,2.3v3.6h-2v-2.8c0-1.1-0.4-1.4-0.9-1.4
		c-0.8,0-1.2,0.6-1.2,1.8v2.4h-2V39z"/>
	<path class="st5" d="M75.1,47.3c0-0.3,0-0.6,0-0.9h0c-0.5,0.7-1,1-1.8,1c-1.1,0-2.1-0.6-2.1-1.8c0-1.8,1.9-2,3-2
		c0.3,0,0.7,0,0.9,0.1c0-0.8-0.6-1-1.3-1c-0.6,0-1.3,0.1-1.8,0.4l0-1.3c0.7-0.3,1.4-0.4,2.3-0.4c1.5,0,2.7,0.6,2.7,2.4v2.1
		c0,0.5,0,0.9,0.1,1.4H75.1z M73.7,46.1c0.7,0,1.2-0.7,1.2-1.4c-0.3,0-0.5,0-0.8,0c-0.7,0-1.2,0.2-1.2,0.8
		C72.9,45.8,73.2,46.1,73.7,46.1z"/>
	<path class="st5" d="M78.3,39h2v8.3h-2V39z"/>
	<path class="st5" d="M85.5,47.3c0-0.3,0-0.6,0-0.9h0c-0.5,0.7-1,1-1.8,1c-1.1,0-2.1-0.6-2.1-1.8c0-1.8,1.9-2,3-2
		c0.3,0,0.7,0,0.9,0.1c0-0.8-0.6-1-1.3-1c-0.6,0-1.3,0.1-1.8,0.4l0-1.3c0.7-0.3,1.4-0.4,2.3-0.4c1.5,0,2.7,0.6,2.7,2.4v2.1
		c0,0.5,0,0.9,0.1,1.4H85.5z M84.1,46.1c0.7,0,1.2-0.7,1.2-1.4c-0.3,0-0.5,0-0.8,0c-0.7,0-1.2,0.2-1.2,0.8
		C83.3,45.8,83.6,46.1,84.1,46.1z"/>
	<path class="st5" d="M87.9,41.5h1.2v-1.3l1.9-0.6v1.9h1.4v1.4H91V45c0,0.7,0.2,1,0.8,1c0.2,0,0.4,0,0.6-0.1l0.1,1.3
		c-0.4,0-0.7,0.1-1.2,0.1c-1.8,0-2.2-0.8-2.2-2.1v-2.3h-1.1V41.5z"/>
	<path class="st5" d="M95.5,40.6h-2v-1.5h2V40.6z M93.5,41.5h2v5.7h-2V41.5z"/>
	<path class="st5" d="M96.7,44.4c0-1.9,1.4-3,3.3-3c1.9,0,3.3,1.1,3.3,3c0,1.9-1.4,3-3.3,3C98.1,47.4,96.7,46.3,96.7,44.4z
		 M101.3,44.4c0-0.9-0.4-1.6-1.3-1.6c-0.9,0-1.3,0.8-1.3,1.6c0,0.8,0.4,1.6,1.3,1.6C101,46,101.3,45.2,101.3,44.4z"/>
	<path class="st5" d="M104.3,41.5h1.8v1.1h0c0.4-0.8,1.2-1.2,2.1-1.2c1.6,0,2.2,1.1,2.2,2.3v3.6h-2v-2.8c0-1.1-0.4-1.4-0.9-1.4
		c-0.8,0-1.2,0.6-1.2,1.8v2.4h-2V41.5z"/>
	<path class="st5" d="M111.8,45.5h1.8l-1.1,3h-1.5L111.8,45.5z"/>
	<path class="st5" d="M118.1,44.4c0-1.9,1.4-3,3.3-3c1.9,0,3.3,1.1,3.3,3c0,1.9-1.4,3-3.3,3C119.6,47.4,118.1,46.3,118.1,44.4z
		 M122.7,44.4c0-0.9-0.4-1.6-1.3-1.6c-0.9,0-1.3,0.8-1.3,1.6c0,0.8,0.4,1.6,1.3,1.6C122.4,46,122.7,45.2,122.7,44.4z"/>
	<path class="st5" d="M125.7,41.5h1.8v1.1h0c0.4-0.8,1.2-1.2,2.1-1.2c1.6,0,2.2,1.1,2.2,2.3v3.6h-2v-2.8c0-1.1-0.4-1.4-0.9-1.4
		c-0.8,0-1.2,0.6-1.2,1.8v2.4h-2V41.5z"/>
	<path class="st5" d="M137.6,43.2c-0.4-0.2-0.7-0.3-1.2-0.3c-0.9,0-1.5,0.6-1.5,1.6c0,0.9,0.8,1.5,1.6,1.5c0.5,0,0.9-0.1,1.2-0.3
		l0,1.5c-0.5,0.2-1.1,0.3-1.6,0.3c-1.9,0-3.3-1.1-3.3-3c0-1.9,1.4-3,3.3-3c0.6,0,1.1,0.1,1.6,0.3L137.6,43.2z"/>
	<path class="st5" d="M140.3,45c0.1,0.8,0.7,1.1,1.7,1.1c0.5,0,1.2-0.1,1.7-0.4V47c-0.6,0.3-1.4,0.4-2.1,0.4c-1.9,0-3.3-1.1-3.3-3
		s1.3-3,3.1-3c2.1,0,2.9,1.5,2.9,3.2V45H140.3z M142.5,43.8c0-0.7-0.3-1.2-1.1-1.2c-0.7,0-1.1,0.5-1.1,1.2H142.5z"/>
	<path class="st5" d="M154.8,47.3H153v-1h0c-0.3,0.6-1.1,1.2-2,1.2c-1.7,0-2.6-1.4-2.6-3.1c0-1.4,0.9-2.9,2.5-2.9
		c0.8,0,1.5,0.2,2,0.9h0V39h2V47.3z M151.6,45.9c0.7,0,1.2-0.6,1.2-1.5c0-0.9-0.5-1.5-1.2-1.5c-0.8,0-1.2,0.7-1.2,1.4
		C150.4,45.2,150.9,45.9,151.6,45.9z"/>
	<path class="st5" d="M159.8,47.3c0-0.3,0-0.6,0-0.9h0c-0.5,0.7-1,1-1.8,1c-1.1,0-2.1-0.6-2.1-1.8c0-1.8,1.9-2,3-2
		c0.3,0,0.7,0,0.9,0.1c0-0.8-0.6-1-1.3-1c-0.6,0-1.3,0.1-1.8,0.4l0-1.3c0.7-0.3,1.4-0.4,2.3-0.4c1.5,0,2.7,0.6,2.7,2.4v2.1
		c0,0.5,0,0.9,0.1,1.4H159.8z M158.4,46.1c0.7,0,1.2-0.7,1.2-1.4c-0.3,0-0.5,0-0.8,0c-0.7,0-1.2,0.2-1.2,0.8
		C157.6,45.8,157.9,46.1,158.4,46.1z"/>
	<path class="st5" d="M164.9,40.6h-2v-1.5h2V40.6z M163,41.5h2v5.7h-2V41.5z"/>
	<path class="st5" d="M166.6,39h2v8.3h-2V39z"/>
	<path class="st5" d="M170.1,48.1c0.3,0.1,0.5,0.1,0.8,0.1c0.5,0,0.9-0.3,1-0.8l-2.3-5.9h2.1l1.2,3.7h0l1.2-3.7h2l-2.1,5.3
		c-0.6,1.4-1,2.8-2.8,2.8c-0.4,0-0.8,0-1.2-0.1L170.1,48.1z"/>
</g>
</svg>
